<?xml version="1.0" encoding="utf-8"?>
<!-- Generator: Adobe Illustrator 15.0.0, SVG Export Plug-In . SVG Version: 6.00 Build 0)  -->
<!DOCTYPE svg PUBLIC "-//W3C//DTD SVG 1.1//EN" "http://www.w3.org/Graphics/SVG/1.1/DTD/svg11.dtd">
<svg version="1.1" id="Layer_1" xmlns="http://www.w3.org/2000/svg" xmlns:xlink="http://www.w3.org/1999/xlink" x="0px" y="0px"
	 width="500px" height="500px" viewBox="0 0 500 500" enable-background="new 0 0 500 500" xml:space="preserve">
<circle fill="#1E293F" cx="249.316" cy="249.316" r="249.316"/>
<g>
	<path fill="#FFFFFF" d="M444.021,230.889c0.575-0.571,1.012-1.172,0.515-1.968c-0.376-0.603-0.999-0.883-1.71-0.856
		c-0.814,0.032-1.146,0.605-1.273,1.309c-0.363,1.981-1.838,2.874-3.547,2.812c-1.574-0.057-3.787-3.558-3.431-4.937
		c0.442-1.72,2.298-2.753,2.276-4.785c-0.006-0.55,1-0.448,1.53-0.206c0.751,0.341,1.442,0.81,2.173,1.195
		c0.734,0.387,1.508,0.416,2.035-0.279c0.617-0.81,0.253-1.577-0.396-2.218c-0.175-0.171-0.396-0.34-0.624-0.4
		c-1.896-0.494-2.779-1.195-1.377-3.272c0.557-0.824,0.583-2.414,0.188-3.385c-0.715-1.759-0.604-3.078,0.624-4.521
		c0.667-0.784,0.846-2.039-0.303-2.593c-1.359-0.655-1.621,0.613-1.974,1.545c-0.89,2.373-3.459,3.783-6.44,3.42
		c0.894-1.464,2.349-1.835,3.706-2.36c1.002-0.387,1.949-1.038,1.588-2.186c-0.436-1.392-1.627-0.818-2.527-0.473
		c-3.789,1.453-6.57,4.111-8.746,7.469c-0.453,0.701-0.957,1.284-2.227,1.106c1.34-1.672,0.58-3.363,0.672-4.986
		c0.104-1.833,1.655-2.84,2.334-4.332c0.339-0.743,0.176-1.159-0.799-1.337c-2.602-0.475-2.666-0.658-1.119-2.841
		c1.146-1.616,1.883-3.319,1.792-5.336c-0.024-0.554-0.438-1.271,0.136-1.635c0.649-0.411,1.421,0.094,1.793,0.524
		c1.439,1.661,3.026,2.962,5.195,3.627c0.681,0.208,1.223,0.959,1.916,0.245c0.678-0.699,0.587-1.537-0.055-2.243
		c-0.483-0.532-1.143-0.758-0.434-1.78c1.578-2.273,0.696-6.956-1.463-8.707c-0.507-0.41-1.302-0.641-1.029-1.484
		c0.242-0.75,0.93-0.542,1.494-0.424c0.709,0.147,1.385,0.146,1.66-0.656c0.296-0.854-0.217-1.412-0.861-1.882
		c-1.334-0.972-2.771-0.74-4.463-0.02c2.41-4.331,0.679-8.099-0.482-11.825c-0.285-0.915-1.346-2.311-2.697-1.4
		c-1.125,0.758-0.41,1.897,0.152,2.877c2.281,3.976,1.488,8.99-1.867,11.79c-0.664,0.553-1.264,1.045-1.264,2.011
		c0,0.472-0.36,0.774-0.854,0.645c-0.604-0.158-0.756-0.649-0.543-1.174c0.58-1.424,1.454-2.624,2.892-3.293
		c1.187-0.551,2.188-1.296,1.188-2.64c-0.876-1.178-2.095-0.836-3.062,0.031c-0.798,0.713-1.344,2.039-2.218,2.271
		c-3.438,0.911-3.477,4.889-6.227,6.499c-1.24,0.726-1.133,3.33-2.7,4.001c-1.418,0.607-1.288,3.085-3.573,2.491
		c-2.929-0.761,0.455,3.334-2.157,2.993c-0.079-0.01-0.161-0.015-0.369-0.036c-0.174-0.734-0.321-1.524-0.544-2.293
		c-0.448-1.547,1.22-3.659,2.829-3.313c1.724,0.371,3.187-0.077,3.802-1.518c0.728-1.703-1.271-1.795-2.158-2.487
		c-1.285-1.001-3.132-1.672-1.383-3.816c0.416-0.509-0.093-1.08-0.674-1.384c-0.41-0.215-1.12-0.262-0.955-0.919
		c0.188-0.754,0.903-0.491,1.47-0.545c2.052-0.195,4.101-0.419,6.144-0.689c1.247-0.164,2.405-0.658,2.178-2.172
		c-0.224-1.466-1.559-1.245-2.612-1.279c-1.248-0.041-2.483-0.04-3.659,0.564c-0.647,0.333-1.639,0.67-1.889-0.321
		c-0.245-0.969,0.78-1.16,1.509-1.218c2.602-0.208,3.384-1.43,2.352-3.855c-0.379-0.89,0.013-2.176,0.92-1.56
		c2.884,1.952,3.524,0.17,3.946-2.163c0.947,0.498,1.422,2.03,2.381,1.205c1.304-1.121-0.495-2.098-0.682-3.255
		c1.104,0.087,1.657,0.861,2.281,1.486c1.214,1.213,2.566,0.941,3.952,0.449c0.812-0.288,1.205-0.893,1.071-1.746
		c-0.146-0.94-0.858-1.103-1.674-1.132c-0.473-0.018-0.901,0.492-1.537-0.002c1.77-2.003-0.811-2.461-1.425-3.611
		c0.432-1.015,2.47-0.07,2.012-1.711c-0.533-1.914-2.146-0.7-3.51-0.75c0.354-0.624,0.489-1.204,0.85-1.441
		c2.204-1.448,1.677-3.517,1.424-5.575c-0.206-1.677-1.282-2.271-2.751-2.298c-1.475-0.027-1.546,0.855-1.18,2.032
		c0.205,0.654-0.413,0.811-0.902,0.929c-0.748,0.18-1.575,0.352-1.979-0.518c-0.876-1.888-2.018-3.495-4.287-4.156
		c1.291-1.135,2.343-1.858,3.84-1.504c0.696,0.165,1.604-0.063,1.561-0.817c-0.105-1.828,0.123-3.012,2.388-2.392
		c0.177,0.049,0.516-0.37,0.731-0.615c0.479-0.543,0.846-1.445,1.746-1.043c0.795,0.355,1.163,1.16,1.135,2.071
		c-0.029,0.853-0.552,2.115,0.939,2.027c1.304-0.077,1.941-1.338,1.51-2.402c-1.025-2.518-0.537-3.426,2.234-2.79
		c0.625,0.144,1.399-0.024,1.587-0.856c0.155-0.686-0.441-0.988-0.853-1.399c-1.293-1.295-3.031-0.93-4.836-1.138
		c0.81-0.959,1.429-1.707,2.064-2.438c0.709-0.815,1.435-1.616,2.154-2.421c0.75-0.838,0.844-1.657-0.216-2.274
		c-0.894-0.519-1.775-0.527-2.312,0.557c-0.295,0.595-0.479,1.245-0.793,1.828c-0.23,0.432-0.579,0.866-1.168,0.749
		c-0.5-0.098-0.483-0.604-0.633-0.98c-1.396-3.525-1.399-3.522-5.209-2.966c-0.575,0.083-1.174,0.281-1.723,0.191
		c-1.791-0.292-3.309-1.382-3.584-3.061c-0.32-1.951,1.563-1.308,2.679-1.551c0.967-0.21,1.67-0.952,1.646-1.954
		c-0.033-1.337-1.188-1.13-2.069-1.187c-2.497-0.16-4.091,1.685-5.949,2.833c-1.895,1.172-2.835,1.065-3.773-0.981
		c-0.347-0.75-0.652-1.544-1.14-2.197c-0.804-1.082-1.806-1.308-2.566,0.023c-0.558,0.973-1.199,1.332-2.231,0.884
		c-1.011-0.44-2.111-0.817-2.104-2.223c0.885-0.276,1.268,0.271,1.752,0.555c0.455,0.267,0.926,0.388,1.422,0.152
		c0.67-0.318,0.998-0.904,0.997-1.608c-0.002-0.947-0.802-0.915-1.442-1.017c-0.979-0.156-1.75-0.56-1.969-1.619
		c-0.094-0.454,0.087-0.854,0.501-1.037c0.921-0.409,1.79-0.22,2.585,0.361c0.27,0.197,0.517,0.42,0.782,0.624
		c0.772,0.598,1.618,0.968,2.514,0.332c0.841-0.597,0.962-1.539,0.831-2.477c-0.193-1.39-1.047-2.228-2.398-2.551
		c-0.902-0.217-2.022-0.37-1.803-1.597c0.195-1.08,1.248-0.416,1.916-0.52c0.735-0.115,1.5-0.3,2.217-0.2
		c1.545,0.216,2.891-0.06,2.846-1.825c-0.047-1.839-1.587-1.131-2.686-1.132c-1.01-0.001-2.662,0.23-1.938-1.522
		c0.722-1.748-0.313-2.636-1.062-3.77c1.88,0.035,2.861-0.36,1.884-2.634c-0.604-1.403-1.303-3.154,0.536-4.499
		c0.755-0.552,0.771-1.502,0.25-2.264c-0.558-0.819-1.302-0.438-2.003-0.104c-0.42,0.2-0.901,0.574-1.291-0.227
		c1.1-1.583,2.912-1.993,4.549-2.735c1.142-0.517,2.505-1.443,2.033-2.733c-0.511-1.398-1.977-0.642-3.07-0.308
		c-0.379,0.116-0.735,0.432-1.317,0.013c1.83-1.752,3.869-3.071,6.204-3.932c0.725-0.267,1.989-0.074,1.715-1.273
		c-0.269-1.161-1.445-1.29-2.478-1.02c-0.707,0.186-1.4,0.532-2.019,0.931c-0.957,0.619-1.959,0.956-3.055,0.627
		c-0.439-0.131-0.438-0.691-0.301-1.096c0.453-1.357,1.65-1.169,2.708-1.26c0.085-0.007,0.169,0,0.25-0.007
		c0.886-0.075,1.937,0.158,2.257-1.057c0.188-0.712-0.091-1.33-0.684-1.75c-0.826-0.589-1.725-0.678-2.547-0.031
		c-1.094,0.859-2.227,1.457-3.676,1.109c-0.635-0.153-1.026,0.261-1.523,0.608c-1.816,1.267-3.536,2.544-2.99,5.903
		c-1.277-1.375-1.951-1.985-2.482-2.701c-0.563-0.758-0.989-1.682-2.13-0.88c-1.027,0.722-0.666,1.563-0.116,2.39
		c0.368,0.554,0.627,1.243,1.12,1.641c1.412,1.138,1.033,2.479,0.646,3.871c-0.159,0.571-0.28,1.286-1.063,1.063
		c-0.85-0.243-0.803-0.922-0.458-1.618c0.79-1.59,0.512-2.422-1.477-2.111c-0.264,0.041-0.604-0.227-0.866-0.413
		c-0.791-0.563-1.595-0.661-2.2,0.16c-0.605,0.821-0.292,1.589,0.499,2.143c0.664,0.463,1.211,1.012,0.849,1.857
		c-0.414,0.964-1.365,0.883-2.175,0.758c-1.264-0.194-2.459-0.389-3.504,0.645c-0.331,0.328-0.878,0.675-1.313,0.168
		c-0.379-0.442-0.034-0.91,0.185-1.369c1-2.096,0.598-2.936-1.775-3.24c-1.017-0.131-1.706-0.335-1.457-1.426
		c0.251-1.098-0.948-1.482-1.03-2.475c0.358-0.078,0.671-0.155,0.983-0.213c0.909-0.165,2.286,0.339,2.395-1.107
		c0.083-1.126-1.056-1.603-1.964-2.02c-1.164-0.534-2.069-0.222-2.749,0.904c-0.335,0.556-0.531,1.442-1.766,1.157
		c0.774-1.555,2.132-2.939,0.839-4.729c-0.091-0.127,0.456-0.838,0.819-1.148c2.726-2.331,6.677-1.776,8.652,1.254
		c0.448,0.688,0.826,1.259,1.727,1.089c0.52-0.098,0.94-0.382,1.062-0.931c0.194-0.885-0.527-1.27-0.972-1.863
		c-2.049-2.746-5.148-3.734-8.132-4.808c3.525-1.655,6.326-0.74,8.646,2.128c0.521,0.641,1.023,1.858,2.139,1.195
		c1.024-0.611,0.277-1.659,0.15-2.513c-0.146-0.982-0.756-1.599-1.61-2.086c-0.816-0.465-1.756-0.892-1.99-1.954
		c0.59-0.439,1.08-0.124,1.562-0.106c0.929,0.034,2.01,0.159,2.222-1.039c0.228-1.294-0.791-1.711-1.838-1.889
		c-1.229-0.208-2.521-0.641-3.692-0.435c-1.783,0.313-2.704-0.186-3.729-1.694c-1.365-2.008-2.874-4.232-5.915-3.874
		c-0.655,0.077-1.439,0.02-1.59,0.873c-0.134,0.767,0.577,0.863,1.098,1.118c0.966,0.474,1.951,0.94,2.834,1.547
		c1.2,0.826,1.755,2.144,2.206,3.473c0.049,0.146-0.392,0.661-0.597,0.657c-1.48-0.031-2.39-0.952-3.099-2.148
		c-0.681-1.153-1.882-1.686-2.987-1.271c-1.582,0.593-3.228,0.65-4.809,1.075c-0.891,0.239-1.958,0.897-2.316-0.335
		c-0.43-1.476-1.985-3.189-0.403-4.586c1.52-1.34,3.264-2.598,5.418-2.937c0.842-0.132,2.128,0.291,2.255-0.967
		c0.132-1.303-1.032-1.874-2.136-2c-1.498-0.172-2.511-0.764-2.914-2.262c-0.36-1.334-1.124-1.332-2.444-1.208
		c-2.217,0.207-4.341,0.317-5.96,2.386c-0.584-1.473,0.014-3.222-1.893-3.23c-1.712-0.006-1.703,1.515-1.878,2.771
		c-1.785-1.854-1.523-2.953,0.746-3.701c1.077-0.355,1.925-5.13,1.225-6.112c-0.175-0.247-0.544-0.56-0.778-0.527
		c-1.287,0.182-1.721-0.302-1.801-1.602c-0.058-0.89-0.969-1.09-1.769-0.804c-0.767,0.275-0.897,0.897-0.625,1.637
		c0.316,0.854,0.548,1.745,0.931,2.567c1.063,2.292,0.289,4.561-1.908,5.658c-2.674,1.334-4.972,3.355-5.479,6.25
		c-0.405,2.312-1.397,2.683-3.262,2.638c-0.828-0.02-1.859-0.03-1.864,1.13c-0.002,1.097,0.898,1.584,1.882,1.621
		c1.073,0.04,2.155-0.15,3.232-0.167c0.564-0.009,1.334,0.005,1.284,0.815c-0.051,0.831-0.805,0.738-1.357,0.594
		c-1.702-0.445-3.029,0.724-4.556,0.99c-2.738,0.476-1.715,2.259-1.419,3.815c0.016,0.077-0.002,0.178-0.042,0.244
		c-1.631,2.705-3.703,5.038-6.076,7.105c-0.209,0.182-0.636,0.179-0.952,0.155c-0.681-0.05-3.666-4.644-3.332-5.236
		c0.403-0.719,0.737-1.37,0.05-2.014c-0.824-0.768-1.538-0.125-2.234,0.313c-0.352,0.222-0.695,0.46-1.024,0.715
		c-0.591,0.458-1.197,0.694-1.728-0.023c-0.527-0.714-0.15-1.21,0.489-1.638c1.04-0.695,2.051-1.4,3.351-1.577
		c0.689-0.093,1.256-0.536,1.358-1.285c0.104-0.782-0.536-0.941-1.104-1.097c-0.899-0.247-1.578-0.746-1.367-1.754
		c0.205-0.97,0.568-2.006,1.562-2.42c0.974-0.406,1.431,0.523,2.029,1.082c0.778,0.729,1.181,1.558,1.196,2.635
		c0.011,0.634,0.019,1.513,0.991,1.38c0.78-0.107,0.976-0.886,0.971-1.56c-0.013-1.751-0.748-3.202-2.02-4.392
		c-0.447-0.419-1.235-0.641-0.819-1.768c1.404,1.396,3.178,0.931,4.823,1.152c0.687,0.092,1.362,0.087,1.737-0.635
		c0.259-0.498,0.114-0.98-0.237-1.384c-0.528-0.61-1.16-0.531-1.817-0.229c-0.227,0.103-0.463,0.199-0.705,0.247
		c-0.577,0.116-1.25,0.251-1.641-0.263c-0.528-0.697,0.244-1.003,0.621-1.373c1.109-1.089,1.683-2.481,2.173-3.896
		c0.499-1.439-0.718-3.406-2.15-3.606c-0.694-0.097-1.436,0.293-0.975,0.899c2.304,3.025-0.569,3.993-2.125,5.233
		c-2.379,1.896-6.538,2.087-8.555,0.645c1.213-0.47,2.353-0.953,3.519-1.35c0.906-0.31,2.332-0.264,1.852-1.708
		c-0.448-1.34-1.588-0.732-2.53-0.341c-2.004,0.831-4.063,1.494-6.215,1.825c-0.584,0.09-1.264,0.173-1.632-0.343
		c-0.503-0.705,0.311-0.959,0.648-1.374c1.37-1.679,2.94-3.102,4.883-4.118c0.864-0.452,2.015-1.078,1.22-2.263
		c-0.691-1.032-1.584-0.381-2.328,0.265c-0.369,0.321-0.813,0.574-1.258,0.783c-3.226,1.519-7.124,2.298-6.828,7.268
		c0.062,1.036-1.027,2.261-2.396,2.021c-1.315-0.23-0.944-1.281-0.579-2.191c0.26-0.641,0.12-1.209-0.673-1.271
		c-0.89-0.068-1.604,0.402-2.201,1.009c-0.629,0.64-1.119,1.8-0.532,2.237c2.604,1.944,0.338,2.822-0.635,4.128
		c-0.684,0.919-1.048,2.072-1.568,3.114c-0.312,0.621-0.419,1.487-1.537,1.328c0.084-1.134,1.288-2.612-0.481-3.204
		c-1.504-0.504-2.485,0.514-3.019,1.911c-0.17,0.444-0.237,1.139-0.921,0.867c-0.678-0.27-0.624-1.019-0.357-1.516
		c0.666-1.242,1.388-2.467,2.217-3.603c0.785-1.073,1.091-2.233,1.078-3.51c-0.011-0.894-0.073-1.785-1.396-1.326
		c-1.39,0.483-1.95-0.679-1.565-1.395c0.858-1.596,1.028-3.738,2.924-4.617c0.828-0.385,1.722-0.625,1.142-1.697
		c-0.663-1.224-1.448-2.608-3.019-2.672c-1.418-0.058-0.635,1.437-1.055,2.126c-3.087-1.396-3.633-1.124-3.811,2.059
		c-0.067,1.212-0.531,1.468-1.582,1.041c-0.512-0.208-1.053-0.593-1.539,0.075c-0.01,0.864,1.523,1.627,0.475,2.395
		c-0.839,0.613-1.328-0.658-1.973-1.096c-0.204-0.139-0.37-0.333-0.557-0.501c-0.988-0.899-2.039-0.462-3.051-0.092
		c-0.598,0.219-0.984,0.754-0.783,1.389c0.365,1.15,1.367,0.582,2.131,0.686c1.049,0.142,1.119,0.89,0.853,1.68
		c-0.252,0.749-0.858,1.591-1.62,1.006c-1.231-0.946-3.408-1.095-3.369-3.268c0.052-2.841,1.67-4.822,4.082-5.188
		c0.735-0.112,1.504-0.088,2.215-0.283c0.728-0.2,0.992-0.839,0.957-1.575c-0.024-0.532-0.235-1.171-0.754-1.145
		c-1.515,0.079-3.084-0.751-4.562,0.451c-0.765,0.622-1.373,1.653-2.879,1.72c0.998-2.133,0.785-4.197,0.758-6.242
		c-0.039-2.892,1.003-5.194,3.574-6.683c0.862-0.5,1.733-0.992,2.593-1.5c0.592-0.35,1.229-0.777,0.864-1.56
		c-0.397-0.859-1.276-0.862-1.938-0.466c-1.277,0.765-2.496,1.647-3.671,2.569c-1.571,1.233-3.077,2.551-4.896,4.072
		c0.023-1.616,2.088-2.491,0.762-3.471c-1.096-0.81-1.012,1.477-2.094,1.533c-0.977-3.264-3.555-4.155-6.555-2.221
		c-0.582,0.375-1.027,0.356-1.613,0.153c-0.953-0.329-1.986-0.344-2.188,0.854c-0.196,1.157,0.823,1.49,1.763,1.685
		c0.806,0.168,1.658,0.171,2.15,1.037c1.131,1.994,0.371,6.592-1.518,7.995c-1.424,1.059-1.256,1.865-0.146,3.012
		c0.973,1.005,2.422,1.6,3.004,3.033c-0.646,0.324-0.916-0.033-1.261-0.249c-2.149-1.359-2.558-1.054-2.846,1.498
		c-0.136,1.194-0.085,2.199,0.293,3.35c0.426,1.301,0.381,2.782-1.763,1.771c-0.479-0.228-1.211,0.184-1.494-0.594
		c0.707-0.945,2.896-1.562,1.457-3.03c-1.077-1.097-2.769,0.134-3.33,1.13c-0.948,1.684-2.696,2.161-3.957,3.324
		c-1.231,1.139-4.163-0.35-3.643-1.786c0.91-2.512-1.094-4.313-1.039-6.668c0.041-1.702,0.127-2.865,1.188-4.168
		c1.832-2.247,4.394-3.19,6.871-4.353c0.812-0.381,1.725-1.049,1.063-2.144c-0.518-0.859-1.572-0.793-2.238-0.31
		c-2.688,1.952-6.713,1.55-8.6,4.919c-0.223,0.397-0.855,0.627-1.328,0.273c-0.51-0.383-0.254-0.968-0.027-1.369
		c0.813-1.445,1.664-2.871,2.574-4.257c0.537-0.818,1.142-1.662,0.027-2.334c-1.346-0.813-1.357,0.617-1.836,1.279
		c-1.452,2.001-1.59,4.905-4.58,5.877c-1.971,0.641-3.31,0.054-3.449-2.164c-0.15-2.438-0.715-2.786-2.789-1.639
		c-0.518,0.286-0.992,0.625-1.604,0.602c-0.881-0.034-1.857-0.323-2.074-1.125c-0.311-1.157,0.801-0.916,1.477-1.014
		c0.664-0.097,1.133-0.45,1.051-1.145c-0.099-0.854-0.783-1.055-1.494-0.916c-1.764,0.345-3.484-0.091-5.223-0.172
		c-0.747-0.035-1.334-0.183-1.421-1.042c-0.065-0.639,0.136-1.183,0.79-1.393c0.942-0.303,1.745-0.687,1.516-1.893
		c-0.122-0.647-0.581-1-1.199-1.121c-1.107-0.216-1.674,0.423-2.117,1.329c-0.723,1.479-1.873,1.738-3.51,1.619
		c-1.819-0.132-3.047-1.198-4.497-1.939c-0.825-0.422-1.786-1.043-2.471-0.096c-0.734,1.017,0.415,1.587,0.964,2.255
		c0.764,0.928,3.106,0.463,2.683,1.998c-0.38,1.38-2.229,0.104-3.379,0.432c-1.286,0.366-2.519,0.999-2.153,2.542
		c0.379,1.593,1.736,1.194,2.885,0.881c0.922-0.252,1.77-0.899,2.863-0.544c-0.396,0.684-1.19,1.441-1.05,1.928
		c0.543,1.89-0.15,3.143-1.521,4.293c-0.396,0.33-0.347,0.926-0.059,1.393c0.366,0.592,0.928,0.654,1.535,0.469
		c1.405-0.427,2.506-1.206,3.303-2.496c0.502-0.815,1.43-0.954,2.185-0.375c0.757,0.581,0.102,1.146-0.253,1.703
		c-1.028,1.615-0.289,2.82,0.989,3.85c0.471,0.381,1.344,0.383,1.196,1.321c-3.029,0.865-3.076,0.938-1.449,3.444
		c0.457,0.703,0.692,1.378,0.172,2.066c-1.068,1.42-2.477-0.585-3.697,0.316c-0.369,0.273-0.701-0.289-0.65-0.754
		c0.108-0.993-0.211-1.657-1.291-1.708c-0.963-0.045-1.593,0.449-1.818,1.377c-0.422,1.738-1.206,1.227-2.018,0.332
		c-1.057-1.167-1.864-2.761-3.162-3.467c-2.339-1.272-1.239-1.618,0.239-2.288c0.733-0.333,1.606-0.77,1.626-1.734
		c0.024-1.138-1.035-1.11-1.784-1.387c-0.235-0.087-0.403-0.252-0.235-0.597c0.877-0.239,2.275,0.645,2.607-1.002
		c0.191-0.943-0.306-1.586-1.095-2.044c-1.19-0.69-1.989-0.441-2.527,0.886c-0.264,0.651-1.05,0.752-1.483,0.31
		c-1.109-1.135-2.752-1.548-3.698-2.896c-1.299-1.849-3.22-2.813-5.288-3.555c-0.674-0.24-1.315-0.476-1.715,0.333
		c-0.328,0.663-0.188,1.375,0.35,1.833c0.49,0.417,1.136,0.658,1.73,0.944c2.461,1.185,4.578,2.667,5.43,5.486
		c0.48,1.591-0.193,2.794-1.084,3.903c-1.139,1.419-1.352-0.355-2.002-0.667c-0.722-0.348-1.655-0.068-1.586,0.586
		c0.177,1.66-0.484,2.166-1.991,2.221c-0.612,0.022-1.01,0.566-1.03,1.231c-0.019,0.67,0.427,1.323,0.959,1.29
		c3.734-0.231,4.556,1.976,4.495,5.073c-0.007,0.349,0.407,0.707,0.63,1.059c0.282,0.444,0.483,0.948,0.143,1.397
		c-1.461,1.928-1.314,4.692-3.732,6.254c-1.096,0.708-1.328,1.423-1.869-0.164c-0.279-0.816-0.711-1.454-1.615-0.941
		c-1.028,0.583-0.929,1.454-0.262,2.322c0.42,0.547,1.291,0.874,0.896,1.943c-1.9-0.806-3.808-1.531-5.634-2.423
		c-1.107-0.54-1.693-1.79-0.9-2.705c1.109-1.277,0.89-2.595,1.064-4.024c0.234-1.94-0.311-2.522-2.125-2.083
		c-0.394,0.095-0.857,0.383-1.069-0.142c-0.24-0.595,0.187-0.943,0.719-1.072c0.957-0.233,2.247-0.205,2.306-1.48
		c0.077-1.661,1.012-2.523,2.229-3.341c0.972-0.652,1.75-1.668,0.893-2.711c-0.943-1.148-2.321-0.885-3.311,0.094
		c-0.693,0.685-1.129,1.635-1.656,2.481c-0.995,1.59-2.413,1.033-3.517,0.433c-1.425-0.773-0.275-1.651,0.261-2.426
		c0.423-0.614,0.827-1.245,1.276-1.84c0.442-0.586,0.661-1.218,0.196-1.832c-0.549-0.721-1.301-0.586-2.042-0.274
		c-1.732,0.731-4.907,6.265-4.586,8.082c0.177,1.002,1.409,1.732,0.753,2.969c-0.199,0.376-0.33,0.796-0.836,0.8
		c-0.39,0.003-0.606-0.283-0.643-0.631c-0.375-3.466-3.112-4.906-5.602-6.556c-2.214-1.466-3.82-1.131-5.282,1.076
		c-0.509,0.768-0.673,1.57-0.048,2.299c0.602,0.701,1.209,0.181,1.759-0.185c1.53-1.02,2.69-0.495,4.002,0.612
		c1.804,1.523,1.072,4.393,3.442,5.571c-1.517,0.205-2.53-0.385-3.488-1.198c-0.86-0.729-1.962-0.965-2.657-0.007
		c-0.888,1.226,0.347,1.707,1.177,2.225c1.086,0.678,2.577,0.867,3,2.609c-1.129-0.286-2.145-0.571-3.174-0.793
		c-0.666-0.144-1.434-0.2-1.706,0.596c-0.327,0.96,0.413,1.418,1.161,1.571c1.66,0.34,2.834,1.238,3.782,2.62
		c0.49,0.715,1.306,1.181,2.078,0.246c1.331-1.613,1.766-0.379,2.122,0.693c0.879,2.636-2.037,5.689-4.801,4.826
		c-2.445-0.762-4.94-0.672-7.402-1.03c-1.932-0.281-3.341,0.866-4.572,2.14c-0.703,0.728-0.939,2.019,0.139,2.285
		c1.64,0.405,2.453,2.277,4.354,2.096c0.793-0.076,1.509,0.664,1.525,1.412c0.028,1.308,0.728,2.364,1.26,3.628
		c-0.508,0-0.763,0.051-0.984-0.014c-0.227-0.068-0.538-0.2-0.614-0.386c-1.453-3.545-4.899-3.805-7.879-4.939
		c-2.296-0.872-3.666,0.325-5.008,1.727c-0.737,0.771-0.431,1.907-0.615,2.876c-0.123,0.651-0.648,1.661-1.158,0.693
		c-1.428-2.712-4.334-2.58-6.522-3.758c-1.534-0.825-1.996-1.45-0.599-2.7c0.692-0.619,1.332-1.509,0.232-1.973
		c-2.359-0.994-1.305-2.215-0.506-3.51c0.435-0.704,0.849-1.428,1.352-2.081c0.533-0.693,0.986-1.372,0.578-2.269
		c-0.235-0.516-0.693-0.725-1.236-0.601c-0.962,0.219-1.209,1.025-1.476,1.837c-0.286,0.868-0.643,1.714-0.985,2.562
		c-0.245,0.608-0.393,1.396-1.205,1.425c-0.828,0.033-1.259-0.584-1.695-1.257c-1.797-2.769-1.778-5.401,0.375-7.969
		c0.718-0.856,1.137-1.778-0.197-2.441c-1.281-0.636-1.91,0.035-2.488,1.198c-1.276,2.567-1.694,5.225-1.138,8.005
		c0.35,1.756-1.062,2.593-1.888,3.586c-0.866,1.039-1.473-0.505-2.217-0.835c-2.201-0.976-4.689-1.063-6.82-2.277
		c-0.498-0.283-1.174-0.059-1.498,0.552c-0.369,0.695-0.123,1.293,0.408,1.791c0.559,0.524,1.231,1.049,1.979,0.954
		c3.878-0.49,4.855,2.608,6.464,5.185c-2.163-1.494-3.927,0.079-5.792,0.526c-1.511,0.362-2.126,1.359-1.117,2.783
		c0.576,0.812,0.741,1.628,0.619,2.583c-0.102,0.791,0.044,1.572,0.952,1.793c1.047,0.255,1.485-0.467,1.776-1.323
		c0.326-0.96,0.746-1.839,2.073-2.072c0.087,2.508,1.231,2.958,3.209,1.619c0.433-0.293,0.955-0.509,1.312,0.034
		c0.314,0.48,0.041,0.969-0.311,1.351c-0.948,1.027-2.404,1.979-3.479,1.68c-2.564-0.714-3.832,0.998-5.44,2.16
		c-0.868,0.628-1.579,1.486-2.479,2.051c-0.821,0.515-2.234,0.711-1.396,2.027c0.766,1.203,1.866,0.643,2.76-0.17
		c1.216-1.106,2.6-1.876,4.554-2.362c-0.614,1.279-1.12,2.14-1.453,3.064c-0.894,2.479,0.124,4.307,2.686,4.809
		c1.097,0.215,1.388,0.769,1.072,1.767c-0.2,0.63-0.495,1.249-0.574,1.895c-0.096,0.776,0.108,1.565,1.006,1.774
		c1.032,0.24,1.26-0.544,1.412-1.318c0.195-0.989,0.503-1.882,1.757-2.33c0.292,2.912,1.962,4.949,3.71,7.337
		c-1.895-0.64-2.84,1.168-4.445,1.3c-0.972,0.08-1.4,0.828-1.461,1.752c-0.057,0.857-0.021,1.708,0.977,2.067
		c0.657,0.237,1.448,0.499,0.892,1.353c-0.999,1.537-0.945,2.898,0.144,4.364c0.42,0.564,0.15,1.316-0.351,1.825
		c-0.415,0.422-0.938,0.181-1.413,0.041c-0.686-0.204-0.941-0.643-0.68-1.332c0.246-0.651,0.053-1.155-0.541-1.477
		c-1.273-0.692-1.432-1.874-1.62-3.164c-0.288-1.961-0.322-3.999-1.303-5.813c-0.419-0.775-0.272-1.35,0.481-1.916
		c1.13-0.85,1.06-2.116-0.029-2.688c-1.314-0.689-2.152-1.286-2.43-2.911c-0.175-1.026-1.398-0.55-2.065-0.015
		c-1.044,0.838-1.824,0.445-2.593-0.372c-0.739-0.787-1.53-1.515-2.029-2.514c-0.801-1.606-1.922-2.037-3.354-0.693
		c-1.756,1.648-3.747,0.495-5.465,0.165c-1.749-0.335,0.629-1.5,0.057-2.346c-0.089-0.131-0.073-0.331-0.154-0.47
		c-1.316-2.256,0.72-4.771-0.562-7.071c-0.293-0.525,0.451-0.771,0.953-0.85c0.818-0.129,1.449-0.45,1.453-1.396
		c0.003-0.749-0.359-1.279-1.102-1.47c-0.9-0.232-1.642,0.055-2.213,0.777c-0.958,1.209-1.424,2.604-1.666,4.118
		c-0.382,2.384-1.172,4.603-3.221,6.868c-0.045-1.739-1.644-2.312-1.568-3.631c0.151-2.597-1.368-4.561-2.31-6.735
		c-0.468-1.078-1.322-1.956,0.2-2.912c0.605-0.38,0.541-1.189,0.148-1.818c-0.362-0.579-1.014-0.805-1.506-0.407
		c-1.158,0.936-2.189,2.088-2.572,3.54c-0.346,1.309,0.618,2.154,1.616,2.846c0.342,0.237,0.792,0.389,1.021,0.704
		c0.735,1.017,0.496,2.212,0.378,3.336c-0.051,0.49-0.544,0.867-1.11,0.814c-1.037-0.097-1.254-0.945-1.503-1.755
		c-0.188-0.613-0.517-1.15-1.248-0.729c-0.77,0.442-1.346,1.16-0.942,2.071c0.785,1.768,1.615,3.531,4.102,3.291
		c0.916-0.089,1.735,0.426,1.604,1.463c-0.124,0.982-1.034,0.568-1.638,0.558c-3.406-0.058-6.819,0.381-10.218-0.1
		c-1.945-0.275-3.308,0.916-4.745,1.875c-0.678,0.453-0.965,1.219-0.477,1.97c0.454,0.698,1.153,0.521,1.789,0.209
		c1.134-0.557,2.251-1.041,3.585-0.675c1.238,0.339,2.486,0.21,3.666-0.321c1.744-0.785,3.147-0.176,4.634,0.987
		c-0.79,0.735-1.557,0.863-2.403,0.917c-2.835,0.178-5.555,0.549-6.05,4.176c-0.048,0.351-0.431,0.704-0.739,0.96
		c-0.971,0.804-1.094,1.826-0.805,2.942c0.141,0.544,0.561,0.823,1.141,0.711c1.145-0.221,1.575-1.016,1.833-2.091
		c0.302-1.256,1.371-2.73,2.206-2.795c1.478-0.114,3.039-0.055,4.568-0.064c0.59-0.005,0.93,0.759,0.957,1.548
		c0.069,1.948-1.986,4.248-4.158,4.511c-4.764,0.574-9.284,4.829-9.918,9.309c-0.103,0.734-0.055,1.393,0.768,1.588
		c0.803,0.191,1.385-0.319,1.398-1.049c0.054-3.368,2.231-4.977,4.919-6.257c0.715-0.34,1.194-1.283,2.166-0.894
		c0.418,0.168,0.485,0.669,0.394,1.09c-0.215,1.004-0.635,1.921-1.605,2.387c-0.342,0.164-0.816,0.052-1.229,0.064
		c-0.771,0.023-1.577,0.068-1.787,1c-0.195,0.868,0.41,1.471,1.041,1.835c1,0.577,2.103,0.976,3.162,1.451
		c0.867,0.389,2.139,0.473,1.66,1.953c-0.365,1.128-3.407,2.882-3.986,2.256c-0.998-1.078-1.931-0.906-3.255-0.86
		c-1.635,0.057-3.294-1.051-4.926,0.264c-0.264,0.213-0.561-0.168-0.815-0.396c-1.957-1.754-4.101-1.933-6.319-0.189
		c-1.157,0.91-1.934,0.843-3.09,0.15c-0.979-0.586-2.243-2.245-3.176-1.028c-1.121,1.463,1.142,1.963,1.796,2.97
		c0.072,0.109,0.01,0.305,0.01,0.525c-2.072,0.219-4.06,0.718-5.615,2.228c-0.607,0.591-1.895,1.044-1.24,2.123
		c0.748,1.233,1.904,0.602,2.856,0.049c1.72-0.999,3.707-1.299,5.452-2.368c1.577-0.965,3.307,0.462,4.954,0.894
		c0.128,0.033,0.292,0.552,0.228,0.611c-1.107,1.004-2.243,1.935-3.852,2.046c-2.959,0.204-5.314,1.892-7.658,3.434
		c-1.301,0.856-2.012,2.189,0.113,3.198c1.136,0.54,1.31,1.287,0.62,2.422c-0.551,0.906-0.84,1.979-1.179,3
		c-0.322,0.971-0.645,2.118,0.715,2.484c1.359,0.366,1.368-0.942,1.908-1.747c1.184-1.764,0.122-3.889,1.337-5.688
		c1.612-2.386,3.626-3.951,6.315-4.92c2.122-0.765,2.738-0.492,2.49,1.829c-0.145,1.347-0.093,2.373,1.573,2.445
		c0.957,0.041,0.883,0.37,0.739,1.258c-0.505,3.12,0.729,4.78,3.5,4.813c-0.724,1.441-2.173,1.51-3.281,2.08
		c-1.117,0.575-1.778,1.325-0.841,2.55c0.413,0.541,1.551,0.803,0.9,1.729c-0.611,0.87-1.702,0.704-2.539,0.403
		c-1.255-0.451-2.542-1.333-3.813-0.719c-3.453,1.669-6.295,0.025-9.474-1.017c-2.887-0.947-6.182-1.203-9.017,0.863
		c-0.609,0.444-0.974,0.956-0.594,1.685c0.431,0.827,1.329,1.053,1.894,0.497c2.38-2.341,4.809-0.883,7.24-0.271
		c0.526,0.133,1.299,0.053,1.291,0.871c-0.006,0.664-0.538,1.042-1.15,1.138c-2.349,0.371-4.571,1.427-7.113,0.729
		c-1.474-0.404-3.144-0.132-4.724-0.101c-0.673,0.013-1.389,0.186-1.534,1.001c-0.134,0.756,0.534,0.96,1.052,1.192
		c1.459,0.657,2.749,1.942,4.619,0.96c0.716-0.376,1.384,0.162,1.901,0.818c2.109,2.683,1.815,3.545-1.67,4.622
		c-0.77,0.237-1.446,0.563-1.405,1.485c0.035,0.779,0.651,1.07,1.309,1.322c0.625,0.239,1.57-0.215,1.879,0.837
		c-0.928,0.96-1.692-0.098-2.489-0.221c-2.34-0.362-3.476,1.06-4.06,2.872c-0.709,2.202,1.144,1.302,2.091,1.451
		c0.078,0.012,0.195,0.038,0.22,0.091c1.156,2.47,2.072,1.332,2.997-0.18c0.276-0.452,0.731-0.736,1.272-0.559
		c0.727,0.238,0.354,0.759,0.263,1.232c-0.387,2.023,1.017,1.573,2.001,1.288c1.63-0.471,3.22-0.987,4.901-1.348
		c2.541-0.546,4.724,1.658,7.159,0.433c0.082-0.042,0.458,0.244,0.483,0.411c0.029,0.19-0.128,0.485-0.296,0.616
		c-0.689,0.534-1.517,0.634-2.364,0.653c-1.491,0.033-3.018-0.109-4.199,1.141c-0.622,0.66-1.117,0.151-1.722-0.215
		c-3.076-1.864-5.437-0.84-7.113,2.293c-0.852,1.593-0.8,4.026-3.545,4.538c-1.294,0.242-1.163,1.664,0.268,2.291
		c1.419,0.622,2.721,0.374,4.03-0.439c0.753-0.468,1.872-0.999,2.486-0.091c0.614,0.906-0.423,1.631-0.973,2.331
		c-1.139,1.45-2.818,1.338-4.357,1.328c-1.138-0.007-2.106,0.229-3.097,0.722c-1.107,0.551-2.294,1.137-1.611,2.578
		c0.777,1.64,1.769,0.387,2.649-0.073c0.62-0.324,1.283-0.377,1.947-0.262c0.712,0.123,1.377,0.367,0.884,1.31
		c-1.327,2.539,0.388,2.588,2.025,2.283c1.85-0.345,3.283,0.077,4.451,1.503c0.264,0.321,0.551,0.713,0.304,1.127
		c-0.263,0.441-0.751,0.335-1.114,0.146c-1.538-0.8-3.055,0.212-4.591,0.186c-0.784-0.013-2.756-0.057-3.128,1.371
		c-0.389,1.497,1.447,1.286,2.11,2.035c0.166,0.188,0.345,0.364,0.491,0.565c0.283,0.39,0.777,0.737,0.565,1.293
		c-0.223,0.581-0.846,0.595-1.289,0.473c-3.381-0.931-5.661,1.263-8.167,2.815c-1.005,0.622-1.856,1.547-1.01,2.642
		c0.952,1.231,1.928,0.315,2.677-0.521c0.717-0.799,1.324-1.746,2.974-1.237c-1.117,1.1-2.122,2.045-3.076,3.04
		c-0.763,0.796-2.217,1.685-0.92,2.822c1.171,1.026,1.859-0.435,2.471-1.255c1.519-2.038,3.599-3.404,5.623-4.85
		c0.662-0.473,1.304-0.322,1.33,0.329c0.08,1.934,1.323,4.357-0.457,5.701c-2.392,1.807-1.621,4.464-2.306,6.603
		c-0.713,2.227-0.729,4.523-2.943,5.976c-0.792,0.519-0.997,1.372-0.385,2.182c0.878,1.164,1.192,2.037-0.692,2.435
		c-1.119,0.236-1.245,0.979-0.61,1.87c0.343,0.481,0.819,1.027,0.511,1.584c-1.883,3.4,1.125,3.865,2.971,4.981
		c1.008,0.61,1.925,0.111,2.755-0.528c0.486-0.374,0.919-0.819,0.582-1.472c-0.499-0.965-1.452-1-2.384-1.018
		c-1.06-0.021-2.096-0.067-2.376-1.788c1.564,0.492,2.639,1.356,4.055,1.217c2.804-0.276,4.569,1.295,5.54,3.704
		c0.536,1.326,1.18,1.882,2.598,1.607c2.023-0.393,2.969,0.994,3.97,2.37c-2.069-0.458-4.028-0.217-5.986-0.13
		c-0.843,0.037-1.784-0.03-2.295-0.758c-1.723-2.46-3.901-1.663-6.27-1.296c-2.679,0.414-5.514,3.325-8.218-0.134
		c-0.394-0.504-1.298-0.258-1.758,0.358c-0.43,0.578-0.386,1.219-0.107,1.892c0.294,0.709,1.445,0.546,1.488,1.531
		c-0.711,0.572-1.424,0.191-2.141,0.082c-3.003-0.455-4.461,0.885-4.033,3.663c0.103,0.666-0.31,1.121-0.785,1.461
		c-0.467,0.335-1.14,0.448-1.504,0.854l-0.714,4.96c1.406-0.513,2.468-1.531,2.762-2.977c0.402-1.978,1.972-2.279,3.439-2.822
		c1.004-0.373,2.158-0.24,3.064-0.977c0.49-0.398,1.147-1.052,1.709-0.312c0.498,0.657-0.281,1.167-0.629,1.709
		c-1.685,2.629-4.102,4.518-6.475,6.448c-0.705,0.572-1.159,1.215-0.835,2.15c0.313,0.906,1.076,1.238,1.945,1.324
		c1,0.101,1.22-0.666,1.442-1.404c0.257-0.852,0.926-1.34,1.576-1.876c1.222-1.005,2.429-2.058,3.016-3.587
		c0.581-1.516,1.5-2.833,3.218-2.625c1.89,0.228,3.452,1.503,4.014,3.283c0.38,1.203,1.641,2.758,0.276,3.938
		c-1.045,0.904-1.48,1.978-1.738,3.299c-3.588-2.873-4.149-2.944-6.073-1.03c-0.581,0.577-0.96,1.211-0.626,1.995
		c0.407,0.96,1.16,0.632,1.912,0.423c3.341-0.938,4.762-0.076,5.352,3.368c0.195,1.138,0.645,1.834,1.729,2.166
		c1.161,0.355,2.136,0.216,2.812-0.909c0.36-0.599,0.77-1.224,1.551-0.591c0.601,0.487,0.707,1.136,0.133,1.74
		c-1,1.053-0.816,2.09-0.019,3.142c0.341,0.45,0.426,0.916-0.02,1.336c-0.69,0.649-1.448,1.338-0.7,2.325
		c0.684,0.904,1.733,0.849,2.757,0.679c0.456-0.076,0.986-0.373,1.384,0.442c-0.895,1.132-2.31,1.727-3.383,0.896
		c-1.878-1.457-5.916,0.005-5.784-4.188c0.007-0.203-0.448-0.48-0.738-0.623c-2.636-1.291-4.833-3.15-6.919-5.181
		c-0.46-0.448-1.116-0.735-1.729-0.974c-0.74-0.287-1.5-0.225-2.057,0.433c-0.471,0.556-0.596,1.288-0.246,1.877
		c1.011,1.701,1.878,3.572,3.908,4.352c0.436,0.168,1.099-0.022,1.16,0.664c0.061,0.694-0.473,1.064-1.052,1.219
		c-2.156,0.569-2.058,1.935-1.146,3.431c0.749,1.227,0.291,2.156-0.608,2.83c-1.756,1.315-2.062,2.684-0.288,4.27
		c-1.175,0.429-2.863-0.293-2.763,1.354c0.08,1.327,1.392,2.02,2.707,2.194c0.636,0.084,1.311-0.149,1.971-0.202
		c0.605-0.05,1.229,0.02,1.446,0.691c0.172,0.531-0.124,1.104-0.593,1.246c-2.099,0.638-2.091,3.086-3.695,4.177
		c-0.607,0.413-0.784,1.359,0.029,1.935c0.693,0.489,1.476,0.415,1.992-0.306c0.587-0.817,1.083-1.716,2.121-2.019
		c0.666-0.192,1.709-0.145,1.087,0.787c-1.301,1.946-0.281,2.076,1.277,2.137c0.612,0.022,1.23,0.295,1.191,1.013
		c-0.036,0.646-0.688,0.567-1.165,0.649c-0.488,0.084-1.015,0.11-1.444,0.324c-0.813,0.408-1.255,1.157-1.103,2.057
		c0.189,1.123,1.125,1.157,1.958,0.955c1.614-0.394,3.612,0.308,4.71-1.646c0.254-0.452,0.838-0.673,1.312-0.36
		c0.558,0.367,0.225,0.889-0.017,1.314c-0.785,1.377-0.845,2.887-0.657,4.377c0.317,2.514,2.695,3.537,4.554,1.826
		c1.218-1.121,1.885-1.156,3.05-0.018c1.061,1.039,2.498,1.031,3.605-0.049c0.964-0.939,0.724-1.868-0.357-2.726
		c-0.983-0.778-0.113-1.505,0.355-2.115c0.376-0.493,1.22-0.813,1.421-0.108c0.6,2.104,2.047,1.432,3.413,1.32
		c1.502-0.122,2.891,0.055,4.3,0.873c2.551,1.479,4.254,0.333,4.104-2.602c-0.094-1.801-0.428-3.506-2.417-4.27
		c-0.857-0.328-0.853-0.941-0.384-1.594c0.298-0.414,0.422-1.412,1.173-0.869c1.415,1.025,2.283,0.488,3.086-0.725
		c0.342-0.519,0.845-0.629,1.243-0.18c0.553,0.626,1.729,0.604,1.861,1.516c0.112,0.771-0.798,0.631-1.284,0.863
		c-1.79,0.861-1.987,1.791-0.414,2.889c1.008,0.701,0.16,0.992,0.029,1.548c-0.391,1.657-2.285,3.032-1.438,4.804
		c0.546,1.143,0.902,2.238,1.194,3.447c0.581,2.398,3.784,3.902,6.271,2.82c1.288-0.561,1.969-2.056,3.121-2.975
		c0.721-0.574-0.267-1.47-0.699-2.154c-0.233-0.369-0.322-0.789-0.073-1.177c0.211-0.325,0.532-0.311,0.87-0.134
		c1.333,0.691,3.75,5.627,3.368,7.186c-0.545,2.219-0.244,4.168,1.073,6.09c0.634,0.924,2.019,0.883,2.293,1.783
		c0.985,3.228,3.009,1.967,4.951,1.344c0.64-0.205,1.385-0.285,1.413-1.146c0.032-0.954-0.668-1.363-1.465-1.357
		c-2.092,0.021-2.51-1.347-2.847-2.983c3.042-0.192,3.042-0.192,2.048-3.619c1.462,0.159,2.264,2,3.742,1.644
		c2.118-0.513,4.164-1.327,2.154,2.155c-0.109,0.188-0.067,0.491-0.031,0.729c0.485,3.223,4.958,5.552,7.82,4.076
		c0.498-0.256,1.563-0.537,1.473-0.26c-0.579,1.812,0.478,3.305,1.346,5.44c-3.024-2.269-4.02-1.88-4.51,1.044
		c-0.112,0.672-0.267,1.27-0.69,1.831c-1.374,1.824-1.029,3.399,0.819,4.669c0.578,0.396,1.371,1.137,0.721,1.506
		c-1.796,1.021-1.431,2.772-1.895,4.253c-0.672,2.146,0.39,3.982,2.701,4.308c1.474,0.209,2.992,0.146,4.49,0.137
		c0.726-0.006,1.689,0.051,1.862-0.867c0.2-1.064-0.869-1.014-1.517-1.268c-1.531-0.598-3.032-1.203-3.094-3.502
		c1.086,0.349,1.647,1.236,2.682,1.117c0.955-0.113,1.133-1.363,2.203-1.412c0,0.729-0.155,1.355,0.029,1.857
		c0.554,1.518,1.684,2.684,3.325,2.404c1.881-0.318,0.902-1.671,0.603-2.753c-0.535-1.948,0.842-2.114,2.162-2.022
		c1.776,0.123,3.004,0.979,3.758,2.76c1.547,3.659,4.936,4.371,8.041,1.842c0.438-0.355,0.814-1.021,1.438-0.41
		c0.5,0.49,0.322,1.14-0.125,1.566c-1.606,1.533-3.365,2.971-1.293,5.418c0.182,0.215-0.281,0.907-0.321,1.391
		c-0.136,1.63,0.196,3.306,1.315,4.389c1.26,1.221,2.192-0.195,3.095-1.014c0.161-0.147,0.466-0.188,0.704-0.188
		c0.742,0,1.33-0.188,1.439-1.037c0.111-0.85-0.212-1.531-1.033-1.774c-1.567-0.468-1.295-2.239-2.308-3.103
		c-0.384-0.326-0.112-1.024,0.288-0.897c1.857,0.598,3.66-1.156,5.5-0.025c1.72,1.06,3.131,0.622,4.35-0.926
		c1.454-1.849-0.008-2.339-1.26-3.112c-0.725-0.447-1.177-1.425-0.549-2.166c0.801-0.947,1.174,0.36,1.777,0.575
		c1.752,0.626,3.14,1.913,5.276,2.726c-4.388-2.851-0.296-4.994-0.347-8.018c0.994,1.149,0.893,1.831,0.756,2.448
		c-0.448,2.024-0.424,3.692,1.862,4.793c1.237,0.596,0.966,2.892-0.22,3.887c-3.163,2.659-3.123,3.54,0.441,5.396
		c-1.727,0.955-3.691,1.264-4.967,2.74c-0.684,0.789-1.551,1.978-0.253,2.41c1.644,0.549,2.636,3.289,4.962,1.643
		c0.06-0.043,0.101-0.139,0.115-0.217c0.483-2.729,2.731-2.842,4.748-2.98c1.125-0.078,1.638-0.182,1.709-1.432
		c0.055-0.961,0.374-2.279,1.725-1.894c1.268,0.361,1.416,2.033,0.957,2.74c-0.947,1.461-0.605,3.383-2.069,4.66
		c-0.744,0.647-1.081,2.024-0.421,3.016c0.718,1.079,1.88,0.81,2.942,0.386c0.279-0.111,0.571-0.191,1.007-0.334
		c-0.467,1.861-0.052,2.771,1.906,2.477c2.449-0.37,3.689,0.699,3.831,3.242c0.084,1.513,1.6,2.276,2.656,1.539
		c1.37-0.961,2.297-4.342,1.988-6.154c-0.255-1.495-1.326-3.245,0.487-4.506c0.969-0.674,1.607-1.479,0.701-2.408
		c-0.879-0.902-1.678-0.029-2.256,0.695c-0.7,0.879-1.398,1.578-3.06,0.735c1.469-0.799,2.021-2.032,2.854-2.997
		c1.408-1.631,3.004-2.938,5.617-2.146c1.557,0.473,3.402,1.273,5.068,0.119c1.656-1.149,3.756-0.815,5.447-2.067
		c0.056,2.854,0.063,2.869-1.931,3.716c-0.403,0.172-0.778,0.307-0.883,0.766c-0.446,1.942-1.741,3.563-1.929,5.647
		c-0.107,1.185,0.057,1.935,1.069,2.479c1.073,0.58,1.63-0.07,2.276-0.836c1.399-1.66,2.71-3.461,5.059-3.945
		c0.391-0.08,0.761-0.434,1.125-0.074c0.477,0.467,0.179,0.934-0.166,1.309c-0.732,0.795-1.586,1.496-2.237,2.352
		c-1.267,1.666-2.139,3.448-0.608,5.452c0.574,0.752,1.353,0.985,2.217,0.604c0.782-0.344,0.913-1.154,0.438-1.664
		c-1.337-1.438-0.377-2.485,0.539-3.399c1.699-1.693,3.008-4.153,5.673-4.317c1.738-0.105,2.384-0.613,2.051-2.379
		c1.896,0.998,2.165,2.075,0.765,3.41c-0.538,0.512-1.157,0.958-1.602,1.538c-0.789,1.024-0.763,2.46,0.467,2.647
		c1.93,0.297,2.108,0.89,1.592,2.59c-0.334,1.104,0.031,2.507,1.568,2.623c1.545,0.119,2.18-0.832,2.145-2.383
		c-0.029-1.24,0.148-2.488,0.26-3.729c0.066-0.739,0.488-1.236,1.204-1.429c0.695-0.186,1.173,0.225,1.378,0.793
		c0.725,2.011,1.382,4.041,2.043,6.072c0.013,0.045-0.227,0.172-0.347,0.26c-2.264-2.067-3.061-1.875-3.679,1.076
		c-0.297,1.424-0.623,2.445-2.354,2.66c-1.288,0.161-1.458,1.245-0.856,2.307c0.365,0.646,0.933,1.175,1.321,1.811
		c0.889,1.457,1.715,1.175,2.317-0.143c0.532-1.166,1.071-2.209,2.27-2.854c1.404-0.755,3.936-0.465,3.281-3.311
		c-0.023-0.101,0.347-0.395,0.561-0.426c2.076-0.326,3.191-1.719,3.78-3.687c0.317,0.289,0.503,0.378,0.544,0.511
		c0.094,0.313,0.185,0.649,0.16,0.969c-1.055,13.008,0.64,26.055-1.015,39.107c-0.984,7.756-0.428,15.693-2.604,23.375
		c-0.546,1.929-1.342,2.656-3.208,2.629c-2.582-0.039-5.167-0.016-7.749,0.033c-7.226,0.136-14.47,0.677-21.671,0.324
		c-4.989-0.245-10.001-0.121-14.923,0.01c-5.263,0.143-10.532,0.311-15.801,0.476c-0.165,0.085-0.321,0.184-0.491,0.261
		c-1.073,0.486-2.136,0.99-3.191,1.509c1.391,2.381,2.866,4.711,4.465,6.957c1.392,0.075,2.783,0.159,4.174,0.263
		c14.403,1.078,28.904,0.923,43.365,1.154c9.896,0.158,19.798-0.021,29.695,0.1c16.576,0.202,33.139-0.878,49.717-0.48
		c0.77,0.019,1.559,0.057,2.171,0.365c0.241-0.084,0.481-0.169,0.722-0.254c1.593-0.56,3.188-1.108,4.761-1.724
		c0.024-0.01,0.045-0.019,0.068-0.026c0.027-0.015,0.05-0.024,0.079-0.04c0.087-0.043,0.174-0.087,0.262-0.13
		c-0.048-0.142-0.088-0.284-0.137-0.425c0.007,0.236-1.57-3.049-1.888-3.565c-0.443-0.723-3.388-4.465-1.837-2.746
		c-0.445-0.509-0.902-1.006-1.371-1.49c-7.074-0.238-14.143-0.633-21.229-0.617c-8.131,0.017-16.265-0.553-24.404-0.341
		c-1.199,0.03-1.535-0.622-1.902-1.548c-0.852-2.156-0.629-4.438-0.908-6.657c-0.5-3.963-0.744-7.935-0.844-11.938
		c-0.186-7.567,0.082-15.156-0.223-22.688c-0.26-6.461-0.756-12.932-0.67-19.407c0.059-4.219,1.371-8.377,0.858-12.646
		c-0.258-2.156-0.53-4.297,0.539-6.701c0.812,1.008,1.216,2.562,2.722,1.431c1.19-0.894,1.551-1.848,0.147-3.028
		c-0.819-0.69-0.203-1.795,0.33-2.213c2.508-1.959,1.769-4.188,0.799-6.507c-0.25-0.597-0.744-1.36,0.108-1.72
		c0.795-0.336,0.793,0.636,1.072,1.072c0.494,0.765,1.188,0.797,1.976,0.694c0.975-0.125,1.989-0.385,2.829,0.587
		c-0.141,0.189-0.239,0.478-0.411,0.531c-1.076,0.339-2.369,0.725-1.718,2.135c0.688,1.491,2.025,1.163,3.166,0.368
		c0.586-0.409,1.104-0.807,1.756-0.21c0.505,0.462,0.478,1.021,0.207,1.604c-0.438,0.942-0.815,1.979,0.148,2.742
		c1.113,0.883,2.012,0.06,2.842-0.675c1.095-0.974,1.871-0.313,2.445,0.589c0.924,1.447,1.99,1.691,3.289,0.573
		c0.941-0.812,1.871-0.975,2.949-0.276c0.502,0.326,1.094,0.323,1.693,0.22c2.518-0.442,3.703,0.224,4.242,2.62
		c0.246,1.087,0.399,2.117,1.772,1.763c1.377-0.354,0.651-1.302,0.496-2.2c-0.269-1.537-0.253-3.039-1.234-4.465
		c-0.836-1.213,0.449-1.434,1.365-1.623c3.606-0.752,7.717,2.284,9.019,4.604c0.67,1.195,1.67,2.064,2.463,3.127
		c0.733,0.986,1.813,0.984,2.604,0.16c0.848-0.881,1.016-2.229-0.25-2.725c-1.646-0.645-1.686-2.427-2.898-3.293
		c-0.586-0.418-0.578-1.016-0.139-1.525c0.492-0.566,1.096-1.16,1.893-1.043c0.804,0.118,0.604,0.871,0.545,1.432
		c-0.09,0.883,0.449,1.271,1.063,1.787c1.492,1.257,2.912,2.609,4.25,4.029c0.8,0.851,1.665,1.193,2.66,0.709
		c1.547-0.75,2.089,0.515,2.837,1.297c0.37,0.391,0.261,0.98-0.179,1.334c-0.433,0.353-0.777,0.024-1.035-0.32
		c-0.313-0.418-0.688-0.873-1.211-0.717c-1.126,0.341-2.855-0.465-3.301,1.053c-0.421,1.431,0.908,2.188,2.117,2.646
		c0.073,0.027,0.135,0.06,0.2,0.088c4.214-1.353,8.511-2.479,12.812-3.601c-0.168-0.417-0.33-0.938-0.52-1.594
		c-0.155-0.54-0.437-1.097-0.811-1.509c-0.844-0.93-2.411-1.068-1.46-3.297c0.701-1.642-1.892-0.108-2.642-1.205
		c1.209-1.769,2.656-1.602,4.158-0.441c0.993,0.771,1.782,1.625,3.301,0.977c1.136-0.483,2.072,0.715,2.705,1.357
		c0.625,0.636-0.507,1.359-1.069,1.926c-0.74,0.741-2.033,1.504-0.994,2.631c0.14,0.152,0.278,0.267,0.416,0.351
		c0.65-0.171,1.304-0.345,1.954-0.523c0.183-0.176,0.359-0.364,0.527-0.557c0.652-0.743,1.797-0.993,2.162-2.015
		c0.467-1.307,2.878-3.084-0.765-3.515c-0.071-0.009-0.167-0.08-0.196-0.146c-1.122-2.479-3.123-2.896-5.674-1.93
		c0.19-0.587,0.194-0.818,0.292-0.867c1.111-0.563,2.661-1.078,1.812-2.646c-0.734-1.355-1.987-0.467-3.069-0.002
		c-2.802,1.205-5.008-0.635-7.344-1.629c-0.734-0.313-1.277-1.038-2.169-1.145c-3.17-0.38-4.062-1.58-3.762-5.253
		c0.958,0.438,1.577,1.646,2.928,0.983c0.755-0.369,0.892,0.756,1.201,1.295c0.692,1.205,1.563,2.48,3.08,1.977
		c1.698-0.566,0.918-2.086,0.575-3.205c-0.495-1.623-0.325-2.74,1.529-3.254c1.297-0.358,1.525-1.393,1.256-2.6
		c-0.126-0.566-0.317-1.2,0.438-1.484c0.618-0.235,1.159,0.051,1.579,0.48c0.754,0.771,1.653,1.48,2.151,2.4
		c1.403,2.604,4.211,3.621,6.109,5.666c1.237,1.334,3.376,1.24,4.837,2.449c0.628,0.521,1.692,0.391,2.141-0.545
		c0.429-0.896-0.238-1.361-0.97-1.703c-0.457-0.213-0.974-0.431-0.882-1.049c0.11-0.755,0.797-0.719,1.349-0.859
		c1.415-0.36,3.046-0.334,3.632-2.15c0.159-0.497,0.633-0.789,1.207-0.604c0.532,0.176,0.867,0.67,0.833,1.144
		c-0.162,2.185,0.072,4.215,2.548,5.782c-1.892,0.379-1.975-0.799-2.586-1.195c-0.765-0.496-1.568-1.282-2.387-0.293
		c-0.631,0.768-0.281,1.782,0.473,2.186c2.07,1.104,2.438,2.306,1.067,4.342c-0.677,1.01,0.323,1.871,1.438,2.084
		c0.996,0.188,1.932-0.049,1.952-1.297c0.038-2.315,0.654-4.004,3.363-4.301c0.874-0.098,1.379-1.011,0.755-1.943
		c-1.034-1.551-0.209-1.938,1.068-1.479c2.45,0.878,3.034-0.218,2.934-2.353c-0.036-0.766,0.113-1.457,1.104-0.979
		c0.638,0.31,1.184,1.122,0.693,1.63c-0.885,0.915,0.451,3.047-1.33,3.023c-3.007-0.037-3.126,2.254-3.792,4.08
		c-0.193,0.531-0.165,1.148-0.121,1.77c3.153-1.705,6.39-3.459,9.698-5.045c0.444-1.21,0.593-2.523,0.473-4.012
		c-0.06-0.743,0.847-1.817,0.531-2.949c-0.191-0.691,0.01-1.348,0.62-1.771c1.191-0.83,0.924-2.599,1.34-3.153
		c2.541-3.399-0.403-3.802-2.198-4.997c-0.613-0.409-1.078-1.215-0.587-1.971c0.604-0.926,1.785-1.36,2.621-0.815
		c1.41,0.919,2.729,1.229,4.417,1.095c1.286-0.102,2.083,0.902,1.682,2.396c-0.235,0.883-0.396,1.785-0.653,2.662
		c-0.308,1.051-0.26,1.707,1.109,1.865c1.082,0.125,1.791,1.051,1.891,2.082c0.158,1.677,0.694,3.347,0.796,5.03
		c1.271-0.317,2.551-0.577,3.839-0.766c1.538-0.226,3.062-0.4,4.568-0.521c1.261-1.028,1.353-3.099,1.388-5.229
		c1.521,1.422,3.188,1.629,4.679,2.271c0.887,0.379,1.851,0.498,2.455-0.465c0.559-0.89,0.259-1.703-0.405-2.496
		c-1.17-1.398-2.242-2.877-3.371-4.31c-0.669-0.851-0.854-1.572,0.549-1.632c0.975-0.039,2.085,0.056,1.738-1.33
		c-0.277-1.11-1.44-1.062-2.324-0.825c-1.438,0.386-2.82,0.985-4.25,1.419c-0.699,0.212-1.914,0.34-1.302-0.814
		c0.442-0.836,0.814-2.912,2.813-1.717c0.747,0.446,1.389,0.01,2.083-0.351c1.834-0.949,3.526,0.416,5.319,0.506
		c1.184,0.058,0.192,1.226,0.373,1.858c0.209,0.735,0.743,0.815,1.373,0.696c1.706-0.323,2.889-2.594,2.028-4.145
		c-0.562-1.011-0.622-2.015,0.479-2.201c2.386-0.404,4.166-2.106,6.422-2.856c0.343,2.146-1.42,2.604-2.382,3.647
		c-0.699,0.76-1.883,1.678-0.837,2.729c0.922,0.929,2.131,0.111,2.864-0.614c0.929-0.915,1.397-2.371,2.417-3.101
		c1.651-1.185,4.334-0.797,5.027-3.584c0.107-0.434,1.712-0.623,1.546-1.813c-0.164-1.166-1.117-1.3-2.082-1.351
		c-0.777-0.041-1.82-0.209-1.345-1.211c0.996-2.099-0.211-3.867-0.555-5.752c-0.146-0.812-0.271-1.473,0.476-1.986
		c0.495-0.34,1.066-0.521,1.66-0.358c1.032,0.281,0.797,1.096,0.721,1.84c-0.106,1.066,0.268,1.836,1.43,1.914
		c1.281,0.086,1.763-0.715,1.834-1.867c0.049-0.761-0.166-1.459-0.389-2.188c-0.47-1.541-1.597-2.623-3.131-4.306
		c2.92,0.592,5.26-1.578,7.514,0.911c0.942,1.041,2.074,0.013,2.608-0.965c0.716-1.31-0.264-1.815-1.338-2.035
		c-2.063-0.42-3.673-1.713-5.026-3.099c-1.067-1.093-1.679-2.161-3.409-1.249c-0.688,0.36-1.686,0.008-1.706-0.885
		c-0.02-0.933,0.988-0.599,1.586-0.695c1.9-0.31,3.555,0.795,5.369,0.957c1.104,0.101,2.302,0.178,2.408-1.397
		c0.091-1.347-0.695-2.021-1.976-2.033c-1.576-0.015-2.689-0.784-3.55-1.993c-0.715-1.002-0.883-1.897,0.755-2.034
		c1.528-0.128,2.575-1.038,3.621-2.027c0.772-0.731,1.415-1.731,2.583-1.871c1.809-0.215,2.869-1.608,4.203-2.558
		c0.714-0.507,1.202-1.429,0.688-2.19c-0.728-1.076-1.41,0.119-2.107,0.34c-0.554,0.175-0.984,1.283-1.646,0.435
		c-0.62-0.795-0.17-1.722,0.577-2.146c1.288-0.733,1.97-2.013,3.004-2.965c0.906-0.832,1.966-1.927,1.437-3.218
		c-0.499-1.215-2.013-1.399-3.201-1.653c-1.658-0.354-2.838,0.885-2.368,2.496c0.213,0.733,0.771,1.27-0.212,1.842
		c-0.797,0.464-1.623,0.63-2.354,0.115c-0.874-0.613-1.611-1.421-2.417-2.134c-0.445-0.395-0.992-0.815-0.581-1.45
		c0.396-0.613,1.02-0.395,1.563-0.106c0.84,0.442,2.195,1.555,2.525,0.388c0.541-1.91,4.072-2.275,2.506-5.083
		c-0.293-0.524-0.493-1.433,0.336-1.309c2.449,0.364,3.404-1.796,5.074-2.712c0.668-0.366,1.309-0.542,1.831-0.038
		c0.72,0.691-0.188,0.95-0.532,1.309c-0.668,0.692-0.818,1.457-0.313,2.265c0.463,0.74,1.252,0.744,2.014,0.662
		c0.619-0.066,3.931-3.768,3.938-4.365c0.01-0.655-0.289-1.175-0.894-1.365c-1.104-0.35-1.139-1.161-1.279-2.13
		c-0.163-1.128-0.617-2.24-1.102-3.286c-0.325-0.705-1.34-1.245-0.429-2.119c0.725-0.693,1.643-0.691,2.582-0.421
		c2.54,0.727,2.558,0.714,1.884-1.824c-0.138-0.515-0.345-1.009,0.357-1.191c0.511-0.132,1.122-0.05,1.165,0.586
		c0.247,3.763,1.938,1.736,3.563,1.047c1.166-0.495,1.993-2.355,3.706-1.162c0.938,0.653,2.035,1.265,2.767-0.069
		c0.709-1.289,0.037-2.171-1.326-2.644c-1.338-0.464-1.409-1.233-0.389-2.207C442.32,232.716,443.138,231.768,444.021,230.889z
		 M397.785,98.309c-0.415-1.192-0.173-1.944,1.057-2.612c1.38-0.749,1.635,0.199,2.289,0.938c1.229,1.382,0.531,3.244,1.348,4.696
		c-0.981,0.024-1.661,0.529-2.281,1.268c-0.709,0.846-1.507,0.363-2.227-0.082c-0.895-0.554-0.36-1.068,0.043-1.624
		C398.677,99.985,398.076,99.149,397.785,98.309z M80.382,190.856c0.567-2.211,0.4-4.426,2.716-5.734
		c1.279-0.722,2.346-1.035,2.904,0.757c0.452,1.45,1.822,2.401,2.112,4.107c-0.028,0.067-0.061,0.356-0.22,0.479
		c-0.297,0.228-0.689,0.126-0.874-0.153c-0.271-0.407-0.43-0.887-0.634-1.337c-0.407-0.894-1.083-1.332-1.998-0.859
		c-0.912,0.471-0.649,1.321-0.227,1.946c1.183,1.755,1.453,3.661,1.271,5.714c-0.146,1.633-0.644,2.146-2.169,1.069
		C81.168,195.366,79.553,194.094,80.382,190.856z M84.53,235.644c-1.318-0.73-3.092-1.273-2.322-3.679
		c0.424-1.328-0.612-1.796-1.801-0.922c-0.794,0.583-1.578,1.056-2.416,0.194c-0.585-0.602-0.588-1.386-0.149-2.074
		c0.668-1.047,1.605-0.537,2.464-0.305c0.64,0.174,1.393,0.233,1.879,0.616c1.426,1.122,2.926,2.883,2.37-0.937
		c-0.049-0.337,0.381-0.528,0.74-0.51c0.803,0.038,1.386,0.529,1.907,1.062c0.41,0.42,0.063,0.731-0.264,1.024
		c-0.556,0.496-1.105,1.002-1.638,1.521c-0.708,0.691-1.153,1.558-0.604,2.455c0.659,1.076,1.438,0.165,2.158-0.089
		c0.382-0.135,0.765-0.35,1.408,0.1C87.086,235.003,86.271,236.607,84.53,235.644z M96.36,241.77
		c-1.335,1.07-2.655,2.127-4.261,0.218c-0.548-0.651-1.603-0.848-2.344-1.37c-1.021-0.719-2.665-1.155-1.927-2.969
		c0.563-1.384,3.618-2.455,4.893-1.681c0.761,0.463,1.505,0.625,2.623,0.594c-1.957,2.386-1.817,3.128,0.636,3.782
		C97.187,240.665,97.182,241.111,96.36,241.77z M122.404,131.763c-0.308,0.492-0.839,0.373-1.349,0.287
		c-2.613-0.441-3.995,0.663-4.051,3.518c-0.078,1.396,0.995,2.397,2.195,3.369c0.529,0.428,1.496,1.002,0.72,1.772
		c-0.837,0.83-1.265-0.257-1.695-0.774c-1.002-1.206-2.006-2.419-2.91-3.698c-1.559-2.204-1.06-3.981,1.441-5.461
		c0.282-0.167,0.573-0.33,0.824-0.539c0.604-0.504,0.253-2.075,1.322-1.779c1.127,0.312,2.096,1.259,3.075,2.005
		C122.345,130.744,122.731,131.237,122.404,131.763z M173.776,82.516c-0.846,1.498-1.215,3.243-2.415,4.575
		c-0.448,0.497-0.768,1.23-1.553,0.914c-1.238-0.499-1.806-1.697-2.298-2.805c-0.34-0.764,0.64-0.752,1.067-1.063
		c1.067-0.778,2.107-1.592,3.163-2.385c0.459-0.344,0.657-0.785,0.311-1.274c-0.322-0.457-0.805-0.485-1.332-0.292
		c-0.619,0.226-1.03,1.374-1.875,0.552c-0.479-0.467-0.166-1.093,0.088-1.621c0.451-0.938,1.237-1.287,2.239-1.241
		C174.146,77.921,175.237,79.929,173.776,82.516z M222.527,337.499c-1.565,0.692-1.968,2.644-3.714,3.214
		c-0.966,0.316-0.856,1.523-0.896,2.432c-0.054,1.229-0.562,1.761-1.842,2.2c-2.75,0.946-5.7-0.403-8.365,0.992
		c-0.509,0.267-0.952-0.173-0.79-0.832c0.17-0.698,4.095-3.63,4.783-3.606c0.166,0.02,0.332,0.033,0.497,0.06
		c1.188,0.207,2.653,1.724,3.479-0.104c0.773-1.713-0.245-3.533-1.394-4.724c-0.936-0.969-1.468-1.753-0.534-2.647
		c1.102-1.057,1.685,0.233,2.33,0.935c1.877,2.036,3.313,2.239,5.467,0.701c0.485-0.347,0.869-0.515,1.281-0.048
		C223.34,336.645,223.15,337.223,222.527,337.499z M235.553,352.995c-1.408-0.255-1.917,0.383-2.193,1.637
		c-0.313,1.423-1.672,1.692-2.807,2.229c-1.178,0.035-1.269-0.933-0.815-1.459c1.541-1.784,2.217-4.565,5.337-4.653
		c0.962-0.026,1.927-0.397,2.089,0.887C237.293,352.657,236.491,353.164,235.553,352.995z M301.613,68.062
		c-1.068-0.608-1.758,0.661-2.813,0.71c-0.592-3.246,1.873-5.109,3.248-7.419c0.292-0.489,1.046-0.399,1.221,0.125
		c0.498,1.504,2,2.602,1.467,4.556C304.247,67.825,304.036,69.441,301.613,68.062z M310.217,309.141
		c-0.355,1.205-1.74,2.036-1.838,3.517c-0.005,0.077-0.799,0.241-0.846,0.155c-1.049-1.91-3.223-2.803-4.336-4.736
		c1.056,0.589,2.001,1.624,2.253-0.453c0.229-1.901,2.302-1.6,3.107-2.834c0.263-0.403,1.437,0.18,1.322,0.604
		C309.514,306.762,310.547,308.027,310.217,309.141z M325.225,308.898c-1.187,0.975-1.907,2.223-2.604,3.557
		c-0.444,0.852-1.438,0.619-2.266,0.472c-0.871-0.155-1.636,0.048-2.279,0.675c-0.42,0.41-0.913,0.478-1.298,0.021
		c-1.566-1.854,0.279-3.079,0.998-4.374c0.778-1.407,1.428-0.16,2.021,0.452c1.359,1.398,2.413,1.48,2.854-0.719
		c0.268-1.342,1.101-1.514,2.217-1.149C325.444,308.02,325.787,308.438,325.225,308.898z M359.975,87.855
		c-1.524-0.095-1.152-1.621-1.61-2.535c1.017-0.523,1.532,0.374,2.251,0.412c0.938,0.049,1.32-0.148,1.525-1.332
		c0.479-2.752-0.699-5.681,0.999-8.317c0.355-0.551,0.347-0.941,1.146-0.753c2.358,0.558,4.768-0.801,7.213,0.491
		c-0.504,1.289-1.169,2.86-1.729,4.467c-0.354,1.019-1.038,1.173-1.954,1.048c-1.666-0.227-2.414,0.577-2.669,2.189
		C364.658,86.633,363.031,88.043,359.975,87.855z M378.149,199.85c-1.608,2.549-4.539,3.468-6.655,5.405
		c-0.845,0.774-1.336-0.11-1.24-0.998c0.076-0.693,0.316-1.502-0.719-1.399c-1.846,0.184-3.039-1.13-4.551-1.676
		c-1.995-0.719-2.266-2.656-1.875-3.752c0.389-1.09,2.182-1.875,3.516-2.36c0.767-0.279,1.407,0.615,0.643,1.436
		c-0.771,0.829-1.668,1.603-0.801,2.749c0.778,1.028,2.01,1.401,3.426,1.611c1.387-1.079,2.752-0.675,4.258,0.194
		c0.681,0.393,1.389-0.36,1.491-1.227c0.149-1.239,0.998-1.405,1.979-1.345c0.307,0.019,0.709,0.128,0.881,0.344
		C378.847,199.267,378.362,199.513,378.149,199.85z M382.462,101.945c-0.936,0.527-0.684-1.233-1.266-1.674
		c-1.277-0.967-0.552-2.862-1.977-3.827c-0.7-0.476,0.081-1.263,0.582-1.599c1.037-0.698,0.979-2.312,2.483-2.786
		c0.402,1.038,2.199,0.816,2.001,2.409c-0.188,1.479-1.076,2.881,0.192,4.463C384.735,99.248,383.453,101.388,382.462,101.945z
		 M391.963,199.438c-1.654,0.334-2.734,1.49-2.949,3.292c-0.113,0.952-0.428,2.086-1.602,1.665c-1.031-0.37-0.126-1.333,0.095-1.916
		c0.654-1.728,1.179-3.401,0.905-5.322c-0.311-2.152,1.771-1.447,2.57-2.064c1.426,0.055,2.246,0.536,2.486,1.845
		C393.711,198.255,393.587,199.11,391.963,199.438z M393.003,146.247c-1.238,0.101-2.017,0.637-2.114,1.957
		c-0.01,0.146-0.19,0.416-0.229,0.405c-2.082-0.603-3.548,1.155-5.752,1.795c2.268-2.549,3.922-4.798,3.087-7.95
		c-0.105-0.401-0.217-0.874,0.215-1.115c0.479-0.268,0.814,0.118,0.963,0.5c0.67,1.739,2.244,2.324,3.746,3.003
		c0.354,0.161,0.918,0.075,0.918,0.641C393.834,145.96,393.422,146.213,393.003,146.247z M402.476,196.104
		c-1.646,0.479-2.723,1.168-1.3,2.813c0.871,1.007,0.899,1.6-0.678,1.592c-1.285-0.006-2.224,0.91-2.949,1.707
		c-1.293,1.425-2.43,1.423-3.911-0.01c3.751,0.705,3.468-3.337,5.604-4.609c0.816-0.489-0.162-1.923-1.271-2.467
		c-0.622-0.304-1.714-0.235-1.601-1.254c0.123-1.091,1.222-0.881,1.982-1.111c0.791-0.239,1.541-0.613,2.331-0.86
		c0.808-0.251,1.687-0.764,2.552,0.435c-1.263,0.441-2.982,0.074-3.012,1.986C400.203,195.773,401.448,195.656,402.476,196.104z
		 M402.006,180.02c-0.746,0.727-1.435,1.05-2.583,0.333c3.128-2.194,0.411-3.131-1.043-4.625c4.22,1.964,6.166-1.894,9.078-3.149
		c0.805-0.347,1.432-1.14,2.659-0.304C406.021,173.497,404.671,177.426,402.006,180.02z M420.39,215.872
		c1.453,1.584,0.738,3.508,0.904,5.225c0.188,1.953-1.818,2.341-3.256,2.799c-0.759,0.242-1.711,0.057-2.305,0.709
		c-1.105,1.213-2.156,1.283-3.441,0.251c-0.484-0.389-1.224-0.478-1.861-0.657c-1.457-0.408-2.2-1.075-0.676-2.276
		c1.462-1.152,1.762-3.105,3.283-4.294c0.875-0.682,1.307-1.47,2.602-0.989c0.742,0.277,1.354-0.333,1.207-1.126
		c-0.482-2.632,2.138-3.097,3.229-4.599c0.66-0.906,1.229-0.019,1.309,0.703c0.018,0.874-0.388,1.405-0.788,1.939
		C420.05,214.289,419.811,215.241,420.39,215.872z"/>
</g>
</svg>
