<?xml version="1.0" encoding="utf-8"?>
<!-- Generator: Adobe Illustrator 15.0.0, SVG Export Plug-In . SVG Version: 6.00 Build 0)  -->
<!DOCTYPE svg PUBLIC "-//W3C//DTD SVG 1.1//EN" "http://www.w3.org/Graphics/SVG/1.1/DTD/svg11.dtd">
<svg version="1.1" id="Layer_1" xmlns="http://www.w3.org/2000/svg" xmlns:xlink="http://www.w3.org/1999/xlink" x="0px" y="0px"
	 width="500px" height="500px" viewBox="0 0 500 500" enable-background="new 0 0 500 500" xml:space="preserve">
<circle fill="#87BB65" cx="249.316" cy="249.316" r="249.316"/>
<g>
	<g>
		<defs>
			<rect id="SVGID_1_" x="-109.5" y="-38.5" width="356" height="587"/>
		</defs>
		<clipPath id="SVGID_2_">
			<use xlink:href="#SVGID_1_"  overflow="visible"/>
		</clipPath>
		<path clip-path="url(#SVGID_2_)" fill="#FFFFFF" d="M270.777,106.979c-1.308-0.759-2.58-1.602-1.78-2.644
			c1.937-2.525,1.104-5.604,2.101-8.276c0.254-0.683,0.447-1.467,0.008-2.182c-0.813-1.323-0.135-1.855,1.033-2.436
			c2.064-1.025,2.488-2.773,1.068-4.431c-0.686-0.799-1.083-1.286-0.336-2.299c0.686-0.926,0.045-1.775-0.771-2.308
			c-0.966-0.63-1.746-0.209-2.307,0.688c-0.266,0.422-0.422,0.918-0.717,1.314c-0.883,1.182-2.076,3.2-3.26,2.495
			c-1.393-0.83-0.135-2.733,0.439-4.165c0.752-1.874,3.037-3.633,2.887-4.957c-0.26-2.226,0.916-3.379,1.639-4.944
			c0.312-0.679,0.76-1.427-0.025-2.033c-0.761-0.587-1.588-0.412-2.289,0.184c-0.439,0.375-0.807,0.837-1.21,1.256
			c-0.495,0.514-0.95,1.603-1.688,1.103c-0.737-0.502-1.541-1.814-0.944-2.575c1.563-1.992,1.146-3.975,0.771-6.147
			c-0.194-1.133-0.211-1.734-1.582-1.344c-1.834,0.521-1.246-0.827-0.97-1.557c1.111-2.917,0.154-5.54-2.493-6.889
			c-1.522-0.774-2.57-2.295-3.021-3.729c-0.236-0.75,1.373-2.001,2.635-2.428c0.563-0.19,0.938-0.408,0.721-1.02
			c-0.229-0.649-0.656-1.219-1.396-1.272c-0.479-0.034-0.998,0.291-1.459,0.216c-1.031-0.17-2.318,0.06-2.938-1.02
			c-0.604-1.051,0.52-1.606,1.004-2.321c0.551-0.81,1.006-1.952,0.281-2.509c-0.98-0.755-2.33-1.167-3.58-1.375
			c-0.602-0.1-1.213,0.989-0.757,1.516c1.749,2.023-0.421,2.842-1.265,3.735c-0.746,0.788-1.568,2.668-2.838,1.881
			c-1.441-0.893-0.441-2.701,0.095-3.834c0.795-1.683,0.368-2.722-0.728-4.004c-0.977-1.143-2.486-2.237-1.07-4.268
			c0.646-0.928-0.334-2.009-1.294-2.669c-0.767-0.526-1.613-1.206-2.499-0.597c-1.189,0.817,0.045,1.573,0.286,2.351
			c0.047,0.15,0.085,0.429,0.017,0.472c-2.4,1.499-3.438,3.473-3.295,6.459c0.037,0.76-1.184,2.584-2.242,3.669
			c-0.721,0.739-0.865,2.045,0,2.427c2.602,1.146,1.227,3.772,2.754,5.521c-1.322-0.019-1.654-0.792-2.18-1.25
			c-0.518-0.451-1.101-0.982-1.757-0.788c-1.391,0.414-2.94,0.749-4.019,1.62c-0.99,0.798,0.013,2.131,0.126,3.241
			c0.15,1.479,0.296,2.58,1.876,3.237c0.473,0.196,1.189,1.111,0.988,2.11c-1.832,0.084-2.564-1.543-3.85-2.209
			c-0.938-0.486-2.002-0.785-2.186,0.455c-0.338,2.266-0.904,4.636-0.311,6.874c0.63,2.381,0.836,2.362-1.607,3.558
			c0.213-0.718,0.498-1.327,0.559-1.958c0.129-1.339-0.814-2.002-1.897-2.27c-1.298-0.322-1.529,0.686-1.55,1.67
			c-0.021,1.064-0.324,1.768-1.566,1.753c-0.666-0.008-1.118,0.376-1.047,1.107c0.065,0.656,0.402,1.096,1.145,1.015
			c0.398-0.043,0.857-0.235,0.829,0.509c-0.222,0.524-0.691,0.598-1.218,0.589c-0.763-0.013-1.758-0.802-2.211,0.302
			c-0.447,1.087,0.426,1.867,1.139,2.566c0.412,0.404,0.919,0.709,1.381,1.063c0.414,0.317,0.904,0.831,0.463,1.222
			c-1.974,1.746-0.76,2.934,0.466,4.369c0.862,1.01,0.239,2.252-0.419,3.201c-0.359,0.518-1.083,0.383-1.537-0.116
			c-1.541-1.694-3.3-2.686-5.728-2.333c-0.961,0.14-0.659-0.713-0.437-1.248c0.36-0.87,0.346-1.646-0.527-2.183
			c-0.754-0.464-1.571-0.606-2.346-0.048c-0.77,0.554-0.893,1.339-0.718,2.229c0.626,3.201-0.226,4.555-3.388,5.348
			c-0.532,0.134-1.117,0.349-1.027,0.881c0.344,2.061-0.705,1.806-2.129,1.579c-0.857-0.137-1.518,0.617-1.533,1.613
			c-0.011,0.637,0.258,1.374,0.961,1.131c4.951-1.715,1.838,1.243,1.52,2.577c-0.098,0.404-0.152,0.829-0.315,1.206
			c-0.599,1.385-0.257,1.999,1.259,1.471c0.844-0.294,1.266-0.104,1.456,0.734c0.183,0.8,0.613,1.708-0.452,2.174
			c-0.908,0.396-1.884,0.656-2.85,0.896c-0.979,0.243-2.174,1.008-1.723,1.715c1.345,2.107-1.463,4.406,0.734,6.325
			c-1.396-0.223-1.837-1.281-2.438-2.104c-0.576-0.789-1.057-1.646-2.15-0.852c-0.982,0.714-1.014,1.724-0.369,2.651
			c0.601,0.866,1.369,1.615,2.117,2.476c-0.468,0.544-1.829,0.466-2.037,1.615c-0.407,2.244-2.1,2.977-3.971,3.594
			c-1.682,0.555-1.887,1.805-1.131,3.178c0.428,0.775,1.316,1.29,1.779,2.054c0.684,1.133,1.49,3.044,0.346,3.577
			c-2.064,0.962-2.117,1.573-0.531,2.878c0.373,0.307,0.406,0.679,0.201,1.111c-0.695,1.462-0.317,2.178,1.395,2.201
			c1.064,0.015,0.701,0.929,0.67,1.537c-0.029,0.562,0.101,1.314-0.541,1.547c-0.948,0.343-1.041-0.614-1.301-1.147
			c-0.688-1.412-2.126-1.806-3.307-2.542c-0.455-0.283-0.99-0.231-1.35,0.224c-0.292,0.368-0.241,0.834,0.079,1.139
			c1.104,1.051,1.265,2.4,1.563,3.811c0.282,1.328,1.053,2.686,2.694,2.944c1.271,0.2,1.192,0.736,0.707,1.712
			c-1.082,2.177-2.069,4.366-5.068,4.246c-0.282-0.011-0.771,0.23-0.835,0.449c-0.49,1.704-1.4,3.214-2.436,4.577
			c-1.141,1.5,0.344,3.043-0.531,4.792c-0.601,1.198-0.479,3.405-0.977,5.026c-0.648,2.118-0.926,4.127-0.314,6.231
			c-0.623,0.182-1.328,0.236-1.842,0.578c-0.684,0.455-0.996,6.65-0.307,7.18c0.967,0.742,0.633,1.52,0.232,2.195
			c-0.774,1.308-1.107-0.055-1.596-0.375c-0.642-0.419-1.081-0.001-1.57,0.314c-0.529,0.341-1.402,0.547-1.436-0.168
			c-0.098-2.182-2.36-1.417-3.24-2.59c-0.56-0.746-1.319-0.108-1.622,0.748c-0.212,0.599,0.183,1.336-0.521,1.94
			c-0.687-0.537-0.192-2.317-1.728-1.899c-1.591,0.433-1.153,1.527-0.742,2.595c0.08,0.208,0.09,0.563-0.033,0.711
			c-1.982,2.36,0.324,2.063,1.631,2.298c-2.392,3.161-1.662,7.048,1.529,8.89c0.354,0.204,1.07,0.431,0.889,0.709
			c-1.691,2.58-0.436,4.719,0.373,7.234c0.374,1.161,0.007,3.518-0.874,5.225c-0.737,1.428-0.38,2.543,1.605,2.092
			c1.803-0.409,1.304,1.346,1.938,2.026c0.42,0.451,0.57,1.027-0.18,1.445c-0.764,0.425-1.456,0.767-2.238-0.028
			c-0.582-0.593-1.355-0.704-2.041-0.16c-0.706,0.562-0.656,1.346-0.23,2.033c1.008,1.627,0.475,3.224-0.012,4.821
			c-0.184,0.603-0.322,1.507-1.203,1.272c-0.787-0.21-0.332-0.97-0.254-1.505c0.109-0.757,0.244-1.56-0.504-2.042
			c-0.748-0.484-1.217,0.169-1.698,0.613c-0.885,0.814-1.058,0.049-1.358-0.576c-0.537-1.12-1.498-1.074-2.311-0.514
			c-1.478,1.016-0.613,1.947,0.277,2.829c2.328,2.304,2.328,2.313-0.045,4.398c-0.496,0.436-1.367,1.262-0.771,1.518
			c2.173,0.928,0.884,2.776,1.421,4.016c1.309,3.017,0.449,5.642-0.602,8.373c-0.559,1.45,0.387,3.872,1.608,3.833
			c2.26-0.072,1.534,0.78,0.731,1.799c-0.355,0.451-0.922,0.858-1.028,1.362c-0.486,2.301-1.222,2.293-2.46,0.446
			c-0.775-1.158-1.936-1.356-3.04-0.527c-1.165,0.875-0.228,1.738,0.192,2.613c0.913,1.899,3.175,3.397,1.798,6.016
			c-0.181,0.345,0.241,0.722,0.626,0.962c0.368,0.229,1.48-0.381,1.016,0.796c-0.203,0.517-0.539,1.097-1.231,1.101
			c-0.851,0.006-1.102-0.508-1.112-1.312c-0.021-1.501-0.912-1.78-2.211-1.483c-0.641,0.146-1.32,0.209-1.998-0.52
			c1.191-0.741,1.396-1.925,1.32-3.196c-0.055-0.889,0.136-2.05-1.113-2.18c-1.207-0.125-1.772,0.719-1.821,1.889
			c-0.023,0.561,0.22,1.333-0.524,1.501c-3.852,0.872-1.729,2.579-0.489,4.103c-0.835,0.511-1.358-0.226-1.997-0.224
			c-0.826,0.002-1.942,0.463-1.568,1.082c0.973,1.615-1.061,3.951,1.414,5.131c0.658,0.314,0.28,1.127-0.312,1.38
			c-1.533,0.653-1.494,1.524-0.604,2.708c0.412,0.549,0.546,1.283,0.145,1.889c-0.508,0.767-1.187,0.25-1.799,0.076
			c-0.583-0.167-1.178-0.293-1.528,0.378c-0.315,0.604-0.106,1.252,0.347,1.597c2.277,1.729,1.196,3.442,0.032,5.138
			c-0.634,0.925-0.941,1.894-0.101,2.723c1.125,1.107,1.58,2.075,0.697,3.646c-0.5,0.89,0.516,1.309,1.365,1.642
			c2.105,0.823,4.16,1.78,6.279,2.702c-0.443,0.683-0.784,0.588-1.101,0.551c-0.725-0.083-1.562-0.473-2.059,0.336
			c-0.557,0.907,0.153,1.559,0.694,2.188c0.543,0.632,1.129,1.227,1.668,1.858c0.609,0.718-0.088,1.028-0.496,1.38
			c-0.353,0.305-1.097,0.826-1.162,0.15c-0.189-1.95-1.338-1.643-2.664-1.594c-0.949,0.033-0.592-0.768-0.369-1.293
			c0.264-0.627,0.211-1.143-0.432-1.482c-0.682-0.363-1.276-0.223-1.801,0.33c-1.621,1.709-2.613,4.012-4.904,5.113
			c-0.26,0.125-0.344,0.938-0.262,1.39c0.255,1.401,0.133,2.354-1.676,2.093c-1.103-0.16-1.09,0.56-1.139,1.414
			c-0.121,2.115,1.209,2.736,2.811,3.66c1.897,1.096,2.092-0.863,3.178-1.344c0.35,1.164-0.075,1.764-0.621,2.604
			c-1.075,1.651-3.822,2.965-1.719,5.65c0.117,0.148-0.063,0.643-0.235,0.883c-0.706,0.982-0.308,1.527,0.675,1.869
			c0.538,0.188,0.837,0.538,0.775,1.117c-0.17,1.629,0.027,2.783,2.134,1.902c0.671-0.279,0.869,0.188,0.821,0.793
			c-0.051,0.654-0.248,1.346-0.11,1.961c0.306,1.373-0.207,1.383-1.305,1.076c-1.986-0.556-3.394,0.613-3.21,2.777
			c0.15,1.771-1.318,0.895-1.924,1.387c0.139-2.408-2.141-2.936-3.324-4.318c-0.145-0.17,0.055-0.64,0.101-0.967
			c0.137-0.982,0.267-1.969,0.417-2.947c0.096-0.623,0.061-1.195-0.608-1.467c-0.527-0.215-1.348,0.114-1.274,0.395
			c0.679,2.585-6.461,2.201-2.273,6.023c0.029,0.025-0.063,0.164-0.045,0.233c0.679,2.583-0.903,5.521,1.233,7.872
			c-1.685,2.719,3.378,3.92,1.534,6.746c-0.168,0.257,0.581,0.803,1.102,0.789c2.203-0.061,2.934,2.582,5.15,2.743
			c0.58,0.043,1.135,1.707,1.521,2.694c0.268,0.688-0.205,1.32-0.828,1.648c-0.735,0.387-1.084-0.264-1.338-0.753
			c-0.701-1.36-1.598-2.312-3.3-2.136c-0.579,0.059-0.852-0.418-1.022-0.924c-0.771-2.302-2.285-1.39-2.812-0.213
			c-1.031,2.297-4.322,4.391-1.269,7.441c0.294,0.293,0.323,0.804-0.104,1.098c-0.335,0.23-0.629,0.02-0.84-0.268
			c-0.441-0.598-0.822-1.413-1.757-0.916c-0.864,0.46-0.381,1.339-0.461,2.044c-0.236,2.074,0.987,4.403-1.312,6.14
			c-0.634,0.479,0.221,1.031,0.76,1.48c1.451,1.211,2.874,2.497,1.773,4.73c-0.564,1.146-0.393,1.873,1.032,2.453
			c1.781,0.728,3.933,5.039,3.456,6.771c-0.332,1.207-0.396,2.063,0.707,2.812c0.35,0.236,0.59,0.67,0.248,1.063
			c-0.367,0.427-0.732,0.104-1.078-0.142c-1.268-0.896-2.214-1.985-2.449-3.604c-0.116-0.806-0.607-1.382-1.511-1.386
			c-0.78-0.002-1.143,0.531-1.458,1.166c-1.279,2.576-0.608,4.607,1.992,5.733c-0.314,1.017-2.155,1.435-1.597,2.57
			c1.548,3.146-0.37,4.802-2.431,6.456c-0.592,0.474-0.885,0.998-0.751,1.713c0.239,1.263-0.372,1.869-1.518,2.129
			c-0.99,0.225-2.012,0.891-1.578,1.829c0.789,1.71,0.388,3.981,2.599,5.106c1.18,0.602,2.854,1.721,0.521,3.221
			c-0.502,0.322-0.861,1.281-0.357,1.492c2.604,1.09,1.506,6.217,5.865,5.336c0.245-0.052,0.84,0.455,0.881,0.756
			c0.307,2.229,2.325,2.365,3.768,3.205c0.658,0.383,2.005,0.496,1.408,1.562c-0.48,0.858-1.759,1.005-2.672,0.324
			c-0.861-0.641-1.678-1.408-2.315-2.267c-1.603-2.155-3.386-1.187-5.106-0.363c-1.973,0.94-0.786,2.396-0.406,3.655
			c0.287,0.947,0.823,1.831,1.029,2.793c0.266,1.234,2.311,2.01,1.479,3.184c-0.943,1.328-2.518-0.393-3.965-0.104
			c-1.201,0.237-2.755,0.946-3.532,1.943c-1.418,1.819-0.103,2.417,1.028,3.323c1.291,1.035,2.555,1.773,4.32,1.23
			c0.867-0.268,1.828-0.09,2.676,0.345c0.512,0.261,1.211,0.511,1.094,1.19c-0.146,0.856-0.904,0.465-1.443,0.461
			c-2.02-0.014-2.162,0.93-1.498,2.586c0.942,2.355,1.994,4.372,5.408,3.32c-1.121,1.388-1.971,2.403-2.777,3.451
			c-0.543,0.707-1.43,1.442-0.763,2.408c0.68,0.982,1.589,0.317,2.47,0.07c2.354-0.656,4.581-0.243,6.599,1.149
			c0.509,0.351,0.922,0.816,0.27,1.406c-0.415,0.374-0.862,0.562-1.194-0.124c-0.505-1.05-1.363-1.701-2.381-0.964
			c-1.113,0.806-0.387,1.759,0.275,2.564c0.339,0.413,0.556,0.894,0.127,1.339c-0.516,0.539-0.879,0.045-1.242-0.279
			c-0.76-0.685-1.583-0.177-2.385-0.14c-2.252,0.104-4.166,2.913-6.708,0.842c-0.104-0.084-0.467,0.114-0.69,0.222
			c-1.723,0.807-3.791,0.902-5.181,2.36c-0.565,0.595-2.04-0.126-1.862,1.12c0.161,1.139,1.373,1.593,2.332,2.081
			c0.816,0.417,1.641,0.208,2.394-0.21c0.996-0.553,2.051-0.446,3.136-0.52c4.982-0.328,9.782,1.352,14.793,1.067
			c6.062-0.342,11.955,1.778,18.053,1.794c1.527,0.005,3.007,0.332,4.604-0.008c1.514-0.321,3.15-0.166,4.723-0.062
			c0.797,0.052,1.52,0.478,0.777,1.495c-0.355,0.486-1.914,0.363-1.013,1.424c0.727,0.854,1.681,0.177,2.393-0.468
			c0.673-0.61,1.237-1.452,2.251-1.452c3.467-0.003,6.979-0.291,10.393,0.157c5.414,0.715,10.763-0.354,16.169-0.115
			c3.984,0.177,8.069-0.262,12.114-0.396c2.369-0.077,3.907,0.701,5.311,2.443c1.431,1.773,2.443,1.689,3.631-0.188
			c1.246-1.972,2.758-2.54,5.07-1.789c4.068,1.32,8.366,0.313,12.568,0.776c2.16,0.238,4.131,1.172,6.33,1.261
			c1.035,0.042,1.922,0.532,2.853-0.298c1.396-1.248,2.842-1.459,4.805-1.096c1.812,0.335,3.873,0.254,5.755,0.022
			c1.94-0.235,3.717-0.091,5.606,0.286c2.387,0.479,4.705-1.524,7.198-0.463c0.043,0.021,0.157-0.066,0.201-0.132
			c1.325-1.928,2.088-0.485,2.979,0.468c0.998,1.065,1.7,1.854,2.967-0.119c1.111-1.73,3.414-2.789,5.459-1.652
			c1.593,0.883,2.668,2.762,4.791,1.113c0.043-0.032,0.595,0.48,0.817,0.804c1.089,1.554,2.027,1.777,2.683-0.29
			c0.258-0.814,0.733-1.336,1.572-1.367c2.493-0.096,4.99-0.148,7.487-0.195c0.81-0.015,1.188,1.112,2.426,0.438
			c2.648-1.447,5.689-1.557,8.683-1.601c4.443-0.063,8.979,1.97,13.326-0.558c0.196-0.115,0.528-0.162,0.729-0.078
			c3.369,1.41,6.632,1.3,9.795-0.605c0.115-0.069,0.367-0.059,0.473,0.023c1.712,1.336,3.313,0.282,4.932-0.222
			c1.603-0.498,3.124-0.897,4.827-0.065c1.278,0.625,2.752,0.412,4.14-0.104c4.856-1.807,9.906-1.974,14.976-1.48
			c1.646,0.159,3.497,0.854,3.391,2.966c-0.106,2.082-0.825,3.984-2.721,5.368c-4.228,3.086-9.357,5.324-10.856,11.114
			c-0.214,0.827-1.467,1.527-0.799,2.419c0.76,1.012,1.824,0.249,2.721-0.135c0.458-0.196,0.863-0.532,1.33-0.688
			c3.146-1.031,5.254-3.895,8.402-4.82c1.773-0.524,3.18-1.45,4.355-2.752c1.076-1.19,2.345-2.107,3.608-3.063
			c4.866-3.668,10.393-6.327,15.263-9.967c1.823-1.363,3.115-1.498,5.004-0.053c3.201,2.448,6.836,2.51,10.365,0.635
			c3.304-1.754,4.916-4.705,4.928-8.396c0.006-2.479,0.689-3.899,3.375-4.638c2.847-0.779,5.156-2.828,5.979-5.82
			c0.43-1.564,1.924-2.943,3.377-2.305c3.6,1.589,8.435-0.182,9.859-3.883c0.691-1.793,1.426-3.51,2.388-5.172
			c0.699-1.209,1.04-2.766-0.799-3.256c-1.625-0.438-1.968-1.393-2.241-2.826c-1.171-6.082-4.892-8.947-11.047-8.941
			c-2.875,0.005-4.833,1.565-6.743,3.322c-0.721,0.662-1.424,1.437-2.294,0.5c-0.984-1.059,0.198-1.557,0.812-2.159
			c0.532-0.525,1.153-0.999,1.55-1.613c0.405-0.632,1.475-1.351,0.65-2.12c-0.766-0.721-1.494,0.213-2.137,0.694
			c-0.91,0.687-1.804,1.864-3.033,0.997c-1.125-0.791-1.188-2.18-0.782-3.434c1.472-4.578,1.405-9.896,6.131-12.943
			c0.336-0.216,0.653-0.604,0.489-1.057c-0.187-0.51-0.648-0.367-1.062-0.318c-0.7,0.082-1.604,0.572-1.944-0.416
			c-0.246-0.715,0.563-1.117,0.979-1.609c0.321-0.384,0.706-0.732,0.936-1.166c0.394-0.75,1.513-1.572,0.565-2.38
			c-0.807-0.688-1.464,0.38-2.027,0.914c-1.384,1.313-2.205,0.806-2.669-0.784c-0.186-0.632-0.288-1.318-0.256-1.975
			c0.318-6.407,1.392-12.684,3.525-18.751c0.221-0.626,0.671-1.279,0.162-1.867c-0.463-0.534-0.851,0.151-1.273,0.312
			c-1.212,0.451-1.352-0.232-1.062-1.123c0.488-1.504,1.121-2.961,1.589-4.471c0.202-0.648,0.732-1.63-0.255-1.964
			c-1.035-0.349-1.074,0.755-1.315,1.411c-0.379,1.032-0.733,2.182-1.979,2.339c-1.238,0.159-1.853-0.962-2.581-1.729
			c-0.901-0.947-0.813-2.097-0.64-3.292c0.376-2.598,1.258-5.063,2.186-7.445c-1.277-0.597-2.181,1.309-2.965,0.089
			c-0.611-0.95,0.529-1.806,0.9-2.696c0.256-0.614,0.531-1.224,0.823-1.819c0.427-0.867,1.343-1.948-0.087-2.488
			c-1.254-0.474-1.598,0.813-1.935,1.759c-0.112,0.313-0.159,0.656-0.312,0.948c-0.797,1.545-2.133,1.653-3.06,0.181
			c-0.383-0.606-0.607-1.379-0.692-2.103c-0.426-3.625-1.439-7.192-1.107-10.899c0.042-0.466-0.049-1.228-0.338-1.394
			c-2.747-1.572-1.48-3.369-0.414-5.211c0.432-0.744,1.312-1.712,0.07-2.32c-1.145-0.562-1.473,0.566-1.873,1.416
			c-1.642,3.483-3.844,4.533-7.483,3.542c-1.538-0.419-2.89-1.267-4.213-2.146c-5.589-3.717-9.013-9.232-12.332-14.834
			c-0.283-0.478-0.245-1.25-0.979-1.311c-0.729-0.059-0.966,0.604-1.137,1.139c-1.055,3.306-3.826,5.205-6.188,7.369
			c-2.302,2.108-4.856,1.825-7.087-0.401c-0.479-0.48-0.868-1.125-1.635-0.854c-0.883,0.314-0.411,1.089-0.466,1.714
			c-0.509,5.873-1.819,11.53-5.434,16.325c-2.315,3.07-3.769,2.962-6.247,0.025c-0.596-0.703-1.09-1.462-1.745-0.061
			c-0.44,0.94-0.655,0.937-1.49,0.061c-1.83-1.916-3.122-5.561-6.966-3.063c-0.018,0.011-0.186-0.218-0.386-0.46
			c2.608-0.965,3.321-2.542,1.625-4.928c-0.651-0.916-0.696-2.145,0.489-2.533c2.633-0.865,2.299-2.26,0.793-4.156
			c1.354,0.704,2.4,0.821,3.33-0.271c0.545-0.643,1.475-1.465,0.9-2.119c-1.577-1.801-0.273-2.847,0.766-3.959
			c1.279-1.37,0.871-2.604-0.223-3.729c-0.822-0.844-1.627-1.526-1.512-2.926c0.068-0.816-0.643-1.559-1.521-1.773
			c-0.844-0.209-1.087,0.547-1.435,1.111c-0.299,0.483-0.613,1.068-1.656,0.273c2.722-1.759,1.241-3.756,0.354-5.75
			c-0.188-0.422-0.717-0.768-0.242-1.328c1.926-2.279,0.23-2.506-1.471-2.344c-1.262,0.12-2.178-0.301-2.844-1.162
			c-0.823-1.066,0.636-1.283,0.965-1.934c0.438-0.867,0.765-1.699,0.281-2.599c-0.33-0.61-0.957-0.569-1.555-0.411
			c-0.698,0.182-1.477,0.709-2.031-0.146c-0.538-0.826,0.283-1.377,0.613-1.998c1.321-2.477,0.767-3.623-2.032-4.141
			c-0.515-0.097-1.229,0.104-1.321-0.756c3.209-0.854,3.563-2.121,3.097-5.707c-0.446-3.449,0.665-6.298,2.136-9.211
			c0.503-0.998,2.246-2.525-0.664-3.048c-1.112-0.199-0.309-0.99-0.003-1.5c0.262-0.438,0.573-0.899,0.081-1.334
			c-0.45-0.396-1.062-0.26-1.35,0.129c-0.807,1.086-1.237,0.791-1.743-0.242c-0.099-0.202-1.069-0.248-1.098-0.174
			c-0.706,1.994-3.284,1.924-4.079,3.437c-1.201,2.284-2.841,3.815-5.122,4.798c-0.479,0.208-0.603,1.542-1.476,0.521
			c-0.574-0.67-0.105-1.295,0.31-1.795c2.638-3.166,4.813-6.563,6.274-10.469c0.438-1.17,0.896-2.09-0.182-2.773
			c-1.232-0.784-1.271,0.721-1.873,1.256c-1.52,1.35-1.756,3.839-4.062,4.598c1.663-1.808,0.256-3.406-0.327-5.005
			c0.375-0.061,0.572-0.16,0.674-0.099c0.766,0.454,1.518,1.31,2.424,0.421c1.023-1.007,1.137-2.375,1.024-3.73
			c-0.093-1.137-0.94-1.045-1.817-1.177c-1.604-0.24-1.193-1.412-0.602-2.235c0.813-1.125,1.154-2.158,0.434-3.444
			c-0.367-0.653,0.025-1.289,0.295-1.899c1.709-3.896,1.707-3.896-2.521-4.895c-0.161-0.038-0.325-0.078-0.479-0.14
			c-1.5-0.604-2.166-0.052-2.764,1.45c-0.662,1.669-1.631,3.504-3.225,4.3c-1.076,0.538-2.42,0.639-3.479,2.125
			c-0.188-2.522,0.267-4.127,2.36-4.846c0.587-0.202,1.199-0.453,1.224-1.09c0.066-1.897,0.65-3.321,2.671-3.903
			c0.457-0.131,0.569-0.901,0.348-1.342c-0.838-1.65-0.157-2.403,1.414-2.935c1.679-0.569,2.105-1.66,0.651-2.945
			c-1.127-0.997-0.771-1.867-0.017-2.801c0.521-0.646,1.113-1.243,1.557-1.937c0.52-0.812,1.482-1.784,0.635-2.685
			c-1.168-1.239-2.177-2.794-3.973-3.266c-0.625-0.164-1.032,0.397-1.439,0.83c-0.364,0.39-0.608,1.041-1.442,0.799
			c-0.265-0.984,0.332-1.509,1.065-1.964c1.897-1.18,2.024-3.82,4.371-4.892c1.012-0.463,1.418-2.694,2.439-3.896
			c0.538-0.633,1.497-1.172,1.206-2.033c-0.761-2.247-1.397-4.871-3.312-6.187c-1.852-1.271-1.789-2.271-0.968-3.836
			c0.347-0.659,0.728-1.3,1.065-1.961c0.406-0.788,0.656-1.981-0.092-2.262c-1.254-0.471-1.945-1.741-3.207-1.97
			c-0.498-0.09-0.703,0.583-0.65,1.141c0.232,2.463-0.688,4.55-2.383,6.215c-0.825,0.811-1.158,2.721-2.693,2.179
			c-1.635-0.577-0.158-2.193-0.514-3.312c-0.229-0.729-0.266-1.499-1.126-1.771c-0.843-0.266-1.444,0.079-1.882,0.813
			c-0.234,0.394-0.525,1.211-1.006,0.727c-1.07-1.084-2.812-1.977-2.482-3.796c0.332-1.833-0.141-3.762,0.046-5.265
			c0.419-3.384,0.319-6.993,1.771-10.239c0.308-0.686,0.756-1.395,0.078-2.065c-0.604-0.598-1.408-0.579-2.098-0.212
			c-1.004,0.537-1.682,0.593-2.031-0.717c-0.211-0.795-0.521-1.797-1.549-1.673c-1.191,0.144-1.016,1.256-1.17,2.163
			c-0.291,1.695-1.35,2.612-3.137,2.52c-0.564-0.029-0.941-0.182-0.721-0.916c0.621-2.073,0.68-4.298,2.686-5.856
			c1.387-1.077,1.57-3.004,0.365-4.25c-1.201-1.241-1.737-2.116-0.92-3.81c0.517-1.069-0.316-2.124-1.361-2.642
			c-1.152-0.57-1.285,0.562-1.76,1.194c-1.242,1.662-2.541,3.249-3.277,5.262c-0.285,0.782-1.666,1.955-2.24,0.623
			c-1.52-3.521-3.125-7.173-1.963-11.18c0.615-2.12,1.617-4.209-2.107-5.191c2.402-0.859,3.48-2.363,4.521-3.967
			c1.188-1.831,0.779-3.638-0.271-5.125c-1.188-1.674-2.078,0.584-3.34,0.864c-0.119-1.619,0.203-2.633,1.801-2.929
			c0.76-0.141,1.103-0.708,1.027-1.479c-0.068-0.74-0.445-1.267-1.209-1.384c-0.746-0.116-1.258,0.231-1.604,0.91
			c-0.26,0.508-0.152,1.411-1.287,1.234c0.148-0.747,0.762-1.383,0.525-2.141c-0.302-0.961-0.99-1.984-1.854-0.863
			c-1.134,1.47-2.64,2.552-3.716,3.986c-0.9,1.2-2.35,2.592-0.785,4.408c0.402,0.468,0.287,1.158-0.195,1.599
			c-1.307,1.191-2.65,2.34-3.98,3.505c0.369-1.406,1.715-2.229,1.646-3.765c-0.102-2.335,0.727-4.4,1.883-6.372
			c0.523-0.896,0.855-1.735-0.119-2.676c-2.189-2.111-2.252-4.944-0.309-7.216c0.646-0.757,1.494-1.486,1.785-2.379
			c0.6-1.84,2.543-3.596,0.98-5.697c-0.789-1.063-1.033-1.637,0.043-2.671c1.097-1.055,0.891-2.319-0.511-3.092
			c-1.34-0.737-1.844,0.061-2.342,1.262c-0.875,2.11-2.731,2.547-4.59,1.268c-1.796-1.238-2.412-0.988-2.777,1.129
			C270.963,105.905,270.895,106.299,270.777,106.979z"/>
	</g>
	<path display="none" fill="#87BB65" d="M270.777,106.979c0.117-0.68,0.186-1.074,0.252-1.467c0.365-2.117,0.98-2.367,2.777-1.129
		c1.856,1.279,3.715,0.842,4.59-1.268c0.498-1.202,1.002-2,2.342-1.262c1.4,0.772,1.604,2.037,0.51,3.092
		c-1.076,1.034-0.832,1.607-0.042,2.671c1.562,2.101-0.382,3.857-0.981,5.697c-0.291,0.894-1.139,1.622-1.785,2.379
		c-1.943,2.272-1.883,5.105,0.31,7.216c0.978,0.94,0.646,1.78,0.119,2.676c-1.157,1.972-1.983,4.037-1.884,6.372
		c0.066,1.536-1.277,2.359-1.646,3.765c1.329-1.166,2.677-2.313,3.979-3.505c0.482-0.44,0.601-1.131,0.195-1.599
		c-1.563-1.816-0.115-3.208,0.785-4.408c1.076-1.434,2.583-2.516,3.717-3.986c0.863-1.121,1.556-0.098,1.854,0.863
		c0.235,0.757-0.377,1.394-0.524,2.141c1.135,0.177,1.026-0.726,1.286-1.234c0.347-0.678,0.855-1.026,1.604-0.91
		c0.763,0.119,1.141,0.645,1.209,1.384c0.072,0.77-0.27,1.337-1.028,1.479c-1.597,0.296-1.92,1.31-1.799,2.929
		c1.26-0.28,2.151-2.538,3.338-0.864c1.054,1.487,1.46,3.294,0.272,5.125c-1.041,1.604-2.119,3.107-4.521,3.967
		c3.727,0.982,2.725,3.071,2.107,5.191c-1.162,4.007,0.442,7.659,1.963,11.18c0.574,1.332,1.955,0.159,2.24-0.623
		c0.736-2.014,2.035-3.6,3.276-5.262c0.476-0.632,0.606-1.764,1.761-1.194c1.045,0.518,1.879,1.573,1.36,2.642
		c-0.815,1.694-0.281,2.569,0.92,3.81c1.206,1.246,1.021,3.173-0.364,4.25c-2.007,1.559-2.063,3.783-2.687,5.856
		c-0.222,0.734,0.155,0.887,0.721,0.916c1.787,0.092,2.847-0.825,3.138-2.521c0.153-0.906-0.022-2.019,1.17-2.163
		c1.027-0.125,1.338,0.878,1.549,1.673c0.351,1.311,1.027,1.254,2.031,0.717c0.688-0.367,1.492-0.386,2.097,0.212
		c0.678,0.671,0.229,1.38-0.077,2.065c-1.452,3.246-1.354,6.854-1.771,10.239c-0.187,1.503,0.287,3.432-0.045,5.265
		c-0.328,1.819,1.411,2.712,2.482,3.796c0.479,0.484,0.771-0.333,1.005-0.727c0.438-0.734,1.04-1.079,1.882-0.813
		c0.86,0.271,0.896,1.041,1.127,1.771c0.354,1.119-1.121,2.734,0.514,3.312c1.535,0.542,1.867-1.369,2.692-2.179
		c1.696-1.665,2.615-3.751,2.384-6.215c-0.054-0.558,0.151-1.231,0.649-1.141c1.263,0.229,1.954,1.5,3.207,1.97
		c0.748,0.281,0.498,1.474,0.092,2.262c-0.34,0.662-0.72,1.303-1.063,1.961c-0.823,1.566-0.885,2.566,0.966,3.836
		c1.914,1.315,2.553,3.94,3.312,6.187c0.291,0.861-0.668,1.399-1.205,2.033c-1.022,1.202-1.43,3.433-2.44,3.896
		c-2.345,1.071-2.474,3.711-4.37,4.893c-0.734,0.456-1.33,0.979-1.066,1.964c0.834,0.241,1.078-0.409,1.443-0.799
		c0.407-0.433,0.814-0.994,1.439-0.83c1.797,0.471,2.805,2.027,3.973,3.266c0.85,0.901-0.115,1.873-0.634,2.685
		c-0.442,0.694-1.036,1.292-1.558,1.937c-0.755,0.935-1.109,1.805,0.018,2.801c1.453,1.285,1.023,2.376-0.653,2.945
		c-1.571,0.532-2.251,1.285-1.414,2.935c0.224,0.441,0.11,1.21-0.347,1.342c-2.021,0.582-2.604,2.005-2.67,3.903
		c-0.023,0.638-0.639,0.889-1.225,1.09c-2.096,0.719-2.55,2.323-2.359,4.846c1.059-1.485,2.4-1.586,3.479-2.125
		c1.594-0.796,2.563-2.631,3.225-4.3c0.599-1.501,1.264-2.053,2.764-1.45c0.152,0.062,0.316,0.102,0.479,0.14
		c4.229,0.999,4.229,0.999,2.521,4.895c-0.27,0.611-0.661,1.247-0.295,1.899c0.724,1.287,0.38,2.319-0.434,3.444
		c-0.594,0.823-1.002,1.995,0.602,2.235c0.878,0.132,1.727,0.04,1.818,1.177c0.109,1.354-0.002,2.723-1.025,3.729
		c-0.905,0.889-1.658,0.033-2.422-0.421c-0.104-0.061-0.301,0.038-0.676,0.099c0.584,1.599,1.99,3.198,0.328,5.005
		c2.307-0.758,2.541-3.249,4.061-4.599c0.602-0.535,0.641-2.04,1.874-1.256c1.076,0.683,0.618,1.603,0.181,2.773
		c-1.461,3.906-3.639,7.302-6.273,10.468c-0.414,0.499-0.885,1.124-0.311,1.795c0.873,1.02,0.994-0.314,1.477-0.521
		c2.281-0.982,3.922-2.514,5.122-4.799c0.796-1.512,3.372-1.44,4.079-3.436c0.025-0.074,0.998-0.028,1.099,0.173
		c0.505,1.034,0.937,1.329,1.743,0.241c0.287-0.389,0.896-0.523,1.348-0.127c0.493,0.434,0.181,0.895-0.081,1.334
		c-0.304,0.509-1.108,1.301,0.003,1.5c2.91,0.521,1.167,2.048,0.664,3.046c-1.469,2.915-2.582,5.762-2.135,9.211
		c0.467,3.586,0.111,4.854-3.098,5.707c0.094,0.86,0.81,0.661,1.321,0.756c2.799,0.519,3.355,1.664,2.033,4.142
		c-0.331,0.62-1.152,1.172-0.614,1.998c0.558,0.855,1.333,0.327,2.031,0.146c0.598-0.157,1.225-0.199,1.555,0.411
		c0.482,0.897,0.157,1.729-0.28,2.599c-0.329,0.649-1.788,0.867-0.966,1.935c0.666,0.86,1.582,1.281,2.846,1.162
		c1.699-0.162,3.395,0.063,1.47,2.345c-0.475,0.561,0.056,0.905,0.243,1.327c0.886,1.994,2.365,3.99-0.355,5.75
		c1.043,0.795,1.358,0.209,1.656-0.273c0.348-0.564,0.591-1.321,1.436-1.112c0.878,0.218,1.589,0.957,1.521,1.775
		c-0.116,1.396,0.688,2.082,1.511,2.926c1.094,1.123,1.502,2.354,0.224,3.728c-1.039,1.111-2.344,2.158-0.767,3.959
		c0.572,0.653-0.354,1.479-0.899,2.119c-0.931,1.094-1.977,0.975-3.33,0.27c1.507,1.898,1.841,3.293-0.793,4.158
		c-1.188,0.392-1.144,1.617-0.489,2.533c1.696,2.387,0.982,3.963-1.625,4.928c0.201,0.242,0.369,0.47,0.385,0.459
		c3.844-2.496,5.136,1.146,6.966,3.062c0.835,0.876,1.051,0.882,1.49-0.059c0.657-1.402,1.151-0.646,1.745,0.059
		c2.479,2.938,3.932,3.046,6.248-0.024c3.612-4.795,4.924-10.453,5.433-16.324c0.056-0.627-0.417-1.398,0.466-1.715
		c0.768-0.271,1.154,0.371,1.637,0.853c2.229,2.229,4.784,2.513,7.087,0.403c2.36-2.164,5.134-4.064,6.188-7.369
		c0.171-0.534,0.408-1.197,1.138-1.139c0.731,0.06,0.693,0.832,0.979,1.311c3.321,5.6,6.743,11.116,12.332,14.833
		c1.325,0.882,2.675,1.729,4.213,2.147c3.643,0.99,5.844-0.061,7.485-3.543c0.398-0.851,0.729-1.979,1.873-1.416
		c1.237,0.607,0.357,1.576-0.072,2.32c-1.065,1.842-2.333,3.639,0.414,5.211c0.29,0.166,0.38,0.928,0.338,1.393
		c-0.332,3.709,0.685,7.275,1.108,10.9c0.086,0.723,0.311,1.494,0.691,2.103c0.928,1.474,2.264,1.364,3.062-0.181
		c0.148-0.291,0.196-0.635,0.31-0.949c0.337-0.943,0.682-2.23,1.936-1.758c1.429,0.541,0.513,1.621,0.087,2.488
		c-0.291,0.598-0.568,1.204-0.824,1.818c-0.371,0.895-1.513,1.746-0.9,2.698c0.784,1.219,1.688-0.688,2.966-0.091
		c-0.929,2.384-1.811,4.851-2.187,7.445c-0.174,1.196-0.262,2.346,0.64,3.293c0.73,0.769,1.344,1.889,2.581,1.729
		c1.244-0.159,1.603-1.307,1.979-2.34c0.24-0.656,0.279-1.76,1.313-1.41c0.987,0.332,0.457,1.313,0.256,1.963
		c-0.469,1.509-1.102,2.966-1.59,4.47c-0.29,0.892-0.148,1.574,1.063,1.123c0.423-0.157,0.811-0.845,1.272-0.31
		c0.509,0.586,0.06,1.24-0.162,1.867c-2.137,6.067-3.207,12.342-3.526,18.75c-0.032,0.653,0.071,1.342,0.256,1.974
		c0.464,1.59,1.286,2.098,2.669,0.784c0.564-0.534,1.223-1.604,2.029-0.914c0.943,0.809-0.175,1.63-0.567,2.38
		c-0.228,0.435-0.611,0.784-0.934,1.165c-0.416,0.494-1.229,0.896-0.981,1.611c0.343,0.988,1.244,0.498,1.945,0.416
		c0.412-0.049,0.875-0.188,1.061,0.318c0.164,0.454-0.151,0.84-0.488,1.057c-4.727,3.049-4.658,8.364-6.131,12.943
		c-0.402,1.253-0.344,2.643,0.781,3.434c1.231,0.867,2.123-0.313,3.033-0.996c0.644-0.482,1.371-1.416,2.137-0.696
		c0.822,0.771-0.244,1.489-0.648,2.12c-0.396,0.615-1.02,1.09-1.551,1.615c-0.611,0.604-1.796,1.103-0.813,2.157
		c0.87,0.938,1.574,0.162,2.294-0.5c1.91-1.757,3.868-3.317,6.743-3.321c6.157-0.006,9.876,2.858,11.047,8.94
		c0.275,1.438,0.617,2.392,2.242,2.826c1.838,0.492,1.498,2.047,0.798,3.256c-0.962,1.662-1.694,3.379-2.386,5.172
		c-1.428,3.701-6.263,5.474-9.861,3.884c-1.453-0.642-2.947,0.737-3.377,2.306c-0.82,2.991-3.131,5.041-5.978,5.819
		c-2.687,0.735-3.368,2.157-3.375,4.639c-0.013,3.688-1.624,6.64-4.929,8.394c-3.527,1.875-7.164,1.815-10.364-0.635
		c-1.89-1.445-3.182-1.312-5.004,0.053c-4.87,3.642-10.396,6.3-15.264,9.968c-1.265,0.952-2.532,1.869-3.607,3.062
		c-1.179,1.302-2.582,2.228-4.356,2.752c-3.147,0.928-5.259,3.789-8.402,4.822c-0.467,0.151-0.871,0.488-1.329,0.686
		c-0.896,0.384-1.962,1.146-2.722,0.136c-0.668-0.893,0.585-1.593,0.799-2.42c1.499-5.789,6.632-8.026,10.856-11.112
		c1.896-1.386,2.613-3.286,2.721-5.368c0.108-2.113-1.741-2.809-3.39-2.966c-5.068-0.491-10.118-0.324-14.977,1.479
		c-1.388,0.517-2.857,0.729-4.14,0.104c-1.703-0.832-3.226-0.435-4.827,0.063c-1.619,0.504-3.219,1.56-4.931,0.223
		c-0.104-0.082-0.356-0.096-0.473-0.024c-3.163,1.907-6.427,2.018-9.796,0.606c-0.2-0.085-0.532-0.036-0.729,0.077
		c-4.349,2.525-8.882,0.492-13.327,0.56c-2.991,0.044-6.032,0.149-8.681,1.599c-1.236,0.675-1.617-0.452-2.428-0.438
		c-2.496,0.047-4.993,0.1-7.487,0.193c-0.839,0.031-1.313,0.555-1.571,1.367c-0.654,2.069-1.595,1.844-2.684,0.29
		c-0.225-0.321-0.773-0.836-0.817-0.802c-2.122,1.646-3.198-0.232-4.791-1.115c-2.045-1.135-4.348-0.078-5.458,1.654
		c-1.268,1.971-1.97,1.185-2.968,0.119c-0.894-0.953-1.653-2.396-2.979-0.47c-0.043,0.063-0.156,0.15-0.199,0.134
		c-2.494-1.063-4.813,0.938-7.199,0.463c-1.893-0.377-3.666-0.523-5.607-0.286c-1.881,0.229-3.943,0.311-5.754-0.024
		c-1.962-0.362-3.408-0.15-4.805,1.097c-0.932,0.829-1.816,0.341-2.854,0.299c-2.199-0.089-4.169-1.022-6.33-1.263
		c-4.202-0.465-8.5,0.545-12.568-0.774c-2.312-0.751-3.824-0.185-5.07,1.789c-1.188,1.88-2.2,1.964-3.631,0.188
		c-1.403-1.741-2.941-2.521-5.311-2.441c-4.045,0.133-8.13,0.568-12.114,0.394c-5.406-0.238-10.755,0.83-16.169,0.116
		c-3.413-0.449-6.926-0.161-10.393-0.158c-1.014,0-1.578,0.843-2.251,1.452c-0.712,0.646-1.666,1.321-2.393,0.468
		c-0.901-1.059,0.657-0.936,1.013-1.424c0.742-1.019,0.02-1.442-0.777-1.495c-1.572-0.103-3.209-0.259-4.723,0.063
		c-1.597,0.34-3.076,0.012-4.604,0.008c-6.098-0.017-11.99-2.136-18.053-1.794c-5.011,0.281-9.811-1.397-14.793-1.069
		c-1.085,0.072-2.14-0.033-3.136,0.521c-0.753,0.418-1.577,0.627-2.394,0.21c-0.959-0.489-2.171-0.944-2.332-2.081
		c-0.178-1.246,1.297-0.527,1.862-1.12c1.39-1.458,3.458-1.557,5.181-2.362c0.224-0.104,0.587-0.304,0.69-0.22
		c2.542,2.07,4.456-0.737,6.708-0.842c0.802-0.037,1.625-0.546,2.385,0.138c0.363,0.326,0.727,0.82,1.242,0.281
		c0.429-0.447,0.212-0.927-0.127-1.34c-0.662-0.809-1.389-1.762-0.275-2.565c1.018-0.737,1.876-0.086,2.381,0.964
		c0.332,0.688,0.779,0.498,1.194,0.124c0.652-0.589,0.239-1.056-0.27-1.406c-2.018-1.394-4.245-1.808-6.599-1.147
		c-0.881,0.247-1.79,0.912-2.47-0.072c-0.667-0.965,0.22-1.701,0.763-2.408c0.807-1.048,1.656-2.062,2.777-3.45
		c-3.414,1.053-4.466-0.966-5.408-3.319c-0.664-1.658-0.521-2.601,1.498-2.586c0.539,0.004,1.297,0.396,1.443-0.461
		c0.117-0.684-0.582-0.934-1.094-1.192c-0.848-0.433-1.809-0.609-2.676-0.343c-1.766,0.543-3.029-0.197-4.32-1.232
		c-1.131-0.905-2.446-1.504-1.028-3.322c0.777-0.997,2.331-1.706,3.532-1.943c1.447-0.287,3.021,1.434,3.965,0.104
		c0.832-1.175-1.213-1.946-1.479-3.185c-0.206-0.961-0.742-1.844-1.029-2.793c-0.38-1.26-1.566-2.715,0.406-3.655
		c1.721-0.82,3.504-1.792,5.106,0.364c0.638,0.857,1.454,1.625,2.315,2.267c0.913,0.682,2.191,0.533,2.672-0.324
		c0.597-1.065-0.75-1.181-1.408-1.563c-1.442-0.84-3.461-0.978-3.768-3.205c-0.041-0.301-0.636-0.806-0.881-0.756
		c-4.359,0.881-3.262-4.245-5.865-5.336c-0.504-0.211-0.145-1.17,0.357-1.492c2.332-1.5,0.658-2.619-0.521-3.222
		c-2.211-1.125-1.81-3.396-2.599-5.104c-0.434-0.939,0.588-1.604,1.578-1.828c1.146-0.262,1.757-0.867,1.518-2.131
		c-0.134-0.713,0.159-1.238,0.751-1.713c2.061-1.652,3.979-3.312,2.431-6.455c-0.559-1.137,1.282-1.555,1.597-2.57
		c-2.601-1.125-3.271-3.156-1.992-5.732c0.315-0.637,0.678-1.169,1.458-1.166c0.903,0.003,1.395,0.58,1.511,1.385
		c0.235,1.619,1.182,2.709,2.449,3.605c0.346,0.244,0.711,0.564,1.078,0.141c0.342-0.396,0.102-0.828-0.248-1.063
		c-1.104-0.746-1.039-1.604-0.707-2.812c0.477-1.729-1.675-6.044-3.456-6.77c-1.425-0.58-1.597-1.309-1.032-2.453
		c1.101-2.234-0.322-3.521-1.773-4.732c-0.539-0.449-1.394-1.002-0.76-1.479c2.299-1.733,1.075-4.063,1.312-6.14
		c0.08-0.705-0.403-1.584,0.461-2.045c0.935-0.496,1.315,0.32,1.757,0.916c0.211,0.285,0.505,0.498,0.84,0.269
		c0.428-0.293,0.398-0.806,0.104-1.099c-3.054-3.052,0.237-5.146,1.269-7.442c0.527-1.175,2.041-2.086,2.812,0.213
		c0.171,0.508,0.443,0.981,1.022,0.925c1.702-0.177,2.599,0.774,3.3,2.137c0.254,0.489,0.603,1.141,1.338,0.752
		c0.623-0.326,1.096-0.961,0.828-1.646c-0.387-0.988-0.941-2.652-1.521-2.695c-2.217-0.162-2.947-2.803-5.15-2.744
		c-0.521,0.015-1.27-0.531-1.102-0.789c1.844-2.826-3.219-4.026-1.534-6.746c-2.137-2.353-0.555-5.289-1.233-7.871
		c-0.019-0.071,0.074-0.209,0.045-0.235c-4.188-3.82,2.952-3.438,2.273-6.022c-0.073-0.277,0.747-0.607,1.274-0.396
		c0.669,0.271,0.704,0.845,0.608,1.468c-0.15,0.979-0.28,1.965-0.417,2.946c-0.046,0.33-0.245,0.798-0.101,0.968
		c1.184,1.385,3.463,1.909,3.324,4.319c0.605-0.494,2.074,0.387,1.924-1.388c-0.184-2.164,1.224-3.332,3.21-2.776
		c1.098,0.307,1.61,0.297,1.305-1.078c-0.138-0.613,0.06-1.306,0.11-1.961c0.048-0.604-0.15-1.071-0.821-0.791
		c-2.106,0.881-2.304-0.274-2.134-1.903c0.062-0.578-0.237-0.931-0.775-1.117c-0.982-0.342-1.381-0.886-0.675-1.867
		c0.172-0.24,0.353-0.734,0.235-0.885c-2.104-2.687,0.644-3.998,1.719-5.648c0.546-0.84,0.971-1.439,0.621-2.604
		c-1.086,0.479-1.28,2.438-3.178,1.345c-1.602-0.924-2.932-1.545-2.811-3.659c0.049-0.855,0.036-1.574,1.139-1.414
		c1.809,0.262,1.931-0.691,1.676-2.095c-0.082-0.448,0.002-1.265,0.262-1.39c2.291-1.103,3.283-3.403,4.904-5.112
		c0.524-0.554,1.119-0.694,1.801-0.33c0.643,0.343,0.695,0.855,0.432,1.481c-0.223,0.526-0.58,1.327,0.369,1.293
		c1.326-0.05,2.475-0.356,2.664,1.595c0.065,0.676,0.81,0.153,1.162-0.149c0.408-0.353,1.104-0.664,0.496-1.382
		c-0.539-0.633-1.125-1.229-1.668-1.857c-0.541-0.628-1.251-1.279-0.694-2.188c0.497-0.81,1.334-0.42,2.059-0.336
		c0.316,0.037,0.657,0.131,1.101-0.551c-2.119-0.923-4.174-1.879-6.279-2.703c-0.85-0.332-1.865-0.752-1.365-1.642
		c0.883-1.567,0.428-2.535-0.697-3.644c-0.841-0.83-0.533-1.799,0.101-2.724c1.164-1.692,2.245-3.409-0.032-5.137
		c-0.453-0.347-0.662-0.992-0.347-1.599c0.351-0.67,0.945-0.545,1.528-0.377c0.612,0.175,1.291,0.688,1.799-0.075
		c0.401-0.605,0.268-1.341-0.145-1.891c-0.891-1.185-0.93-2.056,0.604-2.708c0.593-0.253,0.971-1.063,0.312-1.379
		c-2.475-1.182-0.441-3.518-1.414-5.131c-0.374-0.621,0.742-1.081,1.568-1.083c0.639-0.001,1.162,0.733,1.997,0.224
		c-1.239-1.525-3.362-3.23,0.489-4.103c0.744-0.168,0.501-0.94,0.524-1.501c0.049-1.17,0.614-2.015,1.821-1.889
		c1.249,0.13,1.059,1.292,1.113,2.18c0.076,1.271-0.129,2.455-1.32,3.195c0.678,0.729,1.357,0.666,1.998,0.52
		c1.299-0.298,2.189-0.018,2.211,1.482c0.011,0.804,0.262,1.316,1.112,1.312c0.692-0.004,1.028-0.584,1.231-1.102
		c0.465-1.176-0.647-0.566-1.016-0.795c-0.385-0.242-0.807-0.619-0.626-0.963c1.377-2.619-0.885-4.117-1.798-6.016
		c-0.42-0.875-1.357-1.738-0.192-2.613c1.104-0.829,2.265-0.631,3.04,0.527c1.238,1.847,1.974,1.855,2.46-0.446
		c0.106-0.504,0.673-0.911,1.028-1.362c0.803-1.02,1.528-1.872-0.731-1.799c-1.222,0.039-2.167-2.382-1.608-3.833
		c1.051-2.73,1.91-5.355,0.602-8.373c-0.537-1.24,0.752-3.088-1.421-4.016c-0.597-0.255,0.274-1.082,0.771-1.518
		c2.373-2.084,2.373-2.094,0.045-4.398c-0.891-0.882-1.755-1.813-0.277-2.829c0.812-0.56,1.773-0.605,2.311,0.514
		c0.301,0.625,0.474,1.39,1.358,0.576c0.481-0.443,0.95-1.097,1.698-0.613c0.748,0.483,0.613,1.285,0.504,2.042
		c-0.078,0.535-0.533,1.294,0.254,1.505c0.881,0.235,1.02-0.669,1.203-1.272c0.486-1.597,1.02-3.194,0.012-4.821
		c-0.426-0.687-0.476-1.471,0.23-2.033c0.686-0.544,1.459-0.434,2.041,0.16c0.782,0.795,1.475,0.454,2.238,0.028
		c0.75-0.418,0.6-0.994,0.18-1.445c-0.635-0.68-0.136-2.437-1.938-2.026c-1.985,0.451-2.343-0.665-1.605-2.092
		c0.881-1.707,1.248-4.064,0.874-5.225c-0.809-2.516-2.064-4.654-0.373-7.234c0.182-0.278-0.535-0.505-0.889-0.709
		c-3.191-1.842-3.921-5.729-1.529-8.89c-1.307-0.235-3.613,0.062-1.631-2.298c0.123-0.146,0.113-0.503,0.033-0.711
		c-0.411-1.068-0.849-2.162,0.742-2.595c1.535-0.418,1.041,1.362,1.728,1.899c0.704-0.604,0.31-1.341,0.521-1.94
		c0.303-0.855,1.062-1.493,1.622-0.748c0.88,1.173,3.143,0.409,3.24,2.59c0.033,0.715,0.906,0.509,1.436,0.168
		c0.489-0.315,0.929-0.733,1.57-0.313c0.488,0.319,0.821,1.682,1.596,0.375c0.4-0.675,0.734-1.453-0.232-2.195
		c-0.689-0.53-0.377-6.726,0.307-7.18c0.514-0.342,1.219-0.396,1.842-0.578c-0.611-2.104-0.334-4.114,0.314-6.231
		c0.497-1.621,0.376-3.828,0.977-5.026c0.875-1.748-0.609-3.292,0.531-4.792c1.035-1.363,1.945-2.873,2.436-4.577
		c0.063-0.219,0.553-0.46,0.835-0.449c2.999,0.121,3.986-2.069,5.068-4.246c0.485-0.976,0.564-1.512-0.707-1.712
		c-1.642-0.258-2.412-1.616-2.694-2.944c-0.299-1.411-0.459-2.76-1.563-3.811c-0.32-0.305-0.371-0.771-0.079-1.139
		c0.359-0.455,0.895-0.507,1.35-0.224c1.181,0.736,2.619,1.13,3.307,2.542c0.26,0.533,0.353,1.49,1.301,1.147
		c0.642-0.232,0.512-0.986,0.541-1.547c0.031-0.607,0.395-1.522-0.67-1.537c-1.712-0.023-2.09-0.739-1.395-2.201
		c0.205-0.432,0.172-0.804-0.201-1.111c-1.586-1.305-1.533-1.917,0.531-2.878c1.145-0.533,0.338-2.444-0.346-3.577
		c-0.463-0.764-1.352-1.278-1.779-2.054c-0.756-1.373-0.551-2.623,1.131-3.178c1.871-0.617,3.563-1.351,3.971-3.594
		c0.208-1.148,1.569-1.071,2.037-1.615c-0.748-0.861-1.517-1.61-2.117-2.477c-0.645-0.928-0.613-1.938,0.369-2.651
		c1.094-0.795,1.574,0.062,2.15,0.852c0.601,0.824,1.041,1.883,2.438,2.105c-2.197-1.919,0.61-4.218-0.734-6.325
		c-0.451-0.707,0.743-1.472,1.723-1.715c0.966-0.24,1.941-0.5,2.85-0.896c1.065-0.466,0.635-1.374,0.452-2.174
		c-0.19-0.839-0.612-1.028-1.456-0.734c-1.516,0.528-1.857-0.085-1.259-1.471c0.163-0.377,0.218-0.801,0.315-1.206
		c0.318-1.334,3.432-4.292-1.52-2.577c-0.703,0.243-0.972-0.494-0.961-1.131c0.016-0.996,0.676-1.75,1.533-1.613
		c1.424,0.229,2.473,0.482,2.129-1.579c-0.09-0.533,0.495-0.748,1.027-0.881c3.162-0.792,4.014-2.146,3.388-5.348
		c-0.175-0.89-0.052-1.676,0.718-2.229c0.774-0.558,1.592-0.416,2.346,0.048c0.873,0.537,0.888,1.313,0.527,2.183
		c-0.223,0.535-0.524,1.388,0.437,1.248c2.428-0.353,4.187,0.64,5.728,2.333c0.454,0.499,1.178,0.633,1.537,0.116
		c0.658-0.948,1.281-2.19,0.419-3.201c-1.226-1.435-2.439-2.623-0.466-4.369c0.441-0.391-0.049-0.904-0.463-1.222
		c-0.462-0.354-0.969-0.659-1.381-1.063c-0.713-0.699-1.586-1.479-1.139-2.566c0.453-1.104,1.448-0.315,2.211-0.302
		c0.526,0.009,0.996-0.064,1.218-0.589c0.028-0.745-0.431-0.552-0.829-0.509c-0.742,0.081-1.079-0.359-1.145-1.015
		c-0.071-0.73,0.381-1.115,1.047-1.107c1.242,0.014,1.545-0.688,1.566-1.753c0.021-0.984,0.252-1.992,1.55-1.67
		c1.083,0.268,2.026,0.931,1.897,2.27c-0.061,0.631-0.346,1.24-0.559,1.958c2.443-1.195,2.237-1.176,1.607-3.558
		c-0.594-2.238-0.027-4.608,0.311-6.874c0.184-1.239,1.248-0.941,2.186-0.455c1.285,0.667,2.018,2.294,3.85,2.209
		c0.201-1-0.516-1.914-0.988-2.11c-1.58-0.657-1.726-1.758-1.876-3.237c-0.113-1.11-1.116-2.442-0.126-3.241
		c1.078-0.871,2.628-1.206,4.019-1.62c0.656-0.194,1.239,0.337,1.757,0.788c0.525,0.459,0.857,1.231,2.18,1.25
		c-1.527-1.749-0.152-4.375-2.754-5.521c-0.865-0.382-0.721-1.688,0-2.427c1.059-1.085,2.279-2.909,2.242-3.669
		c-0.143-2.986,0.895-4.96,3.295-6.459c0.068-0.043,0.03-0.321-0.017-0.472c-0.241-0.778-1.476-1.534-0.286-2.351
		c0.886-0.608,1.732,0.071,2.499,0.597c0.96,0.66,1.94,1.741,1.294,2.669c-1.416,2.031,0.094,3.125,1.07,4.268
		c1.096,1.283,1.522,2.322,0.728,4.004c-0.536,1.134-1.536,2.941-0.095,3.834c1.27,0.787,2.092-1.093,2.838-1.881
		c0.845-0.893,3.015-1.712,1.267-3.735c-0.457-0.527,0.154-1.616,0.756-1.516c1.25,0.208,2.601,0.62,3.58,1.375
		c0.726,0.557,0.271,1.699-0.281,2.509c-0.484,0.714-1.605,1.27-1.004,2.321c0.619,1.079,1.906,0.85,2.938,1.021
		c0.461,0.075,0.979-0.25,1.459-0.216c0.74,0.053,1.166,0.623,1.396,1.272c0.217,0.611-0.157,0.829-0.721,1.02
		c-1.262,0.427-2.871,1.679-2.635,2.428c0.45,1.434,1.498,2.955,3.021,3.729c2.647,1.349,3.604,3.971,2.493,6.889
		c-0.275,0.729-0.864,2.078,0.97,1.557c1.371-0.39,1.388,0.211,1.582,1.344c0.377,2.172,0.797,4.155-0.771,6.147
		c-0.596,0.76,0.207,2.072,0.946,2.575c0.737,0.5,1.192-0.588,1.688-1.103c0.402-0.419,0.77-0.881,1.209-1.256
		c0.701-0.596,1.527-0.771,2.289-0.184c0.785,0.606,0.338,1.354,0.024,2.033c-0.723,1.564-1.896,2.718-1.639,4.944
		c0.151,1.323-2.134,3.083-2.886,4.957c-0.575,1.431-1.832,3.334-0.439,4.165c1.184,0.705,2.376-1.313,3.26-2.495
		c0.295-0.396,0.451-0.892,0.717-1.314c0.561-0.897,1.342-1.317,2.307-0.688c0.816,0.532,1.457,1.381,0.771,2.308
		c-0.748,1.013-0.351,1.5,0.336,2.299c1.42,1.657,0.996,3.406-1.068,4.431c-1.168,0.581-1.85,1.113-1.032,2.436
		c0.438,0.714,0.245,1.499-0.009,2.182c-0.996,2.672-0.164,5.75-2.102,8.276C268.197,105.378,269.471,106.22,270.777,106.979z
		 M364.976,434.271c-1.443-1.563-2.903-3.116-4.327-4.703c-0.57-0.635-0.92-1.97-2.021-1.209c-1.203,0.825-2.181,2.157-2.141,3.664
		c0.029,1.173,1.287,1.401,2.32,1.362C360.878,433.313,362.9,433.389,364.976,434.271z M165.631,254.395
		c0.912,0.746,2.436,1.117,2.257,2.438c-0.342,2.532,2.528,2.866,3.025,4.794c0.116,0.449,0.812,0.303,0.902-0.185
		c0.343-1.854,0.327-4.017-0.935-5.198C169.65,255.09,168.275,252.779,165.631,254.395z"/>
</g>
<g>
	<g>
		<defs>
			<rect id="SVGID_3_" x="240.016" y="-38.5" width="356" height="587"/>
		</defs>
		<clipPath id="SVGID_4_">
			<use xlink:href="#SVGID_3_"  overflow="visible"/>
		</clipPath>
		<path clip-path="url(#SVGID_4_)" fill="#FFFFFF" d="M215.501,105.49c-0.365-2.117-0.981-2.367-2.777-1.129
			c-1.858,1.279-3.715,0.842-4.59-1.268c-0.498-1.201-1.002-1.999-2.342-1.262c-1.401,0.773-1.607,2.037-0.511,3.092
			c1.076,1.034,0.832,1.608,0.043,2.671c-1.563,2.102,0.381,3.857,0.98,5.697c0.291,0.893,1.139,1.622,1.785,2.379
			c1.943,2.272,1.881,5.105-0.309,7.216c-0.975,0.941-0.643,1.78-0.119,2.676c1.156,1.972,1.984,4.037,1.883,6.372
			c-0.068,1.536,1.277,2.359,1.646,3.765c-1.33-1.165-2.674-2.314-3.98-3.505c-0.482-0.441-0.598-1.131-0.195-1.599
			c1.564-1.815,0.115-3.208-0.785-4.408c-1.076-1.434-2.582-2.516-3.716-3.986c-0.864-1.121-1.553-0.098-1.854,0.863
			c-0.236,0.758,0.377,1.394,0.525,2.141c-1.135,0.177-1.027-0.726-1.287-1.234c-0.346-0.679-0.857-1.026-1.604-0.91
			c-0.764,0.118-1.141,0.644-1.209,1.384c-0.075,0.771,0.268,1.338,1.027,1.479c1.598,0.296,1.92,1.31,1.801,2.929
			c-1.262-0.28-2.152-2.538-3.34-0.864c-1.051,1.487-1.459,3.294-0.271,5.125c1.041,1.604,2.119,3.108,4.521,3.967
			c-3.725,0.982-2.723,3.071-2.107,5.191c1.162,4.007-0.443,7.659-1.963,11.18c-0.574,1.332-1.955,0.159-2.24-0.623
			c-0.736-2.013-2.035-3.6-3.277-5.262c-0.475-0.632-0.607-1.764-1.76-1.194c-1.045,0.518-1.878,1.573-1.361,2.642
			c0.817,1.694,0.281,2.569-0.92,3.81c-1.205,1.246-1.021,3.173,0.365,4.25c2.006,1.558,2.064,3.783,2.686,5.856
			c0.221,0.734-0.156,0.887-0.721,0.916c-1.787,0.092-2.846-0.825-3.137-2.52c-0.154-0.907,0.021-2.019-1.17-2.163
			c-1.028-0.124-1.338,0.878-1.549,1.673c-0.35,1.31-1.027,1.254-2.031,0.717c-0.689-0.367-1.493-0.386-2.098,0.212
			c-0.678,0.67-0.229,1.379,0.078,2.065c1.451,3.246,1.352,6.855,1.771,10.239c0.187,1.503-0.286,3.432,0.046,5.265
			c0.329,1.819-1.412,2.712-2.482,3.796c-0.48,0.484-0.771-0.333-1.006-0.727c-0.438-0.734-1.039-1.079-1.882-0.813
			c-0.86,0.272-0.896,1.042-1.126,1.771c-0.355,1.119,1.121,2.735-0.514,3.312c-1.535,0.542-1.868-1.368-2.693-2.179
			c-1.695-1.665-2.615-3.752-2.383-6.215c0.053-0.558-0.152-1.231-0.65-1.141c-1.262,0.229-1.953,1.499-3.207,1.97
			c-0.748,0.281-0.498,1.474-0.092,2.262c0.338,0.661,0.719,1.302,1.065,1.961c0.821,1.565,0.884,2.565-0.968,3.836
			c-1.914,1.316-2.551,3.94-3.312,6.187c-0.291,0.861,0.668,1.4,1.206,2.033c1.021,1.202,1.428,3.434,2.439,3.896
			c2.347,1.072,2.474,3.712,4.371,4.892c0.733,0.455,1.33,0.98,1.065,1.964c-0.834,0.242-1.078-0.409-1.442-0.799
			c-0.407-0.433-0.814-0.994-1.439-0.83c-1.796,0.472-2.805,2.027-3.973,3.266c-0.848,0.901,0.115,1.873,0.635,2.685
			c0.443,0.694,1.036,1.291,1.557,1.937c0.754,0.934,1.11,1.804-0.017,2.801c-1.454,1.285-1.027,2.376,0.651,2.945
			c1.571,0.532,2.252,1.285,1.414,2.935c-0.222,0.441-0.109,1.211,0.348,1.342c2.021,0.582,2.604,2.006,2.671,3.903
			c0.024,0.637,0.637,0.888,1.224,1.09c2.094,0.719,2.549,2.323,2.36,4.846c-1.06-1.485-2.403-1.587-3.479-2.125
			c-1.594-0.796-2.563-2.631-3.225-4.3c-0.598-1.502-1.264-2.054-2.764-1.45c-0.153,0.063-0.317,0.103-0.479,0.14
			c-4.229,0.999-4.23,0.999-2.521,4.895c0.27,0.61,0.662,1.246,0.295,1.899c-0.721,1.285-0.379,2.318,0.434,3.443
			c0.592,0.823,1.002,1.995-0.602,2.235c-0.877,0.132-1.725,0.04-1.817,1.177c-0.112,1.355,0.001,2.723,1.024,3.73
			c0.906,0.889,1.658,0.033,2.424-0.422c0.102-0.061,0.299,0.039,0.674,0.1c-0.583,1.6-1.99,3.197-0.327,5.005
			c-2.306-0.759-2.542-3.248-4.062-4.598c-0.602-0.535-0.641-2.04-1.873-1.257c-1.077,0.684-0.619,1.604-0.182,2.773
			c1.461,3.906,3.637,7.303,6.274,10.469c0.415,0.5,0.884,1.125,0.31,1.795c-0.873,1.021-0.996-0.313-1.476-0.521
			c-2.281-0.982-3.921-2.514-5.122-4.798c-0.795-1.513-3.373-1.443-4.079-3.437c-0.028-0.074-0.999-0.029-1.098,0.174
			c-0.506,1.032-0.937,1.328-1.743,0.242c-0.288-0.39-0.899-0.525-1.35-0.13c-0.492,0.435-0.181,0.896,0.081,1.334
			c0.306,0.511,1.109,1.302-0.003,1.5c-2.91,0.522-1.167,2.05-0.664,3.048c1.471,2.913,2.582,5.762,2.136,9.211
			c-0.466,3.586-0.112,4.854,3.097,5.707c-0.092,0.859-0.807,0.659-1.321,0.756c-2.799,0.518-3.354,1.664-2.032,4.141
			c0.33,0.621,1.151,1.172,0.613,1.998c-0.555,0.855-1.333,0.328-2.031,0.146c-0.598-0.158-1.225-0.199-1.555,0.411
			c-0.483,0.899-0.157,1.731,0.281,2.599c0.329,0.65,1.788,0.867,0.965,1.934c-0.666,0.861-1.582,1.282-2.844,1.162
			c-1.701-0.162-3.396,0.064-1.471,2.344c0.475,0.561-0.055,0.906-0.242,1.328c-0.888,1.994-2.368,3.991,0.354,5.75
			c-1.043,0.795-1.357,0.21-1.656-0.273c-0.348-0.564-0.591-1.32-1.435-1.111c-0.878,0.215-1.589,0.957-1.521,1.773
			c0.115,1.399-0.689,2.082-1.512,2.926c-1.094,1.125-1.502,2.358-0.223,3.729c1.039,1.112,2.343,2.158,0.766,3.959
			c-0.574,0.654,0.355,1.477,0.9,2.119c0.93,1.093,1.976,0.976,3.33,0.271c-1.506,1.896-1.84,3.291,0.793,4.156
			c1.186,0.389,1.141,1.617,0.489,2.533c-1.696,2.386-0.983,3.963,1.625,4.928c-0.2,0.242-0.368,0.471-0.386,0.46
			c-3.844-2.498-5.136,1.146-6.966,3.063c-0.835,0.876-1.05,0.88-1.49-0.061c-0.655-1.401-1.149-0.643-1.745,0.061
			c-2.479,2.937-3.932,3.045-6.247-0.025c-3.614-4.795-4.925-10.452-5.434-16.325c-0.055-0.625,0.417-1.399-0.466-1.714
			c-0.767-0.271-1.156,0.373-1.635,0.854c-2.23,2.227-4.785,2.51-7.087,0.401c-2.362-2.164-5.134-4.063-6.188-7.369
			c-0.171-0.535-0.408-1.197-1.137-1.139c-0.734,0.061-0.696,0.833-0.979,1.311c-3.319,5.602-6.743,11.117-12.332,14.834
			c-1.323,0.88-2.675,1.728-4.213,2.146c-3.64,0.991-5.842-0.059-7.483-3.542c-0.4-0.85-0.729-1.978-1.873-1.416
			c-1.241,0.608-0.361,1.576,0.07,2.32c1.066,1.842,2.333,3.639-0.414,5.211c-0.289,0.166-0.38,0.928-0.338,1.394
			c0.332,3.707-0.682,7.274-1.107,10.899c-0.085,0.724-0.31,1.496-0.692,2.103c-0.927,1.473-2.263,1.364-3.06-0.181
			c-0.152-0.292-0.199-0.635-0.312-0.948c-0.337-0.945-0.681-2.232-1.935-1.759c-1.43,0.54-0.514,1.621-0.087,2.488
			c0.292,0.596,0.567,1.205,0.823,1.819c0.371,0.891,1.512,1.746,0.9,2.696c-0.784,1.22-1.688-0.686-2.965-0.089
			c0.928,2.382,1.81,4.848,2.186,7.445c0.174,1.195,0.262,2.345-0.64,3.292c-0.729,0.767-1.343,1.888-2.581,1.729
			c-1.245-0.157-1.6-1.307-1.979-2.339c-0.241-0.656-0.28-1.76-1.315-1.411c-0.987,0.334-0.457,1.315-0.255,1.964
			c0.468,1.51,1.101,2.967,1.589,4.471c0.29,0.891,0.15,1.574-1.062,1.123c-0.423-0.16-0.811-0.846-1.273-0.312
			c-0.509,0.588-0.059,1.241,0.162,1.867c2.134,6.067,3.207,12.344,3.525,18.751c0.032,0.656-0.07,1.343-0.256,1.975
			c-0.464,1.59-1.285,2.097-2.669,0.784c-0.563-0.534-1.221-1.602-2.027-0.914c-0.947,0.808,0.172,1.63,0.565,2.38
			c0.229,0.434,0.614,0.782,0.936,1.166c0.416,0.492,1.226,0.895,0.979,1.609c-0.341,0.988-1.244,0.498-1.944,0.416
			c-0.413-0.049-0.875-0.191-1.062,0.318c-0.164,0.453,0.153,0.841,0.489,1.057c4.726,3.048,4.659,8.365,6.131,12.943
			c0.405,1.254,0.343,2.643-0.782,3.434c-1.229,0.867-2.123-0.311-3.033-0.997c-0.643-0.481-1.371-1.415-2.137-0.694
			c-0.824,0.77,0.245,1.488,0.65,2.12c0.396,0.614,1.018,1.088,1.55,1.613c0.613,0.603,1.796,1.101,0.812,2.159
			c-0.87,0.937-1.573,0.162-2.294-0.5c-1.91-1.757-3.868-3.317-6.743-3.322c-6.155-0.006-9.876,2.859-11.047,8.941
			c-0.273,1.434-0.616,2.389-2.241,2.826c-1.839,0.49-1.498,2.047-0.799,3.256c0.962,1.662,1.696,3.379,2.388,5.172
			c1.425,3.701,6.26,5.472,9.859,3.883c1.453-0.639,2.947,0.74,3.377,2.305c0.822,2.992,3.132,5.041,5.979,5.82
			c2.686,0.738,3.369,2.159,3.375,4.638c0.012,3.69,1.624,6.642,4.928,8.396c3.529,1.875,7.164,1.813,10.365-0.635
			c1.889-1.445,3.181-1.311,5.004,0.053c4.87,3.64,10.396,6.299,15.263,9.967c1.264,0.955,2.532,1.872,3.608,3.063
			c1.176,1.302,2.582,2.228,4.355,2.752c3.148,0.926,5.257,3.789,8.402,4.82c0.467,0.155,0.872,0.491,1.33,0.688
			c0.896,0.384,1.961,1.146,2.721,0.135c0.668-0.892-0.585-1.592-0.799-2.419c-1.499-5.79-6.629-8.028-10.856-11.114
			c-1.896-1.384-2.614-3.286-2.721-5.368c-0.106-2.111,1.744-2.807,3.391-2.966c5.069-0.493,10.119-0.326,14.976,1.48
			c1.388,0.516,2.861,0.729,4.14,0.104c1.703-0.832,3.225-0.433,4.827,0.065c1.619,0.504,3.22,1.558,4.932,0.222
			c0.105-0.082,0.357-0.093,0.473-0.023c3.163,1.905,6.426,2.016,9.795,0.605c0.201-0.084,0.533-0.037,0.729,0.078
			c4.348,2.527,8.883,0.494,13.326,0.558c2.993,0.044,6.034,0.153,8.683,1.601c1.237,0.674,1.616-0.453,2.426-0.438
			c2.497,0.047,4.994,0.1,7.487,0.195c0.839,0.031,1.314,0.553,1.572,1.367c0.655,2.067,1.594,1.844,2.683,0.29
			c0.223-0.323,0.774-0.836,0.817-0.804c2.123,1.648,3.198-0.23,4.791-1.113c2.045-1.137,4.348-0.078,5.459,1.652
			c1.267,1.973,1.969,1.185,2.967,0.119c0.892-0.953,1.654-2.396,2.979-0.468c0.044,0.065,0.158,0.152,0.201,0.132
			c2.493-1.062,4.812,0.941,7.198,0.463c1.89-0.377,3.666-0.521,5.606-0.286c1.882,0.231,3.943,0.313,5.755-0.022
			c1.963-0.363,3.408-0.152,4.805,1.096c0.931,0.83,1.817,0.34,2.853,0.298c2.199-0.089,4.17-1.022,6.33-1.261
			c4.202-0.464,8.5,0.544,12.567-0.776c2.313-0.751,3.824-0.183,5.07,1.789c1.188,1.878,2.2,1.962,3.631,0.188
			c1.404-1.742,2.942-2.521,5.312-2.443c4.045,0.134,8.13,0.572,12.114,0.396c5.406-0.239,10.755,0.83,16.169,0.115
			c3.413-0.448,6.926-0.16,10.393-0.157c1.015,0,1.578,0.842,2.251,1.452c0.713,0.645,1.666,1.321,2.393,0.468
			c0.901-1.061-0.657-0.938-1.012-1.424c-0.744-1.018-0.021-1.443,0.776-1.495c1.573-0.104,3.209-0.26,4.724,0.062
			c1.596,0.34,3.076,0.013,4.604,0.008c6.098-0.016,11.99-2.136,18.053-1.794c5.012,0.284,9.811-1.396,14.793-1.067
			c1.085,0.073,2.141-0.033,3.137,0.52c0.752,0.418,1.577,0.627,2.394,0.21c0.959-0.488,2.171-0.942,2.332-2.081
			c0.178-1.246-1.298-0.525-1.862-1.12c-1.39-1.458-3.458-1.554-5.181-2.36c-0.224-0.107-0.587-0.306-0.69-0.222
			c-2.542,2.071-4.455-0.737-6.708-0.842c-0.802-0.037-1.625-0.545-2.385,0.14c-0.362,0.324-0.726,0.818-1.242,0.279
			c-0.429-0.445-0.212-0.926,0.127-1.339c0.662-0.806,1.388-1.759,0.275-2.564c-1.019-0.737-1.876-0.086-2.382,0.964
			c-0.332,0.686-0.778,0.498-1.193,0.124c-0.652-0.59-0.238-1.056,0.27-1.406c2.019-1.393,4.246-1.806,6.6-1.149
			c0.881,0.247,1.79,0.912,2.47-0.07c0.667-0.966-0.22-1.701-0.763-2.408c-0.807-1.048-1.656-2.063-2.777-3.451
			c3.414,1.052,4.467-0.965,5.408-3.32c0.664-1.656,0.521-2.6-1.498-2.586c-0.539,0.004-1.297,0.396-1.443-0.461
			c-0.117-0.68,0.582-0.93,1.094-1.19c0.849-0.435,1.81-0.612,2.677-0.345c1.765,0.543,3.028-0.195,4.319-1.23
			c1.131-0.906,2.447-1.504,1.028-3.323c-0.776-0.997-2.331-1.706-3.532-1.943c-1.446-0.288-3.021,1.433-3.965,0.104
			c-0.832-1.174,1.213-1.949,1.479-3.184c0.206-0.962,0.741-1.846,1.028-2.793c0.381-1.26,1.567-2.715-0.405-3.655
			c-1.72-0.823-3.503-1.792-5.106,0.363c-0.637,0.858-1.453,1.626-2.314,2.267c-0.913,0.681-2.192,0.534-2.672-0.324
			c-0.598-1.065,0.75-1.179,1.408-1.562c1.442-0.84,3.461-0.977,3.768-3.205c0.041-0.301,0.636-0.808,0.881-0.756
			c4.359,0.881,3.261-4.246,5.865-5.336c0.504-0.211,0.145-1.17-0.357-1.492c-2.333-1.5-0.658-2.619,0.521-3.221
			c2.211-1.125,1.81-3.396,2.599-5.106c0.435-0.938-0.588-1.604-1.578-1.829c-1.146-0.26-1.757-0.866-1.519-2.129
			c0.135-0.715-0.158-1.239-0.75-1.713c-2.062-1.654-3.979-3.311-2.432-6.456c0.559-1.136-1.283-1.554-1.597-2.57
			c2.601-1.126,3.271-3.157,1.992-5.733c-0.315-0.635-0.679-1.168-1.458-1.166c-0.904,0.004-1.395,0.58-1.512,1.386
			c-0.234,1.619-1.181,2.709-2.448,3.604c-0.347,0.245-0.712,0.568-1.078,0.142c-0.343-0.394-0.103-0.827,0.248-1.063
			c1.103-0.748,1.039-1.604,0.707-2.812c-0.478-1.731,1.675-6.043,3.456-6.771c1.425-0.58,1.596-1.307,1.031-2.453
			c-1.101-2.233,0.322-3.52,1.773-4.73c0.539-0.449,1.395-1.002,0.76-1.48c-2.299-1.736-1.076-4.065-1.312-6.14
			c-0.08-0.705,0.403-1.584-0.461-2.044c-0.935-0.497-1.316,0.318-1.757,0.916c-0.211,0.287-0.506,0.498-0.84,0.268
			c-0.428-0.294-0.398-0.805-0.104-1.098c3.053-3.051-0.238-5.145-1.269-7.441c-0.527-1.177-2.041-2.089-2.813,0.213
			c-0.17,0.506-0.443,0.982-1.021,0.924c-1.703-0.176-2.6,0.775-3.301,2.136c-0.254,0.489-0.603,1.14-1.338,0.753
			c-0.623-0.328-1.096-0.96-0.828-1.648c0.387-0.987,0.941-2.651,1.521-2.694c2.216-0.161,2.947-2.804,5.15-2.743
			c0.521,0.014,1.27-0.532,1.102-0.789c-1.844-2.826,3.219-4.027,1.533-6.746c2.137-2.352,0.555-5.289,1.233-7.872
			c0.019-0.069-0.073-0.208-0.045-0.233c4.188-3.822-2.952-3.438-2.272-6.023c0.074-0.28-0.748-0.609-1.274-0.395
			c-0.669,0.271-0.704,0.844-0.608,1.467c0.15,0.979,0.28,1.965,0.418,2.947c0.045,0.327,0.246,0.797,0.101,0.967
			c-1.183,1.383-3.463,1.91-3.324,4.318c-0.606-0.492-2.073,0.385-1.924-1.387c0.185-2.164-1.224-3.333-3.21-2.777
			c-1.098,0.307-1.611,0.297-1.305-1.076c0.138-0.615-0.06-1.307-0.11-1.961c-0.048-0.605,0.149-1.072,0.821-0.793
			c2.106,0.881,2.304-0.273,2.134-1.902c-0.062-0.579,0.237-0.93,0.774-1.117c0.983-0.342,1.381-0.887,0.676-1.869
			c-0.172-0.24-0.353-0.734-0.235-0.883c2.103-2.686-0.644-3.999-1.719-5.65c-0.546-0.84-0.972-1.439-0.621-2.604
			c1.086,0.48,1.28,2.439,3.178,1.344c1.603-0.924,2.933-1.545,2.812-3.66c-0.049-0.854-0.037-1.574-1.14-1.414
			c-1.809,0.262-1.931-0.691-1.676-2.093c0.082-0.452-0.002-1.265-0.263-1.39c-2.29-1.102-3.282-3.404-4.903-5.113
			c-0.524-0.553-1.119-0.693-1.801-0.33c-0.644,0.34-0.696,0.855-0.433,1.482c0.224,0.525,0.58,1.326-0.369,1.293
			c-1.325-0.049-2.475-0.356-2.664,1.594c-0.064,0.676-0.809,0.154-1.161-0.15c-0.408-0.352-1.105-0.662-0.496-1.38
			c0.539-0.632,1.125-1.227,1.668-1.858c0.541-0.629,1.251-1.28,0.694-2.188c-0.498-0.809-1.334-0.419-2.06-0.336
			c-0.317,0.037-0.657,0.132-1.101-0.551c2.119-0.922,4.174-1.879,6.279-2.702c0.849-0.333,1.864-0.752,1.364-1.642
			c-0.883-1.57-0.428-2.538,0.697-3.646c0.84-0.829,0.532-1.798-0.101-2.723c-1.164-1.695-2.246-3.408,0.031-5.138
			c0.453-0.345,0.662-0.992,0.348-1.597c-0.351-0.671-0.945-0.545-1.528-0.378c-0.612,0.174-1.291,0.69-1.8-0.076
			c-0.4-0.605-0.266-1.34,0.146-1.889c0.89-1.184,0.929-2.055-0.604-2.708c-0.592-0.253-0.969-1.065-0.312-1.38
			c2.476-1.18,0.441-3.516,1.414-5.131c0.374-0.619-0.741-1.08-1.567-1.082c-0.64-0.002-1.162,0.734-1.998,0.224
			c1.24-1.524,3.363-3.231-0.488-4.103c-0.744-0.168-0.501-0.94-0.523-1.502c-0.05-1.17-0.615-2.014-1.822-1.889
			c-1.248,0.131-1.058,1.291-1.112,2.18c-0.076,1.271,0.129,2.455,1.319,3.196c-0.678,0.729-1.356,0.666-1.998,0.52
			c-1.299-0.298-2.189-0.019-2.211,1.483c-0.01,0.803-0.261,1.317-1.111,1.312c-0.692-0.004-1.028-0.584-1.23-1.101
			c-0.465-1.178,0.647-0.567,1.016-0.797c0.385-0.24,0.807-0.617,0.625-0.962c-1.377-2.618,0.886-4.116,1.799-6.016
			c0.42-0.875,1.357-1.738,0.191-2.613c-1.104-0.829-2.265-0.631-3.039,0.527c-1.238,1.847-1.975,1.854-2.461-0.446
			c-0.105-0.504-0.672-0.911-1.027-1.361c-0.803-1.02-1.529-1.871,0.73-1.8c1.221,0.039,2.168-2.383,1.608-3.833
			c-1.052-2.731-1.911-5.356-0.603-8.373c0.537-1.24-0.752-3.088,1.422-4.016c0.596-0.256-0.275-1.082-0.771-1.518
			c-2.373-2.085-2.373-2.094-0.045-4.398c0.891-0.882,1.755-1.813,0.277-2.829c-0.813-0.56-1.774-0.606-2.312,0.514
			c-0.3,0.625-0.473,1.39-1.358,0.576c-0.48-0.444-0.949-1.097-1.697-0.613c-0.748,0.482-0.613,1.285-0.504,2.042
			c0.078,0.535,0.533,1.295-0.254,1.505c-0.881,0.235-1.02-0.669-1.203-1.272c-0.487-1.597-1.02-3.194-0.012-4.821
			c0.426-0.687,0.476-1.471-0.23-2.033c-0.686-0.544-1.459-0.433-2.041,0.16c-0.782,0.795-1.475,0.453-2.238,0.028
			c-0.75-0.418-0.6-0.994-0.18-1.445c0.634-0.68,0.135-2.435,1.938-2.026c1.985,0.451,2.342-0.664,1.605-2.092
			c-0.881-1.707-1.248-4.064-0.874-5.225c0.81-2.515,2.063-4.654,0.373-7.234c-0.181-0.278,0.535-0.505,0.89-0.709
			c3.19-1.842,3.92-5.729,1.528-8.89c1.308-0.235,3.613,0.062,1.631-2.298c-0.123-0.148-0.112-0.503-0.032-0.711
			c0.41-1.068,0.849-2.162-0.742-2.595c-1.537-0.418-1.041,1.362-1.729,1.899c-0.704-0.604-0.309-1.341-0.521-1.94
			c-0.303-0.856-1.062-1.494-1.621-0.748c-0.881,1.173-3.143,0.408-3.24,2.59c-0.034,0.715-0.907,0.509-1.436,0.168
			c-0.49-0.315-0.929-0.733-1.57-0.314c-0.489,0.32-0.822,1.683-1.596,0.375c-0.401-0.675-0.735-1.453,0.231-2.195
			c0.688-0.53,0.377-6.725-0.308-7.18c-0.514-0.342-1.219-0.396-1.842-0.578c0.612-2.104,0.334-4.113-0.313-6.231
			c-0.498-1.621-0.376-3.828-0.978-5.026c-0.875-1.749,0.61-3.292-0.531-4.792c-1.035-1.363-1.945-2.873-2.436-4.577
			c-0.064-0.219-0.553-0.46-0.835-0.449c-2.999,0.12-3.985-2.069-5.067-4.246c-0.485-0.976-0.564-1.512,0.707-1.712
			c1.641-0.258,2.412-1.616,2.693-2.944c0.299-1.411,0.459-2.76,1.563-3.811c0.32-0.305,0.371-0.771,0.08-1.139
			c-0.36-0.455-0.896-0.507-1.351-0.224c-1.181,0.736-2.618,1.13-3.307,2.542c-0.261,0.533-0.353,1.49-1.302,1.147
			c-0.642-0.233-0.512-0.986-0.541-1.547c-0.03-0.608-0.394-1.521,0.67-1.537c1.713-0.023,2.091-0.739,1.396-2.201
			c-0.205-0.432-0.172-0.804,0.201-1.111c1.586-1.305,1.533-1.916-0.531-2.878c-1.144-0.533-0.338-2.444,0.347-3.577
			c0.463-0.764,1.351-1.279,1.778-2.054c0.757-1.373,0.552-2.623-1.131-3.178c-1.871-0.617-3.563-1.35-3.971-3.594
			c-0.208-1.149-1.569-1.071-2.037-1.615c0.748-0.861,1.517-1.61,2.117-2.476c0.645-0.927,0.612-1.937-0.369-2.651
			c-1.093-0.794-1.574,0.063-2.149,0.852c-0.602,0.824-1.043,1.882-2.438,2.104c2.196-1.919-0.611-4.218,0.733-6.325
			c0.451-0.707-0.744-1.472-1.723-1.715c-0.966-0.24-1.941-0.5-2.85-0.896c-1.065-0.466-0.635-1.374-0.452-2.174
			c0.19-0.838,0.612-1.028,1.456-0.734c1.516,0.528,1.857-0.086,1.259-1.471c-0.163-0.377-0.217-0.802-0.315-1.206
			c-0.317-1.334-3.431-4.292,1.521-2.577c0.703,0.243,0.972-0.494,0.961-1.131c-0.015-0.996-0.677-1.75-1.533-1.613
			c-1.424,0.227-2.473,0.482-2.129-1.579c0.09-0.532-0.495-0.747-1.026-0.881c-3.162-0.793-4.015-2.147-3.389-5.348
			c0.176-0.89,0.053-1.675-0.718-2.229c-0.775-0.558-1.593-0.416-2.347,0.048c-0.873,0.537-0.887,1.313-0.526,2.183
			c0.222,0.535,0.524,1.388-0.437,1.248c-2.429-0.354-4.188,0.639-5.729,2.333c-0.454,0.499-1.178,0.634-1.537,0.116
			c-0.658-0.949-1.281-2.191-0.419-3.201c1.226-1.435,2.44-2.623,0.466-4.369c-0.441-0.391,0.049-0.905,0.463-1.222
			c0.463-0.354,0.969-0.659,1.381-1.063c0.713-0.699,1.586-1.479,1.14-2.566c-0.453-1.104-1.448-0.315-2.212-0.302
			c-0.526,0.009-0.995-0.065-1.217-0.589c-0.028-0.744,0.431-0.552,0.828-0.509c0.743,0.081,1.08-0.359,1.146-1.015
			c0.071-0.731-0.382-1.115-1.047-1.107c-1.242,0.015-1.546-0.688-1.566-1.753c-0.021-0.984-0.252-1.992-1.55-1.67
			c-1.083,0.268-2.025,0.931-1.896,2.27c0.061,0.631,0.346,1.24,0.559,1.958c-2.443-1.196-2.237-1.177-1.607-3.558
			c0.594-2.238,0.027-4.608-0.311-6.874c-0.184-1.24-1.248-0.941-2.186-0.455c-1.287,0.666-2.019,2.293-3.851,2.209
			c-0.201-0.999,0.515-1.914,0.987-2.11c1.58-0.657,1.727-1.758,1.877-3.237c0.113-1.11,1.115-2.443,0.125-3.241
			c-1.078-0.871-2.627-1.206-4.019-1.62c-0.655-0.194-1.239,0.337-1.757,0.788c-0.525,0.458-0.857,1.231-2.18,1.25
			c1.527-1.749,0.152-4.375,2.754-5.521c0.865-0.382,0.721-1.688,0-2.427c-1.059-1.085-2.279-2.909-2.242-3.669
			c0.143-2.986-0.895-4.96-3.295-6.459c-0.068-0.043-0.03-0.322,0.018-0.472c0.24-0.778,1.475-1.534,0.285-2.351
			c-0.886-0.609-1.732,0.071-2.498,0.597c-0.961,0.66-1.941,1.741-1.295,2.669c1.416,2.031-0.093,3.125-1.07,4.268
			c-1.096,1.282-1.522,2.321-0.728,4.004c0.536,1.133,1.536,2.941,0.095,3.834c-1.27,0.787-2.092-1.093-2.838-1.881
			c-0.844-0.893-3.014-1.712-1.265-3.735c0.456-0.527-0.155-1.616-0.757-1.516c-1.25,0.208-2.6,0.62-3.58,1.375
			c-0.725,0.557-0.27,1.699,0.281,2.509c0.484,0.715,1.607,1.27,1.004,2.321c-0.62,1.08-1.907,0.85-2.938,1.02
			c-0.461,0.075-0.979-0.25-1.459-0.216c-0.739,0.053-1.167,0.623-1.396,1.272c-0.217,0.612,0.158,0.83,0.721,1.02
			c1.262,0.427,2.871,1.678,2.635,2.428c-0.451,1.434-1.499,2.955-3.021,3.729c-2.647,1.349-3.604,3.972-2.493,6.889
			c0.276,0.73,0.864,2.078-0.97,1.557c-1.371-0.39-1.388,0.211-1.582,1.344c-0.375,2.172-0.793,4.155,0.771,6.147
			c0.597,0.76-0.207,2.073-0.944,2.575c-0.738,0.5-1.193-0.589-1.688-1.103c-0.403-0.419-0.771-0.881-1.21-1.256
			c-0.701-0.596-1.528-0.771-2.289-0.184c-0.785,0.606-0.337,1.354-0.025,2.033c0.723,1.565,1.898,2.718,1.639,4.944
			c-0.15,1.324,2.135,3.083,2.887,4.957c0.574,1.432,1.832,3.335,0.439,4.165c-1.184,0.705-2.377-1.313-3.26-2.495
			c-0.295-0.396-0.451-0.893-0.717-1.314c-0.561-0.897-1.341-1.318-2.307-0.688c-0.816,0.533-1.457,1.382-0.771,2.308
			c0.747,1.013,0.35,1.5-0.336,2.299c-1.42,1.658-0.996,3.406,1.068,4.431c1.168,0.581,1.847,1.113,1.033,2.436
			c-0.439,0.715-0.246,1.499,0.008,2.182c0.996,2.672,0.164,5.751,2.101,8.276c0.8,1.042-0.473,1.885-1.78,2.644
			C215.621,106.299,215.553,105.905,215.501,105.49z"/>
	</g>
	<path display="none" fill="#87BB65" d="M217.504,104.35c-1.938-2.526-1.105-5.604-2.102-8.276
		c-0.254-0.683-0.447-1.468-0.009-2.182c0.817-1.323,0.136-1.855-1.032-2.436c-2.064-1.025-2.488-2.774-1.068-4.431
		c0.687-0.799,1.084-1.286,0.336-2.299c-0.686-0.927-0.045-1.776,0.771-2.308c0.965-0.629,1.746-0.209,2.307,0.688
		c0.266,0.422,0.422,0.918,0.717,1.314c0.884,1.182,2.076,3.2,3.26,2.495c1.393-0.831,0.136-2.734-0.439-4.165
		c-0.752-1.874-3.037-3.634-2.886-4.957c0.257-2.226-0.916-3.38-1.639-4.944c-0.313-0.679-0.761-1.427,0.024-2.033
		c0.762-0.587,1.588-0.412,2.289,0.184c0.439,0.375,0.807,0.837,1.209,1.256c0.496,0.515,0.951,1.603,1.688,1.103
		c0.739-0.503,1.542-1.815,0.946-2.575c-1.567-1.992-1.147-3.975-0.771-6.147c0.194-1.133,0.211-1.734,1.582-1.344
		c1.834,0.521,1.245-0.828,0.97-1.557c-1.111-2.918-0.154-5.54,2.493-6.889c1.522-0.773,2.57-2.295,3.021-3.729
		c0.236-0.749-1.373-2.001-2.635-2.428c-0.563-0.191-0.938-0.409-0.721-1.02c0.23-0.649,0.656-1.219,1.396-1.272
		c0.479-0.034,0.998,0.291,1.459,0.216c1.031-0.17,2.318,0.059,2.938-1.021c0.602-1.051-0.52-1.607-1.004-2.321
		c-0.552-0.81-1.007-1.952-0.281-2.509c0.979-0.755,2.33-1.167,3.58-1.375c0.602-0.1,1.213,0.989,0.756,1.516
		c-1.748,2.023,0.422,2.842,1.267,3.735c0.745,0.788,1.567,2.668,2.838,1.881c1.44-0.893,0.44-2.7-0.095-3.834
		c-0.795-1.682-0.368-2.721,0.728-4.004c0.976-1.143,2.486-2.237,1.07-4.268c-0.646-0.928,0.334-2.009,1.294-2.669
		c0.767-0.526,1.613-1.205,2.499-0.597c1.19,0.817-0.046,1.573-0.286,2.351c-0.047,0.151-0.085,0.429-0.018,0.472
		c2.4,1.499,3.438,3.473,3.295,6.459c-0.037,0.76,1.184,2.584,2.242,3.669c0.721,0.739,0.865,2.045,0,2.427
		c-2.602,1.146-1.227,3.772-2.754,5.521c1.323-0.019,1.655-0.791,2.18-1.25c0.519-0.451,1.102-0.982,1.758-0.788
		c1.391,0.414,2.941,0.749,4.019,1.62c0.99,0.799-0.013,2.131-0.126,3.241c-0.15,1.479-0.296,2.58-1.876,3.237
		c-0.472,0.196-1.188,1.11-0.987,2.11c1.832,0.085,2.564-1.542,3.85-2.209c0.938-0.486,2.002-0.784,2.186,0.455
		c0.338,2.266,0.905,4.636,0.312,6.874c-0.63,2.382-0.836,2.363,1.606,3.558c-0.213-0.718-0.498-1.327-0.559-1.958
		c-0.129-1.339,0.814-2.002,1.896-2.27c1.299-0.322,1.529,0.686,1.551,1.67c0.021,1.065,0.324,1.767,1.565,1.753
		c0.666-0.008,1.118,0.377,1.048,1.107c-0.066,0.656-0.404,1.096-1.146,1.015c-0.397-0.043-0.856-0.236-0.829,0.509
		c0.223,0.525,0.691,0.598,1.218,0.589c0.763-0.013,1.759-0.802,2.212,0.302c0.446,1.087-0.427,1.867-1.14,2.566
		c-0.412,0.404-0.919,0.709-1.381,1.063c-0.414,0.318-0.904,0.831-0.464,1.222c1.974,1.746,0.761,2.934-0.465,4.369
		c-0.862,1.011-0.239,2.253,0.418,3.201c0.359,0.517,1.084,0.383,1.537-0.116c1.541-1.693,3.301-2.686,5.729-2.333
		c0.961,0.14,0.66-0.713,0.438-1.248c-0.361-0.87-0.347-1.646,0.526-2.183c0.754-0.464,1.572-0.606,2.347-0.048
		c0.77,0.553,0.893,1.339,0.717,2.229c-0.625,3.202,0.227,4.556,3.389,5.348c0.531,0.133,1.117,0.348,1.027,0.881
		c-0.344,2.061,0.705,1.808,2.129,1.579c0.856-0.137,1.517,0.617,1.533,1.613c0.01,0.637-0.259,1.374-0.961,1.131
		c-4.953-1.715-1.838,1.243-1.521,2.577c0.097,0.405,0.151,0.829,0.315,1.206c0.598,1.386,0.256,1.999-1.26,1.471
		c-0.844-0.294-1.266-0.105-1.455,0.734c-0.184,0.8-0.613,1.708,0.451,2.174c0.909,0.396,1.885,0.656,2.85,0.896
		c0.98,0.243,2.175,1.008,1.724,1.715c-1.345,2.107,1.463,4.406-0.733,6.325c1.396-0.222,1.836-1.281,2.438-2.105
		c0.576-0.79,1.056-1.647,2.15-0.852c0.981,0.713,1.014,1.723,0.369,2.651c-0.601,0.866-1.369,1.615-2.117,2.477
		c0.467,0.544,1.828,0.467,2.037,1.615c0.407,2.244,2.1,2.977,3.971,3.594c1.682,0.555,1.887,1.805,1.131,3.178
		c-0.428,0.776-1.316,1.29-1.779,2.054c-0.684,1.133-1.49,3.044-0.346,3.577c2.064,0.961,2.117,1.573,0.531,2.878
		c-0.373,0.307-0.406,0.679-0.201,1.111c0.695,1.462,0.316,2.178-1.396,2.201c-1.065,0.015-0.7,0.93-0.67,1.537
		c0.029,0.561-0.101,1.315,0.541,1.547c0.948,0.343,1.041-0.614,1.302-1.147c0.688-1.412,2.125-1.806,3.307-2.542
		c0.455-0.283,0.99-0.231,1.35,0.224c0.292,0.368,0.241,0.834-0.079,1.139c-1.104,1.051-1.264,2.4-1.563,3.811
		c-0.282,1.328-1.052,2.686-2.694,2.944c-1.271,0.2-1.191,0.736-0.707,1.712c1.082,2.177,2.069,4.367,5.068,4.246
		c0.281-0.011,0.771,0.23,0.835,0.449c0.491,1.704,1.401,3.214,2.436,4.577c1.14,1.5-0.344,3.044,0.531,4.792
		c0.601,1.198,0.479,3.405,0.978,5.026c0.647,2.117,0.924,4.127,0.313,6.231c0.623,0.182,1.328,0.236,1.842,0.578
		c0.685,0.454,0.996,6.649,0.308,7.18c-0.967,0.742-0.633,1.52-0.232,2.195c0.775,1.307,1.107-0.056,1.596-0.375
		c0.641-0.419,1.081-0.001,1.57,0.313c0.529,0.341,1.402,0.547,1.436-0.168c0.098-2.181,2.36-1.417,3.24-2.59
		c0.561-0.745,1.319-0.107,1.622,0.748c0.211,0.599-0.183,1.336,0.521,1.94c0.688-0.537,0.193-2.317,1.729-1.899
		c1.592,0.433,1.153,1.527,0.742,2.595c-0.08,0.208-0.09,0.564,0.033,0.711c1.982,2.36-0.324,2.063-1.631,2.298
		c2.392,3.161,1.662,7.048-1.529,8.89c-0.354,0.204-1.071,0.431-0.889,0.709c1.69,2.58,0.436,4.718-0.373,7.234
		c-0.375,1.161-0.008,3.518,0.873,5.225c0.738,1.427,0.381,2.543-1.604,2.092c-1.802-0.41-1.303,1.346-1.938,2.026
		c-0.42,0.451-0.569,1.027,0.181,1.445c0.763,0.426,1.456,0.767,2.237-0.028c0.582-0.594,1.355-0.704,2.041-0.16
		c0.707,0.562,0.656,1.346,0.23,2.033c-1.008,1.627-0.475,3.224,0.012,4.821c0.184,0.603,0.322,1.507,1.203,1.272
		c0.787-0.211,0.332-0.97,0.254-1.505c-0.109-0.757-0.244-1.559,0.504-2.042c0.748-0.484,1.217,0.17,1.698,0.613
		c0.884,0.814,1.058,0.049,1.358-0.576c0.537-1.12,1.498-1.074,2.311-0.514c1.479,1.016,0.614,1.947-0.277,2.829
		c-2.328,2.304-2.328,2.314,0.045,4.398c0.498,0.436,1.369,1.263,0.771,1.518c-2.173,0.928-0.884,2.776-1.421,4.016
		c-1.308,3.018-0.449,5.643,0.603,8.374c0.559,1.451-0.387,3.871-1.608,3.832c-2.259-0.072-1.534,0.779-0.731,1.799
		c0.355,0.451,0.922,0.858,1.028,1.363c0.485,2.301,1.222,2.293,2.46,0.445c0.775-1.158,1.936-1.355,3.04-0.527
		c1.165,0.875,0.228,1.738-0.192,2.613c-0.912,1.899-3.175,3.396-1.798,6.016c0.181,0.345-0.241,0.722-0.626,0.963
		c-0.369,0.229-1.48-0.381-1.016,0.796c0.203,0.518,0.539,1.098,1.23,1.102c0.851,0.005,1.102-0.508,1.112-1.312
		c0.022-1.5,0.912-1.78,2.211-1.482c0.642,0.146,1.32,0.209,1.998-0.52c-1.19-0.74-1.396-1.924-1.319-3.195
		c0.053-0.889-0.137-2.05,1.112-2.18c1.207-0.127,1.772,0.719,1.821,1.889c0.023,0.561-0.221,1.333,0.523,1.501
		c3.852,0.873,1.729,2.578,0.489,4.103c0.835,0.51,1.358-0.225,1.997-0.224c0.826,0.002,1.941,0.462,1.568,1.083
		c-0.973,1.613,1.061,3.949-1.414,5.131c-0.659,0.315-0.281,1.126,0.312,1.379c1.534,0.652,1.495,1.523,0.604,2.708
		c-0.413,0.55-0.547,1.285-0.146,1.891c0.509,0.764,1.187,0.25,1.8,0.075c0.582-0.168,1.176-0.293,1.527,0.377
		c0.314,0.606,0.105,1.252-0.347,1.599c-2.277,1.728-1.196,3.444-0.032,5.137c0.634,0.925,0.941,1.894,0.102,2.724
		c-1.125,1.108-1.58,2.076-0.697,3.644c0.5,0.89-0.516,1.31-1.365,1.642c-2.105,0.824-4.16,1.78-6.279,2.703
		c0.444,0.682,0.785,0.588,1.102,0.551c0.725-0.084,1.562-0.474,2.059,0.336c0.557,0.908-0.152,1.56-0.693,2.188
		c-0.543,0.629-1.129,1.225-1.668,1.857c-0.609,0.718,0.088,1.029,0.495,1.382c0.353,0.303,1.097,0.825,1.162,0.149
		c0.188-1.951,1.338-1.645,2.664-1.595c0.949,0.034,0.593-0.767,0.369-1.293c-0.263-0.626-0.211-1.139,0.433-1.481
		c0.682-0.364,1.276-0.224,1.801,0.33c1.621,1.709,2.612,4.01,4.903,5.112c0.261,0.125,0.345,0.941,0.263,1.39
		c-0.256,1.403-0.133,2.356,1.676,2.095c1.103-0.16,1.09,0.559,1.139,1.414c0.121,2.114-1.209,2.735-2.811,3.659
		c-1.898,1.094-2.092-0.865-3.178-1.345c-0.351,1.165,0.074,1.765,0.62,2.604c1.075,1.65,3.823,2.962,1.72,5.648
		c-0.119,0.15,0.063,0.645,0.234,0.885c0.706,0.981,0.307,1.525-0.675,1.867c-0.538,0.187-0.837,0.539-0.774,1.117
		c0.17,1.629-0.029,2.784-2.135,1.903c-0.671-0.28-0.869,0.187-0.82,0.791c0.049,0.655,0.248,1.348,0.109,1.961
		c-0.305,1.375,0.207,1.385,1.305,1.078c1.986-0.556,3.395,0.612,3.211,2.776c-0.15,1.774,1.318,0.894,1.924,1.388
		c-0.139-2.41,2.14-2.935,3.324-4.319c0.144-0.17-0.056-0.638-0.102-0.968c-0.137-0.981-0.268-1.967-0.417-2.946
		c-0.097-0.623-0.062-1.197,0.608-1.468c0.526-0.212,1.347,0.118,1.273,0.396c-0.679,2.584,6.461,2.202,2.273,6.022
		c-0.029,0.026,0.063,0.164,0.045,0.235c-0.678,2.582,0.904,5.519-1.233,7.871c1.685,2.72-3.378,3.92-1.534,6.746
		c0.168,0.258-0.58,0.804-1.102,0.789c-2.203-0.059-2.934,2.582-5.15,2.744c-0.58,0.043-1.134,1.707-1.521,2.695
		c-0.269,0.686,0.204,1.32,0.827,1.646c0.736,0.389,1.084-0.263,1.339-0.752c0.7-1.362,1.598-2.313,3.3-2.137
		c0.579,0.057,0.852-0.417,1.021-0.925c0.771-2.299,2.285-1.388,2.813-0.213c1.032,2.297,4.323,4.391,1.27,7.442
		c-0.295,0.293-0.324,0.806,0.104,1.099c0.335,0.229,0.629,0.017,0.84-0.269c0.441-0.596,0.822-1.412,1.758-0.916
		c0.863,0.461,0.381,1.34,0.461,2.045c0.236,2.076-0.988,4.406,1.312,6.14c0.634,0.478-0.222,1.03-0.761,1.479
		c-1.45,1.211-2.873,2.498-1.772,4.732c0.565,1.145,0.394,1.873-1.032,2.453c-1.781,0.726-3.933,5.04-3.455,6.77
		c0.332,1.207,0.396,2.065-0.707,2.812c-0.351,0.235-0.591,0.668-0.248,1.063c0.366,0.424,0.731,0.104,1.078-0.141
		c1.266-0.896,2.213-1.986,2.448-3.605c0.116-0.805,0.608-1.382,1.511-1.385c0.78-0.003,1.144,0.529,1.459,1.166
		c1.278,2.576,0.608,4.607-1.992,5.732c0.314,1.016,2.155,1.434,1.597,2.57c-1.548,3.144,0.37,4.803,2.431,6.455
		c0.592,0.475,0.885,1,0.751,1.713c-0.239,1.264,0.372,1.869,1.519,2.131c0.99,0.224,2.012,0.889,1.578,1.828
		c-0.789,1.709-0.389,3.979-2.6,5.104c-1.179,0.603-2.854,1.722-0.521,3.222c0.502,0.322,0.861,1.281,0.357,1.492
		c-2.604,1.091-1.506,6.217-5.865,5.336c-0.244-0.05-0.84,0.455-0.881,0.756c-0.307,2.228-2.326,2.365-3.768,3.205
		c-0.658,0.382-2.005,0.497-1.408,1.563c0.48,0.857,1.76,1.006,2.672,0.324c0.861-0.642,1.678-1.409,2.315-2.267
		c1.602-2.156,3.385-1.185,5.106-0.364c1.971,0.94,0.785,2.396,0.405,3.655c-0.287,0.949-0.823,1.832-1.028,2.793
		c-0.267,1.238-2.312,2.01-1.479,3.185c0.944,1.329,2.519-0.392,3.965-0.104c1.201,0.237,2.755,0.946,3.532,1.943
		c1.418,1.818,0.103,2.417-1.028,3.322c-1.291,1.035-2.554,1.775-4.319,1.232c-0.867-0.267-1.828-0.09-2.677,0.343
		c-0.512,0.259-1.211,0.509-1.094,1.192c0.146,0.856,0.903,0.465,1.442,0.461c2.02-0.015,2.162,0.928,1.498,2.586
		c-0.941,2.354-1.994,4.372-5.407,3.319c1.12,1.389,1.97,2.402,2.776,3.45c0.543,0.707,1.43,1.443,0.764,2.408
		c-0.68,0.984-1.59,0.319-2.471,0.072c-2.354-0.66-4.58-0.246-6.599,1.147c-0.509,0.351-0.922,0.817-0.271,1.406
		c0.416,0.374,0.862,0.564,1.194-0.124c0.505-1.05,1.363-1.701,2.382-0.964c1.113,0.804,0.387,1.757-0.275,2.565
		c-0.34,0.413-0.557,0.893-0.127,1.34c0.515,0.539,0.879,0.045,1.242-0.281c0.76-0.684,1.582-0.175,2.385-0.138
		c2.252,0.104,4.166,2.912,6.708,0.842c0.103-0.084,0.466,0.115,0.69,0.22c1.723,0.806,3.791,0.904,5.18,2.362
		c0.565,0.593,2.041-0.126,1.863,1.12c-0.162,1.137-1.373,1.592-2.332,2.081c-0.817,0.417-1.642,0.208-2.395-0.21
		c-0.996-0.555-2.051-0.449-3.137-0.521c-4.981-0.328-9.781,1.351-14.793,1.069c-6.063-0.342-11.955,1.777-18.053,1.794
		c-1.527,0.004-3.007,0.332-4.604-0.008c-1.514-0.322-3.151-0.166-4.723-0.063c-0.797,0.053-1.52,0.477-0.777,1.495
		c0.355,0.488,1.914,0.365,1.013,1.424c-0.728,0.854-1.681,0.178-2.393-0.468c-0.673-0.609-1.237-1.452-2.251-1.452
		c-3.467-0.003-6.98-0.291-10.394,0.158c-5.413,0.714-10.763-0.354-16.169-0.116c-3.984,0.175-8.068-0.261-12.113-0.394
		c-2.371-0.079-3.908,0.7-5.312,2.441c-1.431,1.776-2.442,1.692-3.631-0.188c-1.246-1.974-2.759-2.54-5.07-1.789
		c-4.067,1.319-8.366,0.31-12.567,0.774c-2.16,0.24-4.131,1.174-6.33,1.263c-1.037,0.042-1.922,0.53-2.854-0.299
		c-1.396-1.247-2.843-1.459-4.805-1.097c-1.811,0.335-3.873,0.253-5.754,0.024c-1.941-0.237-3.715-0.091-5.607,0.286
		c-2.387,0.475-4.705-1.526-7.199-0.463c-0.043,0.017-0.156-0.07-0.199-0.134c-1.326-1.927-2.086-0.483-2.979,0.47
		c-0.998,1.065-1.7,1.852-2.968-0.119c-1.11-1.732-3.413-2.789-5.458-1.654c-1.593,0.883-2.669,2.761-4.791,1.115
		c-0.044-0.034-0.593,0.48-0.817,0.802c-1.089,1.554-2.029,1.779-2.684-0.29c-0.258-0.813-0.732-1.336-1.571-1.367
		c-2.494-0.094-4.991-0.146-7.487-0.193c-0.811-0.015-1.191,1.112-2.428,0.438c-2.648-1.449-5.689-1.555-8.681-1.599
		c-4.445-0.067-8.979,1.966-13.327-0.56c-0.196-0.113-0.528-0.162-0.729-0.077c-3.369,1.411-6.633,1.301-9.796-0.606
		c-0.116-0.071-0.368-0.058-0.473,0.024c-1.712,1.337-3.312,0.281-4.931-0.223c-1.602-0.498-3.124-0.896-4.827-0.063
		c-1.282,0.625-2.752,0.412-4.14-0.104c-4.858-1.803-9.908-1.97-14.977-1.479c-1.648,0.157-3.498,0.853-3.39,2.966
		c0.107,2.082,0.825,3.982,2.721,5.368c4.225,3.086,9.357,5.323,10.856,11.112c0.214,0.827,1.467,1.527,0.799,2.42
		c-0.76,1.011-1.825,0.248-2.722-0.136c-0.458-0.197-0.862-0.534-1.329-0.686c-3.144-1.033-5.255-3.895-8.402-4.822
		c-1.774-0.524-3.178-1.45-4.356-2.752c-1.075-1.192-2.343-2.109-3.607-3.062c-4.867-3.668-10.394-6.326-15.264-9.968
		c-1.822-1.364-3.114-1.498-5.004-0.053c-3.2,2.45-6.837,2.51-10.364,0.635c-3.305-1.754-4.916-4.706-4.929-8.394
		c-0.007-2.481-0.688-3.903-3.375-4.639c-2.847-0.778-5.157-2.828-5.978-5.819c-0.43-1.568-1.924-2.947-3.377-2.306
		c-3.599,1.59-8.434-0.183-9.861-3.884c-0.691-1.793-1.424-3.51-2.386-5.172c-0.7-1.209-1.04-2.764,0.798-3.256
		c1.625-0.435,1.967-1.389,2.242-2.826c1.171-6.082,4.89-8.946,11.047-8.94c2.875,0.004,4.833,1.564,6.743,3.321
		c0.72,0.662,1.424,1.438,2.294,0.5c0.983-1.055-0.201-1.554-0.813-2.157c-0.531-0.525-1.154-1-1.551-1.615
		c-0.404-0.631-1.471-1.35-0.648-2.12c0.766-0.72,1.493,0.214,2.137,0.696c0.91,0.684,1.802,1.863,3.033,0.996
		c1.125-0.791,1.184-2.181,0.781-3.434c-1.473-4.579-1.404-9.895-6.131-12.943c-0.337-0.217-0.652-0.603-0.488-1.057
		c0.186-0.507,0.648-0.367,1.061-0.318c0.701,0.082,1.603,0.572,1.945-0.416c0.248-0.715-0.565-1.117-0.981-1.611
		c-0.322-0.381-0.706-0.73-0.934-1.165c-0.393-0.75-1.511-1.571-0.567-2.38c0.807-0.689,1.465,0.38,2.029,0.914
		c1.383,1.313,2.205,0.806,2.669-0.784c0.185-0.632,0.288-1.32,0.256-1.974c-0.319-6.408-1.39-12.683-3.526-18.75
		c-0.222-0.627-0.671-1.281-0.162-1.867c0.462-0.535,0.85,0.152,1.272,0.31c1.211,0.451,1.353-0.231,1.063-1.123
		c-0.488-1.504-1.121-2.961-1.59-4.47c-0.201-0.65-0.731-1.631,0.256-1.963c1.034-0.35,1.073,0.754,1.313,1.41
		c0.377,1.033,0.735,2.181,1.979,2.34c1.237,0.16,1.851-0.96,2.581-1.729c0.901-0.947,0.813-2.097,0.64-3.293
		c-0.376-2.595-1.258-5.062-2.187-7.445c1.277-0.597,2.182,1.31,2.966,0.091c0.612-0.952-0.529-1.804-0.9-2.698
		c-0.256-0.614-0.533-1.221-0.824-1.818c-0.426-0.867-1.342-1.947,0.087-2.488c1.254-0.473,1.599,0.814,1.936,1.758
		c0.113,0.314,0.161,0.658,0.31,0.949c0.798,1.545,2.134,1.654,3.062,0.181c0.381-0.608,0.605-1.38,0.691-2.103
		c0.424-3.625,1.44-7.191,1.108-10.9c-0.042-0.465,0.048-1.227,0.338-1.393c2.747-1.572,1.479-3.369,0.414-5.211
		c-0.43-0.744-1.31-1.713-0.072-2.32c1.145-0.563,1.475,0.565,1.873,1.416c1.642,3.482,3.843,4.533,7.485,3.543
		c1.538-0.418,2.888-1.266,4.213-2.147c5.589-3.717,9.011-9.233,12.332-14.833c0.285-0.479,0.247-1.251,0.979-1.311
		c0.729-0.059,0.967,0.604,1.138,1.139c1.054,3.305,3.827,5.205,6.188,7.369c2.303,2.109,4.858,1.826,7.087-0.403
		c0.482-0.481,0.869-1.124,1.637-0.853c0.883,0.316,0.41,1.088,0.466,1.715c0.509,5.871,1.82,11.529,5.433,16.324
		c2.316,3.07,3.77,2.963,6.248,0.024c0.594-0.704,1.088-1.461,1.745-0.059c0.439,0.94,0.655,0.935,1.49,0.059
		c1.83-1.916,3.122-5.558,6.966-3.062c0.016,0.011,0.184-0.217,0.385-0.459c-2.607-0.965-3.321-2.541-1.625-4.928
		c0.654-0.916,0.699-2.142-0.489-2.533c-2.634-0.865-2.3-2.26-0.793-4.158c-1.354,0.705-2.399,0.824-3.33-0.27
		c-0.545-0.641-1.472-1.466-0.899-2.119c1.577-1.801,0.272-2.848-0.767-3.959c-1.278-1.373-0.87-2.604,0.224-3.728
		c0.822-0.844,1.627-1.53,1.511-2.926c-0.068-0.818,0.643-1.558,1.521-1.775c0.845-0.209,1.088,0.548,1.436,1.112
		c0.298,0.482,0.613,1.068,1.656,0.273c-2.721-1.76-1.241-3.756-0.355-5.75c0.188-0.422,0.718-0.767,0.243-1.327
		c-1.925-2.281-0.229-2.507,1.47-2.345c1.264,0.119,2.18-0.302,2.846-1.162c0.822-1.067-0.637-1.285-0.966-1.935
		c-0.438-0.869-0.763-1.701-0.28-2.599c0.33-0.61,0.957-0.568,1.555-0.411c0.698,0.182,1.474,0.71,2.031-0.146
		c0.538-0.826-0.283-1.378-0.614-1.998c-1.322-2.478-0.766-3.623,2.033-4.142c0.512-0.095,1.228,0.104,1.321-0.756
		c-3.209-0.853-3.564-2.121-3.098-5.707c0.447-3.449-0.666-6.296-2.135-9.211c-0.503-0.998-2.246-2.525,0.664-3.046
		c1.111-0.199,0.307-0.991,0.003-1.5c-0.262-0.439-0.574-0.9-0.081-1.334c0.452-0.396,1.061-0.262,1.348,0.127
		c0.807,1.088,1.238,0.793,1.743-0.241c0.101-0.201,1.073-0.247,1.099-0.173c0.707,1.995,3.283,1.924,4.079,3.436
		c1.2,2.285,2.841,3.816,5.122,4.799c0.482,0.207,0.604,1.541,1.477,0.521c0.574-0.671,0.104-1.296-0.311-1.795
		c-2.635-3.166-4.813-6.563-6.273-10.469c-0.438-1.17-0.896-2.09,0.181-2.772c1.233-0.784,1.272,0.722,1.874,1.256
		c1.52,1.351,1.754,3.841,4.061,4.599c-1.662-1.807-0.256-3.405,0.328-5.004c-0.375-0.062-0.572-0.16-0.676-0.1
		c-0.764,0.454-1.517,1.311-2.422,0.421c-1.023-1.007-1.135-2.375-1.025-3.729c0.092-1.137,0.94-1.045,1.818-1.178
		c1.604-0.24,1.195-1.412,0.602-2.234c-0.813-1.125-1.157-2.157-0.434-3.444c0.366-0.651-0.025-1.288-0.295-1.899
		c-1.708-3.896-1.708-3.896,2.521-4.895c0.162-0.038,0.326-0.078,0.479-0.14c1.5-0.604,2.165-0.051,2.764,1.45
		c0.662,1.669,1.631,3.504,3.225,4.3c1.078,0.538,2.42,0.64,3.479,2.125c0.19-2.523-0.264-4.127-2.359-4.846
		c-0.586-0.201-1.201-0.452-1.225-1.09c-0.066-1.897-0.648-3.321-2.67-3.903c-0.457-0.132-0.57-0.901-0.347-1.342
		c0.837-1.65,0.157-2.403-1.414-2.935c-1.677-0.569-2.106-1.66-0.653-2.945c1.127-0.996,0.772-1.866,0.018-2.801
		c-0.521-0.645-1.115-1.243-1.558-1.937c-0.519-0.812-1.483-1.784-0.634-2.685c1.168-1.239,2.176-2.795,3.973-3.266
		c0.625-0.164,1.032,0.396,1.439,0.83c0.365,0.39,0.609,1.04,1.443,0.799c0.264-0.984-0.332-1.508-1.066-1.964
		c-1.896-1.181-2.025-3.821-4.37-4.893c-1.011-0.463-1.418-2.694-2.44-3.896c-0.537-0.634-1.496-1.172-1.205-2.033
		c0.759-2.247,1.397-4.872,3.312-6.187c1.851-1.27,1.789-2.27,0.966-3.836c-0.344-0.658-0.724-1.299-1.063-1.961
		c-0.406-0.788-0.656-1.981,0.092-2.262c1.253-0.47,1.944-1.741,3.207-1.97c0.498-0.09,0.703,0.583,0.649,1.141
		c-0.231,2.464,0.688,4.55,2.384,6.215c0.825,0.81,1.157,2.721,2.692,2.179c1.635-0.578,0.16-2.193,0.514-3.312
		c0.23-0.73,0.267-1.5,1.127-1.771c0.842-0.266,1.443,0.079,1.882,0.813c0.233,0.394,0.526,1.211,1.005,0.727
		c1.071-1.084,2.811-1.977,2.482-3.796c-0.332-1.833,0.142-3.762-0.045-5.265c-0.418-3.385-0.319-6.993-1.771-10.239
		c-0.307-0.685-0.755-1.394-0.077-2.065c0.604-0.598,1.409-0.579,2.097-0.212c1.004,0.537,1.681,0.594,2.031-0.717
		c0.211-0.795,0.521-1.798,1.549-1.673c1.192,0.144,1.017,1.257,1.17,2.163c0.291,1.696,1.351,2.613,3.138,2.521
		c0.565-0.029,0.942-0.182,0.721-0.916c-0.623-2.073-0.68-4.298-2.687-5.856c-1.385-1.077-1.57-3.004-0.364-4.25
		c1.201-1.241,1.735-2.116,0.92-3.81c-0.519-1.069,0.315-2.124,1.36-2.642c1.154-0.57,1.285,0.562,1.761,1.194
		c1.241,1.662,2.54,3.248,3.276,5.262c0.285,0.782,1.666,1.955,2.24,0.623c1.521-3.521,3.125-7.173,1.963-11.18
		c-0.617-2.12-1.619-4.209,2.107-5.191c-2.402-0.86-3.48-2.363-4.521-3.967c-1.188-1.831-0.781-3.638,0.272-5.125
		c1.187-1.674,2.078,0.584,3.338,0.864c0.121-1.619-0.202-2.633-1.799-2.929c-0.759-0.143-1.101-0.709-1.028-1.479
		c0.068-0.739,0.446-1.265,1.209-1.384c0.749-0.116,1.258,0.232,1.604,0.91c0.26,0.508,0.151,1.411,1.286,1.234
		c-0.147-0.747-0.76-1.384-0.524-2.141c0.299-0.961,0.991-1.984,1.854-0.863c1.134,1.47,2.641,2.552,3.717,3.986
		c0.9,1.2,2.348,2.592,0.785,4.408c-0.405,0.468-0.287,1.159,0.195,1.599c1.303,1.191,2.65,2.339,3.979,3.505
		c-0.368-1.406-1.712-2.229-1.646-3.765c0.1-2.335-0.727-4.4-1.884-6.372c-0.526-0.896-0.858-1.736,0.119-2.676
		c2.192-2.111,2.253-4.944,0.31-7.216c-0.646-0.757-1.494-1.485-1.785-2.379c-0.6-1.84-2.543-3.596-0.981-5.697
		c0.79-1.064,1.034-1.637-0.042-2.671c-1.095-1.055-0.891-2.32,0.51-3.092c1.34-0.738,1.844,0.06,2.342,1.262
		c0.875,2.11,2.733,2.547,4.59,1.268c1.797-1.238,2.412-0.988,2.777,1.129c0.066,0.394,0.135,0.787,0.252,1.467
		C217.045,106.22,218.318,105.378,217.504,104.35z M127.709,433.386c1.033,0.039,2.291-0.189,2.32-1.362
		c0.04-1.507-0.938-2.839-2.141-3.664c-1.102-0.761-1.451,0.574-2.021,1.209c-1.424,1.587-2.884,3.14-4.327,4.703
		C123.615,433.389,125.638,433.313,127.709,433.386z M315.636,256.243c-1.263,1.182-1.278,3.345-0.935,5.198
		c0.09,0.487,0.785,0.634,0.901,0.185c0.497-1.928,3.367-2.262,3.024-4.794c-0.178-1.32,1.346-1.691,2.258-2.438
		C318.24,252.779,316.865,255.09,315.636,256.243z"/>
</g>
</svg>
