<?xml version="1.0" encoding="utf-8"?>
<!-- Generator: Adobe Illustrator 15.0.0, SVG Export Plug-In . SVG Version: 6.00 Build 0)  -->
<!DOCTYPE svg PUBLIC "-//W3C//DTD SVG 1.1//EN" "http://www.w3.org/Graphics/SVG/1.1/DTD/svg11.dtd">
<svg version="1.1" id="Layer_1" xmlns="http://www.w3.org/2000/svg" xmlns:xlink="http://www.w3.org/1999/xlink" x="0px" y="0px"
	 width="500px" height="500px" viewBox="0 0 500 500" enable-background="new 0 0 500 500" xml:space="preserve">
<circle fill="#59595B" cx="249.316" cy="249.316" r="249.316"/>
<g>
	<path fill="#FFFFFF" d="M327.684,445.639c-12.348-1.423-24.781-0.69-37.154-1.71c-6.522-0.536-13.137-0.599-19.713-0.761
		c-2.637-0.064-5.258-0.833-7.879-1.308c-0.729-0.132-1.539-0.201-1.272-1.366c1.155-5.073-0.156-10.094-0.396-15.135
		c-0.418-8.763-2.734-17.399-0.756-26.317c1.438-6.483,1.646-13.239,6.233-18.681c1.829-2.168,1.521-4.547-0.104-6.907
		c-1.217-1.767-2.32-3.653-2.527-5.912c-0.172-1.866-2.174-3.681-3.961-3.726c-1.461-0.036-5.58,2.507-5.717,3.594
		c-0.045,0.367,0.111,0.833,0.33,1.146c2.576,3.68,2.037,7.791,1.533,11.832c-0.468,3.764-2.832,6.271-6.149,7.846
		c-1.571,0.744-1.74,1.636-0.809,2.925c1.024,1.418,2.251,2.716,3.089,4.233c2.361,4.274,4.938,8.486,4.188,13.766
		c-0.69,4.858-1.396,9.733-1.69,14.627c-0.331,5.588-1.771,11.177-0.338,16.801c0.16,0.631-0.096,0.865-0.608,1.137
		c-2.383,1.269-3.373,0.818-4.316-1.724c-1.236-3.329-1.773-6.713-1.583-10.267c0.556-10.354-1.633-20.579-1.44-30.923
		c0.124-6.653-0.539-13.337,0.867-19.936c0.372-1.747-0.891-3.542-0.141-5.187c2.499-5.479,6.471-9.426,12.369-11.196
		c0.885-0.267,1.613-0.042,2.33,0.5c0.658,0.498,1.367,0.938,2.088,1.339c0.416,0.229,0.93,0.64,1.377,0.271
		c0.646-0.529-0.006-1.033-0.2-1.543c-0.399-1.045-1.815-2.166,0.087-3.106c1.441-0.713,2.992-1.955,4.104,0.502
		c0.319,0.707,0.883,1.301,1.783,0.905c0.736-0.323,0.825-1.039,0.653-1.717c-0.585-2.299,1.313-3.002,2.522-2.584
		c2.002,0.69,4.211,0.539,6.061,1.646c0.354,0.212,0.689,0.471,0.993,0.752c0.362,0.338,0.809,0.754,0.43,1.268
		c-0.393,0.531-0.905,0.24-1.309-0.084c-0.771-0.621-1.525-1.18-2.871-0.101c2.727,0.931,4.063,2.78,4.723,5.116
		c0.646,2.287,2.054,3.1,4.416,3.121c7.802,0.08,14.39-3.191,20.618-7.338c1.698-1.131,3.784-2.325,3.88-4.9
		c0.043-1.129,0.336-2.622,1.51-2.488c1.499,0.17,0.471,1.752,0.652,2.689c0.211,1.084-0.253,2.617,1.437,2.715
		c1.391,0.079,2.36-0.877,2.56-2.273c0.305-2.164,1.207-1.576,2.505-0.797c2.9,1.744,5.223,4.354,8.61,5.393
		c2.775,0.851,6.727,0.687,7.743-0.846c1.142-1.719,2.349-3.387,2.854-5.504c0.48-2.021,1.436-3.945,3.152-5.275
		c0.923-0.713,1.07-1.402,0.423-2.324c-0.48-0.68-1.224-1.438,0.124-1.932c1.21-0.444,1.13,0.566,1.222,1.279
		c0.105,0.832,0.438,1.438,1.359,1.506c0.809,0.06,1.573-0.166,1.86-0.963c0.739-2.058,1.317-4.311,3.941-1.57
		c0.047,0.049,0.159,0.041,0.242,0.047c2.266,0.174,2.345,1.508,1.584,3.148c-0.878,1.889-0.647,3.561,0.757,5.066
		c2.187,2.346,4.592,4.34,7.459,5.537c0.479-0.148,0.959-0.305,1.432-0.478c0.38-0.139,1.263-0.528,1.826-0.776
		c2.153-1.057,4.266-2.202,6.271-3.521c0.693-0.457,4.435-3.31,2.461-1.657c0.728-0.601,1.45-1.205,2.139-1.85
		c1.229-1.145,2.447-2.305,3.562-3.563c0.383-0.432,1.492-1.906,1.604-2.017c0.51-0.759,0.998-1.531,1.435-2.334
		c0.297-0.546,0.892-1.961,1.023-2.209c0.212-0.663,0.396-1.335,0.539-2.017v-0.037c0.008-0.617,0.027-1.049,0.054-1.338
		c-0.258-1.041-0.552-2.051-0.904-3.067c-0.735-2.118-0.936-4.251-0.718-6.313c-0.384-0.084-0.808-0.39-1.295-1.004
		c-0.585-0.735-1.562-1.39-2.472-1.6c-3.835-0.889-5.462-3.822-6.711-7.049c-0.77-1.986-3.063-3.383-2.273-6.021
		c0.154-0.515-0.691-0.498-1.19-0.375c-0.694,0.17-1.613,0.686-1.809-0.463c-0.188-1.119,0.789-1.89,1.667-1.738
		c2.581,0.442,5.159-0.793,7.664,0c4.878,1.545,9.854,1.18,14.841,1.111c2.324-0.031,3.623-0.76,3.74-3.224
		c0.055-1.143,0.383-2.271,0.707-4.079c0.479,1.074,0.773,2.079,0.913,3.027c1.879-3.229,4.789-5.847,8.648-7.125
		c2.004-2.563,2.48-5.468,1.562-8.775c-1.839-6.617-1.162-13.016,1.991-19.124c0.8-1.55,1.848-2.978,2.577-4.556
		c2.149-4.653,2.939-9.73,3.83-14.683c1.01-5.621-1.844-8.223-7.462-7.789c-1.057,0.081-1.903-0.502-1.489-1.374
		c0.892-1.876-0.232-2.74-1.32-3.804c-0.438-0.431-1.111-0.999-0.686-1.709c0.348-0.582,1.078-0.12,1.628-0.203
		c0.897-0.135,1.897-0.107,2.662-0.514c1.001-0.534,2.188-1.439,1.833-2.683c-0.387-1.348-1.855-0.967-2.822-0.689
		c-2.181,0.627-3.875-0.23-5.605-1.346c-1.269-0.818-1.604-1.194,0.063-2.073c3.202-1.691,5.563-4.229,6.258-7.948
		c0.162-0.866,0.328-2.017-0.801-2.363c-1.144-0.351-1.858,0.536-2.346,1.443c-0.269,0.499-0.314,1.113-0.481,1.669
		c-0.599,1.994-4.41,4.835-6.813,4.972c0.389-0.549,0.742-1.001,1.045-1.485c0.466-0.751,1.354-1.591,0.418-2.414
		c-0.903-0.793-1.889-0.132-2.709,0.457c-0.473,0.337-0.854,0.795-1.306,1.165c-1.393,1.144-2.959,1.251-4.612,0.885
		c1.489-0.687,2.935-1.334,4.21-2.267c0.692-0.51,1.173-1.309,0.714-2.184c-0.484-0.927-1.414-0.785-2.211-0.5
		c-0.859,0.308-1.715,0.687-2.478,1.183c-1.048,0.684-1.714,1.236-2.174-0.643c-0.423-1.728-1.683-1.406-2.509-0.217
		c-0.551,0.791-0.736,1.836-1.09,2.766c-0.376,0.992-0.449,2.188-1.896,2.972c0.1-0.713,0.091-1.038,0.193-1.328
		c0.365-1.06,1.486-2.241,0.397-3.203c-1.224-1.082-1.96,0.46-2.892,1.033c-1.591,0.978-2.408-0.98-3.729-1.175
		c-0.339-0.049-0.521-0.508-0.229-0.794c0.901-0.882,1.847-0.333,2.785-0.017c0.124,0.042,0.301-0.068,0.806-0.2
		c-1.48-1.097-1.081-2.138-0.071-3.138c0.362-0.359,0.711-0.801,0.3-1.295c-0.424-0.507-0.923-0.203-1.339,0.076
		c-1.263,0.849-2.611,1.134-4.304,0.868c0.752-1.424,2.179-0.697,2.936-1.354c1.028-0.894-0.575-2.047,0.167-3.027
		c0.1-0.132,0.188-0.289,0.319-0.379c1.944-1.323,2.35-3.575,3.256-5.503c0.341-0.722,1.441-1.704,0.341-2.388
		c-0.968-0.601-1.832,0.402-2.548,1.095c-0.416,0.404-0.736,0.907-1.152,1.313c-1.649,1.613-3.319,3.206-5.099,4.919
		c-0.262-1.014,0.101-1.511,0.562-1.847c1.828-1.332,1.4-2.773,0.334-4.322c-0.583-0.844-1.252-1.539-2.219-1.945
		c-0.441-0.185-1.065-0.45-0.756-1.061c0.344-0.685,1.044-0.501,1.507-0.138c0.849,0.664,1.589,1.466,2.415,2.162
		c0.463,0.389,0.879,1.289,1.607,0.7c0.578-0.465-0.084-1.044-0.303-1.55c-1.781-4.132-1.041-7.34,2.424-9.923
		c1.397-1.043,2.897-1.974,4.437-2.795c3.233-1.728,6.317-3.548,8.734-6.458c2.766-3.327,3.174-6.225,0.388-9.624
		c-3.081-3.758-5.984-7.698-9.955-10.663c-2.106-1.572-1.918-2.311,0.479-3.434c0.681-0.317,1.355-0.645,1.999-1.027
		c0.498-0.296,1.037-0.667,0.916-1.356c-0.148-0.858-0.907-0.839-1.562-0.938c-1.446-0.218-2.501,0.785-3.753,1.162
		c-0.606,0.182-2.218,1.055-1.308-1.007c0.592-1.341-0.335-1.867-1.329-2.166c-0.842-0.252-1.758-0.259-2.644-0.375
		c-0.129-1.087,0.773-1.482,1.212-2.138c0.637-0.953,1.797-2.005,0.631-3.039c-1.248-1.108-2.256,0.207-3.198,0.971
		c-1.063,0.863-1.239,2.488-2.511,3.227c-0.694-0.759,0.383-2.046-0.801-2.276c-1.457-0.284-1.164-1.147-0.933-2.039
		c0.271-1.042,0.639-2.059,0.925-3.098c0.211-0.764,0.941-1.696,0.107-2.296c-0.908-0.654-1.715,0.221-2.395,0.797
		c-1.462,1.237-2.871,2.534-4.31,3.8c-2.195,1.933-2.92,1.91-5.227-0.18c3.19-2.259,3.784-6.131,5.706-9.184
		c0.277-0.44,0.196-1.011-0.275-1.347c-0.615-0.441-1.328-0.385-1.844,0.102c-0.531,0.505-0.848,1.231-1.358,1.764
		c-0.862,0.901-2.073,0.7-2-0.418c0.218-3.227-1.305-2.676-3.173-1.589c-0.434-0.924,0.796-1.887-0.227-2.432
		c-0.973-0.52-1.734,0.288-2.459,0.809c-0.604,0.435-1.07,1.07-1.688,1.475c-0.957,0.626-1.648,2.785-2.689,1.816
		c-1.095-1.019,0.813-1.96,1.555-2.866c0.67-0.822,1.289-1.963,0.082-2.534c-1.204-0.569-1.76-3.262-3.535-1.699
		c-2.05,1.805-2.053,0.914-2.259-1.032c-0.511-4.826-1.463-5.328-5.999-3.521c-0.231,0.093-0.468,0.179-0.708,0.246
		c-0.552,0.154-1.295,0.511-1.574-0.14c-0.395-0.919,0.53-1.111,1.133-1.231c2.104-0.42,3.522-1.735,4.069-3.66
		c1.266-4.463,1.746-8.992,0.193-13.531c-0.992-2.905-4.357-6.537-6.289-6.104c-2.075,0.462-2.907-0.748-4.229-1.727
		c1.438-1.205,3.205-2.198,0.759-3.88c-0.459-0.315,0.002-0.726,0.33-0.988c0.551-0.438,1.058-0.922,0.562-1.669
		c-0.429-0.646-1.162-0.607-1.818-0.553c-0.827,0.068-1.646,0.258-2.472,0.353c-0.643,0.074-1.43,0.341-1.813-0.383
		c-0.4-0.76,0.309-1.208,0.786-1.64c0.813-0.731,1.783-1.421,1.57-2.665c-0.399-2.339,1.599-3.852,1.945-5.94
		c0.086-0.519,1.144-0.851,0.606-1.645c-0.426-0.632-1.174-0.532-1.835-0.542c-1.014-0.016-1.98,0.135-2.877,0.679
		c-1.844,1.121-3.706,2.215-5.562,3.316c-0.493,0.292-1.001,0.795-1.59,0.434c-0.606-0.374-0.356-1.05-0.239-1.601
		c0.33-1.548,0.746-3.079,1.035-4.635c0.157-0.854,0.012-1.718-0.966-2.064c-0.918-0.325-1.657,0.048-2.121,0.852
		c-0.538,0.933-1.03,1.899-1.472,2.883c-0.232,0.526,0.13,1.578-0.99,1.247c-0.776-0.229-1.199-0.872-0.865-1.78
		c0.243-0.658,0.923-1.445-0.076-1.936c-0.726-0.356-1.463,0.134-2.058,0.604c-0.851,0.675-1.58,1.451-2.116,2.432
		c-0.352,0.641-0.488,2.002-1.573,1.438c-0.932-0.485,0.084-1.281,0.337-1.912c0.351-0.878,0.8-2.145-0.515-2.139
		c-1.473,0.007-3.385,0.141-4.285,1.475c-1.287,1.906-3.246,3.113-4.545,4.958c-0.367,0.52-0.9,1.339-1.563,0.733
		c-0.805-0.736,0.107-1.299,0.6-1.817c0.859-0.904,1.761-1.772,2.586-2.705c0.387-0.436,0.734-1.041,0.097-1.523
		c-0.479-0.362-0.953-0.003-1.334,0.332c-1.249,1.1-2.466,2.238-3.74,3.308c-0.416,0.349-1.03,0.843-1.493,0.135
		c-0.369-0.569-0.041-1.201,0.523-1.477c1.71-0.834,2.965-2.104,3.943-3.709c0.336-0.551,0.984-0.604,1.57-0.598
		c2.654,0.028,4.424-1.721,6.351-3.145c0.564-0.418,0.961-1.022,0.522-1.727c-0.382-0.617-1.051-0.428-1.593-0.254
		c-2.448,0.788-4.897,1.581-7.317,2.45c-0.767,0.275-1.453,0.445-2.092-0.13c-0.218-0.196-0.466-0.627-0.39-0.839
		c0.343-0.949,1.144-0.26,1.731-0.385c1.166-0.248,1.942-0.916,2.305-2.04c0.164-0.504,0.115-1.053-0.336-1.365
		c-1.017-0.7-1.651,0.437-2.5,0.58c-0.096,0.016-0.221-0.153-0.366-0.26c0.655-1.109,1.647-1.855,2.731-2.479
		c1.163-0.671,3.342-1.06,2.579-2.691c-0.995-2.13-2.764-0.466-4.018,0.247c-1.472,0.836-2.591,0.692-3.166-0.849
		c-0.566-1.514-0.361-3.692-3.068-2.171c-0.354,0.199-0.627-0.654-0.883-1.07c-0.923-1.493-1.839-1.563-2.771,0.012
		c-0.241,0.41-0.51,0.924-1.207,0.505c-0.196-0.506,0.074-0.909,0.351-1.331c0.444-0.681,1.244-1.518-0.33-1.753
		c-1.889-0.281-4.024-0.994-5.642,0.056c-2.239,1.455-4.774,0.211-6.965,1.342c-0.682,0.353-1.275-0.228-1.434-0.984
		c-0.16-0.763,0.36-1.038,0.989-1.148c3.672-0.646,7.235-2.102,11.084-1.445c0.604,0.104,1.42,0.516,1.744-0.364
		c0.278-0.752-0.401-1.179-0.903-1.617c-2.482-2.169-5.162-1.835-7.977-0.752c-0.67,0.258-1.848,0.955-2.209-0.003
		c-0.377-1.001,0.947-1.066,1.634-1.444c1.748-0.962,3.5-1.923,5.188-2.983c0.823-0.517,1.351-1.408,0.79-2.356
		c-0.551-0.931-1.448-0.572-2.215-0.178c-0.889,0.457-1.758,0.948-2.623,1.443c-0.606,0.347-1.627,0.696-1.729,0.017
		c-0.301-1.997-2.369-3.53-1.519-5.772c0.681-1.781-0.159-2.106-1.674-1.835c-3.242,0.581-6.599,0.68-9.437,2.778
		c-1.279,0.947-2.698,0.682-3.803-0.572c-1.02-1.158-0.351-2.189,0.315-3.162c0.896-1.305,1.854-2.565,2.794-3.839
		c0.461-0.625,0.947-1.311,0.301-2.01c-0.695-0.753-1.555-0.442-2.277,0.035c-0.934,0.616-1.812,1.316-2.82,2.058
		c-0.237-1.034,0.179-2.264-1.051-2.223c-1.881,0.062-1.787-0.888-1.483-2.197c0.188-0.807,0.271-1.646,0.312-2.475
		c0.068-1.325-0.799-1.847-1.691-1.065c-1.188,1.038-1.862,0.932-3.389,0.423c-1.644-0.547-1.989-0.662-1.438-2.296
		c0.465-1.373-0.073-2.469-1.776-1.774c-1.098,0.448-1.897,0.286-2.756-0.39c-0.401-0.317-0.97-0.539-1.305,0.014
		c-0.317,0.527,0.102,0.926,0.551,1.21c0.509,0.321,1.642,0.522,0.938,1.316c-1.292,1.458-2.139,3.536-4.514,4.002
		c0.017-1.2,1.105-2.284-0.066-3.18c-1.133-0.868-2.006-0.056-2.88,0.611c-0.5,0.381-1.104,0.357-1.684,0.239
		c-1.423-0.291-1.933,0.481-2.193,1.721c-0.323,1.543-0.752,3.064-1.139,4.593c-0.165,0.646-0.305,1.261-1.061,1.56
		c-2.639,1.043-3.658,2.896-3.266,5.865c0.094,0.721,0.577,1.594-0.341,1.995c-0.972,0.425-1.242-0.561-1.599-1.169
		c-0.586-0.999-1.335-1.884-2.561-1.561c-1.401,0.369-1.221,1.689-1.041,2.721c0.345,1.991-0.682,2.349-2.098,1.658
		c-2.274-1.109-3.741-0.348-5.088,1.498c-0.516,0.707-1.718,1.185-1.02,2.216c0.692,1.024,1.641,0.31,2.414-0.162
		c0.75-0.458,1.379-0.718,1.637,0.479c0.365,1.698-1.242,3.277-2.93,2.93c-1.712-0.351-3.348-0.624-4.91-1.681
		c-1.987-1.344-3.45,0.206-4.549,1.748c-0.803,1.128-0.566,2.22,0.752,2.913c0.803,0.422,1.835,0.681,1.006,1.973
		c-0.689,1.073-1.202,2.306-2.858,1.288c-0.846-0.519-1.852-0.486-2.577,0.192c-1.266,1.182-3.006,1.861-3.794,3.551
		c-0.763,1.636-1.506,1.142-2.296-0.003c-0.559-0.811-0.48-1.516,0.096-2.28c0.522-0.694,0.512-1.44-0.243-1.965
		c-0.757-0.527-1.427-0.098-2.038,0.38c-2.488,1.945-2.547,4.691,0.47,6.85c2.168,1.553,2.09,3.529,2.383,5.581
		c0.079,0.556,0.011,1.314-0.78,1.292c-0.653-0.018-0.543-0.72-0.604-1.192c-0.117-0.912-0.107-2.003-1.359-2.021
		c-1.119-0.015-1.453,0.969-1.719,1.867c-0.448,1.508-0.975,2.606-2.984,1.849c-1.322-0.499-1.445,0.777-1.457,1.685
		c-0.025,1.717-0.446,2.664-2.346,1.602c-0.345-0.193-0.805-0.252-1.051,0.39c0.367,0.766,1.051,1.13,1.895,1.35
		c0.549,0.144,1.164,0.307,1.57,0.665c0.53,0.468,1.289,1.113,0.816,1.887c-0.422,0.695-1.257,0.303-1.812-0.009
		c-1.643-0.925-3.066,0.107-4.574,0.4c-1.199,0.232-1.289,0.818-1.041,1.98c0.506,2.363,0.83,4.707,4.264,4.812
		c-1.092,1.008-1.88,0.7-2.594,0.785c-0.703,0.084-1.632,0.31-1.342,1.072c0.738,1.942-0.701,2.392-1.791,3.216
		c-1.394,1.054-2.748,2.168-4.043,3.342c-0.869,0.789-1.463,2.361-0.355,2.747c2.743,0.956,3.068,3.567,4.324,5.458
		c1.498,2.257,2.473,4.862,4.602,6.769c-2.279,0.144-3.182-1.737-4.697-2.604c-0.751-0.43-1.652-1.322-2.438-0.406
		c-0.763,0.888,0.15,1.646,0.724,2.357c0.937,1.16,2.541,1.64,3.242,3.162c-2.385-1.692-4.472-0.95-6.531,0.481
		c-1.097,0.762-2.23,1.485-3.673,1.357c-0.601-0.053-1.206-0.106-1.425-0.778c-0.168-0.521,0.07-0.972,0.44-1.352
		c0.615-0.631,1.742-1.278,0.888-2.225c-0.836-0.928-1.641,0.217-2.377,0.616c-2.248,1.218-2.564,1.076-2.906-1.676
		c-0.135-1.094-0.629-1.487-1.668-1.18c-2.164,0.64-3.711,2.931-3.472,5.165c0.056,0.519,0.094,1.018-0.315,1.391
		c-0.292,0.268-0.675,0.162-0.881-0.113c-0.907-1.208-2.354-1.094-3.57-1.562c-1.433-0.55-2.44-1.356-0.686-2.82
		c0.557-0.464,0.968-1.129,1.358-1.757c0.218-0.354,0.235-0.867-0.194-1.111c-0.239-0.137-0.642-0.123-0.922-0.031
		c-1.115,0.368-3.797,4.297-3.783,5.556c0.008,0.65,0.336,1.39-0.527,1.713c-0.793,0.296-1.494,0.049-1.971-0.651
		c-0.474-0.698-1.12-1.285-1.812-0.558c-1.308,1.375-2.486,2.884-3.621,4.409c-0.338,0.454-0.258,1.147,0.231,1.611
		c0.423,0.401,1.095,0.425,1.368,0.067c1.574-2.064,3.868-0.941,5.792-1.405c0.855-0.207,1.783-0.221,2.069,0.812
		c0.338,1.226-0.671,1.302-1.504,1.438c-0.926,0.151-1.888,0.745-1.52,1.583c0.97,2.203-0.71,2.694-1.936,3.503
		c-0.91,0.6-1.857,1.144-2.414,2.12c-0.35,0.61-0.477,1.734,0.127,1.727c1.73-0.02,2.108,1.313,3.07,2.168
		c0.686,0.61,1.454,1.609,2.688,1.604c2.566-0.01,2.692,0.24,1.463,2.582c-0.311,0.591-0.666,1.161-0.934,1.769
		c-0.802,1.823-1.734,2.269-3.312,0.65c-1.734-1.781-3.578-1.647-5.461,0.015c-0.67,0.591-1.002,1.697-2.162,1.774
		c-0.299-1.115,0.435-1.899,0.442-2.802c0.01-1.317-0.903-2.567-1.87-1.613c-1.547,1.527-3.394,1.424-5.121,2.006
		c-0.58,0.196-1.103,1.054-1.734,0.313c-0.571-0.671,0.126-1.209,0.48-1.744c0.139-0.208,0.304-0.402,0.412-0.625
		c0.253-0.521,0.661-1.183,0.018-1.56c-0.694-0.406-0.969,0.321-1.256,0.824c-1.057,1.851-2.122,3.695-3.291,5.726
		c-1.08-2.332-2.303-2.437-3.641-0.477c-0.525,0.769-1.377,0.834-2.15,1.129c-2.556,0.976-3.696,2.657-3.119,4.583
		c0.218,0.731,0.622,1.415-0.055,2.073c-0.762,0.741-1.531,0.346-2.293-0.044c-0.571-0.292-1.192-0.883-1.787-0.196
		c-0.636,0.733-0.396,1.567,0.102,2.305c0.326,0.482,0.718,0.919,1.068,1.386c2.181,2.911,2.03,5.348-0.481,7.936
		c-0.232,0.238-0.475,0.479-0.641,0.761c-0.399,0.681-0.622,1.426,0.003,2.072c0.586,0.604,1.254,0.29,1.819-0.086
		c0.829-0.552,1.602-1.19,2.427-1.749c1.742-1.179,3.202-0.653,3.896,1.665c-1.609-1.218-3.042-1.943-3.291,0.807
		c-0.041,0.455-0.512,0.608-0.965,0.61c-1.422,0.007-2.099,0.429-0.828,1.695c0.734,0.732,0.302,1.081-0.26,1.576
		c-1.475,1.294-2.564,0.373-3.727-0.519c-0.504-0.386-1.066-0.912-1.802-0.529c-0.507,0.264-0.773,0.951-0.493,1.271
		c1.679,1.919-0.377,3.506-0.383,5.263c-0.006,1.407-1.195,1.562-1.912,0.933c-2.114-1.855-4.033-0.618-6.023,0.058
		c-1.017,0.346-1.988,0.897-1.479,2.137c0.469,1.14,1.504,0.712,2.391,0.432c0.474-0.15,0.956-0.295,1.445-0.379
		c0.413-0.071,0.918-0.051,1.096,0.376c0.285,0.688-0.344,0.866-0.791,0.992c-3.297,0.931-4.916,3.843-7.152,6.02
		c-0.983,0.957-0.811,1.954-0.297,3.182c0.51,1.222,2.033,2.216,1.671,3.494c-0.749,2.643,0.916,2.281,2.404,2.328
		c0.583,0.018,1.17-0.003,1.749,0.055c1.17,0.117,2.147,0.717,2.504,1.795c0.348,1.053-0.862,1.289-1.445,1.778
		c-2.053,1.72-5.49,0.885-6.787,4.295c-0.549-1.472,0.181-1.905,0.658-2.422c0.631-0.684,0.84-1.449,0.468-2.296
		c-0.693-1.574-3.976-2.453-5.182-1.213c-1.218,1.251-1.952,0.163-2.881-0.454c-0.286,1.967,1.075,3.665,0.214,5.513
		c-1.133-0.619-1.057-1.655-1.307-2.477c-0.659-2.166-1.2-4.361-3.308-5.68c-0.561-0.351-1.096-0.967-1.771-0.453
		c-0.733,0.56-0.581,1.395-0.114,2.024c1.133,1.529,1.471,3.338,1.969,5.096c0.228,0.805,0.534,1.647-0.379,2.25
		c-0.695,0.459-1.417,0.44-2.114-0.013c-0.919-0.597-0.591-1.398-0.422-2.234c0.181-0.894,1.406-1.999,0.218-2.664
		c-1.214-0.679-2.077,0.636-2.892,1.421c-0.349,0.336-0.655,0.79-0.8,1.247c-0.5,1.589-1.494,2.089-3.07,1.625
		c-0.827-0.244-1.762-0.375-2.139,0.64c-0.36,0.967,0.377,1.472,1.109,1.974c1.899,1.301,1.665,3.844-0.273,5.175
		c-2.324,1.596-5.004,2.685-6.99,4.755c-0.62,0.646-1.305,1.417-0.911,2.434c0.333,0.859,1.264,0.618,1.946,0.849
		c1.607,0.544,2.912,0.168,4.066-1.059c0.707-0.752,1.734-1.49,2.609-0.654c1.024,0.978-0.183,1.894-0.771,2.503
		c-1.818,1.886-2.863,4.295-4.501,6.293c-0.677,0.825-1.08,1.889-0.171,2.692c0.984,0.87,1.609-0.341,2.316-0.791
		c0.555-0.354,0.965-1.057,1.549-1.223c1.281-0.363,2.979-1.214,3.727,0.512c1.349,3.113,0.787,3.831-2.594,4.141
		c-0.332,0.03-0.666,0.056-0.991,0.119c-0.612,0.119-1.165,0.4-1.192,1.083c-0.033,0.824,0.581,1.298,1.286,1.214
		c2.946-0.354,2.166,1.202,1.569,2.816c-0.561,1.515,1.232,5.188,2.564,4.942c2.856-0.526,3.756,0.713,4.004,3.215
		c0.045,0.455,0.705,0.876,1.131,1.257c0.369,0.332,0.925,0.594,0.795,1.157c-0.165,0.721-0.866,0.676-1.436,0.704
		c-1.679,0.083-3.274-0.037-4.801-0.979c-1.135-0.699-2.574-0.766-3.164,0.754c-0.58,1.497,0.601,2.036,1.826,2.367
		c0.803,0.217,1.862,0.334,2.139,1.14c1.431,4.151,4.482,5.854,8.645,6.022c0.077,0.002,0.149,0.071,0.225,0.106
		c0.526,0.24,1.078,0.605,1.588,0.027c0.443-0.498,0.311-1.074,0.083-1.643c-1.09-2.736-1.018-2.831,2.056-2.794
		c0.75,0.009,1.5,0.038,2.25,0.019c1.383-0.037,1.589,0.404,1.264,1.817c-0.37,1.603-2.014,3.702,0.858,4.854
		c0.376,0.15,0.249,0.634-0.002,0.859c-1.41,1.272-0.983,3.108-1.479,4.659c-0.212,0.666,0.034,1.769-0.941,1.82
		c-1.127,0.059-1.113-1.012-1.206-1.838c-0.078-0.69-0.224-1.352-1.017-1.547c-0.928-0.229-1.66,0.146-2.135,0.922
		c-0.79,1.297-2.199,2.123-2.579,4.254c-1.159-2.635-3.013-2.565-4.663-2.031c-1.711,0.556-1.499,2.375-1.671,3.841
		c-0.217,1.858,0.849,3.256,1.894,5.012c-2.928-2.059-3.832-0.258-4.795,1.873c-0.579,1.281-0.612,2.578-0.763,3.888
		c-0.147,1.258,0.381,1.896,1.563,1.077c1.267-0.875,1.445-0.338,1.699,0.847c0.37,1.717,1.002,3.53,2.384,4.569
		c1.868,1.406,1.442,2.386-0.106,3.689c-0.413-0.548-0.761-1.097-1.197-1.566c-0.651-0.707-1.254-1.832-2.434-1.112
		c-0.945,0.573-0.698,1.584-0.363,2.481c0.088,0.233,0.238,0.453,0.283,0.692c0.178,0.946,0.059,1.933-0.664,2.537
		c-0.766,0.64-1.325-0.223-1.922-0.629c-0.693-0.475-1.791-1.119-2.2-0.279c-0.962,1.974-2.534,1.847-4.216,1.8
		c-0.679-0.019-1.414,0.082-1.688,0.811c-0.304,0.808,0.071,1.585,0.755,1.941c2.605,1.356,4.833,3.592,8.153,3.323
		c2.096-0.17,3.934,0.908,4.655,2.74c0.683,1.732,1.554,2.771,3.314,2.931c0.044,0.817-0.489,1.014-0.865,1.297
		c-1.691,1.278-1.818,2.856-0.955,4.653c0.923,1.923,2.325,2.668,4.477,2.093c2.809-0.755,2.82-0.693,2.043,2.141
		c-0.353,1.293-0.807,2.563,0.627,3.604c0.767,0.558,0.812,1.386,0.283,2.228c-0.459,0.729-1.457,1.634-0.318,2.322
		c0.978,0.59,1.543-0.613,2.156-1.242c0.998-1.022,2.037-3.75,2.89,0.093c0.049,0.221,0.236,0.485,0.431,0.585
		c2.174,1.104,3.949,2.872,6.549,3.3c2.502,0.41,3.284,0.203,3.932-2.234c0.224-0.846,0.49-1.719,1.477-1.766
		c1.11-0.055,1.213,0.924,1.381,1.746c0.361,1.793,0.744,3.58,1.088,5.377c0.132,0.694,0.334,1.336,1.086,1.522
		c1.353,0.338,0.976,1.01,0.447,1.81c-0.433,0.651-0.682,1.405-0.1,2.082c0.619,0.719,1.366,0.397,2.057,0.061
		c2.695-1.322,2.187,3.867,4.938,2.424c0.146,0.285,0.343,0.555,0.422,0.857c0.06,0.225-0.008,0.496-0.065,0.735
		c-0.412,1.753,0.001,2.601,2.015,2.056c0.49-0.131,1.109,0.271,1.678,0.375c2.142,0.393,4.284,0.881,5.58-1.7
		c0.225-0.446,0.742-1.13,1.554-0.921c0.384,1.086-1.568,2.902,0.798,3.193c1.564,0.192,1.435,0.851,1.336,1.95
		c-0.183,2.066,1.509,2.685,2.942,3.211c1.418,0.522,1.687-0.901,2.238-1.799c0.474-0.774,0.989-1.573,1.656-2.174
		c2.259-2.031,3.566-1.55,4.322,1.51c-0.648,0.274-1.068-0.317-1.613-0.435c-1.009-0.213-1.933,0.004-2.318,0.976
		c-0.511,1.287,0.732,1.17,1.414,1.5c0.519,0.252,1.087,0.5,1.48,0.899c3.421,3.49,7.98,4.296,12.443,5.224
		c5.51,1.146,9.132-0.717,11.264-5.722c0.352-0.825-0.041-1.993,1.438-1.918c0.54,0.027,1.048,0.197,1.165,0.748
		c0.198,0.938-0.46,1.554-1.015,2.17c-1.162,1.293-2.518,2.386-3.32,4.023c-0.66,1.346-2.504,2.627,0.525,3.352
		c0.47,0.113,0.291,0.703,0.25,1.104c-0.231,2.332,1.247,2.488,3.022,2.533c1.562,0.039,2.645-1.297,4.333-1.377
		c-0.379,1.424-1.853,3.168,1.046,3.219c0.527,0.009,0.592,0.445,0.534,0.916c-0.084,0.67-1.178,1.336-0.245,1.972
		c0.781,0.532,1.628-0.026,2.298-0.517c1.556-1.144,1.951-0.539,1.949,1.115c-0.001,1.073-0.453,2.743,1.238,2.764
		c1.603,0.019,1.588-1.637,1.773-2.854c0.049-0.324-0.021-0.668,0.012-0.998c0.06-0.604-0.343-1.531,0.621-1.613
		c0.706-0.063,0.756,0.746,0.83,1.326c0.283,2.251,1.24,2.025,2.547,0.719c0.518-0.52,1.23-1.338,1.907-0.729
		c2.126,1.92,4.639,1.942,7.233,1.865c0.301-0.011,0.641,0.213,0.56,0.688c-0.491,0.721-1.978,0.25-2.007,1.514
		c-0.028,1.261,1.105,1.535,1.951,2.017c0.724,0.412,1.504,0.733,2.199,1.188c5.587,3.646,11.33,3.783,17.308,0.979
		c1.512-0.709,1.611-1.412,0.723-2.643c-1.072-1.482-2.351-2.898-2.851-4.67c-0.688-2.436-2.465-3.727-4.504-4.715
		c-1.702-0.824-3.545-1.359-5.775-2.189c3.451-0.813,9.131,2.271,10.875,5.537c3.26,6.154,8.094,10.838,13.75,14.771
		c4.04,2.812,7.184,6.078,5.391,11.627c-0.148,0.463-0.141,0.986-0.156,1.482c-0.236,8.561-0.806,17.1-1.449,25.637
		c-0.275,3.645-0.991,7.432-0.316,10.923c0.78,4.045-0.321,7.551-1.186,11.233c-0.287,1.222-1.12,1.748-2.37,1.795
		c-7.894,0.297-15.787,0.774-23.683,0.889c-8.559,0.122-17.111,0.205-25.671,0.434c-13.901,0.367-27.763,1.507-41.668,1.719
		c-4.485,0.068-8.965,0.562-13.444,0.902c-0.857,0.063-2.093-0.103-2.106,1.201c-0.012,1.23,1.106,1.646,2.118,1.712
		c3.574,0.23,7.066,1.039,10.668,1.178c4.644,0.181,9.359,0.45,13.872,1.453c3.484,0.773,6.886,1.013,10.377,0.936
		c1.161-0.024,2.324-0.241,3.479-0.198c7.887,0.297,15.736,1.126,23.623,1.517c7.893,0.392,15.764,0.47,23.658,0.559
		c12.234,0.139,24.467,0.276,36.701,0.213c21.569-0.113,43.158,0.501,64.697-1.104c5.531-0.411,11.169-0.038,16.569-1.821
		c2.865-0.947,5.933-1.315,8.815-0.688c4.229,0.922,6.148-2.513,9.771-3.862c-3.136-1.153-5.618-1.623-8.251-1.559
		C334.847,445.855,331.225,446.047,327.684,445.639z M402.123,245.122c1.125,0.609,3.113,1.164,1.324,3.213
		c-0.451,0.516,0.064,1.253,0.449,1.824c0.396,0.591,0.995,1.18,0.02,2.34c-1.954-3.781-4.093-7.28-8.315-8.797
		C397.939,243.876,400.172,244.066,402.123,245.122z M112.09,258.668c-1.241,0.655-1.807,1.527-2.06,3.051
		c-0.226,1.369-1.973,1.889-3.361,2.207c-0.758,0.174-1.207-0.408-1.438-1.103c-0.538-1.613,0.34-2.902,1.005-4.229
		c0.078-0.153,0.408-0.179,0.632-0.268c1.862,1.395,3.111,0.054,4.464-0.9c0.395-0.278,0.949-0.614,1.336-0.104
		C113.164,257.977,112.637,258.379,112.09,258.668z M187.768,106.211c-0.682,1.196-1.987,0.758-2.592,0.162
		c-1.341-1.32-2.831-2.218-4.584-2.805c-0.43-0.144-1.101-0.602-0.764-1.067c0.57-0.787,1.627-0.644,2.487-0.794
		c1.908,0.087,3.521,1.042,5.133,1.814C188.437,103.996,188.268,105.332,187.768,106.211z M235.488,364.918
		c-0.905,1.695-1.121,3.456-0.653,5.326c0.198,0.792,0.62,1.82-0.118,2.355c-0.98,0.713-1.31-0.627-1.956-1.012
		c-1.557-0.925-2.9-2.063-4.103-3.962c3.483,1.455,4.75,0.672,4.901-2.756c0.123-2.829,0.044-5.666,0.037-8.499
		c-0.002-0.412,0.055-1.001-0.18-1.207c-2.582-2.27-0.012-2.487,1.481-3.622c-0.617,4.062,0.085,7.624,0.808,11.185
		C235.859,363.486,235.857,364.229,235.488,364.918z"/>
</g>
</svg>
