<?xml version="1.0" encoding="utf-8"?>
<!-- Generator: Adobe Illustrator 15.0.0, SVG Export Plug-In . SVG Version: 6.00 Build 0)  -->
<!DOCTYPE svg PUBLIC "-//W3C//DTD SVG 1.1//EN" "http://www.w3.org/Graphics/SVG/1.1/DTD/svg11.dtd">
<svg version="1.1" id="Layer_1" xmlns="http://www.w3.org/2000/svg" xmlns:xlink="http://www.w3.org/1999/xlink" x="0px" y="0px"
	 width="500px" height="500px" viewBox="0 0 500 500" enable-background="new 0 0 500 500" xml:space="preserve">
<circle fill="#87BB65" cx="249.316" cy="249.316" r="249.316"/>
<g>
	<path fill="#FFFFFF" d="M481.373,287.712c-0.557-1.633,0.017-3.75-2.148-4.694c-0.506-0.221-0.597-0.94-0.44-1.502
		c0.27-0.98-0.14-1.666-0.8-2.322c-1.308-1.297-0.814-1.872,0.823-1.94c0.901-0.037,1.813-0.122,2.021-1.229
		c0.167-0.881-0.325-1.521-0.998-2.014c-0.914-0.669-1.47,0.057-2.269,0.424c-2.072,0.949-3.91,3.616-6.675,1.289
		c-0.277-0.234-0.986-0.227-1.354-0.045c-2.479,1.23-3.495-0.619-4.781-2.255c2.222,0.909,3.67-0.245,5.284-1.435
		c1.371-1.014,1.244-2.478,1.803-3.729c0.387-0.862,1.031-1.856-0.126-2.493c-1.034-0.567-1.99,0.025-2.725,0.838
		c-0.424,0.468-0.936,0.937-1.144,1.504c-0.688,1.881-1.903,2.293-3.739,1.74c-1.151-0.346-2.262-0.221-2.451,1.358
		c-0.063,0.503,0.232,1.3-0.592,1.296c-0.899-0.005-1.648-0.641-2.177-1.298c-0.54-0.672,0.29-0.88,0.695-1.195
		c1.044-0.815,1.37-1.612-0.144-2.249c-0.638-0.268-1.437-0.836-0.602-1.228c1.104-0.519-0.069-3.108,2.212-2.224
		c0.571,0.222,1.278,0.562,1.689-0.185c0.398-0.726,0.042-1.396-0.528-1.899c-0.531-0.472-1.059-1.017-1.69-1.293
		c-1.601-0.703-1.838-1.345-0.189-2.312c0.888-0.521,0.89-1.47,0.603-2.336c-0.28-0.851-1.057-0.939-1.776-0.743
		c-1.672,0.454-2.445-0.753-2.379-1.854c0.132-2.177-0.921-4.275-0.205-6.464c0.384-1.176-0.45-1.773-1.459-2.017
		c-1.021-0.245-1.456,0.41-1.55,1.312c-0.075,0.706-0.018,1.427-0.097,2.132c-0.091,0.813,0.431,2.149-0.561,2.292
		c-1.146,0.162-0.855-1.267-1.038-2.013c-0.696-2.823-0.731-2.868-3.374-1.5c-0.403,0.208-0.802,0.679-1.267,0.306
		c-0.465-0.373-0.118-0.876,0.021-1.311c0.419-1.3-0.239-1.561-1.341-1.407c-0.313,0.042-0.645,0.163-0.936,0.102
		c-1.126-0.24-2.054-0.824-2.626-1.845c-0.26-0.468-0.131-0.998,0.322-1.252c1.12-0.627,1.714,0.377,2.46,0.891
		c0.545,0.375,1.129,0.675,1.722,0.143c0.474-0.422,0.536-1.069,0.216-1.53c-1.672-2.402-0.434-3.951,1.466-5.351
		c0.456-0.337,1.077-1.071,0.7-1.316c-1.598-1.038-3.313-2.49-5.037-2.562c-1.573-0.064-2.508-0.134-3.181-1.551
		c-0.392-0.824-0.97-1.708-1.966-0.867c-1.081,0.912-1.865,0.44-2.734-0.199c-0.936-0.69-1.186-1.46-0.82-2.669
		c0.387-1.28,0.345-3.467-0.604-3.699c-2.104-0.516-3.099-3.291-5.799-2.509c-0.903,0.261-2.365-0.443-2.782-1.476
		c-0.503-1.253,0.96-1.636,1.696-2.215c2.8-2.197,2.844-2.171,4.15,1.247c0.279,0.734,0.619,1.305,1.465,1.307
		c0.906,0.002,1.309-0.548,1.178-1.394c-0.173-1.118,0.659-1.222,1.354-1.602c1.1-0.604,2.021,0.087,2.969,0.307
		c3.175,0.739,3.224,0.799,3.709-2.32c0.202-1.3,0.61-1.942,1.985-1.458c0.467,0.165,0.969,0.314,1.191-0.289
		c0.201-0.536-0.326-0.814-0.566-1.206c-1.925-3.148-3.565-6.376-2.737-10.271c0.222-1.039-0.306-1.789-1.25-1.078
		c-1.641,1.233-2.448-0.119-3.479-0.807c-0.667-0.445-1.386-1.121-0.833-1.947c0.497-0.742,1.108,0.09,1.646,0.293
		c0.972,0.366,2.041,0.668,2.061-0.832c0.017-1.046-0.802-1.864-1.697-2.444c-0.851-0.551-1.709-0.437-2.373,0.28
		c-1.252,1.349-3.118,1.003-4.588,1.752c-0.436,0.222-0.993,0.051-1.136-0.52c-0.136-0.545,0.25-0.944,0.709-1.083
		c0.748-0.227,1.533-0.333,2.306-0.476c0.629-0.118,1.338-0.188,1.477-0.954c0.154-0.853-0.627-0.955-1.167-1.246
		c-0.63-0.339-1.639-0.186-1.773-1.481c1.864,0.273,3.574-0.119,5.288-0.681c1.414-0.464,1.334-1.602,1.53-2.66
		c0.117-0.63,0.247-1.364-0.495-1.659c-1.077-0.427-1.523,0.626-2.128,1.154c-1.018,0.889-1.827,0.794-2.575-0.266
		c-0.544-0.771-1.119-1.533-1.57-2.36c-1.155-2.118-4.217-2.974-6.178-1.632c-0.673,0.461-1.365,1.118-2.079,0.364
		c-0.933-0.986,0.45-1.043,0.794-1.5c0.465-0.613,0.893-1.262,0.216-1.875c-0.667-0.606-1.442-0.483-2.118,0.159
		c-0.444,0.422-0.357,1.75-1.374,1.152c-1.035-0.609-0.157-1.334,0.252-1.973c0.37-0.578,0.496-1.215-0.074-1.724
		c-0.568-0.506-1.303-0.442-1.659,0.165c-1.174,1.999-3.824,2.153-5.067,4.172c0.556-1.675-0.251-3.595,1.271-4.986
		c0.655-0.601,0.868-1.389,0.175-2.088c-0.691-0.699-1.562-0.522-2.098,0.145c-1.752,2.178-3.471,1.972-5.771,0.65
		c-1.48-0.849-2.098-1.13-0.686-2.493c0.563-0.542,1.113-1.347,0.457-2.098c-0.754-0.862-1.544-0.244-2.315,0.218
		c-1.084,0.649-1.902,1.748-3.622,2.26c1.401-2.176,2.487-3.888,4.584-4.86c1.981-0.92,2.132-3.035,2.273-4.925
		c0.104-1.377-1.229-1.703-2.144-2.264c-1.136-0.695-2.095-0.283-3.014,0.519c-0.366,0.321-0.896,0.427-1.248-0.062
		c-0.232-0.326,0.032-0.585,0.321-0.766c0.516-0.321,1.344-0.555,0.759-1.369c-0.292-0.407-0.866-0.684-1.37-0.847
		c-0.798-0.259-1.167,0.294-1.318,0.977c-0.268,1.176-1.281,1.552-2.168,2.034c-0.543,0.296-1.492,0.016-1.146-0.47
		c0.826-1.154,0.22-2.942,1.647-3.676c1.611-0.829,0.755-1.628,0.054-2.381c-1.077-1.155-2.428-1.077-3.735-0.512
		c-3.691,1.596-6.727,0.202-9.587-2.024c-1.002-0.781-1.977-1.598-3.269-1.852c-1.847-0.361-2.727-1.484-2.658-3.347
		c0.054-1.524-0.525-2.432-2.183-2.417c-0.449,0.003-1.06,0.014-0.681-0.759c0.815-1.668-0.455-2.248-1.518-2.935
		c-0.382-0.246-1.011-0.395-0.78-0.988c0.255-0.66,0.923-0.46,1.455-0.396c0.582,0.072,1.045,0.404,1.341,0.896
		c1.067,1.772,2.897,1.323,4.486,1.542c0.244,0.033,0.646-0.183,0.771-0.4c0.24-0.411-0.017-0.774-0.429-0.923
		c-1.355-0.496-0.861-1.14-0.068-1.622c1.959-1.19,1.204-2.002-0.284-2.821c-1.174-0.645-2.319-1.34-3.471-2.024
		c-0.772-0.458-1.094-1.125-0.837-2.01c0.111-0.385,0.281-0.82,0.738-0.811c0.773,0.016,1.082,0.719,1.241,1.269
		c0.546,1.873,2.264,2.067,3.666,2.67c0.802,0.343,1.481-0.312,0.918-0.908c-1.284-1.361-0.896-3.126-1.516-4.54
		c-0.613-1.406-0.725-2.932-1.637-4.333c-1.797-2.762-5.117-2.37-7.316-4.2c-0.838-0.697-1.618-0.815-1.258-2.228
		c0.396-1.542-0.729-2.429-2.016-1.623c-1.209,0.757-2.347,0.668-3.612,0.622c-1.4-0.051-2.913-0.27-4.034,0.896
		c-0.985,1.022-2.902,1.485-4.129,0.884c-0.354-0.173-0.709-0.349-1.039-0.562c-0.475-0.304-0.965-0.69-1.507-0.267
		c-0.594,0.463-0.554,1.141-0.229,1.728c0.546,0.987,0.534,1.723-0.529,2.394c-1.015,0.641-1.987,1.111-3.006,0.185
		c-0.563-0.51-2.257-0.486-1.218-1.892c0.511-0.691,1.574-1.202,0.603-2.076c-0.868-0.78-1.812-0.206-2.478,0.558
		c-0.894,1.023-1.829,1-2.963,0.424c-2.911-1.482-5.767-0.128-6.676,3.099c-0.223,0.791-0.132,1.825-1.451,1.766
		c-1.562-0.069-2.478,0.823-3.053,2.183c-0.479,1.133-1.275,1.385-2.362,0.984c0.079-1.262,2.146-2.299,0.901-2.95
		c-1.367-0.717-3.349-0.281-5.062-0.29c-0.095-0.001-0.319,0.56-0.267,0.812c0.158,0.725-0.143,0.961-0.794,1.146
		c-1.532,0.434-2.232,1.762-2.722,3.072c-0.557,1.495-1.55,2.098-2.964,2.725c-1.996,0.887-4.548,1.212-5.459,3.727
		c-0.185,0.51-0.057,1.193-0.919,0.996c-0.758-0.173-0.982-0.697-0.879-1.435c0.188-1.362,0.172-2.519-1.083-3.619
		c-0.753-0.658-0.188-2.198-0.076-3.2c0.124-1.122,1.4-0.292,2.194-0.127c0.828,0.173,1.614,0.045,2.108-0.707
		c0.487-0.74,0.349-1.51-0.135-2.223c-0.485-0.718-1.045-1.396-1.452-2.158c-0.486-0.91-0.907-1.936,0.038-2.799
		c0.435-0.396,3.202,1.084,3.308,1.794c0.113,0.781-0.478,1.977,0.993,1.856c1.229-0.101,2.314-0.789,2.636-2.06
		c0.213-0.84,1.002-1.991-0.002-2.605c-0.984-0.603-1.346,0.767-2.01,1.222c-0.104,0.07-0.279,0.026-0.452,0.036
		c-0.404-0.95,0.381-1.637,0.534-2.455c0.276-1.467-1.072-3.568-2.047-3.067c-2.614,1.348-1.744-0.272-1.493-1.529
		c0.052-0.262-0.063-0.613-0.217-0.849c-1.282-1.977-1.798-3.963-0.272-6.07c0.341-0.47,0.492-1.058-0.016-1.509
		c-0.545-0.484-1.031-0.106-1.459,0.268c-0.674,0.589-1.287,1.356-2.457,0.775c0.651-1.149,2.867-1.844,1.343-3.296
		c-1.585-1.511-2.604,0.24-3.677,1.523c-0.489-3.786-2.333,0.222-3.458-0.925c0.121-0.261,0.236-0.613,0.438-0.909
		c0.337-0.493,1.195-0.862,0.727-1.556c-0.424-0.626-1.17-0.133-1.766-0.034c-1.653,0.272-2.911,1.201-3.918,2.486
		c-0.752,0.964-1.657,1.479-2.885,1.122c-1.418-0.413-1.908,0.037-1.66,1.512c0.188,1.127-0.543,1.367-1.485,1.148
		c-0.92-0.214-1.873-0.368-2.736-0.73c-1.504-0.632-2.565-0.223-3.489,1.044c-0.344,0.471-0.439,1.233-1.231,1.322
		c-0.581-0.652-0.031-1.388-0.196-2.067c-0.184-0.75-0.557-1.313-1.324-1.524c-0.754-0.206-1.414-0.043-1.896,0.614
		c-0.479,0.654-0.775,1.891-1.893,1.071c-0.867-0.636-2.924-0.575-1.906-2.709c0.287-0.602-0.366-1.381-1.036-1.284
		c-2.152,0.311-2.431-0.654-2.404-2.551c0.019-1.277-1.047-2.552,0.097-3.866c0.104-0.12-0.188-0.804-0.457-0.989
		c-1.865-1.273-3.252-3.238-5.594-3.837c-0.91-0.233-2.064-0.536-1.981-1.708c0.104-1.479,1.353-0.49,2.065-0.69
		c1.393-0.39,3.079-1.016,3.178-2.367c0.091-1.228-1.646-0.619-2.574-0.816c-0.309-0.064-0.719-0.015-0.915-0.197
		c-2.142-1.973-3.484-0.845-4.685,1.119c-0.236,0.389-0.65,0.704-1.045,0.958c-0.681,0.44-1.596,1.373-2.152,0.243
		c-0.416-0.843-0.063-2.061,0.91-2.695c0.364-0.239,0.959-0.101,1.365-0.302c0.809-0.398,1.039-1.173,0.92-2.013
		c-0.129-0.869-0.682-1.424-1.537-1.606c-0.729-0.154-1.343,0.168-1.446,0.882c-0.493,3.354-2.091,1.771-3.524,0.812
		c-2.072-1.384-2.473-1.251-2.625,1.216c-0.113,1.876-0.691,2.808-2.785,2.285c-1.689-0.421-2.992,0.045-3.156,2.119
		c-0.075,0.978-0.725,1.449-1.654,1.165c-1.542-0.468-2.431-0.488-1.604,1.535c0.277,0.684-1.769,2.677-2.504,2.558
		c-0.388-0.063-0.631-0.53-0.42-0.656c1.754-1.061,0.27-2.167,0.102-3.244c-0.145-0.934-0.479-1.762-1.627-1.612
		c-1.055,0.138-1.09,0.944-1.002,1.809c0.102,0.997-0.299,1.254-1.279,0.908c-3.85-1.363-9.217,1.331-10.781,5.365
		c-0.957,2.465-1.519,2.555-3.305,0.577c-0.552-0.61-0.89-1.274-1.013-2.094c-0.112-0.733-0.05-1.821-1.242-1.566
		c-0.929,0.199-1.021,1.072-0.904,1.932c0.07,0.517,0.23,1.558-0.333,1.365c-1.428-0.487-3.121,0.641-4.279-0.647
		c-1.015-1.128-1.378-2.446-0.287-3.853c0.331-0.427,0.396-1.081-0.096-1.529c-0.544-0.495-1.015-0.092-1.48,0.22
		c-0.675,0.454-1.362,0.893-2.045,1.337c-0.04-0.547,0.125-0.801,0.322-1.027c0.616-0.708,1.449-1.328,1.111-2.446
		c-0.184-0.613-0.679-0.872-1.298-0.777c-1.198,0.181-1.542,1.108-1.985,2.097c-1.288,2.874-4.118,4.169-6.45,5.96
		c-0.307,0.234-0.856,0.046-1.049-0.314c-0.973-1.812-2.508-1.218-3.97-1c-0.521,0.078-1.173-0.198-1.467,0.473
		c-0.31,0.712,0.171,1.115,0.613,1.62c1.219,1.391,0.332,3.98-1.386,4.354c-0.92,0.199-1.464-0.474-2.186-0.732
		c-0.553-0.199-1.102-0.307-1.509,0.227c-0.267,0.351-0.215,0.83,0.082,1.096c1.226,1.101,1.981,2.986,4.242,2.367
		c1.477-0.406,1.968,0.227,1.255,1.643c-0.346,0.686-0.48,1.384,0.179,1.948c0.631,0.54,1.312,0.374,1.986,0.007
		c0.566-0.307,1.224-1.209,1.775-0.25c0.492,0.854-0.625,1.089-1.054,1.587c-0.708,0.82-1.753,1.561-0.261,2.681
		c0.899,0.674,0.029,1.245-0.388,1.752c-0.519,0.632-1.094,0.619-1.541-0.081c-0.488-0.767-1.233-0.914-2.04-1.006
		c-1.127-0.128-1.445-0.896-1.295-1.87c0.106-0.694,0.387-1.361,0.593-2.041c0.25-0.833,0.167-1.583-0.612-2.102
		c-0.627-0.418-1.318-0.552-2.027-0.208c-0.769,0.372-0.875,1.06-0.788,1.814c0.072,0.629,0.203,1.263-0.186,1.843
		c-0.217,0.326-0.445,0.749-0.893,0.577c-0.21-0.082-0.431-0.494-0.418-0.744c0.152-3.031-2.322-3.127-4.246-3.82
		c-0.491-0.177-1.218,0.097-1.454-0.544c-0.253-0.691,0.476-0.896,0.852-1.254c0.466-0.443,1.075-0.92,0.597-1.59
		c-0.512-0.716-1.287-0.482-1.92-0.085c-1.447,0.907-2.631,1.879-2.389,3.953c0.304,2.603-0.329,3.002-3,2.264
		c-0.708-0.195-1.383-0.473-1.933,0.263c-0.995,1.332-1.075,5.803-0.202,7.369c1.588,2.854,3.636,4.955,7.228,4.815
		c0.59-0.023,1.464,0.019,1.503,0.813c0.043,0.844-0.773,0.926-1.404,0.823c-1.266-0.207-1.628,0.124-1.108,1.377
		c0.36,0.865-0.062,1.72-0.885,1.915c-1.002,0.235-0.614-0.823-0.823-1.318c-0.807-1.905-2.206-2.877-4.28-2.503
		c-0.892,0.161-1.64,0.448-2.321-0.452c-1.42-1.873-3.012-3.331-5.96-0.891c0.798-2.228,0.554-3.803,1.706-5.009
		c0.492-0.515,0.429-1.206-0.244-1.627c-0.552-0.348-1.138-0.214-1.438,0.344c-0.775,1.435-1.459,1.168-2.546,0.214
		c-1.226-1.075-2.917-0.48-4.334-0.424c-1.228,0.049-0.105,1.284-0.298,1.952c-0.062,0.215-0.177,0.528-0.341,0.584
		c-1.421,0.489-1.542,1.846-2.116,2.943c-1.566,2.982-1.631,2.943-4.141,0.96c-0.817-0.646-2.246-0.824-1.609-2.4
		c0.453-1.116-0.171-1.884-0.908-2.466c-0.926-0.731-1.675,0.139-2.284,0.648c-2.178,1.823-4.227,3.798-6.698,5.261
		c-0.787,0.466-1.047,1.2-0.236,1.954c1.199,1.114,0.54,1.773-0.646,1.818c-2.345,0.087-1.405,1.239-0.923,2.337
		c0.342,0.779,1.565,1.145,1.207,2.312c-1.262,0.229-2.031-1.576-3.145-0.737c-1.694,1.277-4.146,1.701-4.791,4.248
		c-0.197,0.777-1.179,1.376-0.414,2.32c0.724,0.895,1.474,1.684,2.807,1.079c0.634-0.288,1.306-0.231,1.563,0.547
		c0.265,0.791-0.066,1.391-0.844,1.711c-0.219,0.09-0.454,0.138-0.685,0.192c-0.64,0.149-1.282,0.341-1.337,1.123
		c-0.05,0.742,0.615,1.021,1.061,1.46c0.619,0.611,1.84,0.506,2.135,1.78c-0.922,0.144-2.466-0.743-2.314,0.764
		c0.158,1.57,0.125,2.979-0.398,4.455c-0.167,0.47,0.27,1.094,0.782,1.369c0.835,0.448,1.617,0.869,2.227,1.68
		c0.64,0.852,1.534,0.467,1.973-0.267c0.822-1.371,2.416-1.434,3.517-2.305c0.483-0.382,1.33-0.441,1.315,0.236
		c-0.026,1.177,1.398,2.555-0.406,3.585c-0.751,0.429-0.635,1.226-0.234,1.897c0.436,0.729,1.149,0.968,1.822,0.471
		c2.196-1.621,1.907,1.067,2.347,1.625c0.874,1.111-0.625,0.955-1.247,1.174c-1.417,0.496-1.946,1.655-0.641,2.349
		c1.531,0.814,2.249,2.144,3.247,3.31c0.461,0.538,1.647,1.052,0.968,1.859c-0.719,0.849-1.335-0.231-1.941-0.656
		c-0.988-0.694-2.037-1.234-3.306-0.979c-3.293,0.661-5.476-0.901-5.678-4.323c-0.107-1.81-0.901-2.004-2.04-1.086
		c-1.194,0.962-2.522,0.882-3.825,0.938c-1.403,0.06-2.195-0.554-1.293-2.055c0.579-0.961,0.668-1.832-0.461-2.386
		c-1.206-0.592-1.288-1.937-2.049-2.835c-1.197-1.417,0.589-1.999,1.003-2.973c0.42-0.992,0.565-2.016-0.088-2.943
		c-0.487-0.692-1.292-0.764-1.893-0.266c-1.061,0.878-1.866,0.533-2.664-0.3c-0.984-1.029-0.017-1.707,0.47-2.459
		c0.31-0.481,0.651-0.971,0.109-1.478c-0.502-0.468-1.01-0.194-1.52,0.078c-2.579,1.372-3.115,2.455-2.52,5.224
		c0.068,0.314,0.24,0.646-0.057,0.872c-0.401,0.306-0.803,0.062-0.999-0.273c-0.737-1.272-1.937-2.079-2.988-3.024
		c-1.052-0.948-2.082-1.25-2.686,0.519c-0.667,1.955-2.144,1.825-3.643,1.249c-0.943-0.363-1.839-0.905-2.676-1.484
		c-0.89-0.617-1.767-0.974-2.438,0.096c-0.596,0.951-0.276,1.835,0.771,2.354c0.572,0.284,1.331,0.538,0.98,1.335
		c-0.391,0.89-0.511,2.132-1.779,2.293c-0.713,0.091-1.433-0.026-1.867,0.727c-1.28,2.22-2.524,0.93-3.092-0.344
		c-0.708-1.587-0.417-3.533-1.51-5.1c-0.239-0.342,0.301-0.815,0.765-1.042c0.563-0.276,1.2-0.501,1.627-0.929
		c0.626-0.625,1.907-0.937,1.575-2.126c-0.287-1.021-1.348-0.488-2.059-0.68c-0.513-0.138-0.945-0.55-1.449-0.753
		c-1.136-0.457-2.108-0.66-1.705,1.192c0.337,1.55-1.03,2.182-1.959,2.599c-1.391,0.622-0.779-1.177-1.368-1.564
		c-1.145-0.754-0.965-3.57-3.31-2.335c-1.103,0.581-1.678,0.974-2.285-0.497c-0.366-0.886-1.323-0.859-2.015-0.267
		c-0.761,0.654-0.599,1.376,0.154,2.001c0.39,0.323,1.284,0.333,1.052,1.046c-0.245,0.748-1.037,0.478-1.661,0.482
		c-2.503,0.02-5.497,2.282-5.799,4.398c-0.222,1.566,0.607,3.683-2.163,3.844c-0.152,0.009-0.385,0.669-0.375,1.02
		c0.031,1.065-0.628,1.475-1.441,1.938c-2.331,1.327-2.504,2.314-0.861,4.301c0.258,0.311,0.625,0.596,0.331,0.997
		c-0.333,0.453-0.902,0.447-1.265,0.117c-0.457-0.415-0.737-1.016-1.154-1.485c-1.455-1.645-2.743-1.547-4.172,0.141
		c-0.888,1.047-1.619,2.121-1.952,3.475c-0.165,0.669-0.429,1.575-1.404,0.71c-0.517-0.459-0.982-1.372-1.71-0.701
		c-0.839,0.776,0.248,1.365,0.555,2.018c0.492,1.038,1.509,2.483-0.074,2.978c-1.544,0.484-2.303,1.452-3.228,2.504
		c-0.56,0.637-1.125,1.153-0.605,2.039c0.578,0.983,1.503,1.379,2.598,1.367c0.984-0.011,1.416-0.481,1.263-1.527
		c-0.103-0.712,0.503-0.672,0.98-0.628c1.778,0.163,2.84,2.086,2.045,3.73c-0.331,0.683-0.279,1.389-0.253,2.095
		c0.029,0.739,0.152,1.552,1.136,1.454c1.04-0.104,0.963-0.849,0.654-1.599c-0.267-0.645-0.302-1.269,0.349-1.684
		c0.675-0.431,1.375-0.34,1.975,0.18c0.615,0.532,1.2,0.976,2.118,0.742c1.534-0.392,3.482,0.662,4.578-1.347
		c0.055-0.104,0.735,0.078,1.094,0.208c2.439,0.875,3.57,0.281,4.161-2.273c0.179-0.773,0.149-1.692,1.157-1.839
		c1.019-0.148,2.094,0.28,2.381,1.187c0.439,1.384,1.374,2.188,2.332,3.125c0.512,0.501,1.466,1.509,0.656,2.222
		c-0.915,0.804-1.741-0.014-2.224-0.94c-0.518-0.996-1.275-1.831-2.418-1.451c-1.479,0.489-3.795,1.47-3.632,2.556
		c0.278,1.858-0.607,3.581-0.099,5.306c0.594,2.017-0.255,2.092-1.766,1.467c-0.681-0.281-1.448-0.607-1.792,0.347
		c-0.303,0.843,0.373,1.284,1.031,1.628c0.489,0.256,0.965,0.591,1.491,0.726c1.714,0.438,1.816,1.098,0.611,2.377
		c-1.199,1.273-1.287,4.303-0.197,5.382c0.656,0.649,1.023,1.182,0.568,2.034c-0.457,0.856-1.329,0.934-2.077,0.773
		c-1.455-0.313-2.851-0.826-4.107-1.704c-1.404-0.98-2.901-0.295-2.905,1.033c-0.008,2.38-1.155,3.258-3.091,3.907
		c-0.612,0.204-1.092,0.895-1.555,1.429c-1.214,1.399-2.277,1.918-3.899,0.308c-1.417-1.405-6.185-1.07-7.315,0.153
		c-1.498,1.622-0.181,3.83-1.236,5.604c-0.452,0.761,0.676,1.062,1.221,1.467c0.458,0.341,0.461,0.802,0.175,1.256
		c-0.238,0.378-0.848,0.603-0.964,0.281c-0.546-1.51-3.044-2.073-2.07-4.315c0.323-0.74,0.176-1.69-0.787-1.496
		c-1.554,0.314-2.353,1.802-3.178,2.984c-0.666,0.954,0.129,1.766,1.066,2.25c0.573,0.297,1.268,0.567,0.719,1.389
		c-0.45,0.673-1.207,1.478-1.935,0.911c-2.363-1.84-3.722,0.569-5.48,1.152c-0.666,0.222-1.081,1.014-0.615,1.786
		c0.456,0.756,1.19,0.683,1.885,0.34c0.422-0.209,0.792-0.526,1.209-0.748c0.447-0.237,1.113-0.333,1.245,0.164
		c0.257,0.973,0.299,2.014,0.344,3.031c0.019,0.409-0.378,0.899-0.751,0.69c-1.477-0.826-3.137,0.472-4.607-0.525
		c-0.781-0.53-1.728-0.5-2.265,0.45c-0.461,0.816-0.145,1.647,0.598,2.062c1.203,0.673,1.496,1.472,0.909,2.714
		c-0.268,0.569-0.014,1.112,0.609,1.34c0.576,0.211,1.125,0.063,1.484-0.436c0.365-0.507,0.579-1.132,0.983-1.596
		c0.375-0.428,0.972-0.604,1.523-0.322c0.542,0.276,0.362,0.787,0.253,1.254c-0.189,0.815-0.788,1.798,0.25,2.344
		c1.159,0.608,1.619-0.558,2.254-1.207c0.735-0.752,1.333-0.986,1.46,0.436c0.042,0.459,0.076,1.016,0.341,1.341
		c0.951,1.164,0.438,1.536-0.532,2.537c-1.341,1.385-4.567,0.692-4.297,3.86c0.034,0.397-0.822,0.073-1.251-0.052
		c-1.555-0.453-2.561,0.534-3.541,1.424c-0.506,0.459-0.461,1.186-0.06,1.754c0.429,0.607,0.968,0.427,1.422,0.008
		c0.874-0.808,1.566-0.308,2.308,0.23c1.023,0.743,2.086,1.429,3.125,2.149c0.609,0.424,2.018,0.356,1.206,1.709
		c-0.701,1.165-1.465,0.381-2.197-0.057c-0.491-0.295-1.04-0.544-1.49,0.017c-0.353,0.438-0.135,0.924,0.177,1.296
		c1.178,1.404,1.625,2.853,0.546,4.549c-0.36,0.566-0.164,1.239,0.144,1.821c0.448,0.845,0.662,1.643-0.362,2.244
		c-1.036,0.605-1.372-0.23-1.835-0.869c-0.46-0.631-1.083-1.023-1.824-0.509c-0.627,0.437-0.46,1.104-0.261,1.733
		c0.254,0.807,0.718,1.365,1.562,1.639c1.125,0.361,2.27,0.715,3.317,1.248c0.803,0.408,2.133,0.924,1.842,1.871
		c-0.347,1.135-1.494,0.14-2.25,0.043c-1.885-0.236-4.052,0.287-5.104-2.268c-0.336-0.814-1.911-0.668-2.852-0.156
		c-0.914,0.498-0.448,1.383-0.295,2.142c0.074,0.364,0.278,0.772-0.336,1.084c-0.274-0.142-0.846-0.249-0.917-0.499
		c-0.527-1.885-1.807-1.979-3.442-1.768c-0.581,0.073-1.618,0.159-1.907-0.566c-0.306-0.77,0.299-1.493,0.797-2.12
		c0.246-0.31,0.546-0.584,0.744-0.92c0.375-0.636,0.293-1.329-0.337-1.663c-1.02-0.539-1.784-1.639-3.057-1.589
		c-0.406,0.017-0.457,0.594-0.403,0.996c0.071,0.546,0.29,1.094,0.265,1.631c-0.05,1.058-0.435,2.119-1.337,2.641
		c-0.851,0.495-1.419-0.44-1.953-0.97c-0.933-0.924-2.003-1.299-3.246-0.905c-1.423,0.451-2.535,0.268-3.631-0.889
		c-0.913-0.962-2.021-0.988-2.524,0.567c-0.202,0.619-0.812,1.105-0.917,1.564c-0.487,2.119,0.018,4.509-1.863,6.217
		c0.265,0.29,0.541,0.57,0.793,0.87c0.293,0.351,0.307,0.726-0.021,1.058c-0.313,0.316-0.735,0.367-1.09,0.148
		c-0.535-0.33-1.001-0.77-1.525-1.118c-0.559-0.37-1.176-0.508-1.782-0.108c-0.607,0.399-0.834,1.099-0.575,1.672
		c0.579,1.277,0.089,2.207-0.569,3.27c-0.572,0.924-0.868,1.868,0.913,2.126c1.801,0.259,2.117,1.706,0.798,3.196
		c-0.598,0.676-0.977,1.316-0.357,2.076c0.619,0.758,1.449,0.586,2.136,0.091c0.763-0.552,1.425-1.24,2.159-1.834
		c0.463-0.376,1.066-0.584,1.466-0.019c0.437,0.617-0.063,0.994-0.591,1.275c-0.481,0.258-1.021,0.453-1.411,0.811
		c-0.36,0.33-0.373,0.86-0.142,1.328c0.253,0.508,0.89,0.771,1.166,0.44c1.511-1.801,4.217-0.455,5.849-2.796
		c-0.857,2.861-0.857,2.873-3.332,2.848c-0.935-0.012-1.511,0.553-1.854,1.269c-0.97,2.028-4.6,1.866-4.139,5.053
		c0.005,0.033-0.121,0.091-0.19,0.128c-2.378,1.249-1.046,1.669,0.456,2.064c0.57,0.149,1.02,0.462,1.118,1.089
		c0.068,0.426-0.092,0.784-0.499,0.974c-0.646,0.3-1.265,0.172-1.758-0.298c-0.627-0.601-1.134-1.332-1.8-1.877
		c-0.686-0.562-1.529-0.89-2.427-0.446c-0.551,0.271-0.775,0.788-0.714,1.389c0.099,0.965,0.618,1.686,1.567,1.864
		c2.675,0.505,4.582,1.589,4.271,4.782c-0.047,0.477,0.56,1.132-0.188,1.396c-0.934,0.332-0.99-0.537-1.106-1.125
		c-0.21-1.045-0.755-1.736-1.826-1.92c-1.032-0.179-1.254,0.687-1.725,1.313c-0.759,1.013-1.727,1.731-3.107,1.481
		c-0.132-0.818,0.41-0.939,0.8-1.166c0.684-0.396,1.225-0.95,0.739-1.713c-0.447-0.701-1.132-0.258-1.695,0.021
		c-0.354,0.174-0.682,0.403-1.032,0.587c-0.83,0.436-2.063,0.74-1.871,1.857c0.241,1.387,1.091,2.672,2.341,3.387
		c1.04,0.595,1.708-0.475,2.401-1.075c0.414-0.358,0.771-0.782,1.147-1.188c0.386-0.414,0.609-1.395,1.385-0.731
		c0.622,0.531,0.065,1.151-0.364,1.628c-0.266,0.292-0.59,0.529-0.852,0.826c-0.328,0.37-0.559,0.801-0.212,1.271
		c0.273,0.373,0.686,0.314,1.086,0.248c0.508-0.085,1.104-0.753,1.503-0.135c0.532,0.824-0.364,1.227-0.816,1.725
		c-0.475,0.524-0.7,1.093-0.159,1.681c0.528,0.573,1.118,0.493,1.679,0.015c0.406-0.348,0.854-1.162,1.311-0.795
		c2.474,1.988,3.999,0.35,5.658-1.238c0.641-0.613,1.389-0.289,1.76,0.465c0.403,0.816-0.177,1.137-0.869,1.297
		c-1.688,0.399-2.765,1.806-4.23,2.574c-0.421,0.223-0.8,0.575-0.595,1.142c0.156,0.432,0.58,0.546,0.974,0.543
		c2.213-0.015,4.222-1.661,6.559-0.843c0.076,0.025,0.328-0.317,0.432-0.522c0.607-1.183,1.528-0.932,2.433-0.504
		c1.09,0.515,1.309,1.551,1.285,2.604c-0.025,1.078-0.867,1.366-1.762,1.604c-1.873,0.495-3.715,0.741-5.574-0.085
		c-0.502-0.224-1.102-0.247-1.551,0.22c-0.301,0.313-0.435,0.778-0.144,1.078c1.063,1.092,2.449,1.702,3.82,2.287
		c1.037,0.445,1.376-0.294,1.673-1.111c0.182-0.504,0.588-0.418,0.949-0.137c1.434,1.12,2.504,0.003,3.288-0.821
		c0.939-0.991,1.584-1.62,3.11-1.06c1.097,0.402,2.227-0.336,1.591-1.712c-1.068-2.313-0.053-2.601,1.906-2.395
		c1.098,0.116,2.239-0.081,3.314,0.12c1.213,0.225,2.908,0.469,1.146,2.301c-0.609,0.633-0.51,1.287,0.041,1.897
		c0.538,0.596,0.889,1.278,1.212,2.016c0.849,1.943,1.93,2.177,3.595,0.757c0.558-0.478,1.042-0.898,1.526-0.147
		c0.454,0.702-0.101,1.146-0.714,1.471c-1.252,0.662-2.488,1.353-3.741,2.007c-1.357,0.713-1.115,1.594-0.21,2.437
		c0.799,0.743,4.62,0.752,5.175-0.147c1.301-2.111,1.8-1.351,2.295,0.415c0.124,0.443,0.437,0.839,0.69,1.239
		c0.38,0.605,1.583,1.003,0.821,1.909c-0.838,0.994-1.683,0.28-2.443-0.362c-0.824-0.699-1.73-0.808-2.593-0.101
		c-0.741,0.607-1.447,1.319-1.349,2.381c0.102,1.102,0.853,1.622,1.898,1.81c0.421,0.075,1.007-0.05,1.082,0.879
		c-1.045,0.391-1.388,1.638-2.402,2.521c-0.254-0.6-0.393-1.039-0.618-1.428c-0.276-0.476-0.743-0.59-1.23-0.367
		c-0.642,0.294-0.67,0.796-0.381,1.383c0.257,0.527,1.098,1.096,0.464,1.626c-0.723,0.604-1.177-0.472-1.791-0.715
		c-0.722-0.285-1.546-0.901-2.08,0.065c-0.491,0.891,0.234,1.491,0.982,1.847c1.284,0.605,2.532,1.302,3.965,1.554
		c1.158,0.203,2.339-0.1,2.563-1.152c0.34-1.593,1.693-2.226,2.473-3.367c0.356-0.521,0.85-1.118,1.525-0.471
		c0.533,0.512,0.42,1.258-0.046,1.721c-0.607,0.604-1.396,1.019-2.068,1.562c-0.377,0.306-0.663,0.733-0.389,1.246
		c0.27,0.503,0.758,0.55,1.233,0.358c1.393-0.563,3.387-0.26,3.439-2.662c2.183,1.85,2.887,1.765,4.521-0.364
		c0.289-0.375,0.482-0.834,0.808-1.171c1.101-1.141,2.377-0.869,2.868,0.662c0.386,1.21,0.549,2.492,1.939,3.065
		c0.395,0.163,0.594,0.548,0.31,0.974c-0.245,0.365-0.601,0.416-1.038,0.326c-3.344-0.681-6.427,0.24-9.381,1.679
		c-0.943,0.457-1.008,1.454-0.492,2.267c0.582,0.915,1.412,0.59,2.015-0.023c1.737-1.767,4.763,0.048,6.288-2.287
		c0.034-0.051,0.494,0.058,0.624,0.205c2.18,2.496,4.883,1.173,6.952,0.332c1.613-0.652,3.797-1.646,4.276-3.98
		c0.918,0.346,2.042,1.375,2.752,0.197c1.097-1.821-1.53-1.975-1.922-3.243c1.213-0.832,2.404-0.97,3.207,0.22
		c1.736,2.574,4.129,2.016,5.978,0.814c1.371-0.894,4.808-1.106,2.635-4.594c2.024,0.529,3.625,1.86,5.25-0.271
		c0.524-0.688,1.854-0.016,1.526,1.385c-0.192,0.82-0.459,1.639,0.69,1.865c0.989,0.195,1.394-0.516,1.668-1.323
		c0.39-1.146,1.069-2.004,2.557-2.579c-0.402,1.32-1.689,2.163-0.923,3.293c1.078,1.59,0.085,2.896-0.942,3.414
		c-1.775,0.892-2.82,2.385-4.167,3.645c-0.729,0.68-1.907,0.926-1.68,2.271c0.084,0.502,0.371,0.907,0.866,1.036
		c1.294,0.335,1.775-0.756,2.464-1.473c0.053-0.056,0.092-0.128,0.143-0.188c0.395-0.457,0.708-1.287,1.458-0.852
		c0.805,0.47,0.211,1.097-0.13,1.604c-0.42,0.625-0.671,1.28-0.317,2.002c0.303,0.611,1.151,1.246,1.441,0.654
		c1.104-2.254,3.608-2.97,4.968-4.951c1.418-2.07,1.67-5.093,4.639-5.985c0.214-0.064,0.343-0.507,0.453-0.798
		c0.236-0.629,0.106-1.586,1.092-1.586c0.864,0,0.982,0.92,1.373,1.479c1.048,1.502,2.157,2.241,4.197,1.458
		c2.07-0.795,4.526-0.212,6.576-1.618c-0.825,1.295-1.19,3.564-2.414,3.371c-3.087-0.485-3.922,2.24-5.804,3.375
		c-1.108,0.67-0.216,1.863,0.179,2.782c0.281,0.656,0.757,1.031,1.503,0.777c0.849-0.291,1.369-0.793,1.028-1.789
		c-0.146-0.424-0.065-0.812,0.409-0.95c0.53-0.16,0.897,0.108,1.177,0.555c0.83,1.322,0.291,2.554-1.408,3.091
		c-1.047,0.333-2.116,0.76-1.699,2.078c0.402,1.27,1.534,1.063,2.604,0.854c1.392-0.274,1.856-1.887,2.968-2.207
		c1.844-0.534,2.253-1.321,0.855-3.24c1.831,0.357,4.367,1.466,2.193-1.627c-0.331-0.473,0.03-0.985,0.454-1.196
		c1.221-0.61,2.38-1.771,3.899-0.647c0.584,0.434,1.165,0.449,1.722-0.054c0.623-0.559,1.014-1.182,0.767-2.089
		c-0.153-0.563-0.863-1.014-0.327-1.833c0.27,0.11,0.606,0.157,0.795,0.349c0.588,0.588,0.992,1.697,2.052,1.086
		c0.967-0.557,0.196-1.394,0.015-2.111c-0.135-0.536,0.054-1.128,0.613-1.002c1.535,0.348,2.324,1.753,2.835,2.957
		c0.512,1.207-0.666,1.686-1.834,1.799c-1.754,0.169-2.467,1.595-3.16,2.913c-0.417,0.792,0.052,1.53,0.658,2.114
		c0.413,0.399,0.899,0.742,1.484,0.527c0.938-0.342,0.613-1.135,0.554-1.824c-0.15-1.735,0.752-2.259,2.333-2.041
		c0.938,0.129,1.889,0.313,2.821,0.263c1.35-0.075,2.267-0.65,1.198-2.106c-1.354-1.845,0.057-2.379,1.337-2.869
		c1.026-0.393,2.011,0.189,2.986,0.496c1.207,0.379,1.682,0.983,0.492,1.938c-0.865,0.695-1.526,1.449-1.062,2.623
		c0.582,1.469,1.797,0.219,2.729,0.529c0,1.448-0.064,2.754-1.974,2.877c-0.582,0.039-1.213,0.361-1.093,1.011
		c0.285,1.539,1.631,2.054,2.885,2.508c1.103,0.399,1.823-0.072,2.04-1.276c0.115-0.639,0.542-1.559,1.146-0.731
		c1.021,1.396,2.377,0.803,3.572,1.157c4.75,1.408,7.296-1.938,10.334-4.366c0.819-0.655,0.994-2.392,2.303-2.015
		c1.743,0.502,3.438-0.318,5.258,0.385c1.328,0.513,2.094,0.461,1.197,1.979c-0.472,0.8-0.255,1.474,0.66,1.586
		c0.928,0.115,2.475,1.091,2.703-0.149c0.291-1.584,1.463-2.367,2.052-3.604c0.482-1.011,1.029-1.771,2.355-1.353
		c1.52,0.479,0.807,1.669,0.857,2.594c0.018,0.362-0.232,0.741-0.371,1.11c-0.213,0.561-0.215,1.093,0.241,1.537
		c0.535,0.52,1.197,0.53,1.739,0.125c0.952-0.715,1.644-0.847,2.635,0.115c1.024,0.993,2.104,1.004,1.941-0.928
		c-0.082-0.975,0.241-1.553,1.242-1.607c0.996-0.057,1.85-0.332,2.506-1.139c0.335-0.408,0.996-0.627,1.127-0.025
		c0.626,2.873,3.417,1.762,5.047,2.777c1.17,0.73,1.197-0.432,0.955-1.271c-0.79-2.73-0.801-2.728,2.165-3.098
		c-1.202,3.104-0.978,3.967,1.913,6.077c1.265,0.925,2.682,1.646,4.044,2.433c0.537,0.313,1.108,0.31,1.454-0.271
		c0.351-0.587,0.359-1.271-0.154-1.754c-0.45-0.425-1.13-0.613-1.552-1.056c-0.655-0.683-1.271-1.504-0.975-2.534
		c0.227-0.782,0.825-1.474,1.594-1.646c1.205-0.27,1.615,0.894,2.02,1.65c0.735,1.378,1.415,1.893,2.591,0.479
		c0.522-0.625,1.056-0.438,1.65,0.002c0.95,0.705,1.944,1.354,2.951,1.976c0.836,0.516,1.828,0.962,2.592,0.065
		c0.905-1.058,0.035-1.884-0.676-2.647c-0.563-0.606-1.263-0.933-2.08-1.036c-0.938-0.118-1.539-0.766-2.129-1.41
		c-0.325-0.354-0.666-0.773-0.368-1.263c0.313-0.515,0.81-0.188,1.268-0.174c2.561,0.073,4.438,1.52,6.219,3.087
		c1.286,1.128,2.477,0.676,3.366-0.251c1.129-1.175,3.13-1.856,2.789-4.05c-0.042-0.279-0.283-0.561-0.495-0.776
		c-1.612-1.652-1.491-2.179,0.935-2.722c1.22-0.274,1.706-0.653,1.196-1.894c-0.238-0.579-0.52-1.378,0.389-1.543
		c0.849-0.153,1.28,0.599,1.356,1.343c0.431,4.208,1.502,8.309,1.641,12.588c0.111,3.416-0.542,6.775-0.325,10.15
		c0.238,3.697-0.338,4.504-4.109,4.514c-7.114,0.021-14.231,0.088-21.344,0.01c-14.885-0.166-29.743,0.774-44.618,0.938
		c-5.215,0.058-10.44-0.122-15.644,0.147c-12.176,0.627-24.367,0.121-36.549,0.724c-10.731,0.531-21.491,0.499-32.235,0.94
		c-11.458,0.472-22.924,0.688-34.387,1.048c-3.079,0.098-6.157,0.298-9.234,0.483c-0.761,0.047-1.832-0.002-1.762,1.088
		c0.06,0.924,1.074,0.698,1.747,0.785c5.655,0.713,11.34,0.865,17.033,1.061c10.244,0.351,20.41,1.831,30.693,1.957
		c6.228,0.076,12.481,0.229,18.719,0.507c10.745,0.474,21.491,1.038,32.242,1.167c17.014,0.206,34.03,0.219,51.046,0.424
		c24.784,0.298,49.575,0.145,74.362,0.063c2.315-0.008,4.634,0.008,6.951,0.027c2.186-1.057,4.707-1.647,7.52-1.611
		c5.48,0.07,10.922,0.658,16.339,1.461c1.522-0.069,3.045-0.155,4.565-0.266c0.752-0.054,1.637-0.292,2.527,0.602
		c-0.678,0.156-1.344,0.313-2.004,0.474c2.063,0.347,4.121,0.708,6.18,1.071c1.1-0.225,2.232-0.346,3.393-0.342
		c4.021,0.011,8.044,0.065,12.063,0.119c-0.07-0.322-0.065-0.646,0.073-0.972c0.491-1.144,2.162-0.323,3.277-0.571
		c2.731-0.604,5.506,0.252,8.25-0.298c1.007-0.2,1.729,0.196,1.759,1.406c7.154-0.53,14.308-1.134,21.475-1.073
		c0.438-0.679,1.424-0.887,3.155-0.867c17.313,0.189,34.616-0.408,51.923-0.6c6.559-0.072,13.111-0.833,19.662-0.781
		c4.935,0.039,9.716-0.932,14.581-1.258c1.811-0.121,3.641-0.213,5.412-0.563c3.353-0.668,6.728-0.202,10.08-0.42
		c2.676-0.172,5.738,1.221,7.764-1.84c0.319-0.479,1.207-0.664,0.795-1.48c-0.334-0.661-1.141-0.873-1.647-0.618
		c-2.22,1.114-4.354-0.048-6.521-0.071c-10.116-0.113-20.225-0.404-30.333-0.867c-9.078-0.414-18.174-0.059-27.27-0.482
		c-11.053-0.516-22.134-0.377-33.203-0.574c-4.19-0.072-8.382,0.145-12.571-0.389c-1.866-0.238-2.659-1.067-2.853-2.803
		c-0.226-2.002-0.978-3.805-2.083-5.498c-1.917-2.938-4.47-5.318-6.749-7.941c-2.382-2.739-2.075-4.514,0.847-6.701
		c0.631-0.472,1.261-0.917,1.719,0.072c0.891,1.927,3.394,2.236,4.172,4.283c0.183,0.479,0.913,0.479,1.271,0.193
		c1.563-1.24,2.731-0.293,3.97,0.573c1.531,1.073,2.986,3.052,4.941,0.568c0.031-0.041,0.187-0.048,0.222-0.011
		c1.456,1.491,3.308,0.236,4.906,0.709c1.385,0.407,2.272,0.059,2.039-1.541c-0.289-1.984,1.418-2.476,2.52-2.945
		c1.047-0.449,1.59,0.956,2.096,1.845c0.351,0.616,0.616,1.448,1.16,1.754c1.36,0.765,1.817,1.563,1.284,3.164
		c-0.369,1.111,0.331,2.188,1.565,2.577c1.191,0.375,2.114-0.132,2.35-1.318c0.196-0.992,0.666-1.07,1.478-0.969
		c0.593,0.074,1.107-0.158,1.242-0.834c0.303-1.536,1.005-1.046,2.039-0.613c1.864,0.774,3.455,2.767,5.965,1.207
		c0.916-0.565,2.153-0.496,2.13-2c-0.009-0.451,0.257-0.861,0.693-0.766c1.635,0.357,1.704-0.761,2.061-1.865
		c0.437-1.354,2.206-1.668,2.723-0.441c1.128,2.686,2.582,2.457,4.361,0.787c0.519,0.807,0.188,1.371-0.107,1.927
		c-0.357,0.67-0.646,1.356,0.188,1.852c0.688,0.409,1.142-0.104,1.643-0.53c2.341-1.981,5.291-1.813,8.075-2.178
		c0.663-0.087,1.228,0.465,1.331,1.146c0.256,1.66,1.513,2.072,2.84,2.461c0.914,0.266,1.872,0.521,2.546,1.221
		c3.074,3.189,7.133,2.557,10.945,2.891c0.413,0.034,0.819-0.016,1.031-0.41c0.273-0.51-0.031-0.896-0.354-1.268
		c-0.646-0.74-1.881-0.826-2.257-1.829c0.3-0.452,0.61-0.428,0.913-0.314c0.854,0.319,1.834,1.11,2.506-0.054
		c0.536-0.929-0.492-1.341-1.067-1.832c-0.795-0.676-0.583-1.373-0.074-2.09c1.893-2.666,2.203-2.726,5.081-0.938
		c2.014,1.25,2.435,1.037,2.713-1.479c0.915,0.82,1.813,1.733,3.101,0.947c0.733-0.45,0.756-1.23,0.422-1.902
		c-1.248-2.514-1.937-5.421-4.778-6.846c-0.493-0.248-1.413-0.611-0.903-1.357c0.479-0.7,1.374-0.4,1.893,0.112
		c1.671,1.661,3.273,3.396,4.896,5.108c0.404,0.427,0.62,0.958,0.433,1.525c-1.033,3.108,1.756,4.052,3.291,5.609
		c0.747,0.755,1.978,0.486,2.835-0.27c0.889-0.779,0.432-1.551-0.137-2.288c-0.852-1.104-0.611-2.445-0.645-3.671
		c-0.036-1.243,1.391-0.701,2.026-1.222c0.51-0.415,0.777-1.728,1.791-0.733c0.788,0.771,0.233,1.611-0.144,2.4
		c-0.436,0.915-1.27,1.667-1.188,2.793c0.071,0.969,0.525,1.691,1.522,1.854c0.963,0.157,1.262-0.55,1.28-1.315
		c0.037-1.395,1.221-2.18,1.677-3.355c0.771-1.995,1.759-2.266,3.214-0.665c1.403,1.543,2.443,1.284,3.761,0.014
		c1.453-1.401,2.985-2.663,5.001-0.696c0.323,0.314,1.155,0.45,1.572,0.267c1.552-0.693,2.689-0.286,3.781,0.907
		c0.53,0.578,1.416,1.101,2.03,0.209c0.581-0.842-0.133-1.445-0.844-1.9c-0.551-0.354-1.614-0.454-1.188-1.431
		c0.707-1.622-0.336-2.308-1.365-3.097c-1.32-1.006-2.616-2.043-3.915-3.078c-0.434-0.344-0.979-0.73-0.48-1.344
		c0.378-0.465,0.874-0.158,1.285,0.079c0.86,0.496,1.989,1.53,2.616,0.265c0.611-1.233-0.891-1.802-1.796-2.355
		c-0.807-0.493-1.646-0.878-2.688-0.619c-2.896,0.725-3.186,0.469-3.135-2.543c0.009-0.554,0.065-1.105,0.111-1.658
		c0.119-1.457-0.543-1.871-1.878-1.43c-3.005,0.993-4.687,0.491-6.13-2.167c-0.625-1.151-1.279-1.442-2.444-1.144
		c-1.707,0.438-2.924,0.279-2.229-2.004c0.194-0.64,0.101-1.265-0.398-1.764c-1.597-1.598-1.958-4.102-4.091-5.359
		c-0.881-0.521-0.477-1.683-0.09-2.402c0.559-1.041,1.314-0.132,1.769,0.193c2.634,1.892,4.826,4.225,6.487,7.021
		c0.421,0.709,0.805,2.125,1.696,1.167c0.924-0.994,2.307-1.699,2.715-3.185c0.154-0.562,0.004-1.486,0.818-1.529
		c0.868-0.046,1.098,0.787,1.197,1.508c0.277,2.016,1.272,1.887,2.604,0.928c0.857-0.619,1.928-1.216,2.87-0.886
		c2.227,0.779,3.115-1.021,4.405-2.002c0.736-0.56,0.667-1.418,0.099-2.121c-0.55-0.684-1.297-0.938-2.108-0.474
		c-0.403,0.229-0.703,0.636-1.092,0.904c-2.565,1.787-4.748,1.543-6.202-0.655c-0.212-0.319-0.632-0.563-0.387-1.018
		c0.212-0.392,0.746-0.603,1.012-0.388c2.62,2.105,3.906,0.564,5.469-1.563c0.939-1.281,0.923-1.838-0.236-2.602
		c-0.582-0.384-1.425-0.563-1.377-1.448c0.058-1.047,0.925-0.856,1.619-0.899c0.678-0.041,0.902-0.547,1.072-1.101
		c0.307-0.989,1.104-1.268,1.863-0.814c2.619,1.565,6.107,1.12,8.306,3.651c0.281,0.325,0.829,0.463,1.279,0.592
		C481.192,289.134,481.803,288.966,481.373,287.712z M53.071,304.348c-0.354,0.205-0.747,0.354-1.11,0.106
		c-0.465-0.313-0.493-0.836-0.25-1.265c0.921-1.619,0.262-2.018-1.351-2.061c-0.851-0.021-1.576-0.701-2.14-1.379
		c-0.486-0.585-0.764-1.335-0.124-1.911c0.765-0.687,1.061,0.168,1.402,0.646c0.358,0.502,0.781,0.9,1.338,0.377
		c0.654-0.615,0.622-1.383,0.236-2.174c-0.217-0.44-1.024-0.957-0.326-1.383c0.771-0.468,0.993,0.428,1.288,0.95
		c0.309,0.55,0.677,1.075,0.918,1.651c0.486,1.165,0.997,2.048,2.386,0.935c0.693-0.555,1.161-0.354,1.231,0.754
		C55.45,301.107,54.977,303.232,53.071,304.348z M58.277,301.954c-0.219-0.312-0.061-0.601,0.211-0.812
		c0.561-0.438,1.154-0.5,1.749-0.076c1.385,0.984,2.263,0.901,2.298-0.931c-0.182-1.612,0.666-2.825,1.218-4.062
		c0.431-0.96,1.642-0.903,2.552-0.563c1.006,0.375,1.038,1.446,0.871,2.24c-0.25,1.188-0.596,2.159,0.477,3.229
		c0.665,0.666-0.208,1.461-0.681,2.051c-0.654,0.813-0.972,0.145-1.427-0.35c-0.999-1.078-2.245-0.119-3.374-0.266
		c-0.778-0.104-1.579-0.014-2.37-0.041C59.264,302.357,58.655,302.493,58.277,301.954z M71.642,316.43
		c-1.604,1.135-3.907,1.488-4.244,4.021c-0.077,0.579-0.715,0.626-1.065,0.107c-0.971-1.434-2.135-2.051-3.992-1.852
		c-1.603,0.173-1.705-1.624-2.258-2.68c-0.639-1.221,0.652-1.104,1.186-1.533c0.483-0.391,0.896-0.874,1.327-1.331
		c0.475-0.505,1.247-0.913,1.676-0.481c2.308,2.311,5.108,0.739,7.648,1.108c0.58,0.084,1.273-0.258,1.593,0.556
		C73.226,315.386,72.408,315.889,71.642,316.43z M98.037,202.894c-0.131,0.473-0.469,0.845-0.998,0.889
		c-0.609,0.05-0.784-0.43-0.922-0.89c-0.395-1.314-0.979-2.376-3.229-1.81c1.866-1.864,2.815-3.34,1.116-5.362
		c-0.577-0.686,0.155-1.925,0.95-3.069c1.176,2.222,2.427,3.83,5.17,2.684C99.899,198.183,98.706,200.47,98.037,202.894z
		 M127.871,317.421c-0.653,0.272-1.286,0.595-1.942,0.856c-0.952,0.385-1.889,0.212-2.06-0.846c-0.445-2.773-1.856-2.156-3.47-1.149
		c-2.049,1.276-3.662,0.708-5.407-1.535c2.001,0.149,3.179-0.79,4.572-1.045c1.172-0.213,1.722-1.033,1.614-2.234
		c-0.066-0.724-0.206-1.479,0.754-1.712c0.853-0.205,1.552,0.12,2.052,0.825c0.41,0.576,0.879,1.137,1.152,1.778
		c0.498,1.168,1.153,1.969,2.543,2.091c0.824,0.071,1.463,0.661,1.533,1.56C129.283,316.908,128.534,317.145,127.871,317.421z
		 M320.699,143.146c1.666-2.398,3.263-4.834,4.188-7.643c0.332-1.01,0.817-1.069,1.42-0.145c0.47,0.718,1.012,1.388,1.521,2.08
		c-0.127,0.287-0.188,0.652-0.313,0.677c-3.414,0.649-2.95,4.562-5.218,6.195c-0.531,0.383-0.742,1.383-1.627,0.706
		C319.938,144.454,320.25,143.793,320.699,143.146z M338.68,332.32c1.471,3.021-0.512,5.121-1.989,7.254
		c-1.821,2.625-3.53,5.255-3.921,8.506c-0.153,1.277-0.773,1.832-2.058,1.676c-4.655-0.568-9.334-0.146-13.999-0.309
		c-1.147-0.039-2.292,0.199-2.823-1.446c-0.433-1.346-1.689-0.837-2.236-0.041c-1.032,1.503-2.425,1.515-3.968,1.509
		c-12.511-0.045-25.021-0.051-37.528-0.084c-1.415-0.005-2.804-0.412-4.253-0.13c-1.135,0.222-1.598-0.657-2.084-1.552
		c-3.336-6.146-2.711-12.854-2.774-19.452c-0.016-1.54,3.978-5.793,5.521-6.153c0.484-0.113,0.992-0.154,1.225,0.387
		c0.232,0.549-0.136,1.063-0.579,1.111c-2.12,0.241-2.767,2.213-4.095,3.369c-0.65,0.565-0.941,1.434-0.229,2.085
		c0.814,0.746,1.398,0.081,1.899-0.616c1.688-2.354,4.063-0.726,6.104-0.947c0.815-0.088,1.229-0.049,2.026-0.646
		c1.392-1.044,3.288-1.377,4.672-2.729c0.429-0.418,1.681,0.08,2.371,0.678c0.414,0.357,0.388,0.863,0.127,1.303
		c-0.454,0.762-1.155,1.022-2.026,0.926c-1.687-0.188-2.512,0.453-1.856,2.187c0.507,1.342-0.166,2.094-1.108,2.8
		c-0.383,0.284-0.854,0.6-0.687,1.13c0.206,0.65,0.86,0.583,1.407,0.615c0.236,0.012,0.477-0.033,0.711-0.021
		c0.883,0.047,1.969-0.821,2.602,0.305c0.587,1.044-0.722,1.418-1.057,2.152c-0.521,1.145-0.803,2.422,0.187,3.313
		c1.022,0.925,2.124,0.165,2.956-0.583c1.235-1.108,2.432-2.278,3.525-3.524c0.992-1.133,1.734-1.162,2.598,0.111
		c0.534,0.789,1.002,1.585,1.41,2.452c0.713,1.507,2.186,1.188,3.344,0.884c1.471-0.393,0.066-1.191,0.059-1.816
		c-0.015-1.446,0.892-2.58,1.867-3.358c0.97-0.771,1.631,0.353,2.246,1.083c0.286,0.341,0.846,0.822,1.125,0.736
		c2.265-0.69,4.023,1.693,6.379,0.893c1.127-0.386,1.836,1.003,2.642,1.734c0.602,0.55,0.835,1.791,1.937,1.438
		c1.22-0.39,1.146-1.558,1.128-2.604c-0.004-0.229,0.039-0.459,0.068-0.777c1.754,0.023,3.482,0.921,4.226-1.555
		c0.354-1.183,1.479-0.28,2.235-0.041c0.512,0.162,1.023,0.668,1.532,0.227c0.632-0.554,0.092-1.163-0.122-1.729
		c-0.193-0.521-0.468-1.014-0.61-1.543c-0.206-0.762-0.063-1.485,0.777-1.741c0.909-0.276,1.675,0.132,1.76,1.067
		c0.319,3.489,4.077,2.323,5.6,4.178c0.086,0.104,0.856-0.11,1.02-0.362c0.913-1.435,2.411-1.42,3.793-1.556
		c1.034-0.1,1.15-0.461,1.244-1.463c0.217-2.313-0.52-4.256-1.631-6.174c-0.629-1.08-0.772-2.069,0.815-2.546
		c0.782-0.233,1.298-0.862,1.561-1.676c0.153-0.474,0.006-1.271,0.817-1.197c0.55,0.05,0.639,0.662,0.701,1.123
		c0.155,1.104,0.898,1.537,1.847,1.923c4.26,1.735,5.136,3.637,3.752,7.859C338.715,331.393,338.512,331.973,338.68,332.32z
		 M380.414,157.691c-1.43,0.75-2.343-0.088-2.774-1.228c-0.521-1.371,0.521-1.425,1.581-1.489c1.075-0.065,0.889-0.853,0.576-1.571
		c-0.189-0.44-0.379-0.911,0.092-1.278c0.488-0.381,1.071-0.317,1.554-0.033c1.067,0.631,1.963,1.556,3.268,1.779
		c0.318,0.054,0.521,0.548,0.254,0.733c-0.933,0.649-1.08,1.498-1.197,2.575c-0.108,0.998-1.006,0.147-1.41,0.219
		C381.563,157.176,380.985,157.393,380.414,157.691z M424.247,218.056c-0.822,2.506-1.806,4.085-4.316,4.939
		c-1.225,0.416-2.034,1.628-2.487,3.005c-0.358,1.094-1.112,1.982-2.515,1.534c-1.168-0.373-2.229-0.823-0.971-2.268
		c0.345-0.396,0.925-0.818,0.392-1.401c-0.433-0.473-1.021-0.24-1.556-0.07c-3.114,0.988-3.573,1.664-2.97,4.625
		c-1.225-0.145-1.882-1.143-2.813-1.607c-0.681-0.338-1.424-1.133-2.102-0.336c-0.697,0.818,0.017,1.579,0.543,2.294
		c0.429,0.581,2.199,0.39,1.287,1.63c-0.687,0.931-1.725,0.902-3.104,0.304c-2.854-1.239-5.917-3.01-9.105-0.522
		c-0.86,0.67-1.477,0.13-1.866-0.69c-0.492-1.034-1.257-1.817-2.202-2.427c-0.613-0.396-1.278-0.676-1.992-0.217
		c-0.604,0.388-0.938,1.774-1.798,1.077c-1.791-1.452-4.674-1.021-5.825-3.488c-0.186-0.398-0.271-0.743,0.014-1.086
		c0.409-0.491,0.983-0.653,1.477-0.267c2.024,1.589,4.054-0.542,6.202,0.06c1.145,0.32,1.003-1.648,1.491-2.885
		c1.38,1.969,3.893,1.58,5.125,3.333c0.238,0.339,0.914-0.019,1.113-0.523c0.313-0.79,0.312-1.655-0.357-2.193
		c-0.923-0.74-1.313-1.491-0.849-2.646c0.345-0.855,0.896-1.273,1.808-1.195c0.835,0.072,1.213,0.597,1.421,1.361
		c0.229,0.844-0.262,2.271,1.021,2.331c1.138,0.051,2.347-0.789,2.952-1.722c1.106-1.699,3.078-2.85,2.91-5.439
		c-0.101-1.544,1.585-1.791,2.648-0.943c1.626,1.299,4.271,1.626,4.482,4.425c0.045,0.59,0.753,0.726,1.31,0.851
		c0.692,0.156,1.409,0.271,2.062,0.54c1.658,0.681,3.226,2.366,4.953,0.012c1.076-1.463,2.358-2.771,1.907-4.921
		C423.869,214.779,425.059,215.589,424.247,218.056z M434.7,251.917c0.265,0.487,0.324,1.106-0.138,1.535
		c-0.646,0.596-1.174,0.046-1.635-0.337c-0.835-0.698-2.438-1.014-1.8-2.58c0.385-0.942-0.442-2.479,1.416-2.812
		c1.601-0.284,3.07-0.585,4.291,1.313C434.108,248.69,433.507,249.719,434.7,251.917z"/>
</g>
</svg>
