<?xml version="1.0" encoding="utf-8"?>
<!-- Generator: Adobe Illustrator 15.0.0, SVG Export Plug-In . SVG Version: 6.00 Build 0)  -->
<!DOCTYPE svg PUBLIC "-//W3C//DTD SVG 1.1//EN" "http://www.w3.org/Graphics/SVG/1.1/DTD/svg11.dtd">
<svg version="1.1" id="Layer_1" xmlns="http://www.w3.org/2000/svg" xmlns:xlink="http://www.w3.org/1999/xlink" x="0px" y="0px"
	 width="500px" height="500px" viewBox="0 0 500 500" enable-background="new 0 0 500 500" xml:space="preserve">
<circle fill="#59595B" cx="249.316" cy="249.316" r="249.316"/>
<g>
	<path fill="#FFFFFF" d="M337.525,82.553c-1.646-0.137-2.959-0.449-1.576-2.516c0.503-0.752,0.084-1.082-0.688-0.966
		c-0.563,0.084-1.105,0.309-1.665,0.454c-1.536,0.402-1.985,0.031-2.166-1.765c-0.513-5.152,2.406-8.478,5.575-11.756
		c1.863-1.926,3.814-3.766,5.694-5.676c0.892-0.907,1.809-1.934,3.173-1.28c1.372,0.658,1.495,2.042,1.346,3.421
		c-0.078,0.735-0.207,1.469-0.231,2.206c-0.021,0.61,0.226,1.39,0.931,1.1c2.15-0.885,2.51,0.945,3.266,2.053
		c0.813,1.191,1.309,2.537,2.259,3.714c1.438,1.786,0.306,3.639-2.379,4.279c-0.697,0.167-1.607-0.045-1.856,0.868
		c-0.264,0.964,0.812,1.082,1.211,1.629c0.676,0.927,2.068,1.557,1.533,3.085c-0.129,0.367-0.179,0.761,0.312,0.649
		c2.478-0.561,2.527,1.402,3.285,2.952c-0.294-2.429,2.103-4.007,1.667-6.554c-0.224-1.317,0.672-2.703,1.968-3.046
		c1.188-0.314,1.691,1.074,2.256,1.947c0.275,0.427,0.332,1.109-0.313,1.206c-1.713,0.258-1.957,0.725-0.431,1.743
		c0.356,0.239,0.506,0.668,0.29,1.096c-0.222,0.436-0.64,0.528-1.049,0.351c-0.771-0.334-1.44-0.237-2.037,0.35
		c-0.497,0.489-0.48,1.027-0.078,1.549c0.308,0.398,1.025,0.899,1.19,0.579c0.638-1.239,2.636-0.725,2.859-2.372
		c0.069-0.513,0.329-0.972,0.954-0.918c0.688,0.06,1.051,0.629,1.09,1.179c0.183,2.529,0.412,5.083-0.999,7.404
		c-0.935,1.539-2.794,2.317-3.401,4.138c-0.061,0.184-0.43,0.438-0.572,0.394c-2.246-0.692-2.656,1.003-2.998,2.455
		c-0.324,1.376-0.803,2.958,0.923,3.937c0.122,0.069,0.253,0.293,0.229,0.417c-0.376,2.011-1.563,3.89-0.271,6.122
		c0.335,0.577-1.521,0.504-2.395,1.129c0.725,0.938,0.686,2.054,0.653,3.186c-0.018,0.654-0.161,1.244-0.844,1.29
		c-1.383,0.095-2.307,0.486-2.521,2.083c-0.135,1.004-1.399-0.009-1.963,0.829c0.873,1.68,2.535,0.31,3.637,0.849
		c2.237,1.094,1.905-0.909,2.38-1.913c0.235-0.503,0.194-1.273,0.916-1.308c0.909-0.045,0.591,0.749,0.696,1.267
		c0.334,1.616,1.729,2.22,3.082,1.332c0.336-0.22,0.553-0.614,0.871-0.867c0.912-0.724,0.82-2.912,2.334-2.34
		c0.775,0.294,0.612,2.264,1.13,3.441c0.374,0.849-0.047,1.748-1.401,1.651c-1.205-0.085-3.158,2.476-2.822,3.657
		c0.279,0.981,0.966,1.163,1.602,0.324c0.822-1.084,1.859-1.22,3.076-1.033c1.268,0.194,2.146-0.524,3.082-1.258
		c2.396-1.878,3.797-1.555,5.313,1c0.408,0.692,1.061,1.237,1.562,1.88c1.867,2.387,1.88,2.4,3.217-0.217
		c0.589-1.149,1.598-1.561,2.68-1.238c2.457,0.735,4.345-0.463,6.21-1.642c1.596-1.009,3.372-1.969,4.979-0.854
		c1.609,1.118,1.603,3.112,0.938,4.971c-0.331,0.929-0.704,1.858-0.888,2.819c-0.213,1.126-0.392,2.336,1.142,2.825
		c1.32,0.422,1.768,1.353,1.506,2.692c-0.198,1.019-0.092,1.956,0.781,2.696c0.507,0.429,1.056,0.97,0.355,1.641
		c-0.642,0.616-1.396,0.51-1.998-0.064c-0.833-0.795-1.934-1.675-2.52-0.239c-0.426,1.046,0.042,2.575,0.867,3.622
		c0.402,0.513,0.809,0.458,1.229-0.351c0.848-1.625,2.035-2.363,3.524-0.47c0.682,0.866,1.59,0.778,2.402,0.112
		c0.57-0.466,1.011-1.14,1.639-1.483c1.302-0.713,2.852-1.462,4.138-0.373c1.366,1.157,1.386,3.2,0.263,4.245
		c-1.729,1.61-0.734,4.191-2.637,5.667c-0.82,0.638,1.265,0.617,0.892,1.625c-0.549,0.705-1.153-0.259-1.906,0.021
		c0.929,1.876-1.4,3.388-0.354,5.31c-1.378,0.233-1.594-1.017-2.512-1.416c-0.771,0.702-0.539,1.77-1.168,2.861
		c1.865-0.385,2.624,0.119,2.61,1.913c-0.011,1.355,0.834,2.669,0.679,4.108c-0.076,0.709,0.023,1.729-1.033,1.621
		c-1.771-0.182-1.398,0.928-1.296,1.882c0.4,3.723-1.095,5.912-4.595,6.658c-0.185,0.733,0.938,0.973,0.639,1.798
		c-1.009,0.963-1.894-1.468-2.956-0.203c2.454,2.192,3.063,5.913,1.255,7.74c-0.333,0.336-0.903,0.875-1.164,0.778
		c-2.773-1.031-2.965,1.708-4.114,2.873c-1.271,1.288,0.518,2.198,1,3.122c0.448,0.861,1.144-0.179,1.728-0.584
		c2.688-1.866,4.62-4.31,5.912-7.298c0.117-0.272,0.477-0.652,0.694-0.635c2.995,0.235,3.347-2.347,4.467-4.115
		c0.474-0.748,0.719-1.696,1.716-2.007c0.821-0.256,0.963-0.772,0.601-1.527c-0.292-0.609-0.21-1.208,0.539-1.341
		c0.769-0.136,1.288,0.326,1.359,1.089c0.066,0.723-0.068,1.419,0.386,2.126c1.299,2.023,1.713,2,3.096,0.1
		c0.807-1.105,1.831-2.15,2.978-2.88c1.186-0.757,2.307-1.173,1.075-2.805c-0.313-0.415,0.196-1.109,0.711-1.01
		c1.134,0.218,1.98-1.278,2.939-0.604c0.725,0.508-0.57,1.215-0.384,1.964c1.906-1.065,2.814-3.381,1.639-4.953
		c-1.19-1.592-0.304-2.22,0.873-2.837c1.765-0.925,3.415-1.91,4.482-3.706c0.938-1.58,2.626-1.361,4-1.029
		c1.208,0.292,0.992,1.498,0.626,2.492c-0.381,1.035-1.424,1.28-2.396,1.945c1.076,0.708,2.823-0.025,3.188,1.737
		c0.363,1.767-0.224,3.255-1.089,4.682c-1.018,1.677-2.162,2.938-4.259,3.719c-2.022,0.753-1.063,3.24-0.774,4.977
		c0.264,1.579,1.426,0.849,2.346,0.605c1.271-0.336,3-0.913,3.204,0.912c0.147,1.314,0.938,3.672-1.925,3.896
		c-1.306,0.103-1.486,1.412-1.936,2.341c-0.585,1.21-1.164,1.55-2.464,0.685c-2.03-1.354-3.055-0.791-3.433,1.585
		c-0.061,0.385-0.214,1.073-0.355,1.082c-2.732,0.165-2.284,2.231-2.527,3.974c-0.146,1.032-0.896,1.375-1.816,0.733
		c-0.797-0.555-1.78-0.992-1.984-2.09c-0.411-2.205-2.178-1.038-3.205-1.091c-1.256-0.064-0.59,1.221-0.563,1.94
		c0.027,0.688,0.095,1.355-0.646,1.7c-0.843,0.392-1.588,0.051-2.331-0.369c-0.544-0.308-1.063-1.479-1.759-0.393
		c-0.644,0.999,0.268,1.314,1.03,1.765c1.013,0.595,2.833,1.25,0.53,2.64c-0.464,0.281-0.218,0.74,0.097,1.033
		c0.365,0.342,0.791,0.267,1.069-0.104c0.593-0.789,1.108-1.637,1.704-2.423c0.472-0.625,0.998-1.713,1.884-0.978
		c0.842,0.698-0.033,1.684-0.578,2.08c-1.667,1.209-2.338,3.15-3.678,4.573c-0.423,0.448-0.758,0.885-0.366,1.517
		c0.414,0.669,1.023,0.769,1.725,0.594c0.734-0.184,1.157-0.514,0.874-1.402c-0.321-0.996,0.167-1.656,1.165-1.729
		c0.841-0.062,1.945-0.306,2.038,1.094c0.032,0.5,0.291,0.709,0.699,0.881c2.064,0.866,1.859,1.955,0.391,3.295
		c-0.746,0.68-0.883,1.791-0.271,2.483c0.771,0.873,1.44,1.484,0.432,2.597c-0.219,0.241,0.118,0.58,0.47,0.705
		c0.828,0.294,4.431-1.197,4.604-2.063c0.275-1.356,1.027-1.85,2.276-1.587c1.423,0.299,0.54,1.231,0.448,1.946
		c-0.204,1.604,1.284,1.457,2.104,1.968c0.849,0.529,1.561,0.28,2.041-0.623c1.109-2.075,3.312-3.065,4.788-4.778
		c0.396-0.459,0.936-1.253,1.527-0.307c0.408,0.656,0.794,1.556-0.198,2.164c-0.544,0.333-1.466,0.493-1.112,1.335
		c0.585,1.393,1.928,3.002-1.253,2.136c-0.052-0.014-0.406,0.554-0.364,0.81c0.361,2.207-1.155,3.255-2.687,4.313
		c0.201,1.075,1.403,0.61,1.947,1.51c0.684,1.133,1.82-0.084,2.098-0.934c0.581-1.798,1.549-2.819,3.515-2.813
		c0.34,0.001,0.794-0.332,1-0.64c0.771-1.155,1.582-1.56,2.833-0.603c0.562,0.429,1.391,0.355,1.729-0.322
		c0.387-0.771-0.568-0.823-0.93-1.185c-0.662-0.662-1.538-0.92-2.397-1.219c-0.495-0.172-0.82-0.577-0.784-1.134
		c0.037-0.557,0.41-0.909,0.925-1.024c1.354-0.303,2.595-0.679,3.835,0.652c1.882,2.016,1.996,1.908,2.729-0.626
		c0.637-2.205,3.293-3.589,7.467-3.564c-1.578-0.953-2.684-1.694-3.857-2.301c-0.585-0.301-1.593,0.216-1.756-0.899
		c-0.095-0.639,0.226-1.112,0.744-1.451c0.8-0.521,1.564-0.789,2.505-0.17c1.234,0.812,2.206,1.908,3.682,3.368
		c-0.629-3.125,0.353-3.659,2.396-2.152c0.541-0.73,0.273-1.249-0.043-1.741c-0.342-0.531-1.021-1.008-0.37-1.703
		c0.513-0.544,1.24-0.507,1.857-0.279c1.2,0.443,2.849,0.026,3.62,1.718c-2.445-0.133-3.602,0.85-3.919,3.201
		c-0.15,1.104,0.986,1.16,1.499,1.717c0.481,0.528,1.151,1.08,1.944,0.83c0.664-0.21,0.244-0.808,0.201-1.263
		c-0.129-1.373,0.668-2.034,1.896-2.042c1.496-0.01,1.045,1.118,0.965,1.983c-0.023,0.245-0.105,0.532-0.015,0.731
		c0.771,1.654,1.329,3.041-1.55,2.842c-0.751-0.052-0.938,1.556-1.955,1.702c-0.795,0.114-1.607,0.087-2.667,0.134
		c0.74,1.815,0.482,2.933-1.827,3.095c-1.552,0.109-1.147,2.452-2.604,3.049c-1.869,0.767-1.118,1.978-0.479,3.212
		c0.355,0.688,0.418,1.687-0.559,1.798c-1.638,0.187-2.262,1.271-2.671,2.538c-0.862,2.67-3.556,3.937-4.827,6.382
		c-0.34,0.656-3.072,0.38-4.598,0.04c-2.434-0.544-2.896,0.135-2.098,2.339c0.461,1.278-0.438,1.993-1.441,2.519
		c-1.188,0.622-1.986,1.422-1.79,2.914c0.125,0.944-0.343,1.578-1.292,1.813c-0.16,0.039-0.33,0.113-0.483,0.089
		c-1.921-0.305-0.347,3.336-2.462,2.343c-1.412-0.663-2.604-0.753-3.996-0.389c-0.875,0.229-2.046,0.18-0.979,1.607
		c0.325,0.436,0.174,1.263-0.374,1.062c-2.043-0.757-3.798,0.316-5.673,0.604c-0.232,0.035-0.61,0.056-0.705-0.074
		c-1.7-2.339-2.993,0.574-4.563,0.383c-0.596-0.072-0.705,0.896-0.392,1.411c0.438,0.721,0.554,1.494,0.636,2.291
		c0.648-0.039,0.781-1.061,1.477-0.731c0.695,0.333,0.38,0.991,0.311,1.542c-0.182,1.457-0.447,2.606-1.891,3.698
		c-1.532,1.159-2.551,3.226-3.058,5.202c-0.363,1.43-0.938,2.406-2.294,2.92c-1.791,0.681-2.319,2.437-3.403,3.688
		c-1.628,1.883-0.764,3.473-0.968,5.214c1.619-2.293,4.226-3.021,6.312-4.45c1.306-0.896,2.292-0.221,3.054,1.004
		c1.822,2.924,1.373,4.58-2.088,6.471c-1.246,0.68-2.238,1.136-2.038,2.872c0.114,0.989-0.297,2.289-1.688,0.832
		c-0.33-0.345-0.611-0.577-0.98-0.142c-2.448,2.885-6.152,2.4-9.291,3.37c-2.009,0.62-4.259-0.212-6.301,1.345
		c-0.841,0.641-2.54-0.807-4.255-0.156c-3.146,1.188-6.089,2.266-7.118,5.892c-0.168,0.595-0.699,0.901-1.334,0.927
		c-0.662,0.028-1.231-0.302-1.271-0.926c-0.212-3.397-3.378-3.094-5.344-4.188c-0.816-0.455-1.905-0.377-2.302-1.504
		c-0.074-0.213-0.411-0.543-0.423-0.535c-1.822,1.308-3.168-0.227-4.604-1.204c-0.348,1.341,0.595,1.864,0.629,2.678
		c0.04,0.951,2.018,2.505-0.852,2.548c-0.489,0.008-0.537,0.773-0.577,1.26c-0.095,1.136-0.611,2.024-1.445,2.771
		c-0.911,0.816-1.102,1.73-0.514,2.873c0.597,1.16,1.391,1.898,2.733,1.542c1.897-0.505,3.721,0.358,5.638,0.164
		c1.747-0.177,3.509,3.129,3.335,5.89c1.425-0.593,2.927-1.531,3.77,0.698c0.718,1.892,0.039,3.709-1.749,4.567
		c-0.992,0.478-1.737,0.021-2.45-0.603c-0.348-0.301-1.018-0.946-1.022-0.8c-0.124,2.479-2.765,0.905-3.78,2.33
		c-0.383,0.537-2.461,1.857-4.355,0.327c-1.941-1.567-4.799-1.437-7.233-1.813c-1.08-0.168-2.533,1.503-3.681,2.496
		c-1.152,1-2.523,0.937-3.726,0.71c-2.03-0.383-2.554-2.184-1.387-3.975c1.78-2.731,1.403-6.146-0.894-8.197
		c-0.317-0.284-0.714-0.654-1.069-0.396c-1.091,0.795-2.584,1.494-3.036,2.594c-0.586,1.429-2.135,2.449-2.336,3.348
		c-0.634,2.842-3.771,3.557-4.45,6.25c-0.341,1.354-1.451,2.201-3.462,1.789c-1.937-0.396-4.332-0.896-5.934,1.438
		c-0.707,1.029-1.462,0.869-2.112-0.502c-0.895-1.885-2.208-3.569-3.734-5.109c0.522,1.402,1.05,2.807,1.569,4.21
		c0.145,0.386,0.48,0.845,0.377,1.151c-0.617,1.846-2.108,3.882,1.345,4.492c-0.918,1.797,0.002,4.123-1.313,5.668
		c-1.14,1.338-2.777,0.987-4.307,0.168c-2.563-1.375-3.926-4.877-2.449-8.414c1.002-2.403-1.207-2.465-1.86-3.599
		c-0.259-0.448-0.729,0.333-0.96,0.744c-2.674,4.769-6.551,8.329-10.979,11.468c-3.949,2.803-7.829,5.762-9.855,10.482
		c-0.963,2.244-1.285,4.594-1.701,6.932c-1.246,6.992-2.996,13.809-5.986,20.305c-1.944,4.225-2.576,8.871-3.037,13.441
		c-1.164,11.543-2.096,23.117-4.521,34.48c-1.046,4.902-2.525,9.723-3.97,14.529c-1.435,4.771-1.353,9.767-2.396,14.59
		c-0.559,2.57-0.914,5.187-1.353,7.781c-0.167,0.995-0.317,2.028,0.817,2.589c3.695,1.821,4.613,5.607,6.019,8.91
		c0.785,1.852-1.092,2.366-2.557,2.265c-11.591-0.808-23.215,0.025-34.804-0.805c-2.464-0.177-4.918,0.039-7.355,0.646
		c-2.517,0.625-3.426-0.396-2.738-2.913c0.278-1.021,0.57-2.21,1.27-2.909c2.478-2.477,3.078-5.604,3.644-8.787
		c-1.11-0.61-2.257,1.219-3.009-0.11c-0.581-1.028,0.41-2.038,0.846-2.95c0.56-1.175,0.712-2.118,0.313-3.457
		c-4.021-13.509-7.005-27.256-9.213-41.171c-0.703-4.433-2.749-8.432-3.743-12.778c-1.141-4.987-2.238-9.976-2.525-15.07
		c-0.197-3.506-1.623-6.298-3.733-8.92c-5.438-6.758-10.002-14.098-13.886-21.823c-4.625-9.203-9.792-18.076-15.498-26.638
		c-1.037-1.557-2.394-2.897-3.316-4.575c-0.797-1.447-1.886-1.904-2.98-0.211c-0.617,0.954-1.314,1.465-2.445,0.813
		c-0.686-0.396-1.339-0.104-1.828,0.328c-1.783,1.566-4.248,1.717-6.146,3.023c-0.501,0.346-1.05,0.576-1.617,0.268
		c-1.928-1.055-3.767-1.422-5.991-0.521c-1.271,0.519-2.524,0.529-2.696,2.25c-0.077,0.782-0.743,1.043-1.469,1.019
		c-2.112-0.072-2.343-2.127-3.3-3.334c-0.85-1.068,0.466-1.47,1.187-1.936c0.669-0.434,1.221-1.114,1.1-1.825
		c-0.456-2.688,0.934-2.217,2.519-1.614c0.703,0.269,1.436,0.42,2.014-0.308c-0.072-0.16-0.141-0.303-0.201-0.446
		c-0.368-0.88-2.33,0.242-1.953-1.531c0.352-1.656,1.502-0.644,2.358-0.703c0.333-0.023,0.838-0.377,0.926-0.678
		c0.961-3.301,3.253-4.854,6.542-5.268c2.014-0.254,1.591-1.025,0.396-2.046c-2.197-1.872-4.997-3.853-7.479-3.13
		c-3.069,0.893-6.458,1.558-9.176,3.589c-0.46,0.344-1.066,0.603-1.342,1.058c-0.855,1.409-1.679,1.309-2.704,0.205
		c-0.807-0.865-2.103-1.902-2.888-0.785c-0.63,0.896-2.133,2.502-0.121,3.944c0.85,0.609,1.565,1.896,0.816,2.825
		c-0.857,1.063-1.842,2.502-3.639,1.98c-0.758-0.222-1.435-0.838-1.143,0.702c0.146,0.775-0.688,0.966-1.212,0.727
		c-0.97-0.445-2.276,0.382-2.972-0.729c-0.41-0.656,0.393-1.115,0.582-1.648c0.627-1.762,1.495-3.637,0.428-5.512
		c-0.491-0.863-1.686-1.854-2.392-1.326c-1.81,1.351-2.925,0.65-4.304-0.568c-1.582-1.398-3.263,0.75-4.988-0.321
		c-0.037,1.38,0.515,2.287,0.166,3.286c-0.356,1.021-0.806,1.704-1.938,1.003c-0.641-0.397-1.108-0.379-1.798-0.034
		c-1.06,0.53-1.601,0.077-1.262-1.115c0.125-0.438,0.678-0.887-0.116-1.182c-0.469-0.175-1.051-0.25-1.35,0.245
		c-0.847,1.403-1.812,0.849-2.666,0.138c-1.424-1.188-3.379-0.504-4.861-1.505c-0.457-0.309-0.934,0.207-1.162,0.658
		c-0.528,1.047-1.617,1.342-2.466,1.968c-1.503,1.107-2.422,0.986-2.578-1.042c-0.045-0.588,0.063-1.2-0.717-1.349
		c-0.631-0.119-1.231,0.107-1.478,0.66c-1,2.246-2.625,2.256-4.421,1.207c-2.776-1.623-6.192-1.836-8.405-4.857
		c-1.754-2.396-2.772-4.505-1.73-7.316c0.301-0.812,0.225-1.179-0.513-1.807c-1.226-1.044-3.075-1.748-2.923-3.906
		c0.031-0.437-0.461-0.638-0.904-0.666c-0.407-0.026-1.166,0.006-1.174-0.06c-0.34-2.813-3.63-2.681-4.677-4.715
		c-0.441-0.856-1.036-1.612-1.846-1.91c-1.646-0.604-3.269-0.981-3.008-3.347c0.063-0.576-0.757-0.736-1.392-0.479
		c-2.234,0.904-4.391,0.048-6.54-0.389c-0.73-0.147-1.338-0.417-2.108-0.083c-0.875,0.379-1.748,0.08-2.003-0.854
		c-0.66-2.418-2.678-3.086-4.67-3.666c-0.717-0.207-0.919-0.53-1.099-1.084c-0.252-0.776-0.304-1.73-0.801-2.293
		c-1.307-1.477-2.431-2.856-1.674-5.047c0.09-0.26-0.824-1.906-1.865-0.573c-0.474,0.606-0.815,1.471-1.659,0.892
		c-0.784-0.539-1.586-1.424-1.13-2.495c0.453-1.064,0.223-1.694-0.669-2.283c-1.271-0.839-1.173-1.615,0.104-2.41
		c0.834-0.519,1.55-1.223,2.369-1.77c0.594-0.397,1.316-0.457,1.776,0.179c0.548,0.756-0.083,1.189-0.64,1.573
		c-0.271,0.187-0.571,0.331-0.842,0.517c-0.547,0.377-0.831,0.86-0.311,1.433c0.47,0.518,0.917,0.438,1.465-0.058
		c1.234-1.116,1.619-2.414,1.203-4.004c-0.163-0.626-0.837-1.615,0.501-1.587c0.844,0.018,2.009-0.18,2.358,1.245
		c0.27,1.096-1.436,3.308,1.572,3.05c1.221-0.104,2.224,1.55,3.645,0.466c0.311-0.237,0.931,0.364,1.509-0.227
		c-0.776-1.278-0.563-3.667-3.358-2.583c-0.425,0.165-1.013-0.2-1.233-0.66c-0.435-0.907,0.485-0.849,0.909-1.103
		c0.675-0.403,1.058-0.89,0.405-1.56c-0.541-0.554-1.108-1.4-2.04-0.577c-0.388,0.343-0.581,1.236-1.269,0.559
		c-0.528-0.521-0.264-1.219,0.088-1.826c0.368-0.635,1.317-0.726,1.492-1.73c-1.065-0.55-1.964-0.28-2.853,0.45
		c-0.598,0.49-1.506,0.969-1.779-0.081c-0.383-1.471,0.867-2.585,1.513-3.767c0.561-1.026,1.635-0.798,2.635-0.334
		c0.81,0.375,1.604,1.315,2.612,0.193c0.876-0.974-0.107-2.095,0.392-3.063c-2.312-0.172-1.39-2.503-2.377-3.56
		c-0.056-0.06-0.14-0.102-0.179-0.17c-0.322-0.563,0.633-4.936,1.211-5.261c0.379-0.213,0.798-0.333,0.646-0.854
		c-0.138-0.473-0.572-0.55-1.002-0.516c-1.263,0.1-2.43-0.089-2.564-1.608c-0.134-1.507,1.267-1.59,2.205-2.216
		c2.096-1.396,4.672,0.171,6.725-1.333c0.399-0.293,0.935,0.516,1.243,1.001c0.7,1.099,1.156,2.327,2.32,3.141
		c0.981,0.687,0.183,1.44-0.267,2.109c-0.312,0.464-0.833,1.366-0.199,1.417c1.588,0.128,1.486,2.539,2.949,2.113
		c0.557-0.163,1.209-1.798,0.99-2.508c-0.823-2.674,0.598-2.336,2.207-1.88c0.541,0.154,1.14,0.654,1.553,0.034
		c0.636-0.954-0.391-0.997-0.881-1.323c-1.064-0.709-0.261-1.605-0.1-2.417c-0.862-0.204-1.665,0.959-2.327-0.07
		c-0.473-0.734-0.149-1.516,0.327-2.066c1.869-2.156,1.702-4.287,0.107-6.475c-0.488-0.669-0.259-1.241,0.311-1.727
		c0.676-0.576,1.451-0.871,2.269-0.394c0.657,0.383,1.037,0.792,0.585,1.787c-0.6,1.317,0.877,1.25,1.436,1.213
		c2.807-0.188,3.802,0.944,3.151,3.687c-0.258,1.087,0.36,1.889,1.312,2.423c0.447,0.251,0.933,0.472,1.39,0.164
		c0.506-0.34,0.307-0.881,0.178-1.352c-0.41-1.483-1.296-2.869-0.72-4.535c0.222-0.641-0.165-0.849-0.834-0.71
		c-1.778,0.367-2.343-0.707-2.503-2.209c-0.168-1.558-0.992-2.87-2.493-3.003c-3.438-0.305-4.812-3.799-7.799-4.723
		c-0.444-0.138-0.226-0.717-0.172-1.114c0.058-0.426-0.05-1.116-0.447-0.933c-2.3,1.058-2.847-1.407-4.288-2.029
		c-0.65-0.281-1.023-0.907-0.897-1.619c0.198-1.127-0.384-1.994-1.036-2.664c-1.18-1.212-1.726-2.466-0.77-4.321
		c-1.73,0.288-2.709,2.42-4.421,1.018c-0.37-0.303-1.168-0.59-0.845-0.995c1.249-1.568-0.527-1.702-0.91-2.539
		c-1.143-2.499-2.233-1.425-3.492-0.33c-0.623,0.542-1.206,1.243-2.137,0.635c-0.712-0.465-0.867-1.208-0.655-1.971
		c0.456-1.642-0.235-2.631-1.625-3.437c-1.485-0.861-2.632-1.984-2.099-4c0.111-0.419-0.136-0.961-0.293-1.421
		c-0.831-2.438,0.597-4.839,3.118-5.173c1.344-0.177,2.061,0.586,2.168,1.798c0.094,1.054,0.519,1.058,1.475,1.3
		c2.049,0.521,3.56,2.141,5.039,3.643c0.369,0.375,0.411,1.143,1.392,0.928c0.168-1.288-0.98-1.764-1.646-2.448
		c-1.243-1.276-1.691-2.492-0.594-4.152c0.846-1.279,0.842-2.623-0.061-4.098c-1.893-3.095,0.455-5.057,3.077-5.772
		c0.876-0.239,1.482,0.378,1.47,1.233c-0.026,1.8,0.663,1.375,1.765,0.796c1.24-0.651,2.628-0.909,3.135,0.969
		c0.304,1.125,0.835,1.054,1.593,0.517c0.134-0.095,0.257-0.208,0.373-0.324c1.046-1.045,2.28-1.346,3.615-0.72
		c1.413,0.663,0.72,2.002,0.859,3.08c0.15,1.17-0.507,2.012-1.475,3.404c2.312-1.354,3.125-0.581,3.344,1.325
		c0.103,0.887,0.335,1.803,0.719,2.604c1.067,2.234,2.692,2.656,4.713,1.419c2.248-1.376,4.027,0.246,5.902,1.057
		c0.488,0.211,0.84,0.739,1.373,1.231c0.926-1.535,0.988-3.701,2.841-4.161c1.549-0.384,3.28-0.222,4.131,1.769
		c0.142-1.605,1.521-3.161-0.733-4.538c-0.617-0.377-0.173-2.336-0.404-3.533c-0.43-2.212-0.327-4.431-0.277-6.651
		c0.035-1.515,0.717-2.702,2.139-3.347c1.459-0.663,2.481,0.166,3.538,1.038c1.948,1.608,3.656,3.323,3.722,6.083
		c0.007,0.266,0.253,0.681,0.477,0.754c0.524,0.171,0.693-0.304,0.783-0.703c0.43-1.915,1.617-2.322,3.33-1.703
		c0.462,0.167,0.994,0.474,1.21-0.225c0.144-0.467-0.32-0.708-0.698-0.868c-0.861-0.366-1.697-0.609-1.108-1.933
		c0.337-0.759-0.698-0.713-1.105-1.036c-0.443-0.352-0.974-0.61-1.361-1.011c-0.368-0.38-1.052-0.926-0.49-1.437
		c0.755-0.686,1.097,0.138,1.445,0.695c0.119,0.189,0.327,0.323,0.864,0.831c0.125-1.472-0.632-2.034-1.29-2.646
		c-1.491-1.389-2.148-2.959-0.819-4.796c1.041-1.439,0.323-2.953,0.051-4.292c-0.387-1.902-0.068-3.547,0.553-5.279
		c0.619-1.727,1.99-3.261,1.331-5.358c-0.181-0.574,0.409-1.088,1.054-1.136c1.114-0.082,2.152,0.205,2.828,1.16
		c0.372,0.525,0.54,1.193,0.877,1.75c0.216,0.357,0.635,0.617,1.046,0.364c0.233-0.144,0.436-0.513,0.458-0.796
		c0.1-1.301,0.395-2.663,0.131-3.898c-0.486-2.269,0.703-2.926,2.517-3.39c1.327-0.34,2.753-0.031,3.824,0.262
		c1.98,0.541-0.261,1.749-0.09,2.949c1.451-0.723,2.264,0.93,3.254,0.962c0.936,0.03,2.435-0.708,2.935-1.895
		c0.542-1.288,0.781-2.716-0.434-3.909c-0.939-0.92-1.835-1.885-2.767-2.813c-1.12-1.115-1.286-2.257-0.138-3.45
		c0.535-0.556,1.141-1.249,0.691-1.95c-1.424-2.225-0.376-5.109-2.039-7.245c-0.182-0.234-0.347-0.767-0.225-0.909
		c1.679-1.973,0.533-3.976,0.249-6.032c-0.293-2.122,1.363-3.244,3.247-2.252c1.04,0.548,1.62,0.215,2.426-0.309
		c0.873-0.569,2.023-0.353,2.389,0.486c0.543,1.25-0.775,0.782-1.334,0.99c-0.585,0.217-0.674,0.662-0.572,1.19
		c0.173,0.895,0.307,1.839,1.352,2.173c0.547,0.174,1.138,0.21,1.684,0.386c1.005,0.324,1.756,0.969,1.906,2.056
		c0.163,1.177-0.71,1.529-1.622,1.816c-0.316,0.1-0.587,0.294-0.547,0.877c1.285,0.384,2.527-1.14,3.856-0.255
		c1.087,0.723,1.536,2.127,2.844,2.661c0.689-0.956-0.126-1.549-0.426-2.239c-0.994-2.292,0.017-4.5,2.418-5.234
		c0.865-0.265,1.732-0.549,2.618-0.721c1.263-0.245,2.278,0.119,2.812,1.407c0.222,0.534,0.053,1.559,1.088,1.212
		c0.684-0.228,1.335-0.751,1.107-1.684c-0.594-2.429,0.22-2.338,1.86-1.111c0.408,0.305,1.122,0.163,1.638,0.369
		c1.071,0.429,2.021,1.191,1.474,2.424c-0.816,1.841,0.104,3.539-0.127,5.967c1.404-1.891,3.756-0.394,4.778-2.917
		c-1.156,0.679-1.972,0.846-2.796-0.05c-1.195-1.302,0.714-1.317,0.735-2.084c0.027-1.005,1.125-1.65,0.927-2.752
		c-0.173-0.967,0.135-1.63,1.237-1.683c0.995-0.047,0.731-0.883,0.956-1.451c0.487-1.235,1.512-1.534,2.619-1.025
		c1.078,0.495,0.729,1.301,0.107,2.008c-0.573,0.653-0.311,1.387-0.248,2.12c0.24,2.785,0.758,5.543-0.15,8.355
		c-0.373,1.157,0.533,2.364,1.064,3.434c0.33,0.663,1.218,0.293,1.815,0.066c1.03-0.392,1.119-1.258,1.063-2.242
		c-0.169-3.007,0.648-4.012,3.471-4.393c0.209-0.724-0.368-1.05-0.793-1.356c-1.197-0.861-1.701-1.599,0.02-2.46
		c0.771-0.387,1.199-1.162,0.139-1.646c-2.56-1.168-0.92-3.739-1.914-5.418c-0.134-0.226,0.217-0.621,0.59-0.635
		c0.467-0.018,0.74,0.324,0.943,0.691c0.459,0.832,0.638,1.928,2.131,1.998c-0.039-1.342-0.646-2.462-1.078-3.62
		c-0.282-0.757-0.326-1.456,0.366-2.013c0.333-0.269,0.737-0.4,1.146-0.194c0.737,0.371,0.682,1.102,0.633,1.736
		c-0.167,2.196,1.346,3.855,1.804,5.847c0.098,0.422,0.379,0.788,0.874,0.685c0.523-0.109,0.536-0.574,0.446-0.982
		c-0.33-1.497,0.543-1.963,1.759-2.441c0.955-0.375,1.911-1.06,2.227-2.175c0.211-0.743-0.112-1.804,1.147-1.798
		c0.729,0.003,1.205,0.524,1.431,1.189c0.344,1.012,0.3,1.99-0.69,2.634c-0.545,0.354-1.168,0.605-1.784,0.825
		c-0.782,0.28-1.119,0.685-0.598,1.46c0.52,0.775,0.956,0.68,1.495-0.051c0.83-1.125,1.929-1.074,2.689-0.055
		c0.991,1.327-0.086,1.838-1.184,2.269c-0.966,0.379-1.317,1.021-0.452,1.86c0.526,0.511,0.688,1.061,0.552,1.781
		c-0.111,0.583-0.777,1.389,0.053,1.734c0.748,0.311,1.761,0.029,2.239-0.67c1.813-2.65,4.316-4.982,3.843-8.718
		c-0.119-0.938,0.542-1.974,0.842-2.953c1.119,0.008,0.884,1.42,1.816,1.565c0.713-0.2,0.407-0.774,0.404-1.224
		c-0.007-1.283,0.322-1.744,1.572-0.848c1.062,0.762,2.235,1.378,3.389,2.004c0.552,0.3,1.168,1.527,1.726,0.457
		c0.345-0.663,1.627-1.863,0.077-2.678c-1.201-0.632-0.787-1.617-0.219-1.965c2.086-1.275,1.527-3.379,2.074-5.249
		c-0.372-0.038-0.639-0.148-0.818-0.068c-0.9,0.402-1.812,0.68-2.279-0.492c-0.484-1.211,0.256-1.946,1.334-2.178
		c1.774-0.382,2.584-1.175,2.047-3.108c-0.29-1.037,0.426-1.694,1.437-1.944c0.664-0.165,1.421-0.23,1.82,0.381
		c0.652,0.998-0.286,1.448-0.89,1.965c-0.852,0.731-0.827,1.246,0.215,1.852c2.914,1.696,2.973,3.193,0.165,4.747
		c-1.853,1.025-0.896,3.184-2.146,4.562c1.241-0.355,2.47-1.071,3.102,0.611c0.543,1.447,1.995,2.845,0.108,4.408
		c-0.903,0.749-1.738,1.659-0.539,2.891c0.31,0.319,0.411,0.878,0.082,1.124c-1.737,1.296-0.574,3.007-0.758,4.526
		c-0.319,2.631,2.138,2.733,3.43,3.869c0.487,0.428,0.866-0.208,1.115-0.623c0.508-0.845,0.969-1.687,1.136-2.707
		c0.321-1.957,1.267-3.546,3.13-4.456c0.293-0.143,0.768-0.256,0.832-0.477c0.708-2.438,1.754-3.207,3.718-0.976
		c0.416,0.472,1.075,0.102,1.573-0.248c0.526-0.369,1.09-0.948,1.732-0.309c0.562,0.559,0.36,1.241-0.092,1.787
		c-0.578,0.699-1.03,1.403-0.099,2.096c0.962,0.717,1.672,0.309,2.184-0.666c0.556-1.057,1.665-0.356,2.996-0.972
		c-2.763-0.57-2.784-3.108-4.292-4.469c-0.388-0.35-0.645-0.828-0.164-1.276c0.455-0.425,0.912-0.233,1.258,0.213
		c0.449,0.581,0.922,1.151,1.305,1.775c1.26,2.054,1.66,2.027,2.917,0.003c0.432-0.694,0.397-1.219-0.302-1.275
		c-3.861-0.311-3.574-3.69-4.176-6.037c-0.488-1.909-1.336-4.123,0.17-6.192c1.102-1.514,2.245-2.133,3.917-0.995
		c1.049,0.713,1.958,0.795,2.825-0.706c-2.201,0.071-2.443-1.62-3.389-2.967c-1.675-2.386-3.309-4.47-2.467-7.59
		c0.086-0.319-0.398-0.912-0.756-1.214c-2.659-2.245-2.33-5.47-2.797-8.425c-0.149-0.942,0.609-1.434,1.229-1.997
		c1.869-1.7,1.894-4.158-0.101-5.807c-1.123-0.928-1.201-1.64-0.237-2.615c0.903-0.913,1.706-1.338,2.951-0.305
		c2.328,1.934,4.769,3.747,7.732,4.671c0.455,0.142,0.979,0.402,1.239,0.771c1.799,2.535,2.365,5.672,3.971,8.315
		c0.118,0.193-0.035,0.735-0.238,0.911c-2.186,1.895-0.385,2.96,0.868,4.046c1.655,1.436,3.649,1.506,5.445,0.528
		c1.415-0.77,2.466-2.349,4.337-1.056c2.025,1.401,2.302,3.492,2.169,5.688c-0.043,0.718-0.338,1.452-0.647,2.118
		c-0.605,1.303-0.627,2.232,0.887,3.02c1.064,0.554,1.342,4.949,0.462,6.23c-1.394,2.029-1.066,4.589-2.33,6.694
		c1.482-0.274,3.583,0.403,2.974-2.346c-0.085-0.382,0.409-0.788,0.861-0.635c2.423,0.819,5.322,0.934,6.32,3.982
		c0.275,0.842,0.883,1.278,1.494,1.845c1.6,1.484,3.765,2.356,4.771,4.515c0.396,0.848,1.342,1.146,2.635,1.113
		c-1.438-2.141,0.215-3.75,0.633-5.557c0.484-2.097-0.213-2.999-2.399-2.753c-0.504,0.057-1.368,0.111-1.289-0.21
		c0.46-1.843-1.807-3.457-0.433-5.272c0.818-1.081,0.738-1.429-0.69-1.606c-1.6-0.199-1.702-1.548-1.654-2.854
		c0.045-1.221,0.59-2.147,1.849-2.232c1.204-0.082,1.987,0.332,2.933,1.52c1.566,1.972,2.93,4.235,5.045,5.762
		c0.33,0.239,0.707,0.425,1.082,0.591c0.314,0.14,0.91-0.032,0.836-0.167c-1.26-2.265,2.576-1.809,1.918-3.624
		c-0.25-0.691-0.703-1.035-1.41-0.155c-1.471,1.831-2.42,0.598-2.612-0.848c-0.323-2.417-0.381-4.928,1.285-7.026
		c0.812-1.025,1.263-2.024-0.028-2.949c-1.552-1.112-0.938-2.361-0.129-3.412c0.844-1.096,2.057-0.841,3.127-0.198
		c0.712,0.427,1.385,0.982,1.645,1.79c0.379,1.181,1.026,1.906,2.237,2.381c1.271,0.498,1.667,1.83,1.622,3.095
		c-0.042,1.184-0.984,0.746-1.693,0.673c-0.17-0.018-0.484,0.201-0.524,0.362c-0.118,0.48,0.202,0.778,0.622,0.912
		c0.861,0.272,1.761,0.439,2.596,0.771c1.188,0.472,2.205,1.179,2.331,2.614c0.079,0.91,0.347,1.598,1.409,1.687
		c1.105,0.092,1.953-0.254,2.391-1.322c0.648-1.583,1.459-2.857,3.906-1.751c-0.875-1.652-2.133-3.309,1.191-3.193
		c-0.594-0.542-0.742-0.73-0.938-0.846c-0.683-0.411-1.896,0.646-2.15-0.476c-0.246-1.074,1.084-0.97,1.719-1.39
		c0.808-0.536,0.389-1.331,0.438-2.034c0.102-1.396-0.479-2.904,0.527-4.199c0.97,0.319,0.943,1.096,0.909,1.685
		c-0.095,1.646-0.7,3.029,2.14,3.286c1.701,0.154-0.222,1.491-0.695,2.504c2.316,0.377,4.236,1.185,4.262,4.02
		c0.008,0.685,0.748,0.36,1.133,0.027c0.373-0.322,0.662-0.761,1.068-1.022c1.063-0.686,2.162-0.37,2.916,0.418
		c0.799,0.836,0.213,1.761-0.547,2.322c-1.365,1.009-2.466,2.328-4.162,2.969c-1.92,0.726-2.146,2.188-0.908,4.071
		c0.994-0.396,0.191-1.361,0.605-1.933c0.574-0.792,1.038-1.83,2.305-1.044c0.42,0.261,0.361,1.333,1.174,0.869
		c0.674-0.386,0.082-1.035,0.016-1.569c-0.043-0.343,0.023-0.648,0.361-0.831c1.244,1.459,3.305,1.197,3.729-0.687
		c0.7-3.101,3.492-3.705,5.584-5.083c1.271-0.837,2.679-3.512,2.079-4.925c-0.455-1.078-1.353-0.687-2.128-0.698
		c-3.264-0.048-3.604-0.729-2.087-3.669c1.259-2.438,2.646-4.869,1.604-7.847c-0.351-1,0.205-1.99,1.125-2.535
		c1.405-0.833,2.834-1.673,4.349-2.274c1.265-0.502,2.069-1.508,1.955-2.563c-0.195-1.783,0.63-2.951,1.521-4.234
		c0.438-0.627,0.362-1.928,1.446-1.647c1.059,0.274,2.831,1.103,2.812,1.63c-0.071,1.834-0.771,3.648-1.293,5.452
		c-0.032,0.116-0.607,0.099-0.933,0.101c-0.434,0.003-0.841,0.05-1.012,0.515c-0.208,0.571,0.096,0.988,0.56,1.219
		c3.003,1.493,1.737,5.012,3.405,7.203c0.586,0.771-0.564,1.496-1.453,1.888c-1.904,0.842-3.188,2.08-3.003,4.435
		c0.1,1.272-0.817,1.82-1.979,1.401c-1.334-0.481-1.767,0.217-2.176,1.239c-1.461,3.643-0.738,6.935,1.571,9.965
		c0.259,0.338,0.653,0.651,0.407,1.051c-1.393,2.262-1.626,5.027-3.48,7.148c-1.378,1.577-2.16,3.671-0.802,5.833
		c0.415,0.66,0.845,1.551,0.187,2.026c-1.521,1.094-1.025,2.979-1.974,4.352c-0.668,0.968-0.209,2.546,1.57,2.938
		c1.789,0.395,3.829,0.448,1.85,3.398c-0.631,0.941,0.823,3.292,1.363,4.984c0.026,0.086,0.479,0.142,0.66,0.055
		c0.533-0.259,0.637-0.864,0.457-1.277c-0.609-1.402-0.415-2.267,0.774-3.494c1.168-1.202,0.31-3.542,1.81-5.051
		c0.438-0.444-1.027-1.072-1.484-1.695c-0.73-0.998-2.766-1.249-1.492-3.48c0.993-1.743,1.525-2.479,3.377-1.16
		c0.74,0.527,1.856,0.528,3.195,0.87c-0.946-1.178-1.601-2.144-0.395-3.319c0.881-0.858,0.405-1.782-0.448-2.543
		c-0.942-0.837-0.869-1.681,0.128-2.473c2.188-1.739,2.149-4.128,1.179-6.261c-1.438-3.156-1.743-5.789,1.132-8.344
		c1.023-0.909,2.144-1.912,2.584-3.478c0.275-0.974,1.404-0.868,1.882,0.086c0.883,1.769,0.504,3.715,0.367,5.566
		c-0.076,1.056-1.371,0.561-2.069,0.886c-0.186,0.849,0.59,0.856,0.996,1.163c0.336,0.255,0.815,0.833,0.647,0.918
		c-1.63,0.829-0.589,2.983-2.062,3.922c-0.809,0.515-1.431,1.358-1.556,2.43c-0.127,1.089-0.248,1.806,1.429,1.684
		c2.504-0.183,3.131,1.05,2.559,3.469c-0.387,1.629-0.819,3.197-1.593,4.723c3.968-2.139,6.565-5.272,7.139-9.802
		c0.147-1.17-0.146-2.365,1.492-2.605c0.495-0.073,0.698-0.329,0.39-0.843c-0.857-1.428,0.08-1.555,1.127-1.438
		c1.063,0.12,1.51-0.455,1.759-1.323c0.755-2.638,0.744-2.636,2.938-1.046c0.248,0.18,0.549,0.288,0.817,0.425
		c0.581-0.708,0.126-1.173-0.179-1.631c-0.433-0.656-1.355-1.305-0.423-2.086c0.747-0.625,1.35,0.097,1.855,0.652
		c0.84,0.919,1.784,1.119,2.856,0.41c2.562,0.853,2.922,1.759,1.397,3.825c-0.899,1.219-1.177,2.5-0.788,3.932
		c0.156,0.579,0.345,1.477-0.328,1.426c-2.678-0.201-2.922,4.139-5.958,3.083c-0.007-0.002-0.133,0.256-0.159,0.4
		c-0.411,2.277-1.341,4.62-1.07,6.816c0.27,2.209-0.319,2.759-2.213,2.934c-0.73,0.066-1.299,0.741-1.01,1.418
		c0.953,2.229,0.645,4.12-0.082,6.5c-0.604,1.985,1.563,4.652-0.423,6.945c1.696,3.055,0.868,6.398,1.138,9.62
		c0.141,1.669-0.469,2.55-2.099,2.625c-0.909,0.042-1.765-0.021-2.085,1.441c1.271-0.439,2.291-0.485,2.984,0.62
		c0.216,0.344,0.562,0.606,1.043,0.44c-0.754-1.775,2.605-1.729,1.604-3.628c-0.2-0.377-0.298-0.965,0.174-1.049
		c2.105-0.373,1.256-2.068,0.98-2.871c-0.957-2.795,0-5.209,0.742-7.805c0.385-1.342,1.441-2.581,0.598-4.427
		c-1.008-2.202,1.863-5.29,4.27-4.903c0.946,0.152,1.271-0.292,1.373-0.954c0.158-1.024-0.694-0.646-1.188-0.674
		c-0.762-0.044-1.541-0.041-1.734-1c-0.156-0.79,0.157-1.474,0.711-2.011c1.151-1.117,2.438-1.224,3.833-0.442
		c0.517,0.288,1.065,1.15,1.653,0.354c0.425-0.576-0.301-1.087-0.723-1.385c-2.117-1.497-2.241-3.635-2.148-5.936
		c0.059-1.372,1.178-2.764-0.095-4.173c-0.258-0.286,0.222-0.995,0.686-1.17c1.818-0.689,2.688-2.911,4.995-2.904
		c0.89,0.002,1.162-1.06,1.107-1.94c-0.029-0.463-0.358-0.793-0.841-0.625c-2.65,0.924-2.441-0.81-2.396-2.49
		c0.032-1.149,0.07-2.324-0.126-3.446c-0.257-1.476-1.287-2.168-2.71-1.561C337.31,80.071,337.556,81.415,337.525,82.553z
		 M256.102,395.176c0.25-0.402,0.375-0.527,0.407-0.672c3.288-14.441,7.718-28.577,11.453-42.896
		c0.542-2.077,1.478-4.224,1.071-6.51c-1.15-6.498-1.266-13.092-1.874-19.638c-0.294-3.172-0.317-6.588-2.134-9.491
		c-2.023-3.229-3.582-6.66-4.494-10.371c-0.943-3.832-1.885-7.664-2.86-11.485c-0.336-1.316,0.095-2.173,1.237-2.886
		c1.964-1.228,2.063-3.226,2.334-5.523c-1.414,0.938-1.637,0.688-3.905,0.822c-2.696,0.16-1.327-1.573-1.504-2.592
		c-0.087-0.5-0.097-1.138-0.704-1.108c-1.367,0.062-1.671-0.857-1.8-2.246c-1.706,3.335-1.481,6.646-1.886,9.771
		c-0.698,5.387-3.061,10.879-0.881,16.258c1.713,4.23,1.273,8.469,1.459,12.744c0.035,0.817,0.276,1.629,0.295,2.445
		c0.074,3.779,1.89,7.485,0.938,11.241c-0.729,2.879-0.783,5.698-0.542,8.558c0.449,5.354,0.208,10.66-0.155,16.014
		c-0.205,3.023-0.824,6.063-0.275,9.197C253.906,376.104,255.314,385.441,256.102,395.176z M225.785,313.889
		c-0.708,0.899-0.48,1.805-0.506,2.688c-0.229,7.623,1.42,15.021,2.729,22.457c0.322,1.826-0.613,4.023,1.455,5.419
		c0.148,0.1,0.007,0.61,0.021,0.933c0.074,1.622-0.042,3.137-0.596,4.766c-0.684,2.012,0.367,4.213,0.404,6.35
		c0.192,11.104,4.852,20.907,9.008,30.934c0.182-5.014,2.385-9.539,3.095-14.396c0.165-1.13,0.948-2.269,0.483-3.374
		c-2.234-5.324-0.976-10.896-1.272-16.354c-0.063-1.15-0.153-2.261-0.522-3.387C236.057,337.636,229.242,326.464,225.785,313.889z
		 M236.114,269.139c-1.987,0.772-2.819,3.498-5.381,3.762c-0.532,0.057-0.414,0.979-0.346,1.556
		c0.597,4.983,1.175,9.97,1.802,14.949c0.09,0.712-0.34,2.03,1.414,1.282c0.77-0.328,1.216,0.776,0.518,1.181
		c-2.084,1.198-1.288,2.987-1.165,4.612c0.179,2.377,0.535,4.74,0.753,7.115c0.664,7.228,1.157,14.479,3.483,21.435
		c0.48,1.438,0.937,2.887,1.403,4.329c0.676-4.164-0.238-8.127-0.436-12.133c-0.424-8.602,0.129-17.115,2.158-25.515
		c0.429-1.774,0.666-3.757-0.717-5.181c-1.273-1.313-1.591-1.987,0.195-3.131c1.15-0.735,1.102-1.996-0.493-2.561
		c-0.762-0.271-1.602-0.718-2.333-0.605c-2.68,0.408-1.508-1.088-0.87-1.871c0.713-0.875,1.179-2.039,0.706-2.691
		C235.25,273.518,237.641,271.341,236.114,269.139z M212.949,343.148c0.078-1.047-0.396-1.895-0.85-2.791
		c-1.849-3.662-4.13-7.125-5.24-11.133c-2.283-8.24-5.322-16.086-11.61-22.229c-0.594-0.581-0.933-1.955-1.989-1.38
		c-0.96,0.523-1.159,1.771-0.815,2.873c0.538,1.724,1.213,3.404,1.746,5.129c1.481,4.783,2.745,9.643,4.415,14.357
		c2.268,6.403,6.042,12.021,9.9,17.561c0.595,0.854,1.11,2.122,2.301,1.964c1.303-0.174,1.564-1.549,1.888-2.647
		C212.855,344.307,212.869,343.719,212.949,343.148z M255.768,436.04c7.027-26.562,10.719-53.769,15.59-80.746
		C264.458,381.881,255.721,408.111,255.768,436.04z M219.132,339.382c-0.263,0.054-0.526,0.106-0.789,0.159
		c0,1.884,0.053,3.77-0.014,5.648c-0.077,2.168-0.853,4.403,1.21,6.209c0.574,0.502,0.227,1.41-0.088,2.103
		c-0.31,0.679-0.694,1.369-0.496,2.125c1.762,6.706,1.162,13.78,3.295,20.44c2.687,8.39,4.472,17,5.961,25.675
		c0.469,2.726,1.033,5.435,1.555,8.15c-0.082-4.62-0.863-9.146-1.196-13.704c-0.538-7.352-2.956-14.547-1.803-22.035
		c0.086-0.555-0.006-1.158-0.122-1.717c-1.691-8.127-3.354-16.264-5.134-24.371C220.868,345.139,219.934,342.273,219.132,339.382z
		 M274.252,337.124c0.955-2.532,1.854-4.399,2.117-6.597c0.867-7.178,1.273-14.424,3.154-21.463
		c0.432-1.612,0.855-3.127,1.808-4.523c1.353-1.989,1.011-5.109-0.562-6.914c-0.52-0.593-1.09-0.757-1.746-0.412
		c-1.896,0.996-4.185,1.532-4.047,4.521c0.078,1.694-0.094,3.556-0.732,5.101c-2.918,7.026-1.885,14.267-1.314,21.454
		C273.145,331.027,272.93,333.878,274.252,337.124z M267.434,284.005c1.741,0.341,2.271,0.912,1.828,2.336
		c-0.441,1.421-1.297,1.495-2.433,1.388c-0.792-0.075-1.778-0.448-2.067,0.688c-0.975,3.814-3.255,7.405-1.674,11.653
		c0.914,2.454,1.424,5.065,2.585,7.437c0.552,1.125,0.726,3.065,2.142,2.969c1.59-0.107,1.521-2.094,1.883-3.369
		c2.056-7.258,1.308-14.654,0.994-22.026C270.578,282.424,270.521,282.393,267.434,284.005z M294.686,310.979
		c-4.123-1.695-5.598-1.651-6.524,0.468c-2.667,6.09-5.566,12.112-6.571,18.788c-0.941,6.264-1.851,12.529-3.604,18.64
		c-0.166,0.581-0.747,1.479,0.005,1.754c1.01,0.37,1.368-0.665,1.583-1.45c1.475-5.461,3.632-10.768,3.646-16.562
		c0.004-1.208,0.131-2.597,0.723-3.591c2.508-4.207,4.563-8.775,8.703-11.791c0.9-0.656,1.432-1.387,0.182-2.332
		c-0.854-0.646-1.71-1.596-1.32-2.688C291.916,311.064,293.287,311.295,294.686,310.979z M231.603,386.057
		c0.979,8.463,1.835,16.94,3.433,25.315c0.862,4.516,1.232,9.185,4.287,13.09C239.215,411.113,235.783,398.518,231.603,386.057z
		 M248.291,314.961c-1.57,2.559-1.057,5.24-1.99,7.536c-0.773,1.901-0.878,3.81,0.583,5.573c0.64,0.772,0.937,1.921,0.593,2.817
		c-1.188,3.103-0.411,6.408-1.116,9.501c-1.025,4.49,1.757,8.131,2.278,12.284c0.037-5.714,0.948-11.407-0.205-17.067
		c-0.232-1.138-0.822-2.285,0.107-3.264c1.049-1.104,1.01-2.392,0.908-3.693C249.105,324.232,248.707,319.82,248.291,314.961z
		 M361.47,139.674c0.712-0.059,1.943-0.296,3.158-0.234c1.97,0.1,2.058-1.605,2.301-2.647c0.279-1.193-1.168-0.656-1.834-0.93
		c-0.453-0.188-1.02-0.216-1.373-0.51c-1.737-1.446-3.282-0.08-4.713,0.517c-0.353,0.147-2.074,0.501-1.621,1.875
		c0.634,1.922-0.711,2.631-2.046,2.961c-1.855,0.459-2.199,2.303-3.429,3.33c-0.848,0.707,0.753,1.587,0.993,2.502
		c0.062,0.236,0.166,0.465,0.271,0.686c0.326,0.668-0.003,1.776,1.229,1.842c-0.063-1.218,1.789-1.612,1.479-2.575
		c-0.442-1.392,0.206-1.255,1.104-1.449c1.828-0.394,3.354-2.491,2.646-3.966C358.641,138.997,359.886,139.533,361.47,139.674z
		 M248.597,426.336c1.728-12.439,2.817-24.753,0.465-37.128c-0.101,0.489-0.257,0.96-0.287,1.438
		c-0.701,11.228-0.987,22.469-1.242,33.712C247.514,425.155,247.541,426.036,248.597,426.336z M226.088,273.682
		c-1.197,1.283,0.019,3.215-1.262,3.939c-2.494,1.415-1.807,3.383-1.432,5.332c0.314,1.639,0.143,3.264,0.184,4.895
		c0.024,0.985-0.104,2.146,0.568,2.832c1.004,1.021,0.838,1.895,0.467,3.09c-0.494,1.593,0.26,2.484,2.041,2.854
		c0.057-0.965-1.268-1.317-1.071-2.326c0.351-0.415,0.759-0.235,1.157-0.223c0.663,0.021,1.596,0.602,1.82-0.528
		c0.2-1.011-0.648-0.997-1.383-1.256c-1.46-0.516-0.513-1.137,0.089-1.707c0.77-0.729,1.517-1.408-0.435-1.447
		c-0.744-0.014-1.271-0.758-1.338-1.562c-0.059-0.69,0.427-1.021,1.059-1.132c0.793-0.135,1.148-0.618,1.048-1.389
		C227.107,281.262,226.595,277.473,226.088,273.682z M242.533,319.921c1.238-8.466,4.625-16.837,0.898-25.795
		C241.042,302.863,241.377,311.385,242.533,319.921z M223.414,335.902c0.205-1.517-0.434-2.853-0.898-4.215
		c-0.613-1.804-1.033-3.642-1.078-5.545c-0.069-2.953-0.074-5.908-0.146-8.861c-0.026-1.103-2.47-3.607-3.273-3.252
		c-1.603,0.712-2.346,1.992-1.646,3.808c0.266,0.688,0.435,1.42,0.74,2.089c1.604,3.521,3.013,7.105,4.269,10.771
		C221.979,332.438,222.026,334.4,223.414,335.902z M189.744,314.666c0.099-0.038,0.198-0.075,0.297-0.113
		c-0.59-1.832-1.181-3.664-1.77-5.496c-0.209-0.651-0.498-1.221-1.27-1.342c-1.105-0.175-1.129-0.859-1.025-1.814
		c0.295-2.711,0.243-2.709-2.162-3.779c-0.174-0.077-0.405-0.396-0.365-0.53c0.946-3.054-1.921-2.591-3.254-3.512
		c-0.377-0.261-0.959-0.513-1.352-0.052c-0.406,0.479,0.048,0.914,0.313,1.3C182.682,304.441,186.214,309.553,189.744,314.666z
		 M344.438,278.871c-2.168-0.639-5.008,0.043-5.038-3.456c-0.005-0.381-0.706-0.524-0.978-0.09
		c-1.259,2.034-3.799,3.351-3.463,6.308c0.08,0.7-0.328,1.469,0.451,1.989c0.816,0.548,1.43-0.05,2.199-0.257
		C340.355,282.631,341.14,279.01,344.438,278.871z M408.322,208.771c-1.248,2.934-2.311,2.081-3.442,0.381
		c-0.252-0.378-0.915-0.564-0.718-1.142c0.23-0.679,0.771-0.354,1.234-0.219c0.718,0.208,1.171-0.039,1.068-0.828
		c-0.078-0.609-0.477-1.251-1.12-1.034c-1.022,0.347-2.435,0.378-2.733,1.709c-0.232,1.033-0.596,1.67-1.692,1.749
		c-0.558,0.04-1.063,0.307-0.871,0.911c0.551,1.709-0.469,2.784-2.062,4.307c1.652-0.433,2.574,0.054,3.742,0.334
		c-0.506-1.196-1.15-2.324,0.799-2.249c1.15,0.044,0.816-0.713,0.688-1.357c-0.088-0.439-0.021-0.881,0.49-0.96
		c0.577-0.089,0.855,0.293,1.048,0.819c0.966,2.638,3.077,3.011,5.401,0.764C408.483,211.691,408.273,210.489,408.322,208.771z
		 M275.908,95.083c0.291,0.97-0.028,1.721-0.697,2.453c-0.622,0.68-0.623,1.521,0.007,2.227c0.57,0.638,1.369,0.651,2.021,0.229
		c0.732-0.474,1.507-1.04,1.289-2.142c-0.698-3.543-0.439-4.117,2.918-5.912c0.604-0.321,0.967-0.628,0.731-1.299
		c-0.526-1.509-1.993-1.312-3.108-1.476c-1.246-0.183-1.987,1.052-2.969,1.637C277.018,92.271,275.498,93.636,275.908,95.083z
		 M237.846,265.852c-1.764-0.805-3.036-1.265-1.652-2.685c0.922-0.944,1.197-1.935,0.241-3.038c-0.851-0.982-1.719-1.8-3.153-1.004
		c-0.802,0.443-1.554,0.434-2.131-0.456c-0.504-0.776-1.021-1.628-2.086-0.585c-0.637,0.624-1.561,1.122-1.132,2.216
		c0.572,1.462,1.258,0.763,1.926,0.031c0.064-0.071,0.366-0.045,0.449,0.04c1.009,1.041,1.672,2.346,2.876,3.277
		c0.859,0.666-0.627,1.324-0.545,2.434C234.115,264.652,235.554,266.18,237.846,265.852z M216.628,285.501
		c-0.224,1.544-0.54,2.462-1.647,2.371c-3.028-0.245-1.89,1.396-1.636,3.028c0.282,1.805,2.06,2.494,2.481,4.096
		c0.102,0.384,0.508,0.271,0.832,0.16c1.74-0.605,3.177-3.357,2.463-4.951C218.492,288.801,217.686,287.477,216.628,285.501z
		 M230.181,314.6c0.801-4.646-0.497-9.146-0.569-13.707c-0.037-2.382-2.131-1.443-3.17-1.514c-1.314-0.088-0.559,1.242-0.438,1.912
		C226.834,305.902,229.195,310.025,230.181,314.6z M215.421,109.777c-0.045-1.708-2.008-3.288-3.249-2.628
		c-2.145,1.139-4.076,2.47-4.252,5.271c-0.063,1.024,0.436,1.534,1.192,1.926c0.532,0.275,1.106,0.064,1.099-0.521
		c-0.025-1.762,1.166-1.164,2.043-1.13C214.363,112.775,215.143,111.499,215.421,109.777z M254.884,116.301
		c-0.216-0.874-1.231-0.168-1.387-0.856c-0.151-0.669,1.017-0.953,0.583-1.73c-0.111-0.199-0.35-0.463-0.532-0.466
		c-1.766-0.033-3.365-2.908-5.298-0.325c-0.113,0.152-0.547,0.265-0.679,0.174c-2.022-1.384-2.179,0.686-3.013,1.564
		c-0.493,0.521-1.015,1.032-0.326,1.637c0.795,0.697,1.707,1.38,2.875,1.082c0.714-0.183,1.013-0.68,0.853-1.508
		c-0.409-2.11,1.214-2.025,2.481-2.042c1.37-0.018,1.547,1.28,1.972,2.227c0.362,0.807,0.918,1.157,1.765,0.808
		C254.453,116.751,254.664,116.482,254.884,116.301z M348.248,119.038c0.04-0.831,0.109-1.703-0.553-1.93
		c-1.582-0.542-2.228-1.459-1.953-3.125c0.079-0.482-0.315-0.951-0.909-0.965c-0.65-0.015-0.771,0.52-0.873,1.003
		c-0.276,1.286-0.436,2.605-0.812,3.859c-0.851,2.827-0.894,2.811,1.8,2.486c0.232-0.029,0.546-0.04,0.713,0.085
		C347.861,122.1,347.761,120.014,348.248,119.038z M213.216,263.707c0.536-0.21,1.986,0.766,1.899-1.04
		c-0.059-1.22-0.197-2.44-0.398-3.646c-0.176-1.045-0.66-1.209-1.462-0.398c-1.694,1.709-3.016,4.004-5.956,3.822
		c-0.455-0.027-0.974,0.283-0.993,0.886c-0.006,0.203,0.147,0.508,0.318,0.601c0.466,0.254,0.72-0.16,1.015-0.428
		c0.934-0.847,1.984-0.585,3.002-0.247C211.411,263.514,212.125,263.967,213.216,263.707z"/>
</g>
</svg>
