<?xml version="1.0" encoding="utf-8"?>
<!-- Generator: Adobe Illustrator 15.0.0, SVG Export Plug-In . SVG Version: 6.00 Build 0)  -->
<!DOCTYPE svg PUBLIC "-//W3C//DTD SVG 1.1//EN" "http://www.w3.org/Graphics/SVG/1.1/DTD/svg11.dtd">
<svg version="1.1" id="Layer_1" xmlns="http://www.w3.org/2000/svg" xmlns:xlink="http://www.w3.org/1999/xlink" x="0px" y="0px"
	 width="500px" height="500px" viewBox="0 0 500 500" enable-background="new 0 0 500 500" xml:space="preserve">
<circle fill="#1E293F" cx="249.316" cy="249.316" r="249.316"/>
<g>
	<path fill="#FFFFFF" d="M174.716,94.14c0.678-0.253,1.36-0.725,2.031-0.711c1.12,0.023,1.954,0.437,1.033,1.838
		c-0.552,0.839,0.688,3.024,1.616,2.763c2.381-0.671,1.969,0.729,1.809,2.081c-0.07,0.597,0.029,1.147,0.619,1.459
		c0.688,0.362,1.253,0.054,1.77-0.385c0.809-0.689,1.439-2.254,2.711-1.36c1.385,0.974,0.26,2.341-0.098,3.525
		c-0.046,0.153-0.056,0.316-0.087,0.507c0.505,0.391,0.657-0.197,0.927-0.369c0.789-0.503,1.715-1.014,2.367-0.111
		c0.598,0.825-0.478,1.22-0.955,1.674c-0.775,0.736-1.617,1.341,0.107,1.946c1.211,0.424,1.104,1.641,1.188,2.623
		c1.083,0.096,1.574-0.745,2.36-0.931c0.876-0.207,1.801-0.289,1.921,0.788c0.294,2.642,2.065,2.117,3.8,2.047
		c0.229-1.261-2.838-2.643,0.215-3.504c-1.016-1.58-3.242-1.37-4.085-3.219c-1.263-2.769,0.594-5.032,1.202-7.378
		c0.416-1.603,2.505-0.499,3.945,0.018c0.038-1.25-0.295-2.261-0.803-3.292c-0.383-0.778-0.859-1.861-0.598-2.542
		c1.008-2.626-0.818-3.073-2.785-3.812c0.25,1.071-1.08,2.044,1.117,2.841c1.713,0.621-0.049,2.363-0.572,3.479
		c-0.465,0.987-1.324,1.674-2.564,0.896c-2.301-1.438-2.682-2.86-1.376-5.305c0.336-0.63,0.728-1.23,1.093-1.84
		c-0.612-0.745-1.441-0.303-2.084-0.588c-1.225-0.542-2.171-1.18-0.588-2.339c0.596-0.437,0.864-0.753,0.747-1.549
		c-0.222-1.506,0.333-2.783,1.292-4.017c1.295-1.663,0.768-2.854-1.297-3.353c-0.6-0.145-1.086-0.368-1.188-1.028
		c-0.101-0.646,0.305-1.042,0.757-1.418c1.102-0.916,2.537-0.802,3.791-0.983c0.004-0.789-0.477-0.856-0.764-1.098
		c-3.681-3.098-3.854-3.665-2.477-8.047c0.209-0.663,0.498-1.234,1.312-1.16c0.688,0.062,1.091,0.652,1.001,1.18
		c-0.435,2.542,2.081,4.067,2.123,6.469c0.015,0.865,0.919,1.646,1.696,1.958c2.729,1.095,3.461,3.598,4.49,5.919
		c0.921,2.075,1.538,2.147,3.183,0.645c1.004-0.917,2.192-1.638,3.321-2.413c0.438-0.302,0.895-0.231,1.34,0.106
		c1.406,1.068,1.42,4.038-0.041,5.229c0.828,0.894,1.725,0.945,2.797,0.449c1.09-0.504,2.145-0.442,2.533,0.917
		c0.441,1.545,1.115,1.269,2.03,0.438c0.655-0.595,1.378-1.327,2.347-0.764c1.119,0.65,0.498,1.732,0.449,2.652
		c-0.014,0.239-0.031,0.528-0.166,0.703c-2.021,2.631,0.443,3.734,1.801,5.155c0.383,0.4,0.957,1.125,1.655,0.587
		c0.724-0.559,0.526-1.243-0.064-1.88c-0.786-0.85-0.694-1.679,0.388-2.125c1.326-0.548,2.033-1.234,2.826-2.648
		c0.741-1.324,0.968-2.868,1.81-4.036c2.046-2.839,0.104-5.457-0.185-8.156c-0.111-1.043-0.666-1.787-1.886-1.842
		c-0.655-0.029-1.33-0.24-1.376-1.082c-0.035-0.658,0.418-1.112,0.961-1.265c1.548-0.437,2.461-1.874,3.751-2.473
		c1.908-0.885,4.322,0.049,6.313-1.125c0.016-0.01,0.508,0.514,0.461,0.713c-0.332,1.403,0.676,2.243,1.254,3.273
		c0.568,1.011,0.709,2.012-0.436,2.764c-1.324,0.87-0.975,1.667,0.074,2.453c0.065,0.049,0.122,0.122,0.195,0.144
		c1.075,0.336,1.516,2.243,2.603,1.721c1.04-0.499,0.397-2.06,0.437-3.157c0.057-1.609,0.285-2.911,2.328-1.6
		c-0.379-2.679-0.107-2.938,2.584-2.439c0.539,0.1,1.143,0.502,1.591-0.037c0.513-0.618,0.062-1.221-0.263-1.774
		c-0.696-1.184-1.515-2.3-1.778-3.699c-0.22-1.165-0.882-2.432,0.981-2.897c0.428-0.107,0.723-0.531,0.569-0.937
		c-0.372-0.986-0.659-1.963,0.607-2.421c1.554-0.563,3.183-0.746,4.682,0.171c0.606,0.371,1.154,0.913,1.589,1.484
		c0.86,1.137,1.81,1.509,3.141,0.802c0.482-0.256,1.08-0.387,1.632-0.404c1.396-0.044,2.916,0.368,2.866,1.903
		c-0.048,1.537-1.684,1.095-2.752,1.122c-0.799,0.021-1.666-0.295-2.389-0.079c-0.98,0.293-2.136,0.695-2.806,1.299
		c-1.148,1.036,0.648,1.64,0.955,2.534c0.762,2.233,0.231,3.903-1.755,4.6c1.058,1.179,3.517,1.88,1.304,4.279
		c0.994,0.233,1.932,0.406,2.67,1.03c0.685,0.577,1.584,1.119,1.117,2.159c-0.455,1.013-1.504,0.877-2.354,0.649
		c-0.911-0.245-1.765-0.711-2.673-1.094c-0.458,0.906,0.381,1.367,0.568,2.012c0.189,0.655,0.418,1.521-0.311,1.705
		c-2.267,0.574-1.521,2.026-1.205,3.419c0.107,0.47,0.328,1.057,0.15,1.424c-1.187,2.468,0.853,4.221,1.287,6.33
		c0.756-1.964,0.111-3.837-0.459-5.92c0.991,1.094,1.545,1.583,2.754,0.291c0.938-1.002,3.053,0.069,4.289-1.354
		c-0.412-0.518-2.127-0.279-1.102-1.634c1.713-2.261,1.473-5.385,3.557-7.573c0.85-0.891,1.463-1.489,2.691-1.59
		c2.199-0.179,3.588-2.209,2.999-4.371c-0.229-0.84-0.161-1.397,0.583-1.857c0.341-0.211,0.656-0.468,0.97-0.723
		c0.812-0.659,0.87-2.837,2.548-1.678c1.393,0.964,1.93,2.725,1.264,4.374c-0.984,2.438,0.388,3.091,2.283,3.332
		c1.066,0.136,1.996,0.307,2.098,1.53c0.113,1.349-0.323,2.617-1.377,3.48c-1.055,0.866-1.61-0.469-2.569-0.899
		c0.517,2.445-0.661,4.644-0.349,6.956c0.345,2.539-2.955,3.673-2.43,6.301c0.645,0.352,1.096-0.115,1.483-0.461
		c1.853-1.643,3.994-1.537,6.176-1.053c0.709,0.157,1.372,0.692,1.767-0.393c0.287-0.797,0.233-1.416-0.703-1.728
		c-0.686-0.229-1.506-0.438-1.415-1.392c0.093-0.982,0.759-1.592,1.659-1.903c2.123-0.733,3.865-1.713,4.666-4.116
		c0.432-1.293,1.524-2.172,3.244-0.901c1.713,1.268,5.577,0.378,7.094-1.188c0.824-0.853,1.717-2.614,3.033-1.353
		c1.127,1.08-0.162,2.385-1.02,3.339c-1.8,2.01-1.792,2.301,0.363,3.5c1.826,1.017,2.232,2.841,1.061,4.691
		c-0.538,0.852-1.103,1.513-0.586,2.814c0.539,1.354-0.886,1.324-1.855,1.354c-0.777,0.024-1.969-1.004-2.219,0.39
		c-0.221,1.221,1.129,1.322,2.027,1.635c1.148,0.4,3.068,0.46,2.531,2.193c-0.542,1.746-2.229,1.502-3.695,0.794
		c-0.496-0.24-1.023-0.414-1.813-0.198c2.07,1.512,4.141,3.024,6.188,4.521c1.025-0.545-0.635-1.743,0.576-1.995
		c0.816-0.17,1.127,0.798,1.643,1.271c2.715,2.498,3.186,5.905,1.245,9.086c-0.276,0.454-0.457,0.835-0.214,1.334
		c1.757,3.596,1.395,7.543,1.813,11.352c0.104,0.915,0.225,1.461,1.109,1.866c1.666,0.762,1.534,2.003,0.432,3.105
		c-1.018,1.017-1.408,1.891-0.35,3.097c0.694,0.791,0.047,1.865,0.512,3.176c0.488-1.583,2.775-2.305,0.608-4.15
		c-0.763-0.648-0.118-1.857,0.583-2.604c0.955-1.014,1.936-1.98,3.566-1.455c2.219,0.714,4.422,1.438,6.298,3.023
		c-0.587-1.374-1.265-2.601-2.454-3.448c-0.879-0.625-1.594-1.402-2.057-2.357c-0.806-1.652-0.149-3.185,1.646-3.435
		c2.092-0.292,2.092-1.411,1.494-2.916c-0.361-0.914-0.982-1.979,0.151-2.576c1.304-0.686,1.522,0.697,2.005,1.471
		c0.248,0.401,0.452,1.183,0.896,1.021c2.021-0.735,2.932-0.48,2.778,2.007c-0.04,0.651,1.454,0.322,1.972-0.322
		c0.756-0.94,1.289-2.058,2.02-3.024c0.81-1.076,1.734-2.078,3.194-0.868c0.368,0.305,0.724,0.271,1.126,0.124
		c0.797-0.289,1.674-0.525,2.07,0.49c0.354,0.896-0.368,1.499-0.932,2.08c-0.227,0.232-0.5,0.414-0.728,0.645
		c-2.574,2.644-2.563,3.838,0.268,6.205c1.552,1.297,2.433,2.064-0.208,3.311c-1.396,0.658-2.933,1.987-2.832,4.173
		c0.035,0.781-0.646,1.594-0.983,2.356c0.766,1.039,2.439-1.933,2.64,0.626c0.08,1.029-0.521,2.112-0.825,3.214
		c1.202,0.249,1.933-0.419,2.657-1.037c1.34-1.138,2.85-1.276,4.285-0.431c1.51,0.888,1.574,2.542,1.035,3.908
		c-1.623,4.11-1.123,8.724-3.398,12.745c-0.842,1.483-2.099,2.8-2.57,4.57c-0.291,1.088-0.6,2.149-0.844,3.744
		c1.143-1.108,0.646-2.89,2.428-3.223c-0.438,2.051-1.021,3.851-2.006,5.486c-0.581,0.962-0.975,1.617,0.508,2.136
		c0.914,0.32,1.816,1.102,1.116,2.252c-0.751,1.231-1.708,0.878-2.627,0.037c-0.81-0.741-1.579-1.36-1.771,0.513
		c-0.055,0.529-0.688,1.303-1.192,1.428c-1.758,0.436-1.558,1.053-0.854,2.479c0.675,1.365-1.171,0.319-1.545,1.147
		c1.362,0.168,2.681,0.344,3.937,0.933c1.633,0.765,3.176,1.013,4.869-0.467c1.715-1.497,4.398-0.351,5.309,1.913
		c0.271,0.673,0.354,1.435,0.692,2.062c1.245,2.296,2.005,2.327,3.528,0.257c0.228-0.309,0.567-0.767,0.854-0.766
		c3.729,0.012,4.856-3.113,6.491-5.481c1.116-1.618,2.774-2.802,3.33-4.938c0.385-1.476,4.054-1.222,4.865,0.187
		c0.442,0.764,0.106,1.242-0.595,1.522c-0.629,0.25-1.042,0.538-0.483,1.21c0.593,0.715,0.887,0.227,1.263-0.289
		c0.708-0.973,1.394-2.067,2.836-1.936c0.214,0.02,0.563,0.447,0.554,0.669c-0.078,1.419-1.004,2.389-2.063,3.127
		c-1.439,1.005-3.012,1.614-4.723,0.433c-0.435-0.298-0.91-0.746-1.716-0.229c1.231,1.243,2.229,2.596,4.081,3.025
		c1.236,0.287,2.301,1.11,2.197,2.533c-0.093,1.314-1.245,2.014-2.378,2.07c-2.124,0.104-3.027,1.671-4.11,3.017
		c-0.51,0.631-0.798,1.406-1.732,1.531c-1.146,0.153-0.713,0.789-0.408,1.383c0.418,0.812,0.971,0.462,1.359,0.06
		c0.613-0.635,1.111-1.38,1.674-2.065c0.383-0.465,0.869-0.77,1.488-0.55c0.623,0.221,0.764,0.782,0.812,1.373
		c0.115,1.396-0.488,2.638-1.36,3.529c-0.771,0.786-1.294,1.558-1.521,2.59c-0.085,0.39-1.354,0.529-0.231,1.181
		c0.585,0.34,1.047,0.372,1.437-0.27c0.25-0.414,0.503-0.842,0.835-1.187c0.571-0.592,1.253-1.167,2.127-0.831
		c0.854,0.328,0.678,1.195,0.685,1.907c0.008,1.064-0.097,2.217,1.099,2.734c2.788,1.208,2.665,3.516,2.386,5.936
		c-0.233,2.034-1.146,3.783-2.602,5.743c2.297-0.461,2.371-2.438,3.514-3.448c1.185,0.569,1.73,1.591,1.247,2.754
		c-0.635,1.526-0.912,3.476-3.15,3.827c0.032,1.792,5.987,1.819,1.537,4.932c-0.02,0.442,0.567,0.424,0.599,0.582
		c0.668,3.465,4.887,5.76,3.422,9.833c-0.472,1.308-0.125,1.756,0.879,2.143c1.394,0.537,3.051,0.648,2.883,2.884
		c-0.062,0.83,0.926,0.125,1.404,0.339c1.069,0.481,2.438,0.83,0.802,2.228c-0.931,0.795-0.191,1.22,0.276,1.751
		c1.172,1.33,2.146,2.417-0.703,3.069c-1.402,0.32-1.506,1.998-1.172,3.384c0.108,0.459,0.599,1.091,0.441,1.311
		c-2.641,3.733,1.391,4.194,2.908,5.699c1.06,1.047,1.678,1.733,0.459,2.927c-0.651,0.639-0.934,1.625-0.61,2.227
		c0.983,1.83-0.408,1.272-1.33,1.295c0.315,1.308,1.339,1.599,2.267,2.022c4.768,2.185,6.085,7.285,2.846,11.526
		c-1.723,2.259-2.604,4.786-3.312,7.468c-1.411,5.352-1.288,10.817-1.628,16.274c-0.409,6.556-0.954,13.163-5.734,18.525
		c-1.738,1.948-2.715,4.569-4.095,6.854c-0.777,1.286-1.68,2.48-3.563,1.606c-0.096,1.779-0.429,3.384,0.649,5.09
		c0.659,1.042,0.786,1.626,1.643,0.412c0.916-1.301,2.146-1.449,3.418-0.932c1.093,0.445,1.875-0.217,2.787-0.406
		c0.595-0.121,0.838-0.486,0.354-1.029c-1.155-1.292-0.075-2.25,0.533-3.223c0.447-0.713,1.355-0.92,1.912-0.392
		c1.054,0.999,2.779,1.425,2.868,3.318c0.199,4.252-1.137,6.097-6.323,8.591c1.029-0.085,1.941,0.063,2.507,1.003
		c0.144,0.24,0.39,0.782,0.668,0.456c1.37-1.605,2.308-0.654,2.997,0.555c0.595,1.045,2.016,1.832,1.306,3.42
		c-0.11,0.246-0.024,0.658,0.106,0.926c1.049,2.087,0.914,3.963-1.104,5.457c1.25,0.973,1.887-0.594,2.985-0.266
		c0.22,0.672-0.479,1.532,0.319,2.314c3.809,3.73,2.521,8.003,0.911,12.1c-2.155,5.485-6.267,9.198-11.469,11.844
		c-1.567,0.799-3.339,1.166-4.87,1.205c-3.337,0.084-6.283,1.19-9.288,2.303c-0.598,0.224-1.331,0.397-1.708,0.846
		c-3.088,3.646-7.604,4.428-11.758,5.89c-1.758,0.618-3.642,0.396-5.527,0.238c-4.417-0.364-8.898-0.771-13.024,1.519
		c-1.7,0.939-2.79,2.318-3.372,4.239c-1.332,4.396-5.956,5.978-9.834,3.433c-1.335-0.877-3.047-0.801-4.289-1.563
		c-2.16-1.324-4.043-2.192-6.535-0.719c-0.941,0.558-2.508-0.245-3.096-0.985c-2.086-2.641-5.098-2.504-7.773-2.546
		c-2.504-0.038-5.186-0.146-7.639,0.962c-0.643,0.29-1.443,0.452-2.137,0.37c-6.349-0.752-9.412,4.047-13.054,7.763
		c-1.112,1.135-1.979,2.537-3.069,3.743c-2.652,2.933-1.957,6.638-1.592,9.961c0.482,4.417,0.549,8.855,1.063,13.271
		c0.566,4.903,0.324,4.813,5.479,5.088c3.146,0.167,6.281-0.202,9.439,0.182c1.572,0.19,2.752,1.146,4.335,1.337
		c4.513,0.545,9.026-0.506,13.53,0.305c1.9,0.341,3.814,0.394,5.664,1.156c1.639,0.679,3.445,0.676,5.252,0.595
		c6.375-0.287,12.754-0.795,19.104,0.471c2.874,0.573,5.821,0.312,8.729,0.229c2.97-0.084,5.825,0.135,8.454,1.625
		c2.131,1.209,4.442,1.486,6.812,1.346c1.665-0.103,3.193,0.458,4.778,0.736c0.944,0.166,1.656,0.834,1.663,1.829
		c0.006,1.241-1.071,1.421-1.932,1.296c-2.904-0.423-3.127,2.959-5.282,3.642c-0.479,0.149,0.14,0.847,0.577,0.999
		c0.607,0.209,1.273,0.236,1.891,0.428c0.691,0.215,1.066,0.729,0.967,1.48c-0.092,0.672-0.54,0.981-1.192,0.947
		c-6.046-0.313-11.845,2.73-17.979,1.319c-0.507-0.116-1.475-0.147-1.429,0.5c0.213,3.021-2.076,2.138-3.473,2.166
		c-5.938,0.118-11.893-0.66-17.812,0.398c-0.372,0.064-0.924,0.081-1.148-0.136c-2.566-2.461-5.479-1.147-8.381-1.053
		c-2.577,0.085-5.311-0.099-7.811-0.011c-4.896,0.171-9.816-1.768-14.791,0.464c-3.006,1.348-6.528,0.104-9.816-0.073
		c-1.107-0.061-2.816-1.185-2.217,1.448c0.148,0.65-0.537,1.132-1.105,0.972c-2.338-0.66-4.668,0.312-6.996-0.088
		c-4.583-0.783-9.222-0.178-13.896-1.292c-4.32-1.03-9.103-0.385-13.658-0.104c-5.286,0.321-10.458-0.394-15.651-1.047
		c-5.298-0.669-10.588-1.391-15.878-2.104c-1.293-0.175-2.354,0.271-3.41,0.964c-2.519,1.648-5.051,2.411-7.822,0.339
		c-1.02-0.764-2.462-1.001-3.734-0.758c-1.66,0.317-3.205,0.206-4.764-0.365c-0.544-0.198-1.118-0.216-1.654,0.064
		c-4.874,2.545-9.892,1.888-15.036,0.967c-3.839-0.688-7.682-1.888-11.71-0.909c-2.037,0.495-4.164,0.398-6.264,0.113
		c-1.268-0.173-2.928,0.176-1.672-2.086c0.412-0.744-0.355-1.201-1.049-1.239c-1.443-0.079-2.822-0.81-4.316-0.371
		c-0.906,0.269-1.771-0.025-2.586-0.413c-0.7-0.332-1.237-0.848-1.025-1.711c0.189-0.771,0.879-0.923,1.537-0.924
		c1.854-0.002,3.71,0.004,5.561,0.098c1.893,0.098,3.654-0.428,5.477-1.062c-2.16-0.612-4.051-2.577-6.457-0.913
		c-0.588-0.659-0.242-1.096,0.146-1.357c3.313-2.236,6.411-4.992,10.847-4.613c1.583,0.136,2.861-0.438,4.264-1.286
		c2.243-1.354,5.049-1.07,7.521-0.963c2.928,0.127,5.875,0.107,8.693-0.278c5.543-0.763,11.178-0.609,16.639-1.55
		c4.016-0.691,7.961-1.621,12.065-1.935c4.126-0.312,8.147,0.582,12.239,0.476c1.6-0.042,3.252,0.425,4.837,0.094
		c6.356-1.327,12.726-0.772,19.054-0.037c2.283,0.268,2.744-0.477,2.697-2.38c-0.15-5.988,0.312-11.984-0.345-17.968
		c-0.212-1.924-0.136-3.876,0.187-5.813c0.121-0.729,0.314-2.045-1.208-0.878c-0.551,0.423-0.889-0.177-1.04-0.622
		c-0.258-0.759-0.42-1.549-0.792-2.977c-0.179,0.572-0.212,0.796-0.313,0.982c-0.43,0.797-0.025,2.17-1.335,2.338
		c-1.229,0.156-1.796-0.901-2.407-1.758c-0.273-0.385-0.621-1.104-1.049-0.762c-1.743,1.411-3.818,0.188-5.62,0.855
		c-1.52,0.566-2.06-0.245-2.317-1.564c-0.539-2.758-1.818-4-4.506-4.148c-2.611-0.146-5.178,0.446-7.846-0.68
		c-1.261-0.529-3.205,0.453-4.94,0.17c-4.269-0.695-8.388,0.456-12.427,1.559c-3.426,0.934-6.668,0.572-9.688-0.873
		c-3.246-1.555-6.715-1.807-10.119-2.33c-1.564-0.241-2.982-0.4-4.222-1.42c-2.313-1.9-5.591-2.42-7.142-5.551
		c-0.547-1.105-2.516-1.604-3.92-2.162c-1.358-0.541-1.945-1.344-1.689-2.779c0.084-0.464,0.357-1.018-0.061-1.378
		c-0.262-0.226-1.063-0.304-1.078-0.263c-0.79,2.316-3.459-0.227-4.156,1.521c-0.416,1.042-0.325,2.339-1.666,2.611
		c-0.789,0.159-1.256-0.642-1.555-1.318c-0.642-1.454-1.334-3.53,0.084-4.268c4.265-2.216,1.165-3.832-0.123-5.668
		c-0.127-0.181-0.277-0.347-0.536-0.666c-0.681,1.991-2.205,3.019-3.78,3.979c-0.482,0.296-1.076,0.558-1.539-0.008
		c-0.359-0.437-0.186-0.983,0.141-1.339c0.889-0.964,1.042-1.768,0.145-2.93c-0.748-0.971,0.094-1.594,1.068-1.901
		c0.691-0.222,1.488-0.387,1.59-1.28c0.109-0.982-0.863-0.757-1.344-1.085c-1.579-1.075-0.994-2.397-0.305-3.622
		c0.488-0.865,1.299-1.582-0.195-2.261c-0.531-0.242-0.574-0.879-0.218-1.252c1.515-1.582,0.931-2.883-0.402-4.176
		c-0.27-0.263-0.379-0.688-0.677-1.259c-0.744,0.832,0.018,2.929-1.768,2.328c-1.427-0.479-1.644-1.989-1.424-3.291
		c0.361-2.145,2.209-3.676,2.549-5.932c0.121-0.805,1.587-1.078,2.352-0.664c2.793,1.512,6.229-0.124,8.988,2.582
		c-0.562-2.927-1.893-3.639-4.197-3.514c-1.297,0.07-2.902-0.288-2.564-2.608c0.173-1.183-1.062-2.187-2.134-2.979
		c-0.706-0.521-2.616-0.65-1.136-2.325c0.043-0.05-0.159-0.456-0.319-0.523c-0.623-0.262-1.126,0.021-1.448,0.545
		c-1.26,2.035-1.986,0.174-2.746-0.438c-1.395-1.119-1.898-2.81-1.252-4.349c0.37-0.883,1.281,0.483,2.307,0.528
		c-1.115-2.118-3.101-3.073-4.691-4.418c-0.268-0.228-0.635-0.248-0.832,0.104c-0.219,0.386-0.119,0.795,0.143,1.136
		c0.574,0.751,1.615,1.539,0.67,2.484c-0.979,0.981-2.183,0.433-3.385,0.015c-3.209-1.117-3.521-4.72-5.848-6.556
		c1.178-2.353-0.211-3.313-2.107-4.179c-0.458-0.208-0.01-1.014,0.215-1.545c0.407-0.967,0.791-1.954,1.061-2.967
		c0.217-0.819,0.095-2.005-0.947-1.744c-2.443,0.61-2.026-0.724-2.004-2.239c0.018-1.174-0.355-2.384-0.726-3.521
		c-0.231-0.715-0.622-1.736-1.603-0.446c-0.656,0.862-1.275,0.324-1.801-0.246c-0.789-0.854-1.242-1.892-1.551-2.992
		c-0.315-1.135-0.441-2.164,1.26-2.125c0.886,0.021,1.387-0.643,0.815-1.203c-1.608-1.582-1.196-3.959-2.483-5.646
		c-0.559-0.732-1.123-1.617,0.084-2.498c0.926-0.676-0.059-1.086-0.478-1.455c-0.654-0.579-2.185-0.408-1.812-1.835
		c0.348-1.328,1.379-2.161,2.711-2.537c0.815-0.229,1.941-0.066,1.832-1.415c-0.104-1.287-1.126-1.408-2.122-1.529
		c-1.819-0.221-2.608-1.459-2.956-3.079c-0.119-0.56-0.137-1.209,0.461-1.515c0.799-0.406,1.098,0.344,1.541,0.786
		c0.638,0.638,0.433,2.538,1.428,2.054c1.42-0.688-0.367-1.694-0.49-2.631c-0.121-0.936-0.125-1.819,0.63-2.462
		c0.819-0.694,1.405,0.102,2.141,0.365c2.457,0.884,4.966,1.646,7.497,2.285c1.073,0.271,2.02,0.54,2.53,1.569
		c0.196,0.396,0.046,1.135,0.771,0.918c0.4-0.121,0.771-0.569,1.008-0.959c0.354-0.584,0.119-1.236-0.465-1.42
		c-2.658-0.84-3.904-2.68-4.18-5.371c-0.113-1.096-1.122-0.701-1.77-0.769c-1.355-0.141-2.775,0.046-3.863-1.073
		c-0.514-0.527-1.189-1.045-0.717-1.849c0.396-0.671,1.174-0.604,1.738-0.25c1.352,0.851,1.863,0.05,2.32-1.026
		c-1.082-0.748-3.096-0.435-3.192-2.128c-0.091-1.586,1.64-1.086,2.732-1.358c-0.706-1.896-0.999-3.666,0.154-5.41
		c0.219-0.331,0.151-0.958,0.026-1.395c-1.133-3.962-0.91-4.307,3.314-4.335c-1.774-1.292-3.543-0.393-5.125-0.747
		c-2.449-0.546-1.375-2.743-1.979-4.003c-0.56-0.186-0.728,0.082-0.893,0.369c-0.498,0.868-0.858,2.349-2.204,1.375
		c-1.143-0.826-0.832-2.136-0.069-3.263c0.747-1.104,3.042-1.388,2.507-2.91c-0.602-1.713-2.055-3.167-3.293-4.6
		c-0.641-0.742-1.35-1.396-1.633-2.356c-0.245-0.832-0.783-1.83,0.225-2.413c0.933-0.54,1.324,0.599,1.979,0.969
		c0.841,0.476,0.769,2.53,2.08,1.701c1.003-0.635,1.298-2.026,0.363-3.43c-0.694-1.044,0.554-1.67,1.302-1.873
		c1.459-0.395,2.756-0.785,3.295-2.41c0.107-0.323,0.566-0.573,0.915-0.762c0.712-0.387,1.571-0.885,2.251-0.24
		c0.842,0.8,0.027,1.597-0.538,2.034c-2.442,1.89-2.38,5.275-4.803,7.417c1.296,0.454,2.231-0.102,3.214-0.139
		c-0.75-3.177-0.057-5.452,2.279-6.873c2.549-1.55,4.173,0.52,5.938,1.826c1.716-2.921,5.259-4.267,7.013-2.424
		c0.232-4.935,2.994-2.073,5.635-1.431c-1.789-1.727-2.414-3.016-1.34-4.851c0.801-1.37-1.518-2.72-0.543-4.433
		c0.124-0.218-0.943-0.104-1.482-0.027c-1.566,0.221-2.242-0.658-1.715-1.984c0.412-1.037,0.281-1.905-0.053-2.777
		c-0.453-1.184-1.32-1.521-2.299-0.529c-0.878,0.891-2.068,1.382-2.636,2.716c-0.526,1.237-1.549,0.968-2.165-0.168
		c-0.502-0.923-0.957-1.875-1.352-2.848c-0.309-0.763-0.688-1.239-1.609-1.095c-1.193,0.188-1.771-0.701-2.244-1.534
		c-0.582-1.027-1.523-2.221-0.639-3.341c0.832-1.056,1.707,0.294,2.587,0.464c0.389,0.075,0.787,0.252,1.136-0.118
		c-1.434-1.824-4.045-2.678-4.372-5.418c-0.097-0.809-0.882-0.769-1.511-0.941c-1.906-0.529-2.052-1.204-0.549-2.547
		c0.594-0.531,1.241-1.114,1.97-1.359c2.077-0.699,1.37-2.26,1.146-3.574c-0.097-0.567-0.767-1.12-1.472-1.089
		c-0.875,0.038-0.483,0.839-0.639,1.32c-0.576,1.778-2.047,2.154-3.649,2.206c-0.771,0.025-1.435-0.356-1.706-1.134
		c-0.27-0.771,0.244-1.245,0.818-1.575c2.086-1.2,2.021-2.449,0.228-3.898c-0.594-0.48-1.464-1.116-0.933-2.008
		c0.58-0.977,1.429-0.25,2.145,0.024c1.509,0.577,3.747-1.511,3.21-3.329c-0.485-1.641,0.197-2.989,0.332-4.466
		c0.069-0.762,0.683-1.348,1.323-1.046c1.836,0.865,2.568-0.51,3.584-1.44c-0.699-0.888-3.022-0.362-2.256-2.145
		c0.653-1.52,2.502-1.579,3.857-0.905c1.593,0.792,3.078,1.694,4.922,1.792c0.565,0.03,1.209,0.505,1.217,1.051
		c0.025,1.751,1.803,1.596,2.508,2.504c1.236,1.594,2.101,0.174,3.123-0.151c0.639-0.204,1.318-0.262,1.812,0.29
		c0.564,0.632,0.121,1.236-0.244,1.753c-0.461,0.653-1.012,1.243-1.518,1.854c2.143,0.917,2.15,0.923,3.572-0.861
		c0.275-0.345,0.875-0.695,0.963-0.479c0.877,2.151,3.572,0.788,4.688,2.519c0.553,0.859,0.918,0.709,3.27-0.811
		c-0.506-0.852-1.895,0.413-2.156-0.866c-0.211-1.037,0.283-1.898,0.898-2.672c0.489-0.614,1.354-1.136,0.242-1.935
		c-0.768-0.551-1.275-1.789-2.543-0.445c-0.864,0.917-1.843,0.081-2.483-0.646c-1.144-1.295,0.362-2.037,0.82-2.925
		c0.542-1.05,1.361-0.542,1.999,0.042c0.957,0.875,1.846,1.865,3.42,1.418c-0.432-0.826-1.494-1.717-0.459-2.544
		c3.018-2.409,0.08-4.562,0.289-7.479c-1.195,1.526-0.32,2.476-0.579,3.38c-0.205,0.717-0.374,1.473-1.187,1.697
		c-0.906,0.25-1.312-0.458-1.662-1.1c-0.464-0.85-0.82-1.75-1.535-2.456c-0.746-0.739-1.135-1.704-0.528-2.642
		c0.856-1.324,1.601,0.304,2.489,0.284c0.707-2.462-1.824-3.101-2.693-4.599c-1.85-3.189-1.937-4.239,1.398-5.757
		c1.309-0.596,0.677-1.075,0.187-1.519c-0.893-0.807-2.096-0.721-3.216-0.873c-1.01-0.137-2.387-0.785-1.467-1.743
		c1.342-1.396,0.622-1.889-0.3-2.807c-0.758-0.755-0.618-5.839,0.121-6.483c1.505-1.31,2.631-0.335,3.589,0.859
		c0.695-0.641,0.216-1.125,0.105-1.646c-0.309-1.455,1.088-2.542,2.812-2.012c1.137,0.35,2.123,0.65,3.221-0.055
		c0.578-0.371,1.299-0.384,1.723,0.286c0.422,0.669-0.072,1.213-0.42,1.763c-0.508,0.802-1.626,1.116-1.812,2.412
		c1.59-0.062,2.684-2.066,4.318-0.864c0.45-1.05-0.258-2.078,0.811-2.849c2.244-1.619,2.764-1.564,3.939,1.067
		c0.494,1.105,0.896,1.929,2.233,0.856c0.731-0.586,1.787-0.822,2.419,0.005c0.753,0.986-0.068,1.818-0.778,2.491
		c-0.405,0.384-0.948,0.617-1.397,0.96c-1.147,0.879-0.756,1.994-0.051,2.743c0.757,0.805,1.742,0.683,2.435-0.382
		c0.991-1.525,1.358-2.21,2.812,0.106c1.186,1.889,1.104,2.771,0.275,4.543c-0.826,1.769,0.957,3.001,2.193,3.797
		c1.752,1.127,5.231-1.086,5.393-3.209c0.044-0.586,0.188-1.497,0.636-1.434c1.983,0.278,2.942-1.504,4.501-2.007
		c1.363-0.441,2.094,0.63,1.695,2.455c-0.726,3.313-0.726,3.313,2.674,3.686c-0.037-0.714-0.705-0.827-1.121-1.146
		c-1.02-0.784-1.12-1.499-0.016-2.3c1.582-1.146,3.923-2.093,1.314-4.5c-0.155-0.144-0.154-0.753-0.001-0.889
		c1.579-1.392,0.759-2.169-0.599-3.018c-0.715-0.448-0.451-1.109,0.191-1.578c0.385-0.281,1.051-0.566,1.074-0.888
		c0.08-1.097,0.919-2.313,0.221-3.247c-0.739-0.985-1.929-0.398-2.924-0.044c-1.556,0.554-2.072,0.618-2.875-1.545
		c-1.197-3.23,0.502-3.339,2.891-3.905c-1.749-0.887-3.004-1.839-4.751-1.639c-0.735,0.084-1.446-0.303-1.969-0.827
		c-0.912-0.917-2.169-2.131-1.042-3.273c1.026-1.041,1.645,0.619,2.37,1.238c0.143,0.122,0.406,0.101,0.676,0.16
		c-1.502-3.314-1.502-3.314,2.066-3.184c-2.604-1.749-1.099-4.202-1.219-6.166c-0.161-2.651-1.147-4.35-3.214-6.487
		c0.519,1.672,1.004,2.807,0.544,4.02c-0.267,0.705-0.51,1.483-1.358,1.525c-1.027,0.05-1.404-0.851-1.475-1.631
		c-0.125-1.389-0.037-2.723-1.997-2.867c-0.624-0.046-0.733-0.792-0.591-1.397c0.13-0.554,0.227-1.076,0.08-1.666
		c-0.648-2.629-0.629-2.636,1.785-1.963c1.126,0.313,2.146-0.354,2.461-1.085c0.445-1.028,0.602-3.025-0.117-3.361
		c-3.143-1.469-0.856-3.167-0.477-4.771c0.091-0.381,0.369-0.718,0.561-1.076L174.716,94.14z M214.793,175.541
		c-0.334,1.767,0.678,2.325,2.066,2.252c1.57-0.082,1.697-1.277,1.455-2.488c-0.316-1.582-0.319-3.063,0.975-4.242
		c0.496-0.451,1.093-0.853,0.598-1.59c-0.414-0.617-1.152-1.248-1.79-1.062c-1.379,0.398-2.753-0.155-3.949,0.055
		c-1.259,0.221-3.183,0.628-3.423,2.445c-0.14,1.055-0.237,1.81-1.305,2.305c-0.974,0.452-0.552,1.271-0.074,1.816
		c0.592,0.675,0.664,2.051,1.937,1.856c0.894-0.136,0.815-1.066,0.889-1.785c0.079-0.768-0.11-1.854,1.116-1.717
		C214.49,173.522,215.176,174.275,214.793,175.541z M206.233,327.475c-1.388,0.125-2.442,0.438-1.563,2.077
		c0.516,0.962,0.473,1.484-0.643,2.068c-1.25,0.653-1.585,1.989-1.014,3.304c0.498,1.148,5.957,1.51,6.496,0.387
		c0.654-1.359,1.733-2.295,2.688-3.357c0.655-0.729,0.885-1.346-0.052-1.979C210.322,328.729,208.285,328.004,206.233,327.475z
		 M218.325,202.914c-2.251,0.05-4.192-0.163-3.926,2.626c0.024,0.244-0.493,0.587-0.812,0.809c-1.633,1.138-1.81,2.631-0.205,3.639
		c1.248,0.783,2.837,1.008,3.21,2.833c0.087,0.423,0.894,0.453,1.295,0.159c1.291-0.947,2.585-1.906,3.769-2.982
		c1.14-1.037,0.691-2.518-0.023-3.31c-1.084-1.2-1.188,0.622-1.784,1.006c-0.627,0.403-1.56,1.092-1.472-0.183
		C218.482,205.97,217.275,204.588,218.325,202.914z M231.093,275.48c-1.29,0.039-2.558-0.068-2.751,1.502
		c-0.096,0.783,0.297,1.696,0.029,2.377c-0.507,1.289-0.131,2.176,0.995,2.521c1.311,0.404,2.159,2.073,4.122,0.9
		c2.747-1.645,3.08-4.567,4.512-6.897c0.246-0.399,0.044-0.817-0.35-1.021c-0.609-0.314-1.572-0.446-1.75,0.154
		c-0.812,2.748-2.075,1.778-3.537,0.646C232.035,275.41,231.425,275.521,231.093,275.48z M247.941,124.706
		c0.471,0.052,0.742,0.376,0.807,0.779c0.367,2.284,2.695,2.811,3.886,4.359c0.354,0.46,1.46,0.529,1.382,0.086
		c-0.265-1.505,1.301-3.277,0.84-3.73c-1.379-1.356-1.312-3.298-2.479-4.613c-0.484-0.545-1.382-1.29-1.826-0.887
		c-1.311,1.187-3.122,1.31-4.43,2.642c-2.17,2.213-0.041,4.396-0.388,6.56c-0.103,0.63,1.022,0.661,1.499,0.072
		c0.65-0.804,1.018-1.661-0.161-2.439c-0.78-0.516-0.515-1.27-0.196-1.95C247.084,125.133,247.406,124.775,247.941,124.706z
		 M168.881,348.93c0.174-1.309-0.311-1.469-0.814-1.313c-0.525,0.157-0.982,0.739-1.477,0.751c-0.889,0.017-2.645,2.379-2.57-0.813
		c0.014-0.52-0.611-0.717-1.119-0.72c-0.543-0.002-0.828,0.306-1.023,0.835c-0.482,1.311,0.439,6.239,1.444,7.2
		c0.212,0.201,0.599,0.425,0.833,0.362c1.419-0.365,2.469,0.41,3.629,0.979c0.803,0.395,2.114,0.074,1.606-0.84
		C168.071,352.998,170.28,350.582,168.881,348.93z M239.73,219.916c0.535-0.361,0.894-0.554,1.192-0.815
		c0.78-0.682,1.09-1.516,0.195-2.263c-0.953-0.794-1.32-0.003-1.774,0.769c-0.955,1.625-1.6,0.631-2.229-0.349
		c-0.312-0.483-0.725-0.912-1.38-0.782c-0.483,0.097-0.638,0.533-0.565,0.938c0.332,1.863-0.484,3.42-1.211,5.027
		c-0.703,1.553-0.039,2.555,1.543,2.813c1.104,0.181,2.268,0.177,3.383,0.057c2.381-0.256,1.782-2.607,2.516-3.974
		C242.011,220.201,240.452,220.459,239.73,219.916z M149.873,256.807c0.624,0.245,1.391-0.278,1.992-1.145
		c0.754-1.085-0.559-1.083-0.88-1.588c-0.505-0.792-0.259-1.174,0.534-1.422c0.611-0.19,1.287-0.293,1.809-0.629
		c0.638-0.409,1.64-0.791,1.396-1.75c-0.237-0.938-1.209-1.498-2.089-1.3c-1.828,0.412-3.288,0.052-4.644-1.233
		c-0.539-0.511-1.235-0.147-1.738,0.323c-0.371,0.349-0.303,0.708,0.111,0.993c1.909,1.312,0.264,1.676-0.602,2.236
		c-0.5,0.324-1.644,0.507-1.154,1.194c1.137,1.602,3.146,2.438,4.07,4.308C148.729,256.891,149.138,256.807,149.873,256.807z
		 M159.436,299.695c-0.028,0.205-0.063,0.365-0.071,0.524c-0.069,1.415,0.404,2.798,1.787,3.054
		c1.567,0.291,1.261-1.258,1.415-2.229c0.168-1.055,0.818-1.045,1.604-0.727c0.813,0.33,1.626,0.476,2.056-0.508
		c0.369-0.84-0.18-1.361-0.861-1.75c-0.977-0.554-1.334-1.289-0.334-2.062c1.03-0.795,0.682-1.489,0.061-2.235
		c-0.723-0.869-1.613-1.02-2.58-0.445c-0.469,0.279-0.739,0.949-1.387,0.861c-3.377-0.455-2.026,2.021-2.071,3.479
		C159.033,298.313,159.645,298.975,159.436,299.695z M303.563,174.338c0.282-2.051-0.457-2.215-1.83-1.289
		c-0.75,0.505-2.102,1.125-2.07-0.043c0.063-2.47-1.984-2.134-3.122-2.952c-0.569-0.409-1.423-0.551-1.907,0.279
		c-0.355,0.609-0.816,1.284-0.343,2.022c1.063,1.664,1.534,3.531,1.856,5.433c0.135,0.792,0.588,0.945,1.174,0.813
		c1.238-0.279,2.738-0.327,3.606-1.076C301.967,176.633,304.432,176.569,303.563,174.338z M172.275,198.597
		c-1.564-1.287-2.898-2.006-3.211-3.728c-0.176-0.968-1.346-1.342-2.344-1.4c-1.067-0.062-1.135,0.946-1.526,1.613
		c-1.29,2.197-0.286,4.583-0.4,6.848c-0.087,1.73,2.222,0.914,3.417,1.339c0.736,0.262,1.622,0.3,2.141-0.584
		c0.225-0.385,0.181-0.778-0.078-1.129C168.896,199.685,169.598,198.801,172.275,198.597z M292.104,198.309
		c2.479,0.027,4.359,1.369,6.566,1.671c0.741,0.101,1.393,0.44,1.953-0.277c0.62-0.792,0.122-1.305-0.452-1.835
		c-0.955-0.882-0.913-1.638,0.353-2.197c0.849-0.375,1.677-0.542,2.548-0.054c0.678,0.38,1.606,0.635,1.798-0.301
		c0.199-0.993-0.787-1.335-1.637-1.249c-1.563,0.158-2.558-0.361-3.271-1.835c-0.68-1.396-1.879-0.786-2.942-0.348
		c-1.021,0.419-1.56,0.854-0.978,2.156c0.714,1.595-0.226,2.581-1.746,3.089C293.639,197.347,292.799,197.104,292.104,198.309z
		 M132.201,234.497c-0.811-0.173-1.525,0.036-1.764,0.85c-0.334,1.148,0.434,1.878,1.35,2.257c1.398,0.577,2.206,1.164,0.721,2.501
		c-0.611,0.55-1.826,0.989-0.857,2.034c0.939,1.013,1.695,0.256,2.328-0.604c0.736-1.001,1.6-1.332,2.623-0.349
		c0.328,0.314,0.6,0.931,1.158,0.57c0.648-0.418,0.521-1.132,0.316-1.752c-0.248-0.752-0.741-1.407-0.619-2.287
		c0.327-2.354-0.664-3.388-3.107-3.194C133.623,234.58,132.916,234.713,132.201,234.497z M293.593,227.942
		c-1.347-0.094-2.166,0.361-1.571,1.507c1.33,2.56,2.737,5.13,5.582,6.39c0.799,0.354,1.617,0.324,2.256-0.32
		c0.771-0.774-0.051-1.243-0.396-1.849c-0.815-1.433-2.512-2.658-0.785-4.669c0.73-0.852-0.131-1.737-1.062-1.332
		C296.164,228.3,294.809,228.268,293.593,227.942z M288.268,330.662c-2.119,0.707-3.756,0.342-4.875-1.364
		c-0.104-0.155-0.621-0.133-0.91-0.055c-1.604,0.435-1.543,2.727-3.441,3.032c-0.549,0.088,0.5,0.996,0.357,1.67
		c-0.455,2.174,0.723,2.795,2.596,2.484c1.558-0.26,3.25-0.545,2.859-2.828c-0.181-1.063,0.486-1.394,1.309-1.688
		C286.783,331.691,287.665,332.119,288.268,330.662z M181.074,166.865c-1.496,0.382-3.492,0.096-3.106,2.092
		c0.263,1.358,0.034,2.173-0.631,3.269c-0.819,1.35,0.653,1.761,1.462,2.226c0.832,0.479,1.334,0.035,1.399-0.939
		c0.118-1.749,1.431-1.605,2.658-1.662c1.825-0.082,2.695-1.553,1.526-2.825C183.477,168.041,182.088,167.501,181.074,166.865z
		 M320.724,281.292c0.148-1.162,0.136-2.116-1.245-2.533c-1.215-0.366-2.03-0.032-2.709,0.94c-0.275,0.398-0.59,0.915-1.121,0.746
		c-0.897-0.285-0.188-0.92-0.195-1.407c-0.016-0.72-0.702-0.935-0.909-0.485c-0.599,1.301-1.69,2.717-1.075,4.111
		c0.477,1.082,1.625,2.055,2.713,2.623c0.957,0.5,1.23-1.063,2.031-1.387c0.373-0.15,0.756-0.293,1.148-0.375
		C320.652,283.253,321.58,282.782,320.724,281.292z M201.984,285.486c0.869,0.023,1.585-0.104,1.88-0.935
		c0.337-0.94-0.521-1.212-1.011-1.704c-1.053-1.064-2.926-0.6-3.754-2.016c-0.564-0.964-0.93-2.331-2.407-1.811
		c-1.659,0.586-0.353,1.957-0.507,2.955c-0.154,1.006,0.352,1.873,0.919,2.688c0.407,0.584,0.941,0.96,1.636,0.782
		C199.871,285.164,200.972,285.136,201.984,285.486z M352.061,339.266c0.813,0.096,1.453,0.25,2.088,0.228
		c0.869-0.032,1.598-0.761,1.051-1.392c-0.918-1.059-1.509-2.013-1.564-3.481c-0.027-0.761-1.115-1.04-2.004-0.771
		c-1.283,0.385-2.324,1.293-3.829,1.299c-0.971,0.004-0.7,1.535-0.314,1.705C349.123,337.574,349.443,340.917,352.061,339.266z
		 M255.247,329.098c-1.654,0.449-2.849,0.823-2.462,3.075c0.195,1.142-0.494,2.405,1.107,2.894c1.933,0.593,4,1.978,5.797-0.09
		c1.108-1.272-0.639-1.898-1.051-2.828c-0.172-0.385-0.938-0.424-0.91,0.031c0.064,1.236-0.199,1.653-1.361,0.945
		c-0.996-0.607-0.689-1.164-0.08-1.947C257.369,329.786,256.248,329.418,255.247,329.098z M348.926,260.128
		c0.977-0.021,3.115-2.219,2.701-2.91c-0.871-1.456-1.316-3.27-3.1-4.065c-0.609-0.271-1.211-0.674-1.744-0.072
		c-0.575,0.646-0.108,1.203,0.424,1.623c1.52,1.199,0.584,2.172-0.197,3.258c-0.48,0.67-2.023-0.118-1.75,1.1
		c0.264,1.154,1.504,0.447,2.311,0.604C348.033,259.752,348.474,259.971,348.926,260.128z M163.268,231.083
		c-0.176,0.122-0.49,0.254-0.681,0.487c-1.284,1.566-1.767,3.466-1.706,5.395c0.04,1.243,1.246,1.328,1.939,0.59
		c0.789-0.839,1.547-1.268,2.687-1.225c0.472,0.018,0.911-0.363,0.944-0.931c0.025-0.449-0.258-0.791-0.656-0.914
		c-1.244-0.384-1.947-1.035-1.586-2.474C164.342,231.485,164.019,231.085,163.268,231.083z"/>
</g>
</svg>
