<?xml version="1.0" encoding="utf-8"?>
<!-- Generator: Adobe Illustrator 15.0.0, SVG Export Plug-In . SVG Version: 6.00 Build 0)  -->
<!DOCTYPE svg PUBLIC "-//W3C//DTD SVG 1.1//EN" "http://www.w3.org/Graphics/SVG/1.1/DTD/svg11.dtd">
<svg version="1.1" id="Layer_1" xmlns="http://www.w3.org/2000/svg" xmlns:xlink="http://www.w3.org/1999/xlink" x="0px" y="0px"
	 width="500px" height="500px" viewBox="0 0 500 500" enable-background="new 0 0 500 500" xml:space="preserve">
<circle fill="#87BB65" cx="249.316" cy="249.316" r="249.316"/>
<g>
	<path fill="#FFFFFF" d="M163.522,110.012l-0.034-0.022c0.408,0.712,1.112,1.418,0.694,2.284c-1.119,2.32-1.23,4.827-1.458,7.305
		c-0.112,1.213-0.743,1.415-1.677,1.131c-2.284-0.694-4.434-1.796-6.907-1.914c-1.062-0.05-2.49-0.657-2.737-1.536
		c-0.86-3.063-3.037-1.825-4.736-1.594c-2.535,0.344-4.63,4.337-3.824,6.799c0.358,1.095,0.778,2.215-0.097,3.323
		c-1.15,1.458-0.26,2.394,0.871,3.321c1.301,1.066,2.275,0.657,3.156-0.521c0.561-0.751,1.035-1.394,1.729-0.047
		c0.718,1.396,1.633,0.774,2.388-0.004c1.124-1.158,1.129-2.581,0.596-3.968c-0.441-1.149-0.76-1.989,0.456-3.029
		c1.207-1.032,2.269-1.001,3.383-0.3c1.285,0.809,2.706,1.062,4.137,1.22c-0.796,3.219-3.323,5.147-5.551,6.54
		c-2.458,1.537-4.255,2.579-2.815,5.928c-1.208-0.46-1.097-1.145-1.273-1.66c-0.414-1.211-0.336-2.786-2.247-2.797
		c-1.931-0.011-3.096,1.326-3.276,2.837c-0.174,1.462-0.939,1.4-1.762,1.395c-1.498-0.008-1.221-1.136-0.853-2.224
		c-2.42,1.175-4.994,0.608-6.291-1.198c-1.369-1.906-4.386-2.663-6.233-1.563c-2.727,1.625-3.433,3.992-2.138,6.557
		c0.626,1.239,1.11,2.645-0.144,3.891c-1.219,1.211-1.647,2.333,0.28,3.291c0.372,0.185,0.68,0.57,0.452,1.03
		c-0.212,0.429-0.672,0.427-1.096,0.396c-1.799-0.131-2.14-1.476-2.118-2.85c0.032-1.986-0.897-2.942-2.696-3.627
		c-2.074-0.791-3.877-0.886-5.483,0.796c-1.574,1.648-1.665,3.714-0.852,5.59c0.761,1.754,1.793,3.725,4.457,2.805
		c0.333-0.115,0.859-0.081,1.022,0.568c-0.856,1.658-2.905,3.194-1.872,5.313c1.281,2.631,0.042,4.911-0.339,7.333
		c-0.09,0.574-0.308,1.135-0.338,1.709c-0.208,3.997,1.232,5.136,5.06,3.886c1.286-0.42,2.482-0.65,3.483,0.373
		c1.196,1.224,1.777,0.719,2.28-0.577c0.905-2.333,3.487-1.309,5.006-2.44c0.07-0.052,0.528,0.195,0.567,0.36
		c0.701,2.911,2.879,1.808,4.413,1.369c2.121-0.607,4.054,0.02,6.066,0.193c0.589,0.051,1.096,0.799,1.844,0.195
		c-1.476-1.044-2.751-1.84-1.514-4.15c0.547-1.021,1.487-2.634,0.85-4.213c-0.212-0.527-0.576-1.197,0.43-1.298
		c0.811-0.082,0.904,0.51,0.935,1.149c0.095,1.949,0.589,3.593,2.138,5.087c1.194,1.151,0.728,2.792-0.924,3.619
		c-0.78,0.39-1.802,0.793-1.389,1.703c0.737,1.622,1.071,3.506,2.617,4.704c1.067,0.826,2.947,1.281,1.678,3.308
		c2.211,2.547-0.113,3.352-1.438,5.098c-1.353,1.782-1.822,1.346-3.015-0.135c0.034,0.67,0.009,0.911,0.062,1.133
		c0.8,3.332,1.617,6.629,5.665,7.569c0.742,0.172,1.4,0.727,0.712,1.671c-0.563,0.773-1.221,1.517-2.271,1.035
		c-0.737-0.338-1.393-0.889-2.021-1.42c-1.048-0.885-1.987-1.928-3.463-2.19c-0.055,0.679,0.329,1.057,0.708,1.348
		c1.166,0.89,2.6,1.701,0.117,2.744c-0.248,0.104-0.739,0.562-0.39,0.705c2.232,0.911-0.057,2.735,0.8,3.887
		c3.368-1.071,3.671-1.519,2.979-4.341c2.037,0.956,4.476,0.672,6.077,3.061c1.657,2.473,2.948,4.613,2.279,6.509
		c-0.442-0.59-0.802-1.143-1.235-1.63c-0.392-0.44-0.513-1.225-1.405-1.204c-0.017,1.173,0.812,1.823,1.389,2.606
		c1.783,2.417,1.635,3.135-1.111,4.355c-1.849,0.821-2.415,1.917-1.749,3.948c0.549,1.675,1.428,2.784,3.06,3.23
		c1.458,0.399,1.845,1.279,1.958,2.727c0.255,3.266,0.758,6.512,1.161,9.767c-1.102-1.327-2.456-2.364-2.396-4.388
		c0.106-3.606-2.219-5.121-5.748-3.964c-1.427,0.468-2.421,0.08-2.309-1.512c0.122-1.729-0.885-3.27-0.455-5.117
		c0.212-0.91,0.102-3.25-2.356-2.138c-0.864,0.391-1.577-0.106-1.835-0.832c-1.495-4.197-6.846-3.823-8.792-7.471
		c-0.11-0.207-0.605-0.263-0.929-0.29c-1.373-0.113-1.909-0.83-1.691-2.176c0.453-2.797-1.902-3.615-3.553-4.827
		c-1.77-1.3-3.29,0.006-4.408,1.107c-1.127,1.112-2.104,2.568-1.854,4.397c0.238,1.736-0.633,1.564-1.767,1.051
		c-0.743-0.336-1.097-0.975-1.5-1.611c-2.1-3.315-6.457-3.821-8.784-0.1c-0.684,1.092-1.308,1.439-2.365,0.693
		c-2.151-1.518-3.966-0.926-5.797,0.69c-1.075,0.948-2.268,1.772-3.971,0.928c-0.819-0.406-1.971-0.265-2.956-0.181
		c-2.323,0.198-4.198,3.897-3.057,5.938c0.383,0.686,1.396,1.347,0.656,2.147c-0.693,0.75-1.662,0.104-2.554-0.066
		c-5.131-0.975-4.407-2.185-8.262,2.43c-0.959,1.147-1.959,2.385-3.52,2.54c-1.344,0.133-2.331,0.692-3.325,1.502
		c-1.691,1.379-4.95,1.431-6.416-0.009c-1.588-1.56-3.159-1.529-4.978-0.548c-1.871,1.009-1.827,2.466-1.372,4.265
		c0.682,2.7,0.455,2.896-2.206,2.838c-2.89-0.062-3.533,0.739-2.723,3.401c0.565,1.856,0.718,3.623-0.017,5.563
		c-1.539,4.064-5.936,7.141-4.345,12.305c0.017,0.056-0.077,0.142-0.112,0.218c-0.846,1.816-0.936,3.654,0.583,5.083
		c1.715,1.615,3.167-0.035,4.404-0.91c1.039-0.735,1.397-0.717,2.047,0.321c1.108,1.768,2.922,1.303,4.505,0.997
		c0.358-0.069,0.704-0.639,1.106-0.132c0.505,0.635-0.18,0.915-0.553,1.108c-1.95,1.007-1.594,2.747-1.394,4.382
		c0.179,1.457,1.661,1.455,2.613,1.998c0.557,0.315,1.46,0.446,1.76-0.332c0.8-2.069,1.557-1.49,2.347-0.056
		c0.271,0.491,0.643,0.63,1.151,0.793c2.178,0.7,2.53,2.099,0.786,3.472c-1.276,1.004-1.934,2.293-2.283,3.744
		c-0.257,1.069-0.783,1.73-1.681,2.316c-3.934,2.566-4.218,4.771-0.942,8.132c1.13,1.16,1.34,2.485,0.665,3.623
		c-1.269,2.138-2.324,4.151-0.216,6.885c-2.094-0.475-3.297-0.178-4.339,0.864c-1.164,1.163-2.008,0.939-2.897-0.548
		c-1.212-2.028-4.639-1.923-5.763,0.136c-1.085,1.984-1.46,4.216-1.393,6.473c0.045,1.488,1.12,2.138,2.444,2.437
		c1.261,0.282,1.797-0.517,2.25-1.49c0.315-0.678,0.697-1.326,1.066-1.979c0.344-0.606,0.255-1.645,1.283-1.606
		c1.016,0.035,1.313,0.953,1.569,1.726c0.232,0.698,0.408,1.475,0.359,2.196c-0.111,1.638,0.418,2.91,1.677,3.947
		c1.813,1.494,1.028,2.896-0.128,4.504c-1.057-2.826-1.796-3.365-3.904-3.058c-2.119,0.312-2.931,1.757-3.069,3.668
		c-0.129,1.785,2.374,4.152,3.363,3.229c1.348-1.258,2.228-1.504,3.283,0.168c0.281,0.445,0.874,0.136,1.287,0.188
		c1.812,0.231,3.921-0.82,5.394,1.027c0.625,0.783,0.363,3.098,2.414,1.223c0.271-0.248,0.986,0.455,1.312,0.963
		c-0.932,0.378-0.727,1.664-1.482,2.014c-0.483,0.225-1.66,0.754-1.554-0.893c0.019-0.295-1.26-1.557-2.405-1.123
		c-0.531,0.201-0.872,0.635-0.576,1.4c1.239,3.211,1.213,3.201-2.209,2.663c-0.817-0.13-1.678,0.005-2.488-0.146
		c-3.466-0.651-6.978,0.413-10.455-0.392c-2.172-0.503-4.454-0.455-6.576-1.322c-0.709-0.291-1.615-0.453-2.354,0.615
		c4.685,1.225,9.202,2.506,13.974,2.69c2.994,0.117,6.223-0.776,8.8,1.666c0.3,0.284,0.604-0.14,0.875-0.146
		c1.759-0.066,2.654,1.524,3.084,2.59c0.324,0.803-1.521,0.83-2.44,0.847c-1.679,0.03-2.972,0.546-3.879,2.205
		c2.779,0.286,5.232-0.685,7.768-0.8c1.521-0.068,2.333,0.453,1.461,2.08c-0.455,0.852-0.867,1.682-0.34,2.812
		c2.455-4.123,2.432-4.08,6.691-1.808c1.742,0.931,3.419,2.171,5.544,2.082c2.688-0.11,5.294,0.513,7.938,0.787
		c2.717,0.28,5.309-0.095,7.445-2.035c0.639-0.581,1.243-1.73,2.217-0.733c0.939,0.961,0.18,1.841-0.634,2.522
		c-1.38,1.156-2.116,2.535-1.681,4.392c0.214,0.912-0.37,1.562-0.802,2.276c-1.203,1.996-1.009,3.828,0.848,5.326
		c1.831,1.476,3.515,0.979,5.156-0.444c2.229-1.938,5.104-1.925,7.416-0.021c1.101,0.908,2.891,1.733,3.568,0.77
		c1.504-2.146,3.704-2.563,5.779-3.435c0.142-0.062,0.236-0.23,0.357-0.347c1.194-1.127,2.193-2.68,4.118-2.469
		c1.588,0.174,3.226,0.387,4.538,1.852c-0.393-1.3,0.092-2.272,0.566-3.239c0.349-0.711,0.45-1.405,0.133-2.162
		c-0.382-0.911,0.315-3.797,1.041-4.541c0.171-0.176,0.279-0.413,0.422-0.618c0.534-0.761,1.432-0.589,1.708-0.095
		c1.665,2.98,3.568,1.203,5.449,0.405c1.188-0.502,2.389-0.973,3.776-1.534c-0.789,3.332,2.037,3.844,3.584,5.196
		c1.482,1.297,2.623-0.188,3.692-0.979c3.965-2.929,7.878-5.926,11.812-8.896c-3.161,5.671-8.796,8.979-12.934,13.872
		c1.057,0.438,1.464-0.134,1.85-0.474c4.546-4.021,9.45-7.729,13.091-12.613c2.18-2.926,4.459-3.742,7.914-2.867
		c6.357,1.609,12.687,1.021,18.878-1.045c1.269-0.424,2.385-0.282,3.625,0.162c1.93,0.689,3.801,1.881,5.991,1.354
		c1.855-0.443,2.926,0.295,3.841,1.891c2.717,4.73,7.118,7.747,11.376,10.908c3.215,2.389,7.523,3.311,9.625,7.211
		c0.309,0.572,0.991,0.973,1.729,0.664c1.202-0.496,2.052,0.271,3.027,0.701c5.12,2.25,7.822,6.492,9.646,11.508
		c0.824,2.268,1.395,4.855,3.113,6.479c3.673,3.47,6.748,7.671,11.335,10.084c2.392,1.259,3.14,3.277,3.248,5.741
		c0.101,2.24-0.073,4.488,0.449,6.716c1.405,5.999,2.905,11.981,4.067,18.031c1.817,9.462,4.28,18.854,3.676,28.641
		c-0.174,2.802-0.85,3.531-3.685,3.172c-1.5-0.188-2.987-0.063-4.481-0.081c-5.151-0.057-10.292-0.218-15.449,0.188
		c-4.262,0.334-8.562,0.162-12.836,0.384c-3.942,0.204-7.88,0.561-11.805,0.984c-4.764,0.515-9.563-0.194-14.323,0.579
		c-3.891,0.633-7.844,1.163-11.77,0.688c-3.746-0.455-7.498-0.617-11.219-0.364c-9.242,0.625-18.432,0-27.632-0.66
		c-0.629-0.045-1.341-0.114-1.824,0.744c0.745,0.663,1.578,1.181,2.587,1.274c3.804,0.362,7.584,0.788,11.44,0.28
		c2.624-0.346,5.32-0.155,7.984-0.178c0.564-0.005,1.304-0.041,1.357,0.747c0.057,0.846-0.625,1.109-1.335,1.168
		c-0.746,0.062-1.498,0.063-2.247,0.065c-7.644,0.046-15.294,0.281-22.93,0.061c-4.848-0.142-9.628,0.772-14.466,0.473
		c-0.987-0.063-2.085-0.529-3.429,0.343c2.079,1.521,4.143,1.784,6.286,1.479c1.935-0.274,3.853-1.112,5.759-1.058
		c5.728,0.17,11.435-0.087,17.151-0.271c10.319-0.334,20.655,0.459,30.969-0.473c1.663-0.148,3.627-0.125,4.841,0.848
		c3.104,2.48,6.802,2.604,10.358,3.088c15.86,2.157,31.838,2.636,47.815,3.023c5.568,0.137,11.146,0.048,16.711,0.287
		c9.244,0.398,18.495,0.343,27.727,0.052c11.562-0.364,23.139-0.34,34.685-1.282c7.628-0.623,15.281-0.854,22.729-2.925
		c1.839-0.513,3.732-1.407,3.705-3.075c-0.02-1.134-2.151-1.884-3.797-2.199c-4.295-0.826-8.622-1.329-12.974-1.666
		c-8.368-0.65-16.727-1.498-25.121-1.687c-5.391-0.119-10.773-0.239-16.159-0.548c-4.604-0.262-9.229-0.232-13.846-0.256
		c-1.125-0.004-1.906-0.118-2.212-1.403c-1.348-5.668-2.879-11.297-4.108-16.987c-2.252-10.412-3.888-20.949-6.287-31.336
		c-1.465-6.343-1.534-12.433,2.918-17.965c2.03-2.523,2.498-5.791,2.703-9.138c0.277-4.533-0.192-8.946-0.905-13.371
		c-0.326-2.019,0.659-2.793,2.438-2.84c4.33-0.11,8.66-0.13,12.864-1.399c1.046-0.314,2.142,0.161,1.99,1.213
		c-0.367,2.545,1.687,3.403,2.914,4.858c0.848,1.002,1.918,1.502,3.081,0.808c1.114-0.664,1.143-1.734,0.427-2.813
		c-0.242-0.363-0.315-0.787-0.026-1.162c0.33-0.432,0.678-0.211,1.094-0.049c2.035,0.795,4.887-1.047,4.324-3.131
		c-0.839-3.1,1.226-3.426,3.055-4.38c3.329-1.735,7.287-1.783,10.427-4.005c1.74-1.229,3.766-1.734,5.836-2.078
		c0.728-0.121,1.445-0.035,2.185-0.364c6.036-2.692,12.182-5.046,18.662-6.517c2.535-0.573,3.301,0.005,3.494,2.608
		c0.224,2.998,1.463,3.692,3.709,3.112c1.569-0.405,1.109-1.881,1.729-2.771c0.338-0.485,0.127-1.635,1.104-1.312
		c1.554,0.515,3.698,0.896,4.384,2.05c1.512,2.559,4.053,3.284,6.255,4.602c2.304,1.379,6.423,0.674,7.431-1.445
		c1.307-2.743,2.817-5.508,3.141-8.586c0.182-1.752,0.76-1.999,2.355-1.729c3.767,0.634,7.541,1.461,11.398,0.695
		c2.438-0.481,4.873-0.957,7.431,1.092c-1.571-2.812-3.334-3.504-5.999-2.817c-3.232,0.832-6.562,0.766-9.896,0.099
		c-1.08-0.216-1.68-1.298-2.807-1.153c-3.604,0.459-6.469-1.25-9.243-3.186c-0.935-0.65-1.933-1.351-0.888-2.688
		c-1.838,0.304-2.995-3.51-5.285-0.438c0.127-1.332,0.847-1.853,1.33-2.497c2.697-3.591,3.523-3.571,6.416,0.077
		c1.268,1.597,2.813,2.812,4.739,3.51c-1.333-1.723-2.789-3.294-4.243-4.865c-0.82-0.888-1.48-1.777-0.893-3.115
		c0.604-1.369,1.68-1.033,2.76-0.994c0.748,0.027,1.971,0.42,1.975-0.781c0.004-1.018-1.305-0.387-1.793-0.727
		c-1.491-1.037-4.866,1.018-4.646-2.787c-3.238-0.668-2.103-4.541-3.839-5.682c-3.011-1.975-2.594-5.313-4.104-7.82
		c-1.422-2.358-2.791-3.904-5.325-2.59c-3.254,1.688-6.644,1.076-9.43-0.058c-3.896-1.585-7.555-1.679-11.427-0.841
		c-1.445,0.312-1.59-0.112-1.22-1.359c1.233-4.146,3.344-7.488,7.454-9.439c1.916-0.908,3.554-2.412,5.314-3.646
		c-3.246,0.266-5.165,3.092-8.139,3.78c-0.375-0.887,0.834-1.543-0.148-2.686c-1.547,3.523-4.467,6.045-4.969,9.896
		c-0.05,0.383-0.31,1.002-0.563,1.054c-2.702,0.545-4.212,2.815-6.249,4.293c-1.557,1.129-2.655,1.832-3.285-0.735
		c-0.156-0.65-0.84-0.984-1.402-1.359c-0.485-0.324-1.553-0.312-1.17-1.266c0.299-0.746,1.096-0.943,1.914-0.862
		c1.57,0.155,3.145,0.355,4.723,0.411c1.834,0.065,2.976-1.045,3.506-2.651c0.5-1.521,0.23-2.915-1.217-3.979
		c-3.115-2.289-3.003-3.084,0.297-5.268c3.332-2.205,6.984-4.139,9.748-6.932c2.836-2.869,5.5-3.178,8.949-1.935
		c1.997,0.722,4.119,0.953,6.771,0.104c-2.339-0.855-4.384-0.563-6.171-1.438c-3.521-1.72-6.896-2.066-9.62,1.519
		c-0.146,0.194-0.353,0.356-0.556,0.502c-1.76,1.256-3.59,2.426-5.27,3.781c-1.105,0.895-1.634-0.921-2.607-0.354
		c-0.194,0.111-0.403-0.291-0.294-0.536c0.388-0.867,1.198-0.711,1.938-0.785c0.869-0.086,1.877-0.45,1.854-1.351
		c-0.041-1.395,1.123-2.045,1.53-3.162c-1.606,0.724-2.516,2.179-3.782,3.201c-1.418,1.146-3.166,1.191-5.086,1.103
		c0.626-1.638,1.178-3.08,1.729-4.524l-0.021,0.021c1.752,0.532,1.904,0.528,1.893-0.024c-0.07-2.868,1.564-2.657,3.507-1.873
		c0.063-0.899-0.433-1.951,0.643-2.262c1.312-0.38,1.403,0.862,1.687,1.649c0.453,1.265,1.637,1.384,1.838,0.44
		c0.197-0.925,0.324-2.925-0.732-3.244c-2.485-0.749-1.604-2.234-1.309-3.71l-0.021,0.026c0.999,2.42,2.692,2.728,4.954,1.773
		c0.898-0.38,1.934-0.518,2.92-0.61c3.834-0.362,6.335,2.938,4.611,7.039c1.467-1.518,2.508-2.551,3.492-3.634
		c0.799-0.877,1.301-1.401,2.105,0.148c0.969,1.868,2.646,1.949,4.181,0.387c0.97-0.986,2.034-0.881,3.157-0.542
		c2.762,0.833,5.554,1.592,8.26,2.583c2.273,0.833,4.953,0.883,6.537,3.227c0.335,0.495,0.146,1.543,1.015,1.465
		c1.198-0.109,0.392-1.394,0.866-1.979c1.844,0.953,4.207,0.265,5.701,2.066c0.313,0.377,0.771,0.203,1-0.25
		c0.559-1.111,1.631-1.693,2.602-2.271c1.82-1.083,0.363-2.116,0.09-3.136c-0.436-1.608-1.431-0.544-2.174-0.337
		c-1.139,0.317-2.178,0.792-2.619,2.069c-0.272,0.784-0.856,1.419-1.682,0.68c-1.391-1.25-2.916-1.238-4.741-0.435
		c0.558-1.807,2.535-1.125,3.199-2.496c-1.397-0.234-2.503,0.15-3.52,0.667c-2.417,1.229-5.335,0.652-7.251-1.806
		c2.439,1.834,4.933,0.125,7.418,0.336c1.424,0.121,2.715-0.719,3.418-2.117c0.625-1.241,0.971-2.325-0.373-3.533
		c-0.848-0.763-1.119-2.044,0.551-2.692c0.502-0.195,0.869-0.742,1.299-1.127l-0.025,0.019c0.893,0.355,0.844,0.921,0.322,1.556
		c-0.35,0.428-1.082,0.951,0.049,1.147c0.522,0.091,1.612,0.721,1.709-0.606c0.129-1.811,1.299-3.117,2.068-4.627
		c0.986-1.932,1.775-1.372,2.729,0.013c0.412,0.598,0.595,2.09,1.61,1.398c1.343-0.912,2.829-0.686,4.15-1.179
		c1.684-0.628,2.379-0.492,2.643,1.455c0.234,1.73,3.811,3.224,5.561,2.538c1.477-0.579,2.742-3.839,1.688-5.214
		c-1.781-2.327-3.646-4.71-6.989-5.037c-1.375-0.134-2.962-0.068-4.133-1.835c2.928,0.242,3.339-1.922,4.234-3.623
		c0.649-1.23,0.805-2.121-0.904-2.611c-1.207-0.346-1.28-2.315-0.225-3.144c0.416-0.327,1.15-0.391,1.035-1.194
		c-0.797-0.622-2.018,1.56-2.615-0.433c-0.436-1.445,0.375-2.112,1.402-2.832c1.025-0.72,2.057-1.062,3.549-0.242
		c-0.771-2.039-0.981-3.558,0.408-4.847c0.31-0.288,0.521-0.708,0.13-1.083c-0.348-0.331-0.78-0.173-1.173-0.031
		c-0.979,0.354-1.175,1.08-0.947,2.009c0.211,0.861,0.203,1.694-0.633,2.231c-2.078,1.337-4.239,1.92-6.654,0.815
		c-0.776-0.355-1.737-1.176-2.52-0.395c-0.811,0.808,0.057,1.675,0.451,2.472c0.092,0.181,0.067,0.419,0.107,0.713
		c-0.592-0.13-1.072-0.335-1.547-0.322c-1.52,0.043-3.333,0.141-3.943,1.602c-0.569,1.369,0.811,2.546,1.708,3.605
		c0.653,0.768,1.908,0.958,2.352,2.521c-2.161-0.846-4.314-0.773-5.728-3.1c-0.053,1.444,0.218,3.314-0.477,3.136
		c-2.094-0.539-1.104,0.978-1.339,1.69c-2.11-0.333-4.133-0.817-6.174-0.927c-1.974-0.105-2.634-1.248-2.776-2.858
		c-0.142-1.56-0.166-3.094,1.369-4.263c0.994-0.757,1.521-2.036,1.373-3.351c-0.236-2.047,0.797-2.303,2.402-1.875
		c0.537,0.144,1.17,0.613,1.366-0.334c0.236-1.14,0.22-2.536,1.662-2.756c1.2-0.184,2.51-0.108,3.698,0.168
		c3.225,0.75,6.301-2.294,5.679-5.627c-0.499-2.667-2.239-3.08-4.441-2.623c-1.565,0.325-2.168-0.648-2.573-1.753
		c-0.523-1.42,0.859-1.344,1.591-1.675c2.322-1.054,3.243-2.695,2.075-5.274c-1.287-2.844,0.373-4.8,2.123-5.602
		c1.801-0.825,4.073-0.989,6.1-1.687c0.492-0.17,1.262,0.139,1.937,0.025c1.229-0.208,0.887,0.607,0.72,1.241
		c-0.188,0.708-1.9,0.611-1.059,1.822c0.666,0.955,1.844,1.47,2.867,1.133c1.806-0.594,3.635-0.876,5.49-0.937
		c3.912-0.129,6.467-3.124,8.652-5.367c2.801-2.874,4.177-1.112,6.18,0.109c0.354,0.215,0.636,0.54,0.974,0.782
		c1.53,1.097,2.94,1.05,4.591-0.011c2.953-1.898,3.065-5.176,3.944-7.965c0.52-1.641-0.729-3.814-2.47-4.151
		c-2.412-0.469-2.457-2.169-2.909-3.757c-0.445-1.565-1.446-3.123-0.538-5.133c0.291,0.463,0.509,0.651,0.521,0.852
		c0.131,2.171,1.489,3.021,3.438,3.252c2.021,0.24,3.176-0.69,4.095-2.5c2.086-4.112,1.659-8.421,1.316-12.729
		c-0.107-1.366-0.375-2.29,1.559-2.607c2.387-0.391,3.998-3.5,3.008-5.948c-0.747-1.845-0.863-3.622-0.973-5.519
		c-0.139-2.438-2.51-3.935-4.871-3.203c-1.785,0.553-3.029,1.83-3.566,3.573c-0.729,2.364-1.896,3.654-4.643,3.462
		c-1.929-0.135-3.395,0.928-3.148,3.229c0.138,1.309-0.488,1.62-1.623,1.489c-2.979-0.344-4.973,0.964-6.006,3.718
		c-0.407,1.086-1.024,1.422-2.107,1.045c-1.205-0.419-0.804-1.102-0.504-1.969c0.709-2.057-0.174-3.564-2.141-3.913
		c-2.779-0.494-3.924-3.292-2.358-5.778c2.741-4.358,1.413-7.535-3.586-8.573c-2.454-0.51-2.43-0.716-1.089-3.034
		c1.588-2.748,3.285-5.512,3.202-9.038c-1.234,0.177-2.504,0.791-3.642-0.551c1.59-0.289,2.438-0.989,1.664-2.706
		c-1.061-2.359-2.992-2.632-4.731-0.542c-0.454,0.546-0.86,1.028-1.645,0.851c-0.716-0.163-1.162-0.631-1.362-1.318
		c-0.186-0.638-0.002-1.259,0.605-1.478c3.949-1.429,3.342-4.988,3.6-7.987c0.225-2.605-1.326-3.968-3.973-3.852
		c-1.133,0.051-1.688-0.234-1.963-1.344c-0.599-2.398-2.139-3.474-4.629-3.021c-1.529,0.277-2.116-0.437-2.214-1.898
		c-0.114-1.699-1.444-2.526-2.826-2.553c-1.962-0.038-3.97,0.161-5.775,1.258c-2.229,1.356-2.431,2.469-0.554,4.186
		c0.793,0.724,1.938,1.36,1.487,2.624c-0.497,1.393-1.575,0.115-2.377,0.268c-0.567,0.108-1.169,0.209-1.731,0.133
		c-1.643-0.224-3.027-0.436-2.455-2.906c0.494-2.135-1.055-3.844-2.803-4.839c-1.641-0.934-3.184-0.022-4.466,1.217
		c-1.888,1.824-2.644,3.889-1.079,6.729c-1.396-0.695-2.343-0.854-3.487-0.679c-1.286,0.198-2.888-0.171-3.931-0.571
		c-1.502-0.577-1.535-0.085-1.714,0.896c-0.313,1.713-0.604,3.434-0.818,5.161c-0.104,0.846-0.113,1.545-1.295,1.077
		c-2.195-0.871-3.42,0.507-4.522,2.062c-1.595,2.243-2.92,2.331-4-0.268c-1.447-3.483-4.172-5.678-7.032-7.965
		c1.181-0.67,2.969,0.752,3.211-1.367c0.147-1.315,0.286-2.636,0.335-3.957c0.018-0.466-0.416-0.695-0.9-0.578
		c-0.689,0.167-1.402,1.386-2.062,0.085c-0.596-1.171,0.192-2.077,0.918-2.892c0.684-0.771,1.237-1.48,0.978-2.654
		c-0.327-1.472-1.182-2.351-2.543-2.805c-1.48-0.493-2.685,0.174-3.533,1.246c-1.306,1.646-2.837,2.713-4.938,2.089
		c-2.217-0.659-3.492,0.252-4.48,2.062c-0.393,0.72-0.948,1.824-1.82,1.157c-1.401-1.072-3.276-1.342-4.291-3.208
		c-0.794-1.459-1.09-3.186-2.201-4.43c-1.563-1.746-3.734-2.403-5.929-2.952c-0.476-0.119-1.071-0.118-1.112-0.759
		c-0.033-0.512,0.52-0.559,0.854-0.777c1.278-0.832,1.55-3.95,0.486-5.139c-0.37-0.415-0.705-0.331-1.083-0.071
		c-1.222,0.839-2.196,0.089-2.753-0.773c-0.619-0.956,0.34-1.673,1.025-2.266c1.236-1.069,1.059-2.174,0.092-3.249
		c-1.705-1.895-4.201-1.791-5.807,0.198c-0.994,1.229-2.051,2.416-2.945,3.712c-0.606,0.877-1.18,1.03-2.26,0.904
		c-3.72-0.434-5.74,1.731-5.479,5.559c0.058,0.842,0.663,1.794-0.701,2.822c-0.231-2.461-2.093-3.847-2.909-5.917
		c-0.746-1.893-1.379-4.487-4.547-3.327c-0.539,0.197-0.783-0.229-0.828-0.655c-0.258-2.414-1.75-4.708-0.496-7.277
		c0.979-2.004-0.047-3.83-1.225-5.31c-0.842-1.058-2.561-2.171-3.693-1.255c-1.382,1.116-2.975,1.388-4.399,2.164
		c-1.329,0.723-2.56,1.57-2.507,3.405c0.048,1.575-0.926,1.997-2.324,1.733c-0.654-0.123-1.307-0.27-1.959-0.396
		c-2.697-0.525-5.041,0.853-5.555,3.49c-0.412,2.124-1.457,2.137-2.982,1.233c-0.561-0.33-1.241-1.13-1.746-0.599
		c-1.898,1.999-5.436,1.788-6.447,5.051c-0.541,1.746-1.86,1.572-3.123,0.423c-0.651-0.592-1.085-1.255-1.243-2.102
		c-0.476-2.558-2.504-2.838-4.533-3.074c-1.977-0.229-2.586,1.407-3.121,2.705c-0.519,1.258-1.104,2.007-2.447,2.468
		c-4.078,1.397-5.12,4.548-2.859,8.183c0.434,0.697,1.191,1.421,0.501,2.232c-1.107,1.301-0.933,2.813-0.911,4.283
		c0.025,1.693-0.388,3.374-1.725,4.21c-1.237,0.774-2.042-0.991-3.112-1.485c-0.147-0.068-0.25-0.255-0.397-0.295
		c-1.645-0.454-1.346-1.23-1.052-2.72c0.354-1.795,1.861-3.165,1.665-4.997c-0.387-3.627-1.959-5.309-5.505-6.183
		c-4.45-1.097-6.005-0.346-7.097,3.864c-0.565,2.18-1.115,3.71-3.686,2.152c-0.384-0.233-1.013,0.044-1.233-0.564
		c2.14-1.492,3.08-3.896,4.598-5.846c0.469-0.602,0.429-1.452-0.097-1.84c-1.593-1.177-1.903-3.501-4.082-4.148
		c1.101-0.899,1.799-0.304,2.574,0.233c2.509,1.74,5.329,2.246,8.324,1.951c1.042-0.104,2.059-0.316,2.166-1.614
		c0.25-3.058-5.448-7.973-8.501-7.215c-1.674,0.415-3.163,0.954-4.561-0.616c-0.566-0.636-1.441-0.406-2.062,0.096
		c-1.49,1.202-3.101,1.203-4.926,0.967c-4.502-0.581-7.175,2.251-6.196,6.599c0.369,1.639,1.084,3.544,3.555,2.543
		c1.066-0.432,1.194,0.107,1.042,0.922c-0.479,2.572-0.991,5.139-1.525,7.889c-3.213-2.304-4.213-6.144-7.152-8.331
		c-0.436-0.324-1.244-0.985-1.166-0.491c0.28,1.783-1.676,2.055-1.88,3.405c-0.317,2.095-1.433,4.12-0.308,6.314
		c0.345,0.673,0.307,1.506-0.401,2.044c-0.57,0.433-1.182,0.148-1.597-0.244c-2.501-2.357-5.625-2.68-8.847-3.08
		c-4.205-0.521-7.16,2.172-6.516,6.389c0.17,1.115,0.355,2.216-0.708,2.946c-0.633,0.435-2.179,0.85-2.029,0.213
		c0.388-1.646-1.095-2.403-1.128-3.643c-0.027-1.057-0.798-2.645,1.332-2.805c0.66-0.05,0.816-0.772,1.039-1.3
		c0.74-1.754,0.721-3.776-0.594-4.901c-1.521-1.301-2.883-3.478-5.751-2.386c-1.595,0.607-2.217,1.801-3.252,2.811
		c-1.001,0.977-0.243,3.262-2.241,3.194c-1.766-0.06-1.601-2.118-2.519-3.134c-1.438-1.591-4.772-3.179-5.616-2.101
		c-1.787,2.283-3.681,1.938-5.941,1.176c-0.809-0.273-1.898-0.216-2.702,0.096c-1.898,0.734-3.83,1.062-5.839,1.125
		c-1.399,0.044-2.273,0.67-2.657,2.134c-0.392,1.494-1.432,2.674-2.757,3.423c-1.782,1.007-2.472,2.663-2.935,4.446
		c-0.622,2.395,0.615,3.974,3.126,4.414c1.542,0.271,3.119,0.921,4.108,2.021c0.787,0.874-0.649,1.889-1.172,3.033
		c1.53-0.082,2.801,0.037,2.751,1.844c1.295-0.503,2.656-0.633,4.129-0.526c-0.47-1.08-1.271-0.93-1.997-1.021
		c-1.078-0.136-1.938-0.652-2.024-1.825c-0.052-0.711-0.465-1.56,0.167-2.156c0.949-0.896,2.24-0.092,2.729,0.294
		c1.47,1.158,3.186,2.117,4.23,3.765c0.218,0.344,0.568,0.974,0.451,1.104c-0.947,1.047,0.103,1.279,0.62,1.764
		c2.522,2.364,4.715,4.828,5.419,8.485c0.675,3.504,4.848,4.372,7.338,1.759C161.229,110.854,162.136,110.007,163.522,110.012z
		 M197.008,323.484c0.062,0.979-0.127,2.133,0.694,2.814c1.248,1.04,1.432,2.303,1.353,3.775c-0.061,1.146,0.577,2.082,1.32,2.881
		c0.877,0.943,1.906,1.09,2.795,0.043c1.177-1.385,2.479-2.686,3.189-4.424c0.583-1.428,0.661-2.555-1.126-3.143
		c-1.915-0.629-1.919-1.645-0.396-2.787c1.258-0.94,1.289-1.967,0.044-2.812c-1.563-1.062-3.241-1.526-5.15-0.613
		C197.881,320.107,196.749,321.309,197.008,323.484z M190.316,75.214c-0.321-2.732-0.472-5.159-2.7-6.758
		c-1.909-1.37-4.024-1.231-5.556,0.452c-2.376,2.611-2.198,3.693-0.466,6.152c1.136,1.613,3.061,0.978,4.157,2.316
		c0.661,0.808,1.875,0.929,2.729,0.278C189.364,76.983,190.289,76.177,190.316,75.214z M130.744,102.435
		c0.035-2.112-2.826-4.849-5-4.782c-2.375,0.073-4.678,2.405-4.708,4.767c-0.034,2.828,1.943,5.429,4.211,5.536
		C127.438,108.059,130.704,104.778,130.744,102.435z M178.042,73.204c0.216-2.094-0.694-3.795-2.64-5.232
		c-1.492-1.102-2.629-1.849-4.328-0.429c-2.441,2.041-2.836,3.089-1.734,5.386c1.02,2.126,2.627,2.908,5.007,3.294
		C177.791,76.781,178.015,76.911,178.042,73.204z M419.223,240.187c-0.267-1.069-0.324-2.934-2.186-2.575
		c-1.043,0.201-1.211,0.198-2.173-0.409c-2.259-1.424-3.16,1.61-4.859,2.35c-0.696,0.303-1.64,0.862-0.983,1.616
		c1.175,1.347,1.533,3.073,2.511,4.464c0.571,0.818,1.505,1.339,2.609,1.092C415.775,246.36,419.178,242.132,419.223,240.187z
		 M424.291,216.513c3.533,0.074,5.938-3.373,4.277-5.803c-1.295-1.896-3.26-3.376-5.485-4.091c-2.107-0.676-3.124,0.445-2.755,2.633
		c0.221,1.31,0.563,2.616,0.614,3.934C421.039,215.709,422.631,216.364,424.291,216.513z M155.7,203.669
		c0.004-3.485-2.282-6.835-4.648-6.188c-1.532,0.419-4.194,0.379-4.422,2.672c-0.364,3.67,2.26,6.785,5.204,6.791
		C153.748,206.949,155.698,205.297,155.7,203.669z M386.944,276.684c-1.444,0.045-2.402,0.273-2.847-0.627
		c-1.234-2.521-3.914-2.584-6.049-3.422c-2.044-0.803-2.995,1.301-4.205,2.434c-0.631,0.594-0.945,1.628-0.156,2.219
		c1.066,0.8,2.145,2.121,3.809,0.959c0.41-0.285,1.268-0.164,1.173,0.383c-0.387,2.235,1.104,1.059,1.923,1.186
		C383.142,280.207,384.738,278.652,386.944,276.684z M187.992,333.418c-2.061-0.439-3.198,1.111-3.891,2.65
		c-0.685,1.521-0.275,3.276,0.902,4.594c1.038,1.162,2.239,1.48,3.328-0.012c0.35-0.48,0.682-0.924,1.3-1.088
		c1.976-0.527,2.745-2.177,2.441-3.828C191.729,333.869,189.911,333.428,187.992,333.418z M387.424,269.447
		c-0.009,0.937,0.826,1.717,0.25,2.803c-0.652,1.232,1.393,1.456,1.404,2.712c-0.729,0.003-1.547-0.344-2.045,0.455
		c1.935,1.696,7.751,1.103,10.098-1.224c-1.499,0.229-2.256,0.006-2.236-1.688c0.025-2.146-1.655-3.278-4.158-3.237
		C389.666,269.285,388.6,269.381,387.424,269.447z M413.953,195.493c0-0.033,0.028-0.286-0.004-0.532
		c-0.25-1.94-1.394-3.356-3.209-3.666c-1.406-0.239-3.17,0.08-3.915,1.611c-0.879,1.805,0.728,2.87,1.687,4.062
		c0.256,0.318,0.617,0.557,0.951,0.804c0.886,0.652,1.522,2.025,2.926,1.34C413.761,198.446,414.039,197.123,413.953,195.493z
		 M417.942,318.338c1.367,0.754,2.99,0.094,3.905,1.311c1.205,1.604,2.309,1.402,3.878,0.217c1.2-0.905,1.719-1.604,1.214-3.006
		c-0.938-2.604-3.273-2.104-5.229-2.319c-1.263-0.142-1.813,0.778-1.638,1.925C420.313,318.01,419.051,317.854,417.942,318.338z"/>
	<g>
		<g>
			<path fill="#FFFFFF" d="M388.01,236.489c-0.43,0.385-0.797,0.932-1.299,1.127c-1.67,0.648-1.398,1.93-0.551,2.692
				c1.344,1.208,0.998,2.292,0.373,3.533c-0.703,1.398-1.994,2.238-3.418,2.117c-2.485-0.211-4.979,1.498-7.418-0.336
				c1.916,2.458,4.834,3.034,7.251,1.806c1.017-0.517,2.12-0.902,3.52-0.667c-0.664,1.371-2.644,0.689-3.199,2.496
				c1.825-0.803,3.353-0.815,4.741,0.435c0.823,0.74,1.407,0.104,1.682-0.68c0.441-1.277,1.48-1.752,2.619-2.069
				c0.743-0.207,1.738-1.271,2.174,0.337c0.273,1.02,1.73,2.053-0.09,3.136c-0.971,0.577-2.043,1.159-2.602,2.271
				c-0.229,0.453-0.688,0.627-1,0.25c-1.494-1.805-3.857-1.113-5.701-2.067c-0.477,0.587,0.332,1.87-0.866,1.979
				c-0.868,0.077-0.68-0.971-1.015-1.466c-1.584-2.344-4.264-2.394-6.537-3.227c-2.706-0.991-5.498-1.751-8.26-2.583
				c-1.123-0.338-2.188-0.443-3.157,0.542c-1.535,1.562-3.212,1.48-4.181-0.387c-0.807-1.549-1.309-1.025-2.105-0.148
				c-0.984,1.083-2.025,2.116-3.492,3.634c1.724-4.101-0.777-7.401-4.611-7.039c-0.986,0.093-2.021,0.23-2.92,0.61
				c-2.262,0.955-3.955,0.647-4.954-1.773c-0.271-0.304-0.479-0.748-0.813-0.891c-3.061-1.3-5.726-2.988-6.843-6.377
				c-0.093-0.283-0.458-0.495-0.849-0.243c-0.171,0.711-0.197,1.516-0.545,2.139c-1.102,1.966-3.35,3.244-3.379,5.895
				c-0.006,0.419-0.887,0.849-1.695,0.588c-1.729-0.557-2.063,0.529-1.848,1.864c0.327,2.01,0.729,3.978-0.293,5.931
				c-0.211,0.405-0.123,1.054,0.504,1.224c0.57,0.152,0.924-0.271,1.194-0.696c1.521-2.382,3.04-4.762,4.52-7.169
				c0.192-0.317,0.197-0.786,0.191-1.185c-0.015-1.021-1.546-2.518,0.036-2.889c1.029-0.242,0.354,1.848,0.902,2.74
				c0.059,0.094,0.24,0.112,0.486,0.218c-0.014-1.363,0.625-1.634,1.961-2.073c2.504-0.824,4.254,1.424,6.488,0.9
				c-0.295,1.476-1.179,2.962,1.309,3.71c1.059,0.319,0.932,2.318,0.732,3.244c-0.201,0.944-1.385,0.825-1.838-0.44
				c-0.281-0.787-0.373-2.029-1.687-1.649c-1.073,0.311-0.58,1.362-0.643,2.262c-1.94-0.784-3.577-0.995-3.507,1.873
				c0.014,0.552-0.141,0.556-1.893,0.024c0.096-1.357-0.157-2.602-0.989-3.734c-0.952-1.297-1.646-1.426-2.38,0.205
				c-0.674,1.497-1.438,2.971-2.326,4.349c-0.992,1.537,0.283,2.156,1.094,2.771c1.127,0.854,1.238-0.588,1.753-1.06
				c0.944-0.864,0.865-2.873,2.87-2.551c-0.553,1.444-1.104,2.887-1.729,4.524c1.92,0.09,3.668,0.043,5.086-1.104
				c1.269-1.021,2.176-2.479,3.781-3.201c-0.406,1.117-1.57,1.771-1.529,3.162c0.023,0.896-0.982,1.266-1.854,1.352
				c-0.738,0.072-1.551-0.082-1.938,0.785c-0.109,0.244,0.1,0.647,0.294,0.535c0.976-0.566,1.502,1.246,2.606,0.354
				c1.681-1.355,3.511-2.525,5.271-3.781c0.203-0.145,0.407-0.307,0.556-0.502c2.725-3.584,6.101-3.237,9.62-1.518
				c1.787,0.875,3.832,0.582,6.171,1.438c-2.651,0.852-4.773,0.617-6.771-0.104c-3.449-1.244-6.113-0.937-8.949,1.934
				c-2.764,2.793-6.416,4.726-9.748,6.932c-3.3,2.184-3.412,2.977-0.297,5.268c1.447,1.064,1.717,2.46,1.217,3.979
				c-0.53,1.606-1.672,2.718-3.506,2.652c-1.578-0.056-3.15-0.257-4.723-0.412c-0.818-0.081-1.615,0.116-1.914,0.862
				c-0.385,0.955,0.685,0.939,1.17,1.266c0.563,0.375,1.246,0.709,1.402,1.359c0.628,2.566,1.729,1.865,3.285,0.734
				c2.037-1.477,3.547-3.747,6.249-4.293c0.254-0.051,0.514-0.67,0.563-1.053c0.502-3.852,3.422-6.372,4.969-9.896
				c0.982,1.144-0.227,1.799,0.148,2.686c2.974-0.688,4.893-3.516,8.139-3.78c-1.763,1.234-3.398,2.737-5.314,3.646
				c-4.11,1.951-6.221,5.296-7.455,9.439c-0.369,1.247-0.227,1.672,1.221,1.359c3.872-0.838,7.527-0.744,11.427,0.841
				c2.786,1.134,6.176,1.745,9.43,0.058c2.534-1.313,3.903,0.229,5.325,2.59c1.511,2.511,1.094,5.849,4.104,7.819
				c1.736,1.142,0.601,5.015,3.839,5.683c-0.221,3.805,3.154,1.75,4.646,2.787c0.488,0.34,1.797-0.291,1.793,0.727
				c-0.004,1.202-1.227,0.813-1.975,0.782c-1.08-0.039-2.156-0.375-2.76,0.993c-0.592,1.339,0.07,2.229,0.893,3.115
				c1.454,1.571,2.91,3.145,4.243,4.865c-1.927-0.697-3.474-1.913-4.739-3.51c-2.893-3.648-3.719-3.668-6.416-0.077
				c-0.483,0.646-1.203,1.165-1.33,2.497c2.29-3.07,3.447,0.743,5.285,0.439c-1.045,1.338-0.047,2.034,0.887,2.688
				c2.775,1.936,5.64,3.645,9.244,3.186c1.127-0.145,1.727,0.938,2.807,1.153c3.337,0.667,6.664,0.733,9.896-0.098
				c2.665-0.688,4.428,0.006,5.999,2.817c-2.558-2.05-4.993-1.574-7.431-1.093c-3.857,0.767-7.634-0.062-11.398-0.694
				c-1.598-0.271-2.176-0.021-2.355,1.729c-0.321,3.079-1.834,5.843-3.141,8.586c-1.008,2.119-5.127,2.824-7.431,1.446
				c-2.202-1.316-4.743-2.043-6.255-4.603c-0.686-1.154-2.83-1.535-4.384-2.05c-0.979-0.323-0.769,0.824-1.104,1.312
				c-0.617,0.892-0.157,2.365-1.729,2.771c-2.246,0.58-3.485-0.113-3.709-3.111c-0.193-2.604-0.959-3.185-3.494-2.608
				c-6.48,1.47-12.626,3.823-18.662,6.516c-0.737,0.329-1.457,0.243-2.184,0.364c-2.071,0.344-4.097,0.85-5.837,2.079
				c-3.14,2.221-7.098,2.268-10.427,4.004c-1.829,0.954-3.894,1.28-3.055,4.38c0.562,2.084-2.289,3.926-4.324,3.131
				c-0.416-0.162-0.764-0.383-1.094,0.049c-0.289,0.375-0.215,0.799,0.025,1.161c0.717,1.079,0.688,2.15-0.426,2.814
				c-1.162,0.694-2.232,0.194-3.082-0.808c-1.229-1.455-3.279-2.314-2.912-4.859c0.148-1.051-0.945-1.527-1.99-1.213
				c-4.205,1.271-8.535,1.289-12.865,1.399c-1.777,0.048-2.764,0.821-2.438,2.841c0.713,4.424,1.184,8.838,0.904,13.371
				c-0.205,3.346-0.673,6.611-2.703,9.137c-4.451,5.533-4.383,11.623-2.918,17.965c2.399,10.387,4.035,20.924,6.287,31.336
				c1.229,5.69,2.764,11.318,4.107,16.986c0.307,1.286,1.086,1.4,2.211,1.404c4.617,0.021,9.24-0.006,13.848,0.256
				c5.386,0.309,10.771,0.43,16.159,0.547c8.396,0.188,16.753,1.035,25.121,1.688c4.352,0.337,8.679,0.84,12.974,1.666
				c1.646,0.314,3.777,1.064,3.797,2.199c0.027,1.668-1.866,2.563-3.705,3.074c-7.445,2.07-15.101,2.303-22.729,2.926
				c-11.546,0.942-23.123,0.918-34.686,1.281c-9.229,0.291-18.479,0.35-27.726-0.051c-5.563-0.24-11.142-0.149-16.711-0.287
				c-15.978-0.39-31.956-0.865-47.815-3.023c-3.556-0.484-7.254-0.605-10.358-3.088c-1.213-0.973-3.178-0.996-4.841-0.848
				c-10.314,0.932-20.65,0.139-30.969,0.474c-5.717,0.186-11.424,0.44-17.151,0.271c-1.906-0.057-3.824,0.781-5.759,1.059
				c-2.144,0.306-4.207,0.041-6.286-1.479c1.344-0.872,2.442-0.403,3.429-0.343c4.838,0.302,9.618-0.612,14.466-0.473
				c7.636,0.223,15.286-0.015,22.93-0.061c0.75-0.005,1.501-0.006,2.247-0.065c0.71-0.059,1.393-0.322,1.335-1.169
				c-0.053-0.786-0.793-0.75-1.357-0.746c-2.664,0.021-5.36-0.168-7.984,0.178c-3.856,0.508-7.637,0.082-11.44-0.28
				c-1.009-0.096-1.842-0.61-2.587-1.274c0.483-0.858,1.195-0.788,1.824-0.743c9.2,0.659,18.39,1.284,27.632,0.659
				c3.722-0.252,7.473-0.091,11.219,0.364c3.926,0.479,7.879-0.055,11.77-0.688c4.76-0.773,9.559-0.064,14.323-0.579
				c3.925-0.425,7.863-0.78,11.805-0.984c4.274-0.222,8.574-0.05,12.836-0.384c5.157-0.406,10.296-0.245,15.449-0.188
				c1.494,0.018,2.98-0.107,4.48,0.082c2.836,0.358,3.512-0.371,3.686-3.173c0.605-9.786-1.855-19.179-3.676-28.641
				c-1.162-6.05-2.662-12.032-4.068-18.031c-0.521-2.228-0.35-4.476-0.449-6.716c-0.107-2.464-0.855-4.482-3.248-5.741
				c-4.588-2.413-7.663-6.614-11.334-10.084c-1.718-1.622-2.289-4.213-3.113-6.479c-1.823-5.017-4.525-9.259-9.646-11.509
				c-0.976-0.43-1.825-1.198-3.027-0.7c-0.737,0.308-1.419-0.093-1.729-0.666c-2.102-3.899-6.41-4.821-9.625-7.209
				c-4.259-3.162-8.659-6.179-11.376-10.909c-0.915-1.596-1.986-2.334-3.841-1.891c-2.189,0.525-4.061-0.664-5.991-1.354
				c-1.24-0.443-2.356-0.586-3.625-0.162c-6.191,2.063-12.521,2.653-18.878,1.045c-3.455-0.875-5.734-0.06-7.914,2.867
				c-3.641,4.887-8.545,8.594-13.091,12.612c-0.386,0.341-0.793,0.909-1.85,0.475c4.138-4.893,9.773-8.202,12.934-13.872
				c-3.933,2.973-7.846,5.971-11.812,8.896c-1.07,0.791-2.21,2.277-3.692,0.979c-1.547-1.354-4.374-1.864-3.584-5.196
				c-1.387,0.562-2.588,1.031-3.776,1.535c-1.881,0.797-3.784,2.574-5.449-0.406c-0.276-0.494-1.174-0.666-1.708,0.095
				c-0.144,0.204-0.251,0.442-0.422,0.618c-0.726,0.744-1.423,3.629-1.041,4.541c0.317,0.757,0.216,1.451-0.133,2.162
				c-0.475,0.967-0.959,1.939-0.566,3.238c-1.312-1.464-2.95-1.677-4.538-1.851c-1.924-0.211-2.923,1.342-4.118,2.469
				c-0.121,0.114-0.215,0.285-0.357,0.347c-2.075,0.869-4.275,1.287-5.779,3.435c-0.677,0.966-2.467,0.142-3.568-0.769
				c-2.312-1.904-5.187-1.916-7.416,0.021c-1.641,1.424-3.325,1.92-5.156,0.444c-1.857-1.498-2.051-3.33-0.848-5.326
				c0.432-0.715,1.016-1.364,0.802-2.276c-0.436-1.854,0.3-3.233,1.681-4.392c0.814-0.684,1.573-1.563,0.634-2.522
				c-0.974-0.997-1.578,0.151-2.217,0.733c-2.136,1.941-4.728,2.316-7.445,2.035c-2.645-0.274-5.25-0.897-7.938-0.787
				c-2.125,0.088-3.802-1.151-5.544-2.082c-4.259-2.272-4.236-2.315-6.691,1.808c-0.527-1.131-0.115-1.961,0.34-2.812
				c0.871-1.627,0.059-2.148-1.461-2.08c-2.536,0.115-4.989,1.086-7.768,0.8c0.907-1.659,2.2-2.175,3.879-2.205
				c0.919-0.017,2.765-0.044,2.44-0.847c-0.431-1.063-1.326-2.656-3.084-2.59c-0.271,0.01-0.574,0.432-0.875,0.146
				c-2.577-2.442-5.806-1.549-8.8-1.666c-4.771-0.188-9.289-1.469-13.974-2.69c0.739-1.068,1.646-0.906,2.354-0.615
				c2.122,0.867,4.403,0.818,6.576,1.322c3.477,0.805,6.989-0.262,10.455,0.391c0.81,0.152,1.671,0.02,2.488,0.146
				c3.422,0.539,3.449,0.549,2.209-2.662c-0.295-0.768,0.045-1.199,0.576-1.4c1.146-0.434,2.424,0.828,2.405,1.123
				c-0.106,1.646,1.07,1.115,1.554,0.893c0.756-0.35,0.551-1.636,1.482-2.014c-0.326-0.508-1.041-1.211-1.313-0.963
				c-2.051,1.875-1.79-0.438-2.414-1.223c-1.473-1.85-3.582-0.795-5.394-1.027c-0.413-0.053-1.005,0.258-1.287-0.188
				c-1.056-1.673-1.935-1.427-3.283-0.168c-0.989,0.922-3.492-1.444-3.363-3.229c0.138-1.912,0.95-3.357,3.069-3.668
				c2.107-0.31,2.847,0.229,3.904,3.057c1.156-1.606,1.941-3.01,0.128-4.504c-1.259-1.037-1.789-2.312-1.677-3.946
				c0.049-0.726-0.127-1.498-0.359-2.197c-0.256-0.771-0.554-1.688-1.569-1.726c-1.028-0.036-0.939,1-1.283,1.607
				c-0.369,0.651-0.751,1.301-1.066,1.979c-0.452,0.976-0.988,1.773-2.25,1.49c-1.324-0.299-2.399-0.946-2.444-2.437
				c-0.067-2.256,0.308-4.485,1.393-6.473c1.124-2.059,4.551-2.164,5.763-0.137c0.889,1.488,1.733,1.712,2.897,0.549
				c1.042-1.042,2.245-1.34,4.339-0.863c-2.108-2.731-1.053-4.748,0.216-6.886c0.675-1.138,0.465-2.464-0.665-3.623
				c-3.276-3.36-2.992-5.563,0.942-8.132c0.897-0.586,1.424-1.247,1.681-2.316c0.349-1.451,1.007-2.739,2.283-3.744
				c1.745-1.372,1.392-2.771-0.786-3.472c-0.509-0.163-0.881-0.302-1.151-0.793c-0.79-1.437-1.547-2.017-2.347,0.056
				c-0.3,0.778-1.203,0.647-1.76,0.332c-0.952-0.543-2.435-0.541-2.613-1.998c-0.201-1.635-0.557-3.375,1.394-4.381
				c0.373-0.193,1.058-0.473,0.553-1.108c-0.402-0.507-0.748,0.063-1.106,0.132c-1.583,0.307-3.397,0.771-4.505-0.997
				c-0.65-1.038-1.008-1.057-2.047-0.321c-1.238,0.875-2.689,2.525-4.404,0.91c-1.519-1.429-1.429-3.268-0.583-5.083
				c0.035-0.076,0.128-0.162,0.112-0.218c-1.591-5.164,2.806-8.241,4.345-12.305c0.734-1.941,0.582-3.707,0.017-5.563
				c-0.811-2.662-0.167-3.463,2.723-3.401c2.661,0.057,2.888-0.138,2.206-2.838c-0.455-1.799-0.499-3.256,1.372-4.265
				c1.818-0.98,3.39-1.012,4.978,0.548c1.466,1.44,4.725,1.388,6.416,0.009c0.994-0.811,1.981-1.369,3.325-1.502
				c1.56-0.155,2.561-1.392,3.52-2.54c3.854-4.615,3.13-3.405,8.262-2.43c0.892,0.169,1.86,0.816,2.554,0.066
				c0.74-0.8-0.272-1.461-0.656-2.147c-1.141-2.041,0.734-5.74,3.057-5.938c0.985-0.084,2.137-0.226,2.956,0.181
				c1.703,0.844,2.896,0.02,3.971-0.928c1.831-1.616,3.646-2.208,5.797-0.69c1.058,0.746,1.682,0.399,2.365-0.693
				c2.327-3.721,6.685-3.215,8.784,0.1c0.402,0.636,0.757,1.274,1.5,1.611c1.133,0.513,2.004,0.685,1.767-1.051
				c-0.25-1.83,0.727-3.287,1.854-4.398c1.118-1.101,2.638-2.408,4.408-1.107c1.651,1.212,4.006,2.03,3.553,4.827
				c-0.218,1.346,0.319,2.063,1.691,2.176c0.324,0.027,0.818,0.083,0.929,0.29c1.947,3.648,7.297,3.274,8.792,7.471
				c0.258,0.726,0.971,1.223,1.835,0.832c2.458-1.112,2.568,1.228,2.356,2.138c-0.43,1.847,0.577,3.388,0.455,5.117
				c-0.112,1.592,0.882,1.979,2.309,1.512c3.528-1.157,5.854,0.358,5.748,3.964c-0.06,2.023,1.294,3.061,2.396,4.388
				c-0.402-3.255-0.905-6.501-1.161-9.767c-0.113-1.448-0.5-2.328-1.958-2.727c-1.631-0.447-2.511-1.556-3.06-3.23
				c-0.666-2.031-0.1-3.126,1.749-3.948c2.746-1.22,2.894-1.938,1.111-4.355c-0.578-0.783-1.406-1.433-1.389-2.606
				c0.892-0.021,1.013,0.764,1.405,1.204c0.434,0.487,0.793,1.04,1.235,1.63c0.669-1.896-0.622-4.037-2.279-6.509
				c-1.601-2.389-4.04-2.105-6.077-3.062c0.693,2.823,0.39,3.271-2.979,4.342c-0.857-1.152,1.433-2.977-0.8-3.887
				c-0.349-0.143,0.142-0.601,0.39-0.705c2.483-1.043,1.048-1.854-0.117-2.744c-0.379-0.291-0.763-0.668-0.708-1.348
				c1.477,0.263,2.415,1.306,3.463,2.19c0.629,0.531,1.285,1.083,2.021,1.42c1.051,0.481,1.708-0.262,2.271-1.035
				c0.688-0.944,0.03-1.499-0.712-1.671c-4.048-0.94-4.865-4.238-5.665-7.569c-0.053-0.222-0.029-0.463-0.062-1.133
				c1.193,1.481,1.663,1.917,3.015,0.135c1.325-1.746,3.649-2.55,1.438-5.098c1.27-2.027-0.611-2.481-1.678-3.308
				c-1.545-1.197-1.879-3.082-2.617-4.704c-0.413-0.909,0.608-1.312,1.389-1.703c1.652-0.827,2.118-2.467,0.924-3.619
				c-1.549-1.494-2.043-3.138-2.138-5.087c-0.031-0.64-0.124-1.231-0.935-1.149c-1.005,0.101-0.642,0.771-0.43,1.298
				c0.637,1.58-0.303,3.193-0.85,4.213c-1.237,2.311,0.038,3.106,1.514,4.15c-0.748,0.604-1.254-0.145-1.844-0.195
				c-2.012-0.173-3.945-0.8-6.066-0.193c-1.534,0.439-3.712,1.542-4.413-1.369c-0.04-0.165-0.498-0.412-0.567-0.36
				c-1.519,1.131-4.101,0.108-5.006,2.44c-0.503,1.296-1.084,1.801-2.28,0.577c-1.001-1.023-2.197-0.793-3.483-0.373
				c-3.827,1.25-5.268,0.111-5.06-3.886c0.03-0.574,0.248-1.135,0.338-1.709c0.38-2.421,1.62-4.702,0.339-7.333
				c-1.033-2.119,1.016-3.655,1.872-5.313c-0.164-0.649-0.689-0.683-1.022-0.568c-2.664,0.919-3.696-1.051-4.457-2.805
				c-0.813-1.876-0.722-3.942,0.852-5.59c1.606-1.682,3.409-1.587,5.483-0.796c1.799,0.685,2.728,1.641,2.696,3.627
				c-0.021,1.374,0.319,2.718,2.118,2.85c0.423,0.031,0.884,0.033,1.096-0.396c0.228-0.46-0.08-0.845-0.452-1.03
				c-1.927-0.958-1.5-2.08-0.28-3.291c1.254-1.246,0.77-2.651,0.144-3.891c-1.295-2.564-0.589-4.932,2.138-6.557
				c1.847-1.1,4.864-0.343,6.233,1.563c1.297,1.806,3.871,2.373,6.291,1.198c-0.368,1.088-0.646,2.216,0.853,2.224
				c0.822,0.005,1.587,0.067,1.762-1.395c0.18-1.511,1.345-2.848,3.276-2.837c1.911,0.011,1.833,1.586,2.247,2.797
				c0.176,0.515,0.064,1.2,1.273,1.66c-1.44-3.349,0.357-4.391,2.815-5.928c2.228-1.393,4.754-3.321,5.551-6.54
				c-1.431-0.158-2.852-0.411-4.137-1.22c-1.114-0.701-2.176-0.732-3.383,0.3c-1.216,1.04-0.897,1.88-0.456,3.029
				c0.533,1.387,0.528,2.81-0.596,3.968c-0.754,0.778-1.67,1.399-2.388,0.004c-0.693-1.347-1.167-0.704-1.729,0.047
				c-0.881,1.178-1.855,1.587-3.156,0.521c-1.131-0.927-2.021-1.863-0.871-3.321c0.875-1.108,0.455-2.229,0.097-3.323
				c-0.807-2.462,1.289-6.456,3.824-6.799c1.699-0.23,3.876-1.469,4.736,1.594c0.247,0.879,1.675,1.486,2.737,1.536
				c2.473,0.117,4.623,1.219,6.907,1.914c0.934,0.284,1.564,0.082,1.677-1.131c0.229-2.479,0.339-4.984,1.458-7.305
				c0.418-0.866-0.286-1.572-0.694-2.284c2.248-0.056,2.526-2,2.957-3.463c0.401-1.36-1.267-1.479-2.07-2.021
				c-0.93-0.629-1.606-1.382-2.129-2.347c-0.314-0.579-0.735-1.261-1.528-0.73c-0.717,0.479,0.092,1.013,0.091,1.5
				c-0.007,2.729,3.229,4.191,2.714,7.085c-1.386-0.004-2.293,0.843-3.17,1.763c-2.49,2.612-6.663,1.745-7.338-1.759
				c-0.704-3.657-2.896-6.121-5.419-8.485c-0.517-0.485-1.567-0.717-0.62-1.764c0.118-0.13-0.232-0.76-0.451-1.104
				c-1.044-1.647-2.761-2.607-4.23-3.765c-0.49-0.386-1.781-1.189-2.729-0.294c-0.632,0.597-0.218,1.445-0.167,2.156
				c0.086,1.173,0.946,1.689,2.024,1.825c0.726,0.092,1.527-0.057,1.997,1.022c-1.473-0.106-2.834,0.023-4.129,0.526
				c0.05-1.807-1.221-1.926-2.751-1.844c0.522-1.144,1.958-2.159,1.172-3.033c-0.989-1.101-2.567-1.751-4.108-2.021
				c-2.511-0.44-3.748-2.02-3.126-4.414c0.463-1.783,1.152-3.439,2.935-4.446c1.325-0.749,2.366-1.929,2.757-3.423
				c0.384-1.463,1.258-2.09,2.657-2.134c2.01-0.063,3.941-0.391,5.839-1.125c0.804-0.312,1.893-0.369,2.702-0.096
				c2.26,0.762,4.154,1.107,5.941-1.176c0.844-1.078,4.178,0.51,5.616,2.101c0.918,1.017,0.753,3.075,2.519,3.134
				c1.999,0.067,1.24-2.218,2.241-3.194c1.036-1.01,1.658-2.204,3.252-2.811c2.869-1.092,4.231,1.085,5.751,2.386
				c1.315,1.125,1.334,3.147,0.594,4.901c-0.223,0.528-0.379,1.25-1.039,1.3c-2.13,0.161-1.359,1.748-1.332,2.805
				c0.033,1.24,1.516,1.998,1.128,3.644c-0.15,0.636,1.396,0.221,2.029-0.213c1.064-0.729,0.879-1.831,0.708-2.946
				c-0.644-4.217,2.312-6.912,6.516-6.389c3.221,0.4,6.345,0.723,8.847,3.08c0.416,0.392,1.027,0.677,1.597,0.244
				c0.708-0.538,0.746-1.371,0.401-2.044c-1.125-2.194-0.009-4.219,0.308-6.313c0.204-1.352,2.16-1.623,1.88-3.405
				c-0.078-0.494,0.73,0.167,1.166,0.491c2.939,2.188,3.939,6.027,7.152,8.331c0.534-2.75,1.046-5.316,1.525-7.889
				c0.152-0.814,0.024-1.354-1.042-0.922c-2.47,1.001-3.186-0.905-3.555-2.543c-0.979-4.348,1.693-7.18,6.196-6.599
				c1.825,0.235,3.436,0.235,4.926-0.967c0.622-0.501,1.496-0.731,2.062-0.096c1.397,1.57,2.886,1.031,4.561,0.616
				c3.054-0.758,8.752,4.157,8.501,7.215c-0.106,1.297-1.124,1.511-2.166,1.614c-2.996,0.295-5.815-0.211-8.324-1.951
				c-0.775-0.538-1.473-1.132-2.574-0.233c2.178,0.647,2.489,2.971,4.082,4.148c0.525,0.388,0.566,1.238,0.097,1.84
				c-1.518,1.949-2.458,4.354-4.598,5.846c0.22,0.608,0.849,0.332,1.233,0.564c2.571,1.558,3.121,0.028,3.686-2.152
				c1.092-4.21,2.647-4.961,7.097-3.864c3.546,0.874,5.119,2.555,5.505,6.183c0.196,1.833-1.311,3.202-1.665,4.997
				c-0.294,1.49-0.593,2.267,1.052,2.72c0.148,0.041,0.25,0.228,0.397,0.295c1.07,0.494,1.875,2.259,3.112,1.485
				c1.336-0.836,1.75-2.517,1.725-4.21c-0.022-1.47-0.197-2.982,0.911-4.283c0.69-0.811-0.067-1.535-0.501-2.231
				c-2.261-3.635-1.219-6.786,2.859-8.183c1.344-0.461,1.928-1.21,2.447-2.468c0.535-1.297,1.144-2.934,3.121-2.705
				c2.029,0.236,4.058,0.517,4.533,3.074c0.157,0.847,0.592,1.51,1.243,2.102c1.263,1.149,2.582,1.323,3.123-0.423
				c1.014-3.263,4.547-3.052,6.447-5.051c0.505-0.532,1.188,0.269,1.744,0.599c1.527,0.903,2.572,0.891,2.984-1.233
				c0.512-2.638,2.855-4.016,5.553-3.49c0.654,0.127,1.307,0.274,1.959,0.397c1.4,0.264,2.373-0.158,2.326-1.733
				c-0.053-1.835,1.176-2.682,2.506-3.405c1.428-0.776,3.021-1.048,4.4-2.164c1.133-0.916,2.852,0.198,3.693,1.255
				c1.177,1.479,2.201,3.306,1.225,5.31c-1.254,2.569,0.238,4.863,0.495,7.277c0.045,0.428,0.29,0.853,0.829,0.655
				c3.168-1.16,3.801,1.434,4.547,3.327c0.816,2.071,2.678,3.457,2.909,5.917c1.364-1.028,0.759-1.98,0.701-2.822
				c-0.261-3.827,1.762-5.992,5.479-5.559c1.08,0.126,1.652-0.027,2.261-0.904c0.896-1.296,1.951-2.483,2.943-3.712
				c1.605-1.989,4.104-2.093,5.809-0.198c0.967,1.075,1.146,2.18-0.094,3.249c-0.686,0.593-1.645,1.31-1.023,2.266
				c0.557,0.862,1.531,1.612,2.753,0.773c0.378-0.26,0.713-0.344,1.083,0.071c1.062,1.188,0.792,4.307-0.486,5.139
				c-0.336,0.219-0.889,0.265-0.854,0.777c0.041,0.641,0.639,0.641,1.111,0.759c2.193,0.549,4.367,1.206,5.93,2.952
				c1.11,1.244,1.405,2.971,2.199,4.43c1.017,1.866,2.892,2.136,4.291,3.208c0.873,0.667,1.432-0.438,1.822-1.157
				c0.988-1.811,2.264-2.722,4.48-2.062c2.102,0.625,3.633-0.441,4.938-2.089c0.851-1.072,2.051-1.739,3.533-1.246
				c1.361,0.454,2.216,1.333,2.543,2.805c0.262,1.174-0.294,1.884-0.979,2.654c-0.725,0.814-1.513,1.721-0.918,2.892
				c0.658,1.301,1.37,0.082,2.062-0.085c0.484-0.117,0.918,0.112,0.9,0.578c-0.051,1.321-0.188,2.642-0.335,3.957
				c-0.242,2.119-2.03,0.696-3.213,1.367c2.862,2.288,5.586,4.482,7.034,7.965c1.08,2.6,2.405,2.511,3.999,0.269
				c1.104-1.555,2.328-2.933,4.523-2.063c1.182,0.469,1.188-0.229,1.295-1.077c0.216-1.728,0.506-3.448,0.818-5.161
				c0.179-0.982,0.212-1.473,1.714-0.896c1.043,0.4,2.645,0.769,3.931,0.571c1.145-0.176,2.094-0.016,3.487,0.679
				c-1.563-2.838-0.81-4.903,1.079-6.729c1.28-1.239,2.823-2.15,4.466-1.217c1.748,0.995,3.297,2.704,2.803,4.839
				c-0.572,2.471,0.812,2.682,2.455,2.906c0.562,0.076,1.164-0.025,1.731-0.133c0.802-0.153,1.88,1.125,2.377-0.268
				c0.449-1.264-0.694-1.899-1.487-2.624c-1.877-1.717-1.676-2.83,0.554-4.186c1.807-1.097,3.813-1.296,5.775-1.258
				c1.382,0.027,2.712,0.854,2.826,2.553c0.098,1.461,0.685,2.175,2.214,1.898c2.488-0.453,4.028,0.623,4.629,3.021
				c0.273,1.11,0.83,1.396,1.963,1.344c2.645-0.117,4.195,1.246,3.973,3.852c-0.258,2.999,0.352,6.558-3.6,7.987
				c-0.607,0.219-0.791,0.84-0.605,1.478c0.2,0.687,0.646,1.156,1.362,1.318c0.782,0.177,1.188-0.305,1.643-0.851
				c1.741-2.09,3.675-1.816,4.733,0.542c0.771,1.716-0.074,2.417-1.664,2.706c1.136,1.342,2.405,0.729,3.64,0.551
				c0.084,3.526-1.612,6.29-3.2,9.038c-1.343,2.318-1.365,2.524,1.089,3.034c4.999,1.039,6.327,4.215,3.586,8.573
				c-1.563,2.485-0.421,5.284,2.356,5.778c1.969,0.349,2.852,1.856,2.143,3.913c-0.3,0.867-0.701,1.549,0.504,1.969
				c1.083,0.377,1.7,0.041,2.105-1.045c1.035-2.754,3.029-4.063,6.008-3.718c1.135,0.131,1.761-0.18,1.622-1.489
				c-0.243-2.301,1.223-3.364,3.149-3.229c2.744,0.192,3.914-1.098,4.642-3.462c0.536-1.743,1.782-3.02,3.567-3.573
				c2.361-0.732,4.732,0.767,4.871,3.203c0.106,1.897,0.224,3.674,0.971,5.52c0.992,2.448-0.621,5.557-3.006,5.948
				c-1.934,0.317-1.666,1.241-1.559,2.607c0.343,4.308,0.77,8.616-1.316,12.729c-0.919,1.811-2.076,2.74-4.095,2.5
				c-1.947-0.231-3.309-1.081-3.438-3.252c-0.013-0.2-0.229-0.388-0.521-0.852c-0.908,2.01,0.093,3.567,0.538,5.133
				c0.452,1.588,0.497,3.289,2.909,3.757c1.736,0.337,2.985,2.51,2.47,4.151c-0.879,2.79-0.991,6.067-3.944,7.965
				c-1.648,1.062-3.061,1.108-4.591,0.011c-0.338-0.242-0.62-0.567-0.974-0.782c-2.003-1.221-3.379-2.983-6.182-0.109
				c-2.186,2.244-4.738,5.238-8.65,5.367c-1.855,0.061-3.687,0.343-5.49,0.937c-1.025,0.337-2.201-0.178-2.867-1.133
				c-0.844-1.211,0.871-1.115,1.059-1.822c0.166-0.634,0.512-1.45-0.72-1.241c-0.675,0.114-1.442-0.195-1.937-0.025
				c-2.024,0.698-4.299,0.862-6.102,1.687c-1.75,0.802-3.408,2.757-2.122,5.602c1.168,2.579,0.246,4.22-2.074,5.274
				c-0.729,0.331-2.114,0.255-1.592,1.675c0.406,1.104,1.009,2.078,2.574,1.753c2.202-0.458,3.942-0.044,4.441,2.623
				c0.622,3.333-2.454,6.377-5.679,5.627c-1.188-0.276-2.498-0.352-3.698-0.168c-1.442,0.22-1.427,1.616-1.662,2.756
				c-0.196,0.947-0.829,0.478-1.366,0.334c-1.605-0.428-2.641-0.172-2.403,1.875c0.149,1.314-0.38,2.594-1.373,3.351
				c-1.534,1.169-1.51,2.704-1.368,4.263c0.145,1.61,0.805,2.753,2.775,2.858c2.041,0.11,4.063,0.594,6.174,0.927
				c0.234-0.712-0.756-2.229,1.34-1.69c0.691,0.178,0.424-1.692,0.477-3.136c1.411,2.326,3.564,2.253,5.727,3.1
				c-0.44-1.563-1.695-1.753-2.351-2.521c-0.898-1.061-2.279-2.236-1.708-3.605c0.61-1.461,2.426-1.559,3.943-1.602
				c0.475-0.014,0.955,0.19,1.547,0.322c-0.04-0.294-0.02-0.532-0.107-0.713c-0.396-0.797-1.262-1.664-0.453-2.472
				c0.782-0.781,1.743,0.04,2.521,0.395c2.415,1.105,4.576,0.522,6.654-0.815c0.836-0.537,0.844-1.371,0.633-2.231
				c-0.229-0.93-0.032-1.656,0.946-2.009c0.394-0.142,0.825-0.299,1.173,0.031c0.393,0.375,0.181,0.795-0.13,1.083
				c-1.391,1.29-1.179,2.808-0.407,4.847c-1.492-0.821-2.521-0.479-3.55,0.242c-1.026,0.72-1.839,1.387-1.401,2.832
				c0.6,1.993,1.817-0.189,2.615,0.433c0.113,0.803-0.619,0.867-1.035,1.194c-1.06,0.829-0.982,2.798,0.225,3.144
				c1.709,0.49,1.555,1.38,0.904,2.611c-0.897,1.701-1.31,3.865-4.234,3.623c1.17,1.767,2.756,1.701,4.131,1.835
				c3.348,0.327,5.208,2.71,6.991,5.037c1.055,1.375-0.212,4.635-1.688,5.214c-1.75,0.687-5.324-0.807-5.561-2.538
				c-0.264-1.947-0.959-2.083-2.643-1.455c-1.321,0.493-2.812,0.267-4.15,1.179c-1.018,0.691-1.2-0.801-1.61-1.398
				c-0.954-1.385-1.743-1.945-2.729-0.013c-0.771,1.51-1.94,2.816-2.07,4.627c-0.095,1.327-1.185,0.698-1.709,0.606
				c-1.129-0.197-0.396-0.719-0.047-1.147c0.521-0.635,0.568-1.201-0.324-1.556c0.354-0.402,1.229-0.532,0.908-1.282
				c-0.307-0.72-0.998-0.411-1.535-0.248c-1.351,0.411-2.919-0.267-3.271-1.012c-0.485-1.028,0.508-2.292,1.673-2.972
				c0.215-0.125,0.457-0.217,0.646-0.373c1.151-0.944,1.348-1.937,0.238-3.089c-0.767,0.561,0.624,1.392-0.514,1.834
				c-2.401,0.935-3.085,3.551-4.313,5.366c-1.399,2.071-2.977,3.474-5.045,1.84c-0.886-0.7-1.82-1.466-2.258-2.612
				c-0.206-0.541-0.543-1.374-1.165-0.921c-2.315,1.687-1.769-0.535-2.242-1.494c-0.611-1.241-1.059-2.806-2.762-2.898
				c-1.565-0.084-1.938,1.292-2.445,2.44c-0.23,0.527-0.559,1.028-0.919,1.48c-0.731,0.918-1.517,0.494-2.039-0.172
				c-0.938-1.198-1.142-1.245-1.765,0.111c-0.327,0.712-0.207,1.635-1.414,1.744c-1.877,0.17-3.365,1.247-4.899,2.479
				c1.604,1.421,3.327,2.495,5.313,1.237c1.368-0.868,2.466-1.534,4.256-1.282c1.371,0.193,2.536-0.113,3.09,1.611
				c0.536,1.67-0.313,2.422-1.871,2.915c0.479,0.349,0.739,0.653,0.854,0.606c2.482-1.034,3.851,0.79,5.433,2.076
				c0.119,0.098,0.314,0.101,0.473,0.156c0.842,0.297,1.635,0.27,2.344-0.337c0.759-0.649,0.554-1.23-0.029-1.91
				c-0.486-0.568-0.16-0.69,0.501-0.856c2.98-0.751,5.425-2.448,7.577-4.599c0.353-0.352,0.945-0.893,1.23-0.393
				C385.178,237.967,386.688,236.366,388.01,236.489z M224.509,234.509c-2.585-2.42-3.896-5.722-5.934-8.516
				c-0.582-0.798-1.333-2.652-2.548-1.492c-0.988,0.943,0.739,1.637,1.44,2.303c1.656,1.576,2.277,4.537,1.162,5.77
				c0.687,0.879,1.964-0.073,2.611,0.75c0.114,0.991-2.323,0.25-1.114,1.782c0.649,0.823,1.229,2.236,2.74,1.206
				c0.682-0.465,1.364-0.963,1.624-1.82c0.854,0.02,1.433,0.135,1.813,1.203c0.628,1.766,1.868,3.15,3.878,3.734
				c0.194-2.809-2.831-3.799-2.98-6.365c-0.048-0.826,0.242-1.736-0.117-2.575c-0.213-0.498,0.049-1.285-0.676-1.453
				c-0.681-0.158-0.97,0.468-1.282,0.954C224.22,231.401,224.132,232.922,224.509,234.509z M367.006,129.489
				c-1.081,1.874-1.479,3.764-0.832,5.961c0.453,1.534,0.737,2.497,2.525,0.769c-0.455,2.324-1.791,3.97-1.711,6.229
				c1.401-0.687,2.771-0.064,4.021-0.756c0.702-0.388,1.005-0.082,1.169,0.896c0.359,2.145,0.604,4.715,3.979,4.022
				c0.53-0.109,0.526,0.57,0.739,0.704c2.479,1.562,2.421,4.552,3.772,6.744c0.87,1.408,1.603,3.535-0.809,4.884
				c-0.93,0.52-1.689,1.604-1.081,2.772c0.756,1.449,0.416,2.721-0.166,4.052c-0.914,2.093,0.146,3.242,1.917,4.125
				c1.896,0.946,3.769,1.939,5.606,2.988c0.863,0.492,1.713,1.422,2.68,0.672c0.938-0.728,1.662-1.792,1.281-3.062
				c-1.209-0.628-0.676,2.033-1.751,0.798c-1.423-1.634-3.667-2.993-3.267-5.592c0.16-1.036-0.76-1.334-0.844-2.173
				c0.761-0.155,1.55-0.139,2.15-0.466c3.867-2.104,4.209-2.087,6.758,1.136c0.504,0.637,1.063,0.744,1.75,0.567
				c0.418-0.109,0.778-0.377,0.771-0.858c-0.013-0.76-0.717-0.809-1.204-1.08c-1.717-0.958-2.532-2.533-2.257-4.372
				c0.296-1.985,1.494-3.729,2.213-5.606c0.441-1.151,0.394-1.203-0.596-1.348c-1.32-0.194-2.834-0.312-3.68-1.316
				c-1.243-1.479-1.122-1.676-2.693-0.86c-1.604,0.833-2.556-0.031-3.29-1.195c-1.134-1.793,0.431-6.187,2.512-6.476
				c1.48-0.206,1.641-1.059,2.031-1.974c1.019-2.385,2.037-4.42,5.415-3.559c2.135,0.545,4,2.557,3.303,4.656
				c-0.785,2.368-2.021,4.455-4.66,5.098c-1.422,0.347-1.605,0.929-1.271,2.301c0.452,1.841,1.681,1.908,3.128,1.96
				c2.494,0.089,3.629-2.442,5.832-2.951c0.713-0.165,1.291-0.854,1.164-1.723c-0.121-0.837-0.958-0.778-1.537-1.051
				c-0.607-0.287-1.485-0.229-1.75-1.375c2.137,0.753,3.6,0.377,4.18-1.964c0.156-0.636,0.953-1.123,1.479-1.656
				c1.438-1.461,1.162-2.74-0.833-3.344c-1.271-0.384-2.601-0.564-4.122-0.883c0.913-0.418,1.773,0.15,2.382-0.734
				c-1.202-1.333-5.534,1.264-3.915-3.475c-1.964,0.792-3.062,0.743-4.652-0.763c-1.293-1.223-3.814-1.33-4.943-3.357
				c-0.066-0.118-0.764,0.082-1.15,0.184c-2.877,0.758-5.726-0.229-7.574-2.727c-0.486-0.658-0.92-1.024-1.822-0.971
				c-1.229,0.073-2.477-0.083-3.712-0.192c-1.387-0.122-2.302,0.237-2.245,1.858c0.021,0.597,0.338,1.477-0.823,1.365
				c-2.322-0.224-2.867,1.553-3.587,3.143L367.006,129.489z M236.001,328.494c0.557,0.35,1.079,0.779,1.675,1.038
				c8.111,3.52,12.627,10.306,16.141,17.924c1.572,3.41,4.464,5.497,7.134,7.812c0.94,0.814,2.184,0.638,2.37-0.93
				c0.854-7.141,3.203-14.18,1.552-21.498c-0.451-1.994,0.048-4.498-2.813-5.24c-0.306-0.08-0.632-0.605-0.701-0.975
				c-0.484-2.561-2.366-2.936-4.496-2.982c-1.43-0.028-2.805-0.326-4.133-0.861c-2.6-1.053-4.812-0.578-7.25,0.961
				c-2.974,1.875-5.85,4.144-9.49,4.771c0.457-0.554,0.913-1.104,1.475-1.785c-0.916-0.468-1.767-0.899-2.618-1.332
				c2.769,0.41,5.423,0.944,7.872-0.981c1.042-0.819,2.198-1.511,3.359-2.155c1.509-0.839,1.742-1.522,0.148-2.621
				c-2.259-1.557-4.637-3.065-6.509-5.028c-2.792-2.927-7.191-4.679-7.507-9.573c-0.019-0.291-0.333-0.579-1.126-0.411
				c0.961,1.986-0.862,2.354-1.966,3.213c-0.907,0.705-1.946,1.203-2.286,2.502c-0.281,1.073-1.231,1.218-2.236,1.026
				c-2.312-0.438-3.215-2.372-2.367-5.038c0.165-0.519,1.019-1.283,0.446-1.486c-1.85-0.653-0.965-2.266-1.445-3.364
				c-0.812-1.86,0.07-2.248,1.804-2.278c1.97-0.035,2.15,1.229,2.234,2.602c0.086,1.408,0.455,1.777,1.847,1.029
				c2.664-1.431,5.096-0.479,6.338,2.293c0.542,1.209,0.763,2.64,1.791,3.532c7.477,6.514,15.136,12.617,25.914,12.255
				c1.766-0.062,2.073-0.462,1.893-2.13c-0.502-4.586-1.698-8.936-3.432-13.213c-2.146-5.301-5.664-8.026-11.457-8.312
				c-1.003-0.049-1.827-0.217-1.785-1.52c0.034-1.041-0.545-1.974-1.503-2.021c-2.987-0.146-5.984-0.036-8.977-0.084
				c-1.513-0.021-1.31,1.104-1.504,2.009c-0.012,0.056-0.318,0.112-0.447,0.063c-1.622-0.626-1.318,0.552-1.396,1.438
				c-0.048,0.543,0.64,1.5-0.594,1.479c-0.696-0.015-1.443-0.082-1.781-1.037c-0.446-1.264-0.988-2.481-0.762-3.856
				c-6.655,0.817-12.96,2.978-19.681,1.293c-0.023,1.242,0.325,2.183,0.804,3.021c1.976,3.469,3.865,7.009,6.707,9.887
				c1.189,1.205,2.038,2.534,2.607,4.175c0.449,1.293,0.384,3.209,1.699,3.728c1.437,0.567,1.493,1.444,1.777,2.588
				c0.396,1.593,0.815,3.271,2.446,4.166c0.178,0.099,0.457,0.015,0.659,0.015c0.314-0.711-1.104-0.608-0.455-1.548
				c1.249,0.474,2.485,0.166,3.774-0.288c1.285-0.453,2.301,0.002,2.496,1.551c0.089,0.711,0.194,1.421,0.31,2.259
				c-0.747-0.104-1.67-0.841-2.024,0.123c-0.368,0.995,0.775,1.1,1.356,1.452C233.235,326.96,234.626,327.713,236.001,328.494z
				 M290.99,322.014c2.615,1.27,2.762,4.18,4.152,6.265c0.553,0.825,0.648,2.086,2.133,2.065c-0.699-2.061-0.434-3.705,0.807-4.521
				c1.604-1.058,3.547-0.81,4.602,0.383c1.662,1.877,2.856,1.226,4.405,0.147c0.841-0.584,1.702-1.041,1.784-2.203
				c0.034-0.485,0.354-0.896,0.806-0.65c2.567,1.378,4.686-1.129,7.138-0.788c0.52,0.072,1.171-0.212,1.277-0.948
				c0.102-0.682-0.194-1.089-0.855-1.304c-0.842-0.272-1.623-0.821-1.572-1.728c0.113-2.043-0.134-4.063-0.387-6.508
				c1.315,1.116,2.896,1.607,1.268,3.338c-0.433,0.461-0.094,1.08,0.52,1c1.78-0.231,2.672,1.021,3.787,1.996
				c2.903,2.539,4.864,2.899,7.157,1.438l-0.022,0.02c4.829-0.944,9.488-2.514,14.212-3.852c1.513-0.429,1.991-1.432,1.604-2.855
				c-0.604-2.246,0.244-4.776-1.499-6.828c1.639,0.567,2.188,1.744,2.241,3.229c0.043,1.248,0.007,2.501,0.104,3.744
				c0.059,0.756,0.223,1.646,1.359,1.085c2.791-1.373,5.566-2.779,8.439-4.218c-0.79-0.727-1.277-0.121-1.811-0.042
				c-1.379,0.204-5.764-3.771-5.037-4.425c2.195-1.979-0.43-2.779-0.648-4.112c-0.162-0.98-1.146-1.128-1.722-1.689
				c-1.12-1.098-0.604-2.307-0.198-3.489c0.31-0.904,1.036-1.348,1.924-1.314c1.318,0.047,1.342,1.268,1.744,2.141
				c0.252,0.551,0.097,1.393,1.129,1.554c0.188-0.315,0.385-0.666,0.602-1.003c1.536-2.395,3.512-3,6.254-2.303
				c2.639,0.672,5.119,1.986,8.122,1.096c1.872-0.557,3.271,0.796,3.601,2.896c0.075,0.485-0.33,1.219,0.516,1.448
				c2.322-2.621,2.911-13.025,0.871-15.271c-0.826,0.606,0.529,1.37-0.268,2.114c-1.228-1.666-3.559-2.444-4.063-4.541
				c-0.391-1.616,2.072-1.438,2.707-2.698c-1.061-0.522-1.717,0-2.312,0.588c-0.946,0.937-2.098,1.289-3.388,1.379
				c-2.391,0.17-2.82-0.313-1.713-2.472c0.975-1.891,0.08-2.097-1.471-2.225c-2.15-0.179-4.626,0.096-6.364-0.886
				c-4.353-2.452-8.688-1.483-13.091-0.869c-3.001,0.419-5.023,2.247-6.212,5.351c-0.161,0.42-0.472,0.375-0.802,0.322
				c-2.33-0.37-1.584,1.047-1.063,2.028c0.592,1.115,1.123,2.283,0.102,3.193c-1.563,1.389-4.082,1.434-5.154,3.661
				c-0.18,0.373-1.061-0.051-1.561-0.403c-0.41-0.289-0.604-1.129-1.703-0.437c1.668,2.013,1.053,3.987-0.35,5.883
				c-0.091,0.121-0.1,0.318-0.105,0.481c-0.055,1.156-0.937,2.365,0.58,3.363c1.471,0.967,2.216,0.028,3.223-0.74
				c1.963-1.504,4.054-1.064,4.921,1.117c0.501,1.262,0.978,2.418,2.001,3.356c0.75,0.688,0.766,1.62,0.289,2.533
				c-0.443,0.85-1.563,1.987-1.946,1.625c-1.7-1.615-3.957-0.908-5.77-1.778c-0.087-0.042-0.078-0.284-0.14-0.532
				c1.174-0.307,2.336-0.61,3.802-0.993c-1.35-1.228-2.725-1.433-3.969-1.199c-2.325,0.438-1.528,3.291-3.331,4.623
				c-0.016-2.553-2.445-3.287-3.394-5.021c-1.305-2.388-1.854-0.688-2.696,0.18c-0.438,0.454,0.137,1.426-0.699,1.592
				c-1.965-1.711-2.053-3.258-0.161-5.168c1.188-1.203,1.308-2.631-1.249-2.448c-1.223,0.087-1.424-0.929-1.391-1.927
				c0.012-0.316-0.01-0.679,0.416-0.782c0.699,0.171-0.004,1.21,0.76,1.247c1.052,0.072,0.457-2.123,1.892-1.348
				c1.472,0.799,2.479,0.268,3.075-0.99c0.626-1.324,0.172-2.521-0.898-3.596c-2.364-2.386-4.397-0.789-6.484,0.396
				c-1.367,0.776-3.372,1.296-3.91,2.472c-0.731,1.596,1.367,2.771,2.277,4.037c2.434,3.384,3.766,6.82,1.854,10.868
				c-0.904,1.916-2.14,3.588-3.738,4.952c0.66-2.027,0.66-2.027-0.201-4.707c-0.586-1.818,0.482-3.471,2.541-3.578
				c2.021-0.105,1.729-1.215,1.123-2.326c-0.871-1.602-1.879-3.134-2.927-4.627c-1.464-2.086-3.148-3.689-6.01-3.887
				c-4.559-0.313-8.2-2.268-10.455-6.539c-0.987-1.872-5.896-2.739-7.621-1.676c-0.569,0.352-0.719,0.9-0.77,1.486
				c-0.498,5.789-2.681,11.156-4.213,16.682c-1.437,5.173-2.123,10.414-2.162,15.771c-0.019,2.196,1.346,3.747,2.387,5.377
				c0.705,1.104,1.713-0.559,2.682-0.396c1.589,0.265,3.128,0.747,4.219,1.954c0.721,0.799,0.036,1.74-0.289,2.57
				c-0.396,1.006-1.293,1.498-2.188,1.95c-1.504,0.761-1.883-1.394-3.362-1.304c0.464,1.261-0.946,3.869,1.992,2.926
				c1.933-0.62,3.64-0.622,5.534-0.395c1.392,0.168,2.83,0.065,4.238-0.041c1.729-0.135,2.396-0.824,1.41-2.623
				c-1.193-2.183-2.152-4.491-3.213-6.746L290.99,322.014z M354.908,206.57c1.933,1.512,1.92,1.518,2.863,3.713
				c0.396,0.926,0.821,2.046,2.115,1.074c1.021-0.766,2.212-6.782,1.711-7.89c-0.188-0.42-1.246-0.074-0.829-0.85
				c0.22-0.406,0.891-0.429,1.387-0.258c0.556,0.191,0.741,0.671,0.641,1.204c-0.438,2.301,0.833,4.879-1.224,6.927
				c-1.588,1.583-1.054,4.657-3.978,5.456c-0.732,0.201-1.714,1.619-0.819,2.729c0.496,0.618,1.602,1.987,2.084,1.279
				c1.304-1.912,3.138-1.284,4.768-1.568c1.104-0.192,1.826-0.502,1.957-1.771c0.112-1.091,1.021-1.774,1.898-2.187
				c1.979-0.929,2.502-2.533,2.438-4.496c-0.05-1.555,0.354-2.941,1.285-4.209c0.979-1.333,0.978-2.975,1.224-4.522
				c0.095-0.576-0.002-1.307-0.773-1.327c-1.473-0.038-2.955-0.37-3.945-1.312c-1.253-1.191,0.094-2.743,0.035-4.147
				c-0.067-1.656-0.891-3.018-2.355-3.463c-1.578-0.48-1.461,1.357-2.146,2.151c-1.396,1.608-3.773,2.06-5.047,3.92
				c-0.033,0.049-0.459-0.118-0.664-0.247c-0.675-0.425-1.359-0.499-1.596,0.372c-0.236,0.891,0.643,0.967,1.223,1.261
				c1.549,0.786,3.473,0.743,5.1,2.169c-0.622,0.183-0.936,0.381-1.213,0.339c-1.313-0.197-2.622-0.444-3.926-0.701
				c-1.031-0.203-1.706,0.223-1.754,1.226c-0.066,1.379,0.721,0.442,1.268,0.455c0.705,0.017,0.875,1.144,0.689,1.318
				c-0.833,0.784-2.021,1.328-2.99,1.615c-1.004,0.297-0.261-0.781-0.129-1.332c0.121-0.5-0.543-0.506-0.647-0.366
				c-0.696,0.938-1.516,1.003-2.655,1.04c-0.68,0.022-0.529,1.735-0.738,2.691c-0.301,1.372-2.021-1.314-2.045,0.698
				c-0.02,1.375-0.633,0.799-1.506,0.855c-1.879,0.122-2.544-2.841-4.979-1.154c0.86-2.417,0.059-3.128-1.815-4.062
				c-1.207-0.601-2.346-1.378-3.734-1.609c-0.692-0.115-1.402-0.013-1.705,0.712c-0.377,0.904,0.42,1.126,1.001,1.408
				c1.327,0.644,2.418,1.475,2.688,3.051c0.09,0.52,0.357,1.06,0.895,1.083c1.819,0.083,2.334,1.588,3.295,2.704
				c1.345,1.558,2.615,3.59,5.303,1.766c0.627-0.425,2.162-0.896,2.818-0.17c1.365,1.507,2.846,2.007,4.66,1.038
				C350.045,211.081,355.979,208.773,354.908,206.57z M258.221,278.932c-0.193-0.938,1.525-0.826,0.995-1.684
				c-0.349-0.563-1.206-1.119-1.845-1.13c-1.205-0.021-1.549,1.229-1.773,2.104c-0.637,2.48-2.105,3.646-4.623,4.163
				c-1.698,0.353-2.977,1.808-3.253,3.696c-0.219,1.49-0.395,3.702,0.86,4.141c2.162,0.752,3.427,2.674,5.619,3.332
				c2.271,0.682,4.528,1.678,6.231,3.532c0.981,1.069,1.305,0.295,1.633-0.638c1.229-3.496,1.58-7.082,1.233-10.755
				c-0.101-1.074-0.438-1.938-1.64-2.21c-0.633-0.143-1.073-0.516-0.879-1.246c0.144-0.547,0.527-0.887,1.111-0.719
				c0.914,0.266,1.481,0.072,1.517-0.972c0.022-0.696,0.586-1.555-0.367-2.004c-0.792-0.373-1.654-1.003-2.554-0.282
				C259.798,278.816,259.268,279.732,258.221,278.932z M117.643,275.922c1.196,0.465,1.415,2.357,2.885,0.908
				c0.596-0.589,1.276,0.391,1.471,1.164c0.233,0.926,0.01,1.414-1.118,1.279c-1.461-0.172-1.408,0.871-1.172,1.81
				c0.224,0.89,0.987,0.618,1.652,0.606c3.922-0.063,3.867-0.043,4.242,3.854c0.114,1.189,0.809,1.973,2.264,1.465
				c1.145-0.398,1.721-1.285,2.172-2.268c0.663-1.444,1.297-2.828,2.761-3.73c1.369-0.844,0.371-1.953-0.417-1.781
				c-2.905,0.631-5.409-1.734-8.271-0.871c-0.619,0.188-0.94,0.027-1.219-0.752c-0.889-2.481-1.517-5.104-5.34-4.752
				c-1.585,0.146-2.198,0.319-2.538,1.771c-0.963,4.115-0.99,4.109-5.006,3.787c0.125,0.734,0.141,1.494,0.386,2.171
				c0.962,2.651,0.407,3.45-2.293,3.14c-0.525-0.061-1.006-0.029-1.377,0.365c-0.29,0.311-0.127,0.648,0.118,0.885
				c1.461,1.406,1.608,3.721,3.352,4.9c0.654,0.441,0.996,1.666,1.908,1.314c1.209-0.467,0.431-1.587,0.356-2.418
				c-0.353-3.885,1.139-5.469,4.96-5.244c0.458,0.025,0.956,0.359,1.312,0.004c-0.219-2.358-0.247-4.979-4.084-2.847
				C116.12,279.141,119.346,279.259,117.643,275.922z M296.992,256.137c0.977,0.654,1.597,1.066,2.214,1.484
				c1.442,0.979,1.851,2.273,1.216,3.906c-0.635,1.635-1.732,1.5-3.031,0.877c-0.255-0.121-0.668-0.06-0.953,0.057
				c-2.526,1.025-2.826-1.592-3.879-2.623c-1.033-1.014,0.506-1.773,1.323-2.408c0.386-0.299,0.964-0.545,0.591-1.146
				c-0.297-0.479-0.687-1.038-1.166-1.229c-0.549-0.217-0.789,0.48-1.045,0.881c-1.027,1.608-1.923,3.287-3.322,4.655
				c-1.906,1.864-1.762,2.454,0.367,3.993c0.834,0.604,1.58,0.666,2.211-0.035c0.953-1.061,2.17-0.615,3.275-0.75
				c0.631-0.076,1.18,0.285,1.25,0.963c0.082,0.787-0.449,1.283-1.15,1.395c-0.547,0.086-1.15-0.037-1.703-0.18
				c-1.457-0.375-2.107,0.093-1.821,1.623c0.09,0.479,0.479,1.062,0.073,1.42c-1.604,1.429-0.271,2.391,0.451,3.81
				c0.563-0.899,0.439-1.899,1.938-1.779c1.416,0.115,2.783-1.315,2.968-2.923c0.37-3.215,2.164-4.726,5.182-5.498
				c3.885-0.994,5.728-4.193,6.802-7.683c0.676-2.197,0.112-4.471-1.494-6.449c-1.211,1.243,0.781,2.527-0.719,3.616
				c-2.641,1.908-3.352,1.979-5.8-0.293c-0.427-0.396-0.856-0.789-1.244-1.221c-0.351-0.39-0.683-0.808-1.237-0.402
				c-0.593,0.431-0.606,1.023-0.103,1.492C300.316,253.662,299.262,254.973,296.992,256.137z M171.575,204.531
				c-0.132-1.327,0.017-2.537-0.712-3.686c-0.878-1.381-1.549-2.07-2.822-0.261c-1.521,2.164-3.301,4.146-4.971,6.205
				c-0.262,0.323-0.62,0.676-0.377,1.097c2.042,3.55,1.852,7.731,3.193,11.393c0.835,2.279,0.224,3.765-0.511,5.502
				c-0.662,1.563-1.071,3.052-0.348,4.654c1.199-0.083,0.594-1.377,1.416-1.649c0.179,0.145,0.447,0.258,0.541,0.454
				c1.447,3.016,3.114,0.188,4.553,0.007c1.439-0.181,0.478-1.545,0.263-2.453c-0.402-1.697-0.935-3.401-1.028-5.122
				c-0.082-1.527,0.131-2.915-1.696-3.61c-0.735-0.28-1.003-1.068-0.67-1.914c0.448-1.138,1.056-0.24,1.604-0.142
				c0.467,0.083,0.806-0.133,1.046-0.505c1.031-1.595-0.261-3.201-0.015-4.848c0.118-0.792-1.096-0.34-1.677-0.547
				c-1.267-0.453-2.324-1.157-2.24-2.632c0.078-1.38,1.27-1.901,2.395-2.202C170.08,204.119,170.763,204.412,171.575,204.531z
				 M106.968,262.061c-1.518-0.52-2.539-0.553-3.254,0.574c-0.708,1.115-1.279,2.334-2.088,3.367
				c-0.912,1.166-0.849,1.848,0.597,2.369c1.932,0.695,1.842,1.828,0.621,3.197c-0.607,0.682-1.062,1.504-1.694,2.156
				c-0.679,0.7-1.56,0.979-2.506,0.5c-0.687-0.349-1.217-1.587-2.075-0.843c-0.898,0.78,0.502,1.511,0.511,2.378
				c0.004,0.442,0.312,1.012,0.665,1.301c1.668,1.365,1.845,3.036,1.224,4.95c-0.195,0.604-0.67,1.382,0.067,1.813
				c0.734,0.428,1.632,0.225,2.396-0.157c0.484-0.241,0.577-0.771,0.69-1.268c0.964-4.233,0.966-4.235,5.312-4.983
				c1.053-0.183,2.012-0.446,1.831-1.838c-0.171-1.322,0.502-2.25,1.456-2.994c0.964-0.75,1.023-1.604,1.014-2.812
				c-0.019-2.371-0.413-5.024,2.242-6.631c-3.217-0.886-4.394,2.021-6.459,3.137c-0.956,0.52-1.795,1.478-2.86,0.502
				c-0.965-0.885-0.423-1.979-0.107-3.028C104.876,262.678,105.899,262.662,106.968,262.061z M235.716,270.152
				c-1.121,1.188-2.278,2.207-3.793,1.535c-1.367-0.607-1.86-1.82-1.203-3.334c0.182-0.418,0.05-0.843-0.5-0.914
				c-0.789-0.105-0.905-0.511-0.238-0.85c0.796-0.402,1.227-1.294,2.289-1.387c1.046-0.09,2.879,0.029,2.417-1.649
				c-0.518-1.886,0.356-4.581-2.448-5.45c-1.625-0.502-3.298-0.867-5.162-2.088c1.863-0.317,3.067,0.301,4.312,0.592
				c0.655,0.153,1.385,0.428,1.803-0.291c0.458-0.787,0.127-1.631-0.203-2.398c-0.348-0.809-0.971-0.504-1.662-0.49
				c-2.539,0.049-4.499,2.758-7.381,1.27c-0.045,1.777-0.104,3.18,1.64,4.013c0.961,0.46,1.161,1.334,0.269,2.237
				c-1.807,1.831-4.174,1.9-6.027,0.045c-1.102,1.38-2.028,2.764-1.598,4.922c0.427-0.375,0.685-0.561,0.891-0.79
				c1.458-1.637,3.093-1.19,4.792-0.467c1.649,0.702,1.506,1.886,1.118,3.308c-0.274,1.005,2.434,4.697,3.346,4.436
				c2.167-0.623,4.091,0.449,6.13,0.447C236.311,272.841,237.012,272.076,235.716,270.152z M339.377,223.373
				c-2.634,0.867-4.357,0.772-5.965-0.512c-1.501-1.199-2.596-0.596-3.307,0.626c-0.935,1.601-2.076,3.318-1.142,5.333
				c0.229,0.492,0.933,0.098,1.396,0.192c3.737,0.763,6.463-1.448,9.359-3.159c0.958-0.565,2.034-1.022,0.866-2.416
				c-0.808-0.964,0.47-1.618,0.673-2.434c0.203-0.824,0.847,0.197,1.295,0.37c0.771,0.296,1.287-0.068,1.75-0.58
				c0.477-0.525,0.309-1.085-0.034-1.603c-0.532-0.809-1.36-1.377-1.502-2.503c-0.101-0.81-0.827-0.851-1.569-0.498
				c-3.806,1.804-5.188,1.211-6.244-2.639c-0.107-0.392-0.053-0.896-0.551-1.019c-0.584-0.143-0.838,0.374-1.199,0.704
				c-1.842,1.683-2.241,3.974-2.676,6.247c-0.188,0.967,0.446,1.263,1.256,1.502C334.139,221.684,336.471,222.453,339.377,223.373z
				 M187.521,291.182c-0.671-0.104-1.559-0.274-2.454-0.375c-2.91-0.324-5.886,0.375-8.756-0.809
				c-1.977-0.813-3.66,0.641-3.307,2.738c0.224,1.334,0.193,2.578-1.041,3.312c-1.229,0.732-0.666,1.273-0.016,1.901
				c1.623,1.563,3.396,2.911,5.349,4.066c1.195,0.707,1.86,0.577,2.683-0.525C182.492,298.117,186.798,296.163,187.521,291.182z
				 M165.395,250.229c1.889,0.176,2.765,1.11,3.802,1.68c1.069,0.586,1.99,1.526,3.642,1.682c-1.203-2.014-2.889-3.251-3.379-5.293
				c-0.605-2.519-2.934-1.784-4.566-2.042c-1.592-0.252-1.909,1.4-2.249,2.521c-0.747,2.467,1.986,9.704,4.212,10.893
				c2.484,1.326,5.011,2.564,7.385,4.092c0.892,0.574,1.514,0.461,1.665-0.812c0.458-3.854,0.342-6.005-3.562-7.675
				C169.918,254.236,167.6,252.736,165.395,250.229z M158.97,297.832c-0.826,2.036-4.378,0.955-4.184,4.011
				c0.037,0.572-1.095,1.206-2.063,0.679c-0.561-0.307-1.11-0.869-1.804-0.313c-0.373,0.298-0.358,0.737-0.177,1.141
				c0.374,0.826,1.15,0.688,1.873,0.877c2.259,0.592,4.867,0.016,6.748,1.906c2.272,2.287,5.705,2.053,8.244,3.783
				c0.337,0.229,1.058,0.189,1.458-0.01c2.516-1.264,5.072-2.477,7.448-3.973c1.413-0.889,1.358-2.098-0.222-3.104
				c-2.558-1.634-7.237-1.093-9.502,1.221c-0.812,0.828-2.021,1.559-2.871,1.049c-1.416-0.852-2.898-0.773-4.436-0.885
				c0.188-1.297,1.639-0.945,2.022-2C159.466,301.518,159.251,299.773,158.97,297.832z M294.404,285.244
				c1.277,4.466,7.697,8.125,11.708,6.41c4.176-1.784,8.261-4.021,9.453-9.098c0.181-0.771,0.327-1.533-0.169-2.125
				c-0.457-0.541-1.09-0.016-1.628,0.112c-1.084,0.26-3.188,3.592-2.993,4.673c0.105,0.592,0.835,1.32-0.022,1.733
				c-0.646,0.312-1.519,0.18-2.159-0.245c-0.807-0.536-0.502-1.301-0.205-2.014c0.333-0.803,1.279-1.678,0.334-2.449
				c-0.742-0.609-1.742-0.029-2.593,0.281C302.348,283.918,298.923,286.701,294.404,285.244z M248.598,216.737
				c1.512-0.612,2.287-2.308,4.132-2.047c2.69,0.378,5.11-2.464,4.516-5.091c-0.643-2.826-3.514-5.632-6.42-6.033
				c-2.378-0.328-4.786-0.535-7.186-0.595c-3.014-0.075-6.658,2.862-7.17,5.773c-0.167,0.952-0.97,2.396-0.146,2.851
				c0.963,0.533,2.426,0.277,3.656,0.174c0.997-0.084,1.058-1.139,1.465-1.84c1.184-2.04,1.737-4.938,4.711-4.967
				c1.514-0.015,3.028-0.379,4.621-0.102c1.021,0.178,2.154-0.155,2.097,1.198c-0.028,0.647,2.062,2.501-0.806,2.221
				c-0.107-0.011-0.256,0.391-0.389,0.599C250.183,211.229,249.278,213.813,248.598,216.737z M299.782,216.346
				c2.485-0.705,5.522,0.479,6.838-2.858c0.331-0.842,1.623-0.997,2.702-0.615c0.691,0.246,1.455,0.461,2.178,0.437
				c1.406-0.046,2.559-0.76,3.242-1.978c0.445-0.793,0.188-1.71-0.523-2.255c-1.56-1.195-1.779-2.691-1.242-4.435
				c0.271-0.873,0.117-1.626-0.938-1.498c-2.219,0.271-5.065,0.352-6.063,2.295c-1.545,3.005-3.914,5.338-5.543,8.208
				C299.998,214.409,299.378,215.177,299.782,216.346z M212.763,281.966c1.614,0.005,3.063-0.681,4.542-1.222
				c0.336-0.123,0.687-0.51,0.808-0.852c0.273-0.773-2.288-5.732-3.078-6.064c-2.3-0.967-4.683-1.758-6.7-3.301
				c-0.506-0.387-1.256-0.691-1.23,0.258c0.051,1.906-1.092,3.063-2.213,4.295c-0.811,0.889-0.538,1.676-0.034,2.697
				C206.51,281.129,209.475,281.798,212.763,281.966z M302,279.535c-0.918-1.567-1.492-2.563-2.082-3.551
				c-0.656-1.102-2.102-1.309-2.291-0.327c-0.432,2.226-1.225,4.536-0.445,6.878c0.17,0.51,0.436,0.914,1.049,0.865
				c0.416-0.034,1.135-0.28,0.996-0.508c-0.689-1.142,0.229-1.029,0.729-0.918c1.041,0.23,1.697,0.139,2.129-1.02
				c0.341-0.915,1.439-0.938,2.18-0.803c3.748,0.693,6.962-1.057,10.328-2.102c1.338-0.416,1.363-1.307,1.002-2.562
				c-0.367-1.278-0.848-1.83-2.247-1.607c-2.3,0.363-4.614,0.675-6.938,0.82C302.076,274.98,302.072,274.924,302,279.535z
				 M175.114,105.541c0.503,0.694,1.892,0.091,1.538,1.625c-0.415,1.798-0.927,0.066-1.362,0.163
				c-0.66,0.147-0.716,0.657-0.749,1.135c-0.107,1.584-1.121,2.61-2.479,2.703c-1.463,0.101-1.263-1.542-1.484-2.48
				c-0.276-1.174-0.995-1.611-1.952-1.411c-1.71,0.358-2.06,2.066-2.708,3.346c-0.458,0.904,0.573,0.881,1.153,1.148
				c1.139,0.522,2.553,0.751,2.033,2.766c-0.263,1.018,0.846,0.611,1.411,0.379c1.11-0.457,1.792-1.668,3.062-1.938
				c0.578,1.57-1.779,1.228-1.408,2.662c1.729,0.206,3.521,0.223,5.172,1.076c0.405-1.648-0.022-3.311,1.356-4.529
				c-1.372-0.401-1.85,1.435-3.526,0.629c1.404-0.785,2.305-1.768,2.844-3.051c0.201-0.48,0.789-0.589,1.314-0.499
				c1.351,0.231,3.001-0.068,3.031-1.349c0.039-1.655-1.975-0.201-2.953-1.134c1.368-0.817,2.676-1.622,4.01-2.383
				c0.697-0.398,0.704-0.908,0.259-1.427c-0.462-0.539-0.502-1.515-1.433-1.554c-0.238-0.01-0.729,0.498-0.704,0.544
				c1.375,2.46-1.134,1.55-1.861,2.169C178.396,105.223,176.532,104.322,175.114,105.541z M176.393,311.334
				c1.337,0.277,2.133,0.507,2.945,0.602c4.463,0.521,8.795-0.225,13.003-1.621c2.437-0.811,4.786-1.409,7.277-0.332
				c0.369,0.16,0.865,0.675,1.291-0.12c-1.65-2.145-4.11-3.63-5.191-6.278c-0.384-0.939-1.092-0.398-1.631,0.021
				c-1.38,1.082-2.831,1.996-4.506,2.615C185.372,307.779,181.207,309.458,176.393,311.334z M249.075,106.359
				c1.217,0.661,2.192,0.053,2.62-1.327c0.356-1.152,0.848-2.446-0.055-3.56c-1.188-1.469-1.75-3.171-2.178-4.956
				c-0.205-0.858-0.647-1.773-1.618-1.534c-1.652,0.406-3.422,0.834-4.783,1.774c-1.14,0.787-2.058,2.219-1.771,3.88
				C241.654,102.73,246.683,106.521,249.075,106.359z M227.518,190.166c-0.245-0.942,1.616-1.456,0.177-2.179
				c-1.435-0.721-2.378-3.152-4.326-1.944c-1.522,0.944-2.664,1.909-4.425,0.682c-0.807-0.562-1.144,0.261-1.518,0.79
				c-0.375,0.53-0.586,1.109,0.134,1.467c1.499,0.745,2.09,2.458,3.813,3.658c-0.358-1.197-0.577-1.927-0.795-2.657
				c1.177,1.209,2.478,1.412,4.526,0.625c-3.146,2.522-3.143,2.517-0.276,4.201c1.077,0.633,2.118,1.327,3.205,1.94
				c1.666,0.939,3.358,1.833,5.364,2.922c-0.297-2.406-1.883-2.452-3.151-2.764c-1.967-0.484-2.82-1.313-1.499-3.276
				c0.553-0.822,0.945-1.75,1.438-2.613c0.605-1.059,0.015-1.405-0.893-1.38C228.744,189.652,228.203,189.951,227.518,190.166z
				 M186.468,207.38c-0.204-0.902-0.91-1.409-1.388-2.069c-0.536-0.74-1.171-1.448-1.521-2.273c-0.45-1.061-0.785-1.255-1.956-0.726
				c-1.599,0.723-4.165-0.443-4.254-1.609c-0.359-4.668-0.455-4.785-5.147-6.105c-0.194,2.617,0.476,5.121,0.727,7.654
				c0.061,0.615,0.345,1.552,1.231,1.159c3.17-1.406,3.422,0.813,3.771,2.918c0.551,0.149,0.69-0.938,1.285-0.579
				c0.108,0.982-0.976,1.335-0.673,2.388c1.156-0.356,2.53-1.171,3.515-0.447C183.771,208.951,185.028,208.037,186.468,207.38z
				 M246.587,217.138c0.027,2.393-0.012,2.215-1.995,2.648c-1.052,0.23-2.772,0.19-2.446,2.34c0.335,2.214,1.562,1.195,2.566,0.897
				c0.79-0.235,1.445-0.485,1.756,0.593c0.295,1.024,0.534,2.037-0.855,2.403c-0.776,0.205-1.326,0.398-0.691,1.29
				c0.397,0.558,0.827,1.212,1.557,0.45c0.699-0.729,1.403-0.425,2.248-0.381c1.272,0.066,2.703,1.396,3.923-0.248
				c0.203-0.274,0.802-0.119,1.084,0.276c0.271,0.376,0.298,0.843,0.013,1.157c-0.449,0.497-1.008,0.893-1.515,1.327
				c1.025,0.179,1.998,0.374,2.979,0.507c0.469,0.064,1.244,0.165,1.191-0.474c-0.117-1.392-0.873-2.711-0.221-4.195
				c0.115-0.268-0.625-0.209-1.033-0.172c-2.695,0.25-3.576-0.54-3.543-3.294c0.01-0.815-0.062-1.312-0.853-1.821
				C249.379,219.558,248.169,218.416,246.587,217.138z M130.114,268.323c0.625,3.079,2.268,1.597,3.709,0.991
				c0.425-0.182,1.071-0.264,1.096-0.861c0.024-0.588-0.583-0.73-1-0.967c-1.729-0.982-3.574-1.803-5.172-2.963
				c-3.643-2.646-7.606-2.496-11.38-1.901c1.465,2.86,5.364,2.938,6.792,6.346c0.56,1.334,2.868,2.321,4.71,2.253
				C130.454,271.16,129.223,269.367,130.114,268.323z M352.816,314.242c2.647-0.693,4.893,0.475,7.262,1.139
				c1.398,0.393,2.457,1.332,3.818,1.766c1.285,0.41,2.054,0.263,2.58-0.975c0.581-1.354,1.484-2.357,2.925-2.877
				c0.864-0.313,2.517-0.45,1.95-1.676c-0.66-1.434-0.516-3.795-3.051-3.887c-0.676-0.023-1.238,0.131-1.398,0.752
				c-0.938,3.613-3.834,3.459-6.545,3.263C357.45,311.536,355.217,312.934,352.816,314.242z M336.326,230.541
				c4.936,2.462,9.393,0.174,14.143-1.159c2.868-0.804,4.488-2.484,6.235-4.397c0.328-0.359,1.139-0.805,0.351-1.375
				c-0.581-0.42-1.569-0.896-2.039-0.177c-1.703,2.617-5.068,2.236-7.169,4.173c-0.835,0.771-2.491,0.784-3.264-0.089
				c-1.649-1.868-2.949-0.718-4.297,0.16C338.842,228.617,337.486,229.694,336.326,230.541z M232.903,234.083
				c-0.055-0.998,0.003-1.396,0.215-1.367c3.354,0.451,4.964-1.061,5.06-4.368c0.001-0.032,0.309-0.048,0.47-0.084
				c1.946-0.442,1.195-1.861,1.04-3.004c-0.235-1.727-1.349-0.536-2.095-0.576c-0.571-0.03-1.194,0.038-1.698-0.169
				c-0.902-0.371-1.644-0.662-2.438,0.26c-0.755,0.876-0.953,1.684-0.342,2.704c0.493,0.825,0.264,1.615-0.367,2.281
				c-0.627,0.662-1.318,1.265-1.931,1.939c-1.467,1.615-0.397,3.129,0.323,4.574c0.299,0.599,1.033,1.633,1.667,1.084
				C233.783,236.513,232.827,235.196,232.903,234.083z M386.688,225.224c-1.514,0.98-1.921,0.285-2.616-0.225
				c-1.544-1.129-3.558-1.931-5.253-0.771c-1.244,0.851-2.119,1.263-3.543,0.686c-0.869-0.352-1.675,0.181-1.815,1.164
				c-0.142,0.971,0.55,1.387,1.396,1.271c2.06-0.281,2.731,0.873,3.188,2.615c0.412,1.575,1.865,2.319,3.293,2.586
				c1.471,0.275,1.911-1.199,2.215-2.218C384.066,228.602,385.334,227.415,386.688,225.224z M210.762,291.723
				c4.727,1.487,8.837-0.422,12.973-1.096c0.607-0.098,0.754-3.275,0.988-5.046c0.025-0.19-0.77-0.587-1.232-0.726
				c-2.538-0.759-4.922-0.106-7.253,0.895c-0.906,0.391-0.682,0.945-0.256,1.587c1.068,1.608,0.035,2.638-1.078,3.591
				C213.851,291.831,212.512,291.406,210.762,291.723z M87.771,311.852c-2.246-0.258-2.399-0.342-4.023-2.15
				c-0.272-0.305-4.329-1.235-4.686-1.089c-0.566,0.232-0.675,0.72-0.611,1.229c0.247,1.976,0.412,3.97,0.84,5.903
				c0.276,1.252,1.18,2.048,2.619,1.434c1.141-0.484,2.956,0.647,3.45-1.605c0.119-0.545,0.928,0.186,1.156,0.723
				c0.199,0.471,0.36,1.036,1.015,0.705c0.697-0.354,0.578-0.946,0.18-1.471C86.781,314.301,87.013,313.076,87.771,311.852z
				 M95.357,272.366c0.636-0.118,1.42,0.03,1.778-0.669c0.428-0.834-0.051-1.377-0.743-1.853c-1.151-0.791-1.496-2.041-1.382-3.305
				c0.236-2.617-1.16-3.965-3.374-4.784c-0.918-0.339-1.881-1.054-2.836-0.428c-1.136,0.743-0.009,1.607,0.077,2.433
				c0.058,0.554-0.233,1.145-0.174,1.695c0.101,0.948-0.053,1.979,1.032,2.636c1.352,0.816,2.503,1.889,3.455,3.188
				C93.683,271.949,94.458,272.352,95.357,272.366z M199.781,98.044c0.792-3.48,1.485-6.441,5.843-5.42
				c1.098,0.258,1-1.467,1.243-2.367c0.123-0.455-0.135-1.372-0.515-1.066c-1.379,1.11-4.621-3.733-4.576,1.443
				c0,0.044-0.126,0.092-0.196,0.134c-1.996,1.208-4.291,0.491-5.431-1.66c-0.303-0.572-0.072-1.57-1.776-1.622
				c1.694,1.985,1.054,3.86,0.502,5.768c-0.41,1.418,0.759,2.164,1.713,2.283C198.024,95.716,198.685,96.644,199.781,98.044z
				 M161.426,272.928c2.066-0.082,1.916-0.937,1.196-2.382c-2.681-5.378-2.628-5.405-8.568-4.493
				c-0.164,0.025-0.328,0.078-0.492,0.074c-2.218-0.041-2.586,2.035-2.458,3.168c0.14,1.244,1.386,2.628,3.112,2.745
				c0.314,0.021,1.033,0.117,0.889-0.495c-0.583-2.475,2.208-2.639,2.582-4.537c1.39,1.411,2.046,2.736,1.223,4.275
				c-0.412,0.771-0.051,0.914,0.413,1.354c1.296,1.23,2.733,1.484,4.648,0.989C162.997,273.494,162.208,273.775,161.426,272.928z
				 M226.672,178.103c-0.728,0.076-2.024,0.265-1.663,1.576c0.665,2.417,0.359,5.468,3.614,6.52
				c0.687,0.222,1.242,0.834,1.924,1.097c0.336,0.129,0.521,1.458,1.193,0.236c0.295-0.538,1.535-0.545,0.858-1.635
				c-0.342-0.551-0.601-1.187,0.509-0.958c0.502,0.104,0.989,0.365,1.189-0.345c0.17-0.604,0.027-1.194-0.505-1.549
				c-1.668-1.111-2.887-2.692-4.328-4.04C228.774,178.359,227.934,178.035,226.672,178.103z M205.96,254.877
				c0.059,1.234-0.407,1.964-1.392,2.633c-2.314,1.574-2.112,6.033,0.255,7.414c0.235,0.137,0.683,0.151,0.912,0.018
				c1.135-0.661,2.424-0.596,3.64-0.783c1.681-0.264,1.735-0.996,1.206-2.402C209.603,259.156,208.089,256.947,205.96,254.877z
				 M316.541,270.223c1.219,2.258,1.613,2.277,3.003,0.426c0.235-0.312,0.586-0.549,0.786-0.301
				c1.948,2.407,2.479-0.354,3.471-1.016c0.73-0.488,1.902-1.291,0.909-2.402c-0.767-0.858-0.872-1.58-0.669-2.669
				c0.285-1.515-0.354-1.819-1.83-1.171c-2.789,1.227-4.139,4.521-7.396,5.02c-0.063,0.01-0.081,0.287-0.106,0.387
				c3.402,0.766,5.279-1.389,6.883-4.318c0.893,4.395-1.929,4.652-4.441,5.215c-0.402,0.09-0.828,0.116-1.205,0.27
				c-1.186,0.475-2.297,1.07-2.542,2.488c-0.065,0.381,0.282,0.563,0.646,0.578C315.516,272.783,315.922,271.602,316.541,270.223z
				 M244.685,285.471c0.704-1.004,1.611-1.959,0.337-3.217c-0.624-0.617-1.168-1.386-0.18-2.08c0.836-0.588,1.844-1.56,2.85-0.46
				c1.168,1.277,1.463,0.196,1.527-0.552c0.17-2.008,1.76-4.242-1.541-5.674c-1.321-0.572-2.145-1.537-3.539-0.603
				c0.045,1.103,1.194,0.282,1.517,1.023c-1.394,0.835-2.772,1.66-4.132,2.477c0.895,1.564,2.128-0.19,2.787,0.442
				C244.055,279.855,240.676,282.613,244.685,285.471z M91.564,319.766c2.408,1.479,4.717,3.104,7.037-0.031
				c-3.742-1.314-7.581-0.523-11.362-0.644c-0.746-0.022-1.193,0.584-1.572,1.103c-0.329,0.447,0.167,0.748,0.476,0.994
				c3.802,3.025,8.039,4.218,12.914,2.953C95.26,324.889,93.751,321.875,91.564,319.766z M240.791,286.082
				c-0.125-3.438-3.318-4.678-4.786-7.098c-0.558-0.922-2.327-1.004-3.378,0.521c-0.602,0.873-0.826,1.979-1.759,2.659
				c-1.398,1.019-0.48,1.471,0.545,1.68C234.504,284.473,237.439,285.729,240.791,286.082z M301.33,184.746
				c0.055-1.263-0.328-1.986-1.03-2.501c-0.321-0.236-0.646,0.055-0.788,0.356c-1.121,2.398-3.363,3.592-5.359,5.064
				c-0.977,0.721-1.143,1.569-0.176,2.49c0.66,0.63,1.269,1.315,1.908,1.967c0.723,0.731,1.416,0.735,2.123-0.056
				C299.969,189.871,300.55,187.084,301.33,184.746z M175.763,214.692c-1.158-1.032-2.479-2.018-3.003,0.039
				c-1.283,5.026,0.126,9.81,1.95,14.48c0.181,0.464,0.468,0.953,1.086,0.761c0.573-0.179,0.611-0.726,0.609-1.233
				c-0.003-0.628-0.36-1.068-0.794-1.484c-0.879-0.842-1.34-1.228,0.23-2.269c2.585-1.714,1.905-4.982-0.957-6.094
				c-0.835-0.324-1.738-0.95-1.34-1.753C173.999,216.22,173.497,214.25,175.763,214.692z M296.928,213.74c-0.033,0-0.066,0-0.1,0
				c0-0.498-0.044-1,0.008-1.492c0.193-1.855-0.693-2.171-2.23-1.611c-0.467,0.17-0.963,0.278-1.404,0.498
				c-1.738,0.862-3.356,5.809-2.055,6.463c1.268,0.635,2.936,1,4.295,0.758c1.3-0.23,1.435-1.851,1.484-3.124
				C296.945,214.736,296.928,214.238,296.928,213.74z M362.348,161.264c-0.997-0.203-1.809-0.114-2.563,0.312
				c-0.292,0.165-0.637,0.661-0.399,0.73c2.343,0.687,0.249,1.195-0.112,1.463c-1.574,1.162-0.49,2.267,0.3,2.83
				c1.019,0.726,1.611,1.416,1.761,2.666c0.072,0.601,0.553,1.299,1.324,1.298c0.789-0.001,0.898-0.815,1.304-1.312
				c1.743-2.144,0.521-4.346,0.239-6.52C364.055,161.623,363.896,160.347,362.348,161.264z M269.643,266.295
				c-1.479,0.918-2.804,2.003-4.58,0.781c-0.238-0.165-0.568-0.18-0.605,0.063c-0.238,1.594-1.805,2.415-2.24,3.762
				c-0.283,0.88,1.236,1.099,1.82,1.764c0.409,0.465,0.7,0.859,0.568,1.523c-0.299,1.519,1.029,1.207,1.774,1.448
				c1.13,0.365,1.363-0.395,1.565-1.319C268.523,271.671,268.602,268.916,269.643,266.295z M80.06,235.34
				c1.351,0.068,2.006-0.069,2.202,0.776c0.334,1.438,1.726,1.865,2.815,2.581c1.631,1.071,2.002,0.144,2.159-1.257
				c0.056-0.495-0.792-0.989,0.077-1.497c1.572-0.919,1.66-3.573,0.191-4.58c-1.226-0.84-3.679-0.497-3.819,0.71
				C83.472,233.918,82.248,234.5,80.06,235.34z M308.732,240.153c-0.109,1.341,0.093,1.729,0.963,1.375
				c3.271-1.333,6.805-1.49,10.154-2.432c0.444-0.125,1.109-0.227,0.957-0.902c-0.113-0.516-0.722-0.908-1.152-0.706
				c-1.15,0.538-1.703,0.113-2.432-0.808c-0.814-1.034-1.729-1.051-2.44,0.416c-0.591,1.215-1.602,1.465-2.495,0.169
				c-0.456-0.661-0.623-1.685-1.728-1.475c-1.146,0.218-1.077,1.376-1.396,2.175C308.896,238.646,308.867,239.42,308.732,240.153z
				 M184.651,263.131c0.978-2.016,1.676-3.646,0.859-5.689c-0.321-0.801-2.25-1.723,0.126-3.082
				c1.398-0.801-1.002-5.294-3.099-5.906c-0.474-0.138-1.002-0.367-1.425-0.025c-0.592,0.479-0.22,1.099,0.01,1.588
				c1.212,2.577,1.797,5.265,2.07,8.112C183.338,259.656,183.151,261.457,184.651,263.131z M320.564,254.98
				c1.338-0.834,1.801-1.732,1.901-2.881c0.039-0.436,0.093-1.226,0.806-0.791c2.018,1.228,1.982-0.44,2.084-1.52
				c0.238-2.553-0.061-5.137,0.396-7.688c0.11-0.615-0.102-1.258-0.829-1.281c-0.888-0.028-0.688,0.686-0.683,1.265
				c0.018,1.675,0.146,3.549-2.159,3.772c-2.325,0.225-1.968,1.605-1.371,2.944c0.435,0.976,1.341,1.799,0.522,2.924
				C320.582,252.619,320.869,253.637,320.564,254.98z M314.653,259.684c1.877-1.088,1.502-2.996,1.989-4.514
				c0.246-0.766,0.879-2.391-0.103-2.281c-1.493,0.168-2.809-2.104-4.508,0.012c-1.102,1.367-0.163,3.301-1.839,4.345
				c-0.619,0.386-0.991,1.532,0.145,2.024c0.797,0.348,1.77,0.66,2.436-0.416c0.312-0.504,0.225-1.582,1.176-1.279
				C314.867,257.861,313.98,258.975,314.653,259.684z M279.117,272.116c0.426-0.878,0.697-1.798,1.477-2.419
				c1.6-1.273,2.01-2.955,1.566-4.885c-0.09-0.392-0.426-0.973,0.088-1.055c2.438-0.385,2.398-2.961,3.848-4.199
				c0.364-0.313,0.773-0.938,0.285-1.289c-0.92-0.664-1.943-1.244-3.01-1.621c-0.455-0.159-0.646,0.614-0.788,1.09
				c-0.8,2.699-1.624,5.391-2.399,8.098C279.602,267.869,278.85,269.88,279.117,272.116z M229.625,208.142
				c0.558,0.864-0.253,2.062,1.26,2.308c1.018,0.166,2.068,1.49,2.794-0.291c0.817-2.002,2.963-3.779,1.413-6.237
				c-0.449-0.711-1.422-1.103-2.182-1.6c-0.419-0.274-1.238-0.465-1.215,0.101C231.788,204.667,230.32,206.339,229.625,208.142z
				 M271.141,148.944c-2.676,0.558-2.498,3.479-4.174,4.977c-0.695,0.622,0.555,2.084,1.242,3c0.396,0.527,1.049,0.483,1.598,0.194
				c1.072-0.565,1.15-1.532,0.926-2.579c-0.144-0.662-0.358-1.47,0.115-1.923c2.079-1.984,1.963-4.097,0.619-6.376
				c-0.074-0.127-0.029-0.326-0.04-0.492c-0.046-0.767-0.053-1.646-1.18-1.42c-1.05,0.21-1.132,1.023-0.992,1.947
				C269.432,147.446,270.682,147.836,271.141,148.944z M187.382,254.568c0.66,2.783,1.063,5.148,1.796,7.41
				c1.031,3.178,1.785,3.463,5.241,2.486c-0.951-1.202-1.846-2.355-0.322-3.814c0.562-0.537-0.025-1.309-0.746-1.49
				C190.891,258.529,189.411,256.617,187.382,254.568z M267.367,223.455c-2.752-2.112-4.902-4.541-6.098-7.749
				c-0.16-0.429-0.383-1.293-0.797-1.121c-2.035,0.849-2.072-0.764-2.414-2.512c-1.851,3.529,2.823,4.665,1.76,7.493
				c-1.348-0.62-0.986-2.621-2.039-2.938c-1.984-0.599-1.184,1.804-2.807,2.516C259.793,219.901,263.52,221.792,267.367,223.455z
				 M323.355,213.311c2.297,0.226,3.44-1.54,4.934-2.651c0.305-0.228,0.158-0.553-0.032-0.877c-1.646-2.806-4.387-3.134-6.424-0.669
				c-0.808,0.978-2.379,1.917-1.828,3.261C320.51,213.606,322.297,212.826,323.355,213.311z M332.512,211.666
				c-4.229-0.298-6.291,4.416-11.101,3.306c1.331,1.522,1.994,2.979,2.833,3.087c1.482,0.192,3.053-0.197,4.544,0.456
				c0.103,0.044,0.594-0.394,0.611-0.629C329.576,215.504,331.564,214.043,332.512,211.666z M278.238,158.998
				c0.527-1.941-1.877-1.936-2.283-3.359c-0.071-0.25-1.092,0.93-1.438,1.627c-0.396,0.793-1,0.986-1.813,1.006
				c-0.686,0.017-1.383,0.335-1.615,0.975c-0.318,0.88,0.624,1.021,1.111,1.37c1.543,1.105,3.117,2.169,4.682,3.246
				c0.432,0.296,0.993,1.033,1.324,0.114c0.244-0.675,0.479-2.146-0.256-2.163c-2.186-0.052-0.852-0.98-0.416-1.415
				C277.973,159.961,278.346,159.619,278.238,158.998z M249.611,244.027c-0.044-2.569-0.47-4.837-0.994-7.079
				c-0.156-0.666-0.374-1.931-1.066-1.765c-2.259,0.541-2.118-1.614-3.047-2.589c-1.214,2.41-3.253,4.334-2.91,7.204
				c0.826,0.138,0.948-0.475,1.244-0.819c0.964-1.123,2.173-2.181,3.618-1.65c1.668,0.613,0.938,2.239,0.712,3.482
				C246.845,242.596,247.794,243.403,249.611,244.027z M108.429,298.234c-3.444-0.688-6.693-1.447-9.491,1.52
				c-1.027,1.089-1.407,2.182-0.754,3.594c0.264,0.571,0.136,1.447,1.117,1.354c1.361-0.135,2.316-0.83,2.762-2.174
				c0.751-2.26,2.47-3.219,4.708-3.508C107.294,298.951,107.962,299.195,108.429,298.234z M316.254,261.037
				c-2.23-0.064-5.915,3.859-5.699,6c0.133,1.316,0.904,1.252,1.736,0.758c1.738-1.037,3.455-2.113,5.131-3.247
				c0.646-0.437,1.625-0.933,1.09-1.937C318.061,261.766,317.443,260.867,316.254,261.037z M286.781,194.698
				c0.15-1.103-0.65-1.83-1.059-2.715c-0.533-1.161-1.434-1.313-2.467-0.84c-0.995,0.457-1.592,1.236-1.188,2.396
				c0.74,2.131,1.055,4.338,1.23,6.568c0.049,0.595,0.186,0.933,0.834,0.93c0.611-0.002,1.262-0.02,1.281-0.809
				C285.468,198.278,286.359,196.55,286.781,194.698z M288.188,245.194c-0.418,2.021-1.217,3.476-1.936,3.838
				c-2.049,1.032-2.965,3.661-1.967,5.627c0.49,0.966,1.295,1.562,2.346,1.585c1.26,0.027,1.363-1.117,1.467-1.959
				C288.443,251.451,289.219,248.612,288.188,245.194z M317.551,220.442c-0.421,2.975,0.088,4.554,2.908,4.114
				c-0.646-1.578-0.898-3.031,1.355-3.491c0.91-0.186,1.171-0.918,0.982-1.717c-0.205-0.881-0.482-1.966-1.369-2.24
				c-1.162-0.359-0.803,0.936-1.103,1.485c-0.495,0.906-1.253,1.611-2.173,1.18c-2.024-0.949-3.26,1.196-5.057,1.08
				c-0.479-0.031-0.729,0.596-0.131,1.067C314.094,222.801,316.258,222.364,317.551,220.442z M249.808,201.091
				c-2.373-0.855-3.803-3.518-6.193-0.948c-0.404,0.435-1.252,0.083-1.552-0.38c-2.325-3.593-3.631-1.637-4.875,0.84
				c-0.036,0.072-0.136,0.12-0.153,0.192c-0.165,0.688-1.79,0.438-1.133,1.494c0.476,0.766,1.383,1.113,2.406,0.612
				c3.186-1.561,6.504-2.302,10.055-1.507C248.626,201.454,248.94,201.283,249.808,201.091z M119.125,247.214
				c1.98-0.766,4.055-0.848,4.813-3.404c0.216-0.728,0.796-1.173-0.012-1.788c-0.445-0.338-0.8-1.476-1.489-0.48
				c-0.648,0.938-2.671,0.708-2.293,1.977c0.266,0.895,0.426,0.658-0.434,1.005c-2.015,0.812-2.927,3.539-1.963,5.207
				c0.292,0.504,0.634,1.092,1.287,1.046c0.691-0.049,1.439-0.624,1.266-1.218c-0.405-1.395,0.48-0.585,0.853-0.601
				c0.503-0.021,1.165,0.487,1.421-0.607C121.418,247.97,120.271,247.592,119.125,247.214z M342.625,174.133
				c1.211-1.779,3.229-1.659,3.832-3.075c0.686-1.61,1.334-1.392,2.525-0.172c-0.667-1.92,0.448-2.523,1.568-3.151
				c1.172-0.656,2.162-1.461,2.231-3.028C345.635,166.705,342.553,169.373,342.625,174.133z M161.122,257.695
				c-0.056-1.732-1.493-2.877-1.666-4.563c-0.244-2.385,0.47-4.721-2.618-6.545c-1.794-1.06-3.274-0.689-3.932-0.172
				c-1.064,0.837,0.634,1.828,1.083,2.775c0.368,0.776,1.301,0.565,1.986,0.798c1.575,0.534,3.092,1.498,2.815,3.269
				C158.44,255.494,159.918,256.441,161.122,257.695z M284.757,164.132c-0.536-0.749,0.069-2.206-0.968-2.146
				c-1.508,0.087-1.521-0.358-1.119-1.484c0.223-0.619,0.424-1.373-0.432-1.685c-0.834-0.304-1.152,0.425-1.484,0.98
				c-0.34,0.564-0.775,1.13-0.904,1.75c-0.317,1.535,0.051,2.946,1.205,4.073c1.135,1.106,2.435,0.761,3.713,0.348
				c1.467-0.473,1.263-1.659,1.314-2.778C285.216,163.056,285.305,163.84,284.757,164.132z M143.934,262.58
				c1.202,1.773,2.771,0.553,4.138,0.675c0.625,0.056,1.187-0.081,1.274-0.839c0.074-0.646-0.197-1.1-0.839-1.343
				c-0.414-0.157-1.501-0.28-0.546-0.913c0.874-0.578,0.679-0.717-0.018-1.008c-1.686-0.701-2.554-2.105-3.12-3.861
				c-1.773,2.703-3.799,5.264,0.913,6.811C145.115,262.736,144.486,261.785,143.934,262.58z M178.505,250.614
				c-1.631,5.814-0.737,8.161,3.658,9.589C181.615,253.797,181.115,252.484,178.505,250.614z M226.379,173.496
				c0.92-2.974-2.114-2.785-2.937-4.364c-0.433-0.832-1.221,0.367-1.822,0.658c-0.77,0.374-2.257-0.056-2.24,1.017
				c0.016,1.018,1.196,1.666,2.267,2.013c0.501,0.162,0.802,0.437,0.798,1.065c-0.008,1.065,0.524,2.246,1.563,2.066
				C225.312,175.729,225.311,173.758,226.379,173.496z M256.439,220.978c0.881,2.628,0.881,2.628,1.955,2.541
				c3.828-0.312,4.707,0.922,3.082,4.339c-0.258,0.538-0.529,1.068-0.082,1.612c0.314,0.385,0.82,0.367,1.121,0.104
				c1.088-0.956,2.204-1.905,3.115-3.017c0.377-0.46,0.844-1.466-0.146-1.941C262.625,223.235,260.066,221.073,256.439,220.978z
				 M216.793,263.182c0.976-1.559,1.866-2.748,2.503-4.06c0.776-1.597-0.306-3.169-2.152-3.099
				c-0.684,0.025-1.097-0.236-1.562-0.528c-1.4-0.88-2.001,0.21-2.49,1.114c-0.716,1.324-0.082,2.633,1.014,3.203
				c1.262,0.657,1.182-0.947,1.672-1.574c0.186-0.237,0.17-0.672,0.678-0.581C217.146,259.296,215.6,261.006,216.793,263.182z
				 M345.706,232.686c2.204,1.029,3.983,1.862,5.765,2.691c0.688,0.319,1.374,0.664,2.02-0.09c1.251-1.467-0.055-2.992,0.056-4.496
				c0.046-0.625-0.845-0.648-1.433-0.528C350.014,230.69,347.977,231.284,345.706,232.686z M199.642,205.701
				c1.145-1.018,2.32-2.135,3.573-3.156c1.165-0.95,1.378-1.689-0.272-2.229c-0.428-0.14-0.809-0.292-0.778-0.807
				c0.024-0.411,0.343-0.542,0.71-0.491c0.706,0.1,1.414,0.168,1.436-0.826c0.013-0.61-0.226-1.195-0.918-1.301
				c-0.754-0.116-1.258,0.359-1.604,0.964c-1.026,1.799-2.041,3.59-3.711,4.917c-0.568,0.452-0.62,1.171-0.226,1.819
				C198.219,205.195,198.84,205.454,199.642,205.701z M186.588,301.918c0.059-0.387,0.089-0.634,0.133-0.877
				c0.17-0.928,0.266-1.986-0.578-2.504c-1.009-0.621-1.642,0.455-2.261,1.027c-1.027,0.948-1.975,1.992-2.892,3.053
				c-0.719,0.83-0.431,1.49,0.501,1.969c1.749,0.896,3.202-0.221,4.732-0.701C187.552,303.468,186.423,302.473,186.588,301.918z
				 M310.374,253.078c1.49-1.801,1.364-3.729,1.894-5.438c0.625-2.024-1.17-3.804-3.229-3.233c-1.246,0.345-2.209,1.176-1.244,2.546
				C309.054,248.737,309.548,250.814,310.374,253.078z M133.166,252.807c-0.069,0.592-0.264,1.26-0.197,1.9
				c0.135,1.305,0.764,2.73,2.108,2.609c1.384-0.125,1.22-1.625,1.171-2.832c-0.104-2.609-1.438-4.602-3.011-6.5
				c-0.332-0.399-0.353-1.279-1.177-0.975c-0.329,0.122-0.694,0.542-0.765,0.884c-0.131,0.636-0.099,1.731,0.46,1.763
				C134.415,249.811,132.764,251.689,133.166,252.807z M188.622,98.175c-0.828,0.318-1.034,0.448-1.251,0.473
				c-0.92,0.103-1.934,0.053-1.74,1.475c0.208,1.525,1.191,2.348,2.566,2.722c1.051,0.286,1.31-0.38,1.64-1.307
				c1.006-2.819-1.283-4.288-2.403-6.194c-0.5-0.851-1.591-1.106-2.757-0.762C185.647,96.024,185.86,97.999,188.622,98.175z
				 M205.491,270.624c0.174-1.099-0.044-2.13-1.437-1.903c-1.428,0.231-3.602-0.102-3.571,2.141c0.021,1.518,0.185,3.49,2.074,4.113
				C203.649,275.336,205.441,272.563,205.491,270.624z M181.565,278.609c-0.67,0.164-0.516,0.778-0.596,1.224
				c-0.092,0.517-0.603,1.483,0.133,1.493c2.221,0.027,2.482,1.756,2.725,3.135c0.299,1.695,1.331,2.373,2.657,2.959
				c1.019,0.451,2.165,0.955,2.85-0.326c0.741-1.385-0.375-2.603-1.379-2.684c-3.167-0.258-4.272-2.455-5.354-4.84
				C182.4,279.129,182.194,278.639,181.565,278.609z M249.276,120.705c-0.385-0.764-0.173-2.138-1.643-2.006
				c-1.481,0.132-2.91-2.15-4.046-0.663c-0.94,1.23,0.974,2.565,1.379,3.953c0.262,0.9,0.645,2.258,1.933,1.67
				C248.008,123.151,249.284,122.399,249.276,120.705z M347.867,177.897c-0.113-0.351,0.689-1.585-0.707-1.812
				c-1.24-0.201-2.359,0.494-3.514,0.866c1.301,1.558-0.625,3.499,0.605,5.076c0.412,0.526,0.787,1.125,1.521,1.142
				c0.848,0.021,0.987-0.718,1.223-1.331C347.432,180.695,348.184,179.642,347.867,177.897z M175.924,254
				c1.36-5.935,0.87-6.837-3.332-6.979c-0.484-0.016-1.04-0.191-1.349,0.317c-0.335,0.551-0.191,1.165,0.198,1.616
				C172.821,250.557,174.247,252.12,175.924,254z M140.752,297.742c-0.142,0.289-0.258,0.428-0.274,0.576
				c-0.331,2.924-0.886,5.569-4.888,4.854c-0.668-0.119-0.812,0.482-0.427,1.016c0.943,1.304,2,2.02,3.461,0.625
				c1.999-1.902,4.188-3.543,6.669-4.785c0.461-0.23,1.072-0.518,0.858-1.367c-1.691-0.031-2.584,1.67-4.212,2.036
				C141.932,299.527,142.157,298.379,140.752,297.742z M250.73,280.93c3.945-0.342,4.262-3.455,5.246-5.893
				c0.465-1.156-1.293-1.922-1.5-1.615c-0.726,1.071-2.545,0.793-2.694,2.52C251.641,277.568,251.118,279.165,250.73,280.93z
				 M181.931,266.146c0.902,0.189,1.604-0.037,2.05-0.707c0.482-0.728-0.097-1.273-0.562-1.698
				c-1.211-1.107-2.462-2.175-3.741-3.204c-1.153-0.928-1.488-0.395-1.583,0.869C177.865,264.469,178.952,265.836,181.931,266.146z
				 M74.107,274.916c1.936-0.584,3.84-0.383,5.296-2.051c0.927-1.063,0.706-2.019,0.37-2.949c-0.455-1.264-1.597-0.645-2.344-0.352
				C75.132,270.463,74.156,272.283,74.107,274.916z M161.825,205.034c2.924-2.325,3.333-3.96,1.835-7.008
				c-0.373-0.76-0.576-2.033-1.673-1.845c-1.109,0.19-0.897,1.431-0.933,2.293C160.967,200.608,161.225,202.712,161.825,205.034z
				 M238.237,133.617c-0.274-1.29-0.528-2.585-0.829-3.869c-0.347-1.48-0.827-2.568-2.301-0.747
				c-0.531,0.656-1.352,0.704-2.065,0.361c-1.408-0.676-1.3,0.292-1.305,1.132c-0.007,1.092,2.707,3.179,3.276,2.5
				C236.783,130.886,237.21,132.661,238.237,133.617z M170.484,240.433c0.757-0.126,1.664,0.294,1.934-0.461
				c0.349-0.979-0.939-0.985-1.246-1.515c-0.968-1.668-2.167-2.367-4.073-1.716c-0.644,0.22-1.604-1.313-1.998,0.104
				c-0.351,1.262,0.067,2.584,1.568,2.976C167.951,240.153,169.293,240.251,170.484,240.433z M295.973,279.619
				c-0.057-1.307-1.367-2.578-1.074-4.375c0.119-0.729-1.069-0.328-1.594,0.004c-1.828,1.162-1.891,3.371-0.603,5.623
				c0.679,1.186,1.528,0.77,2.312,0.754C296.086,281.604,295.874,280.635,295.973,279.619z M288.914,275.527
				c-1.377,0.246-3.395,0.063-3.639,1.291c-0.164,0.826,0.274,2.979,1.6,3.531c1.201,0.5,4.121-2.238,4.162-3.637
				C291.09,274.941,289.625,275.923,288.914,275.527z"/>
		</g>
	</g>
</g>
</svg>
