<?xml version="1.0" encoding="utf-8"?>
<!-- Generator: Adobe Illustrator 15.0.0, SVG Export Plug-In . SVG Version: 6.00 Build 0)  -->
<!DOCTYPE svg PUBLIC "-//W3C//DTD SVG 1.1//EN" "http://www.w3.org/Graphics/SVG/1.1/DTD/svg11.dtd">
<svg version="1.1" id="Layer_1" xmlns="http://www.w3.org/2000/svg" xmlns:xlink="http://www.w3.org/1999/xlink" x="0px" y="0px"
	 width="500px" height="500px" viewBox="0 0 500 500" enable-background="new 0 0 500 500" xml:space="preserve">
<circle fill="#87BB64" cx="249.316" cy="249.316" r="249.316"/>
<g>
	<path fill="#FCFCFC" d="M357.49,422.212c-0.589,0.096-1.258,0.075-1.82-0.104c-2.151-0.694-4.295-0.553-6.499-0.291
		c-2.855,0.335-5.762,0.399-8.613,0.053c-2.339-0.285-4.622-0.132-6.946-0.051c-3.801,0.132-7.643,0.168-11.406-0.266
		c-3.579-0.408-7.133-0.222-10.628,0.104c-3.455,0.318-6.794-0.614-10.149-0.339c-4.139,0.339-8.32-0.951-12.422,0.489
		c-1.427,0.503-2.813-0.465-4.226-0.527c-3.476-0.158-6.981,0.083-10.435-0.269c-3.644-0.368-7.229,0.228-10.846,0.108
		c-1.148-0.037-1.713-0.524-1.938-1.667c-1.095-5.563-1.402-11.219-2.146-16.817c-0.645-4.85-0.611-9.676-0.698-14.522
		c-0.05-2.885,0.044-5.745,0.606-8.588c0.322-1.627,0.268-3.26-0.262-4.873c-0.521-1.599-0.58-3.313-0.172-4.879
		c0.795-3.049,0.717-6.125,0.608-9.192c-0.103-2.884,0.772-5.717,0.297-8.604c-0.069-0.42,0.093-0.84,0.611-0.903
		c0.305-0.039,0.567,0.153,0.569,0.454c0.015,2.701,1.498,1.449,2.797,0.908c0.082,0.814-0.31,1.267-0.676,1.422
		c-2.098,0.893-1.979,2.646-1.938,4.455c0.056,2.604,0.008,5.207,0.024,7.813c0.004,0.652-0.137,1.355,0.473,2.063
		c1.31-1.739,3.171-2.799,3.91-4.941c0.695-2.016,2.107-3.624,3.666-5.118c0.994-0.953,1.854-1.778,3.367-1.369
		c0.877,0.236,0.959-0.166,0.826-1.022c-0.313-2.012,0.354-2.476,2.229-1.687c0.592,0.248,1.199,0.607,1.629-0.099
		c0.404-0.665-0.542-0.651-0.662-0.994c-0.734-2.096-3.48-2.729-3.713-5.175c-0.043-0.45-0.482-1.04,0.093-1.273
		c0.604-0.245,1.36-0.341,1.997-0.218c0.654,0.126,0.318,0.773,0.243,1.218c-0.155,0.903,0.005,1.646,0.966,2
		c1.762,0.646,2.15,2.511,3.141,3.787c0.578,0.75,0.875,1.278,1.783,1.065c1.119-0.266,2.164,0.281,3.264,0.18
		c1.262-0.12,2.889,0.554,2.977-1.723c0.023-0.625,0.756-0.592,1.097-0.15c0.726,0.938,1.702,1.087,2.752,1.052
		c0.957-0.032,1.441,1.052,2.011,1.119c2.03,0.244,3.379,0.845,3.982,3.056c0.172,0.631,1.822,1.44,2.9,0.801
		c0.967-0.572,0.537-1.719,0.381-2.649c-0.249-1.485-1.182-2.567-2.445-3.68c1.209-0.36,1.695,0.288,2.169,0.905
		c0.489,0.641,1.138,1.021,1.911,1.084c1.098,0.091,1.278-0.49,0.965-1.436c-0.146-0.441-0.923-1.104-0.178-1.327
		c0.633-0.19,1.539-1.011,2.223-0.036c1.226,1.741,2.326,1.791,3.719,0.096c0.396-0.486,1.719-1.459,1.898,0.565
		c0.104,1.171,1.455,1.482,2.447,0.525c0.838-0.81,1.574-1.668,2.707-2.116c0.638-0.252,0.805-0.913,0.671-1.572
		c-0.145-0.709-0.67-1.051-1.341-1.048c-1.645,0.005-2.365-0.569-2.066-2.385c0.227-1.354-0.758-1.731-1.999-1.554
		c-0.536,0.076-1.505-0.325-0.925-0.68c1.701-1.041,0.737-3.369,2.563-4.354c1.223-0.661,2.163-0.769,2.845,0.591
		c1.38,2.755,1.45,2.764,3.832,0.548c0.198-0.184,0.433-0.334,0.75-0.114c0.075,0.791-0.748,1.049-1.028,1.637
		c-0.41,0.859-0.64,1.719,0.164,2.447c0.68,0.614,1.539,0.754,2.242,0.114c0.877-0.796,1.452-0.645,2.215,0.187
		c1.055,1.146,2.376,0.797,3.617,0.283c1.257-0.52,1.865-0.25,1.652,1.205c-0.133,0.898,0.032,1.68,1.032,1.95
		c0.853,0.229,1.413-0.09,1.757-0.959c0.41-1.039,1.021-0.716,1.104,0.107c0.184,1.811,1.208,1.886,2.6,1.563
		c0.913-0.211,1.049,0.442,1.535,1.08c0.354,0.463,0.717,0.916,1.08,1.37c0.725-1.565,1.654-3.034,2.753-4.341
		c-0.744-1.359-1.511-2.71-2.366-4.014c-1.285-1.961-3.079-2.963-5.235-3.537c-1.595-0.422-0.612-1.197-0.144-1.731
		c0.396-0.448,1.033-0.692,1.076-1.405c0.043-0.723-0.094-1.402-0.781-1.769c-0.648-0.345-1.195,0.013-1.656,0.455
		c-0.346,0.329-0.641,0.711-0.957,1.067c-0.281,0.317-0.636,0.647-1.036,0.332c-0.472-0.371-0.073-0.748,0.19-1.033
		c1.229-1.313,0.479-2.705-0.395-3.467c-1.277-1.113-1.803-2.651-2.861-3.847c-0.307-0.345-0.805-0.767-0.255-1.197
		c0.43-0.336,0.693,0.166,0.94,0.483c1.275,1.645,3.241,1.304,4.926,1.521c1.554,0.198,2.493,0.547,2.375,2.289
		c-0.063,0.889,0.267,1.611,1.1,2.036c0.637,0.323,1.119,0.765,1.318,1.483c0.266,0.956,0.971,1.265,1.893,1.191
		c0.497-0.037,1.027-0.151,1.104-0.724c0.119-0.927-0.395-1.55-1.193-1.952c-0.236-0.119-0.48-0.219-1.232-0.553
		c1.769-0.514,2.802-0.68,3.476,0.902c1.394,3.274,4.111,3.729,6.358,1.09c0.877-1.03,1.943-0.6,2.845-0.43
		c0.96,0.185,0.499,1.047,0.278,1.691c-0.414,1.225,0.214,1.835,1.334,2.021c1.577,0.268,3.178,0.215,4.532,1.449
		c0.651,0.594,1.738,0.338,2.019-0.885c0.396-1.74,1.037-1.396,1.69-0.166c0.108,0.203,0.259,0.368,0.423,0.523
		c0.141-0.043,0.279-0.082,0.42-0.125c1.77-0.56,3.525-1.156,5.271-1.789c1.404-2.245,3.336-4.158,5.796-5.443
		c2.463-1.287,4.868-2.68,7.12-4.314c0.263-0.193,0.473-0.348,0.657-0.482c0.702-0.573,1.396-1.155,2.083-1.751
		c1.296-1.146,2.563-2.318,3.813-3.511c-0.28-0.663-0.864-0.549-2.468-0.065c0.389-1.442,1.241-2.964-0.765-3.873
		c-0.338-0.151-0.03-0.582,0.244-0.826c1.213-1.077,0.897-2.099-0.062-3.176c-0.516-0.58-0.871-1.179,0.186-1.8
		c2.269-1.337,2.421-2.771,0.67-4.727c-0.354-0.396-1.112-0.938-0.74-1.316c1.572-1.596,1.205-4.877,4.761-4.858
		c2.289,0.015,2.698-1.478,1.3-3.346c-0.482-0.646-1.027-1.244-0.141-1.896c0.768-0.559,1.592-1.063,2.453-1.459
		c0.737-0.336,2.047,0.086,1.993-1.23c-0.044-1.075-0.813-1.852-1.905-2.178c-0.554-0.166-1.271-0.555-1.111-1.032
		c0.52-1.547-0.664-2.713-0.709-4.036c-0.063-1.88-0.564-2.25-2.188-1.327c-1.471,0.836-1.508-0.955-2.292-1.403
		c-0.691-0.396-0.287-0.898,0.294-1.207c0.779-0.414,0.768-1.056,0.451-1.756c-0.313-0.699-0.851-1.097-1.622-0.994
		c-0.743,0.098-1.489,0.237-2.205,0.455c-0.462,0.139-0.886,0.469-1.255-0.101c-0.773-1.188-2.396-1.188-3.217-2.431
		c-0.498-0.754-5.025,0.712-5.236,1.646c-0.146,0.644,0.133,1.461-0.951,1.438c-0.88-0.021-1.059-0.706-1.311-1.358
		c-0.685-1.774-1.31-3.479-3.553-4.055c-1.246-0.319-1.211-0.792-0.816-2.55c1.528,1.461,1.525,1.457,3.138-0.229
		c0.314-0.328,0.74-0.346,1.151-0.263c0.959,0.193,1.842,0.441,2.419-0.792c0.392-0.837,1.138-1.502,1.634-2.302
		c0.134-0.217,0.048-0.828-0.136-0.942c-1.972-1.231-1.433-3.011-1.1-4.746c0.144-0.738,0.032-1.363-0.666-1.776
		c-1.124-0.669-0.853-1.188,0.144-1.712c1.296-0.684,1.25-1.657,0.499-2.735c-0.963-1.379-2.446-1.476-3.862-1.306
		c-0.974,0.117-1.306,0.912-0.699,1.859c1.043,1.63,0.746,2.641-1.024,3.233c-0.496,0.166-1.141,0.83-1.611-0.014
		c-0.336-0.603-0.188-1.211,0.358-1.66c1.479-1.215,0.604-2.113-0.39-2.998c-0.679-0.604-1.666-0.879-2.128-1.82
		c3.16,0,6.188,0.091,9.203-0.039c1.443-0.063,3.021-0.143,3.604-2.057c0.832-2.724-0.543-5.248-1.773-7.001
		c-1.539-2.196-2.668-4.92-5.704-6.268c-2.736-1.214-4.903-2.177-7.488-0.175c-0.589,0.457-1.263,0.842-1.953,1.121
		c-1.534,0.619-3.233-0.176-3.834-1.712c1.647,0.428,4.341-0.67,4.533-1.955c0.268-1.753-1.34-1.421-2.344-1.698
		c0.405-0.857,0.993-0.526,1.493-0.5c0.703,0.038,1.438,0.097,1.68-0.771c0.193-0.702-0.248-1.264-0.79-1.534
		c-1.661-0.827-2.453-2.311-3.104-3.897c-0.337-0.82-0.83-0.999-1.613-0.728c-0.426,0.148-0.954,0.5-1.228-0.162
		c-0.212-0.513,0.158-0.923,0.511-1.253c0.347-0.327,0.76-0.582,1.127-0.89c2.146-1.804,2.217-3.101,0.188-4.97
		c-0.607-0.562-0.854-0.956,0.109-1.266c1.027-0.33,1.39-1.028,1.293-2.042c-0.101-1.054-0.826-1.405-1.717-1.779
		c-1.615-0.677-3.359-1.165-4.421-2.808c-0.688-1.064-1.644-0.784-2.466-0.068c-0.461,0.401-0.79,0.968-1.281,1.313
		c-0.699,0.491-1.668,0.683-2.34,0.29c-0.759-0.441-0.356-1.706-0.07-2.024c1.479-1.652,1.42-2.877-0.55-3.992
		c-0.198-0.112-0.213-0.63-0.232-0.964c-0.095-1.639-0.783-2.301-2.396-1.514c-1.088,0.531-1.68-0.158-2.172-0.938
		c-0.268-0.419,0.039-1.048,0.4-0.85c1.208,0.663,2.076-0.375,3.113-0.412c0.794-0.028,1.818,0.29,2.019-0.841
		c0.188-1.051-0.735-1.548-1.502-1.99c-0.896-0.518-1.795-1.013-2.368-1.912c-0.194-0.305-0.263-0.672,0.105-0.901
		c0.29-0.179,0.463,0.063,0.66,0.274c1.713,1.841,2.437,1.707,3.652-0.464c0.919-1.637,0.969-3.709,2.503-5.067
		c0.833,0.562,1.086,1.442,1.543,2.188c0.539,0.879,1.22,1.986,2.339,1.678c1.609-0.444,3.07-1.633,4.811-0.366
		c0.131,0.095,0.514-0.117,0.758-0.227c0.575-0.256,1.172-1.15,1.764-0.352c0.654,0.884-0.448,1.064-0.908,1.458
		c-0.775,0.663-0.77,1.425-0.25,2.193c0.432,0.64,1.094,0.834,1.811,0.515c1.916-0.854,2.725-2.447,2.315-4.543
		c-0.242-1.243-0.545-2.425,1.218-2.892c0.646-0.17,0.715-0.978,0.636-1.604c-0.191-1.545-0.949-2.88-1.983-3.961
		c-0.8-0.835-1.732-0.872-2.072,0.594c-0.079,0.345,0.137,0.883-0.506,0.94c-0.909-3.07-0.977-3.135-0.528-3.586
		c1.612-1.626,3.792-3.188,0.149-4.957c-0.269-2.13-1.329-1.896-2.647-0.889c-0.379,0.291-0.794,0.363-1.058-0.069
		c-0.299-0.491-0.104-0.95,0.415-1.177c0.37-0.162,0.79-0.209,1.185-0.323c0.625-0.181,1.146-0.485,1.238-1.207
		c0.058-0.443-0.08-0.83-0.501-1.027c-0.688-0.322-1.548-0.297-1.899,0.269c-1.217,1.965-4.195,1.743-5.022,4.179
		c-0.118,0.347-1.173,0.82-1.162-0.039c0.021-1.857-1.114-1.707-2.309-1.75c-1.189-0.043-2.873-2.31-2.572-3.451
		c0.12-0.455,0.299-1.001,0.836-1.073c0.729-0.096,0.856,0.55,1.008,1.067c0.695,2.416,1.517,2.746,3.474,1.274
		c0.707-0.531,1.174-0.929,2.11-0.242c1.04,0.762,2.088,0.567,1.956-1.042c-0.115-1.398,0.284-1.466,1.311-0.778
		c1.341,0.898,2.511,0.506,3.426-0.65c0.969-1.225,1.104-4.5,0.314-5.252c-0.098-0.093-0.24-0.249-0.325-0.228
		c-1.654,0.4-2.079-1.224-3.104-1.851c-1.319-0.805-1.262-1.563-0.223-2.585c1.278-1.259,1.903-3.058,3.422-4.174
		c0.39-0.287,0.653-1.223,0.491-1.691c-0.469-1.342-1.531-2.588,0.277-3.784c0.246-0.163-0.141-0.749-0.424-1.058
		c-0.701-0.765-1.461-1.399-2.508-1.706c-0.836-0.244-1.729-0.597-1.853-1.683c-0.189-1.701-1.088-1.677-2.276-0.949
		c-0.512,0.312-1.379,0.911-1.485,0.104c-0.155-1.175-2.416-1.722-0.983-3.208c0.636-0.659,0.943-1.249,0.231-1.902
		c-0.761-0.698-1.789-2.241-2.632-1.294c-1.411,1.585-2.359,0.73-3.572,0.117c-0.527-0.267-1.454-0.315-1.196-1.091
		c0.303-0.903,1.003-0.164,1.528-0.032c0.938,0.233,2.064,0.636,2.494-0.55c0.441-1.223-0.436-1.882-1.588-2.136
		c-1.35-0.297-2.035-1.31-2.958-2.24c-1.208-1.217-2.492-2.57-4.52-2.978c-1.515-0.304-2.747-0.792-3.95,0.5
		c-0.088,0.091-0.436,0.053-0.58-0.045c-1.207-0.802-3.785,1.235-3.912-1.893c-0.014-0.296-0.729-0.395-1.109-0.243
		c-0.496,0.197-0.94,0.524-1.404,0.805c-1.079,0.654-2.482,0.408-3.096-0.171c-0.729-0.691-0.56-2.233-0.154-3.222
		c0.441-1.073,1.49-0.475,2.341-0.195c0.99,0.326,1.596-0.147,1.765-1.139c0.137-0.804,0.227-1.618,0.289-2.431
		c0.035-0.44-0.331-1.048,0.374-1.183c0.549-0.104,0.854,0.354,1.003,0.844c0.379,1.268,1.173,1.094,2.086,0.646
		c0.825-0.406,1.479-0.983,1.944-1.773c0.402-0.686,1.06-1.187,1.604-0.417c1.243,1.753,2.614,0.958,4.008,0.426
		c0.62-0.237,1.116-0.633,1.916-0.35c2.229,0.789,2.379,0.638,2.044-1.602c-0.083-0.551-0.337-0.965,0.562-1.172
		c1.644-0.38,2.034-1.505,0.912-2.906c-0.866-1.081-0.567-1.603,0.038-2.75c0.801-1.519,3.688-3.284,0.395-5.375
		c-0.421-0.267-0.136-1.812-0.004-2.74c0.128-0.895,0.961-0.48,1.514-0.604c1.357-0.303,1.332-1.354,0.888-2.243
		c-0.724-1.436-1.703-2.697-3.68-1.777c0.168-2.471-0.584-3.335-1.907-2.321c-2.639,2.02-5.097,1.346-7.857,0.35
		c-1.251-0.452-2.63-1.614-4.231-0.669c-0.382,0.225-0.865-0.092-0.911-0.556c-0.077-0.81-0.203-1.68,0.009-2.435
		c0.212-0.754,0.751-0.066,1.148,0.036c1.58,0.404,3.603-0.53,3.58-1.806c-0.03-1.942-0.489-4.003-1.961-5.234
		c-1.557-1.304-2.52-2.705-2.979-4.634c-0.336-1.409-2.98-2.942-3.907-2.337c-1.175,0.766-2.575,1.445-2.45,3.236
		c0.047,0.661-0.27,1.061-0.943,1.071c-0.663,0.01-0.995-0.354-0.998-1.026c-0.01-2.052-1.281-1.96-2.467-1.205
		c-1.155,0.739-1.996,0.581-2.966-0.17c-0.362-0.281-0.844-0.6-1.261-0.587c-1.87,0.059-2.112-1.032-2.035-2.533
		c0.1-1.952-1.312-4.17-3.107-4.762c-1.565-0.517-2.479-0.842-0.632-2.385c1.657-1.383,1.329-3.082-0.516-4.199
		c-0.438-0.265-0.707-0.623-0.934-1.053c-1.035-1.972-2.655-2.398-4.688-1.789c-0.632,0.189-1.467,0.664-1.895-0.065
		c-1.271-2.17-2.133-1.119-3.125,0.219c-0.436,0.588-1.559,1.395-1.785,1.021c-0.842-1.379-2.672-1.079-3.442-2.343
		c-0.114-0.187-0.022-0.534,0.04-0.79c0.873-3.504,0.426-4.186-3.184-4.464c-1.236-0.095-1.799-0.54-2.002-1.81
		c-0.303-1.878-1.637-2.944-3.428-3.354c-1.797-0.411-3.648-0.615-4.722-2.432c-0.312-0.53-0.93-0.763-1.426-0.401
		c-0.989,0.722-2.349,0.895-3.075,1.96c-0.468,0.685-0.908,0.9-1.699,0.535c-1.488-0.688-2.313-0.027-2.729,1.442
		c-0.227,0.789-0.516,1.52-1.504,1.76c-2.074,0.504-2.229,1.063-1.646,3.131c0.424,1.501,1.856,2.458,2.047,3.955
		c0.236,1.851,1.077,3.015,2.813,3.662c0.502,0.187,1.355,0.493,0.98,1.28c-0.344,0.723-1.138,0.943-1.949,0.792
		c-0.519-0.095-0.74-0.559-1.066-0.905c-0.922-0.977-1.768-2.521-2.852-2.722c-1.426-0.264-1.883-1.095-2.551-1.98
		c-0.521-0.69-0.805-1.618-1.863-1.768c-0.351-0.05-0.75-0.42-0.557-0.714c1.35-2.037-0.314-3.467-0.98-5.075
		c-0.494-1.194-0.678-2.53-1.561-3.554c-1.271-1.478-2.578,0.347-3.812-0.021c-2.863-0.855-4.736-0.22-5.275,3.005
		c-0.088,0.529-0.791,1.301-1.271,0.33c-0.896-1.819-2.838-1.734-4.199-2.652c-2.036-1.374-3.219,0.281-4.783,0.906
		c-3.382,1.351-4.07,4.857-1.134,7.384c0.688,0.592,1.119,1.327,0.256,1.816c-1.507,0.854-2.156,2.387-3.421,3.956
		c0.363-2.257-0.318-2.85-2.039-1.983c-0.38,0.191-0.777,0.366-1.113-0.028c-0.098-0.115-0.121-0.423-0.037-0.544
		c1.84-2.653,0.776-4.791-1.192-6.756c-0.341-0.34-0.329-0.557-0.167-1.031c0.338-0.988-2.688-3.924-3.706-3.681
		c-0.605,0.145-0.785,0.705-1.088,1.156c-0.418,0.624-0.451,1.583-1.668,1.903c0.269-2.415-1.115-2.221-2.643-1.896
		c-1.55,0.331-3.233-0.803-4.742,0.52c-0.427,0.374-0.565-0.317-0.685-0.695c-0.234-0.745-0.748-0.753-1.273-0.364
		c-0.5,0.371-1.14,1.07-0.523,1.509c2.133,1.519,0.469,2.118-0.563,2.929c-0.354,0.279-0.516,0.968-1.08,0.773
		c-0.658-0.226-0.427-0.919-0.474-1.439c-0.044-0.477-0.013-0.963-0.092-1.433c-0.135-0.805-0.621-1.685-1.409-1.465
		c-1.552,0.432-2.185,2.03-3.12,3.192c-0.415,0.515-0.038,1.182,0.647,1.474c0.374,0.16,1.034,0.258,1.079,0.482
		c0.311,1.539,0.242,3.206,2.322,3.708c0.323,0.078-1.668,4.293-2.314,4.463c-0.928,0.245-2.064,0.256-1.874,1.645
		c0.187,1.354,1.063,1.914,2.442,1.981c1.193,0.059,1.996,0.585,1.26,2.014c-0.343,0.664-0.115,1.28,0.299,1.913
		c0.837,1.275-0.367,2.237-0.909,3.022c-0.467,0.675-0.902-0.693-1.505-0.896c-2.008-0.676-2.878-4.388-6.014-1.945
		c0-0.479-0.053-0.69,0.009-0.858c0.231-0.628,0.741-1.276,0.054-1.876c-0.677-0.591-1.266-0.166-1.797,0.327
		c-0.468,0.432-0.944,0.34-1.518,0.156c-1.631-0.522-3.6,1.15-5.067-0.758c-0.065-0.085-0.756,0.098-0.896,0.319
		c-0.818,1.288-1.81,1.199-2.976,0.554c-0.367-0.203-0.927-0.145-1.152,0.181c-0.859,1.243-1.582,2.555-3.071,3.249
		c-0.393,0.183-0.076,0.893,0.232,1.281c0.542,0.685,0.769,1.296-0.192,1.839c-0.542,0.307-0.631,0.857-0.566,1.438
		c0.134,1.224-0.576,1.77-1.646,1.935c-1.168,0.18-1.229-0.744-1.5-1.534c-0.397-1.159-0.897-2.314-2.473-1.263
		c-0.326,0.218-0.785,0.265-0.798-0.175c-0.045-1.586-1.512-1.582-2.37-2.245c-1.884-1.454-3.497-0.632-5.22,0.475
		c-1.761,1.131-0.238,2.231-0.043,3.443c-1.217,0.118-2.56-0.465-3.204,0.938c-0.862,1.874-3.096,2.662-3.718,4.739
		c-0.118,0.392-0.588,0.549-1.031,0.55c-1.412,0.003-1.75,0.888-1.606,2.061c0.162,1.334,0.962,1.951,2.296,1.656
		c0.923-0.205,1.762,0.151,2.64,0.23c1.098,0.1,1.269,0.658,0.653,1.518c-0.119,0.166-0.26,0.323-0.415,0.454
		c-2.067,1.74-0.414,4.154-0.965,6.223c-0.195,0.735,0.1,2.428,0.411,3.667c0.276,1.101-0.938,1.332-1.769,1.603
		c-0.494,0.161-1.146,0.479-1.442-0.22c-0.419-0.988,0.503-1.229,1.069-1.687c0.706-0.569,0.958-4.007,0.364-4.596
		c-0.179-0.177-0.479-0.346-0.713-0.332c-1.02,0.064-2.062,0.087-3.043,0.334c-1.142,0.288-1.843,1.143-1.335,2.325
		c0.781,1.819-0.348,2.48-1.672,2.761c-1.468,0.312-2.619,1.128-3.894,1.773c-1.223,0.62-1.773,1.983-1.078,2.691
		c2.355,2.4,1.159,3.945-0.79,5.612c-0.524,0.449-0.668,1.237-0.029,1.833c0.668,0.625,1.359,0.521,2.013-0.068
		c0.305-0.275,0.593-0.578,0.931-0.807c1.025-0.693,1.999-0.562,2.131,0.732c0.154,1.496,1.043,2.318,2.058,3.133
		c0.433,0.348,1.077,0.655,0.515,1.259c-0.613,0.659-0.932-0.039-1.227-0.476c-0.418-0.619-0.953-1.054-1.715-0.804
		c-0.713,0.233-0.771,0.899-0.713,1.541c0.058,0.642,0.122,1.25-0.708,1.466c-0.79,0.206-0.835-0.443-1.132-0.882
		c-0.971-1.431-2.126-1.538-3.072-0.199c-0.484,0.686-1.016,0.982-1.797,1.167c-1.598,0.378-1.731,1.206-1.176,2.735
		c0.78,2.15,2.689,2.697,4.381,3.563c0.919,0.47,1.481,0.729,0.396,1.646c-0.762,0.645-0.741,1.444,0.068,2.097
		c0.395,0.318,0.705,0.622,0.678,1.177c-0.053,1.083,0.492,1.312,1.534,1.351c1.802,0.068,2.356,1.37,1.2,2.751
		c-0.838,1-1.209,2.092-1.409,3.34c-0.2,1.245,0.225,1.861,1.474,1.851c1.081-0.01,2.17,0.139,3.171-0.556
		c1.181-0.819,0.534-2.083,0.827-3.46c0.767,1.13,2.136,1.35,2.477,2.086c1.188,2.57,3.127,2.342,5.332,2.021
		c3.235-0.471,3.82-0.031,4.771,3.115c0.277,0.913,0.692,1.801,1.768,1.66c1.21-0.16,2.704,0.182,3.441-1.226
		c0.249-0.477,0.19-1.212,0.994-0.872c0.699,0.295,1.34,0.829,1.464,1.61c0.116,0.729-0.56,0.859-1.112,0.895
		c-1.01,0.066-1.643,0.551-1.979,1.504c-0.201,0.571-0.713,0.881-1.278,0.895c-1.979,0.047-2.606,0.839-1.702,2.715
		c0.346,0.717-0.117,1.317-0.661,1.792c-0.383,0.334-1.103,0.625-1.271,0.245c-0.623-1.399-2.241-1.599-2.98-2.538
		c-0.965-1.227-1.817-2.221-3.333-2.787c-1.716-0.64-1.947-2.301-0.721-3.674c0.672-0.752,0.361-1.435-0.244-1.958
		c-0.521-0.451-1.521-0.848-1.774-0.093c-0.714,2.142-1.785,1.25-2.964,0.618c-0.785-0.42-1.635,0.1-2.417-0.002
		c-1.298-0.17-1.889,1.489-3.116,1.132c-1.769-0.514-3.398,0.055-5.006,0.539c-2.748,0.828-6.119-1.76-5.803-4.579
		c0.099-0.878-0.244-1.495-1.065-1.754c-0.781-0.247-1.402,0.083-1.565,0.885c-0.261,1.276-1.199,1.336-2.187,1.369
		c-1.218,0.041-2.132,0.419-2.308,1.816c-0.232,1.851-1.262,2.389-2.67,1.149c-1.14-1.003-2.041-1.28-3.459-0.692
		c-1.209,0.501-2.51,0.857-3.396,1.816c-0.766,0.831-0.521,1.872,0.669,1.945c1.384,0.086,3.143-0.661,2.041,1.935
		c-0.057,0.135,0.27,0.441,0.432,0.658c0.31,0.415,0.96,0.814,0.375,1.367c-0.465,0.438-0.852-0.07-1.198-0.396
		c-0.874-0.823-1.696-0.62-2.556,0.076c-0.742,0.601-1.514,1.191-2.346,1.651c-0.988,0.547-1.466,1.367-1.158,2.373
		c0.683,2.238,0.34,4.302-0.646,6.349c-0.276,0.575-0.263,1.232,0.251,1.718c0.602,0.569,1.297,0.372,1.908,0.034
		c0.594-0.329,1.099-0.816,1.686-1.16c0.716-0.419,1.568-0.553,1.945,0.335c1.043,2.453,3.974,2.09,5.594,3.903
		c0.919,1.028,2.838,1.912,4.775,1.348c0.543-0.158,1.34,0.376,1.548,1.127c0.164,0.589-0.092,1.724-0.521,1.393
		c-1.418-1.096-3.327,0.086-4.595-1.261c-0.417-0.442-1.071-0.755-1.668-0.285c-0.585,0.461-0.457,1.144-0.161,1.697
		c0.666,1.243,0.433,2.182-0.703,3.017c-0.518,0.381-0.831,5.166-0.477,5.739c0.235,0.38,0.621,0.611,1.029,0.577
		c1.306-0.109,2.149,0.352,2.76,1.576c0.334,0.67,1.24,0.663,1.814,0.154c1.347-1.193,1.977-0.25,2.844,0.818
		c-0.43,0.13-0.67,0.26-0.915,0.267c-1.191,0.034-1.988,0.5-2.039,1.8c-0.033,0.828,0.267,1.54,1.098,1.779
		c1.322,0.38,1.798-0.579,2.258-1.556c0.241-0.512,0.446-1.207,1.429-0.828c-0.197,0.324-0.393,0.586-0.525,0.876
		c-0.247,0.543-0.3,1.121,0.314,1.426c0.697,0.346,1.41-0.067,1.473-0.663c0.323-3.033,3.132-4.158,4.648-6.26
		c0.364-0.504,0.985-0.972,1.58-0.493c0.536,0.431,1.406,1.057,0.977,1.812c-0.783,1.379,0.049,2.821-0.435,4.194
		c-0.203,0.577,0.166,1.222,0.814,1.502c0.609,0.264,1.319,0.297,1.688-0.276c0.623-0.964,1.324-0.709,2.116-0.379
		c0.694,0.289,1.38,0.657,2.106,0.794c1.577,0.299,1.869,1.165,1.334,2.532c-0.276,0.702-0.751,1.706-0.07,2.095
		c1.444,0.827,3.557,0.011,4.717,1.803c0.086,0.133,0.639-0.021,0.971-0.071c0.127-0.019,0.264-0.099,0.359-0.19
		c0.672-0.645,1.623-0.718,2.377-1.167c0.971-0.579,1.717-0.866,2.16,0.561c0.198,0.638,0.767,0.957,1.456,0.925
		c0.814-0.037,1.145-0.616,1.42-1.287c0.193-0.468-0.015-1.139,0.897-1.489c0.589,2.59,2.583,4.075,4.462,5.661
		c0.425,0.359,0.528,0.859,0.145,1.272c-1.529,1.652-0.471,2.866,0.662,4.052c0.333,0.349,0.887,0.66,0.593,1.167
		c-0.75,1.291-0.683,2.136,0.953,2.512c0.445,0.103,0.543,0.597,0.385,1.031c-0.214,0.589-0.521,1.196-1.106,1.421
		c-0.749,0.287-0.604-0.537-0.832-0.876c-0.828-1.229-1.744-1.78-2.962-0.471c-0.305,0.328-0.681,0.523-1.1,0.39
		c-1.348-0.429-2.262,0.319-3.076,1.163c-1.214,1.259-1.835,0.883-2.109-0.656c-0.186-1.038-0.78-1.795-1.694-2.182
		c-1.088-0.46-2.03-0.976-2.776-1.969c-0.572-0.761-1.413-0.722-2.062,0.153c-0.234,0.315-0.621,0.824-0.86,0.784
		c-2.812-0.474-4.109,2.324-6.466,2.967c-1.321,0.36-1.76,0.638-2.718-0.656c-1.427-1.924-2.746-4.54-6.084-3.396
		c-0.974,0.334-1.892,0.53-1.938,1.729c-0.041,1.047,0.667,1.362,1.601,1.462c1.632,0.175,0.185,1.694,0.999,2.432
		c0.441,0.401-0.59,0.395-0.932,0.613c-1.693,1.083-3.639,0.895-5.497,1.173c-1.878,0.281-2.332,1.587-1.087,3.024
		c0.291,0.335,1.067,0.701,0.412,1.051c-1.553,0.828-1.062,2.078-0.717,3.586c-0.439-0.375-0.655-0.47-0.719-0.626
		c-0.494-1.218-1.278-2.224-2.604-1.325c-1.128,0.764-1.796,1.976-0.306,3.208c0.412,0.341,0.465,0.829,0.238,1.314
		c-0.772,1.66,0.063,2.163,1.549,2.063c1.171-0.078,2.082,0.685,3.102,0.854c1.521,0.253,1.613,1.057,1.508,2.224
		c-0.013,0.146,0.244,0.313,0.37,0.475c1.22,1.569,1.624,3.749,3.811,4.499c-0.689,0.835-1.895,0.472-1.894,1.522
		c0.001,0.85,0.864,0.932,1.41,1.306c1.176,0.808,2.681,1.448,3.379,2.573c1.712,2.757,4.069,2.558,6.623,2.023
		c1.22-0.255,2.263-0.163,3.071,0.944c-2.341,1.188-2.349,1.191-0.974,3.46c0.158,0.261,0.281,0.479,0.049,0.712
		c-0.283,0.285-0.639,0.216-0.952,0.061c-0.984-0.49-1.823-0.364-2.598,0.453c-0.74,0.781-1.179,0.259-1.821-0.327
		c-1.766-1.611-3.622-0.999-4.029,1.254c-0.232,1.29-1.086,2.196-1.845,3.141c-0.358,0.446-1.101,0.834-1.567,0.124
		c-0.372-0.567,0.117-1.039,0.639-1.298c0.862-0.427,1.764-0.777,2.144-1.787c0.439-1.17-0.31-2.348-1.204-1.816
		c-1.359,0.807-3.142,0.983-4.064,2.491c-0.289,0.472-0.588,1.098-1.231,0.782c-0.651-0.317-0.089-0.817,0.064-1.218
		c0.2-0.519,0.481-1.048-0.052-1.504c-0.531-0.455-1.229-0.482-1.724-0.087c-2.594,2.071-6.226,2.641-8.088,5.816
		c-0.737,1.256-1.339,4.238-0.386,5.106c1.234,1.126,0.427,1.167-0.506,1.695c-1.678,0.949-3.422,1.992-4.686,3.4
		c-0.997,1.111-1.168,1.006-1.688-0.154c-0.365-0.815-1.093-1.211-1.989-1.217c-0.539-0.004-0.84,0.317-1.062,0.811
		c-1.02,2.252-2.419,2.787-4.52,1.79c-0.843-0.4-1.66-0.339-2.131,0.54c-0.348,0.65-0.266,1.665,0.477,1.723
		c1.665,0.13,2.43,1.413,3.541,2.255c0.576,0.438,1.564,0.912,1.837,0.421c1.073-1.938,2.456-0.853,3.78-0.648
		c0.721,0.109,1.329-0.176,1.876-0.652c0.778-0.678,1.566-0.715,2.396-0.023c0.952,0.793,1.936,1.068,2.829-0.104
		c0.281-0.368,0.83-0.674,0.99-0.275c0.852,2.108,2.493,0.812,4.316,0.849c-2.052,1.776-0.921,2.856,0.242,3.979
		c0.687,0.664,1.432,1.341,1.876,2.159c0.497,0.917,0.688,1.956,2.104,1.75c0.356-0.052,0.612,0.361,0.493,0.73
		c-0.096,0.297-0.311,0.632-0.57,0.785c-1.082,0.645-4.09-0.582-4.461-1.85c-0.209-0.71-0.597-1.07-1.288-1.076
		c-0.77-0.01-1.662,0.537-1.466,1.107c0.629,1.836-1.139,2.918-1.145,4.503c-0.004,0.915-0.393,1.082-1.337,0.808
		c-1.28-0.371-3.058,1.039-2.501,1.773c1.155,1.523,0.166,4.453,3.396,4.59c-0.769,0.85-1.353,1.42-1.845,2.061
		c-0.496,0.647-0.548,1.996,0.057,1.867c1.813-0.392,2.954,0.207,4.165,1.395c0.387,0.38,1.398-0.434,2.292,0.424
		c-1.038,0.273-1.684,1.116-2.739,0.881c-2.469-0.551-3.647,1.612-4.977,2.796c-1.683,1.498-2.898,3.421-5.367,3.816
		c-1.933,0.311-2.45,1.541-1.569,3.455c0.619,1.344-0.223,2.659-1.686,2.561c-0.744-0.053-1.496-0.174-2.129-0.661
		c-0.833-0.646-1.691-0.732-2.271,0.265c-0.626,1.079-0.254,1.969,0.812,2.583c0.401,0.229,0.966,0.152,1.281,0.74
		c-0.382,0.651-1.364,1.17-0.792,2.225c0.412,0.761,0.375,1.727-0.48,1.884c-1.123,0.207-0.566-0.919-0.676-1.452
		c-0.255-1.244-1.089-1.775-2.207-1.688c-1.047,0.083-1.8,0.717-1.661,1.926c0.099,0.859-0.431,1.775,0.252,2.584
		c0.177,0.208,0.302,0.676,0.071,0.704c-2.414,0.299-1.524,2.792-2.656,3.955c-0.521,0.534-0.241,1.309,0.248,1.872
		c0.366,0.421,0.903,0.49,1.305,0.181c1.395-1.075,3.566-0.751,4.537-2.7c0.322-0.648,1.152-1.076,1.426-1.916
		c0.254-0.771,0.827-1.101,1.594-0.541c1.725,1.262,2.516,0.303,2.873-1.293c0.217-0.971,0.738-1.761,1.135-2.625
		c0.552-1.201,1.359-1.18,1.948-0.144c0.58,1.022,1.261,1.839,2.392,1.229c1.406-0.759,0.232-1.742-0.056-2.63
		c-0.021-0.065,0.13-0.188,0.2-0.284c2.084,0.297,2.428,2.809,4.353,3.396c0.478,0.146,0.48,1.069-0.17,1.559
		c-0.714,0.533-1.03,1.243-0.228,1.861c0.818,0.63,1.58,0.199,2.077-0.581c0.831-1.304,2.192-1.33,3.545-1.521
		c-2.46,2.168-3.639,5.705-7.315,6.52c-0.484,0.107-0.973,0.55-1.294,0.965c-0.909,1.176-1.7,1.197-2.917,0.277
		c-1.586-1.197-4.981,0.562-5.051,2.548c-0.043,1.255-0.754,0.94-1.521,0.97c-1.498,0.055-2.088,1.221-2.385,2.441
		c-0.342,1.402,0.792,1.475,1.752,1.675c0.389,0.081,0.745,0.327,1.112,0.507c2.624,1.278,5.249,2.664,7.683-0.514
		c0.483,2.49,2.731,2.181,4.121,3.009c0.927,0.552,1.426-0.69,1.826-1.485c0.232-0.461,0.633-0.746,1.137-0.781
		c0.979-0.064,1.563-0.588,2.133-1.369c1.631-2.242,4.205-3.03,6.635-3.981c0.503-0.194,1.306-0.518,1.727,0.093
		c0.548,0.793-0.465,0.948-0.775,1.396c-0.392,0.563-0.482,1.188-0.016,1.702c0.567,0.629,1.238,0.444,1.832-0.023
		c0.266-0.209,0.447-0.528,0.717-0.729c1.122-0.846,1.957-0.04,2.716,0.604c0.704,0.598,1.172,1.487,0.629,2.368
		c-0.516,0.835-1.405,0.718-2.202,0.302c-0.799-0.416-1.608-0.541-2.279,0.135c-0.677,0.682-0.747,1.539-0.5,2.479
		c0.614,2.338-0.43,3.519-2.838,3.274c-2.337-0.233-3.588,1.039-3.208,3.394c0.174,1.074-0.472,1.247-1.214,1.529
		c-1.395,0.528-1.504,1.438-0.637,2.565c0.286,0.375,0.721,0.741,0.789,1.16c0.334,2.051,1.605,2.068,3.204,1.668
		c1.175-0.293,2.37-0.666,3.367,0.582c0.423,0.53,1.39,0.471,1.61-0.113c0.63-1.682,2.35-1.707,3.481-2.592
		c0.54-0.423,1.195-0.697,1.585-0.015c0.394,0.69-0.411,0.849-0.841,1.128c-1.177,0.766-1.583,1.598-0.108,2.452
		c1.064,0.616,0.41,1.032-0.089,1.536c-0.487,0.49-0.66,1.104-0.152,1.646c0.556,0.591,1.147,0.202,1.647-0.17
		c0.71-0.528,1.316-1.237,2.088-1.634c4.013-2.055,7.906-4.225,10.158-8.58c0.486,0.898-0.107,2.229,1.197,2.646
		c0.492,0.154,1.542-0.052,1.182,0.873c-0.245,0.627-1.131,0.705-1.77,0.146c-0.896-0.781-1.508-0.233-2.061,0.442
		c-0.56,0.688-0.576,1.373,0.172,1.967c0.478,0.377,0.947,0.768,0.041,1.166c-1.054,0.463-1.352,1.236-0.666,2.117
		c0.754,0.973,1.656,0.781,2.428-0.099c0.682-0.776,1.452-0.978,1.96,0.046c0.562,1.131,1.5,1.816,2.539,2.446
		c-0.701,0.938-2.183,1.454-1.173,2.804c0.714,0.951,2.066,0.114,3.126,0.74c-0.333,0.24-0.474,0.396-0.649,0.459
		c-0.718,0.252-1.865-0.027-1.847,1.171c0.015,0.919-0.037,2.039,0.914,2.599c0.98,0.576,1.665-0.217,2.313-0.812
		c0.623-0.571,1.09-0.612,1.708,0.082c1.171,1.315,2.149,0.812,2.905-0.506c0.279-0.484,0.584-1.194,1.146-0.992
		c2.251,0.808,4.989-0.188,6.863,1.378c1.41,1.18,2.943,1.271,4.474,1.707c1.419,0.402,3.06,1.241,3.182-1.417
		c0.014-0.295,0.502-0.626,0.835-0.839c0.878-0.563,1.12-1.367,1.391-2.354c0.374-1.363,0.217-3.484,2.777-3.08
		c0.631,0.101,0.767-0.658,0.878-1.205c0.097-0.465,0.129-1.064,0.771-1.024c0.7,0.044,0.568,0.634,0.51,1.104
		c-0.088,0.709-0.149,1.439,0.699,1.713c0.873,0.281,1.631-0.045,2.195-0.737c0.52-0.638,0.981-1.315,1.15-2.153
		c0.227-1.125,0.959-1.509,1.97-1.08c1.566,0.664,2.492,0.164,2.993-1.388c0.176-0.543,0.466-1.159,1.137-0.803
		c0.605,0.323,1.161,1.481,0.847,1.649c-1.356,0.717-1.886,2.586-3.606,2.652c-1.307,0.052-1.823,0.688-1.455,1.828
		c0.469,1.451-0.286,1.306-1.225,1.166c-1.531-0.229-1.617,0.729-1.282,1.775c0.609,1.912,2.173,1.408,3.427,1.045
		c1.399-0.403,2.428-0.504,3.31,0.949c0.768,1.266,1.86,1.244,2.879,0.135c0.276-0.301,0.522-0.695,0.869-0.853
		c1.303-0.583,2.461-0.163,3.272,0.89c0.596,0.771,0.234,1.425-0.741,1.641c-1.075,0.236-1.625,1.003-1.259,1.957
		c0.646,1.688,2.72,1.648,3.884,2.849c0.453,0.466,1.433-0.082,1.743-0.933c0.094-0.256,0.103-0.549,0.221-0.788
		c0.146-0.298,0.303-0.662,0.562-0.815c1.553-0.931,1.885-1.938,0.329-3.171c-0.479-0.379-0.536-0.803-0.02-1.172
		c0.497-0.354,1.05-0.403,1.457,0.126c0.194,0.255,0.288,0.62,0.329,0.947c0.124,0.979,0.42,1.792,1.609,1.689
		c1.189-0.104,1.307-1.021,1.35-1.957c0.021-0.485,0.031-1.086,0.491-1.283c1.821-0.789,2.458-2.614,3.696-4.303
		c0.474,1.668,1.526,2.043,2.889,1.932c0.532-0.045,1.163-0.006,1.322,0.688c0.138,0.594-0.417,0.772-0.761,1.09
		c-1.543,1.424-1.344,2.5,0.605,3.279c2.019,0.809,4.448,0.797,5.714,3.085c0.282,0.513,1.001,0.298,1.479-0.059
		c0.494-0.367,0.92-0.863,1.463-1.116c0.764-0.355,1.434-1.391,2.361-0.844c0.816,0.479,0.438,1.509,0.438,2.294
		c-0.01,12.663-0.069,25.327-0.815,37.977c-0.345,5.829-1.562,11.506-3.114,17.106c-0.794,2.869-1.537,3.195-4.472,2.846
		c-0.668-0.08-1.361-0.014-2.036,0.051c-3.796,0.357-7.713,0.822-11.391,0.604c-5.336-0.316-10.613-0.145-15.916-0.009
		c-1.427,0.035-2.823,0.45-4.286,0.313c-4.28-0.396-8.565-0.792-12.869-0.326c-1.086,0.117-2.198,0.464-3.25,0.328
		c-4.56-0.582-9.136,0.181-13.697-0.297c-1.889-0.198-3.711,0.761-5.692,0.508c-5.277-0.673-10.593-0.37-15.865,0.003
		c-3.722,0.265-7.44,0.53-11.167,0.694c-0.68,0.03-1.506,0.021-1.631,0.896c-0.136,0.949,0.749,0.926,1.363,1.188
		c3.457,1.469,7.147,1.332,10.704,1.094c3.761-0.253,7.401,1.776,11.148,0.34c2.416,1.471,5.154,1.289,7.791,1.755
		c1.687,0.298,3.069,1.188,4.714-0.048c0.597-0.444,1.332-0.011,1.861,0.463c0.18,0.158,0.375,0.524,0.308,0.693
		c-0.295,0.732-1.014,0.516-1.598,0.61c-0.347,0.056-0.872-0.174-0.94,0.522c1.565,0.716,3.105,0.946,4.717,0.089
		c0.46-0.244,1.045-0.363,1.57-0.356c2.62,0.035,5.241,0.319,7.854-0.184c0.365-0.069,0.979,0.013,1.148,0.255
		c1.3,1.854,3.784,0.347,5.192,1.871c0.127,0.139,0.676,0.008,0.955-0.141c1.101-0.577,2.28-0.419,3.432-0.402
		c2.521,0.033,4.946,1.205,7.528,0.646c0.352-0.076,0.797,0.135,0.762,0.504c-0.186,1.887,1.393,1.512,2.025,1.212
		c2.83-1.337,5.541-0.558,8.312,0.034c0.943,0.201,1.877-0.126,2.816-0.384c3.561-0.979,7.295-0.503,10.731,0.021
		c2.759,0.423,5.164,0.47,7.708-0.354c0.784-0.254,1.655-0.718,2.392-0.364c3.274,1.572,6.698,0.21,10.045,0.531
		c2.246,0.215,4.59-0.294,6.965,0.088c2.276,0.366,4.67-0.86,6.992,0.334c0.604,0.31,1.34-0.136,1.942-0.463
		c1.23-0.667,2.409-0.714,3.728-0.111c0.909,0.417,1.993,0.441,2.972,0.732c2.032,0.604,3.883-0.72,5.694-0.646
		c2.541,0.104,5.039-0.275,7.555-0.15c0.611,0.029,1.291-0.05,1.822,0.188c2.455,1.092,4.854,0.275,7.229-0.191
		c1.078-0.215,1.893-0.259,2.889,0.317c1.197,0.69,2.564,1.131,3.476-0.612c0.336-0.645,1.063-0.508,1.668-0.566
		c6.828-0.687,13.657-1.396,20.483-2.074c2.293-0.229,4.945-0.965,7.178,0.535c1.25,0.84,2.124,0.523,3.104-0.43
		c-0.502-0.732-1.974-0.281-1.54-1.453c0.286-0.777,1.396-1.271,2.087-0.786c1.749,1.229,3.244,0.946,4.912-0.105
		c0.486-0.307,1.336-0.112,2.006-0.034c0.683,0.08,1.393,0.344,2.014-0.02c2.145-1.245,4.465-0.905,6.77-1.168
		c3.743-0.429,7.495-0.385,11.226-0.775c1.416-0.147,2.883,0.192,4.29-0.089c0.007-0.077,0.007-0.153,0.015-0.23
		c0.093-0.971,0.169-1.938,0.234-2.91c-0.234,0.003-0.479-0.002-0.726-0.013C364.288,422.521,360.911,421.656,357.49,422.212z
		 M366.674,307.796c1.891-0.478,3.78-1.149,5.176,1.29c0.685,1.193,2.645,1.537,1.364,3.675c-0.572,0.957,1.325,2.251,2.864,1.941
		c0.865-0.175,1.676-0.571,1.56,0.909c-0.067,0.889,0.711,0.605,1.188,0.715c0.328,0.074,0.744,0.068,0.754,0.521
		c0.008,0.394-0.338,0.554-0.662,0.683c-0.646,0.255-1.307,0.424-2.002,0.244c-0.891-0.231-1.727-0.205-2.585,0.223
		c-0.832,0.413-1.536,0.229-1.537-0.861c-0.001-3.101,0.021-3.101-3.036-3.349c-0.702-0.101-1.516-0.286-2.24,0.33
		c-0.392,0.334-0.87,0.493-1.298,0.093c-0.569-0.539,0.04-0.807,0.323-1.148c0.868-1.047,0.436-1.807-0.461-2.604
		C364.87,309.38,365.115,308.189,366.674,307.796z M357.694,310.279c1.51-0.038,2.312,0.307,1.239,1.981
		c-0.506,0.793-0.277,1.666,0.588,2.091c0.961,0.471,1.543-0.069,1.785-1.021c0.116-0.456,0.16-1.125,0.813-0.883
		c0.813,0.304,0.521,1.32,0.938,1.935c0.253,0.37,0.229,0.89-0.315,0.945c-0.986,0.104-1.761,0.696-2.651,0.975
		c-0.794,0.248-1.479-0.157-1.757-0.995c-0.413-1.254-1-2.094-2.528-1.481c-0.645,0.258-0.834-0.218-0.839-0.771
		C354.954,311.99,356.605,310.313,357.694,310.279z M323.244,323.289c-2.244-0.814-4.943-0.713-6.286-3.314
		c-0.706-1.367-1.236-1.357-3.691-0.211c0.962-2.063,2.502-2.406,4.343-1.098c1.95,1.391,3.852,2.852,5.777,4.284
		C323.337,323.068,323.25,323.291,323.244,323.289z M337.431,231.577c0.595-0.252,1.089-0.089,1.399,0.448
		c0.468,0.809,1.211,1.702,0.491,2.607c-0.77,0.964-1.599,1.834-1.78,3.118c-0.039,0.27-0.239,0.565-0.535,0.485
		c-0.206-0.056-0.46-0.331-0.494-0.54c-0.096-0.599-0.09-1.213-0.122-1.781c0.076-0.853,0.224-1.664,0.2-2.47
		C336.568,232.648,336.574,231.941,337.431,231.577z M328.377,186.508c0.395,0.706-0.197,0.946-0.414,1.319
		c-0.318,0.55-0.646,1.127-0.206,1.709c0.489,0.642,1.267,0.661,1.864,0.301c1.277-0.768,2.328-0.3,3.09,0.632
		c1.258,1.542,2.415,1.587,3.688,0.104c0.948,1.641,0.254,3.471-1.513,4.138c-2.538,0.959-2.557,1.021-0.837,3.07
		c-0.738,0.303-1.469,0.561-2.161,0.897c-0.846,0.412-1.249-0.117-1.693-0.671c-0.409-0.508-0.789-0.983-0.175-1.595
		c0.596-0.588,1.291-1.26,0.734-2.118c-0.532-0.823-1.58-0.693-2.446-0.74c-0.597-0.032-1.204,0.124-2.063,0.228
		c1.087-2.755,0.912-3.174-1.501-3.707c1.337-1.719,1.414-3.192-0.767-4.274c-0.768-0.381-0.769-1.212-0.543-1.943
		C325.824,183.514,326.123,186.843,328.377,186.508z M320.85,102.57c0.133-1.065,0.813-1.764,1.801-2.01
		c1.459-0.365,1.976-1.085,1.307-2.514c-0.581-1.241,0.686-0.863,1.109-1.162c0.644-0.455,0.944-0.003,1.139,0.62
		c0.418,1.356-0.293,2.241-1.24,2.995c-1.223,0.974-1.551,1.896-0.034,2.886c0.389,0.253,0.986,0.521,0.818,1.047
		c-0.255,0.797-0.933,0.15-1.411,0.248c-0.729-0.252-1.446,0.693-2.146,0.056C321.547,104.152,320.721,103.621,320.85,102.57z
		 M319.48,216.374c0.714,0.786,1.678,1.443,1.904,2.583c0.055,0.27-0.219,0.569-0.512,0.51c-2.383-0.477-4.337,1.025-6.535,1.375
		c-0.597,0.095-1.213,0.214-2.075-0.188c2.14-1.244,3.999-2.385,5.638-3.855C318.342,216.401,318.938,215.774,319.48,216.374z
		 M313.869,136.067c0.211-0.438,0.395-1.244,1.092-0.94c0.704,0.307,0.434,1.034,0.259,1.625c-0.057,0.192-0.121,0.381-0.181,0.568
		c0.439,0.439,0.763-0.038,1.121-0.103c0.697-0.126,1.479-0.298,1.58,0.69c0.087,0.865-0.318,1.915-1.242,1.77
		c-1.729-0.271-3.776,0.168-5.118-1.85C312.209,137.156,313.373,137.102,313.869,136.067z M289.73,69.084
		c0.371-0.388,0.877-0.625,1.016-1.22c0.111-0.483-0.04-1.286,0.768-1.188c0.814,0.1,0.771,1.027,1.117,1.58
		c0.352,0.563,0.243,1.018-0.396,1.325c-0.674,0.325-1.355,0.646-1.984,1.049c-0.898,0.578-1.877,1.057-2.146,2.304
		c-0.248,1.135-1.313,1.13-2.346,1.407C286.195,71.64,288.277,70.609,289.73,69.084z M146.654,284.167
		c-0.709-0.226-1.612,0.153-1.41,0.647c0.9,2.201-4.463,2.627-1.418,5.287c0.295,0.258,0.484,0.657,0.66,1.021
		c0.154,0.318,0.158,0.71-0.181,0.914c-0.399,0.24-0.616-0.094-0.792-0.395c-0.902-1.545-2.019-2.58-4.02-2.649
		c-1.056-0.038-1.32-1.411-1.243-2.293c0.117-1.339,1.079-0.446,1.719-0.398c1.624,0.121,2.591-1.33,4.017-1.729
		c0.344-0.096,0.24-0.705,0.123-1.123c-0.143-0.512-0.994-1.08-0.101-1.549c0.633-0.332,1.354-0.078,1.892,0.418
		c0.488,0.451,1.068,0.849,1.305,1.707C146.898,284.107,146.757,284.199,146.654,284.167z M147.969,269.279
		c-0.668-0.362-1.341-0.18-1.846,0.402c-0.873,1.006,0.363,1.723,0.439,2.881c-1.173-0.121-1.734-1.069-2.692-1.225
		c-0.531-0.085-0.445-0.689-0.097-0.963c1.473-1.146,1.118-2.657,0.883-4.133c-0.156-0.975-0.042-2.104,0.949-2.166
		c2.102-0.137,2.603-1.369,2.775-3.248c1.05,1.352,2.997,2.098,2.022,4.308c-0.144,0.323-0.145,0.755,0.149,0.949
		c1.497,1.001,0.322,1.881-0.14,2.724C149.83,269.873,148.955,269.816,147.969,269.279z M166.855,280.059
		c-1.379,1.563-2.761,2.953-5.212,2.183c-1.327-0.418-2.542,0.006-3.14,1.532c-0.407,1.037-1.184,1.824-2.176,2.371
		c-0.434,0.237-0.851,0.963-1.36,0.269c-0.449-0.613-0.293-1.345,0.286-1.842c0.29-0.25,0.746-0.306,1.123-0.46
		c0.623-0.254,1.152-0.717,0.953-1.385c-0.355-1.188-1.463-1.756-2.443-2.326c-0.798-0.463-1.6-0.072-2.244,0.508
		c-0.501,0.449-0.823,1.107-1.532,1.313c-0.571,0.163-1.154,0.891-1.68,0.469c-0.788-0.633,0.232-0.996,0.477-1.463
		c0.308-0.59,0.004-1.047-0.21-1.543c-0.229-0.529,0.039-0.922,0.396-1.271c0.461-0.451,0.837-0.25,1.216,0.146
		c0.806,0.842,1.859,0.758,2.881,0.692c2.07-0.13,4.141-0.287,6.209-0.452c1.157-0.092,2.09-0.561,2.635-1.656
		c0.721-1.453,2.082-1.983,3.861-2.67c-0.586,1.35-1.586,1.516-2.176,2.145c-0.592,0.631-1.067,1.388-0.538,2.189
		c0.462,0.7,1.202,0.399,1.847,0.086c0.392-0.188,0.842-0.719,1.223-0.115C167.542,279.236,167.174,279.695,166.855,280.059z
		 M177.158,277.7c-1.904,0.176-2.54,1.013-2.051,2.874c0.193,0.736,0.518,1.447-0.013,2.145c-0.392,0.519-0.694,1.354-1.542,1.038
		c-0.789-0.294-0.503-0.972-0.292-1.575c0.262-0.75-0.008-1.385-0.667-1.754c-0.782-0.438-1.437-0.076-2.002,0.519
		c-0.426,0.446-0.82,1.461-1.537,0.637c-0.645-0.74,0.716-0.867,0.774-1.29c0.337-2.426,3.057-2.121,4.132-3.729
		c0.498-0.742,2.051-0.354,4.677,0.859C178.094,277.996,177.604,277.659,177.158,277.7z M202.829,322.579
		c-0.929-0.147-1.727,0.204-2.577,0.458c-0.884,0.264-1.169-0.262-0.817-1.016c0.47-1.013,0.64-1.938-0.217-2.824
		c-0.252-0.262-0.39-0.592-0.106-0.9c0.311-0.337,0.739-0.308,1.146-0.217c1.031,0.232,3.098,2.792,3.118,3.85
		C203.443,322.357,203.213,322.641,202.829,322.579z"/>
</g>
</svg>
