<?xml version="1.0" encoding="utf-8"?>
<!-- Generator: Adobe Illustrator 16.0.0, SVG Export Plug-In . SVG Version: 6.00 Build 0)  -->
<!DOCTYPE svg PUBLIC "-//W3C//DTD SVG 1.1//EN" "http://www.w3.org/Graphics/SVG/1.1/DTD/svg11.dtd">
<svg version="1.1" id="Layer_1" xmlns="http://www.w3.org/2000/svg" xmlns:xlink="http://www.w3.org/1999/xlink" x="0px" y="0px"
	 width="500px" height="500px" viewBox="0 0 500 500" enable-background="new 0 0 500 500" xml:space="preserve">
<circle fill="#FFFFFF" cx="249.316" cy="249.316" r="249.316"/>
<g>
	<path fill="none" d="M391.302,163.509c1.506-0.692,2.464,0.079,3.526,0.909c0.695,0.543,1.535,0.565,2.311,0.076
		c0.509-0.321,0.801-0.81,0.872-1.419c-0.036-0.702-0.503-0.99-1.104-1.124c-1.591-0.352-3.428-0.028-4.271-2.133
		c-0.265-0.659-1.353-0.326-1.961,0.195c-0.762,0.65-0.936,1.519-0.734,2.464C390.092,163.203,390.585,163.838,391.302,163.509z"/>
	<path fill="none" d="M438.068,297.491c-2.312-0.652-2.079-1.974-1.403-3.812c1.433-3.895,3.262-7.746,2.414-12.111
		c-0.106-0.549,0.131-1.231-0.449-1.584c-0.652-0.396-1.041,0.23-1.494,0.548c-0.311,0.216-0.558,0.64-1.039,0.343
		c0.252-2.188-1.733-4.884-3.942-5.35c-0.852-0.18-2.006,0.074-2.246-1.101c-0.249-1.215,1.006-1.325,1.68-1.843
		c1.922-1.471,1.619-2.503-0.475-3.762c-1.724-1.033-2.851,0.009-4.3,0.707c0.119-1.672,0.397-2.977,1.077-4.258
		c0.837-1.58,0.133-2.664-1.639-2.479c-1.347,0.142-2.617,0.001-3.928-0.175c-1.663-0.225-3.405-1.061-4.934,0.476
		c-0.146,0.149-0.676,0.101-0.901-0.049c-0.501-0.329-0.229-0.637,0.131-0.948c0.896-0.777,0.133-0.824-0.443-0.962
		c-0.647-0.153-1.779,0.118-1.473-1.073c0.257-0.994,1.219-0.547,1.92-0.474c1.402,0.147,2.582-0.282,2.878-1.724
		c0.382-1.86,0.646-3.764-1.365-5.106c-1.088-0.726-1.979-1.741-2.979-2.604c-0.742-0.639-0.533-1.305-0.116-1.987
		c0.377-0.618,0.931-0.984,1.659-0.816c0.923,0.213,0.821,0.876,0.561,1.559c-0.293,0.764,0.086,1.271,0.661,1.688
		c0.649,0.469,1.258,0.24,1.829-0.164c1.579-1.113,2.587-2.482,1.284-4.356c-0.608-0.875-0.424-1.461,0.042-2.222
		c2.429-3.972,5.154-7.558,9.359-9.969c2.454-1.406,4.211-3.769,4.08-6.933c-0.049-1.191,0.562-2.803-0.69-3.431
		c-1.159-0.581-2.873,0.061-3.652,0.866c-2.768,2.855-5.576,4.614-9.477,2.204c-2.813,1.086-3.961-0.295-4.447-2.883
		c-0.121-0.643-0.613-1.252,0.045-1.779c0.552-0.44,1.112-0.061,1.575,0.288c1.318,0.993,2.611,2.021,3.925,3.023
		c2.064,1.578,4.824,1.487,6.19-0.466c0.946-1.354,1.804-2.429,3.598-2.6c0.871-0.083,1.715-0.734,1.761-1.814
		c0.039-0.932-0.668-1.237-1.438-1.421c-0.508-0.121-0.811-0.363-1.001-0.93c-1.15-3.412-1.235-3.443-4.671-2.785
		c0.171-1.938,1.271-2.362,2.888-1.968c1.58,0.385,2.303-0.455,2.743-1.78c0.277-0.837,0.961-1.772,0.021-2.497
		c-1.14-0.879-1.978,0.078-2.803,0.757c-0.063,0.053-0.125,0.109-0.194,0.153c-0.438,0.277-0.943,0.523-1.285-0.034
		c-0.291-0.475,0.186-0.729,0.527-0.95c0.987-0.638,1.825-1.427,2.401-2.457c0.435-0.777,0.527-1.588-0.123-2.301
		c-0.674-0.737-1.486-0.622-2.269-0.201c-0.849,0.458-1.667,0.975-2.7,1.585c0.081-1.761,0.325-3.145,1.764-4.067
		c0.718-0.46,1.104-1.228,1.407-2.001c0.641-1.646-0.382-2.899-1.656-2.218c-3.144,1.681-6.06,1.807-9.153,0.225
		c-0.062-0.031-0.162,0.02-0.244,0.024c-0.485,0.027-1.119,0.169-1.299-0.391c-0.252-0.79,0.568-0.87,1.025-1.143
		c3.383-2.02,3.795-5.308,1.023-8.237c-1.304-1.378-2.743-1.111-3.47,0.629c-0.321,0.767,0,1.881-1.147,2.242
		c-0.924-1.876,0.364-5.524,2.595-6.394c2.762-1.076,3.511-3.532,4.638-5.759c0.417-0.823,0.46-2.081-0.695-2.253
		c-2.441-0.366-5.18-1.925-7.128,1.133c-0.169,0.265-0.582,0.294-0.867-0.018c1.75-3.512,1.801-3.806,0.477-5.199
		c-0.564-0.594-1.271-1.051-1.89-1.597c-1.142-1.005-0.935-1.854,0.389-2.441c0.596-0.264,1.287-0.308,1.9-0.54
		c0.733-0.277,1.286-0.796,1.325-1.634c0.04-0.85-0.683-1.016-1.279-1.296c-2.834-1.33-3.677-0.96-4.69,2.015
		c-0.241,0.706,0.031,1.902-1.184,1.846c-0.97-0.044-0.825-1.075-1.054-1.744c-1.251-3.675-1.316-3.194-5.101-2.507
		c-2.523,0.458-4.266,4.615-7.514,1.708c-0.334-0.299-1.038,0.34-1.418,0.796c-1.022,1.23-2.06,1.183-3.144,0.076
		c-0.602-0.614-1.368-0.895-2.213-1.013c-1.275-0.179-2.383-0.444-1.367-2.15c0.4-0.672,0.14-1.447-0.649-1.554
		c-2.341-0.317-4.874-2.505-6.897,0.885c-0.388-1.195,0.411-2.652-1.211-2.882c-1.354-0.192-1.742,1.043-2.367,1.869
		c-0.404,0.533-0.779,1.169-0.624,1.833c0.586,2.497-1.156,3.285-2.926,3.788c-1.57,0.446-2.885,0.729-2.434,2.852
		c0.171,0.802-0.475,1.377-1.228,1.662c-0.562,0.211-1.166,0.264-1.601-0.255c-0.522-0.625-0.145-1.241,0.107-1.85
		c0.188-0.458,0.347-0.928,0.52-1.393c1.165-3.124,0.041-5.062-3.104-5.465c0.427-1.922,0.859-3.849,1.282-5.778
		c0.111-0.506-0.38-1.305,0.491-1.43c0.668-0.096,0.929,0.577,1.163,1.106c0.323,0.732,0.753,1.364,1.667,1.103
		c0.901-0.258,1.249-1.009,1.354-1.892c0.115-0.979-0.293-1.764-0.889-2.491c-0.769-0.936-1.029-2.052-1.111-3.229
		c-0.028-0.417-0.088-0.9,0.379-1.058c0.241-0.082,0.621,0.075,0.876,0.229c2.432,1.468,3.182,1.212,4.504-1.483
		c0.302-0.613,0.064-1.469,1.049-1.797c3.079-1.028,4.68-4.819,2.93-7.335c-0.986-1.418-0.525-1.609,0.729-2.17
		c2.21-0.989,2.146-2.08,0.717-4.09c-0.932-1.307-2.682-2.411-2.96-3.42c-0.548-1.968-1.973-3.606-2.054-5.759
		c0.759-0.355,1.392,0.434,2.114,0.286c1.633-0.333,2.925-1.386,2.835-2.955c-0.097-1.678-1.693-1.106-2.783-0.923
		c-0.922,0.155-1.803,0.077-2.7-0.124c-0.937-0.209-1.769-0.082-2.462,0.721c-2.07,2.403-2.143,2.393-4.898,0.028
		c1.589,0.586,2.883,0.704,3.472-0.745c0.48-1.182,1.104-2.146,2.066-3.001c0.83-0.737,1.106-1.954-0.197-2.377
		c-1.368-0.445-2.893-0.726-4.375-0.374c-0.458,0.109-0.821,0.577-1.278,0.735c-0.771,0.268-1.775,0.249-1.353-0.858
		c0.396-1.033,1.792-1.044,2.78-1.364c0.464-0.149,1.146,0.109,1.637,0.362c2.315,1.195,2.94-0.454,3.507-2.079
		c0.709-2.038-0.929-2.119-2.184-2.406c-0.717-0.164-1.474-0.153-2.211-0.217c-0.642-0.056-1.49,0.097-1.615-0.763
		c-0.128-0.877,0.38-1.626,1.186-1.996c0.509-0.233,1.129-0.209,1.688-0.346c0.864-0.211,1.562-0.638,1.528-1.657
		c-0.031-0.951-0.818-0.831-1.453-0.964c-2.256-0.476-3.724-1.689-3.796-4.171c-0.073-2.496-2.067-3.566-3.838-4.396
		c-1.354-0.635-1.573-0.907-0.606-1.962c0.676-0.737,1.205-1.706-0.07-2.167c-1.188-0.43-3.297-1.546-3.64,0.163
		c-0.501,2.506-1.769,2.951-3.821,3.114c-1.125,0.089-2.324,2.089-3.189,0.711c-0.646-1.03,1.248-2.015,1.998-3.024
		c0.56-0.752,1.863-1.281,1.148-2.426c-0.675-1.08-0.883-2.067-0.567-3.262c0.128-0.484-0.005-1.013-0.472-1.318
		c-0.567-0.37-1.118-0.163-1.613,0.184c-0.629,0.441-1.025,1.049-1.262,1.787c-0.674,2.119-1.428,4.214-2.042,6.35
		c-0.332,1.155-1.042,1.695-2.146,1.633c-1.318-0.075-0.882-1.118-0.89-1.888c-0.021-1.723-1.101-2.131-2.509-1.837
		c-1.423,0.296-2.586,1.138-3.333,2.394c-0.726,1.22-1.44,2.257-3.113,1.624c-1.717-0.65-1.489-2.032-1.189-3.325
		c0.504-2.177-0.607-2.546-2.307-2.114c-1.686,0.429-3.344,0.869-5.104,0.898c-1.16,0.019-1.527,0.721-1.287,1.867
		c0.461,2.198,1.418,2.615,3.474,1.327c0.829-0.52,1.82-1.11,2.375-0.133c0.728,1.278-0.814,1.348-1.475,1.7
		c-1.362,0.728-2.997,1.007-3.678,2.689c-0.155,0.386-0.586,0.626-1.022,0.339c-0.421-0.277-0.334-0.725-0.196-1.122
		c0.643-1.839,0.021-4.113-1.128-4.7c-1.985-1.017-2.204-1.898-1.089-3.575c-1.186-0.285-1.453,1.023-2.342,0.907
		c-0.626-0.083-1.736-0.283-0.979-1.002c1.14-1.083,0.892-2.705,1.864-3.688c2.371-2.396-0.223-3.932-0.984-5.699
		c-0.616-1.424-2.03-0.521-3.119-0.527c-0.864-0.005-2.035,0.495-2.476-0.491c-0.385-0.865,0.795-1.296,1.246-1.943
		c0.096-0.135,0.201-0.27,0.328-0.371c1.245-0.981,2.207-2.429,3.904-0.171c1.45,1.929,5.402,1.152,6.432-0.891
		c0.368-0.732,0.396-1.435-0.101-2.096c-0.383-0.511-1.023-0.82-1.522-0.463c-1.049,0.75-1.956,0.133-2.902,0.123
		c-1.911-0.02-1.858-0.787-2.023-2.095c-0.208-1.649-1.731-2.178-2.999-2.604c-1.096-0.369-1.741,0.683-2.24,1.564
		c-0.36,0.636-0.632,1.621-1.537,1.256c-1.17-0.472-2.745-1.04-3.158-1.994c-0.467-1.076,1.343-1.341,2.122-2.002
		c0.188-0.16,0.405-0.286,0.595-0.446c1.032-0.875,1.724-2.011,0.99-3.254c-0.915-1.55-1.781-0.143-2.628,0.317
		c-0.146,0.078-0.302,0.136-0.457,0.187c-3.847,1.257-4.187,1.779-3.572,5.919c-1.312-1.34-4.172-0.727-3.355-3.888
		c0.213-0.819-1.156-0.911-1.996-0.88c-1.109,0.042-2.207,0.75-3.387,0.09c0.089-1.09,1.016-1.69,1.398-2.582
		s0.348-1.62-0.621-2.063c-2.074-0.949-4.229,0.076-6.363-0.21c-1.238-0.166-1.299,1.517-1.902,2.346
		c-0.841,1.152-1.393,2.993-2.994,0.646c-0.381-0.559-1.135-0.74-1.807-0.608c-2.462,0.482-4.923,0.171-7.383,0.068
		c-1.137-0.047-1.881,0.327-1.533,1.549c0.34,1.2-0.347,1.367-1.193,1.675c-3.194,1.163-5.16-0.514-6.947-2.821
		c-1.452-1.873-3.234-1.959-4.36-0.03c-0.966,1.652-1.793,1.362-2.901,0.389c-0.443-0.391-0.914-0.762-1.529-0.715
		c-1.748,0.135-2.227-1.024-2.608-2.395c-0.702-2.523-2.627-3.257-4.813-1.87c-0.471,0.298-0.897,1.001-1.482,0.568
		c-0.735-0.544-0.111-1.19,0.18-1.742c0.438-0.835,0.944-1.77-0.031-2.432c-1.021-0.694-1.716,0.111-2.532,0.792
		c-1.692,1.409-2.194,3.452-3.269,5.182c-0.49,0.788-1.291,1.306-0.734,2.282c0.594,1.043,1.563,1.386,2.76,1.114
		c0.634-0.144,1.228-1.016,2.168,0.051c-2.161,1.96-3.836,4.211-3.509,7.396c0.073,0.704-0.665,1.164-1.412,1.065
		c-0.968-0.128-2.129-0.096-2.733-0.936c-0.721-1,0.482-1.581,0.869-2.332c0.365-0.706,1.193-1.3,0.688-2.22
		c-0.467-0.85-1.329-0.342-2.019-0.46c-2.498-0.427-4.01-3.023-6.688-3.091c-1.698-4.526-6.307-2.034-9.191-3.757
		c-0.495-0.296-1.034,0.67-1.538,1.08c-2.105,1.709-4.005,4.271-7.162,1.694c-0.319-0.26-0.992-0.264-1.443-0.154
		c-1.404,0.345-2.674,0.282-4.085-0.25c-1.435-0.541-3.532,2.172-2.78,3.62c0.739,1.424,1.146,3.148,2.766,4.004
		c0.721,0.38,1.182,0.996,0.823,1.833c-0.394,0.917-1.169,1.004-2.082,0.802c-3.348-0.74-3.786-0.406-4.106,3.211
		c-0.135,1.521-1.352,2.237-2.405,2.501c-1.224,0.307-0.863-1.225-1.308-1.847c0.542-0.678,1.958,0.383,1.805-0.756
		c-0.136-1.008,0.306-2.305-0.579-3.057c-1.626-1.381-2.804,0.578-4.386,0.876c-0.034-0.483-0.012-0.886-0.098-1.264
		c-0.346-1.511-1.26-2.586-2.823-2.679c-1.477-0.087-2.145,1.057-2.498,2.331c-0.198,0.713-0.312,1.451-0.435,2.182
		c-0.21,1.257-0.752,2.391-1.566,3.318c-0.521,0.595-1.521,1.28-1.541-0.395c-0.022-1.867-1.212-1.72-2.388-1.478
		c-1.181,0.244-2.242,0.198-2.698-1.044c-0.824-2.242-2.309-1.441-3.611-0.79c-1.626,0.813-0.885,2.066-0.274,3.165
		c0.479,0.861,1.036,1.681,1.586,2.5c0.399,0.595,0.476,1.304-0.363,1.212c-1.468-0.162-2.498,0.731-3.728,1.129
		c-2.426,0.784-2.596,1.128-0.973,3.085c1.02,1.229,1.079,1.908-0.539,2.496c-1.499,0.543-2.032,1.62-1.314,3.148
		c0.584,1.242-0.143,2.096-0.957,2.799c-0.964,0.832-1.605-0.199-2.387-0.564c-1.824-0.854-0.581-1.607,0.011-2.405
		c0.624-0.843,1.061-1.731,0.295-2.704c-0.458-0.582-1.363-0.905-1.734-0.385c-1.246,1.752-3.401,2.458-4.614,4.126
		c-1.172,1.611-2.209,1.694-3.655,0.459c-1.414-1.206-3.488-0.974-4.032,0.736c-0.565,1.781-0.99,3.435-2.451,4.764
		c-0.533,0.485,0.047,1.358,0.612,1.937c0.425,0.434,1.371,0.238,1.411,1.283c-0.742,0.096-1.477,0.135-2.184,0.293
		c-1.527,0.342-2.088,1.42-0.945,2.47c2.088,1.922,0.639,2.296-0.944,2.827c-0.623,0.209-1.253,0.458-1.808,0.804
		c-0.998,0.623-0.999,1.642-0.844,2.655c0.125,0.815,0.746,1.708,1.421,1.36c1.774-0.917,3.752,0.695,5.434-0.667
		c0.584-0.473,1.388-0.293,1.62,0.486c0.322,1.082-0.59,1.201-1.33,1.284c-1.139,0.126-2.34-0.017-3.244,0.929
		c-0.734,0.767-1.202,1.635-0.698,2.68c0.488,1.016,1.281,0.643,2.128,0.429c1.667-0.421,2.152,0.596,1.758,1.952
		c-0.334,1.152-0.775,2.155,0.18,3.221c0.525,0.584,0.421,1.236-0.271,1.687c-0.646,0.421-1.247,0.346-1.76-0.257
		c-1.338-1.571-2.422-0.885-3.425,0.396c-0.661,0.846-1.329,1.689-1.944,2.569c-0.561,0.8-1.236,1.334-2.258,1.253
		c-0.353-0.028-0.701-0.247-0.596-0.613c0.245-0.85,1.168-0.812,1.769-1.204c0.139-0.09,0.307-0.148,0.42-0.262
		c0.866-0.879,2.087-1.854,1.341-3.134c-0.739-1.268-1.894-0.201-2.846,0.155c-0.31,0.116-0.614,0.268-0.935,0.326
		c-1.721,0.315-2.856-0.774-3.771-1.898c-0.777-0.954,0.055-1.909,0.757-2.591c1.179-1.144,2.948-2.219-0.138-3.097
		c-2.237-0.636,1.243-3.404-1.467-3.818c-0.163-0.025-0.324-0.068-0.488-0.085c-0.977-0.098-1.437-0.581-1.464-1.615
		c-0.049-1.82-1.058-1.523-2.159-0.872c-0.51,0.302-0.667,1.226-1.533,0.902c-0.374-0.549,0.015-0.964,0.201-1.396
		c0.342-0.796,0.574-1.638-0.099-2.318c-0.797-0.803-1.732-0.261-2.552,0.031c-1.229,0.438-1.302,1.421-1.271,2.622
		c0.051,2.126-0.125,4.262-0.299,6.386c-0.053,0.655-0.469,1.377-1.178,1.445c-0.895,0.085-0.64-0.761-0.69-1.273
		c-0.083-0.837-0.052-1.829-1.226-1.754c-1.094,0.07-1.818,0.805-1.919,1.929c-0.072,0.804,0.294,1.645-0.204,2.417
		c-0.23,0.357-0.506,0.698-0.975,0.633c-0.203-0.029-0.56-0.329-0.541-0.372c0.92-2.115-0.904-4.124-0.146-6.295
		c1.007-2.882-0.83-5.312-3.843-5.391c-0.686-0.018-1.375,0.01-1.712,0.714c-0.358,0.75,0.118,1.23,0.675,1.661
		c0.483,0.374,1.351,0.584,0.887,1.478c-0.607,1.167-3.557,1.281-4.348,0.203c-1.025-1.396-2.236-1.294-2.829,0.358
		c-0.511,1.423-0.772,2.935-1.149,4.43c-3.06-1.928-6.004-1.292-7.062,1.45c-0.47,1.215-0.212,2.03,1.218,1.923
		c1.399-0.105,3.144-0.662,3.49,1.209c0.312,1.681-1.771,1.322-2.685,2.015c-1.016,0.772-2.705,1.027-2.146,2.8
		c0.473,1.501,1.82,1.421,3.119,1.18c0.798-0.148,1.513,0.03,1.822,0.883c0.275,0.758-0.148,1.274-0.749,1.65
		c-0.801,0.501-1.431,1.058-1.476,2.125c-0.027,0.622,0.723,1.675-0.502,1.788c-0.84,0.077-1.109-0.871-1.332-1.581
		c-0.532-1.702-1.847-3.182-3.314-3.299c-2.385-0.19-4.652-0.976-7.036-1.032c-0.823-0.02-1.716-0.329-2.28,0.483
		c-0.633,0.912,0.148,1.509,0.657,2.144c0.616,0.77,1.262,1.882-0.379,1.813c-2.866-0.121-4.226,2.314-6.418,3.279
		c-0.654,0.288-0.997,0.898-0.811,1.639c0.206,0.816,0.837,1.419,1.618,1.224c1.381-0.344,2.807,0.295,4.146-0.336
		c0.741-0.349,2.049-0.802,2.052,0.155c0.005,1.114,1.081,2.812-0.975,3.57c-3.27,1.205-6.445,2.742-10.098,1.957
		c-0.501-0.107-1.008,0.034-1.276,0.542c-0.332,0.63-0.056,1.163,0.452,1.506c0.886,0.599,1.884,1.043,2.729,1.691
		c0.67,0.512,1.34,1.14-0.119,1.722c-2.431,0.97-2.785,2.371-1.328,5.851c0.937,2.237,2.096,0.414,3.136-0.048
		c0.715-0.317,1.363-0.204,1.72,0.46c0.466,0.868-0.252,1.105-0.889,1.384c-0.595,0.26-1.227,0.53-1.7,0.954
		c-0.874,0.78-1.327,1.826-0.524,2.853c0.774,0.989,1.605,0.427,2.311-0.266c0.368-0.362,0.633-0.643,1.173-0.077
		c2.221,2.331,2.84,2.164,4.073-1.039c0.288-0.747,0.848-1.75,1.429-0.812c1.051,1.694,2.461,1.994,4.168,2.056
		c0.507,0.019,0.989,0.308,1.02,0.896c0.034,0.657-0.468,0.752-0.999,0.802c-2.977,0.281-3.825,1.297-3.549,4.219
		c0.637,6.724-1.808,10.551-8.098,12.678c-2.123,0.718-2.636,1.808-1.733,3.946c0.216,0.511,0.2,0.809-0.277,0.95
		c-1.765,0.521-3.599,1.567-4.963-0.78c-1.037-1.783-2.155-1.778-3.39-0.067c-0.726,1.004-1.523,1.076-1.716-0.434
		c-0.308-2.413-2.396-2.415-4.024-2.883c-0.844-0.243-1.518,0.513-1.84,1.355c-0.365,0.952-0.229,1.787,0.656,2.406
		c0.741,0.518,1.529,0.981,2.213,1.567c0.613,0.526,0.817,1.252,0.359,2.009c-0.433,0.717-1.049,1.694-1.881,1.257
		c-1.883-0.988-3.025,0.327-4.523,0.891c-1.687,0.636-2.777,1.736-3.025,3.27c-0.27,1.671,1.58,1.248,2.502,1.743
		c0.383,0.205,0.754,0.475,0.607,0.944c-0.176,0.562-0.642,0.418-1,0.199c-1.383-0.849-2.276,0.137-3.164,0.968
		c-0.809-0.845-0.008-2.52-1.557-2.636c-1.354-0.102-1.629,1.149-2.185,2.047c-0.839,1.354-0.168,2.071,0.917,2.829
		c1.553,1.082,2.962,1.642,4.699,0.249c1.549-1.243,3.244-0.198,4.147,0.805c0.952,1.058-0.64,1.955-1.356,2.779
		c-0.316,0.362-0.752,0.672-1.195,0.86c-1.387,0.587-2.31,1.506-1.742,3.058c0.667,1.823,1.922,0.088,2.849,0.236
		c0.313,0.602,0.003,1.033-0.253,1.435c-0.712,1.121-1.261,2.263,0.051,3.285c1.256,0.978,2.325,0.2,3.35-0.554
		c0.732-0.539,1.462-1.081,2.196-1.616c0.4-0.292,0.847-0.658,1.314-0.229c0.457,0.42,0.119,0.916-0.059,1.369
		c-0.499,1.27-1.509,1.846-2.759,2.258c-1.067,0.353-1.841,1.145-1.815,2.396c0.015,0.713,0.536,1.644,1.034,1.491
		c2.539-0.78,4.639,2.255,7.274,0.68c0.733-0.438,1.89-0.029,2.403,0.805c0.551,0.892-0.441,1.209-0.914,1.738
		c-1.633,1.829-3.456,3.49-4.578,5.756c-1.602,3.234-3.146,3.869-6.623,2.914c-0.82-0.226-1.605-0.547-2.281,0.222
		c-0.354,0.405-0.362,0.913-0.15,1.401c0.422,0.971,1.27,1.18,2.221,1.293c0.797,0.096,1.724-0.722,2.473,0.241
		c-0.641,1.078-1.683,1.109-2.626,1.337c-0.976,0.237-1.837,0.717-1.502,1.852c0.819,2.776,0.225,4.996-2.139,6.761
		c-0.827,0.617-0.894,1.618-0.375,2.474c0.543,0.896,1.068,1.944,2.298,2.073c1.107,0.116,1.615-0.604,1.915-1.564
		c0.17-0.542,0.368-1.126,1.368-0.981c-0.238,0.617-0.476,1.186-0.678,1.767c-0.33,0.95-0.262,1.856,0.679,2.39
		c0.85,0.484,1.347-0.216,1.86-0.766c0.467-0.5,0.741-1.342,1.869-1.036c-0.975,3.199-4.199,4.828-5.317,7.844
		c-0.107,0.291-0.806,0.436-0.798,0.269c0.093-2.031-3.354-2.089-2.481-4.503c0.212-0.586,0.231-1.157-0.403-1.513
		c-0.559-0.313-1.288-0.326-1.621,0.123c-1.727,2.333-4.688,2.996-6.617,5.006c-0.839,0.875-1.665,1.456-2.938,1.571
		c-1.458,0.131-3.552,3.675-2.607,4.516c1.604,1.427,3.043,2.518,1.751,4.835c1.982,1.249,0.933,2.843,0.521,4.386
		c-0.717,2.686,2.945,6.393,5.717,5.812c0.08-0.017,0.157-0.052,0.236-0.075c2.698-0.787,5.188-0.614,7.188,1.629
		c0.512,0.574,2.268,0.661,1.337,1.748c-0.778,0.908-2.338,0.678-3.396-0.176c-0.415-0.336-0.606-0.965-0.862-1.479
		c-0.513-1.025-1.246-1.285-2.213-0.642c-1.158,0.772-2.499,1.407-2.577,3.087c-0.054,1.133-0.844,1.419-1.769,1.743
		c-1.99,0.696-3.76,2.017-3.612,4.215c0.197,2.952-1.765,3.126-3.661,3.55c-0.708,0.158-1.482,0-2.226,0.027
		c-0.498,0.02-1.021,0.104-1.269,0.615c-0.31,0.643,0.173,1.054,0.478,1.543c0.814,1.316,2.306,0.793,3.508,1.152
		c-2.476,2.779-2.943,6.061-3.307,9.363c-0.078,0.716,0.262,1.377,1.061,1.43c2.393,0.154,3.608,2.161,5.361,3.316
		c0.412,0.271,0.854,0.689,0.528,1.229c-0.427,0.709-0.987,0.351-1.469-0.004c-0.812-0.6-1.73-0.957-2.372,0.032
		c-0.592,0.914-1.855,1.726-1.314,3.004c0.468,1.106,1.613,0.37,2.458,0.468c0.136,0.016,0.257,0.156,0.389,0.242
		c-2.007,1.02-2.479,1.674-1.864,2.704c0.579,0.97,1.568,1.165,2.598,1.084c0.888-0.069,1.631-0.455,1.731-1.454
		c0.085-0.851,0.022-1.812,1.29-1.568c1.396,0.271,2.17-0.312,2.726-1.527c0.3-0.657,0.763-1.32,1.712-0.844
		c-0.854,2.326-0.905,4.23,0.33,4.965c1.268,0.752,1.761,1.34,1.295,2.83c-0.295,0.945,0.423,1.539,1.48,1.396
		c1.518-0.206,4.575-4.673,3.965-6.077c-0.847-1.951,0.11-2.967,1.718-3.951c-1.592,2.08,0.831,4.252-0.42,6.342
		c-0.482,0.805,0.021,1.434,0.805,1.764c1.558,0.656,3.165,1.096,4.786,0.27c1.911-0.975,3.802-1.994,5.664-3.061
		c1.337-0.765,2.567-1.602,1.624-3.521c-0.393-0.801,0.269-1.396,0.905-1.832c0.666-0.457,1.25-0.159,1.803,0.275
		c0.724,0.57,0.695,1.233,0.3,1.98c-0.349,0.656-0.69,1.32-0.975,2.006c-0.39,0.938-1.35,2.023-0.012,2.818
		c1.194,0.711,2.323,0.007,2.992-1.004c1.083-1.637,2.549-2.146,4.418-2.218c2.239-0.085,3.537-1.301,3.371-3.663
		c-0.088-1.264,0.462-2.24,1.17-3.158c0.319-0.414,0.868-0.553,1.324-0.197c0.439,0.341,0.171,0.779-0.086,1.088
		c-0.931,1.115-0.588,2.544-0.975,3.789c-0.935,3.009-0.226,4.271,2.72,5.6c3.185,1.438,6.276,0.983,9.418-0.008
		c0.607-0.191,1.313-0.602,1.869-0.039c0.543,0.549-0.087,1.051-0.309,1.544c-0.313,0.696-0.65,1.423,0.048,2.046
		c0.659,0.588,1.382,0.369,2.053-0.062c0.479-0.309,1.013-0.901,1.548-0.521c3.076,2.178,3.39-0.152,3.878-2.293
		c0.292-1.279,0.979-1.594,2.169-0.898c0.824,0.479,1.802,0.563,2.236,1.722c0.562,1.498,1.841,1.222,2.877,0.543
		c0.631-0.412,1.036-1.171,1.757-2.028c0.233,2.358,1.688,1.816,3.01,1.785c0.818-0.02,1.852,0.274,1.726,1.327
		c-0.125,1.04-1.094,0.743-1.81,0.588c-1.144-0.249-2.229-0.147-2.837,0.94c-0.975,1.744-2.807,3.476-0.298,5.459
		c-2.222,0.915-3.233,2.046-2.762,3.693c0.423,1.479,0.211,2.459-0.787,3.531c-0.579,0.624-0.636,1.544-0.146,2.325
		c0.431,0.685,1.097,0.644,1.758,0.349c1.048-0.47,1.294,0.182,1.477,1.002c0.167,0.756,0.463,1.49,1.375,1.521
		c0.972,0.033,1.331-0.82,1.863-1.443c0.877-1.025,0.057-2.174,0.143-3.279c1.239,0.037,2.299,0.176,3.352-0.187
		c0.651-0.224,1.365-0.129,1.72,0.583c0.354,0.713-0.253,0.987-0.71,1.354c-0.645,0.52-1.973,5.701-1.625,6.371
		c0.178,0.346,0.498,0.66,0.827,0.879c1.766,1.17,5.235,0.564,6.331-1.222c0.652-1.062,1.58-1.397,2.646-1.581
		c0.846-0.146,1.774-0.128,2.011,0.915c0.226,0.992-0.618,1.226-1.363,1.388c-0.987,0.218-1.699,0.689-1.72,1.793
		c-0.022,1.148,0.705,1.795,1.643,2.267c0.764,0.384,1.585,0.53,2.412,0.364c1.107-0.223,2.124-0.088,3.104,0.474
		c1.501,0.858,2.819,0.468,4.116-0.542c1.384-1.076,6.932-1.277,8.365-0.365c0.283,0.182,0.396,0.512,0.178,1.061
		c-1.929-0.455-3.945-0.776-5.962-0.43c-1.902,0.328-2.826,1.955-1.624,2.82c3.264,2.354,6.501,4.915,11,4.192
		c2.124-0.343,4.285-0.304,6.42,0.067c5.973,1.033,11.392-1.104,16.859-2.949c0.28-0.094,0.693-0.424,0.689-0.637
		c-0.039-2.136,0.994-1.842,2.485-1.347c1.195,0.397,2.257-0.315,2.924-1.381c0.378-0.604,0.353-1.265-0.184-1.821
		c-1.271-1.316-4.971-0.931-5.779,0.702c-0.641,1.294-1.394,1.912-2.835,1.407c0.031-0.893,0.899-0.85,1.131-1.333
		c1.385-2.898,3.147-5.081,6.725-5.582c1.545-0.216,1.653-2.095,0.829-3.521c-0.768-1.33-1.843-1.226-2.938-0.431
		c-1.54,1.119-2.619,0.655-2.771-1.104c-0.169-1.965,1.453-2.302,2.87-2c1.243,0.266,2.47,0.22,3.679,0.25
		c1.958,0.049,2.65-1.369,1.666-3.078c-0.236-0.408-0.803-0.795-0.307-1.26c0.535-0.5,1.093-0.062,1.544,0.285
		c0.32,0.248,0.558,0.604,0.839,0.904c1.611,1.717,2.582,1.702,4.291-0.037c0.305-0.311,0.496-0.968,1.293-0.4
		c-0.931,1.482-1.094,3.387-2.769,4.469c-3.891,2.513-3.741,4.967,0.441,7.244c0.843,0.459,1.728,0.771,1.094,2
		c-0.348,0.674-0.768,1.611,0.073,1.965c1.325,0.56,1.012-0.822,1.323-1.459c0.103-0.209,0.303-0.381,0.487-0.535
		c0.522-0.436,6.149-0.225,6.655,0.222c0.409,0.361,0.149,0.75,0.095,1.14c-0.237,1.685,0.297,3.383-0.441,5.104
		c-0.479,1.113,0.204,1.943,1.631,1.432c0.561-0.201,1.026-1.109,1.711-0.396c0.544,0.567,0.1,1.247-0.103,1.862
		c-0.293,0.891-0.642,1.881,0.575,2.285c1.147,0.379,1.886-0.343,2.316-1.346c0.39-0.91,0.78-1.83,1.051-2.779
		c0.85-2.983,0.473-3.646-2.512-4.56c-0.486-0.147-1.016-0.222-0.971-0.883c0.04-0.577,0.452-0.856,0.981-0.949
		c1.825-0.317,3.317,0.037,3.909,2.053c0.237,0.812,0.411,1.64,1.482,1.712c1.081,0.073,1.614-0.607,2.115-1.43
		c0.294-0.482,0.214-1.363,1.162-1.32c0.492,1.137-0.161,1.918-0.752,2.709c-0.657,0.881-0.92,1.74-0.062,2.67
		c1.462,1.584,3.041,3.03,4.784,4.303c0.417,0.304,0.807,0.615,1.183-0.062c0.463-0.837-0.01-5.947-0.712-6.662
		c-0.403-0.41-1.022-0.648-0.627-1.38c0.263-0.483,0.72-0.67,1.243-0.659c0.645,0.014,1.154,0.348,1.312,0.95
		c0.207,0.789,0.355,1.614,0.377,2.427c0.048,1.735,0.088,3.457,0.344,5.188c0.73,4.954-0.188,9.922-0.773,14.761
		c-0.627,5.177-1.207,10.294-1.117,15.501c0.228,13.21,0.35,26.423,1.108,39.617c0.13,2.267-0.69,3.251-3.015,3.488
		c-5.287,0.541-10.573,0.297-15.855,0.26c-15.541-0.109-31.021,1.373-46.549,1.636c-5.027,0.085-10.048,0.584-15.069,0.93
		c-2.223,0.151-4.441,0.366-6.656,0.606c-0.562,0.062-1.235,0.264-1.269,0.969c-0.038,0.808,0.701,0.807,1.248,0.881
		c2.452,0.342,4.902,0.856,7.364,0.938c8.334,0.27,16.593,1.465,24.941,1.688c11.536,0.311,23.057,1.283,34.604,1.319
		c19.989,0.063,39.976-0.044,59.963-0.391c9.994-0.174,20-0.253,29.976-0.732c6.401-0.308,12.871-0.436,19.216-1.703
		c2.648-0.528,5.334-1.182,8.032-0.931c2.314,0.215,4.414-0.114,6.476-1.097c0.627-0.3,1.71-0.074,1.712-1.066
		c0.003-1.068-1.097-1.211-1.845-1.288c-2.953-0.301-5.916-0.55-8.882-0.676c-10.724-0.457-21.481-1.044-32.181-0.829
		c-15.619,0.312-31.135-2.561-46.749-1.028c-1.251,0.122-1.814-0.535-2.031-1.663c-0.766-3.97-1.828-7.896-1.559-12.006
		c0.705-10.802-1.091-21.557-0.516-32.384c0.234-4.431,0.217-8.929,0.67-13.335c0.402-3.897,0.682-7.942,2.119-11.634
		c1.107-2.85,2.307-5.651,3.072-8.617c0.312-1.209,0.694-2.387,1.508-3.361c0.264-0.316,0.647-0.613,1.08-0.387
		c0.451,0.236,0.454,0.796,0.197,1.072c-1.62,1.742-1.141,4.212-2.281,6.195c-1.288,2.242-2.48,4.814-2.712,7.334
		c-0.583,6.361-2.357,12.598-1.751,19.104c0.375,4.018,0.084,8.096,0.088,12.146c0.002,1.164,0.011,2.349,0.541,3.401
		c3.135,6.236,4.142,12.972,5.065,19.797c0.418,3.089,0.694,6.218,1.287,9.293c0.354,1.841,1.459,2.436,3.178,2.374
		c1.912-0.066,2.156-1.345,2.32-2.873c0.721-6.726,1.58-13.438,2.258-20.168c1.067-10.593,4.547-20.812,4.795-31.533
		c0.035-1.541,0.293-3.347,1.619-4.31c4.603-3.339,6.502-8.671,9.834-12.935c0.459-0.59,1.051-1.396,0.056-1.865
		c-2.318-1.096-0.894-1.711,0.239-2.309c0.836-0.442,1.384-1.442,2.554-1.383c0.043,0.279,0.12,0.518,0.108,0.75
		c-0.072,1.381-0.556,2.969,1,3.793c1.556,0.823,2.062-0.779,2.931-1.562c0.669-0.604,1.558-0.629,2.297-0.104
		c0.687,0.488,0.342,1.16,0.104,1.795c-0.529,1.41-1.402,2.354-2.955,2.686c-1.668,0.355-1.832,1.55-1.176,2.854
		c0.79,1.575,2.455,1.168,3.822-0.895c0.393-0.591,0.471-1.689,1.371-1.54c1.124,0.187,0.376,1.219,0.471,1.867
		c0.102,0.694,0.254,1.317,0.997,1.555c0.822,0.263,1.55-0.05,1.923-0.743c0.688-1.273,1.744-2.666-0.24-3.794
		c-0.643-0.364-0.955-0.993-0.191-1.247c1.298-0.437,2.773-0.882,4.059-0.654c1.021,0.179,1.879,1.43,1.754,2.713
		c-0.308,3.171,2.049,4.625,4.117,5.945c0.026,0.017,0.051,0.031,0.077,0.048c1.195-0.301,2.43-0.524,3.696-0.657
		c2.019-0.212,4.083-0.37,6.165-0.503c0.393-0.287,0.794-0.554,1.251-0.681c0.523-0.145,0.966-0.368,1.322-0.653V354.5
		c0-1.343,0.176-2.647,0.478-3.908c-0.186-1.02-0.037-1.996,0.375-3.049c1.074-2.748,2.975-5.166,3.229-8.251
		c0.094-1.131,0.253-2.46-0.917-2.806c-2.143-0.633-4.096-2.799-6.657-1.104c-0.295,0.192-0.826,0.147-1.055-0.64
		c1.528-1.34,3.105-2.179,5.166-0.759c0.992,0.683,2.037,0.63,2.986-0.135c0.672-0.541,1.256-1.223,0.831-2.129
		c-0.932-1.988-0.14-1.92,1.4-1.33c0.942,0.36,1.99,0.34,2.858-0.275c0.817-0.58,1.313-1.366,0.418-2.262
		c-0.566-0.566-1.952-0.537-1.326-1.903c0.529-1.154,1.563-1.377,2.698-1.345c1.649,0.047,3.256,0.068,3.292-2.262
		c0.007-0.408,0.252-0.867,0.772-0.693c0.231,0.078,0.46,0.471,0.504,0.75c0.116,0.73,0.113,1.48,0.188,2.221
		c0.075,0.723,0.417,1.264,1.187,1.389c0.686,0.112,1.368,0.012,1.781-0.592c0.346-0.52,0.56-1.129,1.073-2.189
		c0.371,1.023,0.646,1.472,0.685,1.938c0.182,2.152,1.024,2.939,2.992,1.541c1.347-0.957,2.718-0.26,4.077-0.105
		c1.342,0.15,1.374,0.748,0.414,1.521c-1.062,0.854-1.747,1.911-1.15,3.226c0.486,1.068,0.582,1.951,0.062,3.029
		c-0.405,0.846-0.107,1.686,0.915,1.925c0.018,0.004,0.033,0.003,0.051,0.007c0.443-0.156,0.89-0.31,1.344-0.453
		c0.001,0,0.002,0,0.003-0.001c0.169-0.224,0.293-0.508,0.376-0.835c0.182-0.721,0.253-1.479,0.524-2.16
		c0.257-0.643,0.557-1.635,1.519-1.152c0.836,0.42,0.612,1.22,0.107,1.909c-0.425,0.581-0.705,1.218-0.534,1.77
		c1.047-0.18,2.097-0.259,3.137-0.222c0.026-0.062,0.057-0.119,0.08-0.184c0.562-1.569,1.537-1.414,2.442-0.582
		c0.456,0.42,0.86,0.926,1.288,1.38c0.998,0.279,1.972,0.644,2.907,1.098c0.185-0.047,0.374-0.105,0.579-0.192
		c0.053-0.022,0.382,0.467,0.505,0.759c0.643,0.368,1.259,0.78,1.854,1.225c0.38-0.064,0.782-0.222,1.2-0.437
		c0.563-0.289,0.959-1.024,1.729-0.77c3.877,1.284,7.25,0.004,10.594-1.876c1.402-0.788,2.884,0.136,3.733,1.093
		c0.423,0.476,0.282,0.925-0.042,1.34c2.151-0.242,4.34-0.1,6.439,0.499c-0.18-0.179-0.364-0.354-0.544-0.532
		c-0.405-0.403-0.787-0.905-0.527-1.545c0.198-0.488,0.593-0.474,1.025-0.276c2.577,1.165,5.434,0.744,8.111,1.419
		c2.594,0.654,5.179,0.708,7.688-0.729c1.147-0.658,2.608-0.762,3.812,0.996c-2.544-0.019-4.154,1.037-4.82,3.14
		c-0.132,0.418-0.179,0.837-0.132,1.194c3.564-0.136,7.107-0.539,10.647-0.967c1.01-1.153,2.02-2.306,2.474-3.845
		c0.314-1.063,0.755-2.103,2.045-3.149c0.012,1.864-0.813,3.086-0.941,4.459c-0.107,1.143,0.054,1.827,0.59,2.05
		c0.533-0.059,1.067-0.118,1.602-0.172c4.091-1.49,8.199-2.945,12.232-4.581c3.896-1.578,5.62-4.481,5.432-8.662
		c-0.025-0.539,0.068-1.387-0.854-1.045c-3.23,1.192-1.442-0.959-1.325-1.959c0.088-0.767,1.213-1.188,0.771-2.195
		c-1.146,0.201-2.262,0.413-3.382,0.584c-0.459,0.07-1.107,0.281-1.188-0.43c-0.067-0.608,0.344-1.123,0.974-1.267
		c0.387-0.087,0.815-0.01,1.224,0.025c1.289,0.112,2.414-0.199,2.635-1.621c0.234-1.517-1.014-1.567-2.079-1.851
		c-1.982-0.521-3.605-3.463-3.275-5.201c0.37-1.949,1.404-2.043,3.035-1.766c1.281,0.219,2.604-0.218,2.854-1.734
		c0.269-1.623-1.108-1.494-2.146-1.68c-1.292-0.229-2.415-0.949-3.674-1.334c-1.646-0.502-1.922-4.552-0.39-5.138
		c2.262-0.864,3.66-2.321,4.347-4.633c0.672,1.829,1.108,3.458-1.303,4.37c-1.419,0.535-1.751,1.924-1.753,3.285
		c-0.002,0.856,0.715,1.308,1.499,1.4c1.596,0.191,2.393-1.007,2.551-2.188c0.322-2.422,2.822-2.857,3.8-4.635
		c0.233-0.427,0.919-0.485,1.279,0.008c0.357,0.49,0.058,0.959-0.356,1.277c-0.923,0.713-1.789,1.469-2.371,2.5
		c-0.279,0.496-0.726,0.997-0.247,1.569c0.384,0.46,0.917,0.276,1.38,0.098c3.393-1.319,7.542,0.751,10.584-2.458
		c0.528-0.558,1.367-0.781,1.392-1.738C439.047,298.712,439.042,297.766,438.068,297.491z"/>
	<path fill="#1E293F" d="M438.061,297.484c-2.31-0.651-2.078-1.973-1.402-3.812c1.433-3.894,3.262-7.745,2.414-12.11
		c-0.106-0.549,0.131-1.231-0.449-1.584c-0.652-0.395-1.041,0.231-1.494,0.547c-0.31,0.217-0.558,0.641-1.039,0.344
		c0.252-2.188-1.733-4.885-3.942-5.35c-0.851-0.181-2.006,0.074-2.246-1.101c-0.249-1.215,1.006-1.326,1.68-1.843
		c1.921-1.471,1.619-2.504-0.475-3.762c-1.724-1.033-2.851,0.008-4.3,0.707c0.119-1.672,0.397-2.977,1.077-4.259
		c0.837-1.581,0.132-2.664-1.639-2.479c-1.347,0.142-2.617,0.002-3.928-0.174c-1.663-0.224-3.406-1.06-4.934,0.476
		c-0.146,0.149-0.675,0.099-0.901-0.05c-0.501-0.328-0.228-0.635,0.131-0.947c0.896-0.777,0.133-0.825-0.443-0.962
		c-0.648-0.154-1.78,0.118-1.473-1.073c0.257-0.995,1.219-0.547,1.92-0.474c1.401,0.146,2.582-0.282,2.878-1.724
		c0.382-1.859,0.646-3.764-1.365-5.106c-1.087-0.728-1.979-1.742-2.979-2.604c-0.742-0.638-0.533-1.304-0.116-1.987
		c0.377-0.618,0.93-0.984,1.659-0.816c0.923,0.213,0.822,0.876,0.561,1.559c-0.293,0.764,0.086,1.271,0.661,1.688
		c0.649,0.469,1.258,0.24,1.829-0.163c1.579-1.113,2.587-2.482,1.284-4.356c-0.608-0.875-0.425-1.461,0.042-2.222
		c2.428-3.972,5.154-7.558,9.359-9.969c2.454-1.406,4.211-3.769,4.08-6.933c-0.048-1.191,0.562-2.803-0.69-3.431
		c-1.159-0.58-2.873,0.061-3.652,0.866c-2.768,2.855-5.577,4.614-9.477,2.204c-2.813,1.086-3.962-0.295-4.447-2.883
		c-0.121-0.643-0.613-1.252,0.045-1.779c0.552-0.441,1.112-0.061,1.575,0.288c1.319,0.993,2.612,2.021,3.925,3.023
		c2.063,1.577,4.824,1.487,6.189-0.466c0.948-1.354,1.805-2.429,3.599-2.6c0.871-0.083,1.715-0.734,1.761-1.814
		c0.04-0.932-0.667-1.237-1.438-1.421c-0.508-0.121-0.811-0.363-1.001-0.93c-1.15-3.412-1.235-3.443-4.671-2.785
		c0.171-1.938,1.272-2.362,2.888-1.968c1.58,0.385,2.303-0.455,2.743-1.78c0.277-0.837,0.96-1.772,0.021-2.497
		c-1.14-0.879-1.978,0.078-2.803,0.757c-0.063,0.053-0.125,0.11-0.194,0.153c-0.438,0.277-0.943,0.523-1.285-0.034
		c-0.291-0.474,0.185-0.729,0.527-0.95c0.987-0.638,1.825-1.427,2.401-2.457c0.435-0.777,0.527-1.588-0.123-2.301
		c-0.675-0.737-1.487-0.621-2.269-0.201c-0.848,0.458-1.667,0.975-2.7,1.585c0.081-1.76,0.325-3.145,1.764-4.067
		c0.718-0.459,1.104-1.228,1.407-2.001c0.641-1.646-0.382-2.9-1.656-2.218c-3.143,1.681-6.059,1.808-9.153,0.225
		c-0.061-0.031-0.162,0.019-0.244,0.024c-0.486,0.027-1.119,0.169-1.299-0.391c-0.252-0.79,0.568-0.87,1.025-1.143
		c3.382-2.021,3.795-5.308,1.023-8.237c-1.304-1.378-2.743-1.111-3.47,0.629c-0.321,0.766,0,1.881-1.147,2.242
		c-0.924-1.876,0.365-5.524,2.595-6.394c2.762-1.076,3.511-3.532,4.638-5.759c0.417-0.823,0.46-2.08-0.695-2.253
		c-2.441-0.366-5.18-1.925-7.128,1.133c-0.169,0.265-0.582,0.293-0.867-0.019c1.75-3.511,1.801-3.805,0.477-5.198
		c-0.565-0.594-1.271-1.052-1.891-1.597c-1.14-1.005-0.933-1.855,0.39-2.441c0.595-0.264,1.287-0.308,1.9-0.54
		c0.733-0.278,1.286-0.797,1.325-1.634c0.04-0.85-0.682-1.016-1.279-1.296c-2.834-1.33-3.676-0.961-4.69,2.015
		c-0.242,0.706,0.031,1.902-1.184,1.846c-0.97-0.045-0.825-1.075-1.054-1.744c-1.251-3.675-1.317-3.194-5.101-2.507
		c-2.524,0.458-4.267,4.614-7.515,1.708c-0.334-0.299-1.037,0.34-1.418,0.796c-1.022,1.229-2.059,1.183-3.143,0.076
		c-0.602-0.615-1.368-0.895-2.213-1.013c-1.275-0.178-2.383-0.443-1.367-2.15c0.401-0.672,0.14-1.447-0.65-1.554
		c-2.339-0.317-4.873-2.505-6.896,0.885c-0.388-1.195,0.411-2.652-1.211-2.882c-1.354-0.192-1.742,1.043-2.367,1.869
		c-0.404,0.533-0.779,1.169-0.624,1.833c0.586,2.497-1.156,3.285-2.926,3.788c-1.571,0.447-2.885,0.73-2.435,2.852
		c0.171,0.803-0.474,1.377-1.227,1.662c-0.562,0.211-1.166,0.264-1.601-0.255c-0.523-0.624-0.145-1.241,0.107-1.85
		c0.188-0.458,0.347-0.929,0.52-1.393c1.166-3.124,0.042-5.063-3.104-5.465c0.427-1.922,0.859-3.849,1.282-5.778
		c0.111-0.506-0.38-1.305,0.491-1.43c0.668-0.097,0.929,0.576,1.163,1.106c0.323,0.733,0.753,1.364,1.667,1.103
		c0.902-0.259,1.25-1.01,1.354-1.892c0.115-0.979-0.293-1.763-0.889-2.491c-0.768-0.936-1.029-2.052-1.111-3.229
		c-0.029-0.416-0.088-0.9,0.379-1.058c0.241-0.082,0.621,0.075,0.876,0.229c2.432,1.468,3.182,1.212,4.504-1.483
		c0.302-0.613,0.065-1.469,1.049-1.797c3.079-1.027,4.68-4.819,2.93-7.335c-0.987-1.418-0.526-1.608,0.729-2.17
		c2.21-0.989,2.147-2.08,0.717-4.09c-0.932-1.307-2.682-2.411-2.96-3.42c-0.548-1.967-1.973-3.606-2.054-5.759
		c0.759-0.356,1.391,0.434,2.114,0.286c1.633-0.334,2.925-1.387,2.835-2.955c-0.096-1.677-1.693-1.106-2.783-0.923
		c-0.922,0.154-1.803,0.076-2.7-0.124c-0.937-0.209-1.769-0.082-2.462,0.721c-2.07,2.403-2.142,2.393-4.898,0.028
		c1.589,0.586,2.883,0.704,3.472-0.745c0.48-1.182,1.103-2.146,2.066-3.001c0.83-0.737,1.107-1.954-0.197-2.377
		c-1.368-0.445-2.893-0.726-4.375-0.374c-0.458,0.109-0.821,0.577-1.278,0.735c-0.771,0.268-1.776,0.249-1.353-0.858
		c0.395-1.033,1.792-1.045,2.78-1.364c0.464-0.149,1.146,0.109,1.637,0.362c2.316,1.195,2.941-0.454,3.507-2.079
		c0.709-2.038-0.929-2.119-2.184-2.406c-0.717-0.163-1.474-0.153-2.212-0.217c-0.64-0.056-1.489,0.096-1.614-0.763
		c-0.127-0.877,0.38-1.626,1.186-1.996c0.508-0.233,1.128-0.209,1.688-0.346c0.864-0.211,1.562-0.638,1.528-1.657
		c-0.031-0.95-0.818-0.83-1.454-0.964c-2.255-0.476-3.723-1.69-3.795-4.171c-0.073-2.496-2.067-3.567-3.838-4.396
		c-1.354-0.634-1.574-0.906-0.606-1.962c0.676-0.737,1.205-1.706-0.07-2.167c-1.19-0.43-3.297-1.546-3.64,0.163
		c-0.501,2.506-1.768,2.95-3.821,3.114c-1.125,0.089-2.324,2.089-3.189,0.711c-0.646-1.029,1.248-2.015,1.998-3.024
		c0.559-0.752,1.863-1.281,1.148-2.426c-0.674-1.08-0.882-2.068-0.567-3.262c0.128-0.484-0.005-1.013-0.472-1.318
		c-0.567-0.37-1.118-0.163-1.613,0.184c-0.629,0.441-1.026,1.049-1.262,1.787c-0.674,2.119-1.428,4.214-2.042,6.35
		c-0.333,1.155-1.042,1.695-2.146,1.633c-1.318-0.075-0.881-1.117-0.889-1.888c-0.021-1.723-1.101-2.131-2.509-1.837
		c-1.423,0.296-2.586,1.138-3.333,2.394c-0.725,1.22-1.44,2.257-3.113,1.624c-1.716-0.65-1.489-2.032-1.189-3.325
		c0.504-2.177-0.608-2.546-2.307-2.114c-1.685,0.428-3.343,0.868-5.104,0.898c-1.16,0.019-1.527,0.721-1.287,1.867
		c0.461,2.198,1.418,2.615,3.474,1.327c0.829-0.519,1.82-1.11,2.375-0.133c0.727,1.278-0.815,1.348-1.475,1.7
		c-1.363,0.728-2.997,1.007-3.678,2.689c-0.155,0.386-0.585,0.626-1.022,0.339c-0.421-0.277-0.334-0.725-0.196-1.122
		c0.643-1.84,0.02-4.113-1.128-4.7c-1.985-1.017-2.204-1.898-1.089-3.575c-1.186-0.285-1.453,1.023-2.342,0.907
		c-0.625-0.083-1.736-0.283-0.979-1.002c1.14-1.083,0.892-2.704,1.865-3.688c2.371-2.395-0.222-3.932-0.984-5.699
		c-0.616-1.423-2.03-0.521-3.119-0.527c-0.865-0.005-2.036,0.495-2.476-0.491c-0.385-0.864,0.795-1.296,1.246-1.943
		c0.096-0.135,0.201-0.27,0.328-0.371c1.245-0.981,2.207-2.429,3.904-0.171c1.451,1.928,5.403,1.152,6.432-0.891
		c0.368-0.732,0.396-1.434-0.101-2.096c-0.382-0.511-1.023-0.819-1.522-0.463c-1.049,0.749-1.956,0.133-2.902,0.123
		c-1.911-0.02-1.858-0.786-2.023-2.095c-0.208-1.649-1.731-2.178-2.999-2.604c-1.095-0.369-1.741,0.682-2.24,1.564
		c-0.36,0.636-0.632,1.621-1.537,1.256c-1.17-0.473-2.746-1.04-3.158-1.994c-0.467-1.075,1.343-1.34,2.121-2.002
		c0.189-0.16,0.407-0.286,0.596-0.446c1.032-0.875,1.723-2.011,0.99-3.254c-0.915-1.551-1.781-0.143-2.629,0.317
		c-0.145,0.078-0.301,0.136-0.457,0.187c-3.845,1.257-4.185,1.779-3.571,5.919c-1.313-1.34-4.171-0.726-3.355-3.888
		c0.212-0.819-1.155-0.911-1.995-0.88c-1.111,0.042-2.209,0.751-3.388,0.09c0.088-1.091,1.015-1.691,1.397-2.582
		c0.384-0.892,0.349-1.62-0.621-2.063c-2.073-0.949-4.228,0.076-6.362-0.21c-1.239-0.166-1.299,1.516-1.903,2.346
		c-0.84,1.152-1.391,2.993-2.992,0.646c-0.381-0.559-1.136-0.74-1.808-0.608c-2.462,0.482-4.923,0.171-7.383,0.068
		c-1.138-0.047-1.881,0.327-1.533,1.549c0.341,1.199-0.346,1.366-1.192,1.675c-3.195,1.163-5.16-0.513-6.948-2.821
		c-1.452-1.873-3.234-1.96-4.36-0.03c-0.965,1.653-1.793,1.363-2.902,0.389c-0.442-0.391-0.912-0.762-1.528-0.715
		c-1.748,0.135-2.226-1.024-2.608-2.395c-0.701-2.523-2.626-3.257-4.812-1.87c-0.471,0.298-0.898,1.001-1.483,0.568
		c-0.735-0.544-0.112-1.19,0.179-1.742c0.438-0.835,0.946-1.769-0.031-2.432c-1.021-0.693-1.715,0.112-2.531,0.792
		c-1.693,1.409-2.195,3.452-3.269,5.182c-0.49,0.788-1.291,1.306-0.734,2.282c0.594,1.043,1.564,1.385,2.76,1.114
		c0.634-0.143,1.228-1.016,2.168,0.051c-2.161,1.96-3.836,4.211-3.509,7.396c0.073,0.704-0.665,1.164-1.412,1.065
		c-0.967-0.128-2.129-0.096-2.733-0.936c-0.721-1,0.482-1.581,0.869-2.332c0.365-0.706,1.193-1.3,0.688-2.22
		c-0.467-0.85-1.33-0.342-2.019-0.46c-2.498-0.426-4.009-3.023-6.688-3.091c-1.698-4.526-6.306-2.033-9.191-3.757
		c-0.495-0.295-1.034,0.67-1.538,1.08c-2.105,1.709-4.005,4.271-7.162,1.694c-0.319-0.26-0.992-0.264-1.443-0.154
		c-1.404,0.345-2.674,0.282-4.085-0.25c-1.434-0.541-3.532,2.172-2.78,3.62c0.74,1.424,1.146,3.148,2.766,4.004
		c0.72,0.38,1.181,0.996,0.823,1.833c-0.394,0.917-1.169,1.004-2.082,0.802c-3.347-0.74-3.786-0.406-4.106,3.211
		c-0.134,1.521-1.351,2.236-2.405,2.501c-1.224,0.307-0.864-1.225-1.308-1.847c0.542-0.677,1.958,0.384,1.805-0.756
		c-0.136-1.008,0.306-2.305-0.579-3.057c-1.626-1.381-2.804,0.577-4.386,0.876c-0.035-0.483-0.012-0.886-0.098-1.264
		c-0.345-1.512-1.26-2.587-2.823-2.679c-1.477-0.086-2.144,1.058-2.498,2.331c-0.199,0.713-0.313,1.451-0.435,2.182
		c-0.21,1.256-0.752,2.391-1.566,3.318c-0.521,0.595-1.521,1.28-1.541-0.395c-0.023-1.867-1.212-1.72-2.388-1.478
		c-1.18,0.244-2.242,0.199-2.698-1.044c-0.824-2.242-2.308-1.441-3.611-0.79c-1.626,0.814-0.884,2.066-0.274,3.165
		c0.48,0.861,1.036,1.68,1.586,2.5c0.4,0.595,0.476,1.304-0.363,1.212c-1.468-0.162-2.499,0.732-3.728,1.129
		c-2.426,0.784-2.596,1.128-0.973,3.085c1.02,1.229,1.079,1.909-0.539,2.496c-1.499,0.543-2.032,1.619-1.314,3.148
		c0.584,1.242-0.143,2.095-0.957,2.799c-0.964,0.832-1.606-0.199-2.387-0.564c-1.824-0.854-0.581-1.607,0.011-2.405
		c0.624-0.843,1.061-1.73,0.295-2.704c-0.458-0.582-1.363-0.906-1.734-0.385c-1.246,1.751-3.401,2.458-4.614,4.126
		c-1.172,1.611-2.209,1.693-3.655,0.459c-1.414-1.206-3.488-0.973-4.032,0.736c-0.565,1.781-0.99,3.435-2.451,4.764
		c-0.534,0.486,0.047,1.358,0.612,1.937c0.425,0.434,1.371,0.239,1.411,1.283c-0.743,0.096-1.477,0.135-2.184,0.293
		c-1.527,0.342-2.088,1.42-0.945,2.47c2.088,1.923,0.639,2.297-0.944,2.827c-0.623,0.209-1.253,0.458-1.808,0.804
		c-0.998,0.623-0.999,1.642-0.844,2.655c0.125,0.815,0.746,1.709,1.421,1.36c1.775-0.918,3.752,0.695,5.434-0.667
		c0.584-0.473,1.388-0.293,1.62,0.486c0.322,1.082-0.59,1.201-1.33,1.284c-1.139,0.127-2.34-0.016-3.244,0.929
		c-0.734,0.767-1.202,1.635-0.698,2.68c0.488,1.015,1.281,0.642,2.128,0.429c1.667-0.421,2.153,0.596,1.758,1.952
		c-0.334,1.152-0.775,2.156,0.18,3.221c0.526,0.584,0.421,1.236-0.271,1.687c-0.647,0.421-1.247,0.346-1.76-0.257
		c-1.338-1.571-2.422-0.885-3.425,0.396c-0.661,0.846-1.329,1.69-1.944,2.569c-0.561,0.8-1.237,1.335-2.258,1.253
		c-0.353-0.028-0.701-0.246-0.596-0.613c0.246-0.85,1.168-0.812,1.769-1.204c0.139-0.091,0.307-0.148,0.42-0.262
		c0.866-0.879,2.087-1.853,1.341-3.134c-0.74-1.268-1.894-0.201-2.846,0.155c-0.31,0.116-0.615,0.267-0.935,0.326
		c-1.721,0.315-2.857-0.774-3.771-1.898c-0.777-0.954,0.055-1.909,0.757-2.591c1.178-1.143,2.948-2.219-0.138-3.097
		c-2.238-0.636,1.243-3.404-1.467-3.818c-0.163-0.025-0.324-0.068-0.488-0.085c-0.977-0.098-1.438-0.581-1.464-1.615
		c-0.049-1.82-1.057-1.523-2.159-0.872c-0.51,0.302-0.667,1.226-1.533,0.902c-0.374-0.549,0.014-0.963,0.201-1.397
		c0.341-0.797,0.574-1.638-0.099-2.318c-0.797-0.803-1.733-0.261-2.552,0.031c-1.228,0.438-1.301,1.421-1.271,2.622
		c0.051,2.126-0.125,4.262-0.299,6.386c-0.053,0.655-0.469,1.378-1.178,1.445c-0.894,0.085-0.639-0.761-0.69-1.273
		c-0.083-0.837-0.052-1.829-1.226-1.754c-1.094,0.07-1.818,0.805-1.919,1.929c-0.072,0.804,0.294,1.645-0.204,2.417
		c-0.231,0.357-0.506,0.698-0.975,0.633c-0.203-0.029-0.56-0.329-0.541-0.372c0.919-2.115-0.905-4.124-0.146-6.295
		c1.007-2.882-0.83-5.312-3.843-5.391c-0.686-0.018-1.375,0.01-1.712,0.714c-0.358,0.75,0.118,1.23,0.675,1.661
		c0.484,0.374,1.351,0.585,0.887,1.478c-0.608,1.167-3.557,1.282-4.348,0.203c-1.025-1.396-2.236-1.294-2.829,0.358
		c-0.51,1.423-0.772,2.935-1.149,4.43c-3.059-1.928-6.003-1.292-7.062,1.45c-0.47,1.215-0.212,2.03,1.218,1.923
		c1.399-0.105,3.143-0.662,3.49,1.209c0.311,1.681-1.772,1.322-2.685,2.015c-1.015,0.772-2.705,1.027-2.146,2.8
		c0.473,1.501,1.82,1.421,3.119,1.18c0.798-0.148,1.512,0.03,1.822,0.883c0.275,0.757-0.148,1.274-0.749,1.65
		c-0.801,0.501-1.431,1.058-1.476,2.125c-0.027,0.621,0.723,1.675-0.502,1.788c-0.84,0.077-1.109-0.871-1.332-1.581
		c-0.532-1.702-1.846-3.182-3.314-3.299c-2.385-0.19-4.652-0.975-7.036-1.032c-0.823-0.02-1.716-0.329-2.28,0.483
		c-0.633,0.912,0.148,1.509,0.657,2.144c0.616,0.77,1.262,1.882-0.379,1.813c-2.866-0.121-4.226,2.314-6.418,3.279
		c-0.655,0.287-0.998,0.898-0.811,1.639c0.206,0.816,0.837,1.419,1.618,1.224c1.381-0.344,2.807,0.295,4.146-0.336
		c0.741-0.349,2.049-0.803,2.052,0.155c0.004,1.114,1.081,2.813-0.975,3.57c-3.27,1.205-6.446,2.742-10.098,1.957
		c-0.501-0.107-1.007,0.034-1.276,0.542c-0.332,0.631-0.056,1.163,0.452,1.506c0.886,0.599,1.884,1.044,2.729,1.691
		c0.67,0.512,1.34,1.14-0.119,1.722c-2.431,0.97-2.785,2.371-1.328,5.851c0.937,2.237,2.096,0.414,3.136-0.048
		c0.715-0.317,1.364-0.204,1.72,0.46c0.465,0.868-0.252,1.105-0.889,1.384c-0.595,0.261-1.226,0.531-1.7,0.954
		c-0.874,0.78-1.327,1.826-0.524,2.853c0.775,0.988,1.606,0.427,2.311-0.266c0.368-0.363,0.633-0.643,1.173-0.077
		c2.22,2.331,2.84,2.163,4.073-1.039c0.288-0.747,0.848-1.75,1.429-0.812c1.051,1.695,2.461,1.994,4.168,2.056
		c0.507,0.018,0.99,0.307,1.02,0.896c0.034,0.657-0.468,0.752-0.999,0.802c-2.977,0.281-3.825,1.297-3.549,4.219
		c0.636,6.724-1.808,10.551-8.098,12.678c-2.123,0.717-2.635,1.808-1.733,3.946c0.216,0.511,0.201,0.809-0.277,0.95
		c-1.765,0.52-3.599,1.567-4.963-0.78c-1.037-1.783-2.156-1.778-3.39-0.067c-0.726,1.004-1.524,1.075-1.716-0.434
		c-0.307-2.413-2.396-2.415-4.024-2.883c-0.844-0.243-1.518,0.513-1.84,1.355c-0.365,0.951-0.23,1.787,0.656,2.406
		c0.741,0.518,1.529,0.981,2.213,1.567c0.613,0.527,0.817,1.253,0.359,2.009c-0.433,0.717-1.049,1.694-1.881,1.257
		c-1.882-0.988-3.025,0.327-4.523,0.891c-1.686,0.637-2.777,1.736-3.025,3.27c-0.269,1.671,1.58,1.248,2.502,1.743
		c0.382,0.205,0.753,0.475,0.607,0.944c-0.176,0.562-0.642,0.418-1,0.199c-1.383-0.848-2.276,0.137-3.164,0.968
		c-0.809-0.844-0.008-2.519-1.557-2.636c-1.355-0.102-1.629,1.149-2.185,2.047c-0.839,1.354-0.168,2.072,0.917,2.829
		c1.553,1.082,2.962,1.643,4.699,0.249c1.548-1.243,3.244-0.198,4.147,0.805c0.953,1.058-0.639,1.955-1.356,2.779
		c-0.316,0.362-0.752,0.672-1.195,0.86c-1.387,0.588-2.309,1.507-1.742,3.058c0.667,1.823,1.922,0.088,2.849,0.236
		c0.313,0.602,0.003,1.033-0.253,1.435c-0.712,1.12-1.261,2.263,0.051,3.285c1.256,0.978,2.326,0.2,3.35-0.554
		c0.732-0.539,1.462-1.081,2.196-1.616c0.4-0.292,0.846-0.658,1.314-0.229c0.457,0.42,0.119,0.916-0.059,1.369
		c-0.499,1.27-1.509,1.845-2.759,2.258c-1.067,0.353-1.84,1.146-1.815,2.396c0.014,0.713,0.536,1.644,1.034,1.491
		c2.539-0.779,4.638,2.255,7.274,0.68c0.733-0.439,1.889-0.029,2.403,0.805c0.551,0.892-0.441,1.21-0.914,1.738
		c-1.633,1.829-3.456,3.489-4.578,5.756c-1.602,3.235-3.146,3.87-6.623,2.914c-0.82-0.226-1.605-0.548-2.281,0.222
		c-0.354,0.405-0.362,0.913-0.15,1.401c0.422,0.97,1.27,1.179,2.221,1.293c0.797,0.096,1.724-0.721,2.473,0.241
		c-0.641,1.078-1.683,1.109-2.626,1.337c-0.976,0.237-1.837,0.717-1.502,1.852c0.819,2.777,0.224,4.996-2.139,6.761
		c-0.827,0.618-0.894,1.619-0.375,2.474c0.543,0.896,1.069,1.944,2.298,2.073c1.107,0.116,1.615-0.604,1.915-1.564
		c0.17-0.542,0.368-1.126,1.368-0.981c-0.239,0.617-0.476,1.186-0.678,1.767c-0.33,0.95-0.261,1.856,0.679,2.39
		c0.849,0.484,1.346-0.216,1.86-0.766c0.467-0.5,0.741-1.343,1.869-1.036c-0.974,3.199-4.199,4.828-5.317,7.844
		c-0.108,0.292-0.806,0.436-0.798,0.269c0.093-2.031-3.353-2.089-2.481-4.503c0.212-0.587,0.232-1.157-0.403-1.513
		c-0.559-0.313-1.288-0.326-1.621,0.123c-1.726,2.332-4.688,2.996-6.617,5.006c-0.838,0.875-1.665,1.457-2.938,1.572
		c-1.458,0.131-3.551,3.674-2.607,4.516c1.605,1.427,3.043,2.517,1.751,4.835c1.982,1.249,0.932,2.843,0.521,4.386
		c-0.717,2.686,2.946,6.393,5.717,5.811c0.08-0.016,0.157-0.052,0.236-0.074c2.699-0.787,5.188-0.614,7.188,1.629
		c0.512,0.574,2.268,0.66,1.337,1.748c-0.779,0.908-2.338,0.678-3.396-0.176c-0.415-0.336-0.606-0.965-0.862-1.479
		c-0.513-1.027-1.246-1.286-2.213-0.643c-1.158,0.773-2.499,1.408-2.577,3.088c-0.054,1.133-0.844,1.419-1.769,1.742
		c-1.99,0.696-3.759,2.018-3.612,4.215c0.197,2.953-1.765,3.127-3.661,3.551c-0.708,0.158-1.483,0-2.226,0.027
		c-0.498,0.018-1.021,0.104-1.269,0.615c-0.309,0.643,0.173,1.053,0.478,1.543c0.815,1.316,2.306,0.793,3.508,1.151
		c-2.476,2.78-2.944,6.06-3.307,9.364c-0.078,0.716,0.262,1.377,1.061,1.429c2.392,0.155,3.608,2.162,5.361,3.317
		c0.412,0.271,0.853,0.689,0.528,1.228c-0.427,0.71-0.988,0.351-1.469-0.004c-0.811-0.599-1.73-0.956-2.372,0.033
		c-0.591,0.913-1.855,1.726-1.314,3.004c0.468,1.106,1.613,0.37,2.458,0.467c0.136,0.015,0.257,0.157,0.389,0.243
		c-2.007,1.02-2.478,1.674-1.864,2.704c0.579,0.97,1.569,1.165,2.598,1.084c0.887-0.07,1.63-0.455,1.731-1.454
		c0.085-0.85,0.022-1.812,1.29-1.568c1.397,0.271,2.17-0.312,2.726-1.527c0.3-0.657,0.763-1.321,1.712-0.844
		c-0.854,2.326-0.905,4.231,0.33,4.965c1.268,0.752,1.761,1.34,1.295,2.83c-0.295,0.944,0.422,1.539,1.48,1.396
		c1.518-0.207,4.575-4.673,3.965-6.078c-0.846-1.951,0.111-2.966,1.718-3.95c-1.592,2.079,0.831,4.252-0.42,6.342
		c-0.482,0.805,0.021,1.434,0.805,1.764c1.557,0.656,3.165,1.095,4.786,0.27c1.911-0.975,3.802-1.996,5.664-3.061
		c1.337-0.764,2.567-1.602,1.624-3.521c-0.393-0.801,0.268-1.396,0.905-1.832c0.666-0.457,1.25-0.16,1.803,0.275
		c0.724,0.57,0.696,1.232,0.3,1.98c-0.349,0.655-0.691,1.319-0.975,2.006c-0.39,0.937-1.35,2.023-0.012,2.818
		c1.194,0.711,2.323,0.006,2.992-1.005c1.083-1.636,2.549-2.147,4.418-2.217c2.239-0.085,3.537-1.301,3.371-3.663
		c-0.088-1.263,0.462-2.24,1.17-3.158c0.319-0.414,0.868-0.552,1.324-0.197c0.439,0.34,0.171,0.779-0.086,1.088
		c-0.931,1.115-0.588,2.543-0.975,3.789c-0.934,3.009-0.225,4.271,2.72,5.6c3.185,1.438,6.276,0.982,9.418-0.008
		c0.607-0.192,1.313-0.602,1.869-0.039c0.543,0.549-0.087,1.05-0.309,1.544c-0.313,0.696-0.65,1.422,0.048,2.045
		c0.659,0.587,1.382,0.37,2.053-0.062c0.479-0.309,1.013-0.901,1.548-0.522c3.076,2.179,3.39-0.151,3.878-2.292
		c0.292-1.279,0.98-1.593,2.169-0.898c0.824,0.48,1.801,0.564,2.236,1.722c0.563,1.497,1.841,1.221,2.877,0.543
		c0.631-0.412,1.036-1.171,1.757-2.028c0.234,2.357,1.688,1.816,3.01,1.785c0.819-0.02,1.852,0.273,1.726,1.327
		c-0.125,1.04-1.094,0.743-1.81,0.588c-1.144-0.249-2.23-0.149-2.837,0.94c-0.975,1.744-2.807,3.476-0.298,5.459
		c-2.222,0.914-3.234,2.045-2.762,3.693c0.423,1.479,0.211,2.458-0.787,3.531c-0.58,0.624-0.636,1.544-0.146,2.324
		c0.431,0.686,1.097,0.645,1.758,0.349c1.048-0.469,1.294,0.183,1.477,1.003c0.167,0.754,0.463,1.49,1.375,1.521
		c0.971,0.035,1.331-0.82,1.863-1.443c0.877-1.025,0.057-2.174,0.143-3.279c1.24,0.037,2.299,0.174,3.352-0.187
		c0.652-0.224,1.366-0.13,1.72,0.583c0.354,0.712-0.253,0.986-0.71,1.354c-0.645,0.519-1.973,5.701-1.625,6.37
		c0.178,0.347,0.498,0.66,0.827,0.88c1.766,1.17,5.235,0.564,6.331-1.222c0.652-1.062,1.58-1.397,2.646-1.582
		c0.846-0.146,1.775-0.127,2.011,0.916c0.226,0.992-0.618,1.226-1.363,1.388c-0.988,0.217-1.699,0.689-1.72,1.793
		c-0.022,1.149,0.705,1.795,1.643,2.266c0.764,0.385,1.585,0.531,2.412,0.365c1.107-0.223,2.124-0.088,3.104,0.474
		c1.501,0.858,2.819,0.467,4.116-0.542c1.384-1.076,6.931-1.278,8.365-0.365c0.283,0.182,0.397,0.512,0.178,1.061
		c-1.929-0.455-3.945-0.777-5.962-0.43c-1.902,0.327-2.826,1.954-1.624,2.82c3.264,2.354,6.501,4.915,11,4.191
		c2.124-0.342,4.285-0.303,6.42,0.067c5.972,1.034,11.391-1.103,16.859-2.948c0.28-0.095,0.693-0.424,0.689-0.637
		c-0.039-2.136,0.994-1.842,2.485-1.347c1.195,0.397,2.257-0.316,2.924-1.382c0.378-0.604,0.352-1.264-0.184-1.82
		c-1.271-1.318-4.97-0.932-5.779,0.701c-0.641,1.295-1.394,1.912-2.835,1.408c0.031-0.894,0.9-0.85,1.131-1.334
		c1.385-2.897,3.148-5.08,6.725-5.582c1.545-0.215,1.653-2.092,0.829-3.521c-0.768-1.33-1.843-1.226-2.938-0.431
		c-1.541,1.119-2.62,0.656-2.771-1.104c-0.169-1.966,1.453-2.302,2.87-2c1.243,0.266,2.47,0.219,3.679,0.249
		c1.958,0.05,2.65-1.368,1.666-3.077c-0.237-0.408-0.803-0.795-0.307-1.26c0.535-0.501,1.093-0.062,1.544,0.285
		c0.32,0.248,0.558,0.604,0.839,0.904c1.611,1.717,2.582,1.701,4.291-0.037c0.305-0.311,0.496-0.967,1.293-0.401
		c-0.931,1.484-1.094,3.388-2.769,4.47c-3.891,2.512-3.742,4.967,0.441,7.244c0.843,0.458,1.728,0.771,1.094,1.999
		c-0.348,0.675-0.768,1.612,0.073,1.966c1.325,0.56,1.011-0.822,1.323-1.459c0.102-0.209,0.302-0.382,0.487-0.535
		c0.522-0.435,6.149-0.225,6.655,0.222c0.409,0.362,0.15,0.75,0.095,1.14c-0.237,1.684,0.297,3.383-0.441,5.104
		c-0.479,1.115,0.204,1.943,1.631,1.432c0.561-0.203,1.026-1.109,1.711-0.396c0.543,0.568,0.099,1.248-0.103,1.862
		c-0.293,0.89-0.642,1.882,0.575,2.285c1.147,0.38,1.885-0.342,2.316-1.345c0.39-0.91,0.78-1.83,1.051-2.779
		c0.849-2.984,0.472-3.646-2.512-4.561c-0.487-0.148-1.016-0.221-0.971-0.883c0.04-0.576,0.452-0.855,0.981-0.949
		c1.825-0.317,3.317,0.037,3.909,2.054c0.237,0.812,0.411,1.64,1.482,1.712c1.081,0.073,1.614-0.609,2.115-1.43
		c0.294-0.483,0.214-1.363,1.162-1.321c0.492,1.138-0.161,1.918-0.752,2.71c-0.657,0.88-0.919,1.74-0.062,2.669
		c1.462,1.584,3.041,3.032,4.784,4.304c0.417,0.303,0.807,0.616,1.183-0.062c0.463-0.837-0.01-5.947-0.712-6.663
		c-0.403-0.41-1.023-0.649-0.627-1.379c0.263-0.483,0.72-0.67,1.243-0.659c0.644,0.014,1.154,0.348,1.312,0.95
		c0.207,0.789,0.356,1.614,0.377,2.427c0.048,1.736,0.088,3.457,0.344,5.188c0.731,4.953-0.187,9.922-0.773,14.761
		c-0.627,5.176-1.207,10.294-1.117,15.501c0.227,13.21,0.349,26.423,1.108,39.617c0.13,2.266-0.691,3.251-3.015,3.487
		c-5.287,0.541-10.573,0.298-15.855,0.261c-15.541-0.109-31.022,1.373-46.549,1.636c-5.027,0.085-10.048,0.584-15.069,0.929
		c-2.222,0.152-4.441,0.367-6.656,0.607c-0.563,0.061-1.236,0.264-1.269,0.969c-0.038,0.807,0.701,0.806,1.248,0.881
		c2.452,0.341,4.902,0.857,7.364,0.938c8.334,0.269,16.592,1.464,24.941,1.688c11.536,0.31,23.056,1.283,34.604,1.319
		c19.989,0.062,39.976-0.044,59.964-0.392c9.994-0.173,19.998-0.253,29.975-0.731c6.402-0.307,12.871-0.435,19.216-1.703
		c2.648-0.53,5.334-1.182,8.032-0.931c2.315,0.215,4.414-0.115,6.476-1.098c0.627-0.298,1.71-0.073,1.712-1.065
		c0.002-1.068-1.097-1.211-1.845-1.288c-2.953-0.301-5.916-0.55-8.882-0.676c-10.724-0.457-21.482-1.044-32.182-0.829
		c-15.618,0.312-31.133-2.561-46.748-1.028c-1.251,0.122-1.814-0.536-2.031-1.663c-0.766-3.97-1.829-7.896-1.559-12.006
		c0.705-10.802-1.091-21.558-0.516-32.384c0.234-4.432,0.217-8.93,0.67-13.335c0.402-3.899,0.681-7.943,2.119-11.634
		c1.107-2.85,2.306-5.651,3.072-8.617c0.312-1.209,0.695-2.387,1.508-3.362c0.264-0.317,0.647-0.612,1.08-0.386
		c0.451,0.236,0.454,0.796,0.197,1.072c-1.62,1.742-1.14,4.211-2.281,6.195c-1.288,2.242-2.481,4.814-2.712,7.334
		c-0.583,6.362-2.357,12.598-1.751,19.104c0.375,4.016,0.084,8.095,0.088,12.146c0.002,1.164,0.011,2.349,0.541,3.402
		c3.134,6.235,4.141,12.971,5.065,19.797c0.418,3.089,0.694,6.217,1.287,9.293c0.355,1.84,1.46,2.435,3.177,2.374
		c1.912-0.067,2.156-1.345,2.32-2.873c0.723-6.726,1.581-13.438,2.26-20.168c1.066-10.593,4.545-20.812,4.795-31.534
		c0.035-1.54,0.291-3.346,1.619-4.309c4.602-3.339,6.5-8.671,9.832-12.935c0.461-0.59,1.053-1.396,0.057-1.865
		c-2.319-1.096-0.893-1.711,0.238-2.31c0.838-0.442,1.385-1.442,2.555-1.382c0.043,0.279,0.121,0.518,0.107,0.75
		c-0.072,1.381-0.555,2.969,1,3.792c1.557,0.825,2.062-0.778,2.932-1.562c0.669-0.604,1.558-0.629,2.297-0.104
		c0.686,0.488,0.341,1.16,0.105,1.794c-0.529,1.412-1.404,2.354-2.957,2.687c-1.666,0.355-1.83,1.549-1.175,2.854
		c0.79,1.575,2.455,1.167,3.822-0.895c0.392-0.592,0.47-1.69,1.371-1.541c1.124,0.187,0.376,1.22,0.471,1.867
		c0.101,0.696,0.253,1.319,0.997,1.556c0.822,0.262,1.549-0.05,1.924-0.743c0.687-1.273,1.743-2.666-0.24-3.794
		c-0.643-0.364-0.955-0.993-0.192-1.248c1.298-0.435,2.774-0.881,4.058-0.653c1.021,0.178,1.881,1.43,1.756,2.713
		c-0.309,3.17,2.047,4.625,4.117,5.945c0.029,0.019,0.057,0.035,0.086,0.053c1.194-0.3,2.428-0.523,3.693-0.656
		c2.014-0.211,4.072-0.369,6.148-0.502c0.396-0.29,0.8-0.56,1.261-0.688c0.527-0.146,0.971-0.372,1.329-0.66V354.5
		c0-1.339,0.175-2.64,0.475-3.896c-0.189-1.026-0.044-2.008,0.371-3.066c1.074-2.748,2.974-5.166,3.229-8.251
		c0.094-1.132,0.253-2.46-0.917-2.806c-2.142-0.633-4.096-2.799-6.657-1.104c-0.294,0.192-0.826,0.147-1.054-0.64
		c1.527-1.34,3.104-2.178,5.165-0.758c0.992,0.682,2.037,0.629,2.986-0.136c0.672-0.541,1.256-1.222,0.831-2.129
		c-0.932-1.987-0.14-1.919,1.4-1.33c0.942,0.362,1.99,0.341,2.858-0.274c0.817-0.58,1.314-1.366,0.418-2.262
		c-0.566-0.566-1.952-0.537-1.326-1.904c0.529-1.154,1.563-1.377,2.698-1.344c1.649,0.047,3.256,0.067,3.292-2.263
		c0.006-0.407,0.251-0.866,0.772-0.692c0.232,0.078,0.46,0.471,0.504,0.75c0.116,0.731,0.113,1.481,0.188,2.221
		c0.076,0.723,0.417,1.263,1.187,1.389c0.685,0.112,1.368,0.012,1.781-0.592c0.352-0.514,0.565-1.123,1.08-2.184
		c0.372,1.024,0.646,1.472,0.678,1.932c0.181,2.152,1.023,2.939,2.992,1.541c1.347-0.957,2.718-0.26,4.077-0.106
		c1.342,0.151,1.374,0.749,0.413,1.521c-1.062,0.854-1.746,1.912-1.149,3.226c0.486,1.069,0.582,1.952,0.062,3.03
		c-0.405,0.845-0.107,1.685,0.915,1.925c0.023,0.006,0.044,0.005,0.067,0.01c0.437-0.154,0.876-0.305,1.322-0.446
		c0.173-0.226,0.299-0.515,0.384-0.847c0.181-0.72,0.253-1.479,0.523-2.159c0.258-0.642,0.558-1.635,1.52-1.152
		c0.836,0.42,0.612,1.22,0.107,1.908c-0.428,0.584-0.708,1.224-0.532,1.776c1.045-0.18,2.094-0.259,3.133-0.223
		c0.027-0.063,0.059-0.122,0.082-0.188c0.562-1.57,1.537-1.414,2.442-0.582c0.458,0.422,0.864,0.931,1.294,1.385
		c0.995,0.279,1.965,0.642,2.896,1.093c0.187-0.047,0.378-0.105,0.584-0.193c0.054-0.022,0.384,0.472,0.506,0.763
		c0.643,0.367,1.258,0.779,1.852,1.222c0.38-0.064,0.783-0.222,1.2-0.437c0.564-0.291,0.96-1.025,1.73-0.77
		c3.877,1.283,7.25,0.004,10.594-1.876c1.402-0.788,2.882,0.136,3.733,1.092c0.426,0.479,0.28,0.931-0.048,1.348
		c2.155-0.243,4.348-0.102,6.451,0.498c-0.183-0.181-0.368-0.357-0.55-0.538c-0.405-0.404-0.787-0.906-0.527-1.545
		c0.198-0.488,0.592-0.473,1.025-0.277c2.577,1.166,5.433,0.744,8.111,1.42c2.594,0.654,5.179,0.707,7.688-0.729
		c1.148-0.657,2.609-0.761,3.812,0.996c-2.544-0.017-4.154,1.038-4.82,3.14c-0.133,0.421-0.18,0.842-0.131,1.201
		c3.562-0.135,7.102-0.537,10.639-0.965c1.013-1.156,2.025-2.311,2.481-3.854c0.315-1.063,0.755-2.102,2.045-3.148
		c0.012,1.864-0.813,3.086-0.942,4.459c-0.107,1.15,0.056,1.838,0.601,2.056c0.521-0.058,1.043-0.116,1.564-0.169
		c4.101-1.494,8.216-2.951,12.26-4.59c3.897-1.578,5.62-4.482,5.432-8.662c-0.025-0.539,0.069-1.387-0.854-1.045
		c-3.229,1.192-1.441-0.959-1.324-1.959c0.087-0.766,1.212-1.188,0.771-2.195c-1.147,0.201-2.262,0.412-3.382,0.584
		c-0.459,0.07-1.109,0.281-1.188-0.43c-0.067-0.609,0.344-1.123,0.974-1.267c0.387-0.087,0.816-0.011,1.224,0.024
		c1.289,0.113,2.414-0.198,2.635-1.621c0.234-1.516-1.014-1.568-2.079-1.85c-1.982-0.521-3.605-3.463-3.275-5.201
		c0.37-1.951,1.404-2.043,3.035-1.766c1.282,0.218,2.604-0.217,2.854-1.734c0.269-1.623-1.108-1.494-2.146-1.68
		c-1.292-0.23-2.415-0.949-3.674-1.334c-1.646-0.502-1.922-4.552-0.39-5.139c2.262-0.863,3.66-2.32,4.347-4.633
		c0.672,1.83,1.108,3.459-1.303,4.371c-1.419,0.535-1.751,1.924-1.753,3.285c-0.002,0.856,0.714,1.307,1.499,1.4
		c1.596,0.191,2.393-1.008,2.55-2.188c0.323-2.422,2.823-2.858,3.801-4.635c0.233-0.427,0.919-0.486,1.279,0.008
		c0.358,0.489,0.058,0.959-0.356,1.277c-0.923,0.712-1.789,1.468-2.371,2.5c-0.279,0.496-0.726,0.997-0.247,1.568
		c0.384,0.461,0.917,0.279,1.38,0.099c3.393-1.319,7.542,0.751,10.584-2.458c0.529-0.557,1.368-0.781,1.392-1.738
		C439.04,298.707,439.035,297.759,438.061,297.484z M77.93,285.023c-0.967,0.465-1.95,0.49-2.31-0.889
		c-0.622-2.373-2.159-2.876-3.971-1.328c-0.53,0.452-0.911,1.914-1.782,0.859c-0.809-0.979,0.596-1.453,1.18-2.031
		c0.497-0.49,1.154-0.588,1.841-0.429c1.439,0.334,2.62,0.019,3.313-1.394c0.703-1.43,1.856-1.049,2.982-0.773
		c0.505,0.124,0.951,0.37,0.901,0.98c-0.049,0.602-0.552,0.717-1.034,0.875c-0.745,0.244-2.347-0.224-1.951,1.076
		c0.462,1.506,1.713,0.543,2.637,0.059c0.426-0.223,0.854-0.518,1.717-0.096C80.498,283.371,79.321,284.352,77.93,285.023z
		 M112.509,182.94c-1.483,2.354-3.664,3.367-7.113,3.148c1.297-1.206,2.29-2.396,2.607-4.081c0.155-0.818,3.939-1.067,4.541-0.405
		C112.954,182.052,112.79,182.493,112.509,182.94z M119.12,126.53c-0.433,1.396-0.869,2.792-1.345,4.174
		c-0.144,0.416-0.526,0.602-1.187,0.578c-0.992-0.48-2.26-0.907-3.288-1.659c-0.635-0.465-0.124-1.352,0.474-1.597
		c1.456-0.595,2.81-1.278,3.908-2.439c0.278-0.294,0.741-0.389,1.137-0.141C119.226,125.7,119.247,126.123,119.12,126.53z
		 M217.097,162.397c-2.149-0.713-3.937-1.209-5.918,0.995c-1.509,1.678-2.95-0.643-4.374-1.311c3.517-0.135,3.517-0.135,5.927-3.192
		c0.735,2.792,3.112,1.281,4.714,1.905c0.592,0.23,1.711-0.369,1.576,0.865C218.894,162.846,217.908,162.666,217.097,162.397z
		 M256.096,364.249c-1.798-0.013-4.283-1.983-4.313-3.419c-0.03-1.447,3.271-4.754,4.807-4.816c1.126-0.046,3.481,3.441,3.491,5.168
		C260.087,362.434,257.715,364.26,256.096,364.249z M319.836,108.517c-0.902,0.392-1.807,0.799-2.747,1.076
		c-0.979,0.288-1.854,0.09-2.042-1.108c-0.168-1.066-0.773-1.565-1.796-1.701c-0.419-0.055-0.86-0.255-0.787-0.752
		c0.093-0.647,0.69-0.581,1.487-0.668c1.539,1.126,3.443,0.6,5.39,0.362c0.936-0.114,2.09,0.38,2.251,1.532
		C321.764,108.481,320.516,108.222,319.836,108.517z M352.645,139.184c-0.613,1.666-2.251,1.253-3.393,1.909
		c1.658-2.014,3.729-3.517,4.964-5.896c0.508-0.979,1.857,0.39,2.823,0.613c2.354,0.542,4.015,4.493,2.864,6.344
		c-0.361,0.578-0.853,1.231-1.552,0.924c-0.753-0.329-0.143-1.003-0.004-1.5c0.443-1.588,0.362-3.206-1.323-3.76
		C355.465,137.305,353.491,136.886,352.645,139.184z M354.346,179.087c-1.17-0.012-0.657-0.833-0.457-1.72
		c-0.065-1.188-1.338-2.618-0.182-4.156c0.285-0.379,0.479-1.198,0.916-0.973c2.728,1.404,2.779-1.642,4.156-2.442
		c0.518-0.3,0.697-1.195,1.511-1.028c0.244,0.05,0.532,0.414,0.598,0.685c0.206,0.839-0.579,0.985-1.021,1.435
		c-1.805,1.84-3.759,3.647-3.834,6.508C356.003,178.538,355.365,179.098,354.346,179.087z M357.061,246.94
		c-0.66,0.081-1.186-0.083-1.222-0.837c-0.044-0.933,0.462-1.56,1.308-1.886c0.533-0.205,1.551-0.376,1.479,0.186
		c-0.265,2.09,1.027,0.935,1.687,0.905c1.56-0.072,3.111-0.246,4.669-0.364c0.792-0.06,1.496,0.141,1.856,0.917
		c0.304,0.656,0.24,1.374-0.343,1.798c-0.635,0.461-1.578,1.064-1.772-0.375c-0.18-1.322-1.122-0.909-2.103-1.115
		C361.001,247.032,358.996,246.703,357.061,246.94z M372.605,311.936c-0.389,6.418-1.297,12.807-1.136,19.258
		c0.022,0.891,0.364,2.42-1.015,2.355c-1.312-0.061-2.633-1.176-2.286-2.705c1.118-4.945-0.975-8.865-3.733-12.587
		c-0.828-1.116-0.348-1.771,0.359-2.56c0.582-0.65,0.951-1.44,0.386-2.248c-0.528-0.758-1.353-0.414-2.062-0.286
		c-0.564,0.103-1.141,0.235-1.658,0.473c-1.202,0.548-1.909-0.077-2.438-1.002c-0.607-1.062-0.04-1.715,0.929-2.12
		c0.874-0.365,1.432-1.078,2.074-1.722c0.8-0.804,1.982-1.474,2.884-0.767c1.721,1.349,3.756,0.988,6.315,1.871
		c-0.707-0.992-1.016-1.359-1.25-1.769c-0.441-0.769-0.686-1.834,0.14-2.206c1.109-0.498,0.719,0.952,1.179,1.357
		C372.759,308.568,372.715,310.116,372.605,311.936z M380.246,314.623c-4.529,4.668-6.373,10.057-4.478,16.468
		c0.222,0.747,0.229,1.47-0.341,2.083c-0.237,0.256-0.525,0.383-0.875,0.194c-0.398-0.218-0.493-0.724-0.393-2.563
		c-0.081-6.117,1.239-12.084,1.89-18.123c0.091-0.843,0.521-1.363,1.416-1.412c1.472-0.08,2.474,0.893,3.408,1.752
		C381.534,313.629,380.673,314.184,380.246,314.623z M409.377,205.608c-0.363,1.429-3.727,4.105-5.205,3.946
		c-1.917-0.206-3.638-0.068-4.927,1.813c-0.474-1.625,0.012-2.899,0.985-3.951c0.907-0.981,1.777-1.945,2.084-3.292
		c0.112-0.495,0.302-1.061,0.853-1.095c2.098-0.131,3.377-1.555,4.754-2.851c0.353-0.331,0.72-0.77,1.271-0.531
		c0.548,0.237,0.478,0.814,0.506,1.294C409.791,202.509,409.768,204.068,409.377,205.608z"/>
	<path d="M398.011,163.076c-0.07,0.608-0.362,1.097-0.872,1.418c-0.774,0.49-1.614,0.467-2.311-0.076
		c-1.062-0.83-2.021-1.601-3.526-0.909c-0.717,0.329-1.21-0.307-1.362-1.032c-0.2-0.945-0.026-1.814,0.734-2.464
		c0.608-0.521,1.696-0.854,1.961-0.195c0.844,2.104,2.68,1.781,4.271,2.133C397.508,162.085,397.975,162.373,398.011,163.076z"/>
	<path fill="none" d="M371.225,309.896c-0.707-0.992-1.016-1.359-1.25-1.771c-0.441-0.769-0.687-1.834,0.14-2.206
		c1.108-0.498,0.719,0.952,1.179,1.357c1.467,1.289,1.423,2.837,1.312,4.656c-0.389,6.418-1.297,12.807-1.136,19.258
		c0.022,0.892,0.364,2.422-1.015,2.355c-1.312-0.062-2.633-1.176-2.286-2.705c1.117-4.945-0.976-8.865-3.733-12.587
		c-0.827-1.116-0.348-1.771,0.359-2.56c0.582-0.65,0.951-1.44,0.386-2.248c-0.528-0.758-1.354-0.414-2.062-0.286
		c-0.564,0.103-1.142,0.235-1.658,0.473c-1.201,0.548-1.908-0.077-2.438-1.002c-0.607-1.062-0.04-1.715,0.929-2.12
		c0.874-0.365,1.433-1.078,2.074-1.722c0.8-0.804,1.981-1.474,2.884-0.767C366.63,309.374,368.665,309.014,371.225,309.896z"/>
	<path fill="none" d="M399.245,211.367c-0.474-1.625,0.012-2.899,0.986-3.952c0.907-0.98,1.777-1.944,2.084-3.292
		c0.111-0.495,0.302-1.062,0.853-1.095c2.098-0.13,3.377-1.555,4.754-2.851c0.353-0.331,0.72-0.77,1.271-0.531
		c0.548,0.237,0.478,0.814,0.506,1.294c0.093,1.568,0.068,3.127-0.321,4.667c-0.363,1.43-3.728,4.105-5.205,3.946
		C402.255,209.348,400.534,209.486,399.245,211.367z"/>
	<path fill="none" d="M256.096,364.249c-1.798-0.013-4.283-1.983-4.312-3.419c-0.03-1.447,3.271-4.754,4.807-4.816
		c1.126-0.046,3.482,3.441,3.491,5.168C260.087,362.434,257.715,364.26,256.096,364.249z"/>
	<path fill="none" d="M374.16,330.805c-0.081-6.117,1.239-12.084,1.889-18.121c0.091-0.844,0.521-1.363,1.416-1.412
		c1.473-0.082,2.475,0.892,3.408,1.752c0.66,0.605-0.201,1.16-0.628,1.601c-4.528,4.668-6.373,10.058-4.478,16.468
		c0.223,0.747,0.229,1.469-0.341,2.083c-0.237,0.257-0.525,0.384-0.875,0.194C374.154,333.15,374.061,332.645,374.16,330.805z"/>
	<path fill="none" d="M81.453,281.934c-0.955,1.438-2.132,2.418-3.523,3.088c-0.967,0.465-1.949,0.49-2.31-0.888
		c-0.622-2.374-2.158-2.876-3.971-1.329c-0.53,0.453-0.911,1.914-1.782,0.86c-0.81-0.979,0.596-1.453,1.18-2.031
		c0.497-0.491,1.154-0.588,1.841-0.429c1.439,0.334,2.62,0.02,3.313-1.395c0.703-1.43,1.856-1.049,2.982-0.772
		c0.506,0.124,0.951,0.37,0.901,0.979c-0.049,0.603-0.552,0.719-1.034,0.877c-0.745,0.244-2.348-0.225-1.951,1.075
		c0.462,1.507,1.713,0.544,2.637,0.06C80.162,281.807,80.59,281.512,81.453,281.934z"/>
	<path fill="none" d="M353.889,177.367c-0.064-1.188-1.338-2.618-0.182-4.156c0.285-0.379,0.479-1.197,0.916-0.973
		c2.729,1.403,2.779-1.642,4.156-2.442c0.518-0.301,0.696-1.196,1.511-1.028c0.243,0.05,0.531,0.415,0.598,0.685
		c0.205,0.839-0.579,0.984-1.021,1.435c-1.806,1.839-3.759,3.646-3.834,6.508c-0.029,1.143-0.668,1.703-1.688,1.691
		C353.176,179.074,353.688,178.253,353.889,177.367z"/>
	<path fill="none" d="M349.252,141.093c1.658-2.014,3.729-3.518,4.963-5.896c0.508-0.979,1.857,0.39,2.823,0.613
		c2.354,0.542,4.016,4.494,2.864,6.344c-0.36,0.578-0.853,1.23-1.552,0.924c-0.753-0.329-0.143-1.003-0.004-1.5
		c0.442-1.588,0.361-3.206-1.323-3.76c-1.56-0.513-3.533-0.933-4.379,1.366C352.031,140.85,350.394,140.437,349.252,141.093z"/>
	<path fill="none" d="M313.951,105.364c1.539,1.126,3.442,0.6,5.39,0.363c0.936-0.114,2.09,0.38,2.251,1.532
		c0.172,1.223-1.076,0.964-1.756,1.259c-0.902,0.392-1.807,0.799-2.747,1.076c-0.979,0.288-1.854,0.09-2.042-1.108
		c-0.168-1.066-0.772-1.565-1.796-1.701c-0.419-0.056-0.86-0.256-0.787-0.752C312.558,105.385,313.154,105.451,313.951,105.364z"/>
	<path fill="none" d="M105.396,186.088c1.297-1.206,2.289-2.396,2.607-4.082c0.155-0.817,3.939-1.066,4.541-0.405
		c0.41,0.451,0.246,0.891-0.035,1.338C111.026,185.294,108.846,186.307,105.396,186.088z"/>
	<path fill="none" d="M362.62,246.169c-1.619,0.863-3.624,0.534-5.561,0.771c-0.66,0.081-1.186-0.083-1.222-0.837
		c-0.044-0.933,0.462-1.56,1.309-1.886c0.532-0.206,1.551-0.377,1.479,0.186c-0.266,2.089,1.026,0.935,1.688,0.905
		c1.559-0.073,3.11-0.247,4.668-0.364c0.792-0.06,1.496,0.141,1.856,0.917c0.305,0.656,0.24,1.374-0.343,1.798
		c-0.636,0.461-1.578,1.064-1.772-0.375C364.543,245.962,363.602,246.375,362.62,246.169z"/>
	<path fill="none" d="M206.805,162.081c3.518-0.135,3.518-0.135,5.927-3.192c0.734,2.792,3.112,1.281,4.714,1.905
		c0.592,0.23,1.711-0.369,1.576,0.865c-0.128,1.187-1.114,1.006-1.925,0.738c-2.149-0.714-3.937-1.209-5.918,0.995
		C209.67,165.07,208.229,162.75,206.805,162.081z"/>
	<path fill="none" d="M116.588,131.282c-0.992-0.48-2.26-0.907-3.288-1.659c-0.636-0.465-0.124-1.353,0.474-1.597
		c1.456-0.595,2.811-1.278,3.908-2.439c0.277-0.294,0.74-0.388,1.137-0.141c0.407,0.254,0.428,0.677,0.301,1.084
		c-0.433,1.396-0.869,2.792-1.345,4.174C117.631,131.12,117.249,131.306,116.588,131.282z"/>
</g>
<path fill="#FFFFFF" d="M332.104,328.218c1.807-0.931,3.749-1.712,5.807-2.362c2.134-0.675,4.313-0.831,6.434-0.58l-7.695-7.695
	l-9.683,9.683C328.756,327.312,330.481,327.645,332.104,328.218z"/>
<path fill="#FFFFFF" d="M317.5,391.762c-6.682-0.475-12.585-4.012-15.438-9.583c-2.044-0.308-4.095-0.656-6.15-1.034
	c-0.831-0.152-1.617-0.404-2.379-0.699l26.171,26.171l13.906-13.906C328.237,392.506,322.865,392.143,317.5,391.762z"/>
</svg>
