<?xml version="1.0" encoding="utf-8"?>
<!-- Generator: Adobe Illustrator 16.0.0, SVG Export Plug-In . SVG Version: 6.00 Build 0)  -->
<!DOCTYPE svg PUBLIC "-//W3C//DTD SVG 1.1//EN" "http://www.w3.org/Graphics/SVG/1.1/DTD/svg11.dtd">
<svg version="1.1" id="Layer_1" xmlns="http://www.w3.org/2000/svg" xmlns:xlink="http://www.w3.org/1999/xlink" x="0px" y="0px"
	 width="500px" height="500px" viewBox="0 0 500 500" enable-background="new 0 0 500 500" xml:space="preserve">
<circle fill="#FFFFFF" cx="249.316" cy="249.316" r="249.316"/>
<g>
	<path fill="#FFFFFF" d="M122.472,148.738c-1.535-0.223-2.92,0.525-3.246,1.934c-0.468,2.023,1.373,3.062,2.623,4.233
		c0.486,0.455,1.231,0.436,1.772-0.082c0.598-0.572,0.362-1.151-0.089-1.708c-0.38-0.47-1.068-0.78-0.809-1.865
		c1.2,1.053,2.478,1.527,3.876,0.649C126.759,148.862,124.397,149.018,122.472,148.738z"/>
	<path fill="#FFFFFF" d="M343.778,440.548c0.443-0.518,0.881-1.027,1.313-1.53c0.001-0.009,0.001-0.019,0.001-0.027
		c-0.226-0.504-0.534-1.193-0.756-1.604c-0.727-0.675-2.603-2.185-1.36-1.361c-0.698-0.479-1.403-0.945-2.136-1.372
		c-1.982-1.153-4.005-2.216-6.053-3.249c-6.849-3.452-9.888-12.386-7.933-19.493c0.015-0.055,0.035-0.104,0.051-0.159
		c-4.758-6.754-5.584-16.553,1.388-22.458c1.691-1.432,3.354-2.899,4.86-4.529c0.389-0.42,3.816-4.543,2.829-3.144
		c2.37-3.206,4.591-6.513,6.873-9.782c3.634-5.207,7.441-10.261,11.772-14.86c0.213-0.534,0.429-1.066,0.639-1.603
		c1.758-4.515,3.452-9.054,5.044-13.629c5.333-15.326,9.916-30.89,14.646-46.409c-0.384-0.434-0.165-1.08-0.167-1.65
		c-0.011-2.976-2.512-5.066-5.309-4.393c-0.73,0.178-1.251,0.043-1.787-0.374c-0.703-0.547-1.438-0.712-2.234-0.188
		c-0.604,0.396-1.199,0.453-1.77-0.072c-0.565-0.523-0.525-1.132-0.252-1.777c0.672-1.578,1.075-3.199,1.021-4.943
		c-0.032-1.062,0.387-1.826,1.635-1.108c1.434,0.823,2.408,0.181,2.914-1.084c0.648-1.62,1.507-2.276,3.326-1.804
		c1.278,0.33,2.125-0.639,2.527-1.785c0.347-0.987-0.225-1.709-1.021-2.242c-1.104-0.74-4.663-0.531-5.194,0.583
		c-0.948,1.981-2.433,2.419-4.407,2.685c-1.54,0.207-3.245,1.08-4.048-0.705c-0.798-1.771,1.062-2.611,2.165-3.604
		c0.177-0.159,0.406-0.268,0.626-0.368c0.987-0.454,1.371-1.312,1.569-2.306c0.146-0.723,0.365-1.479-0.424-1.962
		c-0.745-0.458-1.391-0.146-1.957,0.407c-0.861,0.848-1.635,1.814-2.604,2.517c-1.896,1.373-2.921,4.104-6.414,3.903
		c2.193-1.039,1.762-3.057,2.677-4.448c0.597-0.907-0.283-1.661-0.967-2.229c-0.612-0.509-1.303-1.297-2.079-1.07
		c-1.114,0.322-0.127,1.207-0.158,1.836c-0.033,0.676-0.416,1.01-0.915,1.314c-0.662,0.406-1.034,1.026-1.17,1.77
		c-0.818,4.474-2.962,8.512-4.216,12.85c-0.976,3.373-2.332,3.631-4.911,1.287c-0.598-0.543-1.117-1.174-1.722-1.708
		c-0.862-0.761-1.896-1.202-2.771-0.187c-0.852,0.984-0.059,1.561,0.816,2.023c0.571,0.303,0.881,0.814,0.33,1.369
		c-1.405,1.412-2.033,3.297-3.965,4.529c-2.32,1.48-4.415,1.086-6.688,0.953c-0.383-0.022-0.804-0.344-0.761-0.807
		c0.021-0.252,0.329-0.681,0.517-0.686c2.473-0.053,3.246-2.315,4.404-3.746c1.3-1.604,3.643-3.585,2.875-5.529
		c-1.047-2.656,0.444-3.504,1.838-4.684c0.951-0.807,2.215-1.506,1.393-2.896c-0.733-1.24-1.86-0.312-2.807,0.02
		c-0.504,0.177-1.078,0.771-1.512,0.141c-0.422-0.618,0.008-1.443,0.505-1.697c1.605-0.818,1.493-2.35,1.778-3.722
		c0.27-1.286-0.06-2.371-1.129-3.239c-1.299-1.055-1.908,0.387-2.896,0.939c-0.278-1.057-0.479-1.912-0.73-2.754
		c-0.985-3.288,0.089-5.276,3.293-6.646c1.304-0.557,2.706-0.391,3.968-0.968c0.498-0.229,1.231-0.487,1.483,0.189
		c0.302,0.806-0.522,1.051-1.078,1.342c-1.157,0.605-3.039,0.109-3.209,2.255c-0.034,0.44-0.673,0.097-0.987-0.149
		c-1.056-0.82-1.966-0.759-2.527,0.531c-0.532,1.225-0.568,2.295,0.921,3.027c1.71,0.843,3.598,0.621,5.723,1.445
		c-1.685-2.768,0.386-4.205,1.594-5.537c1.54-1.697,1.364,1.433,2.549,1.358c0.149-0.009,0.303,0.114,0.461,0.144
		c2.614,0.488,5.144,1.381,7.861,1.379c5.282-0.002,10.346-1.666,15.59-1.971c1.332-0.076,3.521,0.758,3.762-1.076
		c0.246-1.865-2.15-1.756-3.445-2.346c-3.428-1.564-7.167-2.482-9.684-5.699c-1.07-1.369-2.639-1.744-4.238-0.385
		c-0.776,0.662-1.752,1.042-2.844,0.227c2.562,0.14,3.476-4.741,6.875-2.086c0.143,0.112,0.617-0.115,0.891-0.269
		c0.766-0.428,1.475-0.25,2.307-0.12c2.65,0.416,4.856,1.548,6.812,3.353c0.993,0.916,1.797,0.593,2.517-0.596
		c0.729-1.207,0.241-2.538,0.717-3.755c0.879-2.248,0.01-4.117-1.681-5.555c-1.324-1.126-2.295-1.94,0.239-2.606
		c0.548-0.144,0.677-0.609,0.696-1.141c0.062-1.666,0.901-2.563,2.609-2.444c1.665,0.116,1.735-0.925,1.418-2.039
		c-0.265-0.917-0.729-1.805-1.255-2.61c-0.721-1.108-1.631-2.031-3.146-1.891c-1.55,0.144-1.554,1.241-1.72,2.437
		c-0.154,1.105-1.39,1.201-2.234,1.603c-0.142,0.067-0.575-0.107-0.602-0.229c-0.229-1.036,0.712-1.321,1.271-1.838
		c1.373-1.269,2.247-2.595,0.402-4.229c2.406-0.739,4.215,0.367,6.257,1.06c-1.968-1.438-1.36-4.583-4.196-5.48
		c-1.1-0.348-1.897-1.694-2.794-2.623c-0.559-0.579-0.871-1.524-0.081-1.865c2.383-1.028,1.107-2.05,0.075-2.965
		c-1.396-1.238-1.596-3.075-0.562-3.998c1.193-1.066,2.462,0.375,3.348,1.465c0.249,0.308,0.482,0.677,0.082,1.115
		c-0.944,0.123-1.271-1.153-2.233-1.094c1.123,3.051,3.365,3.729,5.55,1.708c0.51-0.471,1.442-1.367,1.482-0.141
		c0.06,1.875,0.757,2.312,2.395,2.402c0.694,0.039,1.177,0.835,1.354,1.58c0.633,2.658,2.92,1.436,4.423,1.725
		c1.417,0.273,1.874-1.147,2.149-2.426c0.207-0.957,0.046-2.087,0.92-2.875c0.986,0.614,0.272,1.581,0.69,2.268
		c0.537,0.882,1.181,1.539,2.263,1.604c0.522,0.031,1.201-0.203,1.127-0.665c-0.325-1.977,1.235-3.923,0.024-5.902
		c-0.385-0.626-1.225-1.501-0.154-2.043c0.853-0.431,1.126,0.609,1.442,1.243c0.578,1.157,1.485,1.817,2.747,1.254
		c1.316-0.587,2.576-1.293,3.382-2.639c1.901-3.181,1.106-5.108-2.464-5.777c-0.315-0.06-0.639-0.121-0.94-0.228
		c-0.375-0.131-0.824-0.252-0.869-0.732c-0.058-0.596,0.408-0.885,0.871-0.994c0.534-0.125,1.114-0.157,1.665-0.107
		c1.792,0.161,1.954-0.691,1.339-2.061c-0.244-0.545-0.98-1.074-0.188-1.675c3.21-2.436,2.3-5.481,1.335-8.559
		c-0.264-0.839-0.597-1.371-1.649-1.406c-1.716-0.057-2.533-1.106-2.021-2.767c0.575-1.863-0.391-1.293-1.444-1.2
		c-1.948,0.173-1.711,2.338-2.956,3.212c-0.589-1.035-0.522-1.977,0.146-2.61c1.619-1.534,3.443-2.828,5.695-3.25
		c0.674-0.126,1.326-0.087,1.438-0.93c0.116-0.868-0.382-1.382-1.156-1.606c-0.761-0.22-1.664,0.017-2.287-0.633
		c-2-2.088-4.949-1.18-7.178-2.646c-0.169,0.801,0.184,1.045,0.458,1.333c0.506,0.53,1.187,1.123,0.371,1.811
		c-0.625,0.528-1.168-0.047-1.668-0.487c-1.707-1.503-2.108-3.562-0.754-5.393c1.443-1.951,3.068-3.778,4.707-5.573
		c0.687-0.752,0.834-1.42,0.137-2.088c-0.727-0.695-1.075-1.57-1.563-2.4c-1.941-3.291-3.236-3.478-6.398-1.226
		c-0.586,0.417-1.063,1.215-2.373,1.011c1.156-0.903,1.521-1.782,0.789-2.875c-1.092-1.636,0.043-1.796,1.247-1.705
		c0.966,0.073,1.921,0.381,2.792-0.304c1.705-1.341,3.443-2.643,5.103-4.04c0.702-0.593,1.209-1.508,0.568-2.368
		c-1.038-1.396-2.298-2.721-3.581-3.78c-1.133-0.935-0.972,1.506-1.996,1.781c-0.153,0.042-0.307,0.132-0.461,0.136
		c-2.35,0.061-4.022,1.586-5.836,2.754c-1.559,1.004-2.219,1.159-2.022-1.134c0.182-2.109-1.613-2.352-3.167-2.485
		c-1.458-0.125-2.35,0.504-2.12,2.148c0.219,1.574-0.749,1.526-1.816,1.306c-1.538-0.318-2.422,0.239-2.868,1.797
		c-0.785,2.738-2.848,5.077-2.388,8.229c0.114,0.788-0.377,2.062-1.613,1.265c-2.114-1.367-2.741,0.013-3.301,1.571
		c-0.391,1.093-0.623,2.417-2.194,1.837c-0.957-0.353-2.264,1.047-2.555-0.055c-0.345-1.311,1.384-0.867,2.125-1.33
		c1.026-0.638,1.471-1.779,1.676-2.815c0.188-0.946-0.978-0.837-1.617-1.034c-0.859-0.265-1.699-0.15-1.978,0.833
		c-0.907,3.221-5.104,4.11-5.178,7.898c-0.701-1.791,0.192-4.068,1.846-5.504c1.41-1.226,3.175-6.25,2.517-7.566
		c-0.482-0.961-0.745-1.948-0.968-2.971c-0.105-0.487-0.83-1.017-0.032-1.44c0.54-0.288,1.309-0.042,1.548,0.386
		c1.553,2.78,3.938,0.473,5.855,0.995c0.593,0.162,1.116-0.555,1.418-1.159c0.541-1.083,1.119-2.153,1.588-3.268
		c0.56-1.331,0.136-2.123-1.391-1.846c-1.72,0.312-3.574,0.007-5.124,1.186c-0.61,0.464-1.396,0.467-1.956-0.235
		c-0.611-0.764-0.422-1.51,0.14-2.207c0.625-0.776,1.334-1.411,2.422-1.414c0.643-0.002,1.455,0.152,1.834-0.402
		c1.309-1.915,3.021-1.156,4.543-0.649c1.435,0.478,2.725,0.887,3.565-0.706c0.763-1.438,0.465-2.785-0.779-3.942
		c-0.593-0.55-1.861-0.888-1.343-1.999c0.45-0.963,1.581-0.503,2.431-0.589c0.558-0.056,1.143-0.03,1.667-0.196
		c0.517-0.164,0.719-0.646,0.475-1.176c-0.482-1.046-4.139-1.904-5.04-1.134c-1.597,1.365-3.901,2.474-5.444,2.119
		c-2.26-0.519-2.833-0.646-4.27,1.599c-1.197,1.868-3.264,3.966-5.806,4.894c-0.544-1.236-0.675-2.717-1.786-3.765
		c-1.666-1.568,0.246-3.919-1.146-5.579c-0.014-0.018,0.192-0.323,0.306-0.33c2.78-0.174,2.979-3.108,4.686-4.491
		c1.299-1.055,2.826-2.129,3.673-3.765c0.688-1.324-0.413-4.308-1.837-4.567c-0.865-0.158-2.043,0.238-1.477,1.185
		c1.854,3.099-1.161,3.099-2.466,3.941c-0.747,0.483-1.705,1.09-2.578,1.193c-3.182,0.374-5.117,4.492-8.946,2.891
		c-0.566-0.237-1.141,0.459-1.533,1.007c-0.459,0.639-1.069,0.859-1.567,0.133c-0.433-0.631-0.589-1.547,0.328-1.82
		c0.893-0.265,1.532-0.876,2.349-1.211c2.402-0.989,2.437-1.208,0.364-3.021c-0.384-0.336-0.851-0.579-0.527-1.146
		c0.313-0.554,0.926-0.465,1.26-0.148c1.85,1.755,3.533,0.532,5.305-0.147c1.12-0.43,1.339-1.12,0.871-2.073
		c-0.5-1.015-0.965-2.017-1.255-3.129c-0.329-1.265-1.536-1.354-2.575-1.37c-1.234-0.02-0.646,1.023-0.785,1.638
		c-0.2,0.887-0.375,1.846-1.674,1.431c-2.704-0.862-3.899-0.276-4.899,2.386c-0.261,0.692,0.112,2.027-0.938,1.908
		c-0.842-0.095-1.411-1.31-1.605-2.191c-0.193-0.874-0.58-1.938,0.207-2.782c0.9-0.968,0.457-1.741-0.259-2.531
		c-0.432-0.477-0.959-1-0.526-1.701c0.44-0.721,1.205-0.796,1.943-0.591c1.604,0.447,2.978,0.305,4.182-1.041
		c0.651-0.729,1.834-0.896,2.34-0.004c1.562,2.755,2.785,1.743,3.98-0.414c0.244,0.423,0.432,0.61,0.458,0.817
		c0.121,0.95-0.688,2.309,0.841,2.656c1.567,0.356,1.717-1.017,2.083-2.097c0.396-1.171,1.359-1.209,2.128-0.551
		c2.149,1.841,3.791-2.058,5.858-0.429c0.085-0.134,0.218-0.258,0.248-0.404c0.683-3.087,2.033-1.268,2.859-0.248
		c1.613,1.992,3.479,2.182,5.584,1.174c1.524-0.731,3.016-1.467,4.645-1.998c1.388-0.451,2.031-1.817,1.859-3.335
		c-0.107-0.95-0.997-2.138-1.617-1.741c-1.865,1.192-3.51,1.584-5.338,0.146c-2.005,1.812-4.238,0.253-6.287,0.506
		c-2.123,0.263-4.084,1.859-6.38,0.598c-2.204,2.29-5.186,0.345-7.624,1.391c-0.395,0.169-0.847,0.071-1.027-0.363
		c-0.245-0.594,0.19-0.9,0.65-1.095c0.369-0.156,0.801-0.169,1.162-0.336c1.69-0.781,3.514-0.914,5.291-1.292
		c0.874-0.187,1.594-0.981,2.832-1.138c3.84-0.486,7.951-0.176,11.187-3.161c0.993-0.917,1.712-1.666,0.834-2.754
		c-0.812-1.009-2.041-0.968-2.971,0.021c-0.565,0.602-1.078,0.988-1.866,0.531c-1.602-0.928-3.295-0.591-4.958-0.332
		c-0.569,0.089-1.075,0.355-1.542-0.182c-0.543-0.624-1.108-1.262-2.055-0.854c-1.166,0.504-0.12,1.611-0.517,2.29
		c-1.538,0.354-1.569-2.644-3.086-1.485c-0.997,0.762-1.53,2.225-2.075,3.46c-0.519,1.171-0.997,1.649-2.071,0.588
		c-0.548-0.542-1.614-1.014-1.925-0.448c-1.299,2.381-3.244,0.97-4.915,1.058c-1.964,0.104-3.996-0.301-5.661,1.293
		c-0.552,0.527-1.427,0.708-2.139,1.078c-0.617,0.32-1.318,0.3-1.222-0.464c0.312-2.441-1.022-2.949-3.02-2.902
		c-0.396,0.009-0.883-0.13-0.789-0.668c0.088-0.507,0.562-0.478,0.976-0.432c1.39,0.156,2.682,0.464,3.655,1.624
		c0.787,0.936,2.157,1.315,2.645,0.167c1.168-2.751,3.862-2.882,5.962-4.023c0.501-0.272,0.946-0.514,1.351-0.941
		c1.979-2.09,4.821-2.857,7.121-4.519c1.453-1.05,3.396-1.207,2.627-3.701c-0.212-0.688,0.299-1.194,0.778-1.667
		c0.618-0.609,0.695-1.319-0.036-1.869c-0.612-0.459-1.401-0.289-1.7,0.327c-1.465,3.007-5.133,3.058-7.09,5.388
		c-0.396,0.472-1.013,0.56-1.492,0.025c-0.547-0.608-0.136-1.035,0.361-1.384c2.1-1.472,3.282-3.751,4.963-5.591
		c1.144-1.252,1.432-2.285,0.109-3.735c-1.421-1.56-0.919-4.453,0.786-5.188c0.976-0.419,2.045-0.58,1.351-1.893
		c-0.67-1.266-1.834-1.909-3.256-1.161c-1.246,0.656-2.119,1.588-2.265,3.186c-0.311,3.406-1.688,6.211-4.861,7.955
		c-1.108,0.609-0.934,1.595-0.077,2.417c0.412,0.397,1.073,0.879,0.532,1.376c-1.551,1.428-3.066,3.39-4.916,3.844
		c-1.563,0.384-3.086,0.443-4.526,2.287c0.088-1.985-0.722-2.828-1.817-3.478c-0.698-0.414-1.091-0.941-0.615-1.796
		c0.331-0.596,0.51-1.297-0.191-1.721c-0.754-0.455-1.389-0.004-1.922,0.549c-0.729,0.756-1.414,1.56-2.188,2.268
		c-0.498,0.458-1.07,1.208-1.843,0.458c-0.582-0.566-0.222-1.123,0.161-1.722c0.473-0.738,0.788-1.582,1.131-2.396
		c0.344-0.812,0.381-1.629-0.492-2.125c-0.793-0.449-1.602-0.311-2.17,0.423c-0.475,0.612-0.844,1.146-1.764,0.689
		c-1.185-0.586-1.89,0.083-2.629,1.003c-0.898,1.118-2.066,2-2.683,3.371c-0.367,0.818-1.295,0.87-1.272-0.018
		c0.049-1.949-1.293-3.052-2.134-4.469c-0.262-0.442-0.422-0.902-0.065-1.348c0.397-0.501,0.821-0.302,1.26,0.003
		c1.093,0.76,2.139,0.749,2.959-0.385c0.492-0.678,1-0.659,1.67-0.343c0.941,0.442,1.884,0.343,2.158-0.749
		c0.34-1.349,1.187-2.849-0.071-4.124c-0.875-0.888-1.953-0.552-2.904,0.034c-3.454,2.126-4.469,2.137-7.955,0.047
		c-0.135-0.081-0.307-0.096-0.459-0.151c-0.496-0.179-1.362,0.01-1.338-0.737c0.031-0.912,0.963-0.75,1.529-0.72
		c2.203,0.117,3.563-0.604,3.702-3.044c0.068-1.206,0.601-1.919,1.834-0.758c1.106,1.041,2.251,0.383,3.39-0.023
		c2.874-1.026,5.052-3.58,8.34-3.735c0.758-0.036,1.344-0.63,1.237-1.519c-0.112-0.952-0.725-1.473-1.668-1.36
		c-0.993,0.119-1.926-0.07-2.88-0.251c-1.636-0.311-1.614-1.11-0.637-2.146c1.186-1.253,2.688-2.148,4.263-2.68
		c2.236-0.753,2.365-2.707,2.848-4.402c0.261-0.919-0.692-1.718-1.503-1.126c-1.352,0.986-3.168,1.279-4.146,2.788
		c-1.413,2.182-4.313,2.796-5.481,5.286c-0.345,0.734-1.269,0.506-1.996,0.3c-0.724-0.204-1.219-0.351-1.627,0.722
		c-1.149,3.023-3.502,3.682-6.236,1.988c-0.385-0.238-0.796-0.648-1.287-0.187c-0.398,0.813,0.832,1.463,0.186,2.304
		c-0.894,0.287-1.229-0.577-1.799-0.929c-0.858-0.532-1.551,0.288-2.326,0.184c-0.446-0.06-0.582-0.479-0.736-0.867
		c-0.637-1.6,0.318-3.046,2.195-3.159c0.867-0.052,1.654,0.129,2.518-0.458c1.845-1.253,3.117-3.996,2.555-6.172
		c-0.16-0.622-0.392-1.749,0.446-1.333c2.104,1.041,4.163-0.099,6.182,0.34c1.166,0.253,2.265,0.393,3.075-0.712
		c0.593-0.806,0.672-1.759,0.015-2.47c-1.055-1.138-2.011-3.361-3.68-2.625c-2.973,1.312-7.004-0.238-8.971,3.632
		c0.497-2.915,5.001-6.467,7.53-6.064c2.564,0.409,4.564-0.602,6.459-2.031c0.854-0.645,1.729-1.55,2.761-1.278
		c2.04,0.538,3.188-0.569,4.413-1.805c1.136-1.146,2.296-2.28,3.525-3.322c1.194-1.011,1.097-2.076,0.323-3.204
		c-0.733-1.072-1.762-1.555-2.902-0.712c-1.933,1.428-4.129,2.112-6.42,2.625c-1.001,0.224-1.775,0.867-1.214,1.888
		c1.009,1.829-0.584,1.371-1.285,1.56c-0.774,0.209-1.309-0.502-1.959-0.79c-1.319-0.585-2.465-0.876-2.692,1.263
		c-0.205,1.938-3.882,3.269-5.3,2.012c-1.286-1.14-2.082-0.81-2.235,0.799c-0.219,2.272-1.381,2.52-3.149,1.667
		c-0.699-0.338-1.636-0.1-2.377-1.159c2.711-0.979,4.008-2.969,5.073-5.583c0.64-1.565,0.31-4.187,2.938-4.825
		c0.588-0.143,0.428-1.296-0.266-1.562c-1.291-0.498-2.736-0.675-4.027-0.148c-1.18,0.481-1.029,1.682-0.887,2.758
		c0.07,0.542,0.26,1.322-0.512,1.376c-0.787,0.055-0.572-0.788-0.699-1.294c-0.177-0.699-0.271-1.442-0.589-2.073
		c-0.356-0.711-1.325-1.241-1.762-0.555c-1.013,1.595-2.942,1.891-4.054,3.345c-1.481,1.941-2.297,1.74-3.457-0.58
		c0.832,0.42,1.646,0.904,2.457,0.126c0.658-0.634,0.664-1.449,0.438-2.26c-0.311-1.104-1.251-1.134-2.15-1.158
		c-1.293-0.033-2.613-0.164-3.41,1.254c-0.316,0.563-0.777,0.618-1.42,0.219c-2.742-1.698-3.521-1.228-3.601,2.03
		c-0.032,1.438,0.497,3.527-0.758,4.104c-2.513,1.154-2.562,5.083-6.035,4.959c-0.669-0.024-1.081,5.764-0.382,5.966
		c1.736,0.501,1.165,1.269,0.504,2.278c-1.466,2.232-3.604,4.107-3.736,7.068c-0.054,1.18-0.705,2.602,1.436,2.435
		c0.541-0.042,0.762,0.261,0.73,0.718c-0.072,1.003-0.445,1.886-1.269,2.514c-0.356,0.274-0.899,0.32-1.081-0.052
		c-0.663-1.369-1.363-2.713-2.077-4.055c-0.489-0.921,0.576-1.719,1.138-2.499c1.344-1.873,0.51-3.92-1.742-4.137
		c-1.621-0.157-1.719-0.682-0.644-1.731c0.625-0.61,1.027-1.296,0.579-2.156c-0.411-0.789-1.159-0.836-1.896-0.595
		c-0.903,0.294-1.105-0.186-1.281-0.917c-0.4-1.664-0.854-3.325-3.207-2.239c-0.305,0.14-0.824,0.112-0.84-0.192
		c-0.106-1.943-2.18-1.99-2.976-3.179c-1.166-1.741-2.12-1.876-3.203-0.018c-0.422,0.728-1.062,1.018-1.846,0.738
		c-0.83-0.295-1.542-0.997-1.275-1.826c0.717-2.239-0.517-3.898-1.371-5.699c-0.346-0.729-0.719-1.417-0.066-2.241
		c1.364-1.727,0.055-2.305-1.318-2.593c-1.013-0.213-2.093-0.151-3.143-0.133c-0.773,0.013-1.892-0.367-2.215,0.451
		c-0.389,0.983,0.903,1.129,1.449,1.63c1.46,1.338,2.809,2.525,0.656,4.493c-0.855,0.783-0.225,1.861,0.626,2.486
		c1.358,0.997,1.349,2.119,0.841,3.62c-0.496,1.469-0.955,3.417,0.787,4.269c1.782,0.872,1.803,2.32,2.078,3.781
		c0.135,0.719,0.03,1.471-0.549,2.027c-0.27,0.259-0.578,0.203-0.855-0.056c-0.664-0.618-0.459-1.268-0.172-1.992
		c0.316-0.805,0.306-1.891-0.496-2.155c-1.49-0.492-2.709-1.795-4.421-1.561c-0.247,0.034-0.569,0.393-0.645,0.661
		c-0.476,1.7-1.755,2.607-3.126,3.535c-0.865,0.586-1.338,2.045-0.145,2.293c2.522,0.523,1.623,2.263,1.751,3.762
		c-2.085-2.046-4.435-3.793-6.058-6.253c-0.676-1.024,0.091-1.256,0.857-1.429c0.998-0.225,1.115-0.875,0.728-1.642
		c-0.435-0.859-0.093-2.473-1.56-2.374c-1.611,0.109-3.322-0.914-4.873,0.651c-0.625-2.69-0.236-4.588,2.311-5.61
		c0.93-0.373,1.373-1.155,1.046-2.166c-0.306-0.943-1.147-1.031-1.983-1.048c-1.459-0.031-2.062,0.901-2.633,2.092
		c-0.518,1.083-0.591,3.128-2.873,1.638c-0.824-0.538-1.715,0.699-1.259,1.377c1.389,2.062,0.945,4.556,1.895,6.679
		c0.165,0.367,0.427,0.691,0.587,1.06c0.341,0.79,0.934,2.014-0.582,1.791c-1.025-0.15-0.938-1.71-1.135-2.723
		c-0.015-0.079-0.006-0.162-0.018-0.242c-0.293-1.845-1.105-2.198-2.514-1.026c-1.289,1.072-1.767,2.356-0.504,3.759
		c0.721,0.799,1.576,1.477,2.742,2.551c-2.213,0.254-4.676,0.353-5.043-0.692c-0.842-2.397-2.453-3.863-3.936-5.695
		c-1.357-1.678-2.503-2.91-4.449-1.822c-0.951,0.531-1.926,1.267-1.605,2.449c0.438,1.613,1.6,0.203,2.412,0.357
		c0.128,0.024,0.23,0.178,0.471,0.376c-1.459,1.592-2.197,3.023,0.34,4.536c1.453,0.866-0.569,1.432-0.824,2.216
		c-0.346,1.067-1.323,1.416-2.078,0.591c-1.864-2.038-4.733-2.159-6.799-3.796c-0.66-0.523-1.293-1.488-2.245-1.288
		c-1.944,0.407-2.851-0.346-3.231-2.203c-0.216-1.051-1.135-1.601-2.008-0.889c-1.419,1.158-1.928,0.104-2.693-0.743
		c-2.438-2.696-4.441-3.071-7.146-1.39c-0.613-0.543,0.801-2.143-0.795-1.974c-1.365,0.145-3.112,0.257-3.883,1.519
		c-0.836,1.37,1.705,4.117,3.43,4.052c4.18-0.157,8.288,1.113,9.454,4.741c-1.157-0.486-1.923-1.749-3.132-1.208
		c-0.921,0.413-1.701,1.165-2.775,0.21c-0.372-0.332-0.866,0.178-1.24,0.5c-0.975,0.841-0.359,6.538,0.806,7.191
		c0.193,0.108,0.46,0.103,0.694,0.119c2.531,0.168,3.29,1.035,3.223,3.453c-0.026,0.953,0.309,1.913,0.305,2.87
		c-0.006,1.756,0.842,1.647,1.967,0.993c1.041-0.605,1.951-1.457,3.222-1.607c1.071-0.127,1.641,0.498,2.075,1.341
		c0.277,0.542,0.347,1.099-0.08,1.586c-0.697,0.799-1.452,0.463-2.18,0.033c-0.496-0.293-1.145-0.737-1.568-0.363
		c-2.188,1.93-4.689,1.549-7.219,1.179c-0.142-0.021-0.309,0.087-0.456,0.151c-0.472,0.205-0.706,0.121-0.841-0.445
		c-0.395-1.641-1.373-1.014-2.43-0.686c-0.922,0.287-2.42,1.427-2.411-1.003c0.003-0.78-0.821-1.173-1.396-0.563
		c-1.088,1.155-1.639,0.264-2.363-0.371c-0.789-0.69-1.576-1.408-2.463-1.953c-1.215-0.747-2.365-1.389-1.895-3.165
		c0.174-0.651-0.26-1.577-0.908-1.458c-1.665,0.307-3.278-0.058-4.91-0.012c-0.479,0.014-0.783,0.534-0.955,1.009
		c-0.52,1.429,2.17,5.345,3.674,5.121c2.123-0.316,2.793,0.32,2.137,2.372c-0.084,0.26,0.018,0.832,0.148,0.871
		c1.807,0.534,1.365,2.045,1.541,3.315c0.075,0.535,0.549,1.07-0.055,1.54c-0.555,0.432-1.063,0.143-1.537-0.217
		c-0.537-0.41-1.002-0.562-1.749-0.236c-2.188,0.953-4.312,2.649-6.895,0.722c-0.548-0.409-1.575-0.289-2.367-0.229
		c-1.063,0.081-2.65-0.211-2.72,1.303c-0.064,1.399,1.195,2.235,2.551,2.502c0.688,0.136,1.449,0.019,2.158-0.099
		c0.752-0.125,1.467-0.224,2.006,0.436c1.116,1.364,2.403,1.215,3.937,0.742c2.675-0.825,6.858,1.522,5.995,3.311
		c-1.602,3.32,1.059,3.47,2.527,4.631c0.379,0.299,0.851,0.494,1.188,0.829c0.536,0.532,0.43,1.058-0.311,1.262
		c-0.535,0.147-1.119,0.12-1.682,0.167c-0.982,0.081-1.803,0.596-2.04,1.479c-0.308,1.146,0.906,0.799,1.444,1.113
		c0.346,0.201,0.812,0.299,0.758,0.808c-0.019,0.19-0.302,0.529-0.409,0.509c-2.247-0.425-4.662,1.809-6.817-0.495
		c-0.688-0.735-1.877-0.846-2.081,0.365c-0.36,2.132-1.607,1.262-2.697,1.058c-1.187-0.222-1.892-1.191-2.788-1.865
		c-0.693-0.522-1.461-0.727-2.252-0.231c-0.613,0.384-0.777,1.02-0.707,1.697c0.09,0.871,0.701,1.219,1.485,1.34
		c1.077,0.167,1.794,0.585,1.419,2.07c-1.055-0.359-1.611-1.924-2.779-1.205c-1.367,0.842,0.219,1.923-0.024,2.791
		c-0.487,1.739-0.306,3.938-2.596,5.108c-0.154-1.196,0.738-2.243-0.512-2.714c-1.147-0.432-2.34-0.286-3.089,0.723
		c-1.504,2.021-2.114,0.618-2.539-0.667c-0.457-1.386-0.658-2.957,0.296-4.196c0.935-1.213,1.368-2.275-0.015-3.303
		c-1.06-0.788-1.863-2.98-3.48-1.649c-1.267,1.043-3.915,1.298-3.113,4.223c0.48,1.75,0.702,3.836,0.197,5.519
		c-0.531,1.766-1.788,3.492-0.629,5.167c1.005,1.453,1.654,3.57,4.635,3.474c-2.644,1.729-0.47,2.84-0.106,4.192
		c-4.115-1.179-4.28-1.093-5.471,2.69c-1.127-2.552-2.214-5.122-3.851-7.39c-0.339-0.47-0.068-1.082,0.176-1.619
		c1.057-2.31-2.069-3.271-1.801-5.408c0.037-0.286-1.008-0.299-1.496,0.081c-1.338,1.043-1.898,2.191-0.495,3.642
		c0.491,0.508,0.22,5.034-0.376,5.364c-1.366,0.759-1.023,1.657-0.355,2.606c0.534,0.758,0.904,2.01,2.105,1.641
		c1.479-0.455,0.591-1.758,0.66-2.714c0.008-0.115,0.168-0.219,0.329-0.417c0.735,1.619,1.71,3.021,1.499,4.952
		c-0.118,1.083-0.086,2.459,1.961,2.196c1.312-0.168,1.969,1.308,1.835,2.368c-0.192,1.533-0.081,3.037-0.161,4.546
		c-0.082,1.568-0.77,2.759-2.666,1.449c-1.073-0.747-2.327-0.562-3.533-0.514c-0.759,1.075-1.16,2.328-1.54,3.615
		c-1.178-0.558-1.612-1.363-1.768-2.381c-0.158-1.04-0.609-1.864-1.779-1.979c-0.598-0.06-1.133,0.18-1.439,0.718
		c-0.551,0.969-0.283,1.863,0.338,2.702c0.748,1.008,2.715,1.993-0.105,2.98c-0.713,0.249-0.363,1.111,0.102,1.652
		c0.273,0.317,0.535,0.67,0.133,1.045c-0.33,0.309-0.93,0.359-1.089,0.039c-1.232-2.478-5.369-0.092-5.992-3.612
		c-0.072-0.408-0.832-0.351-1.325-0.288c-1.344,0.17-3.272,4.262-2.535,5.389c0.312,0.479,0.801,0.583,1.279,0.428
		c1.643-0.533,2.852-0.288,4.343,0.917c1.251,1.01,3.44,0.508,5.097,1.296c0.252,0.12,0.836-0.357,1.214-0.631
		c0.366-0.266,0.603-0.934,1.157-0.583c0.559,0.354,0.309,0.973,0.25,1.543c-0.237,2.32-1.949,3.44-3.614,4.614
		c-1.058,3.381-1.053,3.329,2.698,3.183c2.297-0.089,4.475,0.733,6.539,1.56c1.373,0.55,2.25,2.131,1.737,3.647
		c-0.505,1.494-1.739,0.021-2.655,0.147c-0.764,0.105-1.646-0.343-2.182,0.542c-0.504,0.833-0.398,1.699,0.037,2.545
		c0.309,0.602,1.166,1.117,0.504,1.909c-0.838,1.001-0.867,1.88,0.181,2.7c1.2,0.938,1.934,0.411,2.765-0.676
		c0.58-0.757,1.764-0.766,2.365,0.021c0.893,1.167,0.896,2.589,0.117,3.863c-0.557,0.911-1.348,0.731-2.059,0.109
		c-1.758-1.536-3.535-0.819-4.734,0.494c-1.127,1.235-1.863,1.05-3.076,0.41c-1.959-1.035-3.832-0.554-5.299,0.976
		c-1.559,1.626-3.224,2.596-5.559,2.116c-0.501-0.103-1.184,0.044-1.611,0.331c-2.823,1.89-5.627,3.811-8.373,5.811
		c-0.771,0.562-1.078,1.519-0.273,2.322c0.699,0.699,1.756,0.523,2.121-0.198c0.992-1.964,3.094-2.388,4.646-2.667
		c2.637-0.475,5.142-3.748,8.113-0.827c3.188-0.637,1.821,1.626,1.857,2.955c0.047,1.709-1.73,2.883-1.836,4.165
		c-0.264,3.21-0.471,6.688,2.602,9.089c0.889,0.694,1.479,1.401,0.216,2.509c-1.444,1.269-0.927,2.614,0.718,3.136
		c2.055,0.653,1.303,1.179,0.403,2.362c-0.825,1.085-2.755,2.096-1.567,3.899c1.391,2.111-0.238,1.768-1.289,1.699
		c-2.074-0.138-4.023-1.266-6.273-0.597c0.521-1.313-0.605-6.695-1.43-7.46c-0.117-0.109-0.248-0.214-0.39-0.285
		c-2.879-1.451-3.642,1.657-5.36,2.621c-1.167,0.654-1.404,2.29-0.521,3.469c1.863,2.483,3.329,5.337,6.157,6.991
		c0.473,0.276,1.059,0.702,1.184,1.168c0.424,1.57,1.384,1.952,3.363,1.166c-1.604,2.105-2.465,4.117-5.022,2.194
		c-0.648-0.487-1.691-0.62-2.553-0.619c-1.77,0.003-3.497,0.136-5.226-0.554c-0.938-0.375-4.178,2.593-4.239,3.673
		c-0.052,0.911,0.472,1.371,1.292,1.442c3.031,0.261,4.738,3.019,7.434,3.906c0.326,0.107,0.61,0.601,0.408,0.743
		c-1.467,1.031-0.139,3.293-1.89,4.165c-0.68,0.338-0.926,0.912-0.616,1.617c0.362,0.828,0.84,1.627,1.793,1.839
		c0.881,0.195,1.289-0.467,1.635-1.145c0.353-0.688,0.632-1.867,1.629-1.273c1.36,0.811,2.773,0.745,4.205,0.881
		c0.643,0.061,1.4,0.089,1.594,0.845c0.238,0.921-0.658,0.959-1.189,1.226c-1.832,0.921-4.021,1.026-5.598,2.578
		c-0.424,0.416-1.289,0.456-1.225,1.275c0.062,0.765,0.572,1.34,1.206,1.735c1.243,0.772,2.088,0.055,2.962-0.781
		c0.551-0.525,1.1-1.849,2.077-0.685c1.396,1.663,2.196,0.652,2.962-0.504c0.404-0.61,0.595-1.384,1.551-1.22
		c0.808,0.139,0.933,0.798,1.03,1.454c0.243,1.632,1.2,2.729,2.779,2.958c1.767,0.255,0.071-1.942,0.925-2.114
		c3.112,1.981,4.85,5.081,7.925,6.694c-0.162,2.523,1.738,3.106,3.435,4.257c1.033,0.699,2.441,2.109,2.264,4.039
		c-0.071,0.773,0.859,1.096,1.453,0.746c3.129-1.842,3.936,0.729,4.945,2.627c1.176,2.211,1.668,2.347,3.383,0.482
		c0.528-0.574,1.11-1.617,1.916-1.025c0.979,0.719-0.147,1.351-0.549,1.969c-0.307,0.473-0.609,0.949-0.887,1.438
		c-0.674,1.186-1.205,2.477,0.08,3.506c1.501,1.201,1.997-0.275,2.766-1.188c0.752-0.894,1.918-1.03,2.873-0.462
		c0.946,0.564,0.109,1.259-0.23,1.84c-0.426,0.73-0.357,1.482,0.172,2.028c1.109,1.146,1.461,2.923,3.061,3.645
		c0.516,0.231,0.876,0.638,0.443,1.114c-0.77,0.852-0.543,2.096-1.281,3.254c-1.414-2.309-3.049-3.078-5.285-1.021
		c0.562-1.445,1.188-2.527,1.738-3.646c0.475-0.965,0.879-2.008-0.128-2.885c-0.922-0.802-1.989-0.502-2.992-0.147
		c-1.22,0.432-1.128,1.396-0.907,2.414c0.366,1.689-0.615,2.493-2.068,2.576c-1.76,0.102-5.571-2.958-5.604-4.729
		c-0.04-2.151-0.179-3.931-2.192-5.291c-0.677-0.459-0.768-1.896-2.076-1.285c-1.219,0.566-1.559,1.599-1.01,2.836
		c0.507,1.145,0.727,2.318,0.469,3.544c-0.123,0.585-0.479,1.146-1.171,0.907c-0.767-0.266-0.478-0.836-0.218-1.389
		c0.551-1.176-0.858-4.962-1.916-4.777c-2.168,0.379-4.09-2.475-6.322-0.088c0.374-1.527,0.886-2.746,1.281-3.998
		c0.736-2.336-1.509-2.492-2.633-3.432c-0.545-0.455-1.455-0.498-1.594,0.293c-0.229,1.301-0.852,1.955-2.082,1.776
		c-1.238-0.181-1.55-1.293-1.76-2.345c-0.178-0.893-0.59-1.649-1.559-1.508c-2.791,0.407-2.938-1.41-3.119-3.392
		c-0.164-1.773-0.885-3.427-2.031-4.749c-2.104-2.424-3-2.201-4.172,0.789c-0.147,0.374-0.365,0.72-0.555,1.077
		c-0.594,1.117-0.695,2.025,0.912,2.267c1.084,0.163,0.977,0.895,1.051,1.786c0.189,2.284,1.112,4.204,2.954,5.798
		c1.101,0.951,2.884,0.75,3.505,2.326c0.681,1.729,1.396,3.446,2.09,5.171c0.246,0.611,0.516,1.28-0.177,1.747
		c-0.612,0.413-0.976-0.217-1.462-0.459c-1.417-0.706-2.604-2.779-3.961-2.335c-2.477,0.813-2.903-0.647-4.089-2.044
		c-1.069-1.26-0.915-3.682-3.273-3.793c-2.336-0.111-4.001-1.093-4.599-3.493c-0.121-0.489-0.362-1.001-0.855-1.099
		c-2.436-0.479-4.776-1.62-7.35-1.18c-0.935,0.16-1.752,0.599-1.654,1.728c0.105,1.213,3.486,2.862,4.6,2.196
		c0.81-0.483,1.573-0.44,1.809,0.332c0.345,1.133,2.563,1.318,1.537,3.022c-0.465,0.771-1.235,1.509-0.42,2.351
		c0.902,0.93,1.724,0.252,2.526-0.395c0.984-0.791,1.828-0.027,2.654,0.419c0.509,0.274,1.118,0.806,0.697,1.337
		c-2.057,2.594,0.887,4.379,1.255,6.528c0.25,1.457,0.269,2.101-0.723,2.83c-1.168,0.858-2.503,1.479-3.502,2.58
		c-0.41,0.452-0.895,1.262-1.552,0.813c-0.534-0.365-0.911-1.156-1.069-1.826c-0.213-0.902,0.717-0.867,1.262-1.133
		c1.006-0.494,1.842-1.248,1.602-2.432c-0.24-1.175-1.404-0.787-2.234-0.924c-1.033-0.17-2.411,0.382-2.785-1.234
		c-0.194-0.835-0.41-1.619-1.479-1.581c-1.096,0.04-1.871,0.556-2.023,1.701c-0.201,1.508-1.084,1.384-2.089,0.901
		c-0.505-0.241-0.915-0.729-1.435-0.891c-1.484-0.463-3.043-0.322-3.912,1.004c-0.879,1.344,0.494,1.86,1.301,2.785
		c1.431,1.641,3.318,2.105,5.052,3.01c0.521,0.271,1.496,0.524,0.804,1.33c-0.588,0.688-0.521,2.41-2.094,1.812
		c-2.697-1.026-5.442-2.072-7.487-4.204c-0.702-0.731-1.241-0.978-2.242-0.937c-2.351,0.098-3.419-1.631-2.407-3.723
		c0.337-0.693,0.645-1.374-0.008-1.99c-1.167-1.105-6.127,0.133-6.637,1.682c-0.293,0.889-0.143,2.246,1.004,1.761
		c1.541-0.651,1.379,0.062,1.789,1.046c0.51,1.225,1.591,2.189,0.785,3.727c-0.232,0.441,0.398,1.047,0.838,0.957
		c3.429-0.693,4.771,1.428,6.223,3.992c0.631,1.115,3.086,1.383,0.601,3.053c-0.122,0.082-0.024,0.619,0.085,0.898
		c0.715,1.818-0.364,2.027-1.871,2.151c0.129-0.399,0.152-0.64,0.271-0.815c0.874-1.279,0.566-2.486-0.709-3.021
		c-1.379-0.578-1.293,1.052-1.888,1.597c-1.403,1.283-1.816,3.885-4.513,3.694c-1.697-0.12-1.449,1.127-1.127,2.192
		c0.221,0.726,1.162,1.192,0.699,2.171c-0.391,0.825-0.779,1.848,0.393,2.252c1.085,0.373,1.777-0.461,2.266-1.379
		c0.266-0.5,0.529-1.004,0.844-1.474c0.453-0.679,1.13-2.161,1.765-1.162c0.608,0.959,3.378,1.164,1.671,3.306
		c-0.76,0.951-0.682,1.809,0.486,2.352c2.447,1.141,4.146-0.021,3.991-2.68c-0.011-0.181,0.212-0.373,0.308-0.526
		c0.775,0.042,1.232,0.624,1.248,1.073c0.087,2.447,2.102,4.727,0.24,7.394c-1.27,1.819-1.229,4.589-4.039,5.24
		c-0.125,0.028-0.254,0.22-0.307,0.362c-0.835,2.291-2.846,3.74-4.391,5.39c-1.627,1.733-2.734,4.235-5.367,4.964
		c-0.58,0.16-1.094,0.811-0.683,1.311c0.962,1.164,1.876,2.512,3.356,3.027c0.947,0.33,1.627-0.414,1.48-1.363
		c-0.251-1.631,0.19-2.033,1.909-2.006c3.242,0.049,3.759-0.973,2.393-4.003c-0.374-0.827-0.272-1.465,0.696-1.04
		c1.58,0.692,2.493,0.018,3.217-1.193c0.601-1.004,1.391-1.277,2.455-0.965c2.158,0.64,3.814-0.578,4.983-1.945
		c0.991-1.16,1.151-0.504,1.695,0.117c2.177,2.488,4.132,2.951,7.167,1.584c0.961-0.432,1.462-0.262,1.91,0.675
		c0.738,1.54,1.574,2.974,3.471,3.438c0.789,0.191,0.939,1.047,0.224,1.48c-1.827,1.111-0.872,2.318-0.243,3.504
		c2.459,4.645,6.952,5.591,11.508,5.675c2.064,0.037,4.581-0.442,6.163-2.366c1.183-1.438,2.409-1.811,3.942-0.582
		c1.277,1.022,2.288,0.496,3.043-0.673c1.291-2.001,2.818-1.286,4.333-0.429c0.69,0.393,1.314,0.919,1.919,1.441
		c3.135,2.715,7.154,4.24,9.289,8.34c1.836,3.527,2.06,4.367-1.25,6.609c-1.836,1.243-4.121,1.439-5.847,3.176
		c-1.161,1.17-3.319,1.076-4.671-0.789c-1.039-1.43-2.558-1.967-4.293-2.42c-2.404-0.627-5.133,0.153-7.278-1.725
		c-0.479-0.42-1.606-0.814-2.149,0.146c-0.546,0.967-0.266,2.082,0.701,2.523c2.366,1.085,4.039,4.487,7.445,2.367
		c0.193-0.121,0.695-0.001,0.894,0.182c1.46,1.34,3.384,1.887,4.985,2.969c1.611,1.088,1.619,2.287,0.11,3.467
		c-1.097,0.855-2.375,1.322-3.663,1.806c-0.674,0.252-1.338,0.866-1.148,1.673c0.244,1.041,1.129,0.562,1.816,0.52
		c1.87-0.113,3.717-0.227,5.047-1.858c0.213-0.262,0.736-0.435,1.086-0.394c2.336,0.271,4.438,4.326,3.184,6.23
		c-0.83,1.262-1.657,2.356-0.677,3.954c0.407,0.664-0.284,1.597-0.862,1.132c-1.87-1.5-3.71-0.051-5.536-0.25
		c-1.432-0.156-3.61,2.538-3.243,3.92c0.238,0.896,0.842,1.147,1.67,0.811c0.896-0.367,1.771-0.79,2.658-1.184
		c0.687-0.303,1.71-0.646,1.958,0.112c0.757,2.315,5.067,2.647,3.462,6.25c-0.096,0.216,0.295,0.733,0.562,1.013
		c1.09,1.133,0.641,2.252,0.3,3.569c-0.435,1.685-2.456,1.845-2.831,3.494c-0.174,0.757-0.919,1.479-0.051,2.169
		c0.779,0.622,1.523,0.273,2.131-0.391c0.384-0.422,0.771-1.004,1.363-0.893c1.637,0.311,2.818-0.263,3.75-1.574
		c0.297-0.416,0.947-0.771,1.086-0.095c0.356,1.741,2.071,1.151,3.336,1.991c-2.145,0.77-1.102,3.118-2.625,4.053
		c-2.536,1.555-3.916,4.163-5.723,6.364c-1.189,1.452,0.609,2.452,1.074,3.642c0.254,0.648,1.094,1.158,1.566,0.643
		c1.721-1.883,4.549-2.701,5.448-5.305c1.004-2.908,3.453-3.834,5.929-4.811c0.478-0.188,1.072-0.146,1.306,0.329
		c0.802,1.631,2.109,1.555,3.669,1.502c2.609-0.088,2.965,0.558,1.97,2.885c-0.249,0.58-0.276,1.105,0.022,1.617
		c1.264,2.16,2.324,4.479,4.1,6.276c2.426,2.457,5.286,2.637,8.454,1.123c3.197-1.527,6.315-3.262,9.715-4.34
		c4.097-1.301,8.112-2.648,11.147-6.028c1.38-1.537,3.238-2.657,4.934-3.896c1.283-0.937,2.696-1.346,4.345-0.955
		c2.435,0.573,4.884,1.178,7.362,1.455c4.835,0.536,13.26-2.609,13.411-10.279c0.094-4.779,1.649-5.916,6.29-5.713
		c0.104,0.006,0.219-0.191,0.502-0.457c-2.924-3.276-5.805-6.611-7.796-10.586c-0.149-0.297-0.645-0.502-1.019-0.598
		c-3.195-0.816-5.354-3.332-8.372-4.818c1.298-0.938,1.954-0.237,2.706,0.397c1.54,1.304,3.137,2.819,5.186,2.876
		c1.541,0.043,2.078,0.715,2.744,1.811c2.385,3.918,4.878,7.729,8.873,10.314c2.84,1.838,4.492,4.475,3.818,8.02
		c-0.721,3.783,0.301,7.508,0.188,11.291c-0.334,11.221-0.629,22.428-1.609,33.625c-0.268,3.06-1.041,5.973-1.406,8.981
		c-0.39,3.195-1.438,3.835-4.697,3.947c-1.829,0.062-3.475-0.703-5.211-0.888c-4.111-0.438-8.21,0.45-12.346,0.465
		c-2.804,0.01-5.825-0.467-8.638,0.904c-1.128,0.551-2.536,0.679-3.946,0.739c-3.01,0.133-5.961-0.434-8.9-0.347
		c-1.803,0.053-3.623,1.199-5.539,0.491c-2.789-1.03-5.495-0.275-8.219,0.227c-0.926,0.17-1.844,0.189-2.468-0.581
		c-1.159-1.433-1.979-1.598-3.05,0.195c-0.641,1.077-1.732,0.334-2.557-0.198c-0.666-0.43-1.463-1.349-2.121-0.749
		c-1.504,1.368-2.769,0.612-4.186,0.027c-0.481-0.199-1.307-0.315-1.62-0.05c-2.407,2.034-5.12,2.41-8.122,1.919
		c-0.522-0.085-1.182,0.456-1.73,0.785c-1.955,1.175-3.922,2.245-6.34,1.906c-0.377-0.053-0.812,0.069-1.179,0.218
		c-0.691,0.281-1.335,0.722-1.437,1.512c-0.117,0.905,0.688,1.219,1.312,1.545c0.955,0.499,2.023,0.539,3.077,0.54
		c1.233,0.003,2.396,0.185,3.491,0.823c1.001,0.583,2,1.118,1.884-0.932c-0.062-1.077,0.872-0.772,1.409-0.459
		c3.275,1.923,6.624,1.475,10.215,1.017c1.717-0.219,3.602,0.56,5.646,0.08c0.889-0.209,2.633,0.607,4.029,0.896
		c5.49,1.132,10.968,2.157,16.617,2.016c2.648-0.065,5.346-0.059,7.941,0.382c1.347,0.229,2.385,1.607,3.625-0.345
		c0.551-0.869,1.392,0.19,2.01,0.645c1.693,1.239,3.525,1.872,5.659,1.454c5.303-1.038,10.56-1.002,15.894,0.111
		c1.574,0.329,4.111,2.716,5.278-0.894c0.042-0.129,0.806-0.191,1.113-0.041c3.053,1.49,6.621-0.841,9.61,1.309
		c0.299,0.216,1.068-0.171,1.599-0.345c0.708-0.233,1.48-0.49,2.126-0.129c1.774,0.996,3.431,0.435,5.132-0.149
		c2.401-0.823,5.047-0.532,7.352-0.332c1.477,0.128,2.812,0.757,4.66,0.46c4.871-0.783,9.721-2.235,14.82-0.979
		c2.555,0.63,5.422,0.999,7.852-0.693c1.283-0.895,2.31-1.882,3.559-0.025c0.287,0.428,0.93,0.37,1.327,0.04
		c1.462-1.219,3.21-0.808,4.874-0.992c4.287-0.479,8.675,0.623,12.898-0.848c0.437-0.15,0.965-0.062,1.446-0.044
		c3.342,0.136,6.498-0.767,9.648-1.704c2.133-0.635,4.524,0.346,6.549-1.046c0.121-0.083,0.459,0.104,0.674,0.212
		c3.359,1.664,6.535,0.946,9.599-0.793C343.176,440.548,343.499,440.465,343.778,440.548z"/>
	<path fill="#FFFFFF" d="M122.242,165.184c-0.948,0.397-1.66,1.006-1.832,2.064c-0.123,0.756,0.006,1.48,0.753,1.878
		c0.733,0.391,1.442,0.25,1.926-0.43c1.224-1.724,2.96-2.634,4.925-3.174c1.37-0.377,1.238-1.269,0.486-1.936
		c-1.396-1.237-3.62-1.5-4.275-3.648c-0.034-0.108-0.443-0.103-0.653-0.146c-0.916,0.149-1.498,0.651-1.728,1.509
		c-0.222,0.83-0.217,1.719,0.677,2.095C125.013,164.446,123.271,164.752,122.242,165.184z"/>
	<path fill="#FFFFFF" d="M369.031,282.923c-0.951,0.416-1.912,0.821-2.822,1.315c-0.848,0.459-0.928,1.269-0.622,2.09
		c0.264,0.707,0.917,1.049,1.552,0.708c1.939-1.039,3.825-1.784,5.625-0.067c1.034-0.019,1.225-0.558,1.113-1.297
		C373.465,282.891,371.572,281.814,369.031,282.923z"/>
	<path fill="#FFFFFF" d="M136.057,130.817c0.783-0.493,1.346-1.399,0.712-2.276c-0.653-0.904-1.298-1.812-1.942-2.723
		c-0.558-0.79-1.41-0.549-2.164-0.067c-1.875,1.2-2.332,2.923-1.205,4.893c0.249,0.437,0.529,0.745,0.261,1.289
		c-1.245,2.529,0.513,2.471,2.164,2.495C134.283,133.032,134.688,131.679,136.057,130.817z"/>
	<path fill="#59595B" d="M343.785,440.541c0.44-0.516,0.876-1.023,1.307-1.523c0.001-0.009,0.001-0.019,0.001-0.027
		c-0.226-0.504-0.534-1.193-0.756-1.604c-0.727-0.675-2.603-2.185-1.36-1.361c-0.438-0.301-0.882-0.592-1.331-0.876
		c-0.264,0.096-0.574,0.149-0.93,0.155c-1.393,0.026-2.725,0.004-3.875-1.003c-1.362-1.191-2.849-1.779-4.649-0.746
		c-0.511,0.293-1.285,0.35-1.878,0.226c-1.405-0.292-2.7-0.322-3.948,0.529c-0.724,0.491-1.363,0.362-1.754-0.526
		c-0.758-1.718-1.564-1.045-2.526-0.114c-1.388,1.343-4.854,1.404-6.247,0.085c-0.589-0.558-1.017-0.562-1.699-0.329
		c-3.5,1.197-6.992,2.661-10.714,0.746c-2.372,1.335-4.815,0.197-7.217,0.151c-2.651-0.049-5.351-0.145-7.665-1.772
		c-0.408-0.288-0.91-0.562-1.355-0.299c-3.834,2.266-7.832,0.379-11.739,0.419c-1.917,0.02-3.859-0.384-5.786-0.054
		c-2.079,0.356-2.923-0.247-2.872-2.539c0.089-4.021,0.577-8.099-0.747-12.038c-0.213-0.633-0.105-1.653-1.133-1.574
		c-0.749,0.059-0.939,0.894-1.018,1.496c-0.453,3.518-0.859,7.042-1.224,10.57c-0.084,0.816,0.584,1.27,1.198,1.693
		c0.392,0.271,0.869,0.566,0.623,1.152c-0.227,0.542-0.787,0.571-1.252,0.499c-1.295-0.2-2.521-0.187-3.807,0.237
		c-1.297,0.426-1.602-0.566-1.789-1.639c-1.619-9.272-1.369-18.603-1.336-27.969c0.019-6.026,0.354-12.114-0.463-18.151
		c-0.234-1.736-0.054-3.556,0.133-5.316c0.467-4.463,0.319-8.866-0.847-13.219c-0.47-1.758-0.612-3.516,0.392-5.165
		c0.526-0.867,0.651-1.812,0.649-2.796c-0.002-1.697-0.042-3.397,0.024-5.094c0.041-1.072-0.332-2.955,0.884-2.887
		c1.448,0.082,0.12,1.67,0.246,2.596c0.434,3.187,0.845,6.397-0.949,9.42c-0.358,0.603-0.413,1.802-0.046,2.348
		c1.422,2.107,0.926,4.845,2.548,6.896c1.255,1.588,0.7,3.381-0.188,5.025c-1.76,3.256-1.305,6.777,0.85,9.732
		c1.838,2.52,3.328,5.293,4.973,7.955c0.217-0.015,0.432-0.026,0.648-0.041c0.246-2.535,0.727-5.076,0.684-7.606
		c-0.066-3.815,0.061-7.663,0.709-11.349c1.256-7.127,5.268-12.344,12.478-14.533c1.35-0.41,2.431-0.799,2.567-2.41
		c0.041-0.504,0.377-0.941,0.986-0.789c0.486,0.121,0.663,0.604,0.37,0.943c-1.843,2.14-0.074,4.191,0.271,6.186
		c0.268,1.55,0.168,2.325-1.386,2.637c-0.794,0.158-1.929,0.243-1.646,1.295c0.428,1.59-0.34,3.504,1.175,4.77
		c0.455,0.38,1.303,0.287,1.547-0.193c0.89-1.748,2.61-2.021,4.137-2.773c1.136-0.559,2.228-1.938,0.99-3.172
		c-1.942-1.936-0.213-2.698,0.918-3.526c2.031-1.487,2.086-1.411,1.215-3.447c0.67,0.237,2.158,1.86,2.302,2.474
		c0.235,1.013-0.687,1.168-1.199,1.586c-0.775,0.638-1.6,1.302-1.336,2.39c0.348,1.429,1.521,0.761,2.42,0.746
		c0.895-0.015,1.644,0.302,1.828,1.239c0.174,0.895-0.487,1.289-1.226,1.537c-0.834,0.279-1.31,0.916-1.67,1.664
		c-0.433,0.894-0.394,1.651,0.798,1.711c1.117,0.056,1.676,0.511,2.114,1.576c0.483,1.18,1.489,0.934,2.045,0.016
		c1.013-1.674,2.524-3.367,0.26-5.646c1.858,0.078,2.755,1.396,4.122,1.467c0.441,0.024,0.456,0.688,0.092,0.963
		c-1.688,1.275-0.488,1.422,0.606,1.859c2.606,1.04,4.132,3.602,6.604,4.863c0.682,0.348,1.264,1.402,2.083,0.797
		c0.886-0.65,0.121-1.443-0.302-2.107c-0.271-0.424-0.558-0.91-0.298-1.354c0.868-1.488,0.643-2.751-0.574-3.923
		c-0.283-0.273-0.533-0.721-0.088-1.035c0.204-0.145,0.736-0.155,0.877-0.003c0.989,1.069,2.727,1.854,1.941,3.758
		c-0.637,1.541-0.521,2.804,0.731,3.947c0.457,0.416,0.401,1.024,0.427,1.592c0.07,1.49,0.806,2.147,2.328,2.567
		c4.744,1.312,9.884,1.221,14.229,3.992c0.959,0.611,1.797-0.076,2.6-0.716c0.245-0.194,0.482-0.344,0.718-0.471
		c0.182-0.188,0.369-0.372,0.547-0.564c0.389-0.42,3.816-4.543,2.829-3.144c0.725-0.98,1.419-1.981,2.122-2.977
		c-0.114-0.94-1.125-1.763-2.275-2.137c-2.025-0.658-3.519-1.891-4.125-4.503c1.96,0.347,3.665,0.558,3.653-1.954
		c-0.002-0.42,0.399-0.898,0.771-0.503c0.712,0.757,1.769,0.126,2.496,0.714c-0.089,1.244-1.281,1.148-1.89,1.694
		c-0.741,0.665-1.068,1.403-0.88,2.358c0.142,0.717,0.624,1.117,1.347,1.191c1.086,0.112,1.64-0.52,1.922-1.464
		c0.359-1.204,0.596-2.006,1.662-0.303c0.116,0.187,0.301,0.287,0.51,0.353c0.519-0.752,1.036-1.504,1.56-2.253
		c3.634-5.207,7.441-10.261,11.772-14.86c0.213-0.534,0.429-1.066,0.639-1.603c1.758-4.515,3.452-9.054,5.044-13.629
		c0.323-0.93,0.633-1.864,0.951-2.796c-0.223,0.371-0.448,0.741-0.663,1.117c-0.625,1.097-1.336,1.978-2.762,2.024
		c-0.534,0.019-1.087,0.308-1.581,0.568c-3.371,1.78-3.367,1.789-6.181-1.687c1.547,0.441,2.994,0.282,4.521,0.067
		c2.82-0.399,3.559-1.343,2.568-3.928c-0.281-0.732-1.02-1.509-0.455-2.237c0.672-0.867,1.459,0.012,2.171,0.241
		c0.972,0.315,1.888,0.335,2.784-0.235c0.373-0.238,0.772-0.681,1.198-0.66c2.493-7.509,4.843-15.063,7.152-22.631
		c-0.271,0.186-0.568,0.362-0.905,0.524c-3.434,1.646-6.51,0.309-7.277-3.322c-0.299-1.422,0.803-2.633,1.654-3.569
		c0.828-0.914,1.697,0.258,2.492,0.736c1.398,0.846,1.648,3.124,3.961,3.014c0.23-1.158-0.529-2.16-0.077-3.209
		c0.643,0.572,1.106,1.157,1.398,1.735c1.231-4.055,2.459-8.11,3.694-12.164c-0.396-0.433-0.175-1.085-0.177-1.659
		c-0.012-2.976-2.513-5.068-5.31-4.393c-0.729,0.177-1.251,0.043-1.787-0.374c-0.703-0.546-1.437-0.711-2.233-0.188
		c-0.606,0.396-1.2,0.453-1.771-0.072c-0.564-0.524-0.524-1.131-0.252-1.777c0.671-1.579,1.076-3.199,1.021-4.943
		c-0.032-1.062,0.387-1.826,1.635-1.108c1.433,0.823,2.408,0.18,2.914-1.085c0.647-1.619,1.507-2.276,3.326-1.803
		c1.277,0.33,2.125-0.64,2.526-1.785c0.347-0.987-0.224-1.709-1.02-2.242c-1.105-0.74-4.663-0.531-5.195,0.583
		c-0.948,1.981-2.431,2.419-4.407,2.685c-1.54,0.207-3.244,1.08-4.048-0.705c-0.797-1.772,1.062-2.613,2.165-3.604
		c0.177-0.159,0.407-0.266,0.626-0.368c0.988-0.455,1.371-1.312,1.57-2.306c0.144-0.723,0.365-1.479-0.424-1.963
		c-0.745-0.457-1.392-0.146-1.957,0.408c-0.862,0.848-1.635,1.815-2.604,2.516c-1.896,1.373-2.921,4.105-6.414,3.904
		c2.195-1.039,1.763-3.056,2.678-4.449c0.596-0.906-0.283-1.66-0.968-2.229c-0.611-0.509-1.302-1.297-2.079-1.07
		c-1.113,0.322-0.127,1.207-0.157,1.836c-0.033,0.674-0.416,1.008-0.915,1.314c-0.662,0.407-1.034,1.027-1.17,1.77
		c-0.819,4.474-2.962,8.512-4.217,12.85c-0.974,3.373-2.332,3.631-4.91,1.287c-0.599-0.543-1.118-1.174-1.723-1.708
		c-0.861-0.761-1.894-1.203-2.771-0.187c-0.853,0.984-0.06,1.559,0.815,2.023c0.572,0.303,0.881,0.814,0.33,1.369
		c-1.404,1.412-2.033,3.297-3.964,4.529c-2.321,1.48-4.415,1.086-6.688,0.952c-0.384-0.022-0.805-0.343-0.762-0.806
		c0.023-0.252,0.329-0.682,0.518-0.686c2.472-0.053,3.246-2.315,4.403-3.746c1.301-1.604,3.644-3.586,2.875-5.529
		c-1.047-2.657,0.445-3.504,1.839-4.684c0.951-0.806,2.215-1.504,1.393-2.896c-0.735-1.241-1.862-0.312-2.807,0.02
		c-0.504,0.176-1.078,0.772-1.513,0.141c-0.422-0.618,0.009-1.443,0.506-1.697c1.605-0.82,1.492-2.35,1.777-3.723
		c0.27-1.285-0.059-2.37-1.128-3.238c-1.299-1.055-1.91,0.386-2.896,0.939c-0.278-1.057-0.479-1.912-0.73-2.754
		c-0.986-3.289,0.088-5.276,3.293-6.646c1.303-0.558,2.706-0.392,3.967-0.968c0.498-0.229,1.232-0.487,1.484,0.188
		c0.301,0.806-0.523,1.052-1.078,1.343c-1.158,0.606-3.039,0.109-3.209,2.254c-0.035,0.442-0.673,0.098-0.988-0.148
		c-1.054-0.82-1.965-0.759-2.526,0.531c-0.532,1.223-0.568,2.295,0.921,3.027c1.71,0.842,3.598,0.621,5.723,1.445
		c-1.684-2.768,0.385-4.206,1.593-5.537c1.54-1.697,1.365,1.432,2.55,1.358c0.149-0.009,0.303,0.114,0.461,0.144
		c2.613,0.488,5.143,1.381,7.86,1.379c5.283-0.002,10.347-1.666,15.59-1.971c1.332-0.077,3.521,0.758,3.763-1.076
		c0.246-1.865-2.15-1.756-3.445-2.346c-3.428-1.564-7.167-2.482-9.684-5.699c-1.07-1.369-2.639-1.744-4.238-0.385
		c-0.778,0.662-1.752,1.043-2.844,0.227c2.562,0.139,3.476-4.742,6.875-2.087c0.143,0.112,0.617-0.116,0.891-0.269
		c0.765-0.429,1.474-0.25,2.306-0.12c2.652,0.415,4.858,1.547,6.812,3.353c0.994,0.918,1.797,0.592,2.516-0.596
		c0.73-1.206,0.242-2.538,0.717-3.755c0.88-2.248,0.01-4.117-1.68-5.555c-1.325-1.126-2.295-1.939,0.239-2.606
		c0.548-0.144,0.676-0.61,0.696-1.141c0.061-1.665,0.9-2.563,2.608-2.444c1.665,0.115,1.736-0.926,1.418-2.039
		c-0.264-0.917-0.729-1.805-1.254-2.61c-0.72-1.108-1.63-2.031-3.146-1.891c-1.551,0.144-1.555,1.241-1.721,2.437
		c-0.153,1.105-1.388,1.202-2.233,1.603c-0.143,0.067-0.576-0.107-0.603-0.229c-0.228-1.036,0.711-1.321,1.271-1.838
		c1.373-1.269,2.247-2.595,0.401-4.229c2.406-0.739,4.216,0.367,6.258,1.06c-1.968-1.438-1.36-4.583-4.196-5.48
		c-1.101-0.349-1.898-1.694-2.794-2.623c-0.56-0.578-0.871-1.524-0.081-1.865c2.383-1.028,1.106-2.05,0.075-2.965
		c-1.396-1.238-1.596-3.075-0.562-3.998c1.195-1.066,2.462,0.376,3.349,1.465c0.248,0.308,0.482,0.677,0.082,1.115
		c-0.944,0.122-1.271-1.154-2.233-1.094c1.123,3.051,3.365,3.729,5.55,1.708c0.508-0.471,1.442-1.367,1.482-0.141
		c0.06,1.875,0.757,2.312,2.395,2.402c0.695,0.039,1.176,0.836,1.354,1.58c0.633,2.658,2.92,1.435,4.423,1.725
		c1.417,0.273,1.874-1.146,2.148-2.426c0.207-0.957,0.046-2.087,0.92-2.875c0.987,0.614,0.273,1.581,0.691,2.268
		c0.537,0.882,1.18,1.54,2.262,1.604c0.523,0.031,1.202-0.203,1.127-0.665c-0.325-1.977,1.236-3.923,0.025-5.902
		c-0.384-0.626-1.224-1.501-0.155-2.043c0.853-0.43,1.126,0.609,1.443,1.243c0.578,1.157,1.484,1.816,2.747,1.254
		c1.316-0.587,2.576-1.293,3.382-2.639c1.901-3.18,1.105-5.108-2.464-5.777c-0.316-0.06-0.638-0.121-0.941-0.228
		c-0.375-0.131-0.824-0.252-0.869-0.732c-0.057-0.597,0.408-0.886,0.871-0.994c0.535-0.125,1.115-0.157,1.665-0.107
		c1.792,0.161,1.954-0.692,1.339-2.061c-0.243-0.545-0.979-1.074-0.188-1.675c3.21-2.435,2.3-5.481,1.335-8.559
		c-0.263-0.84-0.596-1.371-1.65-1.406c-1.715-0.058-2.533-1.106-2.021-2.767c0.576-1.863-0.391-1.293-1.444-1.2
		c-1.949,0.173-1.711,2.338-2.957,3.212c-0.588-1.034-0.522-1.977,0.146-2.61c1.619-1.534,3.442-2.828,5.694-3.25
		c0.673-0.126,1.326-0.087,1.438-0.93c0.116-0.868-0.382-1.382-1.156-1.606c-0.761-0.219-1.665,0.017-2.288-0.633
		c-2-2.088-4.949-1.18-7.177-2.646c-0.169,0.801,0.183,1.045,0.458,1.333c0.506,0.531,1.185,1.123,0.371,1.811
		c-0.625,0.529-1.168-0.047-1.668-0.487c-1.707-1.503-2.109-3.562-0.754-5.393c1.442-1.951,3.067-3.778,4.707-5.573
		c0.686-0.752,0.834-1.42,0.137-2.088c-0.726-0.695-1.076-1.57-1.564-2.4c-1.94-3.291-3.235-3.478-6.397-1.226
		c-0.586,0.417-1.064,1.215-2.373,1.011c1.156-0.903,1.519-1.782,0.789-2.875c-1.092-1.636,0.043-1.796,1.247-1.705
		c0.966,0.073,1.921,0.382,2.792-0.304c1.706-1.342,3.443-2.643,5.102-4.04c0.703-0.593,1.209-1.509,0.569-2.368
		c-1.038-1.396-2.298-2.72-3.581-3.78c-1.133-0.935-0.972,1.506-1.996,1.781c-0.154,0.042-0.307,0.132-0.461,0.136
		c-2.35,0.061-4.024,1.587-5.836,2.754c-1.558,1.004-2.218,1.158-2.023-1.134c0.183-2.109-1.612-2.352-3.167-2.485
		c-1.458-0.124-2.349,0.504-2.119,2.148c0.219,1.575-0.749,1.527-1.816,1.306c-1.538-0.318-2.422,0.239-2.868,1.797
		c-0.786,2.738-2.848,5.076-2.388,8.229c0.115,0.788-0.377,2.064-1.613,1.265c-2.115-1.367-2.742,0.013-3.301,1.571
		c-0.391,1.093-0.623,2.417-2.195,1.837c-0.957-0.352-2.263,1.047-2.554-0.055c-0.345-1.311,1.384-0.868,2.125-1.33
		c1.027-0.638,1.47-1.778,1.676-2.815c0.189-0.946-0.977-0.838-1.618-1.034c-0.859-0.265-1.7-0.151-1.977,0.833
		c-0.907,3.221-5.106,4.11-5.178,7.898c-0.701-1.79,0.193-4.068,1.846-5.504c1.411-1.226,3.175-6.251,2.516-7.566
		c-0.482-0.961-0.745-1.949-0.967-2.971c-0.106-0.486-0.83-1.017-0.033-1.44c0.54-0.287,1.31-0.042,1.548,0.386
		c1.553,2.78,3.939,0.473,5.856,0.995c0.593,0.162,1.116-0.555,1.418-1.159c0.541-1.083,1.119-2.153,1.588-3.268
		c0.558-1.33,0.134-2.123-1.391-1.846c-1.721,0.312-3.574,0.008-5.124,1.186c-0.61,0.464-1.396,0.468-1.956-0.235
		c-0.611-0.765-0.422-1.51,0.14-2.207c0.625-0.776,1.333-1.411,2.421-1.414c0.644-0.002,1.455,0.152,1.834-0.402
		c1.31-1.914,3.022-1.155,4.543-0.649c1.435,0.478,2.725,0.887,3.566-0.706c0.762-1.439,0.465-2.785-0.78-3.942
		c-0.592-0.551-1.861-0.888-1.342-1.999c0.451-0.963,1.581-0.503,2.43-0.589c0.559-0.056,1.144-0.03,1.667-0.196
		c0.518-0.163,0.72-0.645,0.476-1.176c-0.482-1.046-4.14-1.904-5.04-1.134c-1.597,1.365-3.901,2.474-5.444,2.119
		c-2.26-0.519-2.833-0.646-4.27,1.599c-1.198,1.869-3.265,3.967-5.807,4.894c-0.544-1.236-0.674-2.718-1.786-3.765
		c-1.666-1.568,0.247-3.919-1.146-5.579c-0.013-0.018,0.193-0.323,0.305-0.33c2.782-0.174,2.981-3.108,4.687-4.491
		c1.299-1.055,2.825-2.129,3.673-3.765c0.686-1.324-0.413-4.308-1.837-4.567c-0.866-0.157-2.043,0.239-1.478,1.185
		c1.855,3.099-1.161,3.099-2.465,3.941c-0.748,0.483-1.706,1.09-2.579,1.193c-3.18,0.374-5.117,4.492-8.946,2.891
		c-0.565-0.238-1.139,0.459-1.532,1.007c-0.459,0.638-1.069,0.859-1.567,0.133c-0.433-0.632-0.589-1.547,0.328-1.82
		c0.892-0.265,1.533-0.876,2.348-1.211c2.403-0.989,2.437-1.209,0.365-3.021c-0.383-0.336-0.85-0.58-0.528-1.146
		c0.315-0.554,0.927-0.465,1.261-0.148c1.85,1.755,3.533,0.532,5.305-0.147c1.12-0.43,1.339-1.12,0.871-2.073
		c-0.5-1.015-0.965-2.017-1.255-3.129c-0.329-1.265-1.536-1.354-2.575-1.37c-1.235-0.02-0.646,1.023-0.785,1.638
		c-0.201,0.887-0.375,1.846-1.674,1.431c-2.704-0.862-3.9-0.276-4.9,2.386c-0.259,0.692,0.114,2.027-0.938,1.908
		c-0.841-0.095-1.411-1.31-1.606-2.191c-0.192-0.874-0.58-1.938,0.207-2.782c0.901-0.968,0.457-1.741-0.258-2.531
		c-0.431-0.477-0.959-1-0.527-1.701c0.441-0.721,1.205-0.797,1.944-0.591c1.605,0.447,2.977,0.305,4.181-1.041
		c0.652-0.729,1.834-0.896,2.341-0.004c1.562,2.755,2.784,1.743,3.98-0.414c0.244,0.423,0.431,0.61,0.458,0.817
		c0.121,0.95-0.688,2.309,0.84,2.656c1.568,0.356,1.717-1.017,2.083-2.097c0.398-1.171,1.36-1.209,2.128-0.551
		c2.15,1.841,3.791-2.057,5.859-0.429c0.085-0.134,0.217-0.258,0.248-0.404c0.681-3.087,2.033-1.268,2.858-0.248
		c1.613,1.992,3.48,2.182,5.585,1.174c1.525-0.731,3.016-1.467,4.645-1.998c1.386-0.451,2.031-1.817,1.859-3.335
		c-0.107-0.95-0.997-2.137-1.617-1.741c-1.865,1.192-3.51,1.584-5.338,0.146c-2.005,1.813-4.238,0.253-6.287,0.506
		c-2.123,0.263-4.084,1.859-6.38,0.598c-2.204,2.29-5.187,0.345-7.624,1.391c-0.395,0.17-0.847,0.072-1.027-0.363
		c-0.246-0.594,0.19-0.9,0.65-1.095c0.368-0.156,0.801-0.169,1.162-0.336c1.69-0.78,3.514-0.914,5.29-1.292
		c0.874-0.186,1.595-0.981,2.832-1.138c3.841-0.486,7.952-0.177,11.188-3.161c0.993-0.917,1.712-1.666,0.834-2.754
		c-0.813-1.009-2.041-0.968-2.971,0.021c-0.565,0.602-1.078,0.988-1.866,0.531c-1.603-0.928-3.295-0.591-4.958-0.332
		c-0.57,0.089-1.075,0.355-1.542-0.182c-0.543-0.625-1.11-1.262-2.055-0.854c-1.166,0.504-0.121,1.611-0.518,2.29
		c-1.538,0.355-1.568-2.644-3.085-1.485c-0.998,0.762-1.531,2.225-2.076,3.46c-0.517,1.171-0.997,1.65-2.07,0.588
		c-0.549-0.542-1.614-1.014-1.926-0.448c-1.299,2.381-3.243,0.97-4.915,1.058c-1.964,0.104-3.995-0.301-5.66,1.293
		c-0.553,0.528-1.428,0.709-2.14,1.078c-0.617,0.321-1.318,0.301-1.221-0.464c0.31-2.441-1.024-2.949-3.021-2.902
		c-0.394,0.009-0.883-0.129-0.788-0.668c0.088-0.507,0.562-0.478,0.976-0.432c1.388,0.156,2.68,0.464,3.655,1.624
		c0.788,0.937,2.157,1.315,2.645,0.167c1.167-2.751,3.862-2.882,5.961-4.023c0.501-0.272,0.948-0.514,1.352-0.941
		c1.978-2.09,4.82-2.857,7.121-4.519c1.452-1.05,3.396-1.206,2.627-3.701c-0.212-0.688,0.299-1.194,0.777-1.667
		c0.619-0.609,0.696-1.32-0.036-1.869c-0.611-0.459-1.4-0.289-1.699,0.327c-1.466,3.008-5.134,3.058-7.091,5.388
		c-0.396,0.472-1.013,0.56-1.491,0.025c-0.547-0.608-0.137-1.035,0.36-1.384c2.101-1.472,3.283-3.751,4.963-5.591
		c1.144-1.253,1.432-2.285,0.11-3.735c-1.421-1.561-0.919-4.454,0.786-5.188c0.975-0.419,2.045-0.58,1.35-1.893
		c-0.67-1.266-1.834-1.909-3.256-1.161c-1.246,0.656-2.119,1.588-2.264,3.186c-0.311,3.407-1.689,6.212-4.862,7.955
		c-1.107,0.609-0.932,1.595-0.077,2.417c0.412,0.397,1.074,0.878,0.533,1.376c-1.551,1.428-3.066,3.39-4.916,3.844
		c-1.563,0.385-3.086,0.444-4.527,2.287c0.089-1.985-0.72-2.828-1.816-3.477c-0.698-0.413-1.091-0.941-0.615-1.796
		c0.331-0.596,0.509-1.297-0.191-1.721c-0.755-0.455-1.39-0.004-1.923,0.549c-0.729,0.756-1.415,1.56-2.188,2.268
		c-0.498,0.458-1.072,1.208-1.843,0.458c-0.582-0.566-0.223-1.123,0.161-1.722c0.473-0.738,0.788-1.582,1.131-2.396
		c0.344-0.813,0.381-1.63-0.492-2.125c-0.793-0.449-1.603-0.31-2.17,0.423c-0.476,0.611-0.844,1.145-1.765,0.689
		c-1.184-0.587-1.889,0.083-2.629,1.003c-0.898,1.118-2.066,2-2.682,3.371c-0.367,0.818-1.294,0.87-1.273-0.018
		c0.049-1.948-1.293-3.052-2.134-4.469c-0.26-0.442-0.42-0.902-0.065-1.348c0.399-0.501,0.822-0.302,1.261,0.003
		c1.092,0.76,2.138,0.748,2.959-0.385c0.492-0.678,1-0.658,1.67-0.343c0.941,0.442,1.883,0.343,2.158-0.749
		c0.34-1.349,1.186-2.849-0.071-4.124c-0.875-0.888-1.954-0.551-2.905,0.034c-3.454,2.126-4.468,2.136-7.954,0.047
		c-0.136-0.081-0.308-0.096-0.459-0.151c-0.496-0.178-1.362,0.011-1.338-0.737c0.031-0.912,0.963-0.751,1.529-0.72
		c2.203,0.118,3.562-0.604,3.702-3.044c0.067-1.206,0.601-1.919,1.834-0.758c1.106,1.041,2.251,0.384,3.389-0.023
		c2.874-1.027,5.052-3.58,8.34-3.735c0.759-0.036,1.344-0.63,1.238-1.519c-0.113-0.952-0.725-1.473-1.668-1.36
		c-0.994,0.12-1.926-0.07-2.88-0.251c-1.636-0.312-1.616-1.111-0.637-2.146c1.186-1.253,2.687-2.148,4.263-2.68
		c2.237-0.754,2.366-2.707,2.847-4.402c0.262-0.919-0.691-1.718-1.503-1.126c-1.351,0.986-3.168,1.28-4.145,2.788
		c-1.413,2.182-4.314,2.796-5.482,5.286c-0.344,0.734-1.267,0.506-1.996,0.3c-0.723-0.204-1.219-0.351-1.627,0.722
		c-1.149,3.023-3.501,3.682-6.235,1.988c-0.385-0.238-0.797-0.649-1.287-0.187c-0.398,0.813,0.832,1.463,0.186,2.304
		c-0.894,0.287-1.23-0.576-1.8-0.929c-0.858-0.531-1.55,0.288-2.325,0.184c-0.447-0.06-0.583-0.479-0.736-0.867
		c-0.637-1.6,0.318-3.046,2.195-3.159c0.868-0.052,1.655,0.128,2.518-0.458c1.845-1.253,3.117-3.995,2.555-6.172
		c-0.16-0.621-0.393-1.748,0.445-1.333c2.106,1.041,4.164-0.099,6.183,0.34c1.166,0.253,2.263,0.393,3.075-0.712
		c0.593-0.806,0.672-1.759,0.014-2.47c-1.054-1.138-2.01-3.362-3.679-2.625c-2.974,1.312-7.004-0.239-8.972,3.632
		c0.498-2.915,5.002-6.467,7.531-6.064c2.564,0.409,4.564-0.602,6.458-2.031c0.855-0.645,1.73-1.55,2.762-1.278
		c2.04,0.538,3.188-0.569,4.413-1.805c1.135-1.146,2.296-2.28,3.525-3.322c1.194-1.011,1.095-2.076,0.323-3.204
		c-0.734-1.071-1.761-1.554-2.903-0.712c-1.932,1.428-4.128,2.113-6.419,2.625c-1.001,0.224-1.776,0.867-1.214,1.888
		c1.008,1.829-0.584,1.371-1.285,1.56c-0.774,0.209-1.309-0.502-1.959-0.79c-1.32-0.585-2.464-0.876-2.693,1.263
		c-0.205,1.937-3.881,3.268-5.299,2.012c-1.287-1.139-2.082-0.809-2.236,0.799c-0.217,2.273-1.379,2.52-3.148,1.667
		c-0.699-0.338-1.636-0.1-2.378-1.159c2.711-0.979,4.008-2.969,5.074-5.583c0.639-1.565,0.309-4.187,2.938-4.825
		c0.588-0.142,0.426-1.295-0.267-1.562c-1.291-0.498-2.736-0.675-4.026-0.148c-1.181,0.481-1.031,1.682-0.888,2.758
		c0.071,0.542,0.26,1.322-0.511,1.376c-0.787,0.055-0.573-0.788-0.7-1.294c-0.177-0.698-0.272-1.442-0.588-2.073
		c-0.357-0.711-1.326-1.241-1.763-0.555c-1.013,1.595-2.942,1.891-4.053,3.345c-1.482,1.941-2.298,1.74-3.457-0.58
		c0.831,0.419,1.646,0.903,2.456,0.126c0.66-0.634,0.665-1.449,0.438-2.26c-0.309-1.104-1.252-1.134-2.151-1.158
		c-1.293-0.034-2.612-0.164-3.41,1.254c-0.315,0.563-0.776,0.617-1.42,0.219c-2.741-1.698-3.522-1.228-3.6,2.03
		c-0.033,1.438,0.497,3.527-0.759,4.104c-2.513,1.154-2.561,5.083-6.035,4.959c-0.668-0.024-1.08,5.764-0.381,5.966
		c1.736,0.501,1.164,1.269,0.504,2.278c-1.467,2.232-3.604,4.107-3.737,7.068c-0.052,1.18-0.705,2.602,1.437,2.435
		c0.541-0.042,0.76,0.26,0.729,0.718c-0.072,1.003-0.444,1.886-1.269,2.514c-0.356,0.274-0.899,0.321-1.08-0.052
		c-0.664-1.369-1.363-2.713-2.077-4.055c-0.49-0.921,0.575-1.719,1.137-2.499c1.345-1.872,0.511-3.92-1.742-4.137
		c-1.622-0.156-1.719-0.681-0.643-1.731c0.625-0.61,1.026-1.296,0.579-2.156c-0.411-0.788-1.159-0.836-1.897-0.595
		c-0.903,0.295-1.104-0.186-1.28-0.917c-0.4-1.664-0.854-3.324-3.207-2.239c-0.306,0.141-0.824,0.113-0.84-0.192
		c-0.107-1.943-2.18-1.991-2.976-3.179c-1.166-1.741-2.121-1.876-3.203-0.018c-0.422,0.728-1.063,1.018-1.846,0.738
		c-0.83-0.295-1.542-0.996-1.275-1.826c0.717-2.239-0.517-3.899-1.371-5.699c-0.345-0.728-0.718-1.416-0.066-2.241
		c1.365-1.727,0.055-2.304-1.318-2.593c-1.013-0.213-2.093-0.151-3.143-0.133c-0.774,0.013-1.892-0.367-2.215,0.451
		c-0.389,0.983,0.903,1.129,1.449,1.63c1.46,1.338,2.808,2.525,0.656,4.493c-0.855,0.783-0.225,1.861,0.626,2.486
		c1.359,0.997,1.349,2.119,0.841,3.62c-0.496,1.469-0.955,3.417,0.787,4.27c1.782,0.872,1.803,2.32,2.078,3.781
		c0.135,0.718,0.03,1.471-0.549,2.027c-0.269,0.259-0.578,0.202-0.855-0.056c-0.664-0.617-0.459-1.268-0.172-1.992
		c0.316-0.805,0.306-1.891-0.496-2.155c-1.49-0.492-2.709-1.795-4.421-1.561c-0.248,0.034-0.57,0.393-0.645,0.661
		c-0.476,1.7-1.755,2.607-3.126,3.535c-0.866,0.586-1.338,2.045-0.145,2.293c2.522,0.523,1.623,2.262,1.751,3.762
		c-2.085-2.046-4.435-3.793-6.058-6.253c-0.676-1.024,0.09-1.256,0.857-1.429c0.999-0.225,1.116-0.875,0.728-1.642
		c-0.435-0.86-0.093-2.473-1.56-2.374c-1.611,0.109-3.322-0.914-4.873,0.651c-0.625-2.691-0.236-4.588,2.311-5.61
		c0.93-0.373,1.373-1.155,1.046-2.166c-0.305-0.943-1.147-1.031-1.983-1.048c-1.459-0.031-2.063,0.901-2.633,2.092
		c-0.518,1.082-0.591,3.128-2.873,1.638c-0.824-0.538-1.715,0.699-1.259,1.377c1.389,2.063,0.946,4.556,1.895,6.679
		c0.165,0.367,0.427,0.691,0.587,1.06c0.341,0.79,0.934,2.014-0.582,1.791c-1.026-0.15-0.938-1.71-1.135-2.723
		c-0.015-0.079-0.006-0.162-0.018-0.242c-0.293-1.845-1.106-2.198-2.514-1.026c-1.289,1.072-1.767,2.356-0.504,3.759
		c0.721,0.799,1.576,1.476,2.742,2.551c-2.213,0.254-4.676,0.352-5.043-0.692c-0.842-2.398-2.454-3.863-3.936-5.695
		c-1.357-1.678-2.503-2.91-4.449-1.822c-0.951,0.532-1.925,1.267-1.605,2.449c0.437,1.612,1.6,0.202,2.412,0.357
		c0.128,0.024,0.231,0.178,0.471,0.376c-1.459,1.592-2.197,3.023,0.34,4.536c1.453,0.866-0.569,1.432-0.824,2.216
		c-0.346,1.067-1.323,1.416-2.078,0.591c-1.864-2.038-4.734-2.159-6.799-3.796c-0.66-0.523-1.293-1.488-2.245-1.288
		c-1.944,0.407-2.85-0.346-3.231-2.203c-0.216-1.051-1.135-1.601-2.008-0.889c-1.419,1.158-1.927,0.104-2.693-0.743
		c-2.437-2.697-4.441-3.072-7.146-1.39c-0.613-0.543,0.801-2.143-0.795-1.974c-1.365,0.145-3.112,0.257-3.883,1.519
		c-0.836,1.37,1.705,4.117,3.43,4.052c4.18-0.157,8.288,1.113,9.454,4.741c-1.157-0.486-1.923-1.749-3.132-1.208
		c-0.921,0.412-1.701,1.165-2.775,0.21c-0.372-0.332-0.866,0.178-1.24,0.5c-0.974,0.841-0.359,6.538,0.806,7.191
		c0.193,0.109,0.46,0.103,0.694,0.119c2.532,0.169,3.29,1.036,3.223,3.453c-0.026,0.953,0.309,1.913,0.305,2.87
		c-0.006,1.756,0.842,1.647,1.967,0.993c1.041-0.605,1.951-1.457,3.222-1.607c1.071-0.127,1.64,0.498,2.075,1.341
		c0.277,0.542,0.347,1.098-0.08,1.586c-0.698,0.8-1.452,0.463-2.18,0.033c-0.496-0.294-1.144-0.737-1.568-0.363
		c-2.188,1.93-4.69,1.549-7.219,1.179c-0.142-0.021-0.309,0.087-0.456,0.151c-0.472,0.205-0.706,0.12-0.841-0.445
		c-0.395-1.641-1.373-1.014-2.43-0.686c-0.922,0.287-2.42,1.427-2.411-1.003c0.002-0.78-0.822-1.172-1.396-0.563
		c-1.088,1.155-1.638,0.263-2.363-0.371c-0.789-0.691-1.576-1.409-2.463-1.953c-1.215-0.747-2.366-1.389-1.895-3.165
		c0.174-0.652-0.26-1.578-0.908-1.458c-1.665,0.307-3.278-0.058-4.91-0.012c-0.478,0.013-0.783,0.534-0.955,1.009
		c-0.519,1.429,2.17,5.345,3.674,5.121c2.123-0.316,2.793,0.32,2.137,2.372c-0.084,0.261,0.017,0.832,0.148,0.871
		c1.807,0.534,1.365,2.045,1.541,3.315c0.075,0.535,0.549,1.07-0.055,1.54c-0.555,0.432-1.063,0.143-1.537-0.217
		c-0.537-0.41-1.002-0.562-1.749-0.236c-2.189,0.953-4.312,2.65-6.895,0.722c-0.548-0.409-1.575-0.29-2.367-0.229
		c-1.064,0.081-2.651-0.211-2.72,1.303c-0.064,1.398,1.196,2.235,2.551,2.502c0.687,0.136,1.449,0.019,2.158-0.099
		c0.752-0.125,1.467-0.224,2.006,0.436c1.117,1.364,2.404,1.215,3.937,0.742c2.675-0.825,6.858,1.522,5.995,3.311
		c-1.602,3.32,1.058,3.47,2.527,4.631c0.379,0.299,0.851,0.494,1.188,0.829c0.536,0.533,0.429,1.058-0.311,1.262
		c-0.536,0.148-1.12,0.12-1.682,0.167c-0.982,0.082-1.803,0.596-2.04,1.479c-0.308,1.146,0.906,0.799,1.444,1.113
		c0.346,0.201,0.812,0.299,0.758,0.808c-0.018,0.19-0.302,0.529-0.409,0.509c-2.247-0.425-4.662,1.809-6.817-0.495
		c-0.687-0.736-1.877-0.846-2.081,0.365c-0.36,2.132-1.607,1.262-2.697,1.058c-1.186-0.221-1.892-1.191-2.788-1.865
		c-0.693-0.522-1.461-0.727-2.252-0.231c-0.613,0.385-0.777,1.02-0.707,1.697c0.089,0.871,0.701,1.219,1.485,1.34
		c1.077,0.167,1.794,0.586,1.419,2.07c-1.054-0.359-1.611-1.924-2.779-1.205c-1.367,0.842,0.219,1.923-0.024,2.791
		c-0.488,1.739-0.306,3.937-2.596,5.108c-0.155-1.196,0.738-2.243-0.512-2.714c-1.148-0.432-2.34-0.286-3.089,0.723
		c-1.504,2.021-2.114,0.618-2.539-0.667c-0.457-1.386-0.658-2.957,0.296-4.196c0.934-1.213,1.368-2.275-0.015-3.303
		c-1.059-0.788-1.863-2.98-3.48-1.649c-1.266,1.043-3.915,1.298-3.113,4.223c0.48,1.75,0.702,3.837,0.197,5.519
		c-0.531,1.766-1.788,3.492-0.629,5.167c1.005,1.453,1.655,3.57,4.635,3.474c-2.643,1.729-0.469,2.84-0.106,4.192
		c-4.116-1.179-4.281-1.093-5.471,2.69c-1.127-2.552-2.214-5.122-3.851-7.39c-0.339-0.47-0.068-1.082,0.176-1.619
		c1.056-2.31-2.07-3.272-1.801-5.408c0.037-0.286-1.008-0.299-1.496,0.081c-1.338,1.043-1.898,2.191-0.495,3.642
		c0.491,0.508,0.22,5.033-0.376,5.364c-1.366,0.759-1.023,1.657-0.355,2.606c0.534,0.759,0.904,2.01,2.105,1.641
		c1.479-0.455,0.591-1.758,0.66-2.714c0.008-0.116,0.168-0.22,0.329-0.417c0.735,1.619,1.71,3.021,1.499,4.952
		c-0.118,1.083-0.086,2.459,1.961,2.196c1.313-0.168,1.969,1.308,1.835,2.368c-0.192,1.533-0.081,3.037-0.161,4.546
		c-0.082,1.568-0.77,2.759-2.666,1.449c-1.065-0.736-2.319-0.55-3.527-0.502c-0.759,1.075-1.159,2.327-1.539,3.614
		c-1.178-0.558-1.613-1.363-1.768-2.381c-0.158-1.04-0.609-1.864-1.779-1.979c-0.597-0.06-1.132,0.18-1.439,0.718
		c-0.551,0.97-0.283,1.864,0.338,2.702c0.749,1.007,2.715,1.993-0.105,2.98c-0.712,0.249-0.363,1.11,0.102,1.652
		c0.274,0.317,0.535,0.67,0.133,1.045c-0.33,0.309-0.93,0.359-1.089,0.039c-1.232-2.478-5.369-0.091-5.992-3.612
		c-0.072-0.408-0.832-0.35-1.325-0.288c-1.344,0.171-3.272,4.262-2.535,5.389c0.312,0.479,0.8,0.583,1.279,0.428
		c1.643-0.534,2.852-0.289,4.343,0.917c1.251,1.01,3.441,0.508,5.097,1.296c0.252,0.12,0.836-0.357,1.214-0.631
		c0.366-0.266,0.602-0.934,1.157-0.583c0.559,0.353,0.309,0.973,0.25,1.543c-0.238,2.325-1.958,3.445-3.627,4.623
		c-1.053,3.361-1.041,3.311,2.704,3.164c2.297-0.089,4.475,0.734,6.539,1.56c1.373,0.549,2.25,2.13,1.737,3.647
		c-0.505,1.494-1.739,0.021-2.655,0.147c-0.764,0.105-1.647-0.343-2.182,0.542c-0.504,0.833-0.399,1.699,0.037,2.545
		c0.309,0.601,1.166,1.117,0.504,1.909c-0.838,1.001-0.867,1.881,0.181,2.7c1.201,0.938,1.934,0.411,2.765-0.676
		c0.58-0.757,1.763-0.766,2.365,0.021c0.892,1.167,0.896,2.59,0.117,3.863c-0.557,0.91-1.348,0.731-2.059,0.109
		c-1.757-1.536-3.535-0.819-4.734,0.494c-1.127,1.235-1.863,1.05-3.076,0.41c-1.959-1.034-3.832-0.554-5.299,0.976
		c-1.559,1.626-3.224,2.596-5.559,2.116c-0.501-0.103-1.183,0.044-1.611,0.331c-2.823,1.89-5.627,3.811-8.373,5.811
		c-0.771,0.562-1.078,1.519-0.273,2.322c0.699,0.699,1.756,0.523,2.121-0.198c0.992-1.964,3.093-2.387,4.646-2.667
		c2.636-0.475,5.141-3.747,8.113-0.827c3.188-0.637,1.821,1.626,1.857,2.955c0.047,1.709-1.731,2.883-1.836,4.165
		c-0.263,3.211-0.47,6.689,2.602,9.089c0.889,0.694,1.479,1.401,0.216,2.509c-1.444,1.268-0.927,2.614,0.718,3.136
		c2.054,0.653,1.302,1.179,0.403,2.362c-0.825,1.085-2.755,2.096-1.567,3.899c1.391,2.112-0.238,1.768-1.289,1.699
		c-2.074-0.139-4.023-1.266-6.273-0.597c0.521-1.314-0.606-6.695-1.43-7.46c-0.118-0.109-0.248-0.214-0.39-0.285
		c-2.879-1.451-3.641,1.657-5.36,2.621c-1.167,0.654-1.405,2.29-0.521,3.469c1.863,2.484,3.329,5.337,6.157,6.991
		c0.473,0.276,1.059,0.702,1.184,1.168c0.424,1.57,1.384,1.952,3.363,1.166c-1.603,2.105-2.464,4.117-5.022,2.194
		c-0.649-0.487-1.692-0.62-2.553-0.619c-1.77,0.003-3.497,0.136-5.226-0.554c-0.937-0.375-4.177,2.593-4.239,3.673
		c-0.052,0.911,0.472,1.371,1.292,1.442c3.032,0.261,4.739,3.019,7.434,3.906c0.326,0.107,0.61,0.601,0.408,0.743
		c-1.467,1.031-0.139,3.294-1.89,4.165c-0.679,0.338-0.926,0.912-0.616,1.617c0.362,0.828,0.84,1.628,1.793,1.839
		c0.881,0.195,1.289-0.467,1.635-1.145c0.353-0.689,0.632-1.867,1.629-1.273c1.36,0.811,2.773,0.745,4.205,0.881
		c0.643,0.061,1.401,0.089,1.594,0.845c0.239,0.921-0.658,0.959-1.189,1.226c-1.832,0.921-4.021,1.026-5.598,2.578
		c-0.424,0.416-1.289,0.456-1.225,1.275c0.061,0.765,0.572,1.34,1.206,1.735c1.243,0.772,2.088,0.055,2.962-0.781
		c0.551-0.525,1.099-1.849,2.077-0.685c1.396,1.663,2.196,0.652,2.962-0.504c0.405-0.61,0.595-1.384,1.551-1.22
		c0.807,0.139,0.932,0.798,1.03,1.454c0.243,1.632,1.2,2.73,2.779,2.958c1.767,0.255,0.071-1.942,0.925-2.114
		c3.113,1.982,4.85,5.081,7.925,6.694c-0.162,2.523,1.739,3.106,3.435,4.257c1.034,0.701,2.442,2.109,2.264,4.039
		c-0.071,0.773,0.859,1.096,1.453,0.746c3.129-1.843,3.935,0.729,4.945,2.627c1.176,2.211,1.668,2.346,3.383,0.482
		c0.528-0.575,1.11-1.616,1.916-1.025c0.979,0.719-0.148,1.351-0.549,1.969c-0.307,0.472-0.61,0.949-0.887,1.438
		c-0.674,1.186-1.205,2.477,0.08,3.506c1.501,1.202,1.997-0.275,2.766-1.188c0.752-0.894,1.918-1.03,2.873-0.462
		c0.947,0.564,0.11,1.259-0.23,1.84c-0.426,0.73-0.357,1.482,0.172,2.027c1.11,1.147,1.461,2.924,3.061,3.646
		c0.515,0.231,0.876,0.636,0.443,1.114c-0.769,0.851-0.543,2.095-1.281,3.254c-1.414-2.309-3.049-3.078-5.285-1.021
		c0.561-1.447,1.187-2.529,1.738-3.646c0.475-0.966,0.879-2.009-0.128-2.886c-0.922-0.801-1.989-0.5-2.992-0.146
		c-1.219,0.432-1.128,1.396-0.907,2.414c0.367,1.689-0.615,2.493-2.068,2.576c-1.759,0.1-5.571-2.958-5.604-4.729
		c-0.04-2.152-0.178-3.931-2.192-5.291c-0.677-0.459-0.767-1.895-2.076-1.285c-1.219,0.565-1.559,1.599-1.01,2.836
		c0.507,1.145,0.727,2.318,0.469,3.543c-0.123,0.586-0.48,1.146-1.171,0.908c-0.767-0.267-0.478-0.836-0.218-1.389
		c0.551-1.175-0.858-4.962-1.916-4.777c-2.168,0.379-4.09-2.475-6.322-0.088c0.374-1.527,0.885-2.746,1.281-3.998
		c0.736-2.336-1.509-2.492-2.633-3.432c-0.545-0.455-1.455-0.498-1.594,0.293c-0.228,1.299-0.852,1.955-2.082,1.775
		c-1.239-0.178-1.55-1.293-1.76-2.344c-0.178-0.893-0.59-1.649-1.559-1.509c-2.791,0.408-2.937-1.409-3.119-3.391
		c-0.164-1.773-0.885-3.427-2.031-4.749c-2.104-2.423-3-2.2-4.172,0.789c-0.148,0.374-0.366,0.72-0.555,1.077
		c-0.594,1.117-0.695,2.025,0.912,2.267c1.084,0.163,0.977,0.894,1.051,1.786c0.189,2.284,1.112,4.204,2.954,5.798
		c1.101,0.951,2.884,0.749,3.505,2.326c0.681,1.73,1.397,3.445,2.09,5.171c0.246,0.61,0.515,1.28-0.177,1.747
		c-0.612,0.413-0.976-0.217-1.462-0.459c-1.417-0.706-2.604-2.78-3.961-2.335c-2.477,0.813-2.903-0.647-4.089-2.044
		c-1.069-1.26-0.915-3.682-3.273-3.793c-2.336-0.112-4.001-1.094-4.599-3.493c-0.121-0.49-0.362-1.002-0.855-1.099
		c-2.436-0.48-4.777-1.621-7.35-1.18c-0.934,0.16-1.752,0.6-1.654,1.728c0.106,1.213,3.487,2.862,4.6,2.196
		c0.81-0.483,1.574-0.44,1.809,0.332c0.345,1.133,2.563,1.317,1.537,3.022c-0.465,0.771-1.235,1.509-0.42,2.351
		c0.902,0.928,1.723,0.252,2.526-0.395c0.984-0.791,1.828-0.027,2.654,0.419c0.509,0.274,1.118,0.806,0.697,1.337
		c-2.057,2.594,0.887,4.378,1.255,6.528c0.25,1.456,0.268,2.1-0.723,2.829c-1.168,0.858-2.503,1.479-3.502,2.58
		c-0.41,0.453-0.895,1.262-1.552,0.813c-0.534-0.364-0.911-1.155-1.069-1.825c-0.213-0.904,0.717-0.867,1.262-1.134
		c1.006-0.493,1.842-1.247,1.602-2.431c-0.24-1.176-1.404-0.787-2.234-0.924c-1.033-0.17-2.411,0.381-2.785-1.234
		c-0.195-0.835-0.411-1.619-1.479-1.581c-1.095,0.04-1.871,0.555-2.023,1.701c-0.201,1.507-1.084,1.383-2.089,0.901
		c-0.505-0.242-0.915-0.729-1.435-0.891c-1.484-0.463-3.043-0.322-3.912,1.004c-0.879,1.344,0.494,1.86,1.301,2.785
		c1.431,1.641,3.319,2.105,5.052,3.009c0.521,0.271,1.496,0.525,0.804,1.331c-0.588,0.688-0.521,2.411-2.094,1.812
		c-2.697-1.026-5.442-2.072-7.487-4.205c-0.702-0.731-1.241-0.978-2.242-0.937c-2.35,0.097-3.419-1.631-2.407-3.722
		c0.337-0.694,0.644-1.374-0.008-1.991c-1.167-1.104-6.127,0.134-6.637,1.683c-0.293,0.889-0.142,2.246,1.004,1.761
		c1.541-0.651,1.379,0.062,1.789,1.046c0.51,1.225,1.591,2.189,0.785,3.727c-0.232,0.441,0.399,1.047,0.838,0.957
		c3.429-0.695,4.771,1.428,6.223,3.991c0.631,1.116,3.086,1.384,0.601,3.054c-0.122,0.082-0.024,0.618,0.085,0.898
		c0.715,1.818-0.364,2.027-1.871,2.15c0.128-0.398,0.152-0.639,0.271-0.814c0.874-1.279,0.566-2.486-0.709-3.021
		c-1.379-0.578-1.293,1.051-1.888,1.596c-1.404,1.283-1.817,3.885-4.513,3.695c-1.697-0.121-1.449,1.127-1.127,2.192
		c0.22,0.726,1.162,1.192,0.699,2.17c-0.39,0.826-0.779,1.849,0.393,2.252c1.085,0.374,1.778-0.46,2.266-1.378
		c0.266-0.5,0.53-1.004,0.844-1.475c0.453-0.678,1.13-2.16,1.765-1.161c0.609,0.959,3.378,1.164,1.671,3.305
		c-0.76,0.953-0.682,1.81,0.486,2.353c2.447,1.14,4.145-0.023,3.991-2.68c-0.01-0.18,0.212-0.373,0.308-0.527
		c0.775,0.043,1.232,0.625,1.248,1.074c0.087,2.447,2.101,4.727,0.24,7.394c-1.269,1.819-1.228,4.589-4.039,5.239
		c-0.125,0.029-0.254,0.22-0.307,0.363c-0.835,2.291-2.846,3.741-4.391,5.389c-1.627,1.736-2.734,4.236-5.367,4.965
		c-0.58,0.16-1.094,0.811-0.683,1.31c0.961,1.164,1.876,2.511,3.356,3.028c0.947,0.33,1.626-0.414,1.48-1.363
		c-0.251-1.632,0.19-2.033,1.909-2.007c3.243,0.049,3.759-0.972,2.393-4.002c-0.374-0.828-0.273-1.465,0.696-1.04
		c1.58,0.693,2.493,0.018,3.217-1.193c0.601-1.004,1.391-1.277,2.455-0.965c2.158,0.639,3.814-0.578,4.983-1.945
		c0.991-1.16,1.151-0.504,1.695,0.117c2.177,2.488,4.132,2.95,7.167,1.584c0.961-0.431,1.462-0.262,1.91,0.674
		c0.739,1.541,1.575,2.975,3.471,3.438c0.789,0.192,0.94,1.046,0.224,1.481c-1.827,1.111-0.872,2.317-0.243,3.504
		c2.459,4.644,6.952,5.591,11.508,5.675c2.064,0.037,4.581-0.442,6.163-2.366c1.182-1.438,2.409-1.811,3.942-0.582
		c1.277,1.021,2.288,0.496,3.043-0.673c1.291-2.001,2.818-1.286,4.333-0.429c0.69,0.391,1.315,0.919,1.919,1.441
		c3.135,2.715,7.154,4.24,9.289,8.34c1.836,3.526,2.06,4.367-1.25,6.608c-1.836,1.244-4.121,1.44-5.847,3.177
		c-1.161,1.17-3.319,1.076-4.671-0.789c-1.039-1.431-2.558-1.967-4.293-2.42c-2.404-0.628-5.132,0.153-7.278-1.725
		c-0.479-0.42-1.606-0.814-2.149,0.146c-0.546,0.965-0.266,2.082,0.701,2.523c2.366,1.085,4.039,4.486,7.445,2.367
		c0.194-0.121,0.696-0.002,0.894,0.181c1.46,1.341,3.383,1.888,4.985,2.97c1.611,1.088,1.619,2.287,0.11,3.467
		c-1.097,0.856-2.375,1.322-3.663,1.806c-0.673,0.252-1.337,0.866-1.148,1.673c0.244,1.04,1.128,0.561,1.816,0.52
		c1.87-0.113,3.717-0.226,5.047-1.858c0.213-0.263,0.736-0.435,1.086-0.394c2.336,0.27,4.439,4.326,3.184,6.23
		c-0.83,1.262-1.657,2.355-0.677,3.954c0.408,0.664-0.284,1.597-0.862,1.132c-1.87-1.5-3.71-0.051-5.536-0.251
		c-1.431-0.155-3.61,2.539-3.243,3.92c0.238,0.896,0.842,1.149,1.67,0.812c0.896-0.368,1.77-0.791,2.658-1.184
		c0.687-0.303,1.71-0.646,1.958,0.112c0.757,2.315,5.067,2.647,3.462,6.25c-0.096,0.216,0.294,0.733,0.562,1.012
		c1.09,1.134,0.641,2.252,0.3,3.57c-0.435,1.683-2.456,1.845-2.831,3.493c-0.174,0.758-0.919,1.479-0.051,2.17
		c0.779,0.621,1.524,0.273,2.131-0.391c0.384-0.423,0.771-1.004,1.363-0.893c1.637,0.311,2.818-0.262,3.75-1.574
		c0.297-0.417,0.947-0.771,1.086-0.095c0.357,1.741,2.071,1.151,3.336,1.991c-2.145,0.769-1.102,3.117-2.625,4.053
		c-2.536,1.555-3.916,4.163-5.723,6.363c-1.19,1.453,0.609,2.453,1.074,3.643c0.254,0.648,1.093,1.159,1.566,0.643
		c1.72-1.883,4.549-2.701,5.448-5.306c1.004-2.907,3.453-3.833,5.929-4.81c0.478-0.189,1.073-0.146,1.306,0.328
		c0.802,1.632,2.109,1.556,3.669,1.503c2.61-0.089,2.965,0.557,1.97,2.885c-0.249,0.58-0.277,1.104,0.022,1.617
		c1.264,2.159,2.325,4.479,4.1,6.276c2.426,2.457,5.286,2.637,8.454,1.123c3.197-1.528,6.316-3.262,9.715-4.341
		c4.096-1.3,8.112-2.647,11.147-6.028c1.38-1.537,3.239-2.657,4.934-3.895c1.283-0.936,2.697-1.346,4.345-0.956
		c2.434,0.574,4.883,1.179,7.362,1.455c4.835,0.537,13.26-2.608,13.411-10.278c0.094-4.779,1.649-5.916,6.29-5.713
		c0.105,0.006,0.219-0.191,0.502-0.457c-2.924-3.277-5.805-6.611-7.796-10.586c-0.15-0.298-0.645-0.502-1.019-0.598
		c-3.195-0.816-5.353-3.332-8.372-4.818c1.298-0.938,1.954-0.238,2.706,0.397c1.54,1.303,3.137,2.819,5.186,2.876
		c1.541,0.043,2.078,0.715,2.744,1.811c2.385,3.918,4.878,7.729,8.873,10.314c2.839,1.838,4.492,4.474,3.818,8.02
		c-0.72,3.783,0.301,7.508,0.188,11.291c-0.334,11.221-0.629,22.428-1.609,33.624c-0.267,3.06-1.041,5.973-1.406,8.982
		c-0.389,3.195-1.437,3.835-4.697,3.947c-1.829,0.062-3.475-0.703-5.211-0.889c-4.112-0.438-8.21,0.451-12.346,0.465
		c-2.804,0.01-5.826-0.466-8.638,0.905c-1.128,0.55-2.536,0.677-3.946,0.739c-3.009,0.132-5.961-0.435-8.9-0.347
		c-1.803,0.053-3.623,1.198-5.539,0.49c-2.789-1.029-5.495-0.274-8.219,0.228c-0.926,0.17-1.844,0.189-2.468-0.581
		c-1.159-1.434-1.98-1.598-3.05,0.195c-0.641,1.076-1.733,0.334-2.557-0.198c-0.666-0.431-1.463-1.35-2.121-0.749
		c-1.504,1.368-2.769,0.612-4.186,0.027c-0.481-0.199-1.307-0.316-1.62-0.051c-2.407,2.035-5.12,2.411-8.122,1.919
		c-0.522-0.085-1.181,0.456-1.73,0.786c-1.955,1.174-3.922,2.245-6.34,1.906c-0.377-0.053-0.813,0.07-1.179,0.218
		c-0.692,0.282-1.335,0.722-1.437,1.511c-0.118,0.906,0.687,1.22,1.312,1.546c0.955,0.499,2.023,0.538,3.077,0.54
		c1.233,0.003,2.395,0.184,3.491,0.822c1.001,0.583,2,1.119,1.884-0.931c-0.062-1.077,0.872-0.773,1.409-0.459
		c3.276,1.923,6.624,1.474,10.215,1.016c1.716-0.218,3.601,0.561,5.646,0.081c0.888-0.209,2.633,0.608,4.029,0.896
		c5.49,1.132,10.968,2.157,16.617,2.016c2.648-0.066,5.345-0.058,7.941,0.382c1.347,0.229,2.385,1.607,3.625-0.345
		c0.551-0.869,1.392,0.191,2.01,0.644c1.693,1.24,3.525,1.872,5.659,1.454c5.303-1.038,10.56-1.002,15.894,0.112
		c1.574,0.329,4.111,2.715,5.278-0.894c0.042-0.13,0.805-0.191,1.113-0.041c3.052,1.49,6.621-0.841,9.61,1.309
		c0.299,0.216,1.069-0.171,1.599-0.345c0.708-0.233,1.481-0.49,2.126-0.129c1.776,0.997,3.43,0.435,5.132-0.149
		c2.402-0.824,5.046-0.533,7.352-0.332c1.476,0.128,2.812,0.757,4.659,0.46c4.871-0.784,9.72-2.236,14.82-0.979
		c2.556,0.63,5.423,0.999,7.853-0.693c1.283-0.895,2.31-1.881,3.559-0.026c0.287,0.429,0.93,0.371,1.326,0.04
		c1.463-1.218,3.211-0.806,4.875-0.992c4.286-0.479,8.674,0.623,12.898-0.847c0.436-0.15,0.964-0.063,1.446-0.044
		c3.341,0.135,6.498-0.766,9.647-1.704c2.134-0.635,4.526,0.345,6.55-1.046c0.12-0.083,0.459,0.105,0.674,0.212
		c3.359,1.664,6.536,0.946,9.598-0.793C343.174,440.532,343.502,440.448,343.785,440.541z M360.146,292.167
		c1.225,0.617,2.913-0.28,4.582-0.021c2.839,0.442,5.539,1.022,8.084,2.197c-0.507,3.436-3.482,2.979-5.729,3.581
		c-1.158,0.31-2.026-0.206-2.159-1.593c-0.053-0.543-0.264-1.1-0.521-1.586c-0.41-0.781-1.108-1.243-1.997-0.971
		c-1.029,0.315-0.957,1.15-0.698,1.986c0.137,0.438,0.48,0.844,0.188,1.524c-2.261-0.353-1.993-5.913-5.955-2.64
		C356.892,292.626,357.364,290.764,360.146,292.167z M313.576,292.527c0.661-0.702,1.749-1.336,1.893-2.135
		c0.672-3.746,3.75-5.097,6.381-6.969c1.425-1.014,2.74-1.26,4.229-0.26c0.395,0.265,0.846,0.492,1.303,0.6
		c0.462,0.109,1.048,0.113,1.18-0.507c0.102-0.475-0.346-0.664-0.723-0.817c-2.992-1.213-5.655-3.447-9.205-2.938
		c-0.377,0.055-0.812-0.009-1.064-0.581c1.938-1.151,3.505-2.06,5.946-0.253c1.659,1.229,4.428,3.037,6.517-0.15
		c0.213-0.324,0.729-0.357,1.11-0.104c0.482,0.321,0.599,0.847,0.25,1.255c-0.95,1.116-0.727,2.066-0.047,3.279
		c0.529,0.945-2.381,2.949-3.828,2.613c-0.697-0.162-1.355-0.513-2.014-0.814c-1.659-0.76-3.006-0.129-4.186,0.984
		c-0.521,0.492-1.094,1.43-0.235,1.832c1.981,0.929,0.643,2.185,0.062,2.561c-2.005,1.298-2.882,3.421-4.279,5.15
		c-0.465,0.574-1.002,1.502-1.632,1.19c-1.036-0.51-2.034-1.345-2.696-2.289C312.012,293.427,313.107,293.025,313.576,292.527z
		 M303.329,166.911c1.848-0.103,1.813-2.959,3.233-2.69c1.021,0.193,0.92,2.86,3.121,2.517c0.691-0.109,0.885,0.715,0.627,1.259
		c-0.422,0.898-0.739,2.307-2.063,1.912c-1.543-0.459-1.913-0.119-1.666,1.372c0.096,0.579-0.065,1.17-0.792,1.271
		c-0.581,0.081-0.816-0.364-1.057-0.809c-0.758-1.412-1.543-2.808-2.471-4.487C302.736,167.097,303.027,166.928,303.329,166.911z
		 M298.363,295.172c0.599-2.131,4.974-5.643,7.443-5.895c0.956-0.098,1.925-0.041,2.712-0.789c0.462-0.44,0.628-1.684,1.537-1.057
		c0.664,0.459,1.091,1.385,1.414,2.188c0.388,0.958-0.44,0.949-1.083,1.094c-2.549,0.571-2.915,1.415-1.296,3.255
		c0.529,0.601,0.701,0.982,0.262,1.638c-0.426,0.635-0.84,1.224-1.739,0.875c-1.85-0.709-2.723-0.238-2.65,1.896
		c0.032,0.913-0.455,1.857-0.773,2.764c-0.424,1.209-2.242,1.688-3.185,0.834c-0.675-0.61-0.601-1.125,0.368-1.297
		c1.574-0.281,2.18-1.412,1.471-2.608c-0.633-1.068-1.158-3.285-3.35-1.782c-0.373,0.257-0.74,0.348-1.08-0.006
		C298.086,295.941,298.25,295.577,298.363,295.172z M130.915,186.138c0.393-0.178,0.951-0.199,1.089,0.188
		c0.772,2.176,3.198,1.761,4.568,2.985c0.212,0.189,0.661,0.142,0.7,0.541c0.038,0.375-0.262,0.687-0.559,0.649
		c-3.594-0.459-4.293,1.977-4.592,5.095c-2.134-2.781-1.008-5.713-1.843-8.287C130.114,186.802,130.423,186.361,130.915,186.138z
		 M139.07,211.577c-0.428,1.246-1.193,1.747-2.369,1.066c-1.752-1.015-3.609-1.192-5.898-0.78c0.334-1.139,0.572-1.89,0.773-2.652
		c0.592-2.226,2.181-3.071,4.452-2.349C139.402,207.936,139.998,208.884,139.07,211.577z M145.554,206.642
		c0.047,0.423-0.074,0.833-0.545,0.946c-0.519,0.125-1.039-0.047-1.203-0.553c-0.414-1.289-1.145-2.25-2.338-2.932
		c-0.66-0.378-0.514-1.108-0.378-1.757c0.214-1.015,0.137-1.922-0.875-2.53c-0.43-0.259-0.776-0.636-0.486-1.191
		c0.261-0.499,0.757-0.524,1.257-0.507c1.924,0.066,2.732,1.055,2.377,2.778c-0.278,1.35,0.229,2.045,1.715,1.68
		c0.524-0.129,0.912-0.695,1.783-0.413C146.344,203.735,145.377,205.027,145.554,206.642z M159.183,107.508
		c0.201-1.305,2.718-1.426,3.929-1.531c2.717-0.235,4.19-1.694,5.624-3.578c0.539-0.709,1.252-1.01,2.127-0.625
		c0.591,0.261,1.166,0.559,1.426,1.221c0.019,0.783-0.525,0.681-0.998,0.597c-1.476-0.259-2.13,0.13-2.767,1.746
		c-0.647,1.64-2.555,2.7-3.379,4.473c-0.133,0.284-1.032,0.292-1.574,0.279c-0.369-0.008-0.905-0.172-1.069-0.445
		C161.693,108.296,158.935,109.111,159.183,107.508z M158.582,205.333c2.147,0.867,4.248,2.074,5.229-1.321
		c0.237-0.821,1.093-0.287,1.589,0.145c0.509,0.442,0.661,0.93-0.011,1.373c-0.544,0.358-1.09,0.723-1.334,1.354
		c-0.254,0.655-0.978,1.271-0.608,1.997c0.509,0.997,1.247,0.1,1.891,0.04c1.595-0.148,2.914,0.744,4.312,1.263
		c0.607,0.225,0.602,1.088,0.498,1.745c-0.144,0.914-0.84,1.091-1.611,1.12c-1.672,0.064-3.421-0.189-4.721,1.287
		c-0.221,0.252-0.649,0.299-0.833-0.031c-0.129-0.231-0.135-0.652-0.007-0.883c0.745-1.342,0.026-1.8-1.022-2.621
		C160.317,209.518,158.313,208.231,158.582,205.333z M156.512,343.384c-0.535-0.79-1.365-1.508-2.215-1.022
		c-1.712,0.979-3.595,0.256-5.425,0.754c0.985-1.917,2.659-3.036,4.424-3.924c1.585-0.797,3.993,0.316,4.308,2.265
		c0.324,2.011,1.587,3.409,2.271,5.202C158.553,345.758,157.408,344.705,156.512,343.384z M170.068,339.857
		c-1.569,1.278-0.899,4.453-3.811,4.455c-0.603,0.002-0.672-0.609-0.545-1.121c0.405-1.629-0.554-1.918-1.861-2.033
		c-1.87-0.167-2.702-0.911-2.632-3.139c0.063-2.049-2.138-3.15-3.554-4.484c-0.384-0.362-1.163-0.41-1.029-1.149
		c0.155-0.848,0.936-0.805,1.553-0.811c2.022-0.019,3.071-0.827,2.633-2.992c-0.127-0.627-0.358-1.368,0.281-1.788
		c0.713-0.47,1.147,0.348,1.678,0.626c0.695,0.365,1.338,0.831,2.507,1.575c-0.626-1.617-1.019-2.633-1.584-4.088
		c2.235,1.027,3.122,2.576,3.767,4.273c0.435,1.146-0.313,1.601-1.327,1.791c-0.758,0.143-1.403,0.465-1.494,1.342
		c-0.086,0.838,0.363,1.442,1.094,1.703c1.801,0.637,2.363,2.738,4.29,3.365C171.17,337.753,170.769,339.287,170.068,339.857z
		 M170.283,124.264c-1.75,1.138-1.487,2.68-1.508,4.267c-0.006,0.56,0.032,1.22-0.598,1.469c-0.734,0.29-1.226-0.225-1.611-0.758
		c-0.518-0.719-1-1.467-1.46-2.224c-0.396-0.654-0.825-1.251-1.702-1.047c-0.709,0.165-1.067,0.677-1.111,1.405
		c-0.028,0.464,0.125,1.119-0.469,1.222c-0.861,0.15-0.656-0.712-0.869-1.172c-0.505-1.096-0.971-2.214-1.53-3.282
		c-0.858-1.641-1.319-3.111,0.8-4.225c0.926-0.488,1.135-1.479,0.455-2.271c-0.783-0.91-1.745-0.665-2.51,0.165
		c-0.377,0.409-0.563,1.037-0.993,1.345c-1.156,0.828-2.337,1.427-2.681-0.787c-0.111-0.709-0.186-1.613-0.641-2.049
		c-2.513-2.411-0.841-2.737,1.352-3.053c1.076-0.156,1.947-1.173,3.37-0.889c0.058,0.985-0.916,1.458-0.74,2.364
		c0.248,1.273,1.598,1.62,2.839,0.669c0.42-0.321,0.773-1.517,1.356-0.419c1.735,3.264,4.7,1.915,7.387,2.179
		c-0.362,1.132-1.526,1.296-2.26,1.927c-0.617,0.529-0.868,1.204-0.434,1.938c0.444,0.751,1.127,0.865,1.869,0.415
		c0.509-0.31,1.043-1.101,1.523-0.083C170.554,122.296,171.271,123.621,170.283,124.264z M173.441,112.731
		c-0.795-0.202-1.233-1.015-1.454-1.819c-0.219-0.793-0.471-1.528-1.227-1.996c-0.407-0.252-0.85-0.579-0.553-1.158
		c0.26-0.507,0.791-0.471,1.473-0.494c1.328,0.375,2.605,1.246,3.628,2.349c0.872,0.941,1.606,1.685,3.044,1.456
		c1.221-0.194,2.111,0.461,1.998,1.778c-0.123,1.458-1.553,1.675-2.369,1.289C176.503,113.437,174.983,113.122,173.441,112.731z
		 M192.804,143.105c-1.806,0.17-3.593,1.209-5.743-0.354c0.527,1.93,1.039,3.13,2.183,4.159c1.909,1.716,2.006,4.049,0.226,5.79
		c0.431-1.929,0.376-3.519-1.928-3.992c-0.216-0.044-0.574-0.275-0.566-0.401c0.156-2.548-2.381-4.008-2.574-6.361
		c-0.095-1.168-0.373-1.972-1.527-2.457c-1.514-0.634-2.371-0.54-2.133,1.41c0.094,0.766,0.45,1.687-0.446,2.191
		c-0.491,0.277-0.846-0.29-1.188-0.612c-0.76-0.713-1.406-1.654-0.7-2.55c1.343-1.706,2.352-3.353,1.956-5.697
		c-0.158-0.936,0.807-0.979,1.597-0.613c0.955,0.44,1.888,0.503,2.628-0.416c1.39-1.726,1.767-0.296,2.244,0.724
		c0.617,1.317-0.158,2.707,0.197,4.071c0.293,1.121,0.393,2.259,1.847,2.491c1.523,0.243,1.673-0.877,1.976-1.896
		c0.053-0.181,0.313-0.3,0.465-0.437c0.732,0.352,0.37,0.846,0.24,1.262c-0.352,1.13-0.576,2.145,1.176,2.088
		c0.523-0.017,1.006,0.164,1.043,0.758C193.816,142.886,193.306,143.058,192.804,143.105z M235.555,231.104
		c-0.258,1.101-1.203,0.935-1.953,0.568c-0.713-0.348-1.403-0.812-1.979-1.356c-0.719-0.68-2.424-0.429-2.252-1.782
		c0.182-1.411,1.799-2.066,2.851-2.257c1.601-0.292,2.306-1.059,2.703-3.013C236.627,226.227,236.124,228.683,235.555,231.104z
		 M243.288,359.572c-1.333-0.129-2.08-1.502-1.914-2.936c0.165-1.432,0.822-2.779,0.761-4.273c-0.054-1.316-0.112-2.5-1.954-2.254
		c-0.746,0.101-1.465-0.301-1.246-1.053c0.344-1.188,0.934,0.066,1.399,0.021c3.455-0.334,3.066,2.136,3.228,4.281
		c0.104,1.363,0.358,2.717,0.546,4.078C243.818,358.193,244.531,359.689,243.288,359.572z"/>
	<path fill="#FFFFFF" d="M123.572,159.792c0.21,0.043,0.619,0.037,0.652,0.146c0.655,2.148,2.879,2.411,4.275,3.648
		c0.752,0.667,0.884,1.558-0.486,1.936c-1.965,0.541-3.701,1.451-4.925,3.174c-0.483,0.68-1.192,0.82-1.926,0.43
		c-0.747-0.398-0.876-1.122-0.753-1.878c0.172-1.058,0.884-1.667,1.832-2.064c1.029-0.432,2.771-0.738,0.279-1.788
		c-0.894-0.376-0.898-1.265-0.677-2.095C122.074,160.444,122.656,159.941,123.572,159.792z"/>
	<path fill="#FFFFFF" d="M133.896,134.427c-1.654-0.023-3.428,0.042-2.179-2.495c0.269-0.544-0.012-0.853-0.261-1.289
		c-1.127-1.97-0.67-3.693,1.205-4.893c0.754-0.481,1.606-0.723,2.164,0.067c0.645,0.912,1.289,1.819,1.942,2.723
		c0.634,0.877,0.071,1.784-0.712,2.276c-1.374,0.865-1.776,2.225-2.18,3.627L133.896,134.427z"/>
	<path fill="#FFFFFF" d="M126.62,151.888c-1.407,0.898-2.693,0.422-3.899-0.637c-0.26,1.085,0.429,1.395,0.809,1.865
		c0.451,0.557,0.687,1.137,0.089,1.708c-0.541,0.518-1.286,0.536-1.772,0.082c-1.25-1.171-3.091-2.21-2.623-4.233
		c0.326-1.409,1.711-2.157,3.246-1.934c1.93,0.279,4.299,0.122,4.127,3.181C126.595,151.919,126.62,151.888,126.62,151.888z"/>
	<path fill="#FFFFFF" d="M372.764,286.969c-1.8-1.717-3.686-0.972-5.625,0.067c-0.635,0.341-1.288-0.001-1.552-0.708
		c-0.306-0.821-0.226-1.631,0.622-2.09c0.91-0.494,1.871-0.899,2.822-1.315c2.541-1.108,4.434-0.032,4.846,2.749
		C373.987,286.411,373.798,286.95,372.764,286.969z"/>
	<path fill="#FFFFFF" d="M340.714,435.307c0.356-0.006,0.668-0.061,0.933-0.156c-0.267-0.169-0.532-0.338-0.806-0.497
		c-1.982-1.153-4.005-2.216-6.053-3.249c-6.849-3.452-9.888-12.386-7.933-19.493c0.015-0.055,0.035-0.104,0.051-0.159
		c-4.758-6.754-5.584-16.553,1.388-22.458c1.49-1.262,2.952-2.558,4.311-3.962c-0.234,0.127-0.473,0.276-0.717,0.471
		c-0.803,0.639-1.641,1.326-2.6,0.715c-4.345-2.771-9.485-2.68-14.229-3.992c-1.522-0.42-2.258-1.077-2.328-2.567
		c-0.026-0.569,0.03-1.176-0.427-1.592c-1.252-1.142-1.369-2.406-0.731-3.947c0.786-1.903-0.952-2.688-1.941-3.758
		c-0.141-0.152-0.673-0.142-0.877,0.003c-0.445,0.314-0.195,0.762,0.088,1.035c1.217,1.172,1.442,2.435,0.574,3.923
		c-0.26,0.444,0.027,0.931,0.298,1.354c0.423,0.664,1.188,1.457,0.302,2.107c-0.819,0.605-1.401-0.449-2.083-0.797
		c-2.471-1.262-3.997-3.823-6.604-4.863c-1.095-0.436-2.294-0.584-0.606-1.859c0.364-0.274,0.348-0.939-0.092-0.963
		c-1.367-0.07-2.264-1.389-4.122-1.467c2.265,2.279,0.752,3.971-0.26,5.646c-0.556,0.918-1.562,1.164-2.045-0.016
		c-0.437-1.065-0.997-1.52-2.114-1.576c-1.193-0.06-1.23-0.817-0.798-1.711c0.36-0.748,0.836-1.385,1.67-1.664
		c0.739-0.248,1.401-0.642,1.226-1.537c-0.184-0.937-0.933-1.254-1.828-1.239c-0.899,0.015-2.072,0.683-2.42-0.746
		c-0.264-1.088,0.561-1.752,1.336-2.39c0.512-0.418,1.434-0.573,1.199-1.586c-0.144-0.614-1.632-2.237-2.302-2.474
		c0.871,2.036,0.815,1.96-1.215,3.447c-1.131,0.828-2.86,1.59-0.918,3.526c1.239,1.234,0.147,2.613-0.99,3.172
		c-1.528,0.752-3.248,1.025-4.137,2.773c-0.244,0.48-1.093,0.573-1.547,0.193c-1.515-1.266-0.747-3.18-1.175-4.77
		c-0.283-1.052,0.852-1.137,1.646-1.295c1.554-0.312,1.654-1.086,1.386-2.637c-0.344-1.995-2.113-4.046-0.271-6.186
		c0.293-0.34,0.116-0.822-0.37-0.943c-0.609-0.152-0.945,0.285-0.986,0.789c-0.136,1.611-1.217,2-2.568,2.41
		c-7.209,2.189-11.221,7.406-12.477,14.533c-0.648,3.686-0.775,7.533-0.709,11.349c0.045,2.53-0.436,5.069-0.682,7.604
		c-0.217,0.014-0.432,0.026-0.65,0.043c-1.645-2.662-3.135-5.435-4.973-7.955c-2.155-2.955-2.611-6.476-0.85-9.732
		c0.888-1.643,1.443-3.438,0.188-5.025c-1.622-2.051-1.126-4.789-2.548-6.896c-0.367-0.546-0.312-1.745,0.046-2.348
		c1.794-3.023,1.383-6.233,0.948-9.42c-0.125-0.926,1.203-2.514-0.245-2.596c-1.216-0.068-0.843,1.816-0.884,2.887
		c-0.066,1.697-0.026,3.396-0.024,5.094c0.002,0.984-0.123,1.929-0.649,2.796c-1.004,1.649-0.863,3.407-0.392,5.165
		c1.166,4.353,1.315,8.756,0.847,13.219c-0.187,1.76-0.367,3.58-0.133,5.316c0.817,6.037,0.482,12.125,0.462,18.151
		c-0.032,9.366-0.282,18.697,1.337,27.97c0.187,1.072,0.492,2.064,1.788,1.638c1.287-0.424,2.513-0.437,3.808-0.237
		c0.465,0.072,1.024,0.043,1.252-0.499c0.246-0.586-0.231-0.881-0.623-1.151c-0.614-0.424-1.282-0.878-1.198-1.694
		c0.365-3.528,0.771-7.052,1.224-10.57c0.078-0.602,0.269-1.437,1.018-1.496c1.029-0.079,0.92,0.941,1.133,1.574
		c1.324,3.939,0.836,8.017,0.747,12.038c-0.052,2.292,0.793,2.895,2.872,2.539c1.927-0.33,3.869,0.074,5.785,0.054
		c3.908-0.04,7.906,1.847,11.74-0.419c0.445-0.263,0.947,0.011,1.355,0.299c2.314,1.627,5.014,1.723,7.665,1.772
		c2.401,0.046,4.844,1.184,7.217-0.151c3.721,1.915,7.214,0.451,10.714-0.746c0.682-0.232,1.11-0.229,1.699,0.329
		c1.393,1.319,4.859,1.258,6.247-0.085c0.962-0.931,1.767-1.604,2.526,0.114c0.391,0.888,1.03,1.017,1.754,0.526
		c1.248-0.851,2.543-0.821,3.947-0.529c0.594,0.124,1.368,0.067,1.879-0.226c1.8-1.033,3.286-0.445,4.649,0.746
		C337.989,435.311,339.321,435.333,340.714,435.307z"/>
	<path fill="#FFFFFF" d="M158.577,112.38c0.058,0.985-0.916,1.458-0.741,2.363c0.248,1.274,1.598,1.62,2.839,0.669
		c0.421-0.321,0.773-1.517,1.356-0.419c1.734,3.264,4.7,1.915,7.387,2.179c-0.361,1.132-1.525,1.295-2.26,1.927
		c-0.616,0.529-0.867,1.204-0.434,1.938c0.444,0.751,1.127,0.865,1.869,0.415c0.51-0.31,1.043-1.101,1.523-0.083
		c0.438,0.925,1.154,2.25,0.166,2.894c-1.75,1.138-1.486,2.68-1.508,4.267c-0.006,0.56,0.032,1.22-0.598,1.469
		c-0.734,0.29-1.227-0.226-1.611-0.758c-0.518-0.718-1-1.466-1.46-2.224c-0.396-0.654-0.825-1.251-1.702-1.047
		c-0.709,0.165-1.067,0.677-1.111,1.405c-0.027,0.464,0.125,1.12-0.469,1.222c-0.861,0.15-0.656-0.712-0.869-1.172
		c-0.505-1.096-0.972-2.213-1.53-3.282c-0.858-1.641-1.319-3.111,0.8-4.225c0.926-0.487,1.135-1.479,0.455-2.271
		c-0.783-0.91-1.745-0.665-2.51,0.165c-0.377,0.409-0.563,1.037-0.993,1.345c-1.155,0.828-2.337,1.427-2.681-0.787
		c-0.11-0.709-0.186-1.613-0.641-2.049c-2.514-2.411-0.842-2.737,1.352-3.053C156.283,113.113,157.154,112.096,158.577,112.38z"/>
	<path fill="#FFFFFF" d="M165.288,328.996c-0.626-1.617-1.02-2.633-1.583-4.088c2.234,1.027,3.122,2.576,3.767,4.273
		c0.435,1.146-0.313,1.601-1.327,1.791c-0.758,0.143-1.403,0.465-1.494,1.342c-0.086,0.838,0.362,1.442,1.094,1.703
		c1.801,0.639,2.363,2.738,4.29,3.365c1.136,0.369,0.735,1.903,0.034,2.475c-1.568,1.278-0.898,4.453-3.811,4.455
		c-0.603,0.002-0.672-0.609-0.545-1.121c0.404-1.629-0.555-1.918-1.861-2.033c-1.87-0.167-2.702-0.911-2.632-3.139
		c0.063-2.05-2.138-3.15-3.554-4.484c-0.385-0.362-1.163-0.41-1.029-1.149c0.154-0.848,0.936-0.805,1.553-0.811
		c2.021-0.019,3.07-0.827,2.633-2.992c-0.127-0.627-0.357-1.368,0.281-1.788c0.713-0.47,1.146,0.348,1.678,0.626
		C163.477,327.786,164.119,328.252,165.288,328.996z"/>
	<path fill="#FFFFFF" d="M335.829,376.507c1.151,0.374,2.163,1.197,2.275,2.139c1.069-1.515,2.139-3.029,3.192-4.555
		c-0.209-0.065-0.395-0.166-0.511-0.353c-1.066-1.703-1.303-0.901-1.662,0.303c-0.282,0.943-0.836,1.576-1.922,1.464
		c-0.724-0.073-1.205-0.474-1.347-1.192c-0.188-0.953,0.139-1.692,0.88-2.357c0.609-0.546,1.801-0.45,1.89-1.693
		c-0.727-0.589-1.784,0.043-2.496-0.715c-0.372-0.395-0.773,0.083-0.771,0.503c0.013,2.513-1.692,2.302-3.652,1.955
		C332.312,374.617,333.805,375.85,335.829,376.507z"/>
	<path fill="#FFFFFF" d="M317.569,278.921c1.938-1.151,3.505-2.06,5.947-0.252c1.658,1.228,4.428,3.036,6.517-0.149
		c0.213-0.326,0.729-0.358,1.11-0.105c0.482,0.32,0.599,0.847,0.25,1.255c-0.95,1.116-0.727,2.067-0.047,3.28
		c0.529,0.945-2.381,2.947-3.828,2.611c-0.696-0.16-1.354-0.513-2.014-0.813c-1.658-0.761-3.006-0.129-4.186,0.985
		c-0.521,0.492-1.095,1.429-0.235,1.83c1.981,0.93,0.644,2.186,0.062,2.562c-2.006,1.299-2.883,3.422-4.28,5.149
		c-0.465,0.576-1.002,1.504-1.632,1.191c-1.036-0.51-2.034-1.345-2.696-2.289c-0.525-0.748,0.57-1.15,1.039-1.648
		c0.66-0.701,1.749-1.334,1.893-2.135c0.672-3.744,3.75-5.096,6.381-6.968c1.425-1.014,2.739-1.26,4.229-0.26
		c0.395,0.265,0.846,0.491,1.303,0.601c0.462,0.108,1.048,0.112,1.181-0.508c0.102-0.477-0.347-0.664-0.724-0.816
		c-2.992-1.215-5.655-3.448-9.205-2.938C318.258,279.557,317.821,279.493,317.569,278.921z"/>
	<path fill="#FFFFFF" d="M189.47,152.7c0.432-1.929,0.376-3.52-1.925-3.994c-0.217-0.044-0.574-0.275-0.566-0.401
		c0.156-2.548-2.381-4.008-2.574-6.361c-0.096-1.167-0.373-1.972-1.527-2.457c-1.514-0.635-2.371-0.541-2.133,1.41
		c0.094,0.767,0.449,1.687-0.446,2.191c-0.491,0.277-0.847-0.29-1.188-0.612c-0.76-0.712-1.406-1.653-0.7-2.55
		c1.343-1.706,2.353-3.353,1.956-5.697c-0.158-0.936,0.807-0.979,1.597-0.613c0.955,0.441,1.888,0.504,2.628-0.416
		c1.391-1.726,1.768-0.295,2.244,0.724c0.617,1.317-0.158,2.708,0.197,4.071c0.293,1.121,0.393,2.259,1.847,2.491
		c1.522,0.243,1.673-0.877,1.976-1.895c0.053-0.181,0.312-0.3,0.465-0.437c0.732,0.353,0.37,0.846,0.24,1.262
		c-0.353,1.13-0.576,2.146,1.176,2.088c0.523-0.017,1.006,0.164,1.043,0.758c0.039,0.622-0.471,0.794-0.973,0.841
		c-1.807,0.17-3.593,1.208-5.743-0.354c0.526,1.931,1.039,3.13,2.183,4.159C191.152,148.626,191.25,150.959,189.47,152.7z"/>
	<path fill="#FFFFFF" d="M307.613,296.48c-1.85-0.711-2.725-0.238-2.65,1.897c0.031,0.913-0.455,1.856-0.773,2.763
		c-0.424,1.209-2.24,1.688-3.185,0.834c-0.675-0.609-0.601-1.125,0.368-1.297c1.572-0.279,2.18-1.412,1.471-2.607
		c-0.633-1.068-1.156-3.285-3.35-1.782c-0.373,0.257-0.74,0.349-1.08-0.006c-0.328-0.341-0.164-0.704-0.051-1.109
		c0.6-2.131,4.975-5.644,7.443-5.894c0.956-0.098,1.925-0.041,2.713-0.791c0.461-0.438,0.627-1.684,1.536-1.057
		c0.664,0.459,1.091,1.387,1.414,2.188c0.388,0.958-0.44,0.95-1.083,1.094c-2.549,0.571-2.915,1.415-1.296,3.255
		c0.528,0.602,0.701,0.981,0.263,1.639C308.928,296.24,308.514,296.829,307.613,296.48z"/>
	<path fill="#FFFFFF" d="M372.812,294.344c-0.508,3.436-3.482,2.979-5.729,3.579c-1.158,0.31-2.026-0.206-2.159-1.593
		c-0.053-0.543-0.264-1.1-0.521-1.586c-0.41-0.78-1.108-1.243-1.997-0.971c-1.029,0.315-0.957,1.15-0.698,1.985
		c0.137,0.439,0.479,0.845,0.188,1.525c-2.261-0.353-1.993-5.913-5.955-2.64c0.949-2.021,1.422-3.884,4.204-2.479
		c1.225,0.617,2.913-0.279,4.582-0.021C367.567,292.589,370.269,293.169,372.812,294.344z"/>
	<path fill="#FFFFFF" d="M158.582,205.333c2.146,0.867,4.248,2.074,5.23-1.32c0.237-0.821,1.093-0.287,1.589,0.145
		c0.509,0.442,0.661,0.929-0.011,1.373c-0.544,0.358-1.09,0.723-1.334,1.354c-0.255,0.655-0.979,1.271-0.608,1.997
		c0.509,0.997,1.247,0.1,1.891,0.04c1.595-0.147,2.913,0.744,4.312,1.263c0.607,0.225,0.603,1.087,0.498,1.745
		c-0.145,0.914-0.84,1.09-1.611,1.12c-1.672,0.063-3.421-0.189-4.721,1.287c-0.221,0.252-0.649,0.298-0.833-0.031
		c-0.129-0.231-0.135-0.652-0.007-0.883c0.744-1.342,0.025-1.8-1.022-2.621C160.317,209.519,158.313,208.231,158.582,205.333z"/>
	<path fill="#FFFFFF" d="M369.111,312.117c0.337-0.162,0.635-0.339,0.905-0.524c0.416-1.363,0.832-2.727,1.246-4.091
		c-0.292-0.578-0.756-1.163-1.398-1.734c-0.452,1.047,0.307,2.049,0.077,3.207c-2.312,0.11-2.562-2.168-3.961-3.013
		c-0.795-0.479-1.664-1.649-2.492-0.737c-0.851,0.937-1.953,2.148-1.654,3.57C362.601,312.426,365.677,313.764,369.111,312.117z"/>
	<path fill="#FFFFFF" d="M356.256,342.659c0.494-0.261,1.047-0.55,1.581-0.568c1.426-0.046,2.137-0.927,2.762-2.024
		c0.216-0.379,0.443-0.751,0.668-1.125c0.537-1.572,1.075-3.145,1.599-4.721c-0.427-0.022-0.826,0.422-1.2,0.66
		c-0.896,0.57-1.812,0.551-2.784,0.235c-0.712-0.23-1.499-1.108-2.171-0.241c-0.565,0.727,0.174,1.505,0.455,2.236
		c0.991,2.586,0.252,3.529-2.568,3.929c-1.526,0.217-2.974,0.376-4.521-0.065C352.891,344.449,352.886,344.439,356.256,342.659z"/>
	<path fill="#FFFFFF" d="M130.803,211.863c0.334-1.139,0.572-1.891,0.773-2.652c0.592-2.226,2.182-3.071,4.452-2.349
		c3.374,1.074,3.97,2.021,3.042,4.715c-0.428,1.246-1.193,1.747-2.369,1.066C134.949,211.628,133.092,211.451,130.803,211.863z"/>
	<path fill="#FFFFFF" d="M172.289,102.995c0.019,0.784-0.525,0.681-0.997,0.598c-1.476-0.26-2.13,0.13-2.767,1.746
		c-0.646,1.64-2.555,2.699-3.379,4.473c-0.133,0.284-1.032,0.292-1.574,0.279c-0.369-0.009-0.905-0.172-1.069-0.445
		c-0.81-1.349-3.567-0.534-3.319-2.137c0.201-1.306,2.718-1.426,3.929-1.531c2.717-0.235,4.19-1.693,5.624-3.578
		c0.539-0.709,1.252-1.01,2.127-0.625C171.454,102.035,172.029,102.333,172.289,102.995z"/>
	<path fill="#FFFFFF" d="M302.262,167.256c0.477-0.159,0.768-0.328,1.066-0.345c1.849-0.103,1.814-2.958,3.234-2.69
		c1.021,0.193,0.919,2.86,3.12,2.517c0.691-0.108,0.885,0.715,0.627,1.259c-0.423,0.897-0.739,2.306-2.063,1.912
		c-1.543-0.459-1.913-0.119-1.666,1.372c0.096,0.579-0.065,1.17-0.792,1.271c-0.581,0.081-0.815-0.364-1.056-0.809
		C303.975,170.331,303.189,168.935,302.262,167.256z"/>
	<path fill="#FFFFFF" d="M171.68,107.264c1.328,0.375,2.605,1.246,3.628,2.348c0.872,0.941,1.606,1.685,3.044,1.456
		c1.221-0.194,2.111,0.46,1.998,1.778c-0.123,1.458-1.553,1.675-2.369,1.289c-1.478-0.699-2.998-1.014-4.54-1.405
		c-0.795-0.202-1.233-1.015-1.454-1.819c-0.219-0.793-0.471-1.528-1.227-1.996c-0.406-0.251-0.85-0.579-0.553-1.158
		C170.467,107.251,170.998,107.287,171.68,107.264z"/>
	<path fill="#FFFFFF" d="M234.925,223.264c1.702,2.963,1.199,5.419,0.63,7.84c-0.258,1.101-1.203,0.936-1.953,0.568
		c-0.713-0.349-1.402-0.812-1.979-1.356c-0.719-0.68-2.424-0.429-2.252-1.782c0.182-1.412,1.799-2.066,2.851-2.257
		C233.823,225.985,234.527,225.217,234.925,223.264z"/>
	<path fill="#FFFFFF" d="M146.861,202.163c-0.518,1.572-1.484,2.864-1.307,4.479c0.047,0.423-0.074,0.833-0.545,0.946
		c-0.52,0.125-1.039-0.046-1.203-0.553c-0.414-1.289-1.145-2.25-2.338-2.932c-0.66-0.378-0.514-1.108-0.378-1.757
		c0.214-1.015,0.137-1.922-0.875-2.53c-0.431-0.259-0.776-0.637-0.486-1.191c0.261-0.499,0.757-0.524,1.257-0.507
		c1.924,0.065,2.732,1.055,2.377,2.778c-0.278,1.35,0.229,2.045,1.715,1.68C145.603,202.447,145.99,201.881,146.861,202.163z"/>
	<path fill="#FFFFFF" d="M148.872,343.115c0.985-1.917,2.659-3.036,4.424-3.922c1.585-0.797,3.992,0.314,4.308,2.264
		c0.324,2.011,1.588,3.409,2.271,5.202c-1.322-0.9-2.467-1.953-3.363-3.274c-0.535-0.789-1.365-1.509-2.215-1.023
		C152.585,343.34,150.702,342.617,148.872,343.115z"/>
	<path fill="#FFFFFF" d="M132.121,195.596c-2.134-2.781-1.008-5.713-1.844-8.287c-0.164-0.507,0.145-0.949,0.637-1.171
		c0.393-0.178,0.951-0.199,1.089,0.188c0.772,2.176,3.198,1.761,4.568,2.985c0.212,0.189,0.661,0.142,0.7,0.541
		c0.038,0.375-0.262,0.688-0.559,0.649C133.119,190.042,132.42,192.478,132.121,195.596z"/>
	<path fill="#FFFFFF" d="M244.108,357.438c-0.29,0.756,0.423,2.254-0.819,2.133c-1.333-0.127-2.08-1.502-1.914-2.936
		c0.165-1.432,0.821-2.777,0.761-4.273c-0.054-1.315-0.112-2.5-1.954-2.252c-0.746,0.101-1.465-0.303-1.246-1.053
		c0.345-1.188,0.935,0.065,1.399,0.021c3.454-0.334,3.065,2.137,3.228,4.28C243.666,354.723,243.92,356.075,244.108,357.438z"/>
</g>
</svg>
