<?xml version="1.0" encoding="utf-8"?>
<!-- Generator: Adobe Illustrator 16.0.0, SVG Export Plug-In . SVG Version: 6.00 Build 0)  -->
<!DOCTYPE svg PUBLIC "-//W3C//DTD SVG 1.1//EN" "http://www.w3.org/Graphics/SVG/1.1/DTD/svg11.dtd">
<svg version="1.1" id="Layer_1" xmlns="http://www.w3.org/2000/svg" xmlns:xlink="http://www.w3.org/1999/xlink" x="0px" y="0px"
	 width="500px" height="500px" viewBox="0 0 500 500" enable-background="new 0 0 500 500" xml:space="preserve">
<circle fill="#FFFFFF" cx="249.316" cy="249.316" r="249.316"/>
<g>
	<path fill="#87BB65" d="M250.777,106.979c-1.307-0.759-2.58-1.602-1.78-2.644c1.937-2.525,1.104-5.604,2.101-8.276
		c0.254-0.683,0.447-1.467,0.008-2.182c-0.814-1.323-0.135-1.855,1.033-2.436c2.064-1.025,2.488-2.773,1.068-4.431
		c-0.686-0.799-1.083-1.286-0.336-2.299c0.686-0.926,0.045-1.775-0.771-2.308c-0.966-0.63-1.746-0.209-2.307,0.688
		c-0.266,0.422-0.422,0.918-0.717,1.314c-0.883,1.182-2.076,3.2-3.26,2.495c-1.392-0.83-0.135-2.733,0.44-4.165
		c0.752-1.874,3.037-3.633,2.886-4.957c-0.259-2.226,0.916-3.379,1.639-4.944c0.312-0.679,0.76-1.427-0.025-2.033
		c-0.761-0.587-1.588-0.412-2.289,0.184c-0.439,0.375-0.807,0.837-1.21,1.256c-0.495,0.514-0.95,1.603-1.688,1.103
		c-0.738-0.502-1.541-1.815-0.945-2.575c1.564-1.992,1.146-3.975,0.77-6.147c-0.194-1.133-0.211-1.734-1.582-1.344
		c-1.834,0.521-1.246-0.827-0.969-1.557c1.111-2.917,0.154-5.54-2.494-6.889c-1.522-0.774-2.57-2.295-3.021-3.729
		c-0.236-0.75,1.373-2.001,2.635-2.428c0.562-0.19,0.938-0.408,0.721-1.02c-0.229-0.649-0.656-1.219-1.396-1.272
		c-0.479-0.034-0.998,0.291-1.459,0.216c-1.031-0.17-2.318,0.06-2.938-1.02c-0.604-1.051,0.519-1.606,1.004-2.321
		c0.551-0.81,1.006-1.952,0.281-2.509c-0.98-0.755-2.33-1.167-3.58-1.375c-0.602-0.1-1.213,0.989-0.757,1.516
		c1.749,2.023-0.421,2.842-1.265,3.735c-0.746,0.788-1.568,2.668-2.838,1.881c-1.441-0.893-0.441-2.701,0.095-3.834
		c0.795-1.683,0.368-2.722-0.728-4.004c-0.977-1.143-2.486-2.237-1.07-4.268c0.646-0.928-0.334-2.009-1.294-2.669
		c-0.767-0.526-1.613-1.206-2.499-0.597c-1.189,0.817,0.045,1.573,0.286,2.351c0.047,0.15,0.085,0.429,0.017,0.472
		c-2.4,1.499-3.438,3.473-3.295,6.459c0.037,0.76-1.184,2.584-2.242,3.669c-0.721,0.739-0.865,2.045,0,2.427
		c2.602,1.146,1.227,3.772,2.754,5.521c-1.322-0.019-1.654-0.792-2.18-1.25c-0.518-0.451-1.101-0.982-1.757-0.788
		c-1.391,0.414-2.94,0.749-4.019,1.62c-0.99,0.798,0.013,2.131,0.126,3.241c0.15,1.479,0.296,2.58,1.876,3.237
		c0.473,0.196,1.189,1.111,0.988,2.11c-1.832,0.084-2.564-1.543-3.85-2.209c-0.938-0.486-2.002-0.785-2.186,0.455
		c-0.338,2.266-0.904,4.636-0.311,6.874c0.63,2.381,0.836,2.362-1.607,3.558c0.213-0.718,0.498-1.327,0.559-1.958
		c0.129-1.339-0.814-2.002-1.897-2.27c-1.298-0.322-1.529,0.686-1.55,1.67c-0.021,1.065-0.324,1.768-1.566,1.753
		c-0.666-0.008-1.118,0.376-1.047,1.107c0.065,0.656,0.402,1.096,1.145,1.015c0.398-0.043,0.857-0.235,0.829,0.509
		c-0.222,0.524-0.691,0.598-1.218,0.589c-0.763-0.013-1.758-0.802-2.211,0.302c-0.447,1.087,0.426,1.867,1.139,2.566
		c0.412,0.404,0.919,0.709,1.381,1.063c0.414,0.317,0.904,0.831,0.463,1.222c-1.974,1.746-0.76,2.934,0.466,4.369
		c0.862,1.01,0.239,2.252-0.419,3.201c-0.359,0.518-1.083,0.383-1.537-0.116c-1.541-1.694-3.3-2.686-5.728-2.333
		c-0.961,0.14-0.659-0.713-0.437-1.248c0.36-0.87,0.346-1.646-0.527-2.183c-0.754-0.464-1.571-0.606-2.346-0.048
		c-0.77,0.554-0.893,1.339-0.718,2.229c0.626,3.201-0.226,4.555-3.388,5.348c-0.532,0.134-1.117,0.349-1.027,0.881
		c0.344,2.061-0.705,1.806-2.129,1.579c-0.857-0.137-1.518,0.617-1.533,1.613c-0.011,0.637,0.258,1.374,0.961,1.131
		c4.951-1.715,1.838,1.243,1.52,2.577c-0.098,0.404-0.152,0.829-0.315,1.206c-0.599,1.385-0.257,1.999,1.259,1.471
		c0.844-0.294,1.266-0.104,1.456,0.734c0.183,0.8,0.613,1.708-0.452,2.174c-0.908,0.396-1.884,0.656-2.85,0.896
		c-0.979,0.243-2.174,1.008-1.723,1.715c1.345,2.107-1.463,4.406,0.734,6.325c-1.396-0.223-1.837-1.281-2.438-2.105
		c-0.576-0.789-1.057-1.646-2.15-0.852c-0.982,0.714-1.014,1.724-0.369,2.651c0.601,0.866,1.369,1.615,2.117,2.476
		c-0.468,0.544-1.829,0.466-2.037,1.615c-0.407,2.244-2.1,2.977-3.971,3.594c-1.682,0.555-1.887,1.805-1.131,3.178
		c0.428,0.775,1.316,1.29,1.779,2.054c0.684,1.133,1.49,3.044,0.346,3.577c-2.064,0.962-2.117,1.573-0.531,2.878
		c0.373,0.307,0.406,0.679,0.201,1.111c-0.695,1.462-0.317,2.178,1.395,2.201c1.064,0.015,0.701,0.929,0.67,1.537
		c-0.029,0.561,0.101,1.314-0.541,1.547c-0.948,0.343-1.041-0.614-1.301-1.147c-0.688-1.412-2.126-1.806-3.307-2.542
		c-0.455-0.283-0.99-0.231-1.35,0.224c-0.292,0.368-0.241,0.834,0.079,1.139c1.104,1.051,1.265,2.4,1.563,3.811
		c0.282,1.328,1.053,2.686,2.694,2.944c1.271,0.2,1.192,0.736,0.707,1.712c-1.082,2.177-2.069,4.366-5.068,4.246
		c-0.282-0.011-0.771,0.23-0.835,0.449c-0.49,1.704-1.4,3.214-2.436,4.577c-1.141,1.5,0.344,3.043-0.531,4.792
		c-0.601,1.198-0.479,3.405-0.977,5.026c-0.648,2.118-0.926,4.127-0.314,6.231c-0.623,0.182-1.328,0.236-1.842,0.578
		c-0.684,0.455-0.996,6.65-0.307,7.18c0.967,0.742,0.633,1.52,0.232,2.195c-0.774,1.308-1.107-0.055-1.596-0.375
		c-0.642-0.419-1.081-0.001-1.57,0.314c-0.529,0.341-1.402,0.547-1.436-0.168c-0.098-2.182-2.36-1.417-3.24-2.59
		c-0.56-0.746-1.319-0.108-1.622,0.748c-0.212,0.599,0.183,1.336-0.521,1.94c-0.687-0.537-0.192-2.317-1.728-1.899
		c-1.591,0.433-1.153,1.527-0.742,2.595c0.08,0.208,0.09,0.563-0.033,0.711c-1.982,2.36,0.324,2.063,1.631,2.298
		c-2.392,3.161-1.662,7.048,1.529,8.89c0.354,0.204,1.07,0.431,0.889,0.709c-1.691,2.58-0.436,4.719,0.373,7.234
		c0.374,1.161,0.007,3.518-0.874,5.225c-0.737,1.428-0.38,2.543,1.605,2.092c1.803-0.409,1.304,1.346,1.938,2.026
		c0.42,0.451,0.57,1.027-0.18,1.445c-0.764,0.425-1.456,0.767-2.238-0.028c-0.582-0.593-1.355-0.704-2.041-0.16
		c-0.706,0.562-0.656,1.346-0.23,2.033c1.008,1.627,0.475,3.224-0.012,4.821c-0.184,0.603-0.322,1.507-1.203,1.272
		c-0.787-0.21-0.332-0.97-0.254-1.505c0.109-0.757,0.244-1.56-0.504-2.042c-0.748-0.484-1.217,0.169-1.698,0.613
		c-0.885,0.814-1.058,0.049-1.358-0.576c-0.537-1.12-1.498-1.074-2.311-0.514c-1.478,1.016-0.613,1.947,0.277,2.829
		c2.328,2.304,2.328,2.313-0.045,4.398c-0.496,0.436-1.367,1.262-0.771,1.518c2.173,0.928,0.884,2.776,1.421,4.016
		c1.309,3.017,0.449,5.642-0.602,8.373c-0.559,1.45,0.387,3.872,1.608,3.833c2.26-0.072,1.534,0.78,0.731,1.799
		c-0.355,0.451-0.922,0.858-1.028,1.362c-0.486,2.301-1.222,2.293-2.46,0.446c-0.775-1.158-1.936-1.356-3.04-0.527
		c-1.165,0.875-0.228,1.738,0.192,2.613c0.913,1.899,3.175,3.397,1.798,6.016c-0.181,0.345,0.241,0.722,0.626,0.962
		c0.368,0.229,1.48-0.381,1.016,0.796c-0.203,0.517-0.539,1.097-1.231,1.101c-0.851,0.006-1.102-0.508-1.112-1.312
		c-0.021-1.501-0.912-1.78-2.211-1.483c-0.641,0.147-1.32,0.209-1.998-0.519c1.191-0.741,1.396-1.925,1.32-3.196
		c-0.055-0.889,0.136-2.05-1.113-2.18c-1.207-0.125-1.772,0.719-1.821,1.889c-0.023,0.561,0.22,1.333-0.524,1.501
		c-3.852,0.872-1.729,2.579-0.489,4.103c-0.835,0.511-1.358-0.226-1.997-0.224c-0.826,0.002-1.942,0.463-1.568,1.082
		c0.973,1.615-1.061,3.951,1.414,5.131c0.658,0.314,0.28,1.127-0.312,1.38c-1.533,0.653-1.494,1.524-0.604,2.708
		c0.412,0.549,0.546,1.283,0.145,1.889c-0.508,0.766-1.187,0.25-1.799,0.076c-0.583-0.167-1.178-0.293-1.528,0.378
		c-0.315,0.604-0.106,1.252,0.347,1.597c2.277,1.729,1.196,3.442,0.032,5.137c-0.634,0.925-0.941,1.894-0.101,2.723
		c1.125,1.107,1.58,2.075,0.697,3.645c-0.5,0.89,0.516,1.309,1.365,1.642c2.105,0.823,4.16,1.78,6.279,2.702
		c-0.443,0.683-0.784,0.588-1.101,0.551c-0.725-0.083-1.562-0.473-2.059,0.336c-0.557,0.907,0.153,1.559,0.694,2.188
		c0.543,0.631,1.129,1.226,1.668,1.858c0.609,0.718-0.088,1.028-0.496,1.38c-0.353,0.305-1.097,0.826-1.162,0.15
		c-0.189-1.95-1.338-1.643-2.664-1.594c-0.949,0.033-0.592-0.767-0.369-1.293c0.264-0.627,0.211-1.142-0.432-1.482
		c-0.682-0.364-1.276-0.223-1.801,0.33c-1.621,1.709-2.613,4.012-4.904,5.113c-0.26,0.125-0.344,0.938-0.262,1.39
		c0.255,1.401,0.133,2.354-1.676,2.093c-1.103-0.16-1.09,0.559-1.139,1.414c-0.121,2.115,1.209,2.736,2.811,3.66
		c1.897,1.095,2.092-0.864,3.178-1.344c0.35,1.164-0.075,1.764-0.621,2.604c-1.075,1.651-3.822,2.965-1.719,5.65
		c0.117,0.148-0.063,0.643-0.235,0.883c-0.706,0.982-0.308,1.527,0.675,1.869c0.538,0.188,0.837,0.538,0.775,1.117
		c-0.17,1.629,0.027,2.783,2.134,1.902c0.671-0.279,0.869,0.188,0.821,0.793c-0.051,0.655-0.248,1.346-0.11,1.961
		c0.306,1.373-0.207,1.383-1.305,1.076c-1.986-0.555-3.394,0.614-3.21,2.778c0.15,1.772-1.318,0.894-1.924,1.387
		c0.139-2.409-2.141-2.936-3.324-4.319c-0.145-0.17,0.055-0.639,0.101-0.967c0.137-0.982,0.267-1.968,0.417-2.947
		c0.096-0.623,0.061-1.195-0.608-1.467c-0.527-0.215-1.348,0.115-1.274,0.395c0.679,2.585-6.461,2.201-2.273,6.023
		c0.029,0.026-0.063,0.164-0.045,0.234c0.679,2.583-0.903,5.52,1.233,7.872c-1.685,2.719,3.378,3.92,1.534,6.746
		c-0.168,0.257,0.581,0.803,1.102,0.789c2.203-0.06,2.934,2.582,5.15,2.743c0.58,0.043,1.135,1.707,1.521,2.695
		c0.268,0.688-0.205,1.32-0.828,1.648c-0.735,0.387-1.084-0.264-1.338-0.753c-0.701-1.361-1.598-2.312-3.3-2.136
		c-0.579,0.059-0.852-0.418-1.022-0.924c-0.771-2.301-2.285-1.389-2.812-0.213c-1.031,2.297-4.322,4.391-1.269,7.442
		c0.294,0.293,0.323,0.804-0.104,1.098c-0.335,0.23-0.629,0.019-0.84-0.268c-0.441-0.597-0.822-1.413-1.757-0.916
		c-0.864,0.46-0.381,1.339-0.461,2.044c-0.236,2.074,0.987,4.404-1.312,6.139c-0.634,0.479,0.221,1.032,0.76,1.481
		c1.451,1.211,2.874,2.497,1.773,4.731c-0.564,1.146-0.393,1.873,1.032,2.453c1.781,0.727,3.933,5.039,3.456,6.77
		c-0.332,1.207-0.396,2.064,0.707,2.812c0.35,0.236,0.59,0.669,0.248,1.063c-0.367,0.427-0.732,0.104-1.078-0.141
		c-1.268-0.896-2.214-1.986-2.449-3.605c-0.116-0.805-0.607-1.381-1.511-1.385c-0.78-0.002-1.143,0.531-1.458,1.166
		c-1.279,2.576-0.608,4.607,1.992,5.733c-0.314,1.017-2.155,1.435-1.597,2.57c1.548,3.146-0.37,4.802-2.431,6.456
		c-0.592,0.474-0.885,0.998-0.751,1.713c0.239,1.263-0.372,1.869-1.518,2.129c-0.99,0.225-2.012,0.891-1.578,1.829
		c0.789,1.71,0.388,3.981,2.599,5.106c1.18,0.602,2.854,1.721,0.521,3.221c-0.502,0.322-0.861,1.281-0.357,1.492
		c2.604,1.09,1.506,6.217,5.865,5.336c0.245-0.051,0.84,0.455,0.881,0.756c0.307,2.229,2.325,2.365,3.768,3.205
		c0.658,0.383,2.005,0.496,1.408,1.562c-0.48,0.858-1.759,1.005-2.672,0.324c-0.861-0.641-1.678-1.408-2.315-2.267
		c-1.603-2.155-3.386-1.186-5.106-0.363c-1.973,0.941-0.786,2.396-0.406,3.655c0.287,0.948,0.823,1.831,1.029,2.793
		c0.266,1.235,2.311,2.01,1.479,3.184c-0.943,1.328-2.518-0.393-3.965-0.105c-1.201,0.238-2.755,0.947-3.532,1.944
		c-1.418,1.819-0.103,2.417,1.028,3.323c1.291,1.035,2.555,1.774,4.32,1.231c0.867-0.268,1.828-0.09,2.676,0.344
		c0.512,0.261,1.211,0.511,1.094,1.191c-0.146,0.856-0.904,0.465-1.443,0.461c-2.02-0.014-2.162,0.929-1.498,2.586
		c0.942,2.355,1.994,4.372,5.408,3.32c-1.121,1.388-1.971,2.403-2.777,3.451c-0.543,0.707-1.43,1.442-0.763,2.408
		c0.68,0.983,1.589,0.318,2.47,0.071c2.354-0.657,4.581-0.243,6.599,1.149c0.509,0.351,0.922,0.816,0.27,1.406
		c-0.415,0.374-0.862,0.562-1.194-0.124c-0.505-1.05-1.363-1.701-2.381-0.964c-1.113,0.806-0.387,1.759,0.275,2.565
		c0.339,0.413,0.556,0.893,0.127,1.339c-0.516,0.539-0.879,0.045-1.242-0.28c-0.76-0.684-1.583-0.176-2.385-0.139
		c-2.252,0.104-4.166,2.913-6.708,0.842c-0.104-0.084-0.467,0.114-0.69,0.221c-1.723,0.807-3.791,0.903-5.181,2.361
		c-0.565,0.594-2.04-0.126-1.862,1.12c0.161,1.138,1.373,1.592,2.332,2.081c0.816,0.417,1.641,0.208,2.394-0.21
		c0.996-0.553,2.051-0.447,3.136-0.52c4.982-0.328,9.782,1.352,14.793,1.068c6.062-0.342,11.955,1.778,18.053,1.794
		c1.527,0.005,3.007,0.332,4.604-0.008c1.514-0.321,3.15-0.166,4.723-0.062c0.797,0.052,1.52,0.478,0.777,1.495
		c-0.355,0.487-1.914,0.364-1.013,1.424c0.727,0.854,1.681,0.177,2.393-0.468c0.673-0.61,1.237-1.452,2.251-1.452
		c3.467-0.003,6.979-0.291,10.393,0.158c5.414,0.714,10.763-0.355,16.169-0.116c3.984,0.177,8.069-0.261,12.114-0.395
		c2.369-0.077,3.907,0.701,5.311,2.443c1.431,1.774,2.443,1.69,3.631-0.188c1.246-1.972,2.758-2.54,5.07-1.789
		c4.068,1.32,8.366,0.312,12.568,0.776c2.16,0.238,4.131,1.172,6.33,1.261c1.035,0.042,1.922,0.532,2.853-0.298
		c1.396-1.248,2.842-1.459,4.805-1.096c1.811,0.335,3.873,0.254,5.754,0.023c1.941-0.236,3.717-0.091,5.607,0.286
		c2.387,0.478,4.705-1.525,7.198-0.463c0.043,0.02,0.157-0.067,0.201-0.132c1.326-1.928,2.088-0.485,2.979,0.468
		c0.998,1.065,1.701,1.853,2.967-0.119c1.111-1.731,3.414-2.789,5.459-1.653c1.593,0.883,2.669,2.762,4.791,1.114
		c0.044-0.033,0.595,0.48,0.818,0.803c1.088,1.554,2.027,1.778,2.682-0.29c0.258-0.814,0.734-1.336,1.572-1.367
		c2.494-0.096,4.991-0.148,7.488-0.195c0.81-0.015,1.189,1.112,2.426,0.438c2.648-1.447,5.689-1.556,8.682-1.6
		c4.444-0.064,8.979,1.969,13.327-0.558c0.196-0.115,0.528-0.162,0.729-0.078c3.369,1.41,6.632,1.3,9.795-0.606
		c0.115-0.069,0.367-0.058,0.473,0.024c1.712,1.336,3.312,0.282,4.931-0.222c1.603-0.498,3.124-0.897,4.827-0.065
		c1.279,0.625,2.752,0.412,4.14-0.104c4.856-1.806,9.906-1.973,14.976-1.48c1.646,0.159,3.497,0.854,3.39,2.966
		c-0.106,2.082-0.825,3.984-2.721,5.368c-4.227,3.086-9.357,5.324-10.856,11.114c-0.214,0.827-1.467,1.527-0.799,2.419
		c0.76,1.012,1.824,0.249,2.721-0.135c0.458-0.196,0.863-0.532,1.33-0.687c3.145-1.032,5.254-3.895,8.402-4.821
		c1.774-0.524,3.18-1.45,4.356-2.752c1.076-1.19,2.345-2.107,3.608-3.062c4.866-3.668,10.393-6.327,15.263-9.967
		c1.823-1.363,3.115-1.498,5.004-0.053c3.201,2.449,6.836,2.51,10.365,0.635c3.304-1.754,4.916-4.705,4.928-8.395
		c0.006-2.479,0.689-3.9,3.375-4.638c2.847-0.779,5.156-2.828,5.978-5.82c0.43-1.565,1.924-2.944,3.377-2.305
		c3.6,1.589,8.435-0.182,9.86-3.883c0.691-1.793,1.425-3.51,2.387-5.172c0.7-1.209,1.04-2.765-0.798-3.256
		c-1.625-0.437-1.968-1.392-2.242-2.826c-1.171-6.082-4.891-8.947-11.047-8.941c-2.875,0.005-4.833,1.565-6.743,3.322
		c-0.72,0.662-1.424,1.437-2.294,0.5c-0.984-1.058,0.199-1.556,0.812-2.159c0.532-0.525,1.153-0.999,1.55-1.613
		c0.405-0.632,1.474-1.351,0.65-2.121c-0.766-0.72-1.494,0.213-2.137,0.695c-0.91,0.686-1.803,1.864-3.033,0.997
		c-1.125-0.791-1.187-2.18-0.782-3.433c1.472-4.579,1.405-9.896,6.131-12.944c0.336-0.216,0.653-0.603,0.489-1.056
		c-0.186-0.51-0.648-0.368-1.061-0.319c-0.701,0.082-1.604,0.573-1.945-0.416c-0.246-0.715,0.564-1.117,0.98-1.61
		c0.321-0.383,0.706-0.732,0.935-1.166c0.394-0.75,1.513-1.572,0.566-2.379c-0.807-0.688-1.464,0.379-2.028,0.914
		c-1.383,1.312-2.205,0.805-2.669-0.785c-0.185-0.631-0.288-1.318-0.256-1.974c0.319-6.407,1.392-12.683,3.526-18.751
		c0.221-0.626,0.671-1.279,0.162-1.867c-0.463-0.535-0.851,0.151-1.273,0.311c-1.212,0.451-1.352-0.232-1.062-1.123
		c0.488-1.504,1.121-2.961,1.589-4.471c0.202-0.648,0.732-1.629-0.255-1.963c-1.035-0.349-1.074,0.754-1.315,1.411
		c-0.379,1.032-0.734,2.181-1.979,2.339c-1.238,0.159-1.852-0.962-2.581-1.729c-0.901-0.947-0.813-2.096-0.64-3.292
		c0.376-2.597,1.258-5.063,2.186-7.445c-1.277-0.597-2.181,1.308-2.965,0.089c-0.611-0.951,0.529-1.806,0.9-2.697
		c0.256-0.614,0.532-1.223,0.824-1.819c0.426-0.867,1.342-1.948-0.087-2.488c-1.254-0.474-1.598,0.813-1.935,1.759
		c-0.112,0.313-0.159,0.656-0.311,0.948c-0.797,1.545-2.133,1.653-3.06,0.181c-0.383-0.607-0.607-1.379-0.692-2.103
		c-0.426-3.625-1.44-7.192-1.108-10.899c0.042-0.466-0.048-1.228-0.338-1.394c-2.747-1.572-1.48-3.369-0.414-5.211
		c0.432-0.744,1.312-1.712,0.071-2.32c-1.145-0.562-1.473,0.566-1.873,1.416c-1.642,3.483-3.844,4.533-7.484,3.542
		c-1.538-0.419-2.889-1.267-4.213-2.146c-5.589-3.717-9.012-9.233-12.332-14.834c-0.283-0.478-0.245-1.25-0.979-1.311
		c-0.729-0.059-0.966,0.604-1.137,1.139c-1.055,3.305-3.826,5.205-6.188,7.369c-2.302,2.108-4.857,1.825-7.087-0.402
		c-0.479-0.48-0.868-1.125-1.635-0.853c-0.883,0.314-0.411,1.089-0.466,1.714c-0.509,5.873-1.819,11.53-5.433,16.325
		c-2.316,3.07-3.769,2.962-6.248,0.025c-0.595-0.703-1.089-1.462-1.745-0.06c-0.44,0.94-0.655,0.936-1.49,0.06
		c-1.83-1.916-3.122-5.56-6.966-3.062c-0.017,0.01-0.185-0.218-0.385-0.46c2.608-0.965,3.321-2.542,1.625-4.928
		c-0.652-0.916-0.697-2.144,0.489-2.533c2.633-0.866,2.299-2.26,0.793-4.157c1.354,0.705,2.4,0.822,3.33-0.271
		c0.545-0.642,1.474-1.465,0.9-2.119c-1.577-1.801-0.273-2.847,0.766-3.959c1.279-1.37,0.871-2.604-0.223-3.728
		c-0.822-0.844-1.627-1.527-1.511-2.926c0.068-0.817-0.643-1.559-1.521-1.774c-0.844-0.209-1.087,0.547-1.435,1.112
		c-0.298,0.483-0.613,1.068-1.656,0.273c2.722-1.759,1.241-3.756,0.354-5.75c-0.188-0.422-0.717-0.768-0.242-1.328
		c1.925-2.279,0.23-2.506-1.471-2.344c-1.262,0.12-2.178-0.301-2.844-1.162c-0.823-1.066,0.636-1.283,0.965-1.934
		c0.438-0.867,0.765-1.699,0.281-2.598c-0.33-0.611-0.957-0.57-1.555-0.412c-0.698,0.182-1.476,0.709-2.031-0.146
		c-0.538-0.826,0.283-1.377,0.614-1.998c1.321-2.477,0.766-3.623-2.033-4.141c-0.514-0.096-1.229,0.104-1.321-0.756
		c3.209-0.853,3.562-2.121,3.097-5.707c-0.447-3.449,0.665-6.297,2.135-9.211c0.503-0.998,2.246-2.525-0.664-3.047
		c-1.112-0.199-0.308-0.99-0.003-1.5c0.262-0.438,0.574-0.899,0.081-1.334c-0.45-0.396-1.061-0.26-1.349,0.129
		c-0.807,1.086-1.237,0.791-1.743-0.242c-0.099-0.202-1.07-0.248-1.098-0.174c-0.706,1.994-3.284,1.924-4.079,3.437
		c-1.201,2.285-2.841,3.815-5.122,4.798c-0.48,0.208-0.603,1.542-1.476,0.521c-0.574-0.67-0.105-1.295,0.31-1.795
		c2.637-3.166,4.813-6.562,6.274-10.468c0.438-1.17,0.896-2.09-0.181-2.773c-1.233-0.784-1.272,0.721-1.874,1.256
		c-1.519,1.35-1.755,3.839-4.061,4.598c1.663-1.808,0.256-3.406-0.327-5.005c0.375-0.061,0.572-0.16,0.674-0.099
		c0.765,0.454,1.518,1.31,2.423,0.421c1.024-1.007,1.137-2.375,1.025-3.73c-0.093-1.137-0.94-1.045-1.818-1.177
		c-1.603-0.24-1.193-1.412-0.601-2.235c0.812-1.125,1.155-2.158,0.433-3.444c-0.366-0.653,0.026-1.289,0.295-1.899
		c1.709-3.896,1.708-3.896-2.521-4.895c-0.161-0.038-0.325-0.078-0.479-0.14c-1.5-0.604-2.165-0.052-2.763,1.45
		c-0.662,1.669-1.631,3.504-3.225,4.3c-1.076,0.538-2.42,0.639-3.479,2.125c-0.188-2.523,0.267-4.127,2.36-4.846
		c0.587-0.202,1.2-0.453,1.224-1.09c0.066-1.897,0.65-3.321,2.671-3.903c0.457-0.131,0.569-0.901,0.347-1.342
		c-0.837-1.65-0.157-2.403,1.414-2.935c1.679-0.569,2.106-1.66,0.652-2.945c-1.127-0.997-0.771-1.867-0.017-2.801
		c0.521-0.646,1.114-1.243,1.557-1.937c0.52-0.812,1.482-1.784,0.635-2.685c-1.168-1.239-2.177-2.794-3.973-3.266
		c-0.625-0.164-1.032,0.397-1.439,0.83c-0.365,0.39-0.609,1.041-1.443,0.799c-0.264-0.984,0.332-1.509,1.066-1.964
		c1.897-1.18,2.024-3.82,4.37-4.892c1.013-0.463,1.418-2.694,2.44-3.896c0.538-0.633,1.497-1.172,1.206-2.033
		c-0.76-2.247-1.397-4.871-3.312-6.187c-1.851-1.271-1.789-2.271-0.967-3.836c0.347-0.659,0.727-1.3,1.065-1.961
		c0.406-0.788,0.656-1.981-0.092-2.262c-1.253-0.471-1.945-1.741-3.207-1.97c-0.498-0.09-0.703,0.583-0.65,1.141
		c0.232,2.463-0.687,4.55-2.383,6.215c-0.825,0.811-1.158,2.721-2.693,2.179c-1.635-0.577-0.159-2.193-0.514-3.312
		c-0.229-0.729-0.266-1.499-1.126-1.771c-0.842-0.266-1.444,0.079-1.882,0.813c-0.234,0.394-0.525,1.211-1.005,0.727
		c-1.071-1.084-2.812-1.977-2.483-3.796c0.332-1.833-0.141-3.762,0.046-5.265c0.419-3.384,0.319-6.993,1.771-10.239
		c0.307-0.686,0.755-1.395,0.077-2.065c-0.604-0.598-1.408-0.579-2.097-0.212c-1.004,0.537-1.682,0.593-2.031-0.717
		c-0.211-0.795-0.521-1.797-1.549-1.673c-1.192,0.144-1.016,1.256-1.17,2.163c-0.291,1.695-1.35,2.612-3.137,2.52
		c-0.564-0.029-0.941-0.182-0.721-0.916c0.621-2.073,0.68-4.298,2.686-5.856c1.387-1.077,1.571-3.004,0.365-4.25
		c-1.201-1.241-1.737-2.116-0.92-3.81c0.517-1.069-0.316-2.124-1.361-2.642c-1.152-0.57-1.285,0.562-1.76,1.194
		c-1.242,1.662-2.54,3.249-3.277,5.262c-0.285,0.782-1.666,1.955-2.24,0.623c-1.52-3.521-3.125-7.173-1.963-11.18
		c0.615-2.12,1.617-4.209-2.107-5.191c2.402-0.859,3.48-2.363,4.521-3.967c1.188-1.831,0.779-3.638-0.272-5.125
		c-1.187-1.674-2.078,0.584-3.339,0.864c-0.12-1.619,0.203-2.633,1.8-2.929c0.76-0.141,1.103-0.708,1.028-1.479
		c-0.068-0.74-0.446-1.266-1.209-1.384c-0.746-0.116-1.258,0.231-1.604,0.91c-0.26,0.508-0.152,1.411-1.287,1.234
		c0.148-0.747,0.762-1.383,0.525-2.141c-0.301-0.961-0.99-1.984-1.854-0.863c-1.133,1.47-2.64,2.552-3.716,3.986
		c-0.9,1.2-2.35,2.592-0.785,4.408c0.403,0.468,0.287,1.158-0.195,1.599c-1.307,1.191-2.651,2.34-3.98,3.505
		c0.368-1.406,1.714-2.229,1.646-3.765c-0.102-2.335,0.726-4.4,1.883-6.372c0.523-0.896,0.855-1.735-0.119-2.676
		c-2.19-2.111-2.253-4.944-0.309-7.216c0.646-0.757,1.494-1.486,1.785-2.379c0.6-1.84,2.543-3.596,0.981-5.697
		c-0.79-1.063-1.034-1.637,0.042-2.671c1.097-1.055,0.891-2.319-0.51-3.092c-1.34-0.737-1.844,0.061-2.342,1.262
		c-0.875,2.11-2.731,2.547-4.59,1.268c-1.796-1.238-2.412-0.988-2.777,1.129C250.963,105.905,250.895,106.299,250.777,106.979z"/>
	<path fill="#87BB65" d="M250.777,106.979c0.117-0.68,0.186-1.074,0.252-1.467c0.365-2.117,0.981-2.367,2.777-1.129
		c1.857,1.279,3.715,0.842,4.59-1.268c0.498-1.202,1.002-2,2.342-1.262c1.4,0.772,1.605,2.037,0.51,3.092
		c-1.076,1.034-0.832,1.607-0.042,2.671c1.562,2.101-0.382,3.857-0.981,5.697c-0.291,0.894-1.139,1.622-1.785,2.379
		c-1.944,2.272-1.883,5.105,0.309,7.216c0.977,0.94,0.645,1.78,0.119,2.676c-1.157,1.972-1.983,4.037-1.883,6.372
		c0.066,1.536-1.278,2.359-1.646,3.765c1.329-1.166,2.676-2.314,3.98-3.505c0.482-0.44,0.6-1.131,0.195-1.599
		c-1.563-1.816-0.115-3.208,0.785-4.408c1.076-1.434,2.583-2.516,3.717-3.986c0.863-1.121,1.555-0.098,1.854,0.863
		c0.236,0.757-0.377,1.394-0.525,2.141c1.135,0.177,1.027-0.726,1.287-1.234c0.346-0.678,0.855-1.026,1.604-0.91
		c0.763,0.119,1.141,0.645,1.209,1.384c0.072,0.77-0.27,1.337-1.028,1.479c-1.597,0.296-1.92,1.31-1.799,2.929
		c1.26-0.28,2.151-2.538,3.338-0.864c1.053,1.487,1.46,3.294,0.272,5.125c-1.041,1.604-2.119,3.107-4.521,3.967
		c3.727,0.982,2.725,3.071,2.107,5.191c-1.162,4.007,0.443,7.659,1.963,11.18c0.574,1.332,1.955,0.159,2.24-0.623
		c0.737-2.014,2.035-3.6,3.277-5.262c0.475-0.632,0.607-1.764,1.76-1.194c1.045,0.518,1.879,1.573,1.361,2.642
		c-0.816,1.694-0.281,2.569,0.92,3.81c1.206,1.246,1.021,3.173-0.365,4.25c-2.006,1.558-2.063,3.783-2.686,5.856
		c-0.221,0.734,0.156,0.887,0.721,0.916c1.787,0.092,2.846-0.825,3.137-2.521c0.154-0.906-0.022-2.019,1.17-2.163
		c1.028-0.125,1.338,0.878,1.549,1.673c0.351,1.311,1.027,1.254,2.031,0.717c0.688-0.367,1.492-0.386,2.097,0.212
		c0.678,0.671,0.229,1.38-0.077,2.065c-1.452,3.246-1.354,6.854-1.771,10.239c-0.187,1.503,0.286,3.432-0.046,5.265
		c-0.327,1.819,1.412,2.712,2.483,3.796c0.479,0.484,0.771-0.333,1.005-0.727c0.438-0.734,1.04-1.079,1.882-0.813
		c0.86,0.271,0.896,1.041,1.126,1.771c0.354,1.119-1.121,2.734,0.515,3.312c1.534,0.542,1.867-1.369,2.692-2.179
		c1.696-1.665,2.615-3.751,2.383-6.215c-0.053-0.558,0.152-1.231,0.65-1.141c1.262,0.229,1.954,1.5,3.207,1.97
		c0.748,0.281,0.498,1.474,0.092,2.262c-0.34,0.662-0.72,1.303-1.064,1.961c-0.823,1.566-0.885,2.566,0.966,3.836
		c1.914,1.315,2.553,3.94,3.312,6.187c0.291,0.861-0.668,1.399-1.206,2.033c-1.022,1.202-1.429,3.433-2.44,3.896
		c-2.345,1.071-2.473,3.711-4.37,4.892c-0.734,0.456-1.33,0.98-1.066,1.964c0.834,0.241,1.078-0.409,1.443-0.799
		c0.407-0.433,0.814-0.994,1.439-0.83c1.797,0.471,2.805,2.027,3.973,3.266c0.849,0.901-0.115,1.873-0.634,2.685
		c-0.442,0.694-1.036,1.292-1.558,1.937c-0.754,0.935-1.109,1.805,0.018,2.801c1.454,1.285,1.024,2.376-0.653,2.945
		c-1.571,0.532-2.251,1.285-1.414,2.935c0.224,0.441,0.11,1.21-0.347,1.342c-2.021,0.582-2.604,2.005-2.67,3.903
		c-0.023,0.638-0.638,0.889-1.225,1.09c-2.095,0.719-2.549,2.323-2.359,4.846c1.059-1.485,2.401-1.586,3.479-2.125
		c1.594-0.796,2.562-2.631,3.225-4.3c0.598-1.501,1.263-2.053,2.763-1.45c0.153,0.062,0.317,0.102,0.479,0.14
		c4.229,0.999,4.229,0.999,2.521,4.895c-0.269,0.611-0.661,1.247-0.295,1.899c0.724,1.287,0.38,2.319-0.433,3.444
		c-0.594,0.823-1.002,1.995,0.601,2.235c0.878,0.132,1.727,0.04,1.818,1.177c0.11,1.355-0.001,2.723-1.025,3.73
		c-0.905,0.889-1.658,0.033-2.422-0.421c-0.103-0.061-0.3,0.038-0.675,0.099c0.583,1.599,1.99,3.198,0.327,5.005
		c2.307-0.758,2.542-3.249,4.061-4.599c0.602-0.535,0.641-2.04,1.874-1.256c1.076,0.683,0.618,1.603,0.181,2.773
		c-1.461,3.906-3.639,7.302-6.274,10.468c-0.414,0.499-0.884,1.124-0.31,1.795c0.873,1.02,0.994-0.314,1.476-0.521
		c2.281-0.983,3.922-2.514,5.122-4.799c0.796-1.512,3.373-1.441,4.079-3.436c0.026-0.074,0.999-0.028,1.099,0.173
		c0.505,1.034,0.937,1.329,1.743,0.241c0.287-0.389,0.896-0.523,1.348-0.127c0.493,0.434,0.181,0.895-0.081,1.334
		c-0.304,0.509-1.109,1.301,0.003,1.5c2.91,0.521,1.167,2.048,0.664,3.046c-1.469,2.915-2.582,5.762-2.135,9.211
		c0.467,3.586,0.112,4.854-3.097,5.707c0.093,0.86,0.809,0.661,1.321,0.756c2.799,0.519,3.355,1.664,2.033,4.142
		c-0.331,0.62-1.152,1.172-0.614,1.997c0.557,0.856,1.333,0.328,2.031,0.146c0.598-0.157,1.225-0.199,1.555,0.411
		c0.482,0.898,0.157,1.73-0.281,2.599c-0.329,0.649-1.788,0.867-0.965,1.935c0.666,0.86,1.582,1.281,2.845,1.161
		c1.7-0.161,3.395,0.064,1.47,2.345c-0.475,0.561,0.056,0.905,0.243,1.328c0.886,1.993,2.365,3.99-0.355,5.75
		c1.043,0.795,1.358,0.209,1.656-0.274c0.348-0.565,0.591-1.321,1.435-1.112c0.878,0.217,1.589,0.957,1.521,1.775
		c-0.116,1.396,0.688,2.082,1.511,2.926c1.094,1.123,1.502,2.355,0.223,3.727c-1.039,1.112-2.343,2.158-0.766,3.959
		c0.572,0.654-0.355,1.479-0.9,2.119c-0.93,1.094-1.976,0.975-3.33,0.27c1.507,1.898,1.841,3.293-0.793,4.158
		c-1.188,0.392-1.143,1.617-0.489,2.533c1.696,2.387,0.983,3.963-1.625,4.928c0.201,0.242,0.369,0.47,0.385,0.459
		c3.844-2.496,5.136,1.146,6.966,3.062c0.835,0.876,1.05,0.882,1.49-0.059c0.657-1.402,1.151-0.646,1.745,0.059
		c2.479,2.938,3.932,3.045,6.248-0.025c3.612-4.795,4.924-10.453,5.433-16.324c0.055-0.627-0.417-1.399,0.466-1.715
		c0.767-0.271,1.154,0.371,1.636,0.853c2.229,2.229,4.784,2.513,7.087,0.403c2.361-2.164,5.134-4.065,6.188-7.369
		c0.171-0.534,0.408-1.197,1.137-1.139c0.732,0.06,0.694,0.832,0.979,1.311c3.321,5.6,6.743,11.116,12.332,14.833
		c1.325,0.881,2.675,1.729,4.213,2.147c3.642,0.99,5.844-0.06,7.485-3.543c0.399-0.85,0.729-1.979,1.873-1.416
		c1.238,0.608,0.358,1.576-0.072,2.32c-1.066,1.842-2.333,3.639,0.414,5.211c0.29,0.166,0.38,0.928,0.338,1.393
		c-0.332,3.709,0.684,7.275,1.108,10.9c0.086,0.723,0.311,1.494,0.692,2.103c0.927,1.474,2.263,1.364,3.061-0.181
		c0.149-0.291,0.196-0.635,0.31-0.949c0.337-0.943,0.681-2.23,1.935-1.758c1.429,0.541,0.513,1.621,0.087,2.488
		c-0.291,0.598-0.568,1.205-0.824,1.819c-0.371,0.894-1.513,1.746-0.9,2.698c0.784,1.219,1.688-0.687,2.965-0.09
		c-0.928,2.383-1.81,4.85-2.186,7.445c-0.174,1.196-0.262,2.346,0.64,3.292c0.73,0.769,1.343,1.89,2.581,1.729
		c1.244-0.159,1.602-1.307,1.979-2.34c0.24-0.656,0.279-1.76,1.314-1.41c0.987,0.332,0.457,1.312,0.255,1.963
		c-0.468,1.509-1.101,2.966-1.589,4.47c-0.29,0.892-0.149,1.574,1.062,1.123c0.423-0.158,0.811-0.845,1.272-0.31
		c0.509,0.586,0.06,1.24-0.162,1.867c-2.136,6.068-3.207,12.342-3.526,18.75c-0.032,0.654,0.071,1.342,0.256,1.974
		c0.464,1.59,1.286,2.098,2.669,0.784c0.564-0.534,1.223-1.603,2.029-0.914c0.944,0.809-0.175,1.63-0.567,2.38
		c-0.228,0.434-0.612,0.784-0.934,1.165c-0.416,0.494-1.229,0.896-0.981,1.611c0.342,0.989,1.244,0.498,1.945,0.416
		c0.412-0.049,0.875-0.188,1.061,0.319c0.164,0.454-0.152,0.84-0.489,1.056c-4.726,3.049-4.658,8.365-6.131,12.944
		c-0.402,1.253-0.343,2.642,0.782,3.433c1.231,0.867,2.123-0.312,3.033-0.996c0.643-0.482,1.371-1.416,2.137-0.696
		c0.822,0.771-0.245,1.489-0.649,2.12c-0.396,0.615-1.019,1.09-1.551,1.615c-0.611,0.604-1.796,1.103-0.812,2.158
		c0.87,0.938,1.574,0.162,2.294-0.5c1.91-1.757,3.868-3.318,6.743-3.322c6.157-0.006,9.876,2.859,11.047,8.941
		c0.275,1.437,0.617,2.391,2.242,2.826c1.838,0.492,1.498,2.047,0.798,3.256c-0.962,1.662-1.694,3.379-2.386,5.172
		c-1.428,3.701-6.263,5.473-9.861,3.883c-1.453-0.641-2.947,0.738-3.377,2.306c-0.82,2.991-3.131,5.041-5.978,5.819
		c-2.686,0.736-3.368,2.158-3.375,4.639c-0.012,3.688-1.624,6.64-4.928,8.394c-3.528,1.875-7.164,1.815-10.365-0.635
		c-1.889-1.445-3.181-1.312-5.004,0.053c-4.87,3.641-10.396,6.299-15.263,9.967c-1.265,0.953-2.532,1.87-3.608,3.062
		c-1.178,1.302-2.582,2.228-4.356,2.752c-3.148,0.928-5.259,3.789-8.402,4.822c-0.467,0.152-0.872,0.488-1.33,0.686
		c-0.896,0.384-1.961,1.146-2.721,0.135c-0.668-0.892,0.585-1.592,0.799-2.419c1.499-5.79,6.631-8.027,10.856-11.113
		c1.896-1.385,2.613-3.286,2.721-5.368c0.108-2.113-1.742-2.808-3.39-2.966c-5.068-0.491-10.118-0.324-14.976,1.479
		c-1.388,0.516-2.858,0.729-4.14,0.104c-1.703-0.832-3.226-0.434-4.827,0.064c-1.619,0.504-3.219,1.559-4.931,0.222
		c-0.104-0.082-0.356-0.095-0.473-0.024c-3.163,1.907-6.426,2.018-9.795,0.606c-0.201-0.084-0.533-0.036-0.729,0.078
		c-4.349,2.525-8.882,0.492-13.327,0.559c-2.991,0.044-6.032,0.15-8.681,1.599c-1.236,0.675-1.617-0.452-2.427-0.438
		c-2.496,0.047-4.994,0.1-7.488,0.194c-0.838,0.031-1.314,0.554-1.571,1.367c-0.654,2.069-1.595,1.844-2.683,0.29
		c-0.225-0.321-0.774-0.836-0.818-0.802c-2.122,1.646-3.198-0.232-4.791-1.115c-2.045-1.135-4.348-0.078-5.458,1.654
		c-1.267,1.971-1.97,1.185-2.968,0.119c-0.893-0.953-1.653-2.396-2.979-0.469c-0.044,0.063-0.157,0.15-0.2,0.133
		c-2.494-1.063-4.812,0.938-7.199,0.463c-1.892-0.377-3.666-0.523-5.607-0.286c-1.881,0.229-3.943,0.311-5.754-0.024
		c-1.962-0.363-3.408-0.151-4.805,1.096c-0.931,0.83-1.816,0.341-2.853,0.299c-2.199-0.089-4.17-1.022-6.33-1.262
		c-4.202-0.465-8.5,0.544-12.568-0.775c-2.312-0.751-3.824-0.184-5.07,1.789c-1.188,1.88-2.2,1.964-3.631,0.188
		c-1.403-1.742-2.941-2.521-5.311-2.442c-4.045,0.133-8.13,0.569-12.114,0.394c-5.406-0.239-10.755,0.83-16.169,0.116
		c-3.413-0.449-6.926-0.161-10.393-0.158c-1.014,0-1.578,0.842-2.251,1.452c-0.712,0.645-1.666,1.321-2.393,0.468
		c-0.901-1.059,0.657-0.936,1.013-1.424c0.742-1.019,0.02-1.443-0.777-1.495c-1.572-0.103-3.209-0.259-4.723,0.063
		c-1.597,0.34-3.076,0.012-4.604,0.008c-6.098-0.017-11.99-2.136-18.053-1.794c-5.011,0.281-9.811-1.397-14.793-1.069
		c-1.085,0.072-2.14-0.033-3.136,0.521c-0.753,0.418-1.577,0.627-2.394,0.21c-0.959-0.489-2.171-0.944-2.332-2.081
		c-0.178-1.246,1.297-0.527,1.862-1.12c1.39-1.458,3.458-1.557,5.181-2.362c0.224-0.105,0.587-0.304,0.69-0.22
		c2.542,2.07,4.456-0.737,6.708-0.842c0.802-0.037,1.625-0.546,2.385,0.138c0.363,0.326,0.727,0.82,1.242,0.281
		c0.429-0.447,0.212-0.927-0.127-1.34c-0.662-0.808-1.389-1.761-0.275-2.565c1.018-0.737,1.876-0.086,2.381,0.964
		c0.332,0.688,0.779,0.498,1.194,0.124c0.652-0.589,0.239-1.056-0.27-1.406c-2.018-1.394-4.245-1.808-6.599-1.148
		c-0.881,0.247-1.79,0.912-2.47-0.072c-0.667-0.965,0.22-1.701,0.763-2.408c0.807-1.048,1.656-2.062,2.777-3.451
		c-3.414,1.053-4.466-0.965-5.408-3.319c-0.664-1.658-0.521-2.601,1.498-2.586c0.539,0.004,1.297,0.396,1.443-0.461
		c0.117-0.683-0.582-0.933-1.094-1.192c-0.848-0.433-1.809-0.61-2.676-0.343c-1.766,0.543-3.029-0.197-4.32-1.232
		c-1.131-0.906-2.446-1.504-1.028-3.323c0.777-0.997,2.331-1.706,3.532-1.943c1.447-0.287,3.021,1.434,3.965,0.104
		c0.832-1.174-1.213-1.946-1.479-3.184c-0.206-0.961-0.742-1.844-1.029-2.793c-0.38-1.26-1.566-2.715,0.406-3.655
		c1.721-0.821,3.504-1.792,5.106,0.364c0.638,0.857,1.454,1.625,2.315,2.266c0.913,0.682,2.191,0.534,2.672-0.324
		c0.597-1.065-0.75-1.18-1.408-1.562c-1.442-0.84-3.461-0.978-3.768-3.205c-0.041-0.301-0.636-0.806-0.881-0.756
		c-4.359,0.881-3.262-4.245-5.865-5.336c-0.504-0.211-0.145-1.17,0.357-1.492c2.332-1.5,0.658-2.619-0.521-3.222
		c-2.211-1.125-1.81-3.396-2.599-5.105c-0.434-0.939,0.588-1.604,1.578-1.828c1.146-0.261,1.757-0.867,1.518-2.13
		c-0.134-0.714,0.159-1.239,0.751-1.713c2.061-1.653,3.979-3.312,2.431-6.456c-0.559-1.136,1.282-1.554,1.597-2.57
		c-2.601-1.125-3.271-3.156-1.992-5.732c0.315-0.637,0.678-1.169,1.458-1.166c0.903,0.003,1.395,0.58,1.511,1.384
		c0.235,1.62,1.182,2.709,2.449,3.606c0.346,0.244,0.711,0.565,1.078,0.141c0.342-0.396,0.102-0.828-0.248-1.064
		c-1.104-0.746-1.039-1.604-0.707-2.811c0.477-1.73-1.675-6.044-3.456-6.77c-1.425-0.58-1.597-1.308-1.032-2.453
		c1.101-2.234-0.322-3.521-1.773-4.732c-0.539-0.449-1.394-1.003-0.76-1.48c2.299-1.733,1.075-4.064,1.312-6.14
		c0.08-0.704-0.403-1.584,0.461-2.044c0.935-0.497,1.315,0.32,1.757,0.916c0.211,0.285,0.505,0.498,0.84,0.268
		c0.428-0.293,0.398-0.805,0.104-1.098c-3.054-3.052,0.237-5.146,1.269-7.443c0.527-1.174,2.041-2.086,2.812,0.213
		c0.171,0.508,0.443,0.982,1.022,0.925c1.702-0.177,2.599,0.774,3.3,2.136c0.254,0.49,0.603,1.141,1.338,0.753
		c0.623-0.327,1.096-0.962,0.828-1.647c-0.387-0.988-0.941-2.652-1.521-2.695c-2.217-0.162-2.947-2.803-5.15-2.744
		c-0.521,0.014-1.27-0.531-1.102-0.789c1.844-2.826-3.219-4.027-1.534-6.746c-2.137-2.353-0.555-5.289-1.233-7.871
		c-0.019-0.072,0.074-0.209,0.045-0.236c-4.188-3.82,2.952-3.438,2.273-6.022c-0.073-0.278,0.747-0.608,1.274-0.396
		c0.669,0.271,0.704,0.845,0.608,1.468c-0.15,0.979-0.28,1.965-0.417,2.946c-0.046,0.33-0.245,0.798-0.101,0.968
		c1.184,1.385,3.463,1.909,3.324,4.319c0.605-0.494,2.074,0.387,1.924-1.387c-0.184-2.164,1.224-3.333,3.21-2.777
		c1.098,0.307,1.61,0.297,1.305-1.078c-0.138-0.613,0.06-1.305,0.11-1.961c0.048-0.604-0.15-1.071-0.821-0.791
		c-2.106,0.881-2.304-0.274-2.134-1.903c0.062-0.579-0.237-0.931-0.775-1.117c-0.982-0.342-1.381-0.886-0.675-1.868
		c0.172-0.24,0.353-0.734,0.235-0.884c-2.104-2.687,0.644-3.999,1.719-5.649c0.546-0.84,0.971-1.439,0.621-2.604
		c-1.086,0.479-1.28,2.438-3.178,1.345c-1.602-0.925-2.932-1.546-2.811-3.66c0.049-0.855,0.036-1.574,1.139-1.414
		c1.809,0.262,1.931-0.691,1.676-2.094c-0.082-0.449,0.002-1.265,0.262-1.39c2.291-1.103,3.283-3.404,4.904-5.113
		c0.524-0.553,1.119-0.694,1.801-0.329c0.643,0.342,0.695,0.855,0.432,1.481c-0.223,0.526-0.58,1.327,0.369,1.293
		c1.326-0.05,2.475-0.356,2.664,1.594c0.065,0.677,0.81,0.154,1.162-0.149c0.408-0.353,1.105-0.664,0.496-1.381
		c-0.539-0.634-1.125-1.229-1.668-1.858c-0.541-0.628-1.251-1.279-0.694-2.187c0.497-0.81,1.334-0.42,2.059-0.337
		c0.316,0.037,0.657,0.132,1.101-0.55c-2.119-0.923-4.174-1.879-6.279-2.703c-0.85-0.333-1.865-0.752-1.365-1.642
		c0.883-1.568,0.428-2.535-0.697-3.644c-0.841-0.83-0.533-1.799,0.101-2.723c1.164-1.693,2.245-3.409-0.032-5.137
		c-0.453-0.346-0.662-0.992-0.347-1.598c0.351-0.671,0.945-0.545,1.528-0.377c0.612,0.174,1.291,0.688,1.799-0.076
		c0.401-0.605,0.268-1.34-0.145-1.89c-0.891-1.185-0.93-2.056,0.604-2.708c0.593-0.253,0.971-1.064,0.312-1.379
		c-2.475-1.182-0.441-3.518-1.414-5.131c-0.374-0.621,0.742-1.081,1.568-1.083c0.639-0.001,1.162,0.733,1.997,0.224
		c-1.239-1.525-3.362-3.23,0.489-4.103c0.744-0.168,0.501-0.94,0.524-1.501c0.049-1.17,0.614-2.015,1.821-1.889
		c1.249,0.13,1.059,1.292,1.113,2.18c0.076,1.271-0.129,2.455-1.32,3.195c0.678,0.729,1.357,0.666,1.998,0.52
		c1.299-0.298,2.189-0.018,2.211,1.482c0.011,0.804,0.262,1.317,1.112,1.312c0.692-0.004,1.028-0.584,1.231-1.102
		c0.465-1.176-0.647-0.566-1.016-0.795c-0.385-0.242-0.807-0.619-0.626-0.963c1.377-2.619-0.885-4.117-1.798-6.016
		c-0.42-0.875-1.357-1.738-0.192-2.613c1.104-0.829,2.265-0.631,3.04,0.527c1.238,1.847,1.974,1.855,2.46-0.446
		c0.106-0.504,0.673-0.911,1.028-1.362c0.803-1.02,1.528-1.872-0.731-1.799c-1.222,0.039-2.167-2.382-1.608-3.833
		c1.051-2.73,1.91-5.355,0.602-8.373c-0.537-1.24,0.752-3.088-1.421-4.016c-0.597-0.255,0.274-1.082,0.771-1.518
		c2.373-2.084,2.373-2.094,0.045-4.398c-0.891-0.882-1.755-1.813-0.277-2.829c0.812-0.56,1.773-0.606,2.311,0.514
		c0.301,0.625,0.474,1.39,1.358,0.576c0.481-0.443,0.95-1.097,1.698-0.613c0.748,0.483,0.613,1.285,0.504,2.042
		c-0.078,0.535-0.533,1.294,0.254,1.505c0.881,0.235,1.02-0.669,1.203-1.272c0.486-1.597,1.02-3.194,0.012-4.821
		c-0.426-0.687-0.476-1.471,0.23-2.033c0.686-0.544,1.459-0.434,2.041,0.16c0.782,0.795,1.475,0.454,2.238,0.028
		c0.75-0.418,0.6-0.994,0.18-1.445c-0.635-0.68-0.136-2.436-1.938-2.026c-1.985,0.451-2.343-0.665-1.605-2.092
		c0.881-1.707,1.248-4.064,0.874-5.225c-0.809-2.516-2.064-4.654-0.373-7.234c0.182-0.278-0.535-0.505-0.889-0.709
		c-3.191-1.842-3.921-5.729-1.529-8.89c-1.307-0.235-3.613,0.062-1.631-2.298c0.123-0.147,0.113-0.503,0.033-0.711
		c-0.411-1.068-0.849-2.162,0.742-2.595c1.535-0.418,1.041,1.362,1.728,1.899c0.704-0.604,0.31-1.341,0.521-1.94
		c0.303-0.855,1.062-1.493,1.622-0.748c0.88,1.173,3.143,0.409,3.24,2.59c0.033,0.715,0.906,0.509,1.436,0.168
		c0.489-0.315,0.929-0.733,1.57-0.314c0.488,0.319,0.821,1.682,1.596,0.375c0.4-0.675,0.734-1.453-0.232-2.195
		c-0.689-0.53-0.377-6.726,0.307-7.18c0.514-0.342,1.219-0.396,1.842-0.578c-0.611-2.104-0.334-4.114,0.314-6.231
		c0.497-1.621,0.376-3.828,0.977-5.026c0.875-1.748-0.609-3.292,0.531-4.792c1.035-1.363,1.945-2.873,2.436-4.577
		c0.063-0.219,0.553-0.46,0.835-0.449c2.999,0.121,3.986-2.069,5.068-4.246c0.485-0.976,0.564-1.512-0.707-1.712
		c-1.642-0.258-2.412-1.616-2.694-2.944c-0.299-1.411-0.459-2.76-1.563-3.811c-0.32-0.305-0.371-0.771-0.079-1.139
		c0.359-0.455,0.895-0.507,1.35-0.224c1.181,0.736,2.619,1.13,3.307,2.542c0.26,0.533,0.353,1.49,1.301,1.147
		c0.642-0.232,0.512-0.986,0.541-1.547c0.031-0.607,0.395-1.522-0.67-1.537c-1.712-0.023-2.09-0.739-1.395-2.201
		c0.205-0.432,0.172-0.804-0.201-1.111c-1.586-1.305-1.533-1.917,0.531-2.878c1.145-0.533,0.338-2.444-0.346-3.577
		c-0.463-0.764-1.352-1.278-1.779-2.054c-0.756-1.373-0.551-2.623,1.131-3.178c1.871-0.617,3.563-1.35,3.971-3.594
		c0.208-1.148,1.569-1.071,2.037-1.615c-0.748-0.861-1.517-1.61-2.117-2.476c-0.645-0.928-0.613-1.938,0.369-2.651
		c1.094-0.795,1.574,0.062,2.15,0.852c0.601,0.824,1.041,1.883,2.438,2.105c-2.197-1.919,0.61-4.218-0.734-6.325
		c-0.451-0.707,0.743-1.472,1.723-1.715c0.966-0.24,1.941-0.5,2.85-0.896c1.065-0.466,0.635-1.374,0.452-2.174
		c-0.19-0.839-0.612-1.028-1.456-0.734c-1.516,0.528-1.857-0.085-1.259-1.471c0.163-0.377,0.218-0.801,0.315-1.206
		c0.318-1.334,3.432-4.292-1.52-2.577c-0.703,0.243-0.972-0.494-0.961-1.131c0.016-0.996,0.676-1.75,1.533-1.613
		c1.424,0.229,2.473,0.482,2.129-1.579c-0.09-0.533,0.495-0.748,1.027-0.881c3.162-0.792,4.014-2.146,3.388-5.348
		c-0.175-0.89-0.052-1.676,0.718-2.229c0.774-0.558,1.592-0.416,2.346,0.048c0.873,0.537,0.888,1.313,0.527,2.183
		c-0.223,0.535-0.524,1.388,0.437,1.248c2.428-0.353,4.187,0.64,5.728,2.333c0.454,0.499,1.178,0.633,1.537,0.116
		c0.658-0.948,1.281-2.19,0.419-3.201c-1.226-1.435-2.439-2.623-0.466-4.369c0.441-0.391-0.049-0.904-0.463-1.222
		c-0.462-0.354-0.969-0.659-1.381-1.063c-0.713-0.699-1.586-1.479-1.139-2.566c0.453-1.104,1.448-0.315,2.211-0.302
		c0.526,0.009,0.996-0.064,1.218-0.589c0.028-0.745-0.431-0.552-0.829-0.509c-0.742,0.081-1.079-0.359-1.145-1.015
		c-0.071-0.73,0.381-1.115,1.047-1.107c1.242,0.014,1.545-0.688,1.566-1.753c0.021-0.984,0.252-1.992,1.55-1.67
		c1.083,0.268,2.026,0.931,1.897,2.27c-0.061,0.631-0.346,1.24-0.559,1.958c2.443-1.195,2.237-1.176,1.607-3.558
		c-0.594-2.238-0.027-4.608,0.311-6.874c0.184-1.239,1.248-0.941,2.186-0.455c1.285,0.667,2.018,2.294,3.85,2.209
		c0.201-1-0.516-1.914-0.988-2.11c-1.58-0.657-1.726-1.758-1.876-3.237c-0.113-1.11-1.116-2.442-0.126-3.241
		c1.078-0.871,2.628-1.206,4.019-1.62c0.656-0.194,1.239,0.337,1.757,0.788c0.525,0.459,0.857,1.231,2.18,1.25
		c-1.527-1.749-0.152-4.375-2.754-5.521c-0.865-0.382-0.721-1.688,0-2.427c1.059-1.085,2.279-2.909,2.242-3.669
		c-0.143-2.986,0.895-4.96,3.295-6.459c0.068-0.043,0.03-0.321-0.017-0.472c-0.241-0.778-1.476-1.534-0.286-2.351
		c0.886-0.608,1.732,0.071,2.499,0.597c0.96,0.66,1.94,1.741,1.294,2.669c-1.416,2.031,0.094,3.125,1.07,4.268
		c1.096,1.283,1.522,2.322,0.728,4.004c-0.536,1.134-1.536,2.941-0.095,3.834c1.27,0.787,2.092-1.093,2.838-1.881
		c0.844-0.893,3.014-1.712,1.266-3.735c-0.457-0.527,0.154-1.616,0.756-1.516c1.25,0.208,2.601,0.62,3.58,1.375
		c0.726,0.557,0.271,1.699-0.281,2.509c-0.485,0.714-1.606,1.27-1.004,2.321c0.619,1.079,1.906,0.85,2.938,1.02
		c0.461,0.075,0.979-0.25,1.459-0.216c0.74,0.053,1.166,0.623,1.396,1.272c0.217,0.611-0.157,0.829-0.721,1.02
		c-1.262,0.427-2.871,1.679-2.635,2.428c0.451,1.434,1.498,2.955,3.021,3.729c2.648,1.349,3.605,3.971,2.494,6.889
		c-0.276,0.729-0.865,2.078,0.969,1.557c1.371-0.39,1.388,0.211,1.582,1.344c0.377,2.172,0.797,4.155-0.77,6.147
		c-0.596,0.76,0.207,2.072,0.946,2.575c0.737,0.5,1.192-0.588,1.688-1.103c0.402-0.419,0.77-0.881,1.209-1.256
		c0.701-0.596,1.528-0.771,2.289-0.184c0.785,0.606,0.338,1.354,0.025,2.033c-0.723,1.564-1.896,2.718-1.639,4.944
		c0.151,1.323-2.133,3.083-2.885,4.957c-0.576,1.431-1.832,3.334-0.44,4.165c1.183,0.705,2.376-1.313,3.259-2.495
		c0.295-0.396,0.452-0.892,0.717-1.314c0.561-0.897,1.342-1.317,2.307-0.688c0.816,0.532,1.457,1.381,0.771,2.308
		c-0.747,1.013-0.35,1.5,0.336,2.299c1.42,1.657,0.996,3.406-1.068,4.431c-1.168,0.581-1.849,1.113-1.032,2.436
		c0.438,0.714,0.245,1.499-0.009,2.182c-0.996,2.672-0.164,5.75-2.101,8.276C248.197,105.378,249.471,106.22,250.777,106.979z
		 M344.976,434.272c-1.444-1.564-2.904-3.117-4.328-4.704c-0.57-0.634-0.919-1.969-2.021-1.209
		c-1.203,0.826-2.181,2.158-2.141,3.664c0.03,1.173,1.287,1.402,2.321,1.363C340.878,433.312,342.9,433.389,344.976,434.272z
		 M145.631,254.395c0.912,0.746,2.436,1.117,2.257,2.437c-0.342,2.532,2.528,2.866,3.025,4.794c0.116,0.449,0.812,0.303,0.902-0.184
		c0.343-1.854,0.327-4.017-0.935-5.199C149.65,255.09,148.275,252.779,145.631,254.395z"/>
	<path fill="#87BB65" d="M344.976,434.272c-2.074-0.884-4.098-0.96-6.169-0.886c-1.034,0.039-2.291-0.19-2.321-1.363
		c-0.04-1.506,0.938-2.838,2.141-3.664c1.104-0.76,1.451,0.575,2.021,1.21C342.07,431.154,343.53,432.707,344.976,434.272z"/>
	<path fill="#87BB65" d="M145.631,254.395c2.645-1.615,4.02,0.695,5.25,1.848c1.262,1.184,1.277,3.347,0.935,5.199
		c-0.091,0.486-0.786,0.635-0.902,0.185c-0.497-1.929-3.367-2.263-3.025-4.794C148.066,255.512,146.543,255.141,145.631,254.395z"/>
</g>
</svg>
