<?xml version="1.0" encoding="utf-8"?>
<!-- Generator: Adobe Illustrator 16.0.0, SVG Export Plug-In . SVG Version: 6.00 Build 0)  -->
<!DOCTYPE svg PUBLIC "-//W3C//DTD SVG 1.1//EN" "http://www.w3.org/Graphics/SVG/1.1/DTD/svg11.dtd">
<svg version="1.1" id="Layer_1" xmlns="http://www.w3.org/2000/svg" xmlns:xlink="http://www.w3.org/1999/xlink" x="0px" y="0px"
	 width="500px" height="500px" viewBox="0 0 500 500" enable-background="new 0 0 500 500" xml:space="preserve">
<circle fill="#FFFFFF" cx="249.316" cy="249.316" r="249.316"/>
<g>
	<path fill="none" d="M174.717,94.14c1.34-2.1,2.742-2.08,4.424-0.3c0.585,0.62,1.576,1.567,2.492,0.569
		c0.908-0.991,0.104-1.979-0.596-2.765c-2.043-2.293-5.434-2.295-7.395-0.049c-1.311,1.502-1.058,2.08,1.102,2.521
		c-0.191,0.357-0.47,0.694-0.561,1.076c-0.38,1.604-2.666,3.302,0.477,4.771c0.719,0.336,0.562,2.333,0.117,3.361
		c-0.315,0.731-1.335,1.399-2.461,1.085c-2.414-0.672-2.434-0.666-1.785,1.963c0.146,0.59,0.05,1.112-0.08,1.666
		c-0.143,0.605-0.033,1.351,0.591,1.397c1.96,0.144,1.872,1.478,1.997,2.867c0.07,0.78,0.447,1.682,1.475,1.631
		c0.849-0.042,1.092-0.82,1.358-1.525c0.46-1.213-0.025-2.348-0.544-4.02c2.066,2.137,3.053,3.835,3.214,6.487
		c0.12,1.964-1.386,4.417,1.219,6.166c-3.568-0.13-3.568-0.13-2.066,3.184c-0.27-0.059-0.533-0.038-0.676-0.16
		c-0.726-0.619-1.344-2.279-2.37-1.238c-1.127,1.142,0.13,2.357,1.042,3.273c0.522,0.524,1.233,0.911,1.969,0.827
		c1.747-0.2,3.002,0.752,4.751,1.639c-2.389,0.566-4.088,0.675-2.891,3.905c0.803,2.164,1.319,2.1,2.875,1.545
		c0.995-0.354,2.185-0.941,2.924,0.044c0.698,0.933-0.141,2.15-0.221,3.247c-0.023,0.321-0.689,0.606-1.074,0.888
		c-0.643,0.468-0.906,1.13-0.191,1.578c1.357,0.849,2.178,1.626,0.599,3.018c-0.153,0.136-0.154,0.746,0.001,0.889
		c2.608,2.407,0.268,3.354-1.314,4.5c-1.104,0.801-1.004,1.516,0.016,2.3c0.416,0.32,1.084,0.433,1.121,1.147
		c-3.399-0.372-3.399-0.372-2.674-3.686c0.398-1.825-0.332-2.896-1.695-2.455c-1.559,0.503-2.518,2.286-4.501,2.007
		c-0.448-0.063-0.592,0.848-0.636,1.434c-0.161,2.123-3.641,4.337-5.393,3.209c-1.236-0.796-3.02-2.028-2.193-3.797
		c0.828-1.773,0.91-2.654-0.275-4.543c-1.453-2.316-1.82-1.631-2.812-0.106c-0.692,1.064-1.678,1.187-2.435,0.382
		c-0.705-0.75-1.097-1.864,0.051-2.743c0.449-0.343,0.992-0.576,1.397-0.96c0.71-0.673,1.531-1.504,0.778-2.491
		c-0.632-0.827-1.688-0.592-2.419-0.005c-1.338,1.073-1.739,0.249-2.233-0.856c-1.176-2.631-1.695-2.686-3.939-1.067
		c-1.068,0.771-0.36,1.798-0.811,2.849c-1.635-1.203-2.729,0.801-4.318,0.864c0.187-1.295,1.305-1.609,1.812-2.412
		c0.348-0.55,0.842-1.094,0.42-1.763c-0.424-0.67-1.145-0.657-1.723-0.286c-1.098,0.705-2.084,0.404-3.221,0.055
		c-1.725-0.53-3.121,0.557-2.812,2.012c0.11,0.521,0.59,1.005-0.105,1.646c-0.958-1.195-2.084-2.169-3.589-0.859
		c-0.739,0.644-0.879,5.729-0.121,6.483c0.922,0.918,1.642,1.411,0.3,2.807c-0.92,0.958,0.457,1.606,1.467,1.743
		c1.12,0.152,2.323,0.065,3.216,0.873c0.49,0.443,1.122,0.922-0.187,1.518c-3.335,1.518-3.248,2.567-1.398,5.757
		c0.869,1.498,3.4,2.137,2.693,4.599c-0.889,0.02-1.633-1.608-2.489-0.284c-0.606,0.938-0.218,1.902,0.528,2.642
		c0.715,0.707,1.071,1.606,1.535,2.456c0.351,0.642,0.756,1.35,1.662,1.1c0.812-0.225,0.981-0.98,1.187-1.697
		c0.259-0.904-0.616-1.854,0.579-3.38c-0.209,2.918,2.729,5.07-0.289,7.479c-1.035,0.827,0.027,1.719,0.459,2.544
		c-1.574,0.446-2.463-0.543-3.42-1.418c-0.638-0.584-1.457-1.092-1.999-0.042c-0.458,0.888-1.964,1.63-0.82,2.925
		c0.641,0.727,1.619,1.562,2.483,0.646c1.268-1.344,1.775-0.106,2.543,0.445c1.111,0.798,0.247,1.319-0.242,1.934
		c-0.615,0.773-1.109,1.635-0.898,2.672c0.262,1.279,1.65,0.015,2.156,0.866c-2.352,1.52-2.717,1.669-3.27,0.811
		c-1.115-1.731-3.811-0.368-4.688-2.519c-0.088-0.216-0.688,0.134-0.963,0.479c-1.422,1.784-1.43,1.778-3.572,0.861
		c0.506-0.609,1.057-1.2,1.518-1.853c0.365-0.517,0.809-1.121,0.244-1.753c-0.494-0.552-1.174-0.493-1.812-0.29
		c-1.022,0.326-1.887,1.746-3.123,0.151c-0.705-0.908-2.482-0.752-2.508-2.504c-0.008-0.546-0.651-1.021-1.217-1.051
		c-1.844-0.097-3.329-1-4.922-1.792c-1.355-0.674-3.204-0.615-3.857,0.905c-0.767,1.782,1.557,1.255,2.256,2.144
		c-1.016,0.932-1.748,2.306-3.584,1.441c-0.641-0.301-1.254,0.285-1.323,1.046c-0.135,1.477-0.817,2.825-0.332,4.466
		c0.537,1.818-1.701,3.906-3.21,3.329c-0.716-0.274-1.564-1-2.145-0.024c-0.531,0.892,0.339,1.528,0.933,2.008
		c1.793,1.45,1.858,2.699-0.228,3.898c-0.574,0.33-1.088,0.804-0.818,1.575c0.271,0.778,0.935,1.159,1.706,1.134
		c1.603-0.052,3.073-0.428,3.649-2.206c0.155-0.48-0.236-1.282,0.639-1.32c0.705-0.03,1.375,0.522,1.472,1.089
		c0.224,1.314,0.931,2.875-1.146,3.574c-0.729,0.246-1.376,0.829-1.97,1.359c-1.503,1.343-1.357,2.019,0.549,2.547
		c0.629,0.174,1.414,0.134,1.511,0.942c0.327,2.74,2.938,3.594,4.372,5.418c-0.349,0.37-0.747,0.192-1.136,0.118
		c-0.88-0.17-1.755-1.52-2.587-0.464c-0.885,1.12,0.057,2.314,0.639,3.341c0.473,0.833,1.051,1.722,2.244,1.534
		c0.922-0.145,1.301,0.332,1.609,1.095c0.395,0.973,0.85,1.925,1.352,2.848c0.616,1.136,1.639,1.405,2.165,0.168
		c0.567-1.334,1.758-1.825,2.636-2.716c0.979-0.994,1.846-0.655,2.299,0.529c0.334,0.872,0.465,1.74,0.053,2.777
		c-0.527,1.326,0.148,2.205,1.715,1.984c0.539-0.076,1.606-0.19,1.482,0.027c-0.975,1.713,1.344,3.063,0.543,4.433
		c-1.074,1.834-0.449,3.124,1.34,4.851c-2.641-0.643-5.402-3.504-5.635,1.431c-1.754-1.843-5.297-0.497-7.013,2.424
		c-1.766-1.306-3.39-3.375-5.938-1.826c-2.336,1.421-3.029,3.696-2.279,6.873c-0.982,0.037-1.918,0.593-3.214,0.139
		c2.423-2.142,2.36-5.527,4.803-7.417c0.565-0.437,1.38-1.233,0.538-2.034c-0.68-0.646-1.539-0.147-2.251,0.24
		c-0.349,0.189-0.808,0.439-0.915,0.762c-0.539,1.625-1.836,2.015-3.295,2.41c-0.748,0.203-1.996,0.829-1.302,1.873
		c0.935,1.404,0.64,2.795-0.363,3.43c-1.312,0.83-1.239-1.225-2.08-1.701c-0.653-0.37-1.045-1.508-1.978-0.969
		c-1.008,0.583-0.47,1.582-0.225,2.413c0.283,0.96,0.992,1.614,1.633,2.356c1.238,1.432,2.691,2.887,3.293,4.6
		c0.535,1.522-1.76,1.807-2.507,2.91c-0.763,1.127-1.073,2.438,0.069,3.263c1.346,0.973,1.706-0.507,2.204-1.375
		c0.165-0.287,0.333-0.555,0.893-0.369c0.604,1.261-0.47,3.458,1.979,4.003c1.582,0.354,3.351-0.545,5.125,0.747
		c-4.225,0.029-4.447,0.374-3.314,4.334c0.125,0.436,0.192,1.062-0.026,1.395c-1.153,1.744-0.86,3.515-0.154,5.41
		c-1.093,0.273-2.823-0.227-2.732,1.359c0.097,1.693,2.11,1.378,3.192,2.127c-0.457,1.077-0.969,1.877-2.32,1.027
		c-0.564-0.355-1.343-0.422-1.738,0.25c-0.473,0.804,0.203,1.318,0.717,1.848c1.088,1.12,2.508,0.934,3.863,1.074
		c0.647,0.066,1.656-0.327,1.77,0.768c0.275,2.692,1.521,4.532,4.18,5.37c0.584,0.185,0.818,0.837,0.465,1.421
		c-0.237,0.389-0.607,0.838-1.008,0.959c-0.725,0.217-0.574-0.522-0.771-0.918c-0.511-1.029-1.457-1.301-2.53-1.57
		c-2.531-0.639-5.04-1.4-7.497-2.284c-0.735-0.265-1.321-1.062-2.141-0.365c-0.755,0.642-0.751,1.526-0.63,2.461
		c0.123,0.937,1.91,1.942,0.49,2.632c-0.995,0.484-0.79-1.416-1.428-2.054c-0.443-0.442-0.742-1.192-1.541-0.786
		c-0.598,0.305-0.58,0.955-0.461,1.514c0.348,1.621,1.137,2.859,2.956,3.08c0.996,0.12,2.019,0.241,2.122,1.529
		c0.109,1.348-1.017,1.186-1.832,1.415c-1.332,0.376-2.363,1.209-2.711,2.537c-0.373,1.426,1.157,1.256,1.812,1.835
		c0.419,0.369,1.403,0.779,0.478,1.455c-1.207,0.881-0.643,1.766-0.084,2.498c1.287,1.688,0.875,4.062,2.483,5.646
		c0.571,0.562,0.07,1.223-0.815,1.202c-1.701-0.039-1.575,0.992-1.26,2.125c0.309,1.103,0.762,2.14,1.551,2.994
		c0.525,0.569,1.145,1.108,1.801,0.246c0.98-1.29,1.371-0.269,1.603,0.446c0.37,1.139,0.743,2.349,0.726,3.521
		c-0.022,1.517-0.439,2.853,2.004,2.24c1.042-0.261,1.164,0.925,0.947,1.743c-0.27,1.014-0.653,2-1.061,2.968
		c-0.225,0.53-0.673,1.337-0.215,1.545c1.896,0.863,3.285,1.826,2.107,4.179c2.326,1.836,2.639,5.438,5.848,6.555
		c1.202,0.418,2.405,0.969,3.385-0.014c0.945-0.947-0.096-1.734-0.67-2.486c-0.262-0.34-0.361-0.75-0.143-1.135
		c0.197-0.351,0.564-0.328,0.832-0.103c1.591,1.345,3.576,2.299,4.691,4.418c-1.025-0.045-1.937-1.412-2.307-0.528
		c-0.646,1.539-0.143,3.229,1.252,4.348c0.76,0.609,1.486,2.474,2.746,0.438c0.322-0.521,0.825-0.806,1.448-0.544
		c0.16,0.067,0.362,0.474,0.319,0.522c-1.48,1.676,0.43,1.806,1.136,2.326c1.072,0.793,2.307,1.797,2.134,2.979
		c-0.338,2.319,1.268,2.679,2.564,2.608c2.305-0.125,3.635,0.586,4.197,3.514c-2.759-2.706-6.195-1.07-8.988-2.582
		c-0.765-0.414-2.23-0.141-2.352,0.664c-0.34,2.256-2.188,3.787-2.549,5.932c-0.22,1.301-0.003,2.812,1.424,3.29
		c1.785,0.601,1.023-1.495,1.768-2.327c0.298,0.569,0.407,0.996,0.677,1.258c1.333,1.293,1.917,2.594,0.402,4.176
		c-0.356,0.373-0.313,1.01,0.218,1.252c1.494,0.679,0.684,1.395,0.195,2.261c-0.689,1.224-1.274,2.546,0.305,3.622
		c0.48,0.328,1.453,0.102,1.344,1.085c-0.102,0.896-0.898,1.062-1.59,1.28c-0.975,0.31-1.816,0.932-1.068,1.902
		c0.897,1.162,0.744,1.965-0.145,2.928c-0.326,0.354-0.5,0.904-0.141,1.34c0.463,0.562,1.057,0.303,1.539,0.008
		c1.575-0.96,3.1-1.984,3.78-3.979c0.259,0.319,0.409,0.485,0.536,0.666c1.288,1.836,4.388,3.453,0.123,5.668
		c-1.418,0.735-0.726,2.812-0.084,4.268c0.299,0.679,0.766,1.479,1.555,1.318c1.341-0.272,1.25-1.569,1.666-2.611
		c0.697-1.747,3.366,0.796,4.156-1.521c0.015-0.041,0.816,0.037,1.078,0.262c0.418,0.361,0.145,0.914,0.061,1.379
		c-0.256,1.436,0.331,2.238,1.689,2.779c1.404,0.561,3.373,1.057,3.92,2.162c1.551,3.131,4.828,3.649,7.142,5.551
		c1.239,1.02,2.657,1.179,4.222,1.42c3.404,0.522,6.873,0.774,10.119,2.33c3.02,1.444,6.262,1.807,9.688,0.873
		c4.039-1.102,8.158-2.254,12.427-1.558c1.735,0.283,3.68-0.7,4.94-0.17c2.668,1.126,5.234,0.531,7.846,0.679
		c2.688,0.149,3.967,1.393,4.506,4.149c0.258,1.319,0.798,2.133,2.317,1.565c1.802-0.67,3.877,0.555,5.62-0.856
		c0.428-0.345,0.775,0.377,1.049,0.761c0.611,0.855,1.178,1.914,2.407,1.758c1.31-0.168,0.905-1.541,1.335-2.339
		c0.102-0.187,0.135-0.409,0.313-0.981c0.372,1.428,0.534,2.218,0.792,2.976c0.151,0.446,0.489,1.046,1.04,0.623
		c1.522-1.167,1.329,0.146,1.208,0.877c-0.322,1.938-0.398,3.891-0.187,5.814c0.656,5.982,0.194,11.979,0.345,17.968
		c0.047,1.903-0.414,2.646-2.697,2.38c-6.328-0.736-12.697-1.29-19.054,0.037c-1.585,0.331-3.237-0.136-4.837-0.094
		c-4.092,0.107-8.113-0.787-12.239-0.475c-4.104,0.312-8.05,1.241-12.065,1.934c-5.461,0.939-11.096,0.786-16.639,1.55
		c-2.818,0.388-5.766,0.405-8.693,0.277c-2.473-0.106-5.278-0.392-7.521,0.964c-1.402,0.848-2.681,1.422-4.264,1.286
		c-4.436-0.38-7.533,2.377-10.847,4.614c-0.388,0.263-0.733,0.698-0.146,1.357c2.406-1.664,4.297,0.301,6.457,0.913
		c-1.822,0.634-3.584,1.156-5.477,1.062c-1.851-0.094-3.707-0.1-5.561-0.098c-0.658,0.001-1.348,0.151-1.537,0.924
		c-0.212,0.863,0.325,1.379,1.025,1.711c0.814,0.386,1.68,0.68,2.586,0.413c1.494-0.438,2.873,0.292,4.316,0.371
		c0.693,0.038,1.461,0.495,1.049,1.239c-1.256,2.262,0.404,1.913,1.672,2.086c2.1,0.285,4.227,0.382,6.264-0.113
		c4.028-0.979,7.871,0.222,11.71,0.909c5.145,0.921,10.162,1.578,15.036-0.967c0.536-0.28,1.11-0.265,1.654-0.064
		c1.559,0.571,3.104,0.684,4.764,0.365c1.272-0.243,2.715-0.006,3.734,0.758c2.771,2.072,5.304,1.31,7.822-0.339
		c1.057-0.691,2.117-1.139,3.41-0.964c5.29,0.716,10.58,1.438,15.878,2.104c5.193,0.654,10.365,1.369,15.651,1.046
		c4.556-0.278,9.338-0.925,13.658,0.105c4.677,1.114,9.314,0.509,13.898,1.292c2.328,0.396,4.657-0.572,6.996,0.088
		c0.567,0.16,1.254-0.32,1.104-0.972c-0.601-2.633,1.108-1.509,2.217-1.448c3.288,0.179,6.812,1.421,9.817,0.073
		c4.974-2.229,9.895-0.293,14.791-0.464c2.498-0.089,5.231,0.096,7.81,0.011c2.901-0.097,5.813-1.408,8.381,1.053
		c0.226,0.216,0.776,0.2,1.148,0.134c5.92-1.059,11.875-0.279,17.812-0.397c1.396-0.028,3.685,0.854,3.472-2.166
		c-0.046-0.648,0.922-0.616,1.429-0.5c6.134,1.411,11.933-1.635,17.979-1.319c0.652,0.034,1.102-0.276,1.192-0.949
		c0.102-0.752-0.273-1.266-0.967-1.479c-0.615-0.19-1.281-0.219-1.89-0.428c-0.438-0.152-1.059-0.849-0.577-0.999
		c2.155-0.683,2.377-4.062,5.282-3.641c0.858,0.125,1.937-0.055,1.931-1.296c-0.007-0.996-0.718-1.663-1.663-1.83
		c-1.585-0.278-3.113-0.838-4.778-0.736c-2.368,0.143-4.682-0.137-6.812-1.346c-2.629-1.49-5.485-1.709-8.455-1.625
		c-2.906,0.082-5.854,0.345-8.729-0.229c-6.35-1.267-12.729-0.758-19.104-0.472c-1.807,0.081-3.613,0.085-5.25-0.593
		c-1.85-0.765-3.764-0.816-5.664-1.158c-4.504-0.809-9.02,0.242-13.532-0.303c-1.583-0.189-2.761-1.146-4.335-1.337
		c-3.158-0.384-6.295-0.015-9.441-0.182c-5.15-0.273-4.908-0.184-5.477-5.088c-0.512-4.415-0.578-8.854-1.062-13.271
		c-0.363-3.324-1.062-7.028,1.592-9.961c1.092-1.206,1.959-2.608,3.07-3.743c3.643-3.716,6.705-8.515,13.053-7.763
		c0.692,0.082,1.494-0.08,2.137-0.37c2.454-1.107,5.135-1,7.639-0.962c2.678,0.042,5.689-0.095,7.775,2.546
		c0.586,0.74,2.15,1.543,3.094,0.984c2.492-1.474,4.375-0.604,6.535,0.72c1.244,0.763,2.955,0.688,4.289,1.563
		c3.878,2.545,8.502,0.963,9.834-3.432c0.582-1.921,1.672-3.3,3.372-4.24c4.126-2.285,8.608-1.882,13.025-1.518
		c1.887,0.156,3.771,0.38,5.527-0.238c4.152-1.462,8.67-2.242,11.758-5.89c0.377-0.446,1.11-0.622,1.708-0.845
		c3.005-1.111,5.951-2.22,9.288-2.304c1.531-0.038,3.303-0.405,4.87-1.204c5.202-2.646,9.312-6.357,11.469-11.844
		c1.608-4.097,2.896-8.368-0.911-12.1c-0.798-0.782-0.102-1.644-0.32-2.314c-1.1-0.328-1.735,1.236-2.985,0.266
		c2.018-1.496,2.15-3.371,1.104-5.457c-0.134-0.268-0.22-0.68-0.108-0.926c0.71-1.588-0.711-2.375-1.306-3.42
		c-0.689-1.21-1.626-2.16-2.997-0.555c-0.278,0.326-0.524-0.217-0.668-0.456c-0.563-0.94-1.477-1.088-2.506-1.003
		c5.188-2.494,6.522-4.339,6.323-8.592c-0.089-1.895-1.815-2.318-2.868-3.317c-0.557-0.528-1.465-0.321-1.911,0.392
		c-0.61,0.972-1.69,1.93-0.535,3.222c0.483,0.543,0.24,0.907-0.354,1.03c-0.912,0.189-1.695,0.853-2.787,0.406
		c-1.271-0.52-2.502-0.369-3.418,0.93c-0.855,1.215-0.982,0.631-1.643-0.411c-1.078-1.706-0.745-3.31-0.649-5.091
		c1.883,0.875,2.783-0.319,3.562-1.605c1.38-2.281,2.355-4.902,4.095-6.854c4.78-5.362,5.325-11.973,5.734-18.525
		c0.34-5.457,0.217-10.925,1.628-16.275c0.707-2.681,1.591-5.209,3.312-7.467c3.239-4.242,1.922-9.344-2.846-11.527
		c-0.928-0.426-1.949-0.715-2.266-2.022c0.921-0.022,2.313,0.535,1.33-1.295c-0.322-0.603-0.041-1.588,0.61-2.227
		c1.219-1.194,0.601-1.88-0.459-2.927c-1.52-1.505-5.549-1.966-2.908-5.699c0.155-0.22-0.333-0.852-0.442-1.311
		c-0.334-1.387-0.23-3.064,1.172-3.384c2.852-0.652,1.875-1.739,0.703-3.069c-0.47-0.532-1.207-0.956-0.276-1.751
		c1.636-1.398,0.269-1.746-0.802-2.228c-0.479-0.215-1.467,0.49-1.404-0.339c0.168-2.236-1.489-2.347-2.883-2.884
		c-1.004-0.386-1.35-0.835-0.879-2.143c1.465-4.074-2.754-6.369-3.422-9.833c-0.029-0.158-0.616-0.14-0.597-0.583
		c4.449-3.113-1.506-3.14-1.539-4.932c2.239-0.351,2.518-2.3,3.151-3.827c0.483-1.163-0.062-2.185-1.247-2.754
		c-1.143,1.01-1.217,2.986-3.514,3.448c1.454-1.959,2.366-3.708,2.602-5.743c0.279-2.42,0.402-4.728-2.386-5.936
		c-1.193-0.517-1.091-1.67-1.099-2.734c-0.006-0.712,0.17-1.58-0.684-1.907c-0.874-0.336-1.556,0.238-2.127,0.831
		c-0.332,0.345-0.585,0.773-0.835,1.187c-0.39,0.642-0.852,0.61-1.437,0.27c-1.12-0.652,0.147-0.791,0.232-1.181
		c0.228-1.032,0.751-1.804,1.521-2.59c0.872-0.891,1.478-2.133,1.361-3.529c-0.049-0.591-0.188-1.152-0.812-1.373
		c-0.619-0.219-1.105,0.085-1.488,0.55c-0.562,0.685-1.061,1.431-1.674,2.065c-0.391,0.403-0.941,0.753-1.359-0.06
		c-0.305-0.594-0.738-1.229,0.408-1.383c0.937-0.125,1.226-0.9,1.732-1.531c1.083-1.346,1.987-2.913,4.111-3.017
		c1.133-0.056,2.285-0.755,2.378-2.07c0.103-1.422-0.961-2.246-2.198-2.533c-1.854-0.429-2.849-1.782-4.081-3.025
		c0.806-0.517,1.282-0.069,1.716,0.229c1.711,1.181,3.281,0.572,4.723-0.433c1.06-0.738,1.984-1.708,2.062-3.127
		c0.012-0.222-0.34-0.65-0.553-0.669c-1.443-0.132-2.128,0.962-2.836,1.936c-0.376,0.516-0.67,1.004-1.263,0.289
		c-0.559-0.672-0.146-0.96,0.483-1.21c0.702-0.28,1.037-0.758,0.595-1.522c-0.812-1.408-4.48-1.662-4.865-0.187
		c-0.556,2.137-2.214,3.321-3.33,4.938c-1.635,2.368-2.764,5.493-6.491,5.481c-0.286-0.001-0.627,0.457-0.854,0.766
		c-1.523,2.07-2.283,2.04-3.528-0.257c-0.341-0.628-0.423-1.39-0.693-2.062c-0.908-2.264-3.593-3.41-5.308-1.913
		c-1.694,1.479-3.237,1.232-4.869,0.467c-1.256-0.589-2.573-0.765-3.937-0.933c0.374-0.829,2.22,0.218,1.545-1.147
		c-0.704-1.427-0.904-2.044,0.854-2.479c0.503-0.125,1.139-0.898,1.192-1.428c0.191-1.873,0.963-1.253,1.771-0.513
		c0.919,0.841,1.876,1.195,2.627-0.037c0.701-1.15-0.202-1.932-1.116-2.252c-1.48-0.519-1.089-1.174-0.508-2.136
		c0.985-1.636,1.569-3.436,2.006-5.486c-1.779,0.333-1.285,2.114-2.428,3.223c0.246-1.595,0.553-2.656,0.844-3.744
		c0.474-1.77,1.729-3.086,2.57-4.57c2.276-4.021,1.776-8.635,3.399-12.745c0.539-1.367,0.475-3.021-1.035-3.908
		c-1.438-0.845-2.946-0.707-4.285,0.431c-0.727,0.618-1.455,1.286-2.658,1.037c0.305-1.102,0.906-2.185,0.827-3.214
		c-0.2-2.559-1.874,0.412-2.641-0.626c0.338-0.763,1.021-1.576,0.983-2.356c-0.1-2.186,1.438-3.516,2.832-4.173
		c2.641-1.247,1.76-2.014,0.208-3.311c-2.831-2.367-2.84-3.561-0.267-6.205c0.227-0.231,0.501-0.413,0.727-0.645
		c0.562-0.581,1.283-1.184,0.932-2.08c-0.397-1.016-1.273-0.779-2.07-0.49c-0.403,0.146-0.758,0.181-1.126-0.124
		c-1.46-1.21-2.387-0.208-3.195,0.868c-0.729,0.967-1.263,2.084-2.019,3.024c-0.518,0.644-2.012,0.973-1.972,0.322
		c0.151-2.488-0.759-2.742-2.778-2.007c-0.442,0.162-0.647-0.62-0.896-1.021c-0.48-0.773-0.701-2.156-2.004-1.471
		c-1.136,0.597-0.515,1.662-0.152,2.576c0.598,1.505,0.598,2.624-1.494,2.916c-1.796,0.25-2.45,1.783-1.646,3.435
		c0.463,0.955,1.178,1.731,2.057,2.357c1.19,0.848,1.867,2.075,2.454,3.448c-1.876-1.585-4.079-2.31-6.298-3.023
		c-1.633-0.525-2.611,0.441-3.566,1.455c-0.702,0.747-1.346,1.956-0.583,2.604c2.167,1.845-0.119,2.567-0.609,4.15
		c-0.465-1.311,0.185-2.385-0.51-3.176c-1.062-1.206-0.668-2.08,0.35-3.097c1.103-1.103,1.232-2.344-0.432-3.105
		c-0.888-0.405-1.009-0.952-1.109-1.866c-0.422-3.809-0.059-7.756-1.814-11.352c-0.244-0.499-0.062-0.88,0.215-1.334
		c1.938-3.181,1.469-6.588-1.246-9.086c-0.516-0.473-0.824-1.441-1.643-1.271c-1.211,0.252,0.449,1.45-0.576,1.995
		c-2.047-1.496-4.115-3.008-6.186-4.521c0.785-0.216,1.313-0.042,1.811,0.198c1.467,0.708,3.153,0.952,3.695-0.794
		c0.538-1.732-1.381-1.792-2.531-2.193c-0.9-0.313-2.248-0.414-2.027-1.635c0.25-1.394,1.439-0.365,2.217-0.39
		c0.973-0.03,2.396,0,1.857-1.354c-0.517-1.301,0.047-1.962,0.586-2.814c1.174-1.85,0.768-3.674-1.061-4.691
		c-2.155-1.199-2.163-1.49-0.363-3.5c0.855-0.954,2.146-2.259,1.02-3.339c-1.317-1.262-2.211,0.5-3.033,1.352
		c-1.518,1.567-5.383,2.456-7.096,1.189c-1.717-1.271-2.812-0.393-3.244,0.901c-0.799,2.403-2.543,3.383-4.664,4.116
		c-0.901,0.311-1.567,0.921-1.66,1.903c-0.092,0.954,0.729,1.165,1.415,1.392c0.938,0.312,0.991,0.931,0.702,1.728
		c-0.393,1.085-1.057,0.55-1.766,0.393c-2.181-0.483-4.324-0.589-6.175,1.053c-0.39,0.346-0.841,0.812-1.485,0.461
		c-0.524-2.627,2.774-3.762,2.431-6.301c-0.312-2.312,0.864-4.511,0.349-6.956c0.959,0.431,1.516,1.765,2.569,0.899
		c1.054-0.863,1.491-2.131,1.377-3.48c-0.103-1.223-1.029-1.395-2.099-1.53c-1.896-0.241-3.268-0.894-2.282-3.332
		c0.666-1.649,0.129-3.409-1.265-4.374c-1.676-1.16-1.735,1.019-2.547,1.678c-0.312,0.254-0.628,0.511-0.969,0.723
		c-0.744,0.46-0.812,1.017-0.583,1.857c0.589,2.162-0.8,4.191-2.999,4.371c-1.23,0.101-1.844,0.699-2.691,1.59
		c-2.086,2.188-1.844,5.312-3.557,7.573c-1.027,1.355,0.688,1.117,1.1,1.634c-1.235,1.422-3.352,0.352-4.289,1.354
		c-1.207,1.292-1.762,0.803-2.754-0.291c0.572,2.083,1.215,3.956,0.459,5.92c-0.435-2.109-2.472-3.862-1.287-6.33
		c0.179-0.367-0.043-0.954-0.149-1.424c-0.316-1.394-1.062-2.845,1.205-3.419c0.728-0.185,0.5-1.05,0.31-1.705
		c-0.188-0.646-1.026-1.106-0.568-2.012c0.908,0.383,1.762,0.849,2.673,1.094c0.851,0.229,1.899,0.364,2.354-0.649
		c0.467-1.041-0.435-1.582-1.117-2.159c-0.739-0.624-1.676-0.797-2.67-1.03c2.213-2.399-0.246-3.101-1.304-4.279
		c1.986-0.697,2.515-2.367,1.755-4.6c-0.307-0.894-2.104-1.499-0.955-2.534c0.67-0.604,1.823-1.005,2.805-1.299
		c0.723-0.216,1.59,0.1,2.389,0.079c1.068-0.027,2.704,0.415,2.752-1.122c0.049-1.536-1.473-1.947-2.867-1.903
		c-0.551,0.017-1.147,0.147-1.631,0.404c-1.331,0.708-2.279,0.335-3.141-0.802c-0.434-0.571-0.98-1.113-1.588-1.484
		c-1.5-0.917-3.129-0.734-4.683-0.171c-1.267,0.458-0.979,1.436-0.607,2.421c0.153,0.406-0.142,0.83-0.569,0.937
		c-1.863,0.466-1.201,1.733-0.981,2.897c0.264,1.398,1.082,2.515,1.778,3.699c0.325,0.554,0.775,1.156,0.263,1.774
		c-0.448,0.539-1.052,0.137-1.591,0.037c-2.691-0.499-2.963-0.239-2.586,2.438c-2.041-1.31-2.27-0.008-2.326,1.602
		c-0.039,1.097,0.604,2.659-0.437,3.157c-1.087,0.521-1.527-1.385-2.603-1.721c-0.073-0.022-0.13-0.095-0.195-0.144
		c-1.049-0.786-1.398-1.583-0.074-2.453c1.145-0.752,1.004-1.753,0.436-2.764c-0.578-1.03-1.586-1.871-1.254-3.273
		c0.047-0.199-0.445-0.723-0.461-0.713c-1.991,1.175-4.405,0.24-6.313,1.125c-1.29,0.599-2.203,2.036-3.751,2.473
		c-0.543,0.153-0.996,0.607-0.961,1.265c0.046,0.842,0.721,1.052,1.376,1.082c1.22,0.055,1.774,0.798,1.886,1.842
		c0.289,2.7,2.23,5.317,0.185,8.156c-0.842,1.167-1.068,2.711-1.81,4.036c-0.793,1.416-1.5,2.102-2.826,2.649
		c-1.082,0.446-1.174,1.275-0.388,2.125c0.591,0.637,0.788,1.322,0.064,1.88c-0.698,0.539-1.272-0.187-1.655-0.587
		c-1.357-1.42-3.822-2.523-1.801-5.155c0.135-0.175,0.152-0.464,0.166-0.703c0.049-0.92,0.67-2.002-0.449-2.652
		c-0.969-0.563-1.691,0.169-2.347,0.764c-0.915,0.83-1.589,1.107-2.03-0.438c-0.389-1.359-1.443-1.421-2.533-0.917
		c-1.072,0.496-1.969,0.444-2.797-0.449c1.461-1.191,1.447-4.161,0.041-5.229c-0.445-0.337-0.902-0.408-1.34-0.106
		c-1.129,0.775-2.317,1.496-3.321,2.413c-1.645,1.503-2.262,1.431-3.183-0.645c-1.029-2.321-1.762-4.824-4.49-5.919
		c-0.777-0.312-1.682-1.093-1.696-1.958c-0.042-2.402-2.558-3.926-2.123-6.469c0.09-0.527-0.313-1.117-1.001-1.18
		c-0.814-0.074-1.104,0.497-1.312,1.16c-1.377,4.383-1.204,4.95,2.477,8.047c0.287,0.242,0.768,0.31,0.764,1.098
		c-1.254,0.181-2.689,0.067-3.791,0.983c-0.452,0.376-0.857,0.772-0.757,1.418c0.103,0.661,0.589,0.884,1.188,1.028
		c2.064,0.499,2.592,1.69,1.297,3.353c-0.959,1.233-1.514,2.51-1.292,4.017c0.117,0.796-0.151,1.112-0.747,1.549
		c-1.583,1.159-0.637,1.797,0.588,2.339c0.643,0.285,1.472-0.157,2.084,0.588c-0.365,0.61-0.757,1.21-1.093,1.84
		c-1.306,2.445-0.925,3.866,1.376,5.305c1.24,0.776,2.1,0.089,2.564-0.898c0.523-1.113,2.285-2.856,0.572-3.477
		c-2.197-0.796-0.867-1.77-1.117-2.841c1.967,0.739,3.793,1.186,2.785,3.812c-0.262,0.68,0.215,1.764,0.598,2.542
		c0.508,1.031,0.841,2.042,0.803,3.292c-1.44-0.516-3.529-1.62-3.945-0.018c-0.608,2.346-2.465,4.609-1.202,7.378
		c0.843,1.85,3.069,1.64,4.085,3.219c-3.053,0.861,0.014,2.243-0.215,3.504c-1.734,0.07-3.506,0.595-3.8-2.047
		c-0.12-1.077-1.045-0.995-1.921-0.788c-0.786,0.186-1.277,1.026-2.36,0.931c-0.085-0.982,0.022-2.199-1.188-2.623
		c-1.725-0.605-0.883-1.21-0.107-1.946c0.478-0.454,1.553-0.849,0.955-1.674c-0.652-0.903-1.578-0.393-2.367,0.111
		c-0.27,0.172-0.422,0.759-0.927,0.369c0.031-0.19,0.041-0.354,0.087-0.507c0.357-1.184,1.482-2.552,0.098-3.525
		c-1.271-0.895-1.902,0.67-2.711,1.36c-0.517,0.439-1.082,0.747-1.77,0.385c-0.59-0.312-0.689-0.862-0.619-1.459
		c0.16-1.35,0.572-2.752-1.809-2.081c-0.929,0.262-2.168-1.923-1.616-2.763c0.921-1.402,0.087-1.815-1.033-1.838
		C176.076,93.415,175.394,93.887,174.717,94.14z"/>
	<path fill="#1E293F" d="M174.716,94.14c0.678-0.253,1.36-0.725,2.031-0.711c1.12,0.023,1.954,0.436,1.033,1.838
		c-0.552,0.839,0.688,3.024,1.616,2.763c2.381-0.671,1.969,0.73,1.809,2.081c-0.07,0.597,0.029,1.147,0.619,1.459
		c0.688,0.362,1.253,0.054,1.77-0.385c0.809-0.689,1.439-2.254,2.711-1.36c1.385,0.974,0.26,2.341-0.098,3.525
		c-0.046,0.153-0.056,0.316-0.087,0.507c0.505,0.391,0.657-0.197,0.927-0.369c0.789-0.503,1.715-1.014,2.367-0.111
		c0.598,0.825-0.478,1.22-0.955,1.674c-0.775,0.736-1.617,1.341,0.107,1.946c1.211,0.424,1.104,1.641,1.188,2.623
		c1.083,0.096,1.574-0.745,2.36-0.931c0.876-0.207,1.801-0.289,1.921,0.788c0.294,2.642,2.065,2.117,3.8,2.047
		c0.229-1.261-2.838-2.643,0.215-3.504c-1.016-1.58-3.242-1.37-4.085-3.219c-1.263-2.769,0.594-5.032,1.202-7.378
		c0.416-1.603,2.505-0.499,3.945,0.018c0.038-1.25-0.295-2.261-0.803-3.292c-0.383-0.778-0.859-1.861-0.598-2.542
		c1.008-2.626-0.818-3.073-2.785-3.812c0.25,1.071-1.08,2.044,1.117,2.841c1.713,0.621-0.049,2.363-0.572,3.478
		c-0.465,0.987-1.324,1.674-2.564,0.897c-2.301-1.438-2.682-2.86-1.376-5.305c0.336-0.63,0.728-1.23,1.093-1.84
		c-0.612-0.745-1.441-0.303-2.084-0.588c-1.225-0.542-2.171-1.18-0.588-2.339c0.596-0.437,0.864-0.753,0.747-1.549
		c-0.222-1.506,0.333-2.783,1.292-4.017c1.295-1.663,0.768-2.854-1.297-3.353c-0.6-0.145-1.086-0.368-1.188-1.028
		c-0.101-0.646,0.305-1.042,0.757-1.418c1.102-0.916,2.537-0.802,3.791-0.983c0.004-0.789-0.477-0.856-0.764-1.098
		c-3.681-3.098-3.854-3.665-2.477-8.047c0.209-0.663,0.498-1.234,1.312-1.16c0.688,0.062,1.091,0.652,1.001,1.18
		c-0.435,2.542,2.081,4.067,2.123,6.469c0.015,0.865,0.919,1.646,1.696,1.958c2.729,1.095,3.461,3.598,4.49,5.919
		c0.921,2.075,1.538,2.147,3.183,0.645c1.004-0.917,2.192-1.638,3.321-2.413c0.438-0.302,0.895-0.231,1.34,0.106
		c1.406,1.068,1.42,4.038-0.041,5.229c0.828,0.894,1.725,0.945,2.797,0.449c1.09-0.504,2.145-0.442,2.533,0.917
		c0.441,1.545,1.115,1.269,2.03,0.438c0.655-0.595,1.378-1.327,2.347-0.764c1.119,0.65,0.498,1.732,0.449,2.652
		c-0.014,0.239-0.031,0.528-0.166,0.703c-2.021,2.631,0.443,3.734,1.801,5.155c0.383,0.4,0.957,1.125,1.655,0.587
		c0.724-0.559,0.526-1.243-0.064-1.88c-0.786-0.85-0.694-1.679,0.388-2.125c1.326-0.548,2.033-1.234,2.826-2.649
		c0.741-1.324,0.968-2.868,1.81-4.036c2.046-2.839,0.104-5.457-0.185-8.156c-0.111-1.043-0.666-1.787-1.886-1.842
		c-0.655-0.029-1.33-0.24-1.376-1.082c-0.035-0.658,0.418-1.112,0.961-1.265c1.548-0.437,2.461-1.874,3.751-2.473
		c1.908-0.885,4.322,0.049,6.313-1.125c0.016-0.01,0.508,0.514,0.461,0.713c-0.332,1.403,0.676,2.243,1.254,3.273
		c0.568,1.011,0.709,2.012-0.436,2.764c-1.324,0.87-0.975,1.667,0.074,2.453c0.065,0.049,0.122,0.122,0.195,0.144
		c1.075,0.336,1.516,2.243,2.603,1.721c1.04-0.499,0.397-2.06,0.437-3.157c0.057-1.609,0.285-2.911,2.328-1.6
		c-0.379-2.679-0.107-2.938,2.584-2.439c0.539,0.1,1.143,0.502,1.591-0.037c0.513-0.618,0.062-1.221-0.263-1.774
		c-0.696-1.184-1.515-2.3-1.778-3.699c-0.22-1.165-0.882-2.432,0.981-2.897c0.428-0.107,0.723-0.531,0.569-0.937
		c-0.372-0.986-0.659-1.963,0.607-2.421c1.554-0.563,3.183-0.746,4.682,0.171c0.607,0.371,1.154,0.913,1.589,1.484
		c0.86,1.137,1.81,1.509,3.141,0.802c0.482-0.256,1.08-0.387,1.632-0.404c1.395-0.044,2.916,0.368,2.866,1.903
		c-0.048,1.537-1.684,1.095-2.752,1.122c-0.799,0.021-1.666-0.295-2.389-0.079c-0.98,0.293-2.136,0.695-2.806,1.299
		c-1.148,1.036,0.649,1.64,0.955,2.534c0.762,2.233,0.232,3.903-1.754,4.6c1.057,1.179,3.516,1.88,1.303,4.279
		c0.994,0.233,1.932,0.406,2.67,1.03c0.685,0.577,1.584,1.119,1.117,2.159c-0.455,1.013-1.504,0.877-2.354,0.649
		c-0.911-0.245-1.764-0.711-2.673-1.094c-0.458,0.906,0.381,1.367,0.569,2.012c0.189,0.655,0.418,1.521-0.311,1.705
		c-2.267,0.574-1.521,2.026-1.205,3.419c0.107,0.47,0.328,1.057,0.15,1.424c-1.186,2.468,0.853,4.221,1.287,6.33
		c0.756-1.964,0.112-3.837-0.459-5.92c0.992,1.094,1.545,1.583,2.754,0.291c0.938-1.002,3.053,0.069,4.289-1.354
		c-0.412-0.518-2.127-0.279-1.101-1.634c1.713-2.261,1.472-5.385,3.556-7.573c0.85-0.891,1.463-1.489,2.692-1.59
		c2.199-0.179,3.588-2.209,2.999-4.371c-0.229-0.84-0.161-1.397,0.583-1.857c0.341-0.211,0.656-0.468,0.97-0.723
		c0.811-0.659,0.87-2.837,2.547-1.678c1.393,0.964,1.93,2.725,1.264,4.374c-0.984,2.438,0.388,3.091,2.283,3.332
		c1.067,0.136,1.996,0.307,2.098,1.53c0.113,1.349-0.323,2.617-1.377,3.48c-1.055,0.866-1.61-0.469-2.569-0.899
		c0.517,2.445-0.661,4.644-0.349,6.956c0.345,2.539-2.955,3.673-2.43,6.301c0.645,0.352,1.096-0.115,1.484-0.461
		c1.852-1.643,3.994-1.537,6.176-1.053c0.709,0.157,1.372,0.692,1.766-0.393c0.287-0.797,0.234-1.416-0.703-1.728
		c-0.686-0.228-1.506-0.438-1.415-1.392c0.093-0.982,0.759-1.592,1.659-1.903c2.123-0.733,3.865-1.713,4.666-4.116
		c0.432-1.293,1.525-2.172,3.244-0.901c1.713,1.267,5.578,0.378,7.095-1.189c0.823-0.852,1.716-2.614,3.032-1.352
		c1.127,1.08-0.162,2.385-1.019,3.339c-1.8,2.01-1.792,2.301,0.363,3.5c1.827,1.017,2.233,2.841,1.061,4.691
		c-0.538,0.852-1.103,1.513-0.586,2.814c0.539,1.354-0.886,1.324-1.856,1.354c-0.777,0.024-1.969-1.004-2.219,0.39
		c-0.22,1.221,1.129,1.322,2.028,1.635c1.149,0.4,3.069,0.46,2.531,2.193c-0.542,1.746-2.229,1.502-3.695,0.794
		c-0.496-0.24-1.024-0.414-1.812-0.198c2.07,1.512,4.14,3.024,6.187,4.521c1.025-0.545-0.635-1.743,0.576-1.995
		c0.817-0.17,1.127,0.798,1.642,1.271c2.715,2.498,3.186,5.905,1.246,9.086c-0.277,0.454-0.457,0.835-0.214,1.334
		c1.757,3.596,1.394,7.543,1.813,11.352c0.103,0.915,0.224,1.461,1.109,1.866c1.666,0.762,1.534,2.003,0.432,3.105
		c-1.018,1.017-1.409,1.891-0.35,3.097c0.694,0.791,0.047,1.865,0.512,3.176c0.488-1.583,2.775-2.305,0.608-4.15
		c-0.763-0.648-0.118-1.857,0.583-2.604c0.955-1.014,1.935-1.98,3.566-1.455c2.219,0.714,4.422,1.438,6.298,3.023
		c-0.587-1.374-1.264-2.601-2.454-3.448c-0.879-0.625-1.594-1.402-2.057-2.357c-0.805-1.652-0.149-3.185,1.646-3.435
		c2.092-0.292,2.092-1.411,1.494-2.916c-0.361-0.914-0.982-1.979,0.152-2.576c1.303-0.686,1.522,0.697,2.004,1.471
		c0.248,0.401,0.453,1.183,0.896,1.021c2.021-0.735,2.931-0.48,2.778,2.007c-0.04,0.651,1.454,0.322,1.972-0.322
		c0.756-0.94,1.289-2.058,2.019-3.024c0.81-1.076,1.735-2.078,3.195-0.868c0.368,0.305,0.723,0.271,1.126,0.124
		c0.797-0.289,1.673-0.525,2.07,0.49c0.353,0.896-0.368,1.499-0.932,2.08c-0.226,0.232-0.5,0.414-0.727,0.645
		c-2.574,2.644-2.564,3.838,0.267,6.205c1.552,1.297,2.433,2.064-0.208,3.311c-1.396,0.658-2.932,1.987-2.832,4.173
		c0.036,0.781-0.646,1.594-0.983,2.356c0.766,1.039,2.439-1.933,2.64,0.626c0.08,1.029-0.521,2.112-0.826,3.214
		c1.203,0.249,1.933-0.419,2.658-1.037c1.339-1.138,2.849-1.276,4.285-0.431c1.51,0.888,1.574,2.542,1.035,3.908
		c-1.623,4.11-1.123,8.724-3.399,12.745c-0.841,1.483-2.098,2.8-2.57,4.57c-0.291,1.088-0.599,2.149-0.844,3.744
		c1.143-1.109,0.647-2.89,2.428-3.223c-0.437,2.051-1.021,3.851-2.006,5.486c-0.581,0.962-0.974,1.617,0.508,2.136
		c0.914,0.32,1.817,1.102,1.116,2.252c-0.751,1.231-1.708,0.878-2.627,0.037c-0.809-0.741-1.579-1.36-1.771,0.513
		c-0.055,0.529-0.689,1.303-1.193,1.428c-1.757,0.436-1.557,1.053-0.853,2.479c0.675,1.365-1.171,0.319-1.545,1.147
		c1.362,0.168,2.681,0.344,3.937,0.933c1.632,0.765,3.175,1.013,4.869-0.467c1.715-1.497,4.398-0.351,5.308,1.913
		c0.271,0.673,0.354,1.435,0.693,2.062c1.245,2.296,2.005,2.327,3.528,0.257c0.228-0.309,0.567-0.767,0.854-0.766
		c3.729,0.012,4.857-3.113,6.492-5.481c1.116-1.618,2.774-2.802,3.33-4.938c0.385-1.475,4.053-1.222,4.865,0.187
		c0.442,0.764,0.107,1.242-0.595,1.522c-0.629,0.25-1.042,0.538-0.483,1.21c0.593,0.715,0.887,0.227,1.263-0.289
		c0.708-0.973,1.393-2.067,2.836-1.936c0.213,0.02,0.563,0.447,0.553,0.669c-0.078,1.419-1.004,2.389-2.062,3.127
		c-1.44,1.005-3.012,1.614-4.723,0.433c-0.434-0.298-0.91-0.746-1.716-0.229c1.232,1.243,2.229,2.596,4.081,3.025
		c1.237,0.287,2.301,1.11,2.198,2.533c-0.093,1.315-1.246,2.014-2.378,2.07c-2.124,0.104-3.028,1.671-4.111,3.017
		c-0.509,0.631-0.797,1.406-1.732,1.531c-1.146,0.153-0.713,0.789-0.408,1.383c0.418,0.812,0.97,0.462,1.359,0.06
		c0.613-0.635,1.111-1.38,1.674-2.065c0.383-0.465,0.869-0.77,1.488-0.55c0.623,0.221,0.764,0.782,0.812,1.373
		c0.115,1.396-0.489,2.638-1.361,3.529c-0.771,0.786-1.294,1.558-1.521,2.59c-0.085,0.39-1.354,0.529-0.232,1.181
		c0.585,0.34,1.047,0.372,1.437-0.27c0.25-0.414,0.503-0.842,0.835-1.187c0.571-0.592,1.253-1.167,2.127-0.831
		c0.854,0.328,0.678,1.195,0.684,1.907c0.008,1.064-0.096,2.217,1.099,2.734c2.788,1.208,2.665,3.516,2.386,5.936
		c-0.234,2.034-1.146,3.783-2.602,5.743c2.297-0.461,2.371-2.438,3.514-3.448c1.184,0.569,1.73,1.591,1.247,2.754
		c-0.635,1.526-0.912,3.476-3.151,3.827c0.033,1.792,5.988,1.819,1.538,4.932c-0.02,0.442,0.567,0.424,0.598,0.582
		c0.668,3.465,4.887,5.76,3.422,9.833c-0.472,1.308-0.125,1.756,0.879,2.143c1.394,0.537,3.051,0.648,2.883,2.884
		c-0.062,0.83,0.926,0.125,1.404,0.339c1.069,0.482,2.438,0.83,0.802,2.228c-0.931,0.795-0.192,1.22,0.276,1.751
		c1.172,1.33,2.147,2.417-0.703,3.069c-1.402,0.32-1.506,1.998-1.172,3.384c0.109,0.459,0.599,1.091,0.442,1.311
		c-2.641,3.733,1.39,4.194,2.908,5.699c1.059,1.047,1.678,1.733,0.459,2.927c-0.651,0.639-0.934,1.625-0.61,2.227
		c0.983,1.83-0.409,1.272-1.331,1.295c0.316,1.308,1.339,1.599,2.267,2.022c4.768,2.185,6.085,7.285,2.846,11.527
		c-1.723,2.258-2.605,4.786-3.312,7.467c-1.411,5.352-1.288,10.818-1.628,16.275c-0.409,6.555-0.954,13.163-5.734,18.525
		c-1.738,1.949-2.715,4.57-4.095,6.854c-0.777,1.286-1.679,2.48-3.562,1.606c-0.096,1.78-0.429,3.384,0.649,5.09
		c0.659,1.042,0.786,1.626,1.643,0.412c0.916-1.3,2.146-1.449,3.418-0.931c1.092,0.445,1.875-0.217,2.787-0.406
		c0.595-0.122,0.838-0.487,0.354-1.03c-1.155-1.292-0.075-2.25,0.534-3.222c0.447-0.713,1.355-0.92,1.912-0.392
		c1.053,0.999,2.779,1.425,2.868,3.318c0.199,4.252-1.137,6.097-6.323,8.591c1.029-0.085,1.941,0.062,2.506,1.003
		c0.144,0.24,0.39,0.782,0.668,0.456c1.37-1.605,2.308-0.654,2.997,0.555c0.595,1.045,2.016,1.832,1.306,3.42
		c-0.11,0.246-0.024,0.658,0.107,0.926c1.048,2.086,0.914,3.962-1.104,5.457c1.25,0.972,1.887-0.594,2.985-0.266
		c0.22,0.672-0.478,1.532,0.32,2.314c3.808,3.73,2.521,8.003,0.911,12.1c-2.155,5.485-6.267,9.198-11.469,11.844
		c-1.567,0.799-3.339,1.166-4.87,1.205c-3.337,0.084-6.283,1.19-9.288,2.303c-0.598,0.223-1.331,0.397-1.708,0.845
		c-3.088,3.646-7.604,4.428-11.758,5.89c-1.758,0.618-3.642,0.396-5.527,0.238c-4.417-0.364-8.899-0.77-13.025,1.518
		c-1.7,0.94-2.79,2.319-3.372,4.24c-1.332,4.395-5.956,5.977-9.834,3.432c-1.335-0.877-3.046-0.801-4.289-1.563
		c-2.16-1.324-4.043-2.192-6.535-0.719c-0.942,0.558-2.508-0.245-3.095-0.985c-2.086-2.641-5.098-2.504-7.774-2.546
		c-2.504-0.038-5.185-0.146-7.639,0.962c-0.642,0.29-1.443,0.452-2.136,0.37c-6.349-0.752-9.412,4.047-13.054,7.763
		c-1.112,1.135-1.979,2.537-3.069,3.743c-2.653,2.933-1.957,6.637-1.592,9.961c0.482,4.417,0.549,8.855,1.062,13.271
		c0.567,4.904,0.325,4.813,5.478,5.088c3.146,0.167,6.282-0.202,9.44,0.182c1.573,0.19,2.752,1.146,4.335,1.337
		c4.513,0.545,9.027-0.506,13.531,0.304c1.9,0.341,3.814,0.394,5.664,1.157c1.638,0.678,3.445,0.675,5.252,0.594
		c6.374-0.287,12.753-0.795,19.103,0.471c2.874,0.573,5.821,0.312,8.729,0.229c2.97-0.084,5.826,0.135,8.454,1.625
		c2.131,1.209,4.443,1.487,6.812,1.346c1.665-0.102,3.193,0.458,4.778,0.736c0.945,0.167,1.656,0.834,1.663,1.83
		c0.006,1.241-1.071,1.421-1.931,1.296c-2.905-0.423-3.127,2.958-5.282,3.641c-0.48,0.15,0.139,0.847,0.577,0.999
		c0.607,0.209,1.273,0.236,1.89,0.428c0.692,0.215,1.067,0.729,0.967,1.48c-0.092,0.672-0.54,0.982-1.192,0.948
		c-6.046-0.314-11.845,2.73-17.979,1.319c-0.507-0.116-1.475-0.148-1.429,0.5c0.213,3.021-2.076,2.138-3.472,2.166
		c-5.938,0.118-11.893-0.66-17.812,0.398c-0.372,0.065-0.924,0.082-1.148-0.135c-2.566-2.461-5.479-1.148-8.381-1.053
		c-2.577,0.085-5.311-0.099-7.811-0.011c-4.896,0.171-9.816-1.767-14.791,0.464c-3.006,1.348-6.528,0.104-9.816-0.073
		c-1.107-0.061-2.816-1.185-2.217,1.448c0.148,0.651-0.537,1.132-1.105,0.972c-2.338-0.66-4.668,0.311-6.996-0.088
		c-4.583-0.783-9.222-0.178-13.897-1.292c-4.32-1.03-9.103-0.385-13.658-0.104c-5.286,0.322-10.458-0.393-15.651-1.047
		c-5.298-0.668-10.588-1.39-15.878-2.104c-1.293-0.175-2.354,0.271-3.41,0.964c-2.519,1.648-5.051,2.411-7.822,0.339
		c-1.02-0.764-2.462-1.001-3.734-0.758c-1.66,0.317-3.205,0.206-4.764-0.365c-0.544-0.199-1.118-0.216-1.654,0.064
		c-4.874,2.545-9.892,1.888-15.036,0.967c-3.839-0.688-7.682-1.888-11.71-0.909c-2.037,0.495-4.164,0.398-6.264,0.113
		c-1.268-0.173-2.928,0.176-1.672-2.086c0.412-0.744-0.355-1.201-1.049-1.239c-1.443-0.079-2.822-0.81-4.316-0.371
		c-0.906,0.268-1.771-0.026-2.586-0.413c-0.7-0.332-1.237-0.848-1.025-1.711c0.189-0.771,0.879-0.923,1.537-0.924
		c1.854-0.002,3.71,0.004,5.561,0.098c1.893,0.097,3.654-0.428,5.477-1.062c-2.16-0.612-4.051-2.577-6.457-0.913
		c-0.588-0.659-0.242-1.096,0.146-1.357c3.313-2.237,6.411-4.993,10.847-4.614c1.583,0.136,2.861-0.438,4.264-1.286
		c2.243-1.354,5.049-1.07,7.521-0.963c2.928,0.127,5.875,0.108,8.693-0.278c5.543-0.763,11.178-0.609,16.639-1.55
		c4.016-0.691,7.961-1.621,12.065-1.934c4.126-0.312,8.147,0.582,12.239,0.475c1.6-0.042,3.252,0.425,4.837,0.094
		c6.356-1.327,12.726-0.773,19.054-0.037c2.283,0.267,2.744-0.477,2.697-2.38c-0.15-5.988,0.312-11.984-0.345-17.968
		c-0.212-1.924-0.136-3.876,0.187-5.814c0.121-0.729,0.314-2.044-1.208-0.877c-0.551,0.423-0.889-0.177-1.04-0.623
		c-0.258-0.758-0.42-1.548-0.792-2.976c-0.179,0.572-0.212,0.796-0.313,0.982c-0.43,0.797-0.025,2.17-1.335,2.338
		c-1.229,0.156-1.796-0.901-2.407-1.758c-0.273-0.384-0.621-1.104-1.049-0.761c-1.743,1.411-3.818,0.187-5.62,0.856
		c-1.52,0.566-2.06-0.246-2.317-1.565c-0.539-2.758-1.818-4-4.506-4.149c-2.611-0.146-5.178,0.447-7.846-0.679
		c-1.261-0.53-3.205,0.453-4.94,0.17c-4.269-0.696-8.388,0.456-12.427,1.558c-3.426,0.934-6.668,0.572-9.688-0.873
		c-3.246-1.555-6.715-1.807-10.119-2.33c-1.564-0.241-2.982-0.4-4.222-1.42c-2.313-1.9-5.591-2.42-7.142-5.551
		c-0.547-1.105-2.516-1.603-3.92-2.162c-1.358-0.541-1.945-1.344-1.689-2.779c0.084-0.464,0.357-1.018-0.061-1.378
		c-0.262-0.226-1.063-0.304-1.078-0.263c-0.79,2.317-3.459-0.226-4.156,1.521c-0.416,1.042-0.325,2.339-1.666,2.611
		c-0.789,0.16-1.256-0.641-1.555-1.318c-0.642-1.454-1.334-3.531,0.084-4.268c4.265-2.215,1.165-3.832-0.123-5.668
		c-0.127-0.18-0.277-0.346-0.536-0.666c-0.681,1.992-2.205,3.019-3.78,3.979c-0.482,0.295-1.076,0.557-1.539-0.008
		c-0.359-0.436-0.186-0.984,0.141-1.339c0.889-0.964,1.042-1.767,0.145-2.929c-0.748-0.972,0.094-1.594,1.068-1.902
		c0.691-0.221,1.488-0.387,1.59-1.28c0.109-0.983-0.863-0.757-1.344-1.085c-1.579-1.076-0.994-2.398-0.305-3.622
		c0.488-0.866,1.299-1.582-0.195-2.261c-0.531-0.242-0.574-0.879-0.218-1.252c1.515-1.582,0.931-2.883-0.402-4.176
		c-0.27-0.262-0.379-0.688-0.677-1.258c-0.744,0.832,0.018,2.928-1.768,2.328c-1.427-0.479-1.644-1.99-1.424-3.291
		c0.361-2.145,2.209-3.676,2.549-5.932c0.121-0.805,1.587-1.078,2.352-0.664c2.793,1.512,6.229-0.124,8.988,2.582
		c-0.562-2.927-1.893-3.639-4.197-3.514c-1.297,0.07-2.902-0.288-2.564-2.608c0.173-1.183-1.062-2.187-2.134-2.979
		c-0.706-0.521-2.616-0.65-1.136-2.325c0.043-0.05-0.159-0.456-0.319-0.523c-0.623-0.262-1.126,0.021-1.448,0.544
		c-1.26,2.036-1.986,0.174-2.746-0.438c-1.395-1.119-1.898-2.809-1.252-4.348c0.37-0.884,1.281,0.483,2.307,0.528
		c-1.115-2.118-3.101-3.073-4.691-4.418c-0.268-0.228-0.635-0.248-0.832,0.103c-0.219,0.386-0.119,0.795,0.143,1.136
		c0.574,0.751,1.615,1.539,0.67,2.485c-0.979,0.981-2.183,0.432-3.385,0.014c-3.209-1.117-3.521-4.719-5.848-6.555
		c1.178-2.353-0.211-3.314-2.107-4.179c-0.458-0.208-0.01-1.014,0.215-1.545c0.407-0.967,0.791-1.954,1.061-2.967
		c0.217-0.819,0.095-2.005-0.947-1.744c-2.443,0.61-2.026-0.724-2.004-2.239c0.018-1.174-0.355-2.384-0.726-3.521
		c-0.231-0.715-0.622-1.736-1.603-0.446c-0.656,0.862-1.275,0.324-1.801-0.246c-0.789-0.854-1.242-1.892-1.551-2.993
		c-0.315-1.134-0.441-2.164,1.26-2.125c0.886,0.021,1.387-0.642,0.815-1.203c-1.608-1.582-1.196-3.959-2.483-5.646
		c-0.559-0.732-1.123-1.617,0.084-2.498c0.926-0.676-0.059-1.086-0.478-1.455c-0.654-0.579-2.185-0.408-1.812-1.835
		c0.348-1.328,1.379-2.161,2.711-2.537c0.815-0.229,1.941-0.067,1.832-1.415c-0.104-1.287-1.126-1.408-2.122-1.529
		c-1.819-0.221-2.608-1.459-2.956-3.08c-0.119-0.559-0.137-1.209,0.461-1.514c0.799-0.406,1.098,0.344,1.541,0.786
		c0.638,0.638,0.433,2.538,1.428,2.054c1.42-0.688-0.367-1.695-0.49-2.631c-0.121-0.936-0.125-1.82,0.63-2.462
		c0.819-0.694,1.405,0.101,2.141,0.365c2.457,0.884,4.966,1.646,7.497,2.285c1.073,0.271,2.02,0.54,2.53,1.569
		c0.196,0.396,0.046,1.135,0.771,0.918c0.4-0.121,0.771-0.569,1.008-0.959c0.354-0.584,0.119-1.236-0.465-1.42
		c-2.658-0.839-3.904-2.679-4.18-5.371c-0.113-1.095-1.122-0.701-1.77-0.768c-1.355-0.141-2.775,0.046-3.863-1.074
		c-0.514-0.527-1.189-1.044-0.717-1.848c0.396-0.671,1.174-0.605,1.738-0.25c1.352,0.85,1.863,0.05,2.32-1.027
		c-1.082-0.748-3.096-0.434-3.192-2.127c-0.091-1.586,1.64-1.086,2.732-1.359c-0.706-1.896-0.999-3.666,0.154-5.41
		c0.219-0.331,0.151-0.958,0.026-1.395c-1.133-3.961-0.91-4.306,3.314-4.334c-1.774-1.292-3.543-0.393-5.125-0.747
		c-2.449-0.546-1.375-2.743-1.979-4.003c-0.56-0.186-0.728,0.082-0.893,0.369c-0.498,0.868-0.858,2.349-2.204,1.375
		c-1.143-0.826-0.832-2.136-0.069-3.263c0.747-1.104,3.042-1.388,2.507-2.91c-0.602-1.713-2.055-3.167-3.293-4.6
		c-0.641-0.742-1.35-1.396-1.633-2.356c-0.245-0.832-0.783-1.83,0.225-2.413c0.933-0.54,1.324,0.599,1.978,0.969
		c0.841,0.476,0.769,2.53,2.08,1.701c1.003-0.635,1.298-2.026,0.363-3.43c-0.694-1.044,0.554-1.67,1.302-1.873
		c1.459-0.395,2.756-0.785,3.295-2.41c0.107-0.323,0.566-0.573,0.915-0.762c0.712-0.387,1.571-0.885,2.251-0.24
		c0.842,0.8,0.027,1.597-0.538,2.034c-2.442,1.89-2.38,5.275-4.803,7.417c1.296,0.454,2.231-0.102,3.214-0.139
		c-0.75-3.177-0.057-5.452,2.279-6.873c2.549-1.55,4.173,0.52,5.938,1.826c1.716-2.921,5.259-4.267,7.013-2.424
		c0.232-4.935,2.994-2.073,5.635-1.431c-1.789-1.727-2.414-3.016-1.34-4.851c0.801-1.37-1.518-2.72-0.543-4.433
		c0.124-0.218-0.943-0.104-1.482-0.027c-1.566,0.221-2.242-0.658-1.715-1.984c0.412-1.037,0.281-1.905-0.053-2.777
		c-0.453-1.184-1.32-1.522-2.299-0.529c-0.878,0.891-2.068,1.382-2.636,2.716c-0.526,1.237-1.549,0.968-2.165-0.168
		c-0.502-0.923-0.957-1.875-1.352-2.848c-0.309-0.763-0.688-1.239-1.609-1.095c-1.193,0.188-1.771-0.701-2.244-1.534
		c-0.582-1.027-1.523-2.221-0.639-3.341c0.832-1.056,1.707,0.294,2.587,0.464c0.389,0.075,0.787,0.252,1.136-0.118
		c-1.434-1.824-4.045-2.678-4.372-5.418c-0.097-0.809-0.882-0.769-1.511-0.942c-1.906-0.529-2.052-1.204-0.549-2.547
		c0.594-0.531,1.241-1.114,1.97-1.359c2.077-0.699,1.37-2.26,1.146-3.574c-0.097-0.567-0.767-1.12-1.472-1.089
		c-0.875,0.038-0.483,0.839-0.639,1.32c-0.576,1.778-2.047,2.154-3.649,2.206c-0.771,0.025-1.435-0.356-1.706-1.134
		c-0.27-0.771,0.244-1.245,0.818-1.575c2.086-1.2,2.021-2.449,0.228-3.898c-0.594-0.48-1.464-1.116-0.933-2.008
		c0.58-0.977,1.429-0.25,2.145,0.024c1.509,0.577,3.747-1.511,3.21-3.329c-0.485-1.641,0.197-2.989,0.332-4.466
		c0.069-0.762,0.683-1.348,1.323-1.046c1.836,0.865,2.568-0.51,3.584-1.441c-0.699-0.888-3.022-0.362-2.256-2.144
		c0.653-1.52,2.502-1.579,3.857-0.905c1.593,0.792,3.078,1.694,4.922,1.792c0.565,0.03,1.209,0.505,1.217,1.051
		c0.025,1.751,1.803,1.596,2.508,2.504c1.236,1.594,2.101,0.174,3.123-0.151c0.639-0.204,1.318-0.262,1.812,0.29
		c0.564,0.632,0.121,1.236-0.244,1.753c-0.461,0.653-1.012,1.243-1.518,1.853c2.143,0.917,2.15,0.923,3.572-0.861
		c0.275-0.345,0.875-0.695,0.963-0.479c0.877,2.151,3.572,0.788,4.688,2.519c0.553,0.859,0.918,0.709,3.27-0.811
		c-0.506-0.852-1.895,0.413-2.156-0.866c-0.211-1.037,0.283-1.898,0.898-2.672c0.489-0.614,1.354-1.136,0.242-1.934
		c-0.768-0.551-1.275-1.789-2.543-0.445c-0.864,0.917-1.843,0.081-2.483-0.646c-1.144-1.295,0.362-2.037,0.82-2.925
		c0.542-1.05,1.361-0.542,1.999,0.042c0.957,0.875,1.846,1.865,3.42,1.418c-0.432-0.826-1.494-1.717-0.459-2.544
		c3.018-2.409,0.08-4.562,0.289-7.479c-1.195,1.526-0.32,2.476-0.579,3.38c-0.205,0.717-0.374,1.473-1.187,1.697
		c-0.906,0.25-1.312-0.458-1.662-1.1c-0.464-0.85-0.82-1.75-1.535-2.456c-0.746-0.739-1.135-1.704-0.528-2.642
		c0.856-1.324,1.601,0.304,2.489,0.284c0.707-2.462-1.824-3.101-2.693-4.599c-1.85-3.189-1.937-4.239,1.398-5.757
		c1.309-0.596,0.677-1.075,0.187-1.518c-0.893-0.807-2.096-0.721-3.216-0.873c-1.01-0.137-2.387-0.785-1.467-1.743
		c1.342-1.396,0.622-1.889-0.3-2.807c-0.758-0.755-0.618-5.839,0.121-6.483c1.505-1.31,2.631-0.335,3.589,0.859
		c0.695-0.641,0.216-1.125,0.105-1.646c-0.309-1.455,1.088-2.542,2.812-2.012c1.137,0.35,2.123,0.65,3.221-0.055
		c0.578-0.371,1.299-0.384,1.723,0.286c0.422,0.669-0.072,1.213-0.42,1.763c-0.508,0.802-1.626,1.116-1.812,2.412
		c1.59-0.062,2.684-2.066,4.318-0.864c0.45-1.05-0.258-2.078,0.811-2.849c2.244-1.619,2.764-1.564,3.939,1.067
		c0.494,1.105,0.896,1.929,2.233,0.856c0.731-0.586,1.787-0.822,2.419,0.005c0.753,0.986-0.068,1.818-0.778,2.491
		c-0.405,0.384-0.948,0.617-1.397,0.96c-1.147,0.879-0.756,1.994-0.051,2.743c0.757,0.805,1.742,0.683,2.435-0.382
		c0.991-1.525,1.358-2.21,2.812,0.106c1.186,1.889,1.104,2.771,0.275,4.543c-0.826,1.769,0.957,3.001,2.193,3.797
		c1.752,1.127,5.231-1.086,5.393-3.209c0.044-0.586,0.188-1.497,0.636-1.434c1.983,0.278,2.942-1.504,4.501-2.007
		c1.363-0.441,2.094,0.63,1.695,2.455c-0.726,3.313-0.726,3.313,2.674,3.686c-0.037-0.714-0.705-0.827-1.121-1.147
		c-1.02-0.784-1.12-1.499-0.016-2.3c1.582-1.146,3.923-2.093,1.314-4.5c-0.155-0.144-0.154-0.753-0.001-0.889
		c1.579-1.392,0.759-2.169-0.599-3.018c-0.715-0.448-0.451-1.109,0.191-1.578c0.385-0.281,1.051-0.566,1.074-0.888
		c0.08-1.097,0.919-2.313,0.221-3.247c-0.739-0.985-1.929-0.398-2.924-0.044c-1.556,0.554-2.072,0.618-2.875-1.545
		c-1.197-3.23,0.502-3.339,2.891-3.905c-1.749-0.887-3.004-1.839-4.751-1.639c-0.735,0.084-1.446-0.303-1.969-0.827
		c-0.912-0.917-2.169-2.131-1.042-3.273c1.026-1.041,1.645,0.619,2.37,1.238c0.143,0.122,0.406,0.101,0.676,0.16
		c-1.502-3.314-1.502-3.314,2.066-3.184c-2.604-1.749-1.099-4.202-1.219-6.166c-0.161-2.651-1.147-4.35-3.214-6.487
		c0.519,1.672,1.004,2.807,0.544,4.02c-0.267,0.705-0.51,1.483-1.358,1.525c-1.027,0.05-1.404-0.851-1.475-1.631
		c-0.125-1.389-0.037-2.723-1.997-2.867c-0.624-0.046-0.733-0.792-0.591-1.397c0.13-0.554,0.227-1.076,0.08-1.666
		c-0.648-2.629-0.629-2.636,1.785-1.963c1.126,0.313,2.146-0.354,2.461-1.085c0.445-1.028,0.602-3.025-0.117-3.361
		c-3.143-1.469-0.856-3.167-0.477-4.771c0.091-0.381,0.369-0.718,0.561-1.076L174.716,94.14z M214.793,175.541
		c-0.334,1.767,0.678,2.325,2.066,2.252c1.57-0.082,1.697-1.277,1.455-2.488c-0.316-1.582-0.319-3.064,0.975-4.242
		c0.496-0.451,1.093-0.853,0.598-1.59c-0.414-0.617-1.152-1.248-1.79-1.062c-1.379,0.398-2.753-0.155-3.949,0.055
		c-1.259,0.221-3.183,0.628-3.423,2.445c-0.14,1.055-0.237,1.81-1.305,2.305c-0.974,0.452-0.552,1.271-0.074,1.816
		c0.592,0.675,0.664,2.051,1.937,1.857c0.894-0.136,0.815-1.067,0.889-1.785c0.079-0.768-0.11-1.854,1.116-1.717
		C214.49,173.522,215.176,174.275,214.793,175.541z M206.233,327.475c-1.388,0.125-2.442,0.438-1.563,2.077
		c0.516,0.962,0.473,1.484-0.643,2.068c-1.25,0.653-1.585,1.989-1.014,3.304c0.498,1.148,5.957,1.51,6.496,0.387
		c0.654-1.36,1.733-2.295,2.688-3.358c0.655-0.729,0.885-1.345-0.052-1.979C210.322,328.729,208.285,328.004,206.233,327.475z
		 M218.325,202.914c-2.251,0.05-4.192-0.163-3.926,2.626c0.024,0.244-0.493,0.587-0.812,0.809c-1.633,1.138-1.81,2.631-0.205,3.639
		c1.248,0.783,2.837,1.008,3.21,2.833c0.087,0.423,0.894,0.453,1.295,0.159c1.291-0.947,2.585-1.906,3.769-2.982
		c1.14-1.037,0.691-2.518-0.023-3.31c-1.084-1.2-1.188,0.622-1.784,1.006c-0.627,0.403-1.56,1.092-1.472-0.183
		C218.482,205.97,217.275,204.588,218.325,202.914z M231.093,275.48c-1.29,0.039-2.558-0.068-2.751,1.502
		c-0.096,0.783,0.297,1.697,0.029,2.377c-0.507,1.289-0.131,2.176,0.995,2.522c1.311,0.404,2.159,2.073,4.122,0.9
		c2.747-1.644,3.08-4.567,4.512-6.897c0.246-0.4,0.044-0.818-0.35-1.021c-0.609-0.314-1.572-0.446-1.75,0.155
		c-0.812,2.748-2.075,1.778-3.537,0.645C232.035,275.41,231.425,275.521,231.093,275.48z M247.941,124.706
		c0.471,0.052,0.742,0.376,0.807,0.779c0.367,2.284,2.695,2.811,3.886,4.359c0.354,0.46,1.46,0.529,1.382,0.086
		c-0.265-1.505,1.301-3.277,0.84-3.731c-1.379-1.356-1.312-3.298-2.479-4.613c-0.484-0.545-1.382-1.29-1.826-0.887
		c-1.311,1.187-3.122,1.31-4.43,2.642c-2.17,2.213-0.041,4.396-0.388,6.56c-0.103,0.63,1.022,0.661,1.499,0.072
		c0.65-0.804,1.018-1.661-0.161-2.439c-0.78-0.516-0.515-1.27-0.196-1.95C247.084,125.133,247.406,124.775,247.941,124.706z
		 M168.881,348.93c0.174-1.309-0.311-1.469-0.814-1.314c-0.525,0.158-0.982,0.74-1.477,0.751c-0.889,0.017-2.645,2.379-2.57-0.813
		c0.014-0.519-0.611-0.716-1.119-0.719c-0.543-0.002-0.828,0.305-1.023,0.835c-0.482,1.31,0.439,6.239,1.444,7.2
		c0.212,0.201,0.599,0.425,0.833,0.363c1.419-0.366,2.469,0.41,3.629,0.978c0.803,0.394,2.114,0.074,1.606-0.84
		C168.071,352.998,170.28,350.582,168.881,348.93z M239.73,219.916c0.535-0.361,0.894-0.554,1.192-0.815
		c0.78-0.682,1.09-1.516,0.195-2.263c-0.953-0.794-1.32-0.003-1.774,0.769c-0.955,1.625-1.6,0.631-2.229-0.349
		c-0.311-0.483-0.725-0.912-1.38-0.782c-0.483,0.097-0.638,0.533-0.565,0.938c0.332,1.863-0.484,3.42-1.211,5.027
		c-0.703,1.553-0.039,2.555,1.543,2.813c1.104,0.181,2.268,0.177,3.383,0.057c2.381-0.256,1.782-2.607,2.516-3.974
		C242.011,220.201,240.452,220.459,239.73,219.916z M149.873,256.807c0.624,0.245,1.391-0.279,1.992-1.145
		c0.754-1.085-0.559-1.083-0.88-1.588c-0.505-0.792-0.259-1.174,0.534-1.422c0.611-0.19,1.287-0.293,1.809-0.629
		c0.638-0.409,1.64-0.791,1.396-1.75c-0.237-0.938-1.209-1.498-2.089-1.3c-1.828,0.412-3.288,0.052-4.644-1.233
		c-0.539-0.511-1.235-0.147-1.738,0.323c-0.371,0.349-0.303,0.708,0.111,0.993c1.909,1.312,0.264,1.676-0.602,2.236
		c-0.5,0.324-1.644,0.507-1.154,1.194c1.137,1.602,3.146,2.438,4.07,4.308C148.729,256.891,149.138,256.807,149.873,256.807z
		 M159.436,299.695c-0.028,0.205-0.063,0.365-0.071,0.525c-0.069,1.415,0.404,2.797,1.787,3.053
		c1.567,0.291,1.261-1.258,1.415-2.228c0.168-1.055,0.818-1.045,1.604-0.726c0.813,0.33,1.626,0.475,2.056-0.508
		c0.369-0.84-0.18-1.362-0.861-1.75c-0.977-0.554-1.334-1.289-0.334-2.062c1.03-0.795,0.682-1.489,0.061-2.235
		c-0.723-0.869-1.613-1.02-2.58-0.445c-0.469,0.279-0.739,0.949-1.387,0.861c-3.377-0.455-2.026,2.02-2.071,3.479
		C159.033,298.312,159.645,298.975,159.436,299.695z M303.562,174.338c0.283-2.051-0.457-2.215-1.83-1.289
		c-0.75,0.505-2.101,1.125-2.07-0.043c0.062-2.47-1.984-2.134-3.122-2.952c-0.569-0.409-1.423-0.551-1.907,0.279
		c-0.355,0.609-0.816,1.284-0.343,2.022c1.063,1.664,1.534,3.531,1.856,5.433c0.135,0.792,0.588,0.945,1.174,0.813
		c1.238-0.279,2.738-0.327,3.607-1.076C301.967,176.633,304.432,176.569,303.562,174.338z M172.275,198.597
		c-1.564-1.287-2.898-2.006-3.211-3.728c-0.176-0.968-1.346-1.342-2.344-1.4c-1.067-0.062-1.135,0.946-1.526,1.613
		c-1.29,2.197-0.286,4.583-0.4,6.848c-0.087,1.73,2.222,0.914,3.417,1.339c0.736,0.262,1.622,0.3,2.141-0.584
		c0.225-0.385,0.181-0.778-0.078-1.129C168.896,199.685,169.598,198.801,172.275,198.597z M292.104,198.309
		c2.479,0.027,4.359,1.369,6.566,1.671c0.741,0.101,1.393,0.44,1.953-0.277c0.62-0.792,0.122-1.305-0.452-1.835
		c-0.955-0.882-0.913-1.638,0.353-2.197c0.848-0.375,1.676-0.542,2.547-0.054c0.678,0.38,1.607,0.635,1.798-0.301
		c0.2-0.993-0.787-1.335-1.636-1.249c-1.564,0.158-2.558-0.361-3.271-1.835c-0.68-1.396-1.879-0.786-2.943-0.348
		c-1.02,0.419-1.559,0.854-0.977,2.156c0.714,1.595-0.225,2.581-1.746,3.089C293.639,197.347,292.799,197.104,292.104,198.309z
		 M132.201,234.497c-0.811-0.173-1.525,0.036-1.764,0.85c-0.334,1.148,0.434,1.878,1.35,2.257c1.398,0.577,2.206,1.164,0.721,2.501
		c-0.611,0.55-1.826,0.989-0.857,2.034c0.939,1.013,1.695,0.256,2.328-0.604c0.736-1.001,1.6-1.332,2.623-0.349
		c0.328,0.314,0.6,0.931,1.158,0.57c0.648-0.418,0.521-1.132,0.316-1.752c-0.248-0.752-0.741-1.407-0.619-2.287
		c0.327-2.354-0.664-3.388-3.107-3.194C133.623,234.58,132.916,234.713,132.201,234.497z M293.593,227.942
		c-1.347-0.094-2.166,0.361-1.571,1.507c1.33,2.56,2.737,5.13,5.582,6.39c0.799,0.354,1.617,0.324,2.256-0.32
		c0.771-0.774-0.051-1.243-0.396-1.849c-0.815-1.433-2.512-2.658-0.785-4.669c0.73-0.852-0.131-1.737-1.062-1.332
		C296.164,228.3,294.809,228.268,293.593,227.942z M288.268,330.662c-2.119,0.707-3.756,0.342-4.875-1.364
		c-0.104-0.155-0.621-0.133-0.91-0.055c-1.604,0.435-1.543,2.727-3.442,3.032c-0.549,0.088,0.5,0.996,0.358,1.67
		c-0.455,2.174,0.722,2.795,2.595,2.484c1.558-0.259,3.25-0.544,2.86-2.828c-0.181-1.062,0.486-1.393,1.308-1.687
		C286.783,331.691,287.665,332.119,288.268,330.662z M181.074,166.865c-1.496,0.382-3.492,0.096-3.106,2.092
		c0.263,1.358,0.034,2.173-0.631,3.269c-0.819,1.35,0.653,1.761,1.462,2.226c0.832,0.479,1.334,0.035,1.399-0.939
		c0.118-1.749,1.431-1.606,2.658-1.662c1.825-0.082,2.695-1.553,1.526-2.825C183.477,168.041,182.088,167.501,181.074,166.865z
		 M320.724,281.292c0.148-1.162,0.135-2.116-1.245-2.533c-1.215-0.366-2.031-0.032-2.709,0.94c-0.276,0.398-0.59,0.915-1.122,0.746
		c-0.897-0.285-0.187-0.92-0.195-1.407c-0.015-0.72-0.702-0.935-0.909-0.485c-0.599,1.301-1.69,2.717-1.075,4.111
		c0.476,1.082,1.625,2.055,2.713,2.623c0.957,0.5,1.23-1.062,2.031-1.387c0.373-0.15,0.756-0.293,1.148-0.375
		C320.652,283.253,321.58,282.782,320.724,281.292z M201.984,285.486c0.869,0.024,1.585-0.104,1.88-0.934
		c0.337-0.941-0.521-1.212-1.011-1.705c-1.053-1.064-2.926-0.599-3.754-2.015c-0.564-0.964-0.93-2.331-2.407-1.81
		c-1.659,0.586-0.353,1.957-0.507,2.955c-0.154,1.006,0.352,1.873,0.919,2.688c0.407,0.584,0.941,0.96,1.636,0.782
		C199.871,285.164,200.972,285.136,201.984,285.486z M352.061,339.266c0.813,0.096,1.453,0.25,2.087,0.227
		c0.87-0.032,1.598-0.76,1.051-1.391c-0.918-1.059-1.509-2.013-1.564-3.482c-0.028-0.76-1.116-1.04-2.004-0.771
		c-1.283,0.385-2.324,1.293-3.829,1.299c-0.971,0.004-0.7,1.535-0.315,1.705C349.123,337.574,349.443,340.917,352.061,339.266z
		 M255.247,329.098c-1.654,0.449-2.849,0.823-2.462,3.075c0.195,1.142-0.494,2.405,1.107,2.894c1.933,0.592,4,1.977,5.797-0.09
		c1.109-1.273-0.638-1.899-1.051-2.828c-0.171-0.385-0.937-0.424-0.91,0.031c0.065,1.236-0.199,1.653-1.361,0.945
		c-0.996-0.607-0.689-1.164-0.08-1.947C257.369,329.786,256.248,329.418,255.247,329.098z M348.926,260.128
		c0.976-0.021,3.115-2.219,2.701-2.91c-0.871-1.456-1.316-3.27-3.1-4.065c-0.609-0.272-1.211-0.674-1.744-0.073
		c-0.575,0.647-0.108,1.203,0.424,1.623c1.52,1.2,0.584,2.172-0.197,3.258c-0.481,0.67-2.024-0.118-1.75,1.099
		c0.263,1.155,1.504,0.448,2.31,0.604C348.033,259.752,348.474,259.971,348.926,260.128z M163.268,231.083
		c-0.176,0.122-0.49,0.254-0.681,0.487c-1.284,1.566-1.767,3.466-1.706,5.395c0.04,1.243,1.246,1.328,1.939,0.59
		c0.789-0.839,1.547-1.268,2.687-1.225c0.472,0.018,0.911-0.363,0.944-0.931c0.025-0.449-0.258-0.791-0.656-0.914
		c-1.244-0.384-1.947-1.035-1.586-2.474C164.342,231.485,164.019,231.085,163.268,231.083z"/>
	<path d="M174.744,94.117c-2.159-0.441-2.412-1.02-1.102-2.521c1.961-2.247,5.352-2.244,7.395,0.049
		c0.7,0.786,1.504,1.774,0.596,2.765c-0.916,0.999-1.907,0.051-2.492-0.569c-1.682-1.78-3.084-1.8-4.424,0.3
		C174.716,94.14,174.744,94.117,174.744,94.117z"/>
	<path fill="none" d="M214.793,175.541c0.383-1.266-0.303-2.019-1.506-2.154c-1.227-0.137-1.037,0.949-1.116,1.717
		c-0.073,0.718,0.005,1.649-0.889,1.785c-1.272,0.194-1.345-1.182-1.937-1.857c-0.478-0.545-0.899-1.365,0.074-1.816
		c1.067-0.495,1.165-1.25,1.305-2.305c0.24-1.816,2.164-2.224,3.423-2.445c1.196-0.21,2.57,0.343,3.949-0.055
		c0.638-0.185,1.376,0.445,1.79,1.062c0.495,0.737-0.102,1.14-0.598,1.59c-1.294,1.177-1.291,2.66-0.975,4.242
		c0.242,1.211,0.115,2.406-1.455,2.488C215.471,177.866,214.459,177.308,214.793,175.541z"/>
	<path fill="none" d="M206.233,327.475c2.052,0.529,4.089,1.256,5.912,2.496c0.937,0.637,0.707,1.25,0.052,1.98
		c-0.954,1.064-2.033,1.998-2.688,3.359c-0.539,1.123-5.998,0.762-6.496-0.388c-0.571-1.313-0.236-2.649,1.014-3.304
		c1.115-0.584,1.158-1.107,0.643-2.068C203.791,327.911,204.846,327.6,206.233,327.475z"/>
	<path fill="none" d="M218.325,202.914c-1.05,1.674,0.157,3.057,0.052,4.597c-0.088,1.274,0.845,0.586,1.472,0.183
		c0.597-0.385,0.7-2.207,1.784-1.006c0.715,0.792,1.163,2.273,0.023,3.31c-1.184,1.076-2.478,2.035-3.769,2.982
		c-0.401,0.294-1.208,0.265-1.295-0.159c-0.373-1.825-1.962-2.049-3.21-2.833c-1.604-1.008-1.428-2.501,0.205-3.639
		c0.318-0.222,0.836-0.564,0.812-0.809C214.133,202.75,216.074,202.964,218.325,202.914z"/>
	<path fill="none" d="M231.093,275.48c0.332,0.039,0.942-0.07,1.271,0.184c1.462,1.135,2.725,2.104,3.537-0.645
		c0.178-0.603,1.141-0.471,1.75-0.156c0.394,0.203,0.596,0.621,0.35,1.021c-1.432,2.33-1.765,5.256-4.512,6.897
		c-1.963,1.173-2.812-0.496-4.122-0.9c-1.126-0.348-1.502-1.233-0.995-2.522c0.268-0.68-0.125-1.594-0.029-2.377
		C228.535,275.412,229.803,275.52,231.093,275.48z"/>
	<path fill="none" d="M247.941,124.703c-0.535,0.073-0.857,0.431-1.066,0.88c-0.318,0.68-0.584,1.434,0.196,1.95
		c1.179,0.778,0.812,1.636,0.161,2.439c-0.477,0.589-1.602,0.558-1.499-0.072c0.347-2.164-1.782-4.347,0.388-6.56
		c1.308-1.332,3.119-1.455,4.43-2.642c0.444-0.402,1.342,0.342,1.826,0.887c1.166,1.314,1.1,3.257,2.479,4.613
		c0.461,0.454-1.104,2.227-0.84,3.731c0.078,0.442-1.027,0.374-1.382-0.086c-1.19-1.548-3.519-2.075-3.886-4.359
		C248.684,125.082,248.412,124.758,247.941,124.703z"/>
	<path fill="none" d="M168.881,348.93c1.399,1.652-0.81,4.068,0.509,6.439c0.508,0.914-0.804,1.232-1.606,0.84
		c-1.16-0.566-2.21-1.344-3.629-0.979c-0.234,0.062-0.621-0.16-0.833-0.362c-1.005-0.961-1.927-5.892-1.444-7.2
		c0.195-0.531,0.48-0.837,1.023-0.835c0.508,0.003,1.133,0.2,1.119,0.719c-0.074,3.192,1.682,0.83,2.57,0.813
		c0.494-0.01,0.951-0.592,1.477-0.752C168.57,347.461,169.055,347.621,168.881,348.93z"/>
	<path fill="none" d="M239.73,219.916c0.722,0.543,2.28,0.285,1.67,1.422c-0.733,1.367-0.135,3.718-2.516,3.974
		c-1.115,0.12-2.279,0.124-3.383-0.057c-1.582-0.258-2.246-1.261-1.543-2.813c0.727-1.607,1.543-3.164,1.211-5.027
		c-0.072-0.406,0.082-0.842,0.565-0.938c0.655-0.13,1.069,0.298,1.38,0.782c0.629,0.98,1.273,1.974,2.229,0.349
		c0.454-0.772,0.821-1.562,1.774-0.769c0.895,0.747,0.585,1.581-0.195,2.263C240.624,219.362,240.266,219.555,239.73,219.916z"/>
	<path fill="none" d="M149.873,256.807c-0.735,0-1.145,0.084-1.193-0.013c-0.924-1.868-2.934-2.706-4.07-4.308
		c-0.489-0.688,0.654-0.87,1.154-1.194c0.865-0.56,2.511-0.924,0.602-2.236c-0.414-0.285-0.482-0.644-0.111-0.993
		c0.503-0.471,1.199-0.834,1.738-0.323c1.355,1.285,2.815,1.646,4.644,1.233c0.88-0.198,1.852,0.362,2.089,1.3
		c0.243,0.959-0.759,1.341-1.396,1.75c-0.521,0.336-1.197,0.438-1.809,0.629c-0.793,0.248-1.039,0.63-0.534,1.422
		c0.321,0.505,1.634,0.503,0.88,1.588C151.264,256.527,150.497,257.052,149.873,256.807z"/>
	<path fill="none" d="M159.436,299.695c0.209-0.723-0.402-1.383-0.382-2.033c0.045-1.46-1.306-3.934,2.071-3.479
		c0.647,0.088,0.918-0.584,1.387-0.861c0.967-0.574,1.857-0.424,2.58,0.445c0.621,0.746,0.97,1.439-0.061,2.234
		c-1,0.771-0.643,1.508,0.334,2.062c0.682,0.387,1.23,0.908,0.861,1.748c-0.43,0.982-1.242,0.84-2.056,0.51
		c-0.786-0.32-1.437-0.33-1.604,0.725c-0.154,0.969,0.152,2.52-1.415,2.229c-1.383-0.258-1.856-1.639-1.787-3.055
		C159.372,300.061,159.407,299.9,159.436,299.695z"/>
	<path fill="none" d="M303.562,174.338c0.869,2.231-1.597,2.294-2.635,3.189c-0.869,0.75-2.369,0.797-3.607,1.076
		c-0.586,0.132-1.039-0.021-1.174-0.813c-0.322-1.902-0.793-3.77-1.856-5.433c-0.474-0.739-0.013-1.414,0.343-2.022
		c0.484-0.831,1.338-0.688,1.907-0.279c1.138,0.817,3.187,0.481,3.122,2.952c-0.029,1.168,1.32,0.548,2.07,0.043
		C303.105,172.123,303.846,172.287,303.562,174.338z"/>
	<path fill="none" d="M172.275,198.597c-2.678,0.204-3.379,1.088-2.002,2.959c0.259,0.351,0.303,0.744,0.078,1.129
		c-0.519,0.884-1.404,0.846-2.141,0.584c-1.195-0.425-3.504,0.391-3.417-1.339c0.114-2.265-0.89-4.65,0.4-6.848
		c0.392-0.667,0.459-1.675,1.526-1.613c0.998,0.058,2.168,0.432,2.344,1.4C169.377,196.591,170.711,197.311,172.275,198.597z"/>
	<path fill="none" d="M292.104,198.309c0.694-1.205,1.533-0.961,2.19-1.181c1.521-0.508,2.46-1.495,1.746-3.089
		c-0.582-1.302-0.043-1.737,0.978-2.156c1.063-0.438,2.264-1.047,2.942,0.348c0.715,1.474,1.707,1.994,3.272,1.835
		c0.848-0.086,1.834,0.256,1.635,1.249c-0.189,0.936-1.12,0.681-1.799,0.301c-0.87-0.488-1.698-0.321-2.547,0.054
		c-1.265,0.559-1.307,1.315-0.352,2.197c0.574,0.531,1.072,1.043,0.452,1.835c-0.562,0.717-1.212,0.378-1.953,0.277
		C296.464,199.678,294.584,198.335,292.104,198.309z"/>
	<path fill="none" d="M132.201,234.495c0.715,0.218,1.422,0.085,2.148,0.027c2.443-0.193,3.435,0.84,3.107,3.194
		c-0.122,0.88,0.371,1.535,0.619,2.287c0.205,0.62,0.332,1.333-0.316,1.752c-0.559,0.36-0.83-0.256-1.158-0.57
		c-1.023-0.982-1.887-0.652-2.623,0.349c-0.633,0.86-1.389,1.617-2.328,0.604c-0.969-1.045,0.246-1.484,0.857-2.034
		c1.485-1.338,0.678-1.924-0.721-2.501c-0.916-0.378-1.684-1.108-1.35-2.257C130.676,234.533,131.391,234.323,132.201,234.495z"/>
	<path fill="none" d="M293.593,227.942c1.216,0.326,2.571,0.358,4.023-0.273c0.931-0.405,1.792,0.48,1.062,1.332
		c-1.727,2.011-0.031,3.236,0.785,4.669c0.346,0.606,1.166,1.075,0.396,1.849c-0.639,0.644-1.457,0.674-2.258,0.32
		c-2.844-1.26-4.25-3.83-5.58-6.39C291.427,228.303,292.246,227.848,293.593,227.942z"/>
	<path fill="none" d="M288.268,330.662c-0.603,1.457-1.483,1.029-2.106,1.254c-0.82,0.294-1.487,0.624-1.308,1.688
		c0.39,2.283-1.304,2.568-2.86,2.826c-1.873,0.312-3.05-0.311-2.595-2.484c0.142-0.672-0.907-1.58-0.358-1.668
		c1.899-0.308,1.839-2.6,3.442-3.033c0.289-0.078,0.808-0.102,0.91,0.055C284.512,331.004,286.148,331.369,288.268,330.662z"/>
	<path fill="none" d="M181.074,166.865c1.014,0.636,2.402,1.176,3.309,2.161c1.169,1.272,0.299,2.743-1.526,2.825
		c-1.228,0.055-2.54-0.087-2.658,1.662c-0.065,0.974-0.567,1.419-1.399,0.939c-0.809-0.464-2.281-0.875-1.462-2.226
		c0.665-1.096,0.894-1.911,0.631-3.269C177.582,166.961,179.578,167.248,181.074,166.865z"/>
	<path fill="none" d="M320.724,281.292c0.856,1.49-0.07,1.961-1.363,2.233c-0.394,0.082-0.775,0.225-1.148,0.375
		c-0.801,0.324-1.074,1.887-2.031,1.387c-1.088-0.568-2.237-1.541-2.713-2.623c-0.615-1.396,0.478-2.812,1.075-4.111
		c0.207-0.449,0.896-0.232,0.909,0.485c0.01,0.487-0.702,1.122,0.194,1.407c0.533,0.169,0.847-0.348,1.123-0.746
		c0.678-0.973,1.494-1.309,2.709-0.94C320.857,279.176,320.872,280.13,320.724,281.292z"/>
	<path fill="none" d="M201.984,285.486c-1.013-0.352-2.113-0.322-3.244-0.035c-0.694,0.178-1.229-0.198-1.636-0.782
		c-0.567-0.815-1.073-1.683-0.919-2.688c0.154-0.998-1.152-2.369,0.507-2.955c1.478-0.521,1.843,0.846,2.407,1.81
		c0.828,1.416,2.701,0.949,3.754,2.015c0.489,0.493,1.348,0.764,1.011,1.705C203.569,285.382,202.854,285.512,201.984,285.486z"/>
	<path fill="none" d="M352.061,339.266c-2.616,1.651-2.938-1.69-4.576-2.414c-0.385-0.17-0.654-1.701,0.315-1.705
		c1.505-0.006,2.546-0.914,3.829-1.301c0.888-0.268,1.976,0.014,2.004,0.772c0.057,1.471,0.646,2.425,1.564,3.483
		c0.547,0.629-0.181,1.356-1.051,1.39C353.514,339.516,352.874,339.359,352.061,339.266z"/>
	<path fill="none" d="M255.247,329.098c1.001,0.32,2.122,0.688,1.04,2.08c-0.609,0.783-0.916,1.34,0.08,1.947
		c1.162,0.708,1.428,0.291,1.361-0.946c-0.025-0.454,0.739-0.415,0.91-0.03c0.413,0.929,2.16,1.555,1.051,2.828
		c-1.797,2.065-3.864,0.682-5.797,0.09c-1.603-0.487-0.912-1.752-1.107-2.894C252.398,329.921,253.593,329.547,255.247,329.098z"/>
	<path fill="none" d="M348.926,260.129c-0.452-0.158-0.893-0.377-1.356-0.467c-0.806-0.156-2.047,0.551-2.31-0.605
		c-0.274-1.216,1.269-0.428,1.75-1.098c0.781-1.086,1.717-2.059,0.197-3.258c-0.532-0.42-0.999-0.977-0.424-1.623
		c0.533-0.6,1.135-0.199,1.744,0.072c1.782,0.798,2.229,2.61,3.1,4.066C352.041,257.909,349.9,260.107,348.926,260.129z"/>
	<path fill="none" d="M163.268,231.083c0.751,0.001,1.074,0.401,0.941,0.928c-0.361,1.439,0.342,2.09,1.586,2.474
		c0.398,0.123,0.682,0.465,0.656,0.914c-0.033,0.567-0.473,0.949-0.944,0.931c-1.14-0.042-1.897,0.386-2.687,1.225
		c-0.693,0.738-1.899,0.653-1.939-0.59c-0.061-1.928,0.422-3.829,1.706-5.395C162.777,231.338,163.092,231.206,163.268,231.083z"/>
	<path fill="none" d="M441.199,298.514c-0.268,0.238-0.469,0.578-0.711,0.61c-1.734,0.228-3.364,1.665-5.267,0.127
		c-0.983-0.795-2.465-0.616-3.758-0.646c-3.787-0.086-7.405-0.64-10.138-3.65c-2.472,0.504-1.52-3.239-3.862-3.121
		c-0.477,0.023-0.424-1.379-0.204-1.952c0.292-0.764,0.981-0.2,1.393,0.095c1.948,1.396,3.906,2.785,5.771,4.287
		c0.729,0.586,1.479,0.91,2.354,1.137c3.824,0.992,7.614,2.101,11.655,1.822C439.392,297.156,440.558,297.268,441.199,298.514z"/>
</g>
</svg>
