<?xml version="1.0" encoding="utf-8"?>
<!-- Generator: Adobe Illustrator 16.0.0, SVG Export Plug-In . SVG Version: 6.00 Build 0)  -->
<!DOCTYPE svg PUBLIC "-//W3C//DTD SVG 1.1//EN" "http://www.w3.org/Graphics/SVG/1.1/DTD/svg11.dtd">
<svg version="1.1" id="Layer_1" xmlns="http://www.w3.org/2000/svg" xmlns:xlink="http://www.w3.org/1999/xlink" x="0px" y="0px"
	 width="500px" height="500px" viewBox="0 0 500 500" enable-background="new 0 0 500 500" xml:space="preserve">
<circle fill="#FFFFFF" cx="249.316" cy="249.316" r="249.316"/>
<path fill="#FFFFFF" d="M247.09,10C117.862,10,13.102,114.76,13.102,243.988c0,64.298,25.941,122.533,67.92,164.826
	c11.012-10.59,21.873-21.341,33.272-31.52c7.012-6.261,17.48-6.931,24.411,0c6.369,6.369,7.021,18.143,0,24.412
	c-10.799,9.642-21.113,19.798-31.531,29.845c39.025,29.158,87.454,46.425,139.916,46.425c41.376,0,80.233-10.752,113.955-29.597
	c0.796-5.19,3.173-9.903,4.476-15.125c0.069-0.308,0.125-0.544,0.173-0.746c0.04-0.442,0.088-0.884,0.119-1.326
	c0.075-1.258,0.154-2.519,0.146-3.778c-0.008-1.203-0.022-2.41-0.105-3.611c-0.057-0.374-0.119-0.74-0.176-0.979
	c-0.23-0.964-0.474-1.93-0.776-2.876c-0.149-0.321-0.304-0.637-0.43-0.85c-0.339-0.572-1.167-1.588-1.592-2.109
	c-0.276-0.279-0.556-0.556-0.852-0.815c-0.361-0.242-0.717-0.493-1.088-0.721c-1.045-0.616-2.095-1.23-3.195-1.745
	c-0.085-0.04-0.158-0.074-0.232-0.109c-0.146-0.048-0.307-0.102-0.498-0.166c-1.36-0.461-2.722-0.883-4.103-1.276
	c-3.118-0.889-5.803-2.617-7.899-4.856c-16.002,4.93-32.52,6.602-49.101-0.144c-7.24-2.945-12.673-8.274-12.673-16.645
	c0-6.38,3.165-10.999,7.879-14.136c0.162-0.812,0.402-1.63,0.738-2.453c4.572-11.194,11.064-24.412,22.922-29.562
	c5.475-2.378,11.19-3.812,16.942-3.908c-1.016-4.285-0.562-9.076,1.876-12.653c4.829-7.092,10.698-13.515,18.664-17.085
	c7.488-3.355,15.097-4.679,23.284-5.132c3.044-0.169,6.096-0.252,9.136-0.486c0.811-0.063,5.15-0.716,3.53-0.396
	c0.884-0.165,1.765-0.342,2.632-0.577c0.913-0.231,1.817-0.493,2.713-0.785c-2.437,1.117-2.992,1.378-1.668,0.782
	c0.662-0.301,1.323-0.604,1.986-0.904c2.701-1.222,5.426-2.391,8.171-3.511c11.064-4.513,23.511-6.358,34.58-0.823
	c10.938,5.472,19.198,20.982,14.355,33.049c-3.709,9.24-10.382,16.081-18.195,21.733c1.824,3.087,3.563,6.228,5.237,9.397
	c0.083-1.516,0.159-3.033,0.217-4.551c0.36-9.399,7.58-17.262,17.262-17.262c1.427,0,2.832,0.212,4.195,0.57
	c13.719-29.766,21.383-62.896,21.383-97.821C481.078,114.76,376.318,10,247.09,10z"/>
<g>
	<path fill="#FFFFFF" d="M404.393,297.548c-1.892,0.882-3.662,1.97-5.153,3.32c0.934-0.395,1.866-0.791,2.805-1.174
		c2.584-1.054,5.244-1.953,7.943-2.656C408.06,296.623,406.125,296.739,404.393,297.548z"/>
	<path fill="#FFFFFF" d="M282.393,290.209c-1.633,3.41-4.354,5.758-6.438,8.609c-0.485,0.664-1.772,1.434-0.958,2.232
		c0.732,0.723,1.582-0.461,2.259-0.968c0.791-0.591,1.444-1.362,2.172-2.041c0.679-0.633,1.431-1.088,2.4-1.183
		c2.147-0.209,3.194-2.191,2.177-4.127C283.598,291.962,283.066,291.256,282.393,290.209z"/>
	<path fill="#FFFFFF" d="M71.268,207.46c0.992-1.185,1.552-1.033,1.867,0.465c0.153,0.731,0.65,1.225,1.431,1.008
		c0.932-0.261,1.533-0.928,1.719-1.876c-0.021-1.105-1.232-1.578-1.268-2.663c-0.021-0.675-0.291-1.343-1.088-1.46
		c-0.928-0.137-1.601,0.336-2.025,1.121c-0.396,0.732-0.707,1.494-1.69,1.633c-0.775,0.109-1.46,0.417-1.549,1.33
		c-0.043,0.439,0.171,0.808,0.599,0.983C70.062,208.327,70.759,208.069,71.268,207.46z"/>
	<path fill="#FFFFFF" d="M416.475,262.273c-0.438-0.359-1.023-0.363-1.386-0.012c-1.169,1.143-2.427,2.258-2.66,3.768
		c0.089,1.719,0.452,3.035,2.195,3.057c1.741,0.021,2.05-1.219,1.722-2.605c-0.243-1.032,0.478-1.731,0.62-2.61
		C417.064,263.27,416.975,262.682,416.475,262.273z"/>
	<path fill="#FFFFFF" d="M170.846,54.005c3.697,0.238,1.271-3.214,2.418-4.526c0.176-1.284-0.256-2.051-1.506-2.196
		c-1.117-0.131-4.41,2.885-4.381,4.251C167.421,53.708,169.609,53.925,170.846,54.005z"/>
	<path fill="#FFFFFF" d="M407.518,177.36c-0.371,0.352-0.78,0.746-0.356,1.261c0.303,0.367,0.736,0.831,1.141,0.861
		c0.602,0.045,0.632-0.657,0.759-1.118c0.247-0.908,0.901-1.587,1.308-2.392c2.837-5.617,6.901-10.628,8.271-16.975
		c0.674-3.115,0.464-6.201-0.539-9.111c-0.664-1.928-3.2-1.449-4.702-2.44c-0.205-0.135-0.46-0.194-0.687-0.301
		c-1.172-0.558-1.744-2.225-1.229-2.615c1.131-0.86,0.961-3.231,3.065-2.818c1.517,0.297,2.577-0.413,3.523-1.372
		c0.446-0.453,0.424-1.364-0.097-1.552c-1.686-0.609-2.858-3.294-4.582-2.299c-1.479,0.855-3.682,2.178-3.543,4.409
		c0.13,2.066-1.184,2.496-2.457,3.2c-0.425,0.235-0.919,0.661-1.334,0.164c-0.418-0.5,0.043-0.979,0.421-1.25
		c1.699-1.226,2.026-3.168,2.655-4.95c0.302-0.856,0.032-1.549-0.926-1.65c-0.88-0.093-1.129,0.53-1.047,1.31
		c0.035,0.331,0.137,0.66,0.127,0.988c-0.023,0.765-0.407,1.304-1.207,1.302c-0.865-0.001-0.748-0.67-0.75-1.27
		c-0.006-1.561-0.469-3.124,0.235-4.672c0.351-0.771,0.057-1.471-0.723-1.898c-0.785-0.431-1.432-0.324-1.9,0.49
		c-0.267,0.46-0.681,0.699-1.194,0.822c-1.57,0.377-1.507,1.578-0.885,2.514c0.753,1.131,1.565,2.075,0.974,3.553
		c-0.155,0.388,0.259,0.742,0.63,0.979c0.435,0.276,1.387,0.261,0.975,1.095c-0.397,0.805-1.335,0.884-1.953,0.379
		c-2.227-1.818-4.661,2.125-6.829-0.302c-0.038-0.043-0.473,0.165-0.621,0.341c-0.809,0.958-1.356,0.408-2.025-0.221
		c-1.252-1.176-2.566-1.572-3.842,0.028c-0.264,0.331-0.633,0.665-1.058,0.373c-0.54-0.371-0.403-0.959,0.001-1.28
		c2.755-2.184,3.832-6.351,8.045-6.812c0.747-0.082,1.226-0.51,1.291-1.289c0.057-0.688-0.072-1.734-0.715-1.649
		c-2.304,0.304-2.98-1.916-4.857-2.497c1.165-0.782,2.045-0.793,3.086-0.425c1.164,0.412,2.41,0.651,3.643,0.796
		c0.902,0.106,1.755-0.306,1.65-1.382c-0.094-0.988-0.848-0.775-1.528-0.533c-1.479,0.527-1.872-0.86-2.468-1.6
		c-0.817-1.019,0.395-1.139,0.957-1.492c0.567-0.354,0.931-1.286,0.594-1.424c-1.868-0.763-1.249-3.332-3.19-4.05
		c-1.492-0.553-1.021-2.221-0.992-3.265c0.033-1.196,1.434-1.152,2.433-1.021c0.562,0.073,1.079,0.433,1.641,0.574
		c1.491,0.375,2.396-0.059,1.912-1.753c-0.562-1.969-1.146-3.66-3.424-4.792c-1.646-0.819-3.197-0.508-5.022-0.835
		c0.953-1.24,1.967-1.639,3.095-1.99c1.175-0.367,2.143-1.65,0.976-2.352c-1.711-1.028-1.295-3.879-3.793-3.986
		c-0.142-0.006-0.355-0.557-0.368-0.861c-0.047-1.176-0.452-2.08-1.562-2.635c-0.435-0.217-0.93-0.609-0.668-1.175
		c0.27-0.579,0.861-0.28,1.334-0.24c2.757,0.232,2.816,0.159,2.113-2.586c-0.164-0.64-0.52-1.36,0.078-1.873
		c0.592-0.507,1.036,0.192,1.519,0.445c0.694,0.364,1.445,0.644,2.085,0.03c0.707-0.678,0.291-1.416-0.209-1.995
		c-0.737-0.855-1.086-2.185-2.44-2.336c-1.479-0.165-1.004,1.688-2.207,2.337c-0.064-1.492-0.291-2.724-1.584-3.365
		c-0.545-0.271-0.446-0.732-0.369-1.281c0.4-2.85,0.123-3.042-2.643-2.012c-0.378,0.141-0.772,0.36-1.296-0.329
		c1.089-1.365,2.355-1.933,4.207-1.457c1.615,0.415,2.435-0.401,1.48-1.853c-0.957-1.456-0.262-2.044,0.748-2.82
		c0.759-0.584,1.6-0.814,2.495-1.05c1.068-0.28,1.7-1.178,0.83-2.03c-1.387-1.359-2.387-2.952-3.512-4.486
		c-0.736-1.007-1.961-1.396-2.438,0.214c-0.906,3.047-3.928,4.174-5.636,6.504c-0.831,1.132-3.149,0.851-3.868,0.119
		c-0.828-0.845,0.789-1.858,1.581-2.6c0.539-0.505,1.501-0.838,1.092-1.706c-0.786-1.669-0.542-3.414-0.745-5.132
		c-0.234-1.963-1.798-3.36-3.349-4.02c-1.576-0.67-1.437,1.649-2.297,2.354c-1.654,1.354-1.938,4.979-5.508,3.362
		c-0.827-0.375-1.291-0.979-1.907-1.502c-0.558-0.47-1.221-0.604-1.837-0.152c-0.544,0.397-0.712,1.163-0.268,1.544
		c2.75,2.359-0.896,3.264-0.896,5.068c-0.458-0.183-0.569-0.411-0.717-0.615c-0.532-0.745-1.053-1.671-2.129-1.435
		c-1.121,0.246-0.668,1.345-0.868,2.096c-0.22,0.822-0.595,1.552-1.96,1.593c1.358-2.541-0.013-4.48-1.109-6.504
		c-0.453-0.836-0.905-1.776,0.734-1.903c1.867-0.144,1.882-1.162,0.847-2.285c-0.943-1.023-1.14-1.587,0.449-1.966
		c0.936-0.223,1.368-0.938,1.218-1.896c-0.159-1.003-0.894-1.345-1.814-1.347c-0.661-0.001-1.333,0.167-1.949-0.218
		c-0.53-0.333-0.997-0.75-0.585-1.404c0.33-0.521,0.844-0.414,1.294-0.062c0.325,0.254,0.614,0.589,0.981,0.749
		c0.667,0.292,1.356,0.233,1.734-0.474c0.35-0.653-0.076-1.151-0.609-1.44c-1.389-0.751-2.004-2.321-3.67-2.989
		c1.536-1.162,3.219-1.529,4.321-3.145c0.565,1.506,1.033,2.818,2.718,2c0.771-0.375,1.467-0.95,1.387-1.902
		c-0.106-1.275-1.069-2.034-2.007-2.732c-0.777-0.58-1.396-0.076-1.979,0.447c-1.173,1.048-2.312,1.909-3.935,0.618
		c-0.942-0.75-1.393,0.055-1.842,0.878c-1.211,2.221-1.958,2.315-3.531,0.483c-0.483-0.564-0.906-0.938-1.68-0.654
		c-0.535,0.195-1.006,1.203-1.659,0.261c-0.511-0.736-0.585-1.604,0.013-2.333c0.746-0.906,0.904-2.125,1.805-2.968
		c0.957-0.896,0.859-1.997-0.135-2.817c-0.842-0.694-1.645-1.374-2.252-2.302c-0.495-0.757-1.248-0.771-1.973-0.291
		c-0.719,0.478-0.629,1.074-0.186,1.716c0.813,1.178,0.88,2.86,2.548,3.539c-1.2,0.094-2.401-0.367-3.273-0.015
		c-1.862,0.751-2.743,0.189-3.333-1.541c-0.225-0.659-0.812-1.07-1.567-1.023c-0.871,0.055-1.478,0.638-1.526,1.41
		c-0.157,2.414-3.655,4.229-0.931,7.19c-1.506-0.735-2.783-1.315-2.488-2.987c0.258-1.469-0.59-1.628-1.724-1.755
		c-1.901-0.213-3.446,0.843-5.149,1.22c-3.156,0.698-3.226,0.446-2.123,3.654c0.852,2.481,1.48,4.595-1.164,6.822
		c-1.547,1.302-3.706,3.937-0.252,6.137c0.54,0.344,0.496,1.033-0.027,1.524c-0.454,0.427-1.033,0.769-1.538,0.23
		c-1.22-1.301-2.184-0.755-3.136,0.299c-0.328,0.362-0.67,0.954-1.195,0.617c-0.639-0.408-0.256-1.043-0.006-1.562
		c0.445-0.924,0.62-1.751-0.571-2.263c-0.478-0.205-1.342-0.002-1.23-0.889c0.082-0.659,0.747-0.817,1.297-1.026
		c3.267-1.244,4.213-4.412,2.143-7.289c-0.581-0.807-1.309-1.509-1.965-2.262c-0.352-0.405-0.572-0.895-0.231-1.356
		c0.418-0.567,0.877-0.147,1.301,0.097c1.119,0.643,2.451,0.831,2.146-0.877c-0.389-2.171-1.392-4.243-2.235-6.314
		c-0.274-0.674-1.024-0.823-1.731-0.554c-0.653,0.248-0.821,0.791-0.688,1.427c0.115,0.548,0.285,1.085,0.431,1.627
		c-0.874-0.844-1.812-1.292-3.068-1.067c0.332-1.227,1.446-2.162,0.473-3.221c-0.637-0.691-1.592-0.589-2.338-0.197
		c-1.103,0.578-1.826,1.457-1.354,2.853c0.075,0.22,0.132,0.632,0.03,0.698c-2.411,1.563-2,4.608-3.504,6.645
		c-0.371,0.502-0.909,1.192-1.333,0.799c-1.954-1.812-3.753-0.61-5.62,0.047c-0.368,0.13-0.861,0.233-1.191,0.096
		c-2.942-1.218-3.635-5.686-1.227-7.888c0.688-0.629,0.975-1.332,0.748-2.225c-0.188-0.738-0.738-1.288-1.441-1.081
		c-1.561,0.458-3.445,0.509-4.392,2.044c-0.845,1.374-0.333,2.704,0.888,3.773c0.686,0.599,0.312,1.258-0.203,1.723
		c-0.67,0.604-0.971-0.062-1.369-0.49c-1.312-1.409-2.612-1.438-2.989-0.054c-0.163,0.596,0.106,1.299,0.106,1.954
		c0,0.305-0.09,0.695-0.291,0.893c-0.271,0.267-0.654,0.095-0.838-0.206c-1.213-1.986-3.883-2.714-4.426-5.354
		c-0.179-0.871-1.107-1.64-1.811-2.339c-0.697-0.695-1.87-0.763-2.006,0.237c-0.404,2.99-2.943,2.432-4.709,3.095
		c-0.766,0.287-1.873,0.167-2.014,1.134c-0.217,1.496-0.861,2.854-1.117,4.31c-0.177,0.997,0.658,2.7-0.578,2.826
		c-1.16,0.118-1.89-1.564-2.463-2.732c-0.179-0.363-0.181-0.81-0.279-1.215c-0.381-1.555-1.375-2.254-2.723-1.277
		c-1.257,0.909-1.744,0.328-2.316-0.623c-0.697-1.159-1.025-2.306,0.104-3.4c0.421-0.407,0.737-0.337,1.261,0.026
		c1.567,1.09,3.647,0.058,3.799-1.838c0.092-1.159-0.604-2.058-1.604-1.327c-1.455,1.062-2.521-0.085-3.648-0.308
		c-1.324-0.262-2.157-2.886-1.348-2.999c4.139-0.577,2.457-3.697,2.528-5.863c0.06-1.758-1.71-1.902-2.99-1.942
		c-1.608-0.051-1.058,1.199-1.083,2.176c-0.031,1.238,0.186,3.324-1.484,3.103c-2.305-0.306-2.889,0.607-3.491,2.425
		c-0.734,2.218-3.144,3.072-4.394,1.773c2.769-0.738,3.354-1.553,2.743-4.167c-0.184-0.784-0.221-1.26,0.606-1.569
		c1.259-0.47,1.863-1.369,1.604-2.729c-0.152-0.801-0.666-1.316-1.449-1.562c-1.477-0.463-1.604,1.117-2.602,1.78
		c-0.259-1.385-0.777-2.476-2.34-2.397c0.623-0.861,1.146-1.769,2.355-2.027c1.465-0.313,1.771-1.429,1.287-2.674
		c-0.617-1.59-1.832-1.074-2.884-0.541c-1.17,0.593-2.204,1.547-3.427,1.921c-1.647,0.504-2.835,1.325-2.494,3.066
		c0.372,1.904,2.049,1.102,3.28,1.102c-0.402,2.413-1.644,2.376-3.333,1.17c-0.732-0.523-1.55-0.724-2.262,0.017
		c-0.524,0.546-0.45,1.217-0.11,1.855c0.303,0.569,0.846,0.701,1.427,0.875c2.348,0.704,2.468,1.31,1.021,3.237
		c-1.459,1.945-3.701,1.065-5.525,1.677c-1.272,0.428-2.078-0.227-1.113-1.583c0.686-0.962,0.418-1.768,0.213-2.79
		c-0.463-2.319-1.255-4.675-0.504-7.066c0.248-0.792,0.92-1.532,0.053-2.229c-0.846-0.678-1.759-0.273-2.559,0.207
		c-1.258,0.757-2.127,2.088-3.797,2.253c-2.012,0.199-2.006,1.6-1.217,2.899c1.012,1.664,1.873,3.553,4.381,4.154
		c-2.835,0.841-4.594,0.104-5.99-1.955c-0.709-1.045-1.52-2.25-3.215-1.87c-0.539,0.121-1.028-0.432-0.933-0.939
		c0.521-2.771-1.267-4.534-2.638-6.531c-0.909-1.325-2.038-2.451-3.248-3.396c-1.647-1.285-3.275-0.26-4.53,2.544
		c-0.373,0.833-1.015,1.678-0.317,2.547c0.715,0.891,1.498,0.117,2.256-0.12c1.041-0.326,2.163-0.415,2.268,1.021
		c0.102,1.404,0.65,2.186,1.869,2.925c1.102,0.669,1.475,2.162,0.868,3.329c-0.771,1.481-1.872,0.333-2.771-0.081
		c-1.481-0.68-2.742-1.85-4.628-1.432c-1.135,0.252-0.869-0.632-0.645-1.291c0.362-1.069,0.318-2.121-0.902-2.459
		c-1.424-0.396-1.583,0.801-1.772,1.802c-0.122,0.646-0.1,1.439-0.992,1.5c-0.796,0.055-0.788-0.715-0.998-1.224
		c-0.301-0.727-0.874-0.974-1.604-0.904c-0.803,0.077-1.199,0.554-1.121,1.351c0.12,1.238-0.769,1.991-1.377,2.847
		c-0.818,1.149-0.871,2.289-0.332,3.532c0.379,0.874,1.029,1.343,1.969,1.169c1.057-0.195,1.324-0.887,0.924-1.863
		c-0.403-0.981,0.041-1.225,0.932-1.04c1.224,0.254,3.793,3.643,3.313,4.606c-0.776,1.562-3.04,1.909-3.901,1.646
		c-3.014-0.92-2.266,0.891-1.946,2.253c0.362,1.544,0.84,2.828-1.118,3.771c-0.627,0.301-0.967,1.094-1.793,0.514
		c-1.025-0.72-0.409-1.418,0.062-2.122c0.598-0.889,0.963-1.91,0.07-2.72c-0.951-0.863-2.213-0.597-3.34-0.309
		c-0.973,0.248-1.833,1.069-1.512,1.987c0.748,2.142-0.467,4.063-0.406,6.128c0.032,1.087,0.375,3.334-1.206,3.272
		c-1.329-0.052-2.337-1.901-2.873-3.417c-0.129-0.363,0.025-0.823,0.029-1.238c0.01-1.09-0.512-1.959-1.358-2.537
		c-0.879-0.599-1.964-0.708-2.801,0.002c-0.929,0.79-0.275,1.698,0.215,2.451c0.405,0.622,0.974,1.136,1.441,1.721
		c0.377,0.47,0.744,1.039,0.135,1.53c-0.641,0.518-1.049,0.059-1.339-0.531c-0.536-1.087-1.169-1.041-1.875-0.156
		c-1.989,2.493-1.614,5.065,0.833,6.399c-1.496,2.185-6.186,3.074-2.734,7.245c0.314,0.38-0.057,1.031-0.625,1.14
		c-0.812,0.156-0.886-0.479-1.008-1.084c-0.399-1.976-1.176-3.814-3.445-4.021c-2.318-0.211-2.049-1.405-1.46-2.897
		c0.151-0.384,0.433-0.719,0.575-1.104c0.43-1.167-0.276-1.914-1.076-2.552c-0.698-0.558-1.534-0.709-2.338-0.242
		c-1,0.581-0.4,1.377-0.312,2.188c0.192,1.771-0.034,3.368-2.521,3.161c-0.91-0.075-1.617,0.462-1.766,1.427
		c-0.132,0.862,0.44,1.105,1.195,1.244c1.359,0.251,0.665,0.967,0.318,1.622c-0.883,1.665-1.766,3.33-2.581,5.027
		c-0.196,0.41,0.058,1.1-0.597,1.216c-0.706,0.125-0.93-0.552-1.301-0.981c-1.902-2.195-0.559-5.814-3.771-7.337
		c1.098-0.782,2.471,0.04,2.643-1.328c0.138-1.104-0.566-1.96-1.455-2.442c-2.071-1.12-1.283,1.862-2.825,2.033
		c0.495-2.933,0.541-5.565-3.028-6.476c-0.795-0.203-0.801-1.033,0.057-1.459c0.518-0.257,1.096-0.396,1.65-0.576
		c1.135-0.368,1.938-1.048,1.877-2.327c-0.074-1.554-1.374-2.246-2.458-2.927c-0.921-0.579-1.704,0.175-2.378,0.846
		c-1.984,1.978-1.549,4.961-2.993,7.193c-0.385,0.594,0.28,1.366,0.86,1.921c1.061,1.016,2.053,2.103,3.252,3.344
		c-1.054,0.052-1.479-0.382-1.943-0.72c-0.562-0.411-1.164-0.811-1.777-0.191c-0.625,0.632-0.15,1.202,0.24,1.765
		c0.427,0.614,0.84,1.243,1.193,1.9c0.4,0.746,1.397,1.659,0.133,2.306c-1.016,0.52-2.775,0.733-3.096-0.499
		c-0.62-2.385-3.084-3.456-3.566-5.877c-0.301-1.512-1.485-1.385-2.498-0.552c-1.291,1.063-1.162,3.102,0.436,3.997
		c1.923,1.078,2.186,2.849,2.77,4.749c-1.828-0.091-1.946-1.332-2.249-2.431c-0.276-1.006-0.946-1.534-1.998-1.555
		c-0.976-0.019-1.823,0.175-2.202,1.242c-0.154,0.431-0.042,1.056-0.77,1.164c-0.68-0.61-1.194-1.772-2.43-0.923
		c-0.686,0.472-1.036,1.177-0.751,1.952c0.383,1.04,0.961,2.087,2.353,1.535c0.71-0.281,0.924-0.131,0.949,0.539
		c0.045,1.246,1.131,2.425-0.016,3.768c-0.648,0.76-0.193,1.556,0.738,1.987c0.727,0.336,1.635,0.462,1.957,1.761
		c-1.381-0.774-2.298-0.294-3.1,0.724c-0.833,1.057-1.774,1.428-2.951,0.332c-0.767-0.713-1.973-0.88-2.232,0.265
		c-0.414,1.82-2.227,2.513-2.555,4.149c-0.756-0.104-0.801-0.582-0.979-0.937c-0.387-0.771-1-1.173-1.83-0.888
		c-0.993,0.342-1.73,1.043-1.901,2.123c-0.13,0.818,0.267,1.697,1.007,1.814c1.708,0.27,2.805,1.782,4.502,1.989
		c0.583,0.071,1.242,0.232,1.434,0.844c0.312,1.002-0.772,0.863-1.196,1.273c-0.342,0.331-0.693,0.652-1.106,1.039
		c-0.488-1.102-0.272-2.591-1.898-2.694c-1.504-0.096-1.734,0.974-1.901,2.108c-0.077,0.525-0.291,1.021-0.941,0.886
		c-0.54-0.112-0.964-0.585-0.771-1.098c0.667-1.788-1.248-2.135-1.752-3.273c-1.024-2.314-2.323-0.291-3.495-0.063
		c-0.855,0.167-1.681,0.037-2.461-0.225c-1.683-0.563-2.773-0.22-3.056,1.694c-0.06,0.402-0.135,0.902-0.648,0.944
		c-0.7,0.058-0.721-0.54-0.799-1.02c-0.132-0.809-0.058-1.841-1.204-1.866c-1.075-0.024-1.576,0.812-1.818,1.762
		c-0.225,0.882-0.604,1.401-1.565,0.81c-0.513-0.314-1.04-0.66-1.551-0.058c-0.511,0.603-0.383,1.303,0.045,1.847
		c0.765,0.973,0.938,2.056,1.054,3.248c0.152,1.582,1.014,1.789,2.182,0.756c0.568-0.502,1.043-1.07,1.268-1.821
		c0.212-0.712,0.396-1.685,1.429-1.161c0.772,0.392,0.433,1.139-0.003,1.714c-0.404,0.534-0.927,1.088-0.433,1.776
		c0.446,0.623,1.173,0.538,1.839,0.413c0.913-0.171,1.188-0.781,1.118-1.65c-0.079-0.988,0.105-1.89,1.273-2.08
		c0.681-0.11,1.036,0.436,1.298,0.977c0.492,1.019-0.073,1.541-0.926,1.94c-0.666,0.312-1.071,0.829-0.902,1.595
		c0.192,0.873,0.854,1.164,1.68,1.188c0.85,0.024,1.956-0.464,2.122,0.984c0.045,0.393,0.099,1.004-0.116,1.167
		c-1.028,0.783-1.615-0.366-2.385-0.696c-3.329-1.425-5.854-0.514-6.367,2.311c-0.176,0.973,0.005,1.763,0.674,2.53
		c0.646,0.741-0.059,1.929-0.469,1.537c-1.691-1.612-3.469-1.959-5.598-1.396c-0.08,0.021-0.242-0.33-0.346-0.318
		c-1.545,0.171-3.185-1.846-4.579-0.065c-1.424,1.818-3.194,2.221-5.294,2.052c-1.269-0.103-2.392,0.056-2.469,1.696
		c-0.077,1.655-1.197,1.799-2.463,1.691c-1.191-0.102-2.238-0.578-3.209-1.276c-0.67-0.482-1.424-0.63-1.98,0.146
		c-0.478,0.667-0.522,1.526,0.055,2.086c1.217,1.184,2.299,2.671,4.464,1.985c1.513-0.479,2.815-0.098,3.229,1.745
		c0.154,0.688,0.702,1.14,1.269,1.489c0.988,0.609,1.61,1.356,0.671,2.384c-1.141,1.247-1.709-0.108-2.336-0.719
		c-0.599-0.585-1.059-1.362-2.058-1.095c-1.155,0.31-0.777,1.284-0.847,2.071c-0.018,0.207-0.201,0.399-0.775,1.46
		c0.148-2.682-2.354-2.03-2.683-3.766c-0.47-2.474-1.638-1.282-2.489-0.347c-0.719,0.79-1.148,1.812-1.106,2.976
		c0.036,0.979-0.093,1.939-1.312,2.688c0-0.583-0.018-0.89,0.003-1.193c0.062-0.917,0.271-2.039-0.956-2.211
		c-1-0.14-1.567,0.753-1.998,1.605c-0.258,0.51-0.03,1.421-1.088,1.37c-0.331-0.49-0.228-0.968,0.037-1.409
		c0.641-1.068,0.761-2.074-0.44-2.8c-1.268-0.766-1.698,0.17-2.239,1.111c-0.833,1.449-1.996,1.085-2.851,0.087
		c-0.803-0.937-1.53-1.701-2.64-0.667c-1.057,0.985-0.113,1.774,0.477,2.569c0.343,0.46,1.375,0.915,0.477,1.549
		c-0.672,0.473-1.445-0.071-1.91-0.722c-0.234-0.329-0.322-0.761-0.488-1.142c-0.335-0.768-0.892-1.273-1.757-1.03
		c-1.96,0.55-1.725,2.672-2.687,3.954c-0.342,0.456,0.051,1.124,0.656,1.422c0.145,0.071,0.319,0.1,0.482,0.111
		c1.959,0.134,3.719,1.173,5.824,0.901c2.239-0.288,3.126,0.989,2.524,3.205c-0.321,1.184-0.437,2.225,0.93,2.651
		c1.483,0.462,0.862,0.931,0.229,1.678c-1.542,1.821-2.936,3.594-5.41,4.495c-2.89,1.052,2.063,3.295-0.336,4.897
		c-0.26,0.174,0.637,1.78,1.188,1.57c2.768-1.057,3.596,0.182,4.024,2.668c0.097,0.555,0.522,0.83-0.129,1.257
		c-0.944,0.62-1.404,1.49-0.855,2.559c0.545,1.062,1.509,0.635,2.427,0.574c1.795-0.119,3.703-0.215,3.304,2.595
		c-0.151,1.059,0.536,1.478,1.499,1.568c1.438,0.135,2.604-0.362,3.55-1.446c0.324-0.371,0.772-0.862,1.256-0.496
		c0.631,0.479,0.219,1.049-0.193,1.49c-0.738,0.791-1.13,1.663-0.647,2.719c0.285,0.624,0.866,0.754,1.481,0.633
		c1.137-0.223,1.33-1.106,1.407-2.073c0.033-0.427,0.184-0.904,0.684-0.875c0.707,0.041,0.645,0.661,0.596,1.143
		c-0.072,0.723-0.061,1.418-0.747,2.012c-1.742,1.506-6.243,1.996-8.202,0.735c-0.588-0.378-1.178-0.759-1.832-0.33
		c-0.781,0.513-0.562,1.274-0.34,2.024c0.836,2.819-0.838,5.285-1.198,7.939c-0.099,0.727-1.05,1.14-1.846,0.736
		c-0.843-0.427-0.568-1.074-0.052-1.631c0.881-0.95,1.901-2.108,0.528-3.152c-1.456-1.106-2.786-0.063-3.511,1.239
		c-1.345,2.413-3.248,2.991-5.736,2.208c-0.727-0.229-1.374-0.185-1.688,0.567c-1.116,2.671-1.799,5.377-0.39,8.179
		c0.505,1.003,1.245,1.688,2.381,1.164c1.042-0.48,0.6-1.383,0.309-2.171c-0.518-1.4,1.445-4.3,2.881-4.265
		c0.504,0.012,0.783,0.305,0.816,0.763c0.194,2.66,1.787,1.979,3.367,1.458c1.885-0.622,3.733-2.782,5.733-0.099
		c0.4,0.536,1.075,0.171,1.557-0.23c0.34-0.284,0.724-0.469,1.103-0.108c0.369,0.351,0.286,0.82-0.01,1.123
		c-1.391,1.421-1.495,3.464-2.504,5.064c-0.578,0.916-1.447,2.047-0.223,2.834c1.44,0.926,2.303-0.329,2.874-1.48
		c0.629-1.27,0.999-2.837,2.303-3.474c2.497-1.219,3.884-2.867,3.263-5.766c-0.008-0.034,0.259-0.126,0.451-0.216
		c0.762,2.793,1.737,5.309,5.344,5.373c0.824,0.015,1.506,0.995,1.788,1.926c0.147,0.491,0.174,1.059-0.31,1.358
		c-0.48,0.298-0.664-0.257-0.972-0.504c-1.577-1.265-2.868-0.956-2.892,0.906c-0.032,2.63-1.176,2.842-3.299,2.323
		c-1.046-0.255-2.316,0.024-2.823,1.125c-0.524,1.14,0.603,1.743,1.268,2.45c0.839,0.892,2.318,1.304,2.395,3.089
		c-1.528-0.377-2.8-0.347-3.796-1.773c-1.262-1.808-4.149-2.154-6.144-1.015c-1.099,0.627-1.47,0.01-1.968-0.717
		c-0.552-0.807-1.277-1.365-2.32-1c-0.612,0.214-0.836,0.775-0.876,1.397c-0.069,1.073,0.48,1.718,1.446,2.071
		c0.547,0.2,1.126,0.338,1.631,0.614c0.596,0.326,0.871,1.264,0.229,1.315c-2.192,0.174-2.512,2.351-4.082,3.65
		c-0.51-2.21-0.773-4.285-3.011-5.099c-0.507-0.184-0.521-0.802-0.47-1.323c0.116-1.16-0.423-1.789-1.575-1.685
		c-1.138,0.104-2.629,0.798-2.368,1.752c0.452,1.65-0.541,3.582,0.254,4.675c2.115,2.908,1.002,7.275,4.51,9.463
		c0.518,0.323,0.858,1.079,0.527,1.789c-0.268,0.574-0.83,0.421-1.32,0.349c-0.98-0.144-1.925-0.102-2.149,1.095
		c-0.202,1.073,0.495,1.675,1.393,2.106c0.446,0.214,0.851,0.514,1.276,0.773c1.031,0.628,1.936,2.068,3.225,1.469
		c1.481-0.69-0.23-1.865-0.037-2.859c0.111-0.567-0.023-1.279,0.637-1.5c1.025-0.342,0.999,0.518,1.126,1.158
		c0.135,0.681,0.613,0.945,1.253,1.004c0.622,0.058,1.492-0.217,1.541,0.782c0.04,0.825-0.8,0.639-1.288,0.871
		c-1.805,0.857-2.403,3.557-0.866,4.736c1.637,1.256,2.035,2.615,1.623,4.542c-0.221,1.029-0.124,2.412,1.395,2.418
		c1.359,0.006,1.282-1.184,1.33-2.229c0.119-2.626,1.797-3.684,4.279-2.844c0.699,0.236,1.485,0.206,2.198,0.412
		c1.614,0.466,3.603,0.994,3.819,2.765c0.209,1.707-0.924,3.332-2.684,4.123c-0.854,0.384-1.388,0.909-1.358,1.869
		c0.03,1.018,0.671,1.432,1.599,1.591c0.518,0.089,1.391-0.087,1.25,0.803c-0.149,0.95-0.986,1.144-1.748,0.803
		c-1.407-0.63-2.594,0.104-3.852,0.436c-1.201,0.317-1.618,1.083-0.648,1.953c1.967,1.766,0.53,2.547-0.924,2.78
		c-2.874,0.46-3.111,1.989-2.219,4.25c-1.174,0.152-2.323,0.354-2.862,1.625c-0.726,1.715-1.142,4.67-3.23,0.774
		c-0.135-0.251-0.541-0.492-0.829-0.502c-1.32-0.047-2-0.628-2.495-1.92c-0.477-1.243-1.657-1.146-2.327-0.086
		c-0.659,1.043-1.046,1.564-2.18,0.473c-0.754-0.726-1.546-0.036-2.164,0.555c-0.506,0.482-0.842,1.058-0.609,1.786
		c0.304,0.951,0.978,0.977,1.8,0.702c0.773-0.258,1.397,0.175,1.641,0.799c1.019,2.615,3.511,4.261,4.55,6.763
		c0.92,2.219,2.576,3.123,4.577,3.826c0.502,0.176,1.331-0.116,1.383,0.723c0.046,0.755-0.542,1.104-1.213,1.388
		c-1.715,0.726-3.948,5.69-3.274,7.354c0.518,1.275,1.509,2.186,2.795,2.688c0.563,0.222,1.179,0.134,1.584-0.399
		c0.27-0.356,0.272-0.799,0.014-1.168c-1.525-2.188-0.631-4.239,0.284-6.32c0.265-0.6,0.307-1.513,1.185-1.28
		c1.154,0.307,0.531,1.175,0.295,1.831c-0.275,0.764-0.417,1.496,0.438,1.954c0.817,0.438,1.604,0.31,2.29-0.342
		c0.419-0.396,0.477-1.503,1.42-0.92c2.216,1.37,3.119-0.162,4.02-2.163c1.15,2.311,2.617,2.691,4.671,1.852
		c0.739-0.301,2.182-0.414,2.453,0.93c0.433,2.146-2.105,4.613-4.555,4.537c0.424-1.039,1.643-1.134,2.226-1.938
		c0.412-0.57,0.677-1.205,0.251-1.851c-0.398-0.6-1.02-0.564-1.54-0.185c-1.339,0.979-2.067-0.683-3.183-0.687
		c-2.066-0.006-0.41,2.207-1.633,2.682c-0.154,0.059-0.324,0.073-0.485,0.118c-0.769,0.216-1.128,0.749-0.94,1.505
		c0.307,1.23-0.145,2.268-0.611,3.354c-0.334,0.775-0.467,1.697,0.353,2.277c0.83,0.589,1.606,0.196,2.193-0.495
		c0.656-0.772,1.235-0.884,1.643,0.15c0.605,1.541,1.296,3.088,1.359,4.761c0.097,2.548,2.529,4.514,5.09,3.992
		c0.956-0.193,5.262,1.736,5.586,2.629c0.306,0.84,0.584,1.576,1.62,1.604c1.082,0.031,1.244-0.799,1.606-1.582
		c1.045-2.256,3.176-3.365,4.728-2.293c1.431,0.99,2.672,1.14,4.159,0.383c0.662-0.338,1.316-0.2,1.769,0.435
		c0.395,0.556-0.052,0.904-0.37,1.287c-0.668,0.803-1.368,1.812-0.263,2.569c1.15,0.787,2.453,0.51,3.205-0.811
		c0.596-1.047,1.256-1.492,2.409-0.844c1.228,0.691,2.302,0.125,2.688-0.939c1.14-3.135,4.357-3.016,6.51-4.589
		c-0.039,0.526-0.27,0.849-0.456,1.194c-0.483,0.896-1.802,2.137-0.86,2.729c1.076,0.678,2.512-0.225,3.219-1.559
		c0.117-0.221,0.166-0.531,0.348-0.654c0.939-0.643,1.25-2.949,2.484-2.037c1.088,0.801-1.004,1.459-1.438,2.34
		c-0.146,0.295-0.387,0.545-0.539,0.838c-0.369,0.705-1.156,1.83-0.037,2.072c1.963,0.43,3.517,2.424,5.797,1.555
		c0.077,0.738,0.011,1.527,0.257,2.203c0.729,2.006,2.885,3.258,4.192,2.424c1.186-0.754,2.455-1.65,1.915-3.387
		c-0.544-1.742-2.01-1.74-3.477-1.627c1.398-1.836,2.712-1.592,4.004,0.137c0.645,0.859,1.427,1.625,2.004,2.523
		c0.818,1.276,1.637,1.483,2.826,0.452c1.084-0.94,1.869-0.446,2.199,0.781c0.505,1.884,1.477,1.399,2.559,0.59
		c0.493-0.368,0.827-1.442,1.542-0.922c2.687,1.962,3.407,0.565,3.388-2.396c1.062,1.295,1.54,2.736,3.057,2.521
		c1.609-0.229,1.123-1.926,1.637-3.051c2.225,1.423,1.471,2.857,0.135,3.881c-1.008,0.771-1.915,1.583-2.673,2.562
		c-1.794,2.318-3.593,4.729-6.589,5.43c-1.307,0.306-2.023,0.603-1.891,1.975c0.129,1.334,0.907,2.081,2.223,2.325
		c1.829,0.338,3.095-0.191,3.609-2.121c0.189-0.715,0-2.147,1.139-1.767c1.113,0.375-0.123,1.383-0.155,2.131
		c-0.031,0.738-0.319,1.462-0.4,2.201c-0.065,0.604,0.111,1.207,0.769,1.418c0.73,0.236,1.295-0.119,1.709-0.709
		c0.459-0.651,0.557-1.43,0.425-2.16c-0.362-2.01-1.144-4.104,1.694-5.033c0.145-0.049,0.248-0.438,0.25-0.669
		c0.01-1.373,0.469-1.724,1.608-0.786c0.782,0.645,1.732,0.893,2.501,0.178c0.891-0.826,0.16-1.667-0.322-2.439
		c-0.346-0.553-1.395-1.328,0.122-1.553c2.36-0.349,3.095-2.314,4.245-3.875c0.816-1.105,1.642-2.111,3.18-2.225
		c0.162,1.146-1.059,1.605-0.928,2.41c0.379,2.338-1.054,2.816-2.852,3.181c-1.334,0.271-1.941,1.37-1.861,2.617
		c0.104,1.635,1.439,0.882,2.326,0.985c0.203,0.023,0.385,0.22,0.695,0.408c-0.342,0.461-0.59,0.887-0.926,1.23
		c-0.844,0.867-2.991,1.352-1.771,2.922c1.095,1.408-0.304,2.826,0.645,3.962c0.583,0.698,1.251,1.343,1.968,1.901
		c0.559,0.436,1.262,0.466,1.843-0.043c0.55-0.481,0.352-1.059,0.073-1.596c-0.152-0.295-0.336-0.58-0.549-0.834
		c-0.616-0.74-0.416-1.42,0.21-1.976c0.81-0.716,1.196,0.069,1.546,0.588c0.797,1.179,2.842,1.574,2.27,3.663
		c-0.062,0.23,0.588,0.798,1.007,0.995c1.526,0.718,2.065,1.528,0.678,2.944c-0.604,0.615-0.913,1.566-0.114,2.226
		c0.886,0.729,1.728,0.168,2.398-0.53c0.634-0.658,1.191-1.392,1.833-2.041c0.312-0.314,0.778-0.39,1.104,0.002
		c0.268,0.319,0.062,0.657-0.25,0.807c-1.836,0.876-1.268,2.119-0.74,3.555c0.449,1.223,0.542,2.707,2.359,1.85
		c1.428-0.674,1.547-1.885,0.578-3.104c-0.81-1.018-0.512-1.674,0.357-2.529c2.51-2.47,2.479-3.258,0.139-5.674
		c-0.678-0.7-0.658-4.12,0.135-4.555c1.398-0.766,2.727-0.691,3.675,0.826c0.705,1.131,1.706,2.166,2.079,3.394
		c0.933,3.071,3.196,4.837,5.764,6.247c2.197,1.207,4.035,2.643,4.989,5.003c0.545,1.345,1.483,1.997,2.875,2.47
		c1.622,0.549,3.62,0.603,4.729,2.086c3.08,4.125,6.191,8.275,7.838,13.23c1.903,5.732,1.886,11.91,4.007,17.621
		c1.271,3.422,1.899,7.105,3.386,10.418c2.938,6.547,2.771,13.135,1.478,19.968c-0.481,2.54-1.3,4.976-1.753,7.497
		c-1.35,7.52-2.545,15.064-3.924,22.577c-0.412,2.244-0.562,4.438-0.324,6.696c0.497,4.735,0.317,9.495,0.161,14.233
		c-0.109,3.318-2.259,5.174-4.712,4.188c-2.261-0.909-4.357-0.762-6.582-0.282c-0.973,0.21-2.061,0.6-2.949,0.361
		c-4.502-1.21-8.879,0.373-13.312,0.389c-2.115,0.007-4.39,0.336-6.296-0.328c-1.579-0.551-2.928-0.623-4.515-0.587
		c-1.946,0.044-3.783,0.601-5.623,0.942c-3.756,0.698-7.393-0.653-11.164-0.099c-1.971,0.29-4.738,0.885-6.271-1.721
		c-0.131-0.223-0.807-0.305-1.136-0.189c-0.631,0.224-0.417,0.787-0.271,1.27c0.287,0.94,0.125,2.062-1,1.513
		c-2.105-1.024-4.051-0.438-6.047-0.049c-2.887,0.563-5.569-0.387-8.27-1.059c-2.317-0.576-5.16-1.327-6.776,0
		c-3.128,2.565-6.048,0.394-8.892,0.276c-1.884-0.076-3.752-1.224-5.847-0.334c-0.636,0.271-1.617,0.31-2.209,0.004
		c-3.018-1.553-5.936,1.253-8.976,0.372c-2.552,2.468-5.104,4.937-7.659,7.4c0.555-0.088,1.112-0.191,1.67-0.318
		c0.645-0.146,1.484-0.502,1.923-0.003c1.195,1.363,2.759,0.803,4.069,1.167c2.76,0.767,5.292,1.116,8.128,0.674
		c1.309-0.204,2.521,1.106,3.601,2.046c0.438,0.384,1,0.664,1.611,0.379c0.432-0.2,0.467-0.612,0.449-1.061
		c-0.023-0.589-0.959-1.332-0.021-1.721c0.867-0.359,1.65,0.307,2.006,1.092c0.629,1.393,1.335,1.034,2.327,0.398
		c2.222-1.423,4.758,1.929,6.971-0.388c0.269,0.316,0.474,0.749,0.813,0.93c1.639,0.875,3.262,2.433,5.234,1
		c1.766-1.28,3.14-0.854,4.314,0.64c0.945,1.203,1.993,1.442,3.482,1.312c2.029-0.178,4.159-0.257,6.129,0.168
		c3.155,0.683,6.55,0.17,9.51,1.89c0.325,0.188,0.955-0.214,1.449-0.231c1.899-0.069,3.842-0.661,5.689-0.095
		c3.262,0.998,6.547,0.919,9.85,0.561c4.039-0.437,7.992-0.256,11.875,0.96c-0.111,1.264-2.25,1.053-1.423,2.447
		c0.735,1.241,1.95,1.092,3.096,0.536c0.713-0.346,1.483-0.158,2.175-0.306c1.838-0.393,3.854,1.302,5.25,0.212
		c1.646-1.283,3.016-0.987,4.216-0.101c1.696,1.254,3.635,1.323,5.458,1.439c1.96,0.126,3.735-0.332,5.914,0.338
		c1.902,0.584,4.375-0.156,5.984,1.773c1.02-1.044-1.158-1.833,0.302-2.56c1.846-0.919,6.193,0.01,7.749,1.715
		c0.717,0.787,1.486,0.988,2.08,0.144c1.562-2.224,3.742-1.896,5.878-1.523c1.829,0.318,3.647,0.309,5.478,0.257
		c2.9-0.083,5.816-0.39,8.614,0.733c0.582,0.233,1.269,0.28,1.604-0.262c1.002-1.621,2.437-1.194,3.781-0.841
		c2.01,0.527,4.168-0.271,6.115,0.793c0.415,0.228,1.135,0.132,1.309-0.398c0.795-2.427,2.726-1.448,4.197-1.323
		c2.723,0.231,5.309,0.066,7.703-1.348c0.52-0.308,0.979-0.55,1.623-0.347c4.043,1.275,8.08,2.517,11.779-0.931
		c0.379-0.354,1.105-0.31,1.634-0.536c2.737-1.174,5.677-0.469,8.504-0.918c1.786-0.284,3.677-0.755,5.364-0.706
		c2.948,0.085,5.856-1.245,8.824-0.139c1.256,0.469,2.803,0.638,3.739-0.542c1.745-2.193,3.578-2.051,5.669-0.681
		c1.283,0.841,2.31,1.007,3.243-0.677c0.777-1.4,2.02-1.482,3.332-0.316c1.487,1.321,3.017,1.396,4.217-0.44
		c0.589-0.898,1.422-1.218,2.364-0.994c4.125,0.979,8.327,0.274,12.437,0.206c2.82-0.047,5.906-0.215,8.66-1.45
		c0.069-0.255,0.141-0.509,0.205-0.766c0.069-0.308,0.125-0.544,0.173-0.746c0.04-0.442,0.088-0.884,0.119-1.326
		c0.075-1.258,0.154-2.519,0.146-3.778c-0.006-0.893-0.025-1.787-0.063-2.68c-0.583,0.007-1.164-0.023-1.736-0.121
		c-3.086-0.526-6.367,0.343-9.291-1.297c-0.295-0.166-0.574-0.092-0.914,0.062c-1.982,0.893-4.407-0.14-6.271,1.406
		c-0.074,0.062-0.451-0.168-0.641-0.322c-1.073-0.871-2.33-0.883-3.575-0.684c-5.166,0.829-10.336,0.777-15.412-0.39
		c-3.615-0.832-7.007-0.059-10.403,0.794c-1.333,0.335-2.38,0.474-3.443-0.511c-1.329-1.229-2.811-1.047-4.437-0.537
		c-1.886,0.592-4.024,1.627-5.756,1.215c-4.557-1.086-9.138-0.386-13.685-0.796c-1.797-0.163-3.856-1.317-5.283-0.509
		c-1.991,1.128-3.608,0.474-5.466,0.283c-2.414-0.246-4.802-1.642-7.314-0.299c-0.338,0.182-1.086,0.029-1.398-0.247
		c-1.729-1.526-3.743-1.092-5.719-0.963c-1.074,0.07-2.158,0.112-3.217,0.292c-0.873,0.147-1.363-0.169-1.35-0.979
		c0.077-4.247-0.646-8.44-0.841-12.646c-0.168-3.634-0.394-7.278-0.498-10.921c-0.172-5.966-1.146-11.938-0.117-17.904
		c0.281-1.633,1.146-3.226,1.142-4.834c-0.008-4.061,1.188-8.082,0.323-12.17c-0.163-0.771,0.062-1.66,0.255-2.459
		c1.336-5.52,1.274-11.195,0.211-16.593c-1.402-7.11-2.132-14.307-3.466-21.413c-0.274-1.466-0.135-2.951,0.361-4.433
		c2.137-6.372,6.545-10.892,11.794-14.761c0.732-0.539,1.589-1.012,2.109-1.721c3.552-4.822,7.754-9.133,11.066-14.143
		c0.426-0.643,0.984-1.717,1.883-1.324c1.06,0.463,1.049,1.908,0.67,2.645c-0.951,1.847-1.395,3.338,0.729,4.65
		c0.54,0.334,0.326,1.035,0.104,1.615c-0.679,1.781-0.474,3.584,1.434,4.146c1.852,0.547,2.484-1.166,2.887-2.69
		c0.043-0.161,0.079-0.325,0.137-0.479c0.199-0.55,0.365-1.186,1.104-1.164c0.725,0.021,0.993,0.616,1.039,1.207
		c0.128,1.633,1.051,1.615,2.418,1.596c3.091-0.043,5.818-1.362,8.708-2.098c3.612-0.916,7.62-0.666,10.581-3.602
		c0.392-0.389,1.267-0.459,1.896-0.408c1.865,0.15,3.816-0.629,5.604,0.551c0.517,0.34,1.3,0.158,1.598-0.328
		c1.089-1.78,2.917-2.666,4.453-3.903c0.499-0.402,0.491-1.851,1.438-1.152c0.837,0.618,0.056,1.511-0.543,2.101
		c-1.128,1.109-2.305,2.17-3.431,3.279c-0.358,0.354-1.115,0.633-0.338,1.581c2.326-1.524,4.537-3.262,7.043-4.553
		c1.275-0.656,1.775-2.072,0.007-3.124c-0.469-0.277-1.396-0.729-0.593-1.159c0.832-0.444,2.281-1.749,2.962,0.401
		c0.274,0.865,0.552,1.732,0.814,2.603c0.525,1.744,1.751,2.229,2.849,0.88c1.049-1.291,1.854-0.996,2.967-0.332
		c0.489,0.291,0.952,1.036,1.774,0.433c-0.501-1.638-0.999-3.265-1.526-4.984c1.204,0.2,2.135,0.614,2.332,1.743
		c0.449,2.562,2.502,2.559,4.375,2.861c0.404,0.063,0.89,0.025,1.082-0.413c0.23-0.521-0.203-0.737-0.588-0.905
		c-0.699-0.307-1.236-0.679-0.552-1.467c0.448-0.516,1.046-0.608,1.523-0.084c0.78,0.854,1.642,1.156,2.653,0.523
		c1.107-0.693,0.934-1.789,0.897-2.902c-0.078-2.34-0.804-5.01,2.723-5.748c0.717-0.15,1.091-1.688,2.186-0.516
		c0.985,1.053,1.432,2.125,0.408,3.383c-0.999-0.344-0.26-2.224-1.734-1.768c-1.03,0.318-1.939,1.006-2.241,2.174
		c-0.104,0.396-0.133,0.822-0.138,1.236c-0.018,1.739,0.201,3.499-1.036,5.016c-0.412,0.504-0.342,1.127,0.514,1.276
		c2.095,0.365,5.084-1.739,5.49-3.894c0.172-0.912,0.312-1.823,1.14-2.407c0.37-0.261,0.793-0.276,1.153,0.018
		c0.309,0.253,0.344,0.664,0.005,0.837c-1.775,0.903-0.626,2.567-0.977,3.836c-0.409,1.481,0.502,2.049,1.875,1.353
		c1.15-0.584,1.843-0.857,2.34,0.821c0.499,1.688,1.653,2.055,2.812,0.369c0.354-0.516,0.836-0.834,1.079-0.146
		c0.502,1.424,2.22,1.799,2.605,3.255c0.252,0.95,0.836,1.053,1.719,0.846c3.557-0.832,6.387,1.938,5.578,5.438
		c-0.179,0.768-0.375,1.543,0.424,2.008c0.846,0.492,1.674,0.133,2.236-0.536c0.858-1.021,1.762-2.149,1.075-3.594
		c-0.504-1.062-0.258-2.159-0.266-3.19c-0.012-1.645,1.745-1.449,2.777-1.933c0.752-0.353,1.116,0.233,1.368,0.985
		c1.089,3.266,3.365,4.192,6.737,2.799c0.434-0.18,1.184-0.801,1.245-0.438c0.387,2.207,4.057,2.907,2.42,5.911
		c4.15-0.883,5.103-2.174,4.205-5.609c1.25,0.279,2.436,0.599,3.642,0.801c1.688,0.285,3.527-1.225,3.625-2.896
		c0.021-0.345-0.003-0.749-0.361-0.815c-0.264-0.049-0.695,0.103-0.847,0.312c-0.279,0.392-0.428,0.884-0.6,1.345
		c-0.208,0.557-0.363,1.248-1.168,0.825c-0.57-0.3-0.834-0.991-0.494-1.506c0.648-0.979,1.044-2.051,1.514-3.104
		c0.265-0.592,1.152-1.318,1.567-0.939c1.81,1.65,4.07-0.412,5.898,0.893c0.487,0.35,1.367,0.209,1.794-0.438
		c0.477-0.727,0.283-1.671-0.306-2.05c-1.739-1.119-1.684-2.31-0.661-3.878c0.444-0.685,0.59-1.646-0.28-2.243
		c-0.745-0.513-1.401-0.117-2.019,0.407c-0.523,0.445-1.791,1.035-1.746,0.822c0.643-3.049,1.09-6.438,5.715-5.063
		c0.78,0.231,1.623-0.411,1.88-1.329c0.272-0.979-0.391-1.506-1.083-2.039c-2.189-1.684-5.152-1.111-7.418-2.585
		c0.252-1.164,2.119-1.552,1.695-2.858c-0.447-1.386-0.471-2.511,0.357-3.714c0.341-0.495,0.308-1.17-0.274-1.561
		c-0.562-0.38-1.102-0.136-1.604,0.239c-0.543,0.41-0.908,1.295-1.778,0.817c0.333-3.588,3.614-4.782,5.594-7.016
		c0.479-0.538,0.932-0.919,0.756-1.657c-0.19-0.795-0.714-1.307-1.505-1.51c-0.73-0.188-1.429,0.01-1.67,0.721
		c-0.436,1.285-1.223,1.398-2.332,0.996c-0.391-0.141-1.008-0.188-1.114,0.242c-0.552,2.189-2.521,3.701-2.795,6.015
		c-0.308,2.591-2.466,3.833-4.856,2.672c-1.335-0.647-2.46-0.972-3.609,0.233c-0.347,0.361-1.106,0.695-1.169,0.066
		c-0.131-1.32,1.122-2.279,1.277-3.662c0.115-1.02,1.039-0.344,1.625-0.203c1.328,0.318,2.07,0.037,1.994-1.57
		c-0.156-3.318-2.42-4.997-4.884-6.553c-0.47-0.297-0.928-0.211-1.396,0.099c-0.515,0.341-1.107,1.163-1.692,0.472
		c-0.609-0.723,0.04-1.459,0.674-1.859c1.667-1.055,1.664-2.487,1.218-4.16c-0.293-1.103-0.386-2.262,0.93-3.166
		c-0.09,1.988,1.164,3.654,0.947,5.662c-0.209,1.923,1.05,2.92,2.641,3.425c1.974,0.627,1.212-1.294,1.598-2.032
		c0.514-0.984,1.062-1.91,1.908-2.583c2.231-1.773,2.079-5.48,5.274-6.458c0.11-0.034,0.177-0.275,0.228-0.432
		c0.957-2.924,0.66-5.965,0.722-8.958c0.018-0.902-1.002-1.204-1.657-0.461c-1.692,1.919-2.06,0.065-2.466-0.911
		c-0.404-0.971-0.112-2.318-0.672-3.121c-1.368-1.964-0.944-2.832,1.225-3.639c1.838-0.684,1.95-2.329,0.527-3.769
		c-0.489-0.496-1.558-0.814-0.877-1.708c0.561-0.737,1.547-1.159,2.424-0.443c0.93,0.758,1.639,0.572,2.395-0.172
		c0.5-0.491,1.06-0.831,1.79-0.477c0.87,0.421,1.629,0.429,2.049-0.607c0.426-1.051-0.101-1.712-0.932-2.304
		c-1.292-0.92-2.362-2.039-3.227-3.411c-0.489-0.778-0.729-1.4,0.077-1.889c2.889-1.746,1.559-3.674,0.372-5.67
		c-1.42-2.39-2.684-2.652-4.05-0.382c-1.288,2.142-3.188,2.477-5.261,2.696c-0.666,0.071-1.779,0.419-1.919-0.51
		c-0.145-0.963,0.732-1.604,1.721-1.812c0.404-0.085,0.839-0.033,1.24-0.125c1.369-0.31,3.661-0.141,1.337-2.484
		c-0.24-0.241-0.361-0.8-0.27-1.138c0.836-3.057-1.661-5.441-1.652-8.327c0.002-0.27-0.389-0.526-0.551-0.814
		c-0.329-0.592-0.744-1.425,0.393-1.378c1.021,0.042,1.026,1.188,1.201,1.963c0.199,0.888,0.212,1.815,0.375,2.713
		c0.229,1.261,0.951,2.132,2.246,2.373c0.701,0.13,1.716-0.159,1.352-0.897c-0.992-2.016,0.453-2.852,1.5-3.963
		c0.604-0.642,0.986-1.399,0.467-2.257c-0.422-0.694-1.145-0.649-1.792-0.434c-3.021,1.002-5.453-1.599-8.349-1.33v-0.549
		c2.422,0.202,4.354-1.864,6.899-1.303c0.669,0.147,1.653-0.76,1.386-1.447c-0.664-1.707,0.457-3.613,0.01-4.771
		c-1.27-3.295,1.853-3.938,2.623-6.576C409.307,175.664,408.414,176.513,407.518,177.36z"/>
	<path fill="#FFFFFF" d="M129.604,75.434c-0.067,1.129,0.352,1.847,1.545,1.635c1.251-0.222,1.968-1.107,2.323-2.666
		c-1.446-0.96-1.782-3.117-3.737-3.837c-0.491-0.181-1.004-0.112-1.349,0.334c-0.398,0.515-0.325,1.085-0.062,1.638
		C128.777,73.494,129.674,74.265,129.604,75.434z"/>
	<path fill="#59595B" d="M404.4,297.549c-1.888,0.881-3.654,1.965-5.143,3.312c0.928-0.393,1.854-0.786,2.786-1.167
		c2.584-1.054,5.244-1.954,7.943-2.656C408.062,296.625,406.131,296.742,404.4,297.549z"/>
	<path fill="#59595B" d="M407.526,177.361c-0.372,0.352-0.781,0.746-0.357,1.261c0.303,0.367,0.737,0.83,1.141,0.861
		c0.602,0.045,0.633-0.657,0.759-1.118c0.248-0.908,0.902-1.588,1.308-2.392c2.837-5.617,6.902-10.628,8.271-16.975
		c0.673-3.115,0.463-6.201-0.539-9.111c-0.665-1.928-3.201-1.449-4.703-2.44c-0.206-0.135-0.46-0.194-0.687-0.301
		c-1.171-0.557-1.744-2.224-1.229-2.615c1.13-0.86,0.961-3.231,3.065-2.818c1.516,0.297,2.577-0.413,3.523-1.372
		c0.447-0.453,0.424-1.364-0.096-1.552c-1.687-0.61-2.859-3.295-4.582-2.299c-1.479,0.855-3.683,2.178-3.543,4.409
		c0.129,2.066-1.185,2.496-2.457,3.2c-0.426,0.235-0.919,0.662-1.334,0.164c-0.418-0.5,0.043-0.978,0.42-1.25
		c1.699-1.226,2.026-3.168,2.655-4.95c0.302-0.857,0.032-1.549-0.926-1.65c-0.88-0.092-1.129,0.53-1.047,1.31
		c0.035,0.33,0.137,0.66,0.127,0.988c-0.022,0.765-0.407,1.303-1.207,1.302c-0.865-0.001-0.748-0.67-0.75-1.27
		c-0.006-1.56-0.469-3.124,0.235-4.672c0.35-0.771,0.056-1.471-0.723-1.898c-0.784-0.431-1.431-0.324-1.9,0.49
		c-0.266,0.46-0.679,0.698-1.194,0.822c-1.571,0.378-1.507,1.578-0.885,2.514c0.753,1.132,1.567,2.075,0.974,3.553
		c-0.154,0.388,0.26,0.742,0.63,0.979c0.435,0.277,1.387,0.262,0.975,1.095c-0.397,0.805-1.335,0.883-1.953,0.379
		c-2.225-1.818-4.661,2.125-6.829-0.302c-0.038-0.043-0.473,0.165-0.621,0.341c-0.808,0.959-1.355,0.408-2.024-0.221
		c-1.253-1.176-2.568-1.572-3.843,0.028c-0.264,0.331-0.633,0.665-1.058,0.373c-0.54-0.37-0.403-0.959,0.001-1.28
		c2.755-2.184,3.832-6.351,8.045-6.812c0.747-0.082,1.226-0.511,1.291-1.289c0.056-0.689-0.072-1.734-0.715-1.649
		c-2.302,0.304-2.98-1.916-4.857-2.497c1.165-0.782,2.045-0.793,3.086-0.425c1.164,0.412,2.411,0.651,3.643,0.796
		c0.902,0.106,1.755-0.306,1.65-1.382c-0.093-0.988-0.847-0.776-1.528-0.533c-1.479,0.527-1.872-0.86-2.468-1.6
		c-0.817-1.019,0.395-1.139,0.957-1.492c0.568-0.354,0.931-1.286,0.594-1.424c-1.868-0.763-1.249-3.331-3.19-4.05
		c-1.492-0.553-1.021-2.221-0.992-3.265c0.034-1.196,1.434-1.152,2.433-1.021c0.562,0.073,1.08,0.433,1.641,0.574
		c1.491,0.374,2.395-0.059,1.912-1.753c-0.562-1.969-1.146-3.66-3.424-4.792c-1.646-0.819-3.197-0.508-5.022-0.835
		c0.953-1.24,1.967-1.638,3.095-1.99c1.175-0.368,2.143-1.651,0.976-2.352c-1.711-1.028-1.295-3.879-3.793-3.986
		c-0.141-0.006-0.355-0.557-0.368-0.861c-0.047-1.176-0.453-2.08-1.562-2.635c-0.435-0.217-0.93-0.609-0.668-1.175
		c0.27-0.579,0.861-0.28,1.334-0.24c2.757,0.232,2.816,0.159,2.113-2.586c-0.164-0.64-0.52-1.36,0.078-1.873
		c0.592-0.507,1.037,0.192,1.52,0.445c0.693,0.364,1.444,0.644,2.085,0.03c0.707-0.678,0.291-1.415-0.209-1.995
		c-0.738-0.855-1.087-2.185-2.441-2.336c-1.478-0.164-1.004,1.688-2.207,2.337c-0.064-1.492-0.291-2.723-1.584-3.365
		c-0.545-0.272-0.446-0.733-0.369-1.281c0.4-2.85,0.123-3.041-2.643-2.012c-0.377,0.141-0.773,0.36-1.295-0.329
		c1.088-1.365,2.354-1.933,4.207-1.457c1.614,0.415,2.433-0.401,1.479-1.853c-0.957-1.456-0.262-2.044,0.748-2.82
		c0.759-0.584,1.599-0.815,2.495-1.05c1.069-0.28,1.7-1.177,0.83-2.03c-1.386-1.359-2.386-2.952-3.511-4.486
		c-0.737-1.007-1.96-1.396-2.439,0.214c-0.907,3.047-3.928,4.174-5.636,6.504c-0.831,1.133-3.149,0.851-3.868,0.119
		c-0.828-0.845,0.789-1.858,1.581-2.6c0.539-0.505,1.501-0.838,1.092-1.706c-0.786-1.669-0.542-3.414-0.745-5.132
		c-0.234-1.963-1.798-3.36-3.349-4.02c-1.576-0.67-1.437,1.649-2.297,2.354c-1.654,1.354-1.939,4.979-5.507,3.362
		c-0.828-0.375-1.291-0.98-1.908-1.502c-0.558-0.47-1.221-0.604-1.837-0.152c-0.544,0.397-0.711,1.163-0.268,1.544
		c2.75,2.359-0.896,3.264-0.896,5.068c-0.458-0.183-0.57-0.411-0.716-0.615c-0.533-0.745-1.054-1.671-2.13-1.435
		c-1.12,0.246-0.668,1.346-0.868,2.096c-0.22,0.822-0.595,1.552-1.959,1.593c1.358-2.54-0.013-4.48-1.11-6.504
		c-0.453-0.836-0.906-1.776,0.735-1.903c1.866-0.143,1.881-1.162,0.846-2.285c-0.944-1.022-1.139-1.587,0.449-1.966
		c0.936-0.222,1.369-0.938,1.218-1.896c-0.159-1.003-0.892-1.345-1.814-1.347c-0.66-0.002-1.333,0.167-1.948-0.218
		c-0.531-0.333-0.998-0.75-0.585-1.404c0.33-0.521,0.843-0.414,1.293-0.062c0.325,0.254,0.614,0.589,0.981,0.749
		c0.667,0.292,1.356,0.233,1.734-0.474c0.35-0.653-0.076-1.151-0.609-1.44c-1.389-0.751-2.004-2.321-3.67-2.989
		c1.536-1.162,3.218-1.529,4.321-3.145c0.566,1.506,1.034,2.818,2.718,2c0.772-0.376,1.467-0.95,1.387-1.902
		c-0.107-1.275-1.069-2.034-2.007-2.732c-0.777-0.58-1.395-0.076-1.979,0.447c-1.172,1.049-2.312,1.909-3.935,0.618
		c-0.943-0.75-1.393,0.055-1.842,0.878c-1.211,2.22-1.958,2.315-3.531,0.483c-0.484-0.564-0.906-0.937-1.68-0.654
		c-0.535,0.196-1.006,1.203-1.659,0.261c-0.51-0.737-0.585-1.606,0.013-2.333c0.746-0.906,0.905-2.126,1.805-2.968
		c0.957-0.896,0.859-1.997-0.134-2.817c-0.843-0.694-1.646-1.374-2.253-2.302c-0.494-0.758-1.247-0.772-1.973-0.291
		c-0.719,0.478-0.629,1.074-0.186,1.716c0.814,1.178,0.88,2.86,2.548,3.539c-1.2,0.094-2.401-0.367-3.273-0.015
		c-1.861,0.751-2.743,0.189-3.333-1.541c-0.224-0.659-0.812-1.07-1.567-1.023c-0.871,0.055-1.477,0.638-1.526,1.41
		c-0.158,2.413-3.656,4.229-0.931,7.19c-1.505-0.735-2.783-1.315-2.488-2.987c0.257-1.469-0.59-1.628-1.723-1.755
		c-1.902-0.213-3.447,0.844-5.15,1.22c-3.156,0.698-3.225,0.446-2.123,3.654c0.852,2.481,1.482,4.595-1.164,6.822
		c-1.547,1.302-3.706,3.937-0.252,6.137c0.54,0.343,0.496,1.033-0.027,1.524c-0.453,0.426-1.032,0.768-1.537,0.23
		c-1.221-1.301-2.185-0.755-3.137,0.299c-0.328,0.362-0.67,0.953-1.194,0.617c-0.64-0.408-0.257-1.043-0.007-1.562
		c0.446-0.924,0.62-1.751-0.571-2.263c-0.477-0.205-1.34-0.002-1.23-0.889c0.082-0.659,0.747-0.817,1.297-1.026
		c3.267-1.244,4.213-4.412,2.143-7.289c-0.581-0.806-1.309-1.509-1.964-2.262c-0.352-0.405-0.573-0.895-0.232-1.356
		c0.418-0.567,0.877-0.147,1.301,0.097c1.119,0.643,2.451,0.831,2.146-0.877c-0.388-2.171-1.391-4.243-2.235-6.314
		c-0.273-0.674-1.023-0.823-1.73-0.554c-0.654,0.248-0.822,0.791-0.689,1.427c0.116,0.548,0.285,1.085,0.431,1.627
		c-0.874-0.843-1.812-1.292-3.068-1.067c0.332-1.227,1.447-2.162,0.473-3.221c-0.637-0.691-1.592-0.589-2.338-0.197
		c-1.102,0.578-1.826,1.457-1.354,2.853c0.075,0.22,0.133,0.632,0.03,0.698c-2.411,1.563-2,4.608-3.504,6.645
		c-0.371,0.502-0.909,1.192-1.333,0.799c-1.954-1.812-3.753-0.611-5.62,0.047c-0.367,0.13-0.861,0.233-1.191,0.096
		c-2.943-1.218-3.635-5.686-1.227-7.888c0.686-0.629,0.975-1.332,0.748-2.225c-0.188-0.738-0.738-1.288-1.441-1.081
		c-1.561,0.458-3.446,0.509-4.392,2.044c-0.844,1.374-0.333,2.704,0.888,3.773c0.686,0.599,0.313,1.259-0.203,1.723
		c-0.67,0.604-0.971-0.062-1.369-0.49c-1.312-1.409-2.612-1.439-2.989-0.054c-0.164,0.596,0.106,1.3,0.106,1.954
		c0,0.305-0.09,0.696-0.291,0.893c-0.271,0.267-0.654,0.095-0.838-0.206c-1.213-1.987-3.883-2.714-4.426-5.354
		c-0.179-0.871-1.107-1.64-1.81-2.339c-0.698-0.695-1.871-0.763-2.007,0.237c-0.404,2.991-2.943,2.432-4.709,3.095
		c-0.766,0.287-1.873,0.167-2.014,1.134c-0.217,1.496-0.861,2.854-1.117,4.31c-0.177,0.996,0.658,2.7-0.578,2.826
		c-1.16,0.118-1.89-1.564-2.463-2.732c-0.178-0.363-0.18-0.81-0.279-1.215c-0.381-1.554-1.375-2.254-2.723-1.277
		c-1.256,0.909-1.744,0.328-2.316-0.623c-0.698-1.158-1.026-2.305,0.105-3.4c0.42-0.407,0.737-0.337,1.26,0.026
		c1.568,1.09,3.648,0.058,3.799-1.838c0.091-1.159-0.604-2.057-1.604-1.327c-1.455,1.062-2.521-0.085-3.648-0.308
		c-1.325-0.262-2.158-2.886-1.348-2.999c4.138-0.577,2.457-3.697,2.528-5.863c0.06-1.757-1.71-1.901-2.989-1.942
		c-1.609-0.051-1.059,1.199-1.084,2.176c-0.031,1.239,0.186,3.325-1.484,3.103c-2.305-0.305-2.889,0.607-3.491,2.425
		c-0.735,2.218-3.144,3.072-4.394,1.773c2.768-0.738,3.354-1.552,2.744-4.167c-0.185-0.784-0.222-1.26,0.605-1.569
		c1.258-0.471,1.863-1.369,1.604-2.729c-0.151-0.801-0.666-1.316-1.449-1.562c-1.477-0.464-1.604,1.117-2.602,1.78
		c-0.259-1.384-0.777-2.475-2.34-2.397c-0.661,0.21-1.477,0.079-1.891,0.853c-0.4,2.411-1.642,2.374-3.331,1.168
		c-0.733-0.523-1.55-0.724-2.262,0.017c-0.524,0.545-0.45,1.217-0.11,1.855c0.303,0.569,0.846,0.701,1.427,0.875
		c2.348,0.704,2.468,1.31,1.021,3.237c-1.459,1.945-3.701,1.065-5.525,1.677c-1.272,0.428-2.078-0.227-1.113-1.583
		c0.686-0.962,0.418-1.768,0.213-2.79c-0.463-2.319-1.255-4.675-0.504-7.066c0.248-0.791,0.92-1.532,0.053-2.229
		c-0.846-0.678-1.759-0.273-2.559,0.207c-1.258,0.757-2.127,2.088-3.797,2.253c-2.012,0.199-2.006,1.599-1.217,2.899
		c1.012,1.664,1.873,3.552,4.381,4.154c-2.835,0.84-4.594,0.104-5.99-1.955c-0.709-1.046-1.52-2.25-3.215-1.87
		c-0.539,0.121-1.029-0.431-0.933-0.939c0.52-2.77-1.267-4.533-2.638-6.531c-0.909-1.326-2.038-2.452-3.248-3.396
		c-1.647-1.285-3.275-0.261-4.53,2.544c-0.373,0.833-1.014,1.678-0.317,2.547c0.715,0.891,1.498,0.117,2.256-0.12
		c1.041-0.325,2.164-0.414,2.268,1.021c0.101,1.404,0.65,2.186,1.869,2.925c1.101,0.669,1.474,2.162,0.868,3.329
		c-0.77,1.481-1.872,0.333-2.771-0.081c-1.482-0.681-2.742-1.85-4.628-1.432c-1.135,0.251-0.87-0.632-0.645-1.291
		c0.363-1.068,0.319-2.12-0.902-2.459c-1.423-0.396-1.583,0.801-1.772,1.802c-0.122,0.646-0.099,1.439-0.992,1.5
		c-0.796,0.054-0.788-0.715-0.998-1.224c-0.3-0.726-0.874-0.974-1.604-0.904c-0.803,0.078-1.199,0.554-1.121,1.351
		c0.12,1.238-0.769,1.992-1.377,2.847c-0.818,1.149-0.871,2.289-0.332,3.532c0.379,0.874,1.03,1.343,1.969,1.169
		c1.057-0.196,1.324-0.887,0.924-1.863c-0.403-0.981,0.041-1.225,0.932-1.04c1.223,0.253,3.792,3.642,3.313,4.606
		c-0.776,1.563-3.04,1.909-3.901,1.646c-3.013-0.92-2.265,0.891-1.946,2.253c0.362,1.544,0.84,2.828-1.118,3.771
		c-0.627,0.301-0.967,1.094-1.793,0.514c-1.026-0.72-0.41-1.418,0.062-2.122c0.597-0.889,0.963-1.91,0.07-2.72
		c-0.951-0.863-2.213-0.597-3.34-0.309c-0.973,0.247-1.833,1.069-1.512,1.987c0.748,2.141-0.467,4.063-0.406,6.128
		c0.032,1.087,0.375,3.334-1.206,3.272c-1.329-0.051-2.337-1.9-2.873-3.417c-0.129-0.363,0.025-0.822,0.029-1.238
		c0.01-1.091-0.511-1.959-1.358-2.537c-0.879-0.599-1.964-0.709-2.801,0.002c-0.929,0.79-0.275,1.698,0.215,2.451
		c0.405,0.622,0.973,1.136,1.441,1.721c0.377,0.469,0.744,1.039,0.135,1.53c-0.641,0.518-1.049,0.059-1.339-0.531
		c-0.536-1.087-1.169-1.04-1.875-0.156c-1.989,2.492-1.614,5.065,0.833,6.399c-1.496,2.185-6.185,3.075-2.734,7.245
		c0.314,0.38-0.057,1.031-0.625,1.14c-0.812,0.156-0.886-0.479-1.008-1.084c-0.399-1.977-1.175-3.815-3.445-4.021
		c-2.318-0.211-2.049-1.405-1.46-2.897c0.151-0.384,0.432-0.718,0.575-1.105c0.43-1.167-0.276-1.913-1.076-2.552
		c-0.698-0.558-1.534-0.709-2.338-0.242c-1,0.581-0.401,1.377-0.312,2.188c0.192,1.771-0.035,3.368-2.521,3.161
		c-0.911-0.075-1.618,0.462-1.766,1.427c-0.132,0.862,0.44,1.105,1.195,1.244c1.359,0.252,0.665,0.967,0.318,1.622
		c-0.883,1.665-1.766,3.33-2.581,5.027c-0.197,0.409,0.057,1.1-0.597,1.216c-0.706,0.126-0.93-0.551-1.301-0.981
		c-1.902-2.195-0.558-5.815-3.771-7.337c1.098-0.782,2.471,0.04,2.643-1.328c0.138-1.104-0.566-1.96-1.455-2.442
		c-2.071-1.12-1.283,1.862-2.825,2.033c0.495-2.933,0.541-5.566-3.028-6.476c-0.795-0.203-0.8-1.033,0.057-1.459
		c0.517-0.257,1.095-0.396,1.65-0.576c1.135-0.368,1.938-1.049,1.877-2.327c-0.074-1.554-1.374-2.246-2.458-2.927
		c-0.921-0.579-1.704,0.175-2.378,0.846c-1.984,1.978-1.549,4.962-2.993,7.193c-0.385,0.594,0.28,1.366,0.86,1.921
		c1.061,1.016,2.053,2.102,3.252,3.344c-1.053,0.052-1.478-0.382-1.943-0.72c-0.562-0.411-1.164-0.81-1.777-0.191
		c-0.625,0.632-0.151,1.203,0.24,1.765c0.426,0.614,0.839,1.243,1.193,1.9c0.401,0.746,1.398,1.659,0.133,2.306
		c-1.016,0.52-2.776,0.732-3.096-0.499c-0.62-2.385-3.084-3.456-3.566-5.877c-0.301-1.511-1.485-1.385-2.498-0.552
		c-1.291,1.063-1.162,3.102,0.436,3.997c1.923,1.078,2.186,2.849,2.77,4.749c-1.828-0.091-1.946-1.332-2.249-2.431
		c-0.276-1.007-0.946-1.534-1.998-1.555c-0.975-0.019-1.823,0.175-2.202,1.242c-0.155,0.431-0.042,1.056-0.77,1.164
		c-0.68-0.611-1.195-1.773-2.43-0.923c-0.686,0.472-1.036,1.177-0.751,1.952c0.383,1.04,0.961,2.088,2.353,1.535
		c0.71-0.28,0.924-0.13,0.949,0.539c0.045,1.246,1.13,2.426-0.016,3.768c-0.649,0.76-0.194,1.556,0.738,1.987
		c0.727,0.336,1.635,0.462,1.957,1.761c-1.381-0.774-2.298-0.295-3.1,0.724c-0.833,1.057-1.774,1.428-2.951,0.332
		c-0.766-0.713-1.972-0.88-2.232,0.265c-0.414,1.819-2.227,2.512-2.555,4.149c-0.756-0.105-0.801-0.582-0.979-0.937
		c-0.387-0.771-1-1.173-1.83-0.888c-0.993,0.342-1.73,1.043-1.901,2.123c-0.13,0.817,0.267,1.697,1.007,1.814
		c1.708,0.27,2.805,1.782,4.502,1.989c0.583,0.071,1.243,0.233,1.434,0.844c0.313,1.002-0.772,0.863-1.196,1.273
		c-0.341,0.331-0.693,0.652-1.106,1.039c-0.488-1.101-0.272-2.591-1.898-2.694c-1.504-0.096-1.734,0.974-1.901,2.108
		c-0.077,0.525-0.291,1.021-0.941,0.886c-0.54-0.112-0.963-0.585-0.771-1.098c0.667-1.788-1.248-2.134-1.752-3.273
		c-1.024-2.314-2.323-0.291-3.495-0.062c-0.856,0.167-1.681,0.037-2.461-0.225c-1.683-0.563-2.774-0.22-3.056,1.694
		c-0.059,0.402-0.134,0.902-0.648,0.944c-0.7,0.058-0.721-0.54-0.799-1.02c-0.132-0.808-0.058-1.841-1.204-1.866
		c-1.075-0.025-1.576,0.811-1.818,1.762c-0.224,0.882-0.603,1.401-1.565,0.81c-0.513-0.315-1.04-0.66-1.551-0.058
		c-0.511,0.603-0.383,1.304,0.045,1.847c0.765,0.973,0.939,2.056,1.054,3.248c0.153,1.582,1.014,1.789,2.182,0.756
		c0.569-0.502,1.043-1.071,1.268-1.821c0.212-0.712,0.396-1.685,1.429-1.161c0.772,0.392,0.433,1.139-0.003,1.714
		c-0.405,0.534-0.927,1.088-0.433,1.776c0.446,0.623,1.173,0.538,1.839,0.413c0.913-0.171,1.187-0.781,1.118-1.65
		c-0.08-0.989,0.105-1.891,1.273-2.08c0.681-0.11,1.036,0.435,1.298,0.977c0.492,1.019-0.073,1.541-0.926,1.94
		c-0.666,0.312-1.071,0.829-0.902,1.595c0.193,0.874,0.854,1.165,1.68,1.188c0.85,0.024,1.956-0.464,2.122,0.984
		c0.045,0.392,0.099,1.003-0.116,1.167c-1.029,0.783-1.615-0.366-2.385-0.696c-3.329-1.424-5.854-0.513-6.367,2.311
		c-0.176,0.972,0.005,1.762,0.674,2.53c0.646,0.741-0.059,1.929-0.469,1.537c-1.692-1.613-3.469-1.959-5.598-1.396
		c-0.08,0.021-0.242-0.329-0.346-0.318c-1.545,0.171-3.184-1.846-4.579-0.065c-1.424,1.818-3.194,2.221-5.294,2.052
		c-1.269-0.103-2.392,0.056-2.469,1.696c-0.077,1.655-1.197,1.799-2.463,1.691c-1.191-0.102-2.238-0.578-3.209-1.276
		c-0.669-0.482-1.423-0.63-1.98,0.146c-0.477,0.666-0.522,1.525,0.055,2.086c1.217,1.183,2.299,2.671,4.464,1.985
		c1.512-0.48,2.815-0.098,3.229,1.745c0.155,0.688,0.703,1.14,1.269,1.489c0.988,0.61,1.61,1.357,0.671,2.384
		c-1.141,1.247-1.709-0.108-2.336-0.719c-0.599-0.585-1.059-1.362-2.058-1.095c-1.156,0.31-0.778,1.284-0.847,2.071
		c-0.017,0.206-0.201,0.398-0.775,1.46c0.148-2.682-2.354-2.03-2.683-3.766c-0.469-2.474-1.637-1.283-2.489-0.347
		c-0.718,0.79-1.148,1.812-1.106,2.976c0.036,0.978-0.093,1.939-1.312,2.688c0-0.584-0.018-0.89,0.003-1.193
		c0.063-0.916,0.271-2.039-0.956-2.211c-1-0.141-1.567,0.752-1.998,1.605c-0.258,0.51-0.03,1.421-1.088,1.37
		c-0.331-0.491-0.228-0.968,0.037-1.409c0.641-1.068,0.761-2.074-0.44-2.8c-1.267-0.766-1.698,0.17-2.239,1.111
		c-0.833,1.449-1.997,1.085-2.851,0.087c-0.803-0.937-1.531-1.701-2.64-0.667c-1.056,0.985-0.113,1.774,0.477,2.569
		c0.343,0.461,1.375,0.915,0.477,1.549c-0.672,0.473-1.445-0.071-1.91-0.722c-0.234-0.329-0.322-0.761-0.488-1.142
		c-0.335-0.767-0.892-1.273-1.757-1.03c-1.96,0.55-1.725,2.672-2.687,3.954c-0.342,0.456,0.051,1.124,0.656,1.422
		c0.144,0.071,0.319,0.1,0.482,0.111c1.959,0.134,3.719,1.172,5.824,0.901c2.239-0.288,3.126,0.989,2.524,3.205
		c-0.321,1.184-0.436,2.225,0.93,2.651c1.483,0.463,0.862,0.931,0.229,1.678c-1.542,1.821-2.935,3.595-5.41,4.495
		c-2.89,1.052,2.063,3.295-0.336,4.897c-0.259,0.174,0.637,1.78,1.188,1.57c2.767-1.058,3.595,0.181,4.024,2.668
		c0.097,0.554,0.522,0.83-0.129,1.257c-0.944,0.62-1.404,1.49-0.855,2.559c0.545,1.061,1.509,0.635,2.427,0.574
		c1.795-0.119,3.703-0.215,3.304,2.595c-0.151,1.059,0.536,1.477,1.499,1.568c1.438,0.135,2.604-0.362,3.55-1.446
		c0.324-0.371,0.773-0.862,1.256-0.496c0.631,0.478,0.219,1.049-0.193,1.49c-0.738,0.791-1.129,1.663-0.647,2.719
		c0.285,0.623,0.866,0.754,1.481,0.633c1.136-0.222,1.33-1.106,1.407-2.073c0.034-0.427,0.184-0.904,0.684-0.875
		c0.707,0.041,0.645,0.661,0.596,1.143c-0.072,0.723-0.06,1.418-0.747,2.012c-1.742,1.506-6.243,1.996-8.202,0.735
		c-0.588-0.378-1.178-0.759-1.832-0.33c-0.781,0.513-0.563,1.274-0.34,2.024c0.836,2.819-0.838,5.285-1.198,7.939
		c-0.099,0.726-1.05,1.14-1.846,0.736c-0.843-0.427-0.569-1.074-0.052-1.631c0.881-0.95,1.901-2.108,0.528-3.152
		c-1.456-1.107-2.786-0.063-3.511,1.239c-1.344,2.414-3.248,2.992-5.736,2.208c-0.726-0.229-1.374-0.185-1.688,0.567
		c-1.117,2.671-1.799,5.378-0.39,8.179c0.505,1.004,1.245,1.688,2.381,1.164c1.042-0.48,0.6-1.383,0.309-2.171
		c-0.517-1.4,1.445-4.3,2.881-4.265c0.504,0.013,0.783,0.305,0.816,0.763c0.194,2.66,1.787,1.979,3.367,1.458
		c1.884-0.621,3.733-2.782,5.733-0.099c0.401,0.536,1.076,0.171,1.557-0.23c0.34-0.283,0.724-0.468,1.103-0.108
		c0.369,0.351,0.286,0.82-0.01,1.123c-1.391,1.421-1.495,3.464-2.504,5.064c-0.578,0.916-1.448,2.047-0.223,2.834
		c1.44,0.927,2.303-0.328,2.874-1.479c0.629-1.269,0.999-2.837,2.303-3.474c2.497-1.22,3.884-2.868,3.263-5.766
		c-0.008-0.033,0.259-0.126,0.451-0.216c0.762,2.793,1.738,5.309,5.344,5.373c0.824,0.015,1.506,0.995,1.788,1.926
		c0.147,0.491,0.173,1.059-0.31,1.358c-0.481,0.298-0.664-0.257-0.972-0.504c-1.578-1.265-2.869-0.955-2.892,0.906
		c-0.032,2.63-1.176,2.842-3.299,2.323c-1.046-0.255-2.316,0.024-2.823,1.125c-0.524,1.139,0.603,1.742,1.268,2.45
		c0.839,0.892,2.319,1.304,2.395,3.089c-1.528-0.377-2.8-0.346-3.796-1.773c-1.262-1.808-4.15-2.154-6.144-1.015
		c-1.099,0.628-1.47,0.01-1.968-0.717c-0.551-0.807-1.277-1.365-2.32-1c-0.612,0.214-0.836,0.775-0.876,1.397
		c-0.07,1.073,0.48,1.718,1.446,2.071c0.547,0.199,1.126,0.338,1.631,0.614c0.596,0.326,0.872,1.264,0.229,1.315
		c-2.192,0.174-2.512,2.351-4.082,3.65c-0.51-2.21-0.774-4.285-3.011-5.099c-0.507-0.184-0.522-0.802-0.47-1.323
		c0.116-1.161-0.423-1.789-1.575-1.685c-1.138,0.104-2.629,0.798-2.368,1.752c0.452,1.65-0.541,3.582,0.254,4.675
		c2.115,2.908,1.002,7.275,4.51,9.463c0.517,0.323,0.858,1.079,0.527,1.789c-0.267,0.575-0.83,0.421-1.32,0.349
		c-0.98-0.144-1.924-0.102-2.149,1.095c-0.202,1.073,0.496,1.674,1.393,2.106c0.446,0.214,0.85,0.514,1.276,0.773
		c1.032,0.628,1.936,2.068,3.225,1.469c1.482-0.69-0.23-1.865-0.037-2.859c0.112-0.568-0.023-1.279,0.637-1.5
		c1.025-0.342,0.999,0.518,1.126,1.158c0.135,0.68,0.613,0.944,1.253,1.004c0.622,0.058,1.492-0.217,1.541,0.782
		c0.04,0.825-0.8,0.639-1.288,0.871c-1.804,0.857-2.403,3.556-0.866,4.736c1.637,1.256,2.035,2.614,1.623,4.542
		c-0.22,1.029-0.124,2.411,1.395,2.418c1.359,0.006,1.282-1.184,1.33-2.229c0.119-2.626,1.797-3.683,4.279-2.844
		c0.699,0.237,1.485,0.206,2.198,0.412c1.614,0.466,3.602,0.994,3.819,2.765c0.209,1.707-0.924,3.332-2.684,4.123
		c-0.853,0.384-1.387,0.909-1.358,1.869c0.031,1.018,0.671,1.432,1.599,1.591c0.518,0.089,1.391-0.088,1.25,0.803
		c-0.149,0.95-0.986,1.144-1.748,0.803c-1.408-0.63-2.594,0.104-3.852,0.436c-1.201,0.317-1.618,1.083-0.648,1.953
		c1.967,1.766,0.53,2.547-0.924,2.78c-2.875,0.461-3.111,1.989-2.219,4.251c-1.174,0.151-2.323,0.354-2.861,1.625
		c-0.725,1.715-1.141,4.67-3.23,0.774c-0.135-0.251-0.541-0.492-0.829-0.502c-1.32-0.047-2-0.628-2.495-1.92
		c-0.476-1.242-1.657-1.145-2.327-0.086c-0.659,1.043-1.046,1.564-2.18,0.473c-0.754-0.725-1.546-0.036-2.164,0.555
		c-0.505,0.483-0.841,1.058-0.609,1.786c0.304,0.951,0.978,0.976,1.8,0.702c0.774-0.258,1.398,0.175,1.641,0.799
		c1.019,2.615,3.511,4.261,4.55,6.763c0.92,2.219,2.576,3.123,4.577,3.826c0.502,0.177,1.331-0.116,1.383,0.723
		c0.046,0.755-0.542,1.104-1.213,1.388c-1.714,0.726-3.948,5.691-3.274,7.354c0.518,1.275,1.509,2.185,2.795,2.688
		c0.563,0.222,1.179,0.134,1.584-0.399c0.27-0.356,0.273-0.799,0.014-1.168c-1.526-2.188-0.631-4.239,0.284-6.32
		c0.265-0.6,0.307-1.513,1.185-1.28c1.154,0.307,0.531,1.175,0.295,1.831c-0.275,0.764-0.416,1.496,0.438,1.954
		c0.817,0.438,1.603,0.31,2.29-0.342c0.419-0.397,0.477-1.503,1.42-0.92c2.216,1.37,3.12-0.163,4.02-2.163
		c1.15,2.311,2.617,2.691,4.671,1.852c0.739-0.301,2.182-0.414,2.453,0.93c0.432,2.145-2.106,4.613-4.555,4.537
		c0.424-1.039,1.643-1.133,2.226-1.938c0.412-0.571,0.677-1.205,0.251-1.851c-0.398-0.6-1.019-0.565-1.54-0.185
		c-1.339,0.979-2.068-0.683-3.183-0.687c-2.067-0.006-0.41,2.207-1.633,2.682c-0.154,0.059-0.324,0.073-0.485,0.118
		c-0.768,0.216-1.128,0.749-0.94,1.505c0.307,1.232-0.144,2.268-0.611,3.354c-0.334,0.775-0.466,1.697,0.353,2.277
		c0.83,0.59,1.606,0.196,2.193-0.495c0.657-0.774,1.236-0.884,1.643,0.15c0.605,1.541,1.296,3.088,1.359,4.761
		c0.097,2.548,2.529,4.514,5.09,3.992c0.956-0.193,5.262,1.736,5.586,2.629c0.306,0.84,0.584,1.577,1.62,1.604
		c1.082,0.031,1.244-0.799,1.606-1.582c1.045-2.256,3.176-3.364,4.728-2.293c1.43,0.99,2.672,1.14,4.159,0.383
		c0.663-0.336,1.317-0.2,1.769,0.435c0.395,0.556-0.052,0.904-0.37,1.287c-0.668,0.802-1.368,1.812-0.263,2.569
		c1.15,0.787,2.453,0.509,3.205-0.811c0.596-1.047,1.256-1.492,2.409-0.844c1.227,0.691,2.301,0.125,2.688-0.939
		c1.14-3.135,4.358-3.016,6.51-4.589c-0.039,0.526-0.269,0.849-0.456,1.194c-0.483,0.896-1.801,2.137-0.86,2.729
		c1.076,0.676,2.512-0.225,3.219-1.559c0.118-0.221,0.166-0.531,0.348-0.654c0.939-0.642,1.25-2.949,2.484-2.037
		c1.087,0.801-1.004,1.459-1.438,2.34c-0.146,0.295-0.387,0.545-0.539,0.838c-0.369,0.705-1.156,1.83-0.037,2.072
		c1.968,0.424,3.522,2.418,5.802,1.549c0.917-0.473,2.003,0.311,2.888-0.387c1.399-1.836,2.712-1.591,4.004,0.137
		c0.645,0.86,1.427,1.625,2.004,2.524c0.818,1.276,1.637,1.483,2.826,0.452c1.084-0.941,1.869-0.448,2.199,0.781
		c0.505,1.884,1.477,1.4,2.559,0.59c0.493-0.368,0.827-1.443,1.542-0.922c2.687,1.961,3.408,0.564,3.388-2.395
		c1.062,1.295,1.54,2.736,3.057,2.521c1.61-0.229,1.123-1.925,1.637-3.05c2.225,1.422,1.471,2.857,0.135,3.88
		c-1.008,0.772-1.915,1.583-2.673,2.562c-1.794,2.32-3.593,4.73-6.589,5.432c-1.307,0.305-2.024,0.602-1.891,1.974
		c0.129,1.334,0.908,2.081,2.223,2.325c1.829,0.338,3.094-0.191,3.609-2.121c0.19-0.715,0-2.148,1.139-1.766
		c1.114,0.375-0.123,1.383-0.155,2.131c-0.031,0.736-0.319,1.461-0.4,2.201c-0.065,0.604,0.112,1.207,0.769,1.418
		c0.73,0.235,1.295-0.119,1.709-0.709c0.459-0.652,0.557-1.431,0.425-2.162c-0.363-2.008-1.144-4.102,1.694-5.032
		c0.145-0.048,0.248-0.438,0.25-0.669c0.009-1.373,0.468-1.725,1.608-0.786c0.782,0.644,1.732,0.892,2.501,0.178
		c0.891-0.827,0.16-1.667-0.322-2.44c-0.346-0.553-1.395-1.328,0.122-1.553c2.36-0.348,3.095-2.313,4.245-3.875
		c0.817-1.105,1.642-2.111,3.18-2.224c0.162,1.147-1.059,1.606-0.928,2.41c0.378,2.338-1.054,2.817-2.852,3.181
		c-1.334,0.27-1.941,1.37-1.861,2.617c0.104,1.634,1.439,0.882,2.326,0.986c0.203,0.022,0.384,0.219,0.695,0.406
		c-0.342,0.461-0.59,0.887-0.926,1.231c-0.844,0.866-2.992,1.353-1.771,2.922c1.095,1.408-0.303,2.826,0.645,3.962
		c0.583,0.698,1.251,1.342,1.968,1.901c0.559,0.436,1.262,0.466,1.843-0.044c0.55-0.481,0.351-1.057,0.073-1.596
		c-0.153-0.295-0.336-0.58-0.549-0.834c-0.616-0.74-0.416-1.42,0.21-1.975c0.81-0.716,1.196,0.07,1.546,0.588
		c0.797,1.178,2.842,1.574,2.27,3.663c-0.062,0.231,0.588,0.798,1.007,0.995c1.527,0.717,2.066,1.529,0.678,2.945
		c-0.604,0.615-0.913,1.566-0.114,2.225c0.885,0.73,1.727,0.168,2.398-0.53c0.634-0.659,1.191-1.392,1.833-2.04
		c0.311-0.316,0.778-0.391,1.104,0c0.268,0.321,0.062,0.659-0.25,0.807c-1.836,0.877-1.267,2.121-0.74,3.556
		c0.449,1.224,0.542,2.707,2.359,1.851c1.428-0.675,1.547-1.886,0.578-3.104c-0.81-1.017-0.512-1.674,0.357-2.529
		c2.51-2.47,2.479-3.258,0.139-5.674c-0.677-0.701-0.658-4.12,0.135-4.556c1.399-0.766,2.727-0.691,3.675,0.828
		c0.705,1.129,1.706,2.164,2.079,3.393c0.933,3.07,3.197,4.837,5.764,6.247c2.197,1.207,4.035,2.644,4.989,5.003
		c0.545,1.346,1.483,1.997,2.875,2.469c1.622,0.549,3.62,0.604,4.729,2.088c3.08,4.125,6.192,8.274,7.838,13.229
		c1.903,5.733,1.886,11.909,4.007,17.621c1.271,3.422,1.9,7.106,3.386,10.418c2.938,6.547,2.772,13.135,1.478,19.968
		c-0.482,2.54-1.3,4.977-1.753,7.497c-1.35,7.519-2.545,15.063-3.924,22.577c-0.412,2.244-0.562,4.437-0.324,6.696
		c0.497,4.735,0.317,9.495,0.161,14.233c-0.109,3.319-2.259,5.174-4.712,4.188c-2.261-0.909-4.357-0.762-6.582-0.282
		c-0.972,0.21-2.06,0.599-2.949,0.361c-4.501-1.21-8.878,0.372-13.312,0.389c-2.115,0.007-4.39,0.336-6.296-0.328
		c-1.579-0.551-2.928-0.623-4.515-0.587c-1.946,0.044-3.783,0.6-5.623,0.941c-3.756,0.699-7.393-0.653-11.164-0.098
		c-1.97,0.29-4.738,0.884-6.271-1.721c-0.131-0.222-0.807-0.304-1.136-0.189c-0.631,0.224-0.417,0.788-0.271,1.27
		c0.287,0.941,0.125,2.062-1,1.513c-2.106-1.026-4.051-0.438-6.047-0.049c-2.887,0.563-5.57-0.387-8.27-1.06
		c-2.317-0.575-5.16-1.326-6.776,0c-3.128,2.566-6.048,0.394-8.892,0.277c-1.884-0.076-3.752-1.224-5.847-0.334
		c-0.636,0.271-1.617,0.31-2.209,0.004c-3.019-1.555-5.939,1.257-8.983,0.369c-2.553,2.47-5.106,4.939-7.663,7.405
		c0.559-0.089,1.119-0.192,1.681-0.32c0.645-0.146,1.485-0.502,1.923-0.003c1.195,1.363,2.758,0.803,4.069,1.167
		c2.76,0.767,5.292,1.116,8.128,0.674c1.309-0.204,2.521,1.107,3.601,2.046c0.438,0.383,1,0.664,1.611,0.379
		c0.431-0.201,0.467-0.613,0.449-1.061c-0.023-0.589-0.959-1.332-0.021-1.721c0.867-0.359,1.651,0.307,2.006,1.092
		c0.629,1.392,1.335,1.034,2.327,0.398c2.222-1.423,4.758,1.928,6.971-0.388c0.268,0.317,0.473,0.749,0.813,0.93
		c1.638,0.875,3.261,2.433,5.234,1c1.765-1.28,3.139-0.854,4.314,0.64c0.945,1.203,1.993,1.442,3.482,1.312
		c2.029-0.178,4.159-0.257,6.129,0.168c3.156,0.683,6.55,0.17,9.51,1.89c0.325,0.189,0.955-0.213,1.449-0.231
		c1.899-0.07,3.841-0.661,5.689-0.095c3.262,0.999,6.547,0.919,9.85,0.561c4.039-0.436,7.992-0.256,11.875,0.96
		c-0.111,1.263-2.25,1.052-1.423,2.447c0.736,1.241,1.95,1.092,3.096,0.536c0.713-0.346,1.484-0.159,2.175-0.306
		c1.838-0.393,3.854,1.302,5.25,0.212c1.647-1.284,3.016-0.988,4.216-0.101c1.696,1.253,3.635,1.323,5.458,1.439
		c1.96,0.126,3.735-0.332,5.914,0.338c1.902,0.584,4.375-0.157,5.984,1.773c1.02-1.044-1.158-1.833,0.302-2.56
		c1.846-0.919,6.193,0.01,7.749,1.715c0.717,0.788,1.486,0.989,2.08,0.144c1.563-2.223,3.742-1.896,5.878-1.523
		c1.83,0.319,3.648,0.309,5.478,0.257c2.9-0.083,5.816-0.39,8.614,0.733c0.583,0.233,1.269,0.28,1.604-0.263
		c1.002-1.62,2.436-1.193,3.781-0.84c2.01,0.527,4.168-0.271,6.115,0.793c0.415,0.228,1.135,0.132,1.309-0.398
		c0.795-2.427,2.725-1.448,4.197-1.323c2.723,0.231,5.309,0.066,7.703-1.348c0.52-0.308,0.979-0.55,1.623-0.347
		c4.043,1.275,8.08,2.516,11.779-0.931c0.379-0.354,1.105-0.309,1.634-0.536c2.737-1.174,5.677-0.469,8.504-0.918
		c1.786-0.284,3.676-0.755,5.364-0.706c2.948,0.085,5.857-1.245,8.824-0.139c1.256,0.469,2.802,0.638,3.74-0.542
		c1.744-2.194,3.577-2.051,5.669-0.681c1.282,0.841,2.308,1.007,3.242-0.677c0.777-1.4,2.02-1.482,3.332-0.316
		c1.488,1.322,3.017,1.396,4.218-0.44c0.588-0.898,1.421-1.218,2.363-0.994c4.125,0.978,8.328,0.274,12.437,0.206
		c2.819-0.047,5.899-0.215,8.651-1.446c0.069-0.257,0.142-0.512,0.206-0.771c0.069-0.308,0.125-0.544,0.173-0.746
		c0.04-0.442,0.088-0.884,0.119-1.326c0.075-1.258,0.154-2.519,0.146-3.778c-0.006-0.893-0.025-1.786-0.063-2.679
		c-0.58,0.006-1.158-0.023-1.729-0.121c-3.086-0.526-6.367,0.343-9.291-1.297c-0.295-0.166-0.574-0.091-0.914,0.062
		c-1.983,0.892-4.408-0.14-6.27,1.405c-0.076,0.063-0.453-0.168-0.642-0.321c-1.073-0.871-2.33-0.883-3.575-0.684
		c-5.166,0.829-10.336,0.777-15.412-0.39c-3.615-0.832-7.007-0.059-10.403,0.794c-1.333,0.335-2.38,0.473-3.443-0.511
		c-1.33-1.229-2.811-1.047-4.437-0.537c-1.886,0.592-4.025,1.627-5.756,1.215c-4.557-1.086-9.138-0.386-13.685-0.796
		c-1.797-0.163-3.856-1.318-5.282-0.509c-1.992,1.128-3.609,0.473-5.467,0.283c-2.414-0.246-4.801-1.642-7.314-0.299
		c-0.338,0.182-1.086,0.029-1.398-0.247c-1.73-1.526-3.743-1.092-5.719-0.963c-1.074,0.07-2.158,0.112-3.217,0.292
		c-0.873,0.148-1.364-0.168-1.35-0.979c0.077-4.247-0.646-8.44-0.841-12.646c-0.168-3.634-0.394-7.278-0.498-10.921
		c-0.172-5.966-1.144-11.938-0.117-17.905c0.282-1.633,1.146-3.225,1.142-4.834c-0.008-4.06,1.188-8.08,0.324-12.17
		c-0.164-0.77,0.062-1.66,0.254-2.459c1.336-5.519,1.274-11.195,0.211-16.592c-1.403-7.111-2.131-14.307-3.465-21.413
		c-0.276-1.466-0.136-2.952,0.36-4.433c2.138-6.372,6.545-10.893,11.794-14.76c0.732-0.541,1.589-1.012,2.109-1.721
		c3.551-4.824,7.754-9.134,11.066-14.144c0.426-0.642,0.985-1.718,1.883-1.324c1.06,0.463,1.049,1.909,0.67,2.644
		c-0.953,1.847-1.395,3.34,0.729,4.651c0.54,0.334,0.326,1.035,0.104,1.615c-0.678,1.782-0.473,3.584,1.434,4.146
		c1.852,0.547,2.484-1.166,2.887-2.689c0.043-0.161,0.079-0.325,0.137-0.48c0.199-0.549,0.365-1.184,1.104-1.162
		c0.725,0.02,0.993,0.615,1.039,1.207c0.128,1.633,1.051,1.615,2.418,1.596c3.091-0.043,5.818-1.364,8.708-2.098
		c3.612-0.918,7.62-0.668,10.581-3.603c0.391-0.388,1.266-0.459,1.896-0.408c1.865,0.151,3.816-0.629,5.604,0.55
		c0.517,0.34,1.3,0.159,1.598-0.326c1.089-1.781,2.917-2.666,4.453-3.904c0.499-0.402,0.492-1.85,1.438-1.152
		c0.837,0.619,0.056,1.51-0.543,2.1c-1.127,1.11-2.305,2.17-3.431,3.28c-0.358,0.354-1.114,0.634-0.338,1.581
		c2.326-1.525,4.537-3.262,7.043-4.553c1.276-0.656,1.776-2.072,0.007-3.124c-0.469-0.278-1.396-0.728-0.593-1.159
		c0.832-0.445,2.281-1.749,2.962,0.401c0.274,0.866,0.551,1.733,0.814,2.603c0.526,1.744,1.751,2.23,2.849,0.879
		c1.049-1.291,1.855-0.994,2.967-0.332c0.489,0.291,0.952,1.037,1.774,0.434c-0.501-1.637-0.999-3.264-1.526-4.984
		c1.204,0.2,2.136,0.614,2.332,1.743c0.449,2.562,2.502,2.558,4.375,2.86c0.404,0.065,0.89,0.026,1.082-0.412
		c0.23-0.52-0.203-0.737-0.588-0.905c-0.699-0.306-1.237-0.679-0.552-1.467c0.448-0.517,1.045-0.608,1.523-0.084
		c0.78,0.854,1.641,1.157,2.653,0.522c1.107-0.693,0.934-1.787,0.897-2.902c-0.078-2.34-0.803-5.01,2.723-5.748
		c0.717-0.15,1.091-1.688,2.186-0.516c0.985,1.053,1.431,2.125,0.408,3.383c-0.999-0.342-0.259-2.223-1.734-1.767
		c-1.03,0.319-1.939,1.005-2.241,2.173c-0.104,0.397-0.133,0.823-0.137,1.237c-0.018,1.74,0.2,3.499-1.037,5.015
		c-0.412,0.504-0.34,1.129,0.514,1.277c2.094,0.365,5.084-1.741,5.49-3.895c0.172-0.91,0.312-1.822,1.14-2.406
		c0.37-0.26,0.793-0.276,1.153,0.018c0.309,0.252,0.344,0.664,0.005,0.836c-1.776,0.904-0.626,2.568-0.976,3.836
		c-0.41,1.483,0.502,2.049,1.875,1.354c1.15-0.584,1.842-0.858,2.339,0.82c0.499,1.688,1.653,2.056,2.812,0.369
		c0.354-0.515,0.836-0.834,1.079-0.145c0.501,1.424,2.219,1.799,2.605,3.255c0.252,0.95,0.836,1.052,1.719,0.847
		c3.557-0.832,6.387,1.937,5.578,5.437c-0.178,0.768-0.375,1.543,0.424,2.008c0.845,0.492,1.674,0.133,2.237-0.536
		c0.857-1.021,1.761-2.15,1.074-3.594c-0.504-1.061-0.258-2.159-0.266-3.189c-0.012-1.646,1.745-1.451,2.777-1.934
		c0.752-0.354,1.116,0.232,1.369,0.986c1.088,3.265,3.364,4.192,6.736,2.797c0.434-0.178,1.184-0.799,1.245-0.438
		c0.387,2.207,4.057,2.907,2.42,5.911c4.15-0.882,5.102-2.173,4.205-5.608c1.25,0.279,2.437,0.598,3.643,0.801
		c1.687,0.283,3.526-1.227,3.625-2.896c0.021-0.344-0.004-0.749-0.362-0.814c-0.263-0.049-0.696,0.102-0.846,0.311
		c-0.281,0.391-0.429,0.883-0.601,1.346c-0.208,0.555-0.363,1.248-1.168,0.824c-0.57-0.3-0.834-0.992-0.494-1.506
		c0.649-0.98,1.044-2.05,1.515-3.105c0.263-0.59,1.151-1.317,1.566-0.938c1.81,1.651,4.07-0.412,5.898,0.894
		c0.487,0.349,1.368,0.207,1.794-0.438c0.476-0.728,0.284-1.671-0.305-2.05c-1.74-1.119-1.684-2.311-0.662-3.877
		c0.445-0.685,0.59-1.647-0.28-2.244c-0.746-0.512-1.402-0.117-2.019,0.408c-0.523,0.445-1.791,1.035-1.745,0.82
		c0.642-3.047,1.089-6.438,5.714-5.062c0.78,0.232,1.623-0.411,1.88-1.329c0.272-0.978-0.391-1.506-1.083-2.039
		c-2.189-1.683-5.152-1.112-7.418-2.585c0.252-1.164,2.119-1.551,1.695-2.857c-0.448-1.387-0.471-2.512,0.357-3.715
		c0.341-0.496,0.308-1.17-0.273-1.561c-0.563-0.379-1.103-0.137-1.604,0.24c-0.543,0.408-0.908,1.293-1.778,0.816
		c0.333-3.588,3.615-4.783,5.595-7.016c0.478-0.538,0.931-0.92,0.755-1.657c-0.191-0.795-0.713-1.308-1.504-1.511
		c-0.732-0.186-1.43,0.011-1.67,0.722c-0.437,1.285-1.224,1.397-2.332,0.996c-0.391-0.142-1.009-0.188-1.115,0.242
		c-0.551,2.19-2.522,3.702-2.795,6.015c-0.307,2.592-2.464,3.833-4.856,2.672c-1.335-0.648-2.46-0.972-3.608,0.233
		c-0.348,0.362-1.107,0.696-1.17,0.065c-0.131-1.32,1.122-2.279,1.277-3.66c0.115-1.02,1.039-0.345,1.625-0.205
		c1.328,0.32,2.07,0.037,1.994-1.569c-0.156-3.319-2.42-4.997-4.884-6.554c-0.47-0.297-0.927-0.211-1.396,0.1
		c-0.514,0.341-1.107,1.163-1.692,0.471c-0.609-0.721,0.041-1.459,0.674-1.858c1.667-1.056,1.664-2.487,1.218-4.16
		c-0.293-1.103-0.385-2.263,0.93-3.166c-0.09,1.988,1.164,3.654,0.947,5.662c-0.209,1.923,1.05,2.92,2.641,3.425
		c1.974,0.627,1.213-1.294,1.598-2.032c0.513-0.984,1.061-1.91,1.909-2.583c2.23-1.772,2.078-5.479,5.273-6.458
		c0.111-0.035,0.177-0.276,0.229-0.432c0.957-2.924,0.659-5.965,0.721-8.958c0.018-0.902-1.002-1.204-1.657-0.461
		c-1.692,1.919-2.06,0.065-2.466-0.911c-0.404-0.972-0.112-2.319-0.672-3.121c-1.368-1.964-0.944-2.832,1.225-3.639
		c1.838-0.684,1.95-2.33,0.527-3.769c-0.489-0.495-1.557-0.813-0.877-1.708c0.561-0.737,1.547-1.158,2.424-0.443
		c0.93,0.758,1.639,0.572,2.396-0.172c0.5-0.492,1.059-0.831,1.789-0.477c0.87,0.422,1.63,0.43,2.049-0.607
		c0.425-1.052-0.101-1.712-0.932-2.304c-1.292-0.921-2.362-2.039-3.227-3.411c-0.489-0.779-0.73-1.401,0.077-1.889
		c2.889-1.746,1.559-3.674,0.373-5.67c-1.42-2.39-2.685-2.653-4.051-0.382c-1.287,2.142-3.188,2.477-5.261,2.696
		c-0.666,0.071-1.779,0.419-1.919-0.51c-0.144-0.963,0.733-1.604,1.721-1.812c0.404-0.086,0.84-0.034,1.24-0.125
		c1.369-0.31,3.661-0.141,1.337-2.484c-0.24-0.242-0.361-0.8-0.27-1.138c0.836-3.056-1.661-5.441-1.652-8.327
		c0.002-0.27-0.389-0.525-0.551-0.814c-0.329-0.592-0.744-1.425,0.393-1.378c1.02,0.042,1.026,1.187,1.201,1.963
		c0.199,0.888,0.212,1.816,0.375,2.713c0.229,1.262,0.951,2.133,2.246,2.373c0.702,0.13,1.716-0.159,1.353-0.897
		c-0.993-2.016,0.452-2.852,1.5-3.963c0.604-0.642,0.986-1.399,0.466-2.257c-0.421-0.694-1.145-0.649-1.792-0.434
		c-3.022,1.002-5.453-1.599-8.349-1.33v-0.549c2.421,0.202,4.354-1.864,6.899-1.303c0.669,0.148,1.654-0.759,1.386-1.447
		c-0.664-1.707,0.457-3.613,0.01-4.771c-1.27-3.295,1.853-3.938,2.623-6.576C409.315,175.665,408.422,176.513,407.526,177.361z
		 M103.344,224.325c-2.81,0.774-3.514,1.639-2.576,4.438c0.421,1.256-0.336,2.52,0.597,3.804c0.516,0.71-1.014,1.205-1.481,0.821
		c-2.886-2.375-4.785,0.774-7.152,1.167c-0.261,0.044-0.681,0.466-0.659,0.673c0.29,2.722-2.239,4.686-1.958,7.375
		c0.07,0.672-0.041,1.172-0.703,1.395c-0.729,0.245-1.511,0.308-2.184-0.083c-0.663-0.386-0.383-0.991-0.139-1.542
		c0.593-1.333,0.291-3.239,2.523-3.496c0.721-0.083,0.742-0.986,0.646-1.689c-0.056-0.41-0.093-0.829-0.075-1.242
		c0.179-4.268,0.182-4.282-4.138-4.203c-0.62,0.011-1.149-0.006-1.532-0.549c2.248-0.688,4.602-1.071,5.911-3.509
		c0.534-0.994,1.81-1.405,3.037-1.471c2.714-0.146,5.008-0.792,5.469-4.063c0.103-0.736,0.941-1.276,1.733-1.163
		c1.307,0.187,2.405,0.053,3.475-0.837c0.646-0.538,1.59-0.387,1.75,0.584c0.207,1.245,1.321,0.981,2.061,1.404
		C106.912,224.098,104.948,223.883,103.344,224.325z M109.934,119.053c-2.658,0.232-2.914,2.009-2.779,4.099
		c0.022,0.352-0.115,0.65-0.719,0.629c-0.692-1.175-0.31-2.238-0.003-3.246c0.439-1.454,1.252-2.655,0.652-4.47
		c-0.353-1.069,1.587-2.036,2.566-2.931c0.426-0.389,0.695,0.49,0.59,0.967c-0.275,1.255-0.297,2.451,0.318,3.637
		C110.881,118.36,110.663,118.989,109.934,119.053z M212.886,294.246c-2.447,3.393-3.076,0.635-4.945-0.119
		c-5.134-2.075-6.532-7.236-9.861-10.752c-0.127-0.135-0.078-0.436-0.131-0.791c1.367-0.073,2.098,0.753,2.589,1.684
		c2.104,3.986,5.328,6.758,9.159,9.006c1.168,0.686,1.543,0.143,1.885-0.631c0.632-1.428,0.556-2.936,0.065-4.391
		c-0.333-0.984-0.103-1.812,0.864-1.947c1.129-0.16,0.845,0.959,0.986,1.625c0.154,0.731,0.155,1.518,0.43,2.195
		C214.63,291.85,214.072,292.602,212.886,294.246z M247.152,288.627c0.898,0.436,1.53,1.303,2.469,1.805
		c1.536,0.819,0.875,2.74,0.05,3.375c-1.224,0.94-1.453,1.805-1.262,3.129c0.083,0.574-0.11,1.229-0.824,1.34
		c-0.733,0.113-1.248-0.588-1.142-1.039C247.107,294.419,244.799,291.393,247.152,288.627z M240.797,297.618
		c-1.506,7.927-2.457,15.916-4.238,23.854c-0.738-2.646-0.771-5.393-0.958-8.047c-0.198-2.812-0.922-5.867,0.987-8.476
		C238.254,302.676,239.246,300.043,240.797,297.618z M232.475,299.791c-0.183,0.363-0.239,0.865-0.739,0.885
		c-0.518,0.022-0.631-0.426-0.703-0.844c-0.426-2.439-0.584-4.93-1.303-6.715c-0.342-1.938,1-2.292,1.535-3.163
		c1.06-1.724,1.525,0.099,2.254,0.337c0.391,0.129,0.774,0.342,1.171,0.374c1.456,0.117,1.424,0.548,0.918,1.89
		C234.675,295.023,233.661,297.438,232.475,299.791z M240.579,410.764c0.135,3.377-0.699,6.588-1.271,9.846
		c-0.324,1.854-2.031,2.32-3.533,2.751c-1.04,0.297-1.267-0.642-1.228-1.41c0.328-6.489-1.828-12.858-1.015-19.346
		c0.379-3.03,1.17-6.013,1.842-9.001c1.032-4.588,2.703-9.057,2.166-13.903c-0.173-1.564,0.127-3.123,1.139-4.403
		c0.244,0.035,0.487,0.068,0.729,0.104c0,2.963-0.055,5.928,0.014,8.888c0.085,3.545-0.443,7.147,1.237,10.547
		c0.64,1.295-0.153,2.781-0.135,4.193C240.571,402.94,240.423,406.858,240.579,410.764z M252.163,364.92
		c-0.955,5.312-2.172,10.627-2.127,16.047c0.063,7.564-1.675,15.039-0.997,22.619c0.386,4.324-0.107,8.641-0.098,12.961
		c0.003,1.314-0.06,2.641-0.757,4.168c-0.866-1.175-0.672-2.122-0.614-2.998c0.661-9.983,0.897-19.932-0.847-29.873
		c-0.477-2.721,0.086-5.635,0.254-8.455c0.117-1.976-0.522-3.654-1.304-5.459c-1.728-3.98-2.193-8.342-3.128-12.56
		c-0.125-0.565,0.004-1.265-0.285-1.704c-3.308-5.021-2.072-10.802-2.708-16.252c-0.326-2.787,0.098-5.622-0.765-8.413
		c-0.714-2.308,0.901-4.364,1.551-6.427c1.432-4.543,2.709-9.079,3.295-13.809c0.058-0.466,0.106-1.008,0.805-1.287
		c1.015,4.176,1.914,8.355,3.057,12.469c2.093,7.533,3.013,15.311,5.075,22.871C253.994,354.033,253.128,359.553,252.163,364.92z
		 M261.613,302.742c-0.934,0.625-1.577,1.684-2.35,2.548c-0.429,0.478-0.75,1.312-1.513,1.063c-0.871-0.283-0.426-1.108-0.38-1.732
		c0.066-0.91,0.141-1.821,0.189-2.43c-0.059-2.633-0.16-4.975,0.869-7.158c0.198-0.426,0.434-1.043,1.051-0.822
		c0.606,0.217,0.486,0.859,0.287,1.285c-0.979,2.081-0.617,3.488,1.668,4.453C262.871,300.557,263.355,301.574,261.613,302.742z
		 M269.064,58.572c-1.028,0.573-1.621,1.358-1.651,2.572c-0.017,0.619-0.312,1.166-1.026,1.193
		c-0.755,0.029-1.375-0.404-1.433-1.117c-0.082-1.049-0.478-1.82-1.147-2.625c-0.635-0.76-0.024-1.544,0.532-2.206
		c1.315-1.563,3.33,0.272,4.804-0.977c0.223-0.187,0.383,1.104,0.633,1.496C269.848,57.73,269.605,58.271,269.064,58.572z"/>
	<path fill="#FFFFFF" d="M282.393,290.209c0.674,1.047,1.205,1.753,1.61,2.525c1.019,1.935-0.028,3.916-2.177,4.127
		c-0.971,0.094-1.723,0.549-2.4,1.182c-0.728,0.678-1.381,1.45-2.172,2.041c-0.677,0.507-1.525,1.689-2.259,0.968
		c-0.813-0.8,0.473-1.567,0.958-2.231C278.037,295.967,280.76,293.619,282.393,290.209z"/>
	<path fill="#FFFFFF" d="M249.959,27.227c-0.661,0.21-1.477,0.08-1.883,0.85c-1.229-0.002-2.906,0.801-3.278-1.104
		c-0.341-1.741,0.847-2.562,2.494-3.066c1.223-0.374,2.257-1.328,3.427-1.921c1.053-0.534,2.266-1.049,2.885,0.541
		c0.483,1.245,0.176,2.36-1.289,2.674C251.104,25.458,250.582,26.365,249.959,27.227z"/>
	<path fill="#FFFFFF" d="M173.264,49.479c-1.146,1.312,1.279,4.765-2.418,4.526c-1.236-0.08-3.425-0.296-3.469-2.471
		c-0.029-1.367,3.264-4.382,4.381-4.251C173.008,47.428,173.439,48.195,173.264,49.479z"/>
	<path fill="#FFFFFF" d="M141.038,274.652c0.917-0.473,2.003,0.311,2.888-0.387c1.467-0.113,2.933-0.115,3.477,1.627
		c0.54,1.735-0.729,2.633-1.915,3.387c-1.308,0.834-3.464-0.418-4.192-2.424C141.049,276.18,141.115,275.391,141.038,274.652z"/>
	<path fill="#FFFFFF" d="M76.285,207.057c-0.187,0.948-0.787,1.615-1.72,1.875c-0.78,0.217-1.277-0.276-1.431-1.008
		c-0.315-1.498-0.875-1.65-1.867-0.465c-0.509,0.609-1.206,0.867-2.004,0.541c-0.428-0.175-0.642-0.544-0.599-0.983
		c0.089-0.913,0.773-1.221,1.549-1.33c0.983-0.139,1.294-0.9,1.69-1.633c0.425-0.784,1.098-1.258,2.025-1.121
		c0.797,0.118,1.066,0.785,1.088,1.46C75.053,205.479,76.264,205.952,76.285,207.057z"/>
	<path fill="#FFFFFF" d="M412.429,266.029c0.233-1.51,1.491-2.625,2.66-3.769c0.361-0.353,0.948-0.349,1.386,0.011
		c0.5,0.41,0.59,0.998,0.491,1.598c-0.144,0.879-0.863,1.578-0.62,2.611c0.328,1.387,0.021,2.627-1.722,2.604
		C412.881,269.064,412.518,267.748,412.429,266.029z"/>
	<path fill="#FFFFFF" d="M133.472,74.403c-0.354,1.559-1.071,2.443-2.323,2.666c-1.193,0.212-1.612-0.506-1.545-1.635
		c0.069-1.17-0.827-1.941-1.28-2.896c-0.263-0.553-0.336-1.124,0.062-1.638c0.345-0.446,0.857-0.515,1.349-0.334
		C131.689,71.287,132.025,73.443,133.472,74.403z"/>
	<path fill="#FFFFFF" d="M248.184,420.715c-0.865-1.175-0.672-2.122-0.614-2.998c0.661-9.983,0.897-19.932-0.847-29.873
		c-0.478-2.721,0.086-5.635,0.254-8.455c0.117-1.976-0.521-3.654-1.304-5.459c-1.728-3.979-2.193-8.342-3.128-12.56
		c-0.125-0.565,0.004-1.265-0.285-1.704c-3.308-5.021-2.072-10.802-2.708-16.252c-0.325-2.787,0.099-5.622-0.765-8.413
		c-0.714-2.308,0.9-4.364,1.551-6.427c1.432-4.543,2.709-9.079,3.295-13.809c0.058-0.466,0.105-1.008,0.805-1.287
		c1.015,4.176,1.914,8.354,3.057,12.469c2.093,7.533,3.013,15.312,5.075,22.871c1.424,5.215,0.558,10.733-0.407,16.102
		c-0.955,5.312-2.172,10.627-2.127,16.047c0.062,7.564-1.675,15.039-0.997,22.619c0.387,4.324-0.106,8.641-0.098,12.961
		C248.943,417.86,248.881,419.188,248.184,420.715z"/>
	<path fill="#FFFFFF" d="M239.408,375.4c0,2.963-0.056,5.928,0.015,8.889c0.085,3.545-0.442,7.146,1.237,10.547
		c0.641,1.295-0.152,2.781-0.135,4.193c0.047,3.912-0.102,7.83,0.055,11.735c0.135,3.377-0.699,6.588-1.271,9.846
		c-0.324,1.854-2.031,2.32-3.533,2.751c-1.04,0.297-1.267-0.643-1.228-1.41c0.328-6.488-1.828-12.857-1.015-19.346
		c0.379-3.03,1.17-6.013,1.842-9.002c1.032-4.586,2.703-9.057,2.166-13.902c-0.174-1.564,0.127-3.123,1.139-4.403
		C238.923,375.332,239.166,375.365,239.408,375.4z"/>
	<path fill="#FFFFFF" d="M84.492,231.2c2.254-0.692,4.617-1.07,5.931-3.515c0.534-0.994,1.811-1.405,3.037-1.471
		c2.714-0.147,5.008-0.793,5.469-4.063c0.104-0.736,0.941-1.276,1.733-1.163c1.307,0.187,2.404,0.053,3.475-0.837
		c0.646-0.538,1.59-0.386,1.75,0.584c0.207,1.245,1.32,0.98,2.061,1.404c-1.037,1.958-3.002,1.744-4.605,2.186
		c-2.811,0.774-3.514,1.639-2.576,4.438c0.421,1.256-0.336,2.52,0.597,3.804c0.516,0.709-1.015,1.205-1.481,0.821
		c-2.887-2.375-4.785,0.774-7.152,1.167c-0.261,0.043-0.682,0.466-0.659,0.673c0.29,2.723-2.239,4.687-1.958,7.375
		c0.07,0.672-0.041,1.171-0.703,1.395c-0.729,0.245-1.511,0.308-2.184-0.083c-0.663-0.386-0.383-0.991-0.139-1.542
		c0.594-1.333,0.291-3.238,2.523-3.496c0.722-0.083,0.742-0.987,0.646-1.689c-0.057-0.41-0.093-0.83-0.075-1.242
		c0.18-4.268,0.183-4.282-4.138-4.203c-0.623,0.011-1.156-0.004-1.539-0.556L84.492,231.2z"/>
	<path fill="#FFFFFF" d="M240.797,297.618c-1.506,7.927-2.457,15.916-4.238,23.854c-0.738-2.646-0.771-5.394-0.958-8.048
		c-0.197-2.812-0.922-5.866,0.987-8.476C238.254,302.676,239.246,300.043,240.797,297.618z"/>
	<path fill="#FFFFFF" d="M197.949,282.584c1.367-0.072,2.098,0.753,2.589,1.684c2.104,3.986,5.328,6.758,9.159,9.006
		c1.168,0.687,1.543,0.144,1.885-0.631c0.633-1.428,0.557-2.936,0.065-4.391c-0.333-0.984-0.103-1.812,0.864-1.947
		c1.129-0.16,0.846,0.959,0.986,1.625c0.153,0.731,0.154,1.519,0.43,2.195c0.703,1.725,0.145,2.477-1.041,4.121
		c-2.447,3.393-3.076,0.635-4.945-0.119c-5.135-2.074-6.532-7.236-9.861-10.752C197.953,283.24,198.002,282.939,197.949,282.584z"/>
	<path fill="#FFFFFF" d="M229.73,293.117c-0.343-1.938,1-2.292,1.535-3.163c1.06-1.724,1.525,0.099,2.254,0.337
		c0.391,0.129,0.773,0.342,1.171,0.374c1.456,0.116,1.424,0.548,0.918,1.89c-0.933,2.471-1.947,4.885-3.133,7.236
		c-0.184,0.363-0.239,0.865-0.739,0.885c-0.519,0.022-0.631-0.426-0.703-0.844C230.607,297.393,230.449,294.902,229.73,293.117z"/>
	<path fill="#FFFFFF" d="M257.561,302.191c-0.059-2.633-0.16-4.976,0.867-7.158c0.199-0.426,0.434-1.043,1.053-0.822
		c0.605,0.217,0.485,0.859,0.285,1.285c-0.979,2.081-0.617,3.488,1.668,4.453c1.437,0.607,1.922,1.625,0.178,2.793
		c-0.934,0.625-1.575,1.684-2.35,2.548c-0.428,0.479-0.748,1.312-1.512,1.063c-0.871-0.283-0.426-1.108-0.38-1.732
		C257.438,303.711,257.512,302.801,257.561,302.191z"/>
	<path fill="#FFFFFF" d="M269.775,56.908c0.07,0.822-0.17,1.363-0.711,1.664c-1.027,0.573-1.619,1.358-1.65,2.572
		c-0.018,0.619-0.312,1.166-1.025,1.193c-0.756,0.029-1.377-0.404-1.434-1.117c-0.082-1.049-0.479-1.82-1.148-2.625
		c-0.634-0.76-0.022-1.543,0.533-2.206c1.314-1.563,3.33,0.271,4.805-0.977C269.365,55.226,269.525,56.517,269.775,56.908z"/>
	<path fill="#FFFFFF" d="M247.152,288.627c0.897,0.436,1.529,1.303,2.469,1.805c1.536,0.82,0.875,2.741,0.05,3.375
		c-1.224,0.94-1.453,1.805-1.262,3.129c0.083,0.576-0.11,1.229-0.824,1.34c-0.732,0.113-1.248-0.586-1.142-1.039
		C247.107,294.419,244.8,291.393,247.152,288.627z"/>
	<path fill="#FFFFFF" d="M106.436,123.781c-0.691-1.175-0.31-2.238-0.004-3.246c0.439-1.454,1.252-2.655,0.652-4.47
		c-0.353-1.069,1.587-2.036,2.566-2.931c0.426-0.389,0.695,0.49,0.59,0.967c-0.274,1.255-0.297,2.452,0.318,3.637
		c0.322,0.622,0.104,1.251-0.625,1.315c-2.658,0.232-2.914,2.009-2.779,4.099C107.177,123.504,107.04,123.803,106.436,123.781z"/>
</g>
</svg>
