<?xml version="1.0" encoding="utf-8"?>
<!-- Generator: Adobe Illustrator 16.0.0, SVG Export Plug-In . SVG Version: 6.00 Build 0)  -->
<!DOCTYPE svg PUBLIC "-//W3C//DTD SVG 1.1//EN" "http://www.w3.org/Graphics/SVG/1.1/DTD/svg11.dtd">
<svg version="1.1" id="Layer_1" xmlns="http://www.w3.org/2000/svg" xmlns:xlink="http://www.w3.org/1999/xlink" x="0px" y="0px"
	 width="500px" height="500px" viewBox="0 0 500 500" enable-background="new 0 0 500 500" xml:space="preserve">
<circle fill="#FFFFFF" cx="249.316" cy="249.316" r="249.316"/>
<path fill="#FFFFFF" d="M249.316,0C111.623,0,0,111.623,0,249.316c0,137.692,111.623,249.315,249.316,249.315
	c34.004,0,66.412-6.817,95.947-19.144c-4.157-4.231-6.113-10.381-4.408-16.577c2.326-8.458,11.358-14.25,19.993-12.361
	c7.735-3.315,17.275-0.069,21.556,7.238c0.346,0.591,0.641,1.195,0.907,1.806c69.34-44.277,115.321-121.906,115.321-210.277
	C498.633,111.623,387.01,0,249.316,0z"/>
<g>
	<path fill="none" d="M91.499,183.486c-0.611-0.968-0.989-1.956-1.123-3.086c-0.096-0.798-0.353-1.676-1.41-1.556
		c-0.932,0.106-0.883,0.961-0.972,1.668c-0.284,2.252,0.272,4.199,2.026,5.721C92.483,185.864,92.735,185.453,91.499,183.486z"/>
	<path fill="none" d="M252.129,23.83c1.232-1.125,1.754-0.295,2.309,0.714c0.577,1.046,1.656,1.1,2.902,1.284
		c0.715-0.178,1.656-0.336,2.541-0.652c0.782-0.279,1.259-1.042,0.582-1.657c-1.789-1.625-3.823-2.918-6.309-3.208
		c-0.816-0.095-3,2.333-2.867,3.111C251.374,23.914,251.767,24.158,252.129,23.83z"/>
	<path fill="none" d="M415.909,178.937c-0.796,0.248-1.077-0.022-1.093-0.692c-0.014-0.627,0.147-1.258,0.202-1.89
		c0.081-0.942-0.184-1.774-1.065-2.217c-0.986-0.494-1.651,0.076-2.217,0.837c-0.424,0.575-0.865,1.139-1.312,1.699
		c-1.233,1.543-2.11,1.584-3.798,0.185c0.277-0.515,0.815-0.384,1.254-0.519c0.929-0.287,2.065-0.673,1.678-1.854
		c-0.335-1.021-1.391-0.439-2.084-0.196c-1.377,0.481-2.502,0.402-3.246-1.017c-0.334-0.635-0.665-1.27-0.985-1.91
		c-1.285-2.569-0.899-3.212,2.095-3.345c0.893-0.04,1.818,0.004,2.419-0.742c0.616-0.765,1.236-0.787,2.09-0.475
		c1.478,0.542,2.605-0.47,3.709-1.144c0.71-0.434,0.767-2.03,0.296-2.045c-2.883-0.093-3.177-2.19-3.774-4.201
		c-0.077-0.258-0.834-0.34-1.29-0.451c-0.527-0.127-1.109-0.587-0.661-0.905c1.889-1.337,0.141-3.967,2.098-5.374
		c0.58-0.417,0.738-1.559,1.777-1.932c1.014-0.365,0.834-1.294,0.377-2.002c-0.645-0.996-1.266-1.959-1.694-3.099
		c-0.394-1.049-1.575-1.484-2.607-1.171c-1.16,0.352-0.521,1.467-0.555,2.284c-0.032,0.785,0.705,1.44,0.371,2.319
		c-1.099,0.069-2.153-0.219-3.269-0.133c-1.245,0.095-2.554-0.994-3.179-2.005c-0.49-0.793,0.964-1.432,1.562-2.128
		c0.251-0.293,0.627-0.485,0.96-0.703c1.659-1.084,1.587-2.588,0.58-3.901c-0.809-1.054-1.85-1.912-2.458-3.161
		c-0.334-0.688-1.094-0.908-1.869-0.649c-0.581,0.195-1.147,0.755-0.868,1.229c1.085,1.846-0.956,2.748-0.913,4.274
		c-1.22-0.353-1.276-1.118-1.139-1.946c0.153-0.914-0.072-1.603-1.043-1.827c-0.88-0.203-1.767-0.227-2.388,0.598
		c-0.287,0.378-0.465,0.834-0.734,1.228c-0.63,0.927-1.57,1.014-2.552,0.829c-0.683-0.128-0.553-0.645-0.401-1.122
		c0.268-0.837,0.109-1.899,1.709-1.586c1.123,0.22,1.446-0.814,1.038-1.799c-0.296-0.716-0.628-1.612-1.515-1.693
		c-0.904-0.083-1.52,0.532-2.139,1.241c-1.188,1.364-2.568,2.563-3.867,3.83c-0.083-0.856,0.355-1.271,0.486-1.768
		c0.616-2.335,1.811-3.987,4.382-4.401c0.921-0.148,0.971-1.129,1.245-1.873c0.805-2.179-1.3-3.47-1.535-4.939
		c-0.263-1.65,0.688-3.582-0.693-5.257c-0.052-0.062-0.099-0.125-0.155-0.181c-1.458-1.496-1.104-3.045,0.356-4.067
		c2.073-1.452,1.766-2.879,0.591-4.628c-0.542-0.805-1.15-1.396-2.137-1.122c-1.042,0.29-1.203,1.167-1.051,2.112
		c0.084,0.52,0.383,0.934-0.246,1.457c-1.568,1.304-3.473,1.997-5.167,3.058c-0.232,0.145-0.646,0.196-0.89,0.089
		c-0.44-0.195-0.351-0.633-0.233-1.03c0.586-1.984,1.899-3.269,3.845-3.878c0.682-0.212,1.609-0.187,1.638-1.08
		c0.062-2.109,0.902-3.787,2.382-5.229c0.699-0.682,0.892-1.537,0.311-2.38c-0.538-0.785-1.143-1.65-2.223-1.592
		c-1.056,0.057-1.02,1.023-1.215,1.787c-0.092,0.357-0.316,0.889-0.582,0.96c-2.414,0.648-4.153,2.376-6.138,3.708
		c-0.633,0.424-1.253,0.309-1.698-0.256c-0.604-0.766-0.029-1.1,0.606-1.406c2.294-1.104,3.692-3.223,5.48-4.9
		c0.775-0.728,1.211-1.637-0.099-2.286c-1.085-0.538-0.769-0.906-0.039-1.482c0.812-0.637,1.544-1.377,2.277-2.103
		c0.699-0.691,1.553-1.685,0.669-2.456c-1.898-1.655-1.162-4.405-3.046-6.199c-0.954-0.909-1.009-3.322-0.687-4.896
		c0.765-3.74-0.505-7.073-3.912-8.859c-0.47-0.246-1.356-0.746-0.642-1.107c2.775-1.404,0.705-2.817,0.196-4.244
		c-0.622-1.739-2.478-2.631-3.007-4.479c-0.165-0.578-1.011-0.72-1.687-0.495c-0.699,0.232-1.03,0.816-0.989,1.475
		c0.043,0.696,0.326,1.374,0.462,2.066c0.165,0.841-0.526,1.506-0.984,0.988c-1.24-1.396-3.421-0.371-4.558-2.137
		c-0.481-0.748-1.977-0.507-2.868,0.145c-0.867,0.632-0.234,1.223,0.241,1.78c0.361,0.423,0.312,0.929-0.024,1.312
		c-1.999,2.282,0.651,5.337-1.273,7.645c-0.102,0.125,0.118,0.602,0.28,0.855c1.263,1.97,1.151,2.217-1.143,2.427
		c-1.928,0.177-3.189,1.982-2.64,3.853c0.334,1.139,0.797,2.24,1.147,3.375c0.467,1.519-0.689,3.645-1.736,3.167
		c-1.644-0.752-2.9-0.254-4.279,0.444c-0.85,0.43-1.608,0.245-2.438-0.308c-1.262-0.842-1.942-2.053-2.653-3.301
		c-0.476-0.839-1.269-1.347-2.197-0.832c-1.046,0.58-0.622,1.51-0.204,2.292c0.336,0.627,0.805,1.181,1.194,1.78
		c1.227,1.886,0.484,5.181-1.459,6.316c-1.623,0.949-3.03,0.042-3.983-1.01c-1.635-1.805-3.343-0.696-4.827-0.25
		c-1.513,0.455,0.025,1.542,0.079,2.359c0.099,1.521-0.283,2.838-1.555,3.791c-0.514,0.384-1.269,0.931-1.664,0.326
		c-0.56-0.858,0.49-0.898,0.992-1.119c0.863-0.381,1.253-1.006,0.951-1.901c-0.239-0.706-1.039-1.106-1.526-0.712
		c-1.352,1.094-3.3,0.553-4.532,1.822c-0.42,0.435-1.009,0.791-1.444,0.258c-0.979-1.195-1.918-0.238-3.075,0.212
		c0.391-1.479,1.105-2.079,2.248-2.245c1.955-0.284,1.953-0.291,0.793-1.94c3.347,0.508,5.007-2.144,6.564-3.977
		c3.542-4.171,3.279-4.635-0.073-7.574c-0.061-0.051,0.039-0.281,0.069-0.431c0.136-0.076,0.31-0.25,0.397-0.214
		c1.424,0.592,2.324,0.438,2.706-1.339c0.267-1.233,2.21-1.411,2.286-2.884c0.051-1.006-0.619-1.598-1.561-1.835
		c-0.778-0.197-1.345,0.374-2.006,0.61c-0.613,0.219-1.305,0.366-1.687-0.348c-0.345-0.645,0.23-0.971,0.632-1.36
		c2.648-2.561,2.767-5.381,0.379-8.079c-0.607-0.687-1.837-1.524-1.039-2.364c1.478-1.556,1.079-3.509,0.837-4.945
		c-0.361-2.162,1.238-5.328-2.423-6.409c-0.837-0.248-1.573-1.424-2.47-0.532c-0.982,0.978-0.281,1.942,0.619,2.59
		c1.329,0.954,0.754,1.54-0.338,1.965c-1.915,0.747-3.465-0.011-4.768-1.392c-0.766-0.815-1.625-1.077-2.541-0.46
		c-0.804,0.542-0.746,1.436-0.228,2.121c0.832,1.101,0.51,1.659-0.663,2.087c-0.549,0.199-0.87,0.739-0.992,1.283
		c-0.51,2.287-2.105,3.97-3.175,6.193c-0.281-0.483-0.464-0.73-0.578-1.007c-0.399-0.976-0.323-2.438-1.909-2.3
		c-1.56,0.134-1.395,1.586-1.883,2.639c-0.925,1.995-0.068,4.113-0.768,6.079c-0.249,0.702-0.451,1.389-1.263,1.583
		c-0.908,0.218-1.304-0.397-1.575-1.103c-0.388-1.021-1.045-1.448-2.014-0.802c-0.788,0.525-1.647,1.141-0.906,2.314
		c0.236,0.375,0.774,0.698,0.277,1.203c-0.129,0.131-0.454,0.157-0.661,0.11c-0.611-0.14-0.919-0.58-0.995-1.192
		c-0.13-1.04,0.572-1.782,0.926-2.655c0.392-0.969,0.81-2.199-0.425-2.718c-1.297-0.544-1.756,0.661-2.122,1.655
		c-0.44,1.196-0.836,2.407-1.711,3.385c-0.685,0.767-1.456,0.506-2.176,0.147c-0.602-0.3-0.458-0.855-0.036-1.158
		c1.857-1.331,2.176-3.639,3.466-5.339c1.516-1.996,1.482-4.481,1.689-6.855c0.042-0.498-0.123-1.01-0.727-1.041
		c-0.652-0.033-0.733,0.46-0.682,0.983c0.052,0.532,0.348,1.131-0.265,1.513c-0.324,0.202-0.602-0.04-0.789-0.32
		c-0.397-0.59-0.406-1.197-0.009-1.785c0.579-0.856,1.252-1.659,1.746-2.56c0.588-1.072,0.341-2.186-1.026-1.736
		c-1.466,0.481-2.259,0.029-3.339-0.786c-1.032-0.782-2.049-1.18-2.696,0.902c-0.843,2.724-1.487,5.473-2.096,8.242
		c-0.144,0.653-0.386,1.232-0.979,1.56c-0.805,0.445-1.064-0.335-1.539-0.708c-0.823-0.648-1.272-1.722-1.998-2.266
		c-1.78-1.337-1.913-2.254,0.018-3.458c0.84-0.524,1.077-1.541,0.565-2.332c-1.204-1.861-0.353-3.724,0.361-5.178
		c1.035-2.108,0.276-2.952-1.434-3.652c-1.463-0.599-1.893-1.595-1.358-3.042c0.232-0.627,0.456-1.519-0.132-1.752
		c-2.258-0.898-1.711-2.342-1.096-3.988c0.235-0.633,0.11-1.421,0.063-2.132c-0.058-0.833-0.327-1.657-1.299-1.737
		c-1.011-0.083-1.378,0.722-1.469,1.55c-0.311,2.766-2.893,4.238-3.768,6.688c-0.138,0.388-0.613,0.979-1.614,0.513
		c0.873-1.983,0.234-4.47,1.172-6.217c0.9-1.678,2.07-3.023,1.457-5.016c0.348-0.077,0.525-0.179,0.633-0.13
		c0.68,0.31,1.418,1.13,2.036,0.076c0.977-1.664-1.124-2.814-0.894-4.446c0.063-0.459-0.666-0.887-1.293-0.745
		c-0.273,0.062-0.638,0.304-0.72,0.546c-1.121,3.283-3.256,3.976-6.279,2.552c-0.202-0.095-0.473-0.053-0.71-0.068
		c-2.075-0.127-3.649-1.678-3.629-3.719c0.01-1.054,0.29-2.289-1.048-2.548c-1.229-0.24-1.807,0.845-2.092,1.875
		c-0.42,1.507-1.265,1.582-2.535,1.048c-0.89-0.375-1.756-0.571-1.95-1.771c-0.133-0.822-0.763-1.414-1.688-1.416
		c-0.969-0.003-1.34,0.721-1.633,1.495c-0.141,0.373-0.264,0.751-0.422,1.116c-0.237,0.548-0.6,0.994-1.264,0.839
		c-0.73-0.168-0.669-0.772-0.612-1.345c0.031-0.316,0.071-0.637,0.05-0.951c-0.065-0.941-0.384-1.819-1.433-1.906
		c-1.02-0.083-2.212-0.021-2.809,0.925c-0.533,0.847,0.454,1.42,0.908,2.001c0.629,0.808,1.535,1.43,1.309,2.652
		c-0.074,0.403-0.163,0.854-0.643,0.831c-0.221-0.012-0.586-0.374-0.608-0.605c-0.167-1.688-1.61-2.708-2.141-4.199
		c-0.22-0.623-0.596-1.188-1.364-1.114c-0.868,0.084-1.436,0.898-1.221,1.491c0.771,2.15-0.625,4.396,0.428,6.497
		c0.229,0.453,0.472,1.426-0.352,1.183c-1.548-0.457-2.275-2.123-3.539-3.092c-0.73-0.561,0.018-1.283,0.406-1.866
		c0.363-0.546,0.717-1.149,0.116-1.711c-0.495-0.464-1.067-0.18-1.528,0.144c-0.906,0.638-1.889,0.778-1.735-0.603
		c0.342-3.076-1.403-5.886-0.919-8.938c0.098-0.611-0.117-1.373-0.691-1.312c-2.226,0.232-4.443,0.239-6.671,0.255
		c-0.459,0.002-0.949,0.784-1.359,1.263c-0.396,0.46-0.439,1.019-0.102,1.551c0.359,0.569,0.837,0.674,1.425,0.328
		c0.458-0.268,1.21-0.789,1.277,0.088c0.082,1.058-0.067,2.33-0.62,3.183c-0.499,0.771-0.969-0.319-1.387-0.69
		c-1.855-1.643-3.03-1.305-3.604,1.113c-0.549,2.309-0.661,4.621,0.586,6.769c0.429,0.742,0.288,1.325-0.101,1.992
		c-1.08,1.851-2.63,1.815-4.329,1.088c-1.34-0.575-2.242-0.564-1.946,1.276c0.24,1.496-1.361,2.465-1.055,4.06
		c0.13,0.679-0.785,0.514-1.327,0.416c-0.742-0.134-1.624-0.812-2.183,0.071c-0.619,0.974,0.161,1.851,0.703,2.589
		c1.853,2.521,3.473,5.052,2.35,8.419c-0.234,0.705,0.299,1.364,0.74,1.941c0.475,0.621,1.162,1.152,1.042,2.052
		c-0.048,0.367-0.387,0.506-0.729,0.378c-0.881-0.334-1.396-1.017-1.674-1.894c-0.073-0.227-0.108-0.465-0.179-0.694
		c-0.204-0.665-0.59-1.232-1.347-1.058c-0.939,0.217-0.782,0.976-0.704,1.731c0.342,3.359,1.719,6.171,4.22,8.45
		c0.936,0.851,0.952,1.982,0.636,3.103c-0.227,0.799-0.901,1.226-1.663,0.963c-1.054-0.363-0.263-1.026-0.056-1.53
		c0.34-0.828,0.815-1.711-0.22-2.305c-0.926-0.529-1.856-0.211-2.639,0.465c-0.712,0.613-1.003,1.411-0.977,2.339
		c0.022,0.874,0.04,1.748,0.06,2.623c0.008,0.395,0.083,0.879-0.437,0.954c-0.26,0.038-0.722-0.141-0.814-0.347
		c-0.944-2.104-2.118-4.167-2.632-6.381c-0.322-1.393-0.507-2.427-2.003-2.771c-1.23-0.282-1.428-1.041-1.101-2.159
		c0.669-2.284-1.349-7.266-3.08-8.957c-1.507-1.472-4.865-2.134-3.09-5.567c0.284-0.549-0.259-1.206-0.806-1.604
		c-0.44-0.322-1.039-0.52-1.069-1.182c-0.033-0.746-0.014-1.545-1.071-1.456c-0.907,0.076-1.728,0.483-2.139,1.33
		c-0.44,0.901,0.088,1.503,0.848,1.948c0.611,0.356,1.173,0.933,0.479,1.485c-1.745,1.389-1.038,3.184-0.572,4.599
		c0.702,2.13-0.321,3.213-1.834,4.746c-0.06-2.629-1.468-4.633-0.721-7.092c0.35-1.148-0.931-1.532-1.977-1.197
		c-0.481,0.154-0.854,0.666-1.26,1.033c-0.361,0.328-0.743,0.7-1.252,0.466c-0.493-0.229-0.128-0.671-0.133-1.034
		c-0.024-1.888-1.481-2.848-2.716-3.879c-0.46-0.383-1.247-0.288-1.772,0.205c-0.501,0.473-0.212,1.016-0.064,1.553
		c0.188,0.686,0.362,1.383,0.458,2.085c0.062,0.457,0.082,1.033-0.543,1.15c-0.529,0.1-0.902-0.246-1.119-0.708
		c-0.296-0.633-0.313-1.682-1.087-1.728c-3.245-0.192-2.966-2.598-2.836-4.628c0.12-1.895,0.161-4.369,1.31-5.492
		c1.731-1.694,1.739-2.729,0.195-4.251c0.58-0.338,1.115-0.544,1.511-0.905c0.64-0.583,0.917-1.366,0.375-2.138
		c-0.48-0.683-1.315-0.702-1.956-0.387c-1.488,0.73-2.882,2.219-2.641,3.587c0.388,2.194-0.81,2.672-2.197,3.268
		c-1.442,0.621-1.644,1.47-0.916,2.829c1.108,2.066,0.133,4.659-2.044,5.751c-2.897,1.454-3.277,4.183-1.042,6.67
		c0.829,0.921,2.037,1.765,1.759,3.815c-1.493-1.481-2.845-2.536-4.335-3.409c-0.918-0.537-1.25-1.413-0.552-2.44
		c0.462-0.681,0.675-1.348,0.229-2.212c-1.158-2.243-3.889,0.117-5.186-1.852c-0.285-0.431-1.202-0.193-1.745,0.262
		c-0.66,0.554-1.752,1.588-2.169,0.866c-0.739-1.281-2.648-1.94-2.282-3.811c0.211-1.072,0.307-2.041-1.193-1.875
		c-1.191,0.131-2.717,0.431-2.331,2.03c0.414,1.72,0.676,3.521,1.935,5.044c1.234,1.495,2.165,3.288,2.994,5.06
		c0.819,1.75-0.724,2.637-1.899,2.963c-1.525,0.424-0.789-1.09-0.92-1.763c-0.206-1.057-1.166-1.478-1.684-2.258
		c-0.518-0.779-1.223-1.401-2.188-0.997c-1.129,0.472-0.996,1.595-0.767,2.493c0.271,1.064,0.75,2.092,1.25,3.08
		c0.695,1.371-0.192,2.22-1.064,2.807c-1.212,0.814-1.393-0.297-1.633-1.177c-0.206-0.757-0.748-0.663-1.327-0.414
		c-1.47,0.632-1.876,2.101-1.013,3.513c1.364,2.229,2.693,4.481,4.034,6.724c0.337,0.564,0.716,1.303-0.014,1.662
		c-0.851,0.418-0.937-0.542-1.228-1.058c-0.506-0.898-1.007-1.801-1.548-2.678c-0.437-0.704-1.025-1.286-1.935-1.141
		c-0.919,0.147-1.187,0.984-1.499,1.708c-0.448,1.035,0.031,1.738,0.746,2.524c0.926,1.015,2.347,1.875,2.008,3.759
		c-0.784-0.14-0.959-0.741-1.35-1.09c-1.697-1.516-3.372-3.067-5.168-4.46c-0.802-0.623-1.881-0.984-2.875-0.189
		c-0.69,0.553-0.956,1.291-0.548,2.124c0.505,1.035,1.319,1.549,2.522,1.335c0.377-0.068,0.814-0.118,1.022,0.539
		c-0.79,0.831-1.71,1.743,0.106,2.638c1.343,0.662,1.387,1.783,0.73,3.035c-0.654,1.243-1.433,1.713-2.894,1.11
		c-1.161-0.48-2.391-0.672-3.386-1.597c-0.78-0.725-1.664-0.359-2.266,0.435c-0.501,0.662-0.492,1.572,0.238,1.87
		c1.656,0.678,2.063,2.521,3.841,3.333c-2.086,1.027-3.075,2.95-1.589,4.077c2.1,1.592,3.203,3.87,5.052,5.548
		c0.478,0.435,1.615,0.648,0.927,1.539c-0.712,0.923-1.365,0.192-1.899-0.468c-0.503-0.624-1.176-0.898-1.891-0.438
		c-0.823,0.529-0.469,1.24-0.113,1.887c0.647,1.178,1.159,2.379,0.757,3.847c-0.486-1.538-2.198-1.807-2.902-3.246
		c-1.044-2.131-2.537-4.023-5.257-4.319c-1.116-0.123-1.939-0.754-1.974-2.01c-0.019-0.658,0.037-1.323-0.797-1.504
		c-0.411-0.089-0.802,0.061-1.059,0.403c-0.539,0.72-0.19,1.318,0.266,1.933c0.824,1.109,0.93,2.316,0.535,3.724
		c-0.865-0.589-0.785-1.402-1.075-2.033c-0.614-1.333-1.707-2.077-2.994-2.577c-0.696-0.27-1.453-0.253-1.958,0.41
		c-0.484,0.637,0.038,1.131,0.293,1.718c0.74,1.692,1.682,3.116,3.268,4.204c2.229,1.527,2.185,2.157,0.139,3.918
		c0.881,0.925,2.473,1.11,2.831,3.132c-1.896-2.057-3.705-1.426-5.641-0.59c-0.712,0.308-1.167-0.602-1.321-1.364
		c-0.151-0.754-0.094-1.794-1.203-1.734c-1.256,0.069-1.929,1.005-2.286,2.142c-0.26,0.829-0.682,2.231,0.185,2.334
		c1.961,0.233,3.304,2.595,5.626,1.435c2.011-1.005,3.415,0.688,4.986,1.462c0.714,0.352,0.465,1.057-0.061,1.334
		c-1.262,0.667-1.616,1.349-0.545,2.526c0.372,0.41-0.101,0.846-0.463,1.19c-2.051,1.944-2.007,2.026,0.513,3.368
		c1.04,0.555,1.907,0.606,2.846-0.164c0.647-0.531,1.86-0.385,1.409,0.395c-1.084,1.878-0.209,3.894-0.917,5.683
		c-0.453,1.143-1.023,2.959-1.788,3.096c-1.25,0.223-0.943-1.667-1.501-2.548c-0.084-0.133-0.126-0.293-0.207-0.429
		c-0.454-0.761-1.138-1.155-2.001-0.969c-0.969,0.211-1.184,1.014-1.068,1.861c0.114,0.843-0.214,1.777,0.469,2.518
		c0.346,0.377,0.55,0.79,0.19,1.276c-1.772,2.393-0.227,3.582,1.681,4.638c0.474,0.262,1.083,0.394,0.975,1.62
		c-3.377-2.061-7.456-2.767-8.494-7.35c-0.279-1.236-1.285-1.852-2.259-0.722c-0.896,1.038-1.537,2.919-0.213,3.622
		c3.199,1.698,3.395,5.78,6.562,7.286c-0.458,0.644-0.942,0.484-1.411,0.461c-2.901-0.14-3.469,0.602-2.345,3.244
		c0.273,0.645,0.314,1.02-0.262,1.391c-0.879,0.565-0.899,1.458-0.841,2.338c0.079,1.213-0.249,2.011-1.424,2.701
		c-1.452,0.851-1.203,2.611,0.395,3.015c1.629,0.413,2.909,1.551,4.624,1.817c1.107,0.171,2.361,0.791,3.097,1.614
		c0.836,0.935-0.731,1.757-0.773,2.77c-0.017,0.395-0.091,0.802-0.02,1.181c0.32,1.751-0.267,1.715-1.641,1.05
		c-4.1-1.986-7.747-4.907-12.498-5.998c1.161,2.264-0.958,4.626,0.464,6.898c0.196,0.313-0.14,0.945-0.592,1.204
		c-0.624,0.356-1.057-0.082-1.457-0.464c-1.097-1.047-2.209-2.087-2.559-3.658c-0.303-1.362-1.387-1.875-2.547-2.247
		c-0.34-0.108-0.86-0.119-1.114,0.071c-0.538,0.402-0.089,0.849,0.168,1.226c2.062,3.021,3.326,6.648,6.706,8.676
		c0.538,0.322,1.211,0.824,1.042,2.009c-1.218-0.199-2.45-0.312-3.636-0.611c-3.417-0.862-2.916-5.266-5.868-6.602
		c-0.183-0.083-0.239-0.566-0.258-0.869c-0.019-0.311,0.118-0.627,0.12-0.942c0.011-1.731-0.285-3.443,0.018-5.201
		c0.178-1.036-0.431-2.039-1.713-1.473c-1.361,0.601-2.606,0.513-3.929,0.055c-0.46-0.161-1-0.213-1.259,0.322
		c-0.924,1.917-2.315,3.38-4.114,4.495c-0.421,0.261-0.702,0.771-0.472,1.244c0.763,1.565-1.416,3.456,0.559,4.879
		c0.049,0.036-0.077,0.504-0.225,0.592c-1.14,0.674-0.946,1.67-0.812,2.733c0.091,0.727,0.422,1.906-0.618,1.997
		c-1.162,0.102-1.367-1.18-1.091-1.948c0.917-2.56-0.539-3.776-2.408-4.902c-0.634-0.38-1.217-0.901-1.908-0.265
		c-0.593,0.545-0.333,1.198,0.081,1.715c1.254,1.574,0.724,3.527,1.126,5.279c0.205,0.894-0.28,1.74-1.517,1.566
		c-1.056-0.148-1.807,1.02-1.355,1.277c2.166,1.24,1.485,3.201,1.723,4.965c0.053,0.38,0.544,0.816,0.939,1.018
		c3.214,1.65,4.764,4.418,5.734,7.777c0.312,1.081,1.508,1.88,0.975,3.292c-0.125,0.325,0.324,0.925,0.667,0.842
		c2.233-0.536,3.325,1.896,5.404,1.959c1.397,0.043,1.235,0.907,0.159,1.61c-1.148,0.751-2.247,2.04-1.256,3.124
		c1.392,1.523,1.439,3.421,2.291,5.017c1.033,1.939,2.121,4.059,5.002,4.103c2.334,0.036,7.3,4.443,7.406,6.658
		c0.127,2.7,1.542,1.646,2.673,1.133c1.346-0.612,1.413-1.909,0.9-3.545c0.378,0.387,5.316,2.421,5.409,2.447
		c1.187,0.314,2.274,0.856,2.87,1.958c0.581,1.073-0.431,1.567-1.061,2.106c-0.507,0.437-0.381,1.452-1.434,1.48
		c-0.408-1.103,1.295-2.561-0.124-3.221c-1.154-0.537-2.303,0.779-3.505,1.131c-0.145,0.042-0.269,0.167-0.4,0.255
		c-2.479,1.687-7.758,0.167-8.952-2.602c-0.104-0.244-0.063-0.646,0.073-0.881c0.36-0.624,0.932-1.234,0.167-1.885
		c-0.718-0.611-1.535-0.38-2.206,0.111c-1.302,0.955-2.112,0.415-2.979-0.69c-1.813-2.311-2.765-5.901-6.946-4.927
		c-0.221,0.052-0.617-0.218-0.785-0.445c-0.84-1.136-2.045-1.053-3.245-1.087c-3.31-0.094-5.055-2.604-3.995-5.741
		c0.161-0.475,0.313-0.932-0.071-1.332c-0.52-0.536-1.025-0.168-1.507,0.104c-1.62,0.916-2.001,2.357-1.738,4.082
		c0.079,0.514,0.414,1.232-0.404,1.36c-0.614,0.095-0.978-0.529-1.135-1.058c-0.151-0.513-0.223-1.103-0.132-1.625
		c0.323-1.843-0.12-3.449-1.288-4.878c-1.646,0.111-2.074,1.154-2.068,2.615c0.027,6.717,0.209,13.442-0.043,20.15
		c-0.108,2.858,1.519,5.651,0.125,8.542c-0.359,0.747,0.231,1.534,1.069,1.89c2.086,0.888,2.734,3.498,2.477,4.647
		c-0.752,3.376,0.66,3.281,3.019,2.836c0.497-0.093,1.085,0.184,1.603,0.368c0.46,0.165,0.607,0.535,0.212,0.906
		c-2.137,2.006-0.244,2.428,1.189,2.903c1.047,0.346,1.709,1.117,2.498,1.777c1.03,0.866,2.141,1.88,2.629-0.464
		c0.1-0.472,0.408-0.69,0.862-0.564c1.145,0.316,2.36,0.518,3.399,1.053c1.154,0.593,1.124,1.365-0.103,2.082
		c-1.431,0.836-2.699,1.736-2.94,3.714c-0.191,1.575-3.768,3.388-4.725,2.507c-1.399-1.285-2.445-2.921-4.761-1.915
		c-0.43,0.187-0.643-0.58-0.896-0.972c-0.472-0.731-0.926-1.486-1.493-2.139c-0.43-0.494-1.071-0.724-1.735-0.41
		c-0.609,0.288-0.515,0.864-0.581,1.431c-0.251,2.166,0.644,3.745,2.259,5.089c0.729,0.606,2.212,0.835,1.81,2.174
		c-0.406,1.348-1.86,1.25-2.979,1.609c-0.92,0.296-1.682-0.159-2.654-0.301c0.014,1.262-0.561,3.545,0.465,3.352
		c2.432-0.459,3.107,0.937,4.188,2.313c0.277,0.354,1.06,0.557,1.544,0.468c2.553-0.464,4.358,2.006,6.939,1.446
		c-0.459,0.628-0.993,0.883-1.309,1.302c-1.145,1.515-2.277,2.202-3.745,0.352c-0.289-0.362-1.03-0.54-1.295-0.15
		c-1.074,1.58-0.39,4.156-2.845,5.001c-0.14,0.048-0.178,0.592-0.145,0.892c0.032,0.302,0.146,0.643,0.338,0.873
		c1.321,1.593,0.583,2.456-1.061,2.898c-1.18,0.318-1.912,0.903-1.548,2.188c0.341,1.197,1.342,1.104,2.347,1.042
		c2.799-0.18,5.693,0.043,7.816-2.532c0.52,1.207-0.34,2.443,0.885,2.92c1.133,0.438,1.688-0.599,2.394-1.188
		c0.427-0.357,0.917-0.897,1.444-0.429c0.953,0.846,2.002,0.779,3.133,0.699c0.552-0.039,1.274,0.204,1.297,0.812
		c0.035,0.982-0.872,0.624-1.425,0.714c-0.311,0.051-0.635,0.018-0.953,0.021c-1.32,0.02-2.557,0.248-3.331,1.476
		c-0.906,1.435,1.146,1.521,1.384,2.778c-2.196-0.742-3.463,0.616-4.835,1.615c-0.747,0.542-0.84,1.352-0.185,2.079
		c0.557,0.62,1.282,0.757,1.894,0.147c1.806-1.804,4.279-1.018,6.389-1.64c0.871-0.258,1.699,0.086,2.233-1.104
		c0.606-1.352,1.651-1.255,2.158,0.129c0.375,1.018,0.867,1.629,1.938,1.814c0.77,0.131,1.431,0.699,1.533,1.368
		c0.432,2.859,1.777,2.748,3.661,1.284c0.315-0.244,0.688-0.51,1.055-0.169c0.361,0.338,0.182,0.763-0.089,1.061
		c-0.879,0.971-1.232,2.22-1.813,3.344c-0.549,1.064-0.538,2.03,0.759,2.536c1.963,0.767,1.663,1.473-0.031,2.148
		c-1.332,0.529-1.998,1.473-0.648,2.406c1.934,1.334,1.238,2.211-0.014,3.452c-0.956,0.948-1.263,2.598,0.373,2.759
		c1.929,0.191,3.628,1.315,5.305,1.329c1.882,0.017,3.329,0.322,4.995,1.156c2.976,1.49,3.154,1.535,1.371,4.283
		c-0.333,0.512-0.578,1.001-0.174,1.521c0.459,0.59,1.097,0.541,1.737,0.289c0.853-0.338,1.519-1.157,3.261-0.959
		c-2.14,1.101-1.641,4.435-4.938,3.567c-0.86-0.227-0.71,0.748-0.523,1.401c0.181,0.621,1.235,0.891,0.463,2.338
		c-0.655-1.873-4.067-0.655-3.097-4.006c0.286-0.981-0.928-1.228-1.71-0.851c-1.369,0.66-2.283,1.837-2.197,3.385
		c0.081,1.434,0.751,2.542,2.484,2.669c2.203,0.165,3.889,1.325,5.064,3.162c0.678,1.06,1.581,1.501,2.803,1.425
		c0.742-0.046,1.876-0.443,1.88,0.698c0.004,1.039-1.209,0.765-1.937,0.861c-1.872,0.249-3.697-0.06-5.447,1.465
		c-1.471,1.28-5.675-0.045-6.602-1.521c-0.158-0.252-0.332-0.58-0.293-0.845c0.053-0.369,0.459-0.439,0.757-0.315
		c2.927,1.212,2.642-0.03,1.53-1.964c-0.149-0.262-0.185-0.612-0.2-0.924c-0.034-0.802,0.505-1.977-0.939-1.945
		c-1.078,0.022-2.311,0.175-2.537,1.653c-0.253,1.662-0.81,2.138-2.262,0.834c-1.034-0.925-2.473-1.212-3.368,0.077
		c-0.893,1.283,1.245,2.577,0.382,4.044c1.902-0.588,1.076,0.706,0.946,1.423c-0.645,3.578,0.835,5.099,4.446,4.52
		c0.235-0.038,0.464-0.116,0.7-0.151c0.877-0.128,2.124-0.314,2.297,0.618c0.22,1.187-1.159,1.272-2.021,1.486
		c-1.171,0.289-2.361,0.114-3.55-0.092c-1.417-0.247-3.781,1.349-3.69,2.577c0.152,2.044,1.662,1.947,3.188,1.756
		c2.7-0.341,5.368-0.176,7.983,0.651c0.443,0.14,1.043,0.057,1.084,0.674c0.037,0.526-0.422,0.839-0.857,1.047
		c-1.5,0.718-3.019,0.794-4.633,0.297c-1.435-0.442-2.926-0.731-4.407-0.995c-0.859-0.152-1.623,0.151-1.83,1.109
		c-0.194,0.898,0.213,1.688,1.069,1.878c2.234,0.489,4.285,1.834,6.676,1.555c1.124-0.131,1.858,0.09,2.094,1.317
		c0.183,0.949,1.054,1.595,1.723,1.061c1.816-1.449,3.394-0.442,5.083,0.067c1.03,0.31,2.022,0.077,3.012-0.354
		c1.804-0.79,3.41-0.08,4.926,0.856c0.627,0.387,0.86,1.555,1.861,1.152c1.086-0.437,0.149-1.586,0.601-2.354
		c0.789,0.508,1.509,1.847,2.397,1.129c1.864-1.508,3.583-0.542,5.495-0.452c2.121,0.1,2.93,1.576,4.33,2.42
		c0.531,0.32,1.744-0.133,1.531,0.945c-0.166,0.839-1.171,0.981-2.002,0.87c-2.332-0.314-4.435-1.438-6.771-1.852
		c-1.543-0.273-4.447,0.197-4.214,1.316c0.275,1.315,1.374,2.31,1.833,3.672c0.278,0.824,1.713-0.044,2.592-0.286
		c2.573-0.706,5.988,0.262,7.589,2.229c-0.683,0.405-1.215-0.144-1.795-0.293c-1.771-0.454-3.338,0.361-4.296,1.488
		c-1.839,2.159,1.259,2.912,1.715,4.496c0.403,1.396,1.54,0.719,2.411,0.583c4.602-0.716,9.207-1.393,13.74-2.508
		c1.404-0.345,2.917-0.248,4.378-0.353c-3.97,1.717-8.456,1.591-12.791,4.073c1.842,0.691,3.094,0.76,4.306,1.028
		c6.476,1.437,12.804,3.464,17.975,7.728c3.67,3.023,7.278,3.527,11.451,1.682c0.8-0.354,1.602-0.708,2.426-0.998
		c4.1-1.444,4.352-1.424,4.562-5.515c0.086-1.684,1.86-3.805-0.613-5.378c-0.494-0.312,0.087-1.005,0.778-1.016
		c1.41-0.021,2.39,1.333,1.826,2.67c-0.429,1.019-0.491,2-0.222,3.022c0.35,1.333-0.667,3.334,0.876,3.921
		c1.52,0.579,2.88-0.9,4.064-1.938c0.545-0.475,1.075-0.804,1.634-0.172c0.694,0.782-0.066,1.006-0.576,1.402
		c-0.753,0.587-2.25,1.367-1.251,2.293c1.147,1.064,2.264,2.29,4.016,2.824c4.051,1.241,8.412,0.889,12.348,2.907
		c1.984,1.019,4.475,0.532,6.751-0.277c2.112-0.749,4.131-2.045,6.633-1.191c3.758,1.283,3.961,1.186,3.744-2.908
		c-0.181-3.458,1.245-7.191-1.465-10.32c-0.259-0.299,0.014-0.814,0.396-0.993c0.243-0.114,0.647-0.117,0.876,0.012
		c0.749,0.422,1.046,1.152,1.146,1.983c1.044,8.598,2.181,17.186,1.921,25.889c-0.14,4.732-0.264,9.487-0.24,14.2
		c0.036,6.746,0.18,13.491,0.131,20.247c-0.024,3.392-0.43,6.757-0.444,10.15c-0.024,5.267,1.174,10.627-0.729,15.845
		c-1.173,3.216-4.667,6.779-7.118,6.489c-2.501-0.296-4.941-0.942-7.437-0.011c-0.329,0.122-0.789-0.044-1.171-0.141
		c-3.072-0.785-6.276-0.26-9.204,0.135c-3.406,0.46-6.783,0.34-10.138,0.467c-5.486,0.207-10.957,0.67-16.496,0.484
		c-6.554-0.223-13.158,0.479-19.751,0.613c-2.44,0.051-4.9,0.104-7.349,0.213c-6.191,0.274-12.332,1.342-18.548,1.143
		c-5.413-0.173-10.794,0.438-16.187,0.727c-1.184,0.062-3.164,0.48-3.067,1.688c0.13,1.621,2.052,0.948,3.192,0.927
		c8.515-0.17,17.058,0.035,25.497,0.805c7.825,0.714,15.645,0.785,23.453,1.01c13.896,0.4,27.812-0.237,41.713-0.196
		c12.037,0.035,24.083,0.706,36.131,0.508c12.456-0.205,24.901-0.899,37.371-0.741c6.572,0.081,13.168-0.033,19.717-0.531
		c3.288-0.249,6.51,0.479,9.735,0.087c7.958-0.965,15.971-0.455,23.945-1.019c0.252-0.294,0.511-0.58,0.781-0.856
		c-1.081-1.682-1.904-3.555-2.363-5.57c-2.913-0.231-5.794-0.725-8.428-1.819c-6.935-2.88-12.16-7.898-12.16-15.974
		c0-2.023,0.402-4.012,1.119-5.871c-1.365-1.25-2.756-2.47-4.184-3.647c-0.229-0.189-2.532-1.996-2.318-1.867
		c-0.745-0.557-1.492-1.114-2.247-1.659c-7.134-5.152-11.075-14.46-5.941-22.663c0.298-0.478,2.24-4.634,1.022-1.263
		c0.354-0.914,0.666-1.844,0.933-2.787c0.192-0.733,0.843-5.619,0.759-3.702c0.141-2.241,0.2-4.485,0.067-6.731
		c-0.042-0.699-0.671-6.958-0.134-2.979c-0.82-6.083-0.344-11.514,4.26-16.117c2.866-2.866,7.535-5.223,11.712-4.853
		c2.982,0.266,5.818,0.787,8.52,1.591c4.64-2.946,9.199-6.029,13.58-9.353c0.339-0.287,2.201-1.764,2.333-1.873
		c1.169-0.971,2.341-1.942,3.481-2.948c1.885-1.66,3.755-3.34,5.552-5.098c2.135-2.09,4.238-4.214,6.229-6.442
		c0.989-1.109,1.979-2.218,2.928-3.362c0.169-0.202,1.877-2.379,1.869-2.318c2.986-4.055,5.783-8.256,8.19-12.684
		c0.72-1.324,1.447-2.648,2.106-4.005c0.097-0.199,1.66-3.826,1.22-2.611c1.019-2.648,1.965-5.325,2.776-8.047
		c1.646-5.507,3.009-11.084,4.401-16.658c2.303-9.209,4.894-18.545,9.041-27.128c-0.104,0.002-0.204,0.019-0.294,0.066
		c-3.226,1.768-3.553-0.12-4.07-2.634c-0.207-1.005-0.562-1.389,0.346-2.27c3.038-2.95,3.385-6.02,1.227-8.342
		c-0.812-0.872-1.745-1.44-2.955-1.113c-0.922,0.249-1.428,1.005-1.632,1.901c-0.306,1.344,0.646,1.799,1.651,2.219
		c0.929,0.388,1.114,1.145,0.674,1.957c-0.467,0.862-1.073,0.533-1.795,0.148c-1.592-0.849-2.791-0.165-2.971,1.564
		c-0.203,1.951-2.298,3.553-4.102,2.992c-0.901-0.281-1.717-0.061-2.574-0.071c-1.049-0.014-1.424,1.589-2.64,1.104
		c-0.154-1.284,1.974-1.938,1.012-2.961c-0.826-0.879-1.391-2.53-3.077-2.276c-1.379,0.207-1.614,1.341-1.771,2.499
		c-0.137,0.999-0.603,1.778-1.736,1.271c-1.131-0.506-2.171-1.664-3.258-0.018c-0.666,1.011-1.852,1.29-2.591,2.506
		c-1.31,2.16-2.325,4.638-4.258,6.432c-0.564-0.456-0.434-0.991-0.231-1.367c1.588-2.947,2.272-5.932,1.619-9.368
		c-0.379-2.006,2.17-3.38,4.116-2.529c0.818,0.358,1.41,0.146,1.834-0.539c0.315-0.507,0.358-1.271-0.217-1.473
		c-1.685-0.591-2.399-3.248-4.86-2.247c-0.346,0.14-0.964-0.385-1.734-0.726c3.478-1.143,6.37-3.117,9.939-2.795
		c0.494,0.045,1.092-0.275,1.111-0.738c0.111-2.434,2.428-2.642,3.771-3.807c0.614-0.535,1.45-0.894,1.062-1.855
		c-0.438-1.083-1.446-1.121-2.435-0.971c-0.751,0.113-1.304,0.624-1.745,1.18c-1.413,1.779-2.581,2.287-4.578,0.373
		c-1.376-1.32-1.012-1.678,0.213-2.274c1.298-0.632,2.502-1.59,2.58-2.922c0.115-1.983,2.45-4.243-0.464-6.027
		c-0.465-0.285-0.07-0.682,0.132-1.02c0.423-0.706,0.812-1.432,1.263-2.236c1.163,3.151,1.17,3.169,4.336,1.947
		c1.262-0.487,2.412-1.185,3.529-1.971c3.859-2.713,7.839-5.065,12.735-5.579c3.195-0.335,5.893-1.797,7.112-5.171
		c0.931-2.568,1.633-5.314,4.436-6.719c0.44-0.222,0.657-1.072,0.8-1.675c1.359-5.686,4.735-9.985,9.227-13.525
		c1.754-1.382,2.482-3.324,2.66-5.414C421.076,180.041,418.479,178.136,415.909,178.937z"/>
	<path fill="#1E293F" d="M415.91,178.938c-0.796,0.248-1.077-0.022-1.093-0.692c-0.014-0.627,0.147-1.258,0.202-1.89
		c0.08-0.942-0.184-1.774-1.065-2.217c-0.986-0.494-1.652,0.076-2.217,0.837c-0.425,0.575-0.866,1.139-1.312,1.699
		c-1.233,1.543-2.11,1.584-3.798,0.186c0.277-0.516,0.815-0.385,1.254-0.52c0.929-0.287,2.065-0.673,1.678-1.854
		c-0.336-1.021-1.391-0.439-2.084-0.196c-1.377,0.481-2.502,0.402-3.246-1.017c-0.334-0.635-0.665-1.27-0.985-1.91
		c-1.285-2.569-0.899-3.212,2.095-3.345c0.893-0.04,1.818,0.004,2.419-0.742c0.616-0.765,1.235-0.787,2.09-0.475
		c1.478,0.541,2.604-0.47,3.709-1.144c0.71-0.434,0.767-2.03,0.296-2.045c-2.883-0.093-3.177-2.19-3.774-4.201
		c-0.077-0.258-0.834-0.34-1.29-0.451c-0.527-0.127-1.109-0.587-0.661-0.905c1.889-1.337,0.141-3.967,2.097-5.374
		c0.581-0.417,0.739-1.559,1.778-1.932c1.014-0.365,0.834-1.294,0.377-2.002c-0.646-0.996-1.266-1.959-1.694-3.099
		c-0.394-1.049-1.575-1.485-2.607-1.171c-1.16,0.353-0.521,1.468-0.555,2.285c-0.032,0.785,0.705,1.44,0.371,2.319
		c-1.099,0.069-2.152-0.219-3.268-0.134c-1.246,0.095-2.555-0.993-3.18-2.004c-0.49-0.794,0.964-1.432,1.562-2.129
		c0.251-0.292,0.627-0.484,0.96-0.702c1.659-1.084,1.586-2.588,0.58-3.901c-0.809-1.054-1.85-1.912-2.458-3.161
		c-0.334-0.688-1.094-0.908-1.869-0.649c-0.581,0.195-1.147,0.755-0.868,1.229c1.085,1.846-0.956,2.748-0.913,4.274
		c-1.22-0.353-1.276-1.118-1.139-1.946c0.153-0.914-0.072-1.603-1.043-1.827c-0.88-0.203-1.767-0.227-2.389,0.598
		c-0.286,0.378-0.464,0.834-0.733,1.228c-0.63,0.927-1.57,1.014-2.552,0.829c-0.683-0.128-0.554-0.645-0.401-1.122
		c0.268-0.837,0.109-1.899,1.709-1.586c1.123,0.22,1.447-0.814,1.038-1.799c-0.296-0.716-0.628-1.612-1.515-1.693
		c-0.905-0.084-1.52,0.532-2.139,1.241c-1.188,1.364-2.568,2.563-3.867,3.83c-0.083-0.856,0.355-1.271,0.486-1.768
		c0.615-2.335,1.811-3.987,4.382-4.401c0.921-0.148,0.971-1.129,1.245-1.873c0.805-2.179-1.3-3.47-1.535-4.939
		c-0.263-1.649,0.688-3.582-0.693-5.257c-0.052-0.062-0.099-0.125-0.155-0.181c-1.458-1.496-1.104-3.045,0.356-4.067
		c2.073-1.452,1.766-2.879,0.591-4.628c-0.542-0.805-1.15-1.396-2.137-1.122c-1.042,0.29-1.203,1.167-1.051,2.112
		c0.084,0.521,0.383,0.934-0.246,1.457c-1.568,1.304-3.473,1.997-5.167,3.057c-0.232,0.146-0.646,0.196-0.889,0.09
		c-0.441-0.195-0.352-0.633-0.234-1.03c0.586-1.983,1.899-3.268,3.845-3.878c0.682-0.212,1.609-0.187,1.638-1.08
		c0.062-2.109,0.902-3.788,2.382-5.229c0.699-0.682,0.892-1.537,0.311-2.38c-0.538-0.784-1.143-1.65-2.223-1.592
		c-1.056,0.057-1.02,1.023-1.215,1.787c-0.092,0.357-0.316,0.889-0.582,0.96c-2.414,0.648-4.153,2.376-6.138,3.708
		c-0.633,0.424-1.254,0.309-1.698-0.256c-0.604-0.766-0.029-1.1,0.606-1.406c2.294-1.104,3.692-3.224,5.48-4.9
		c0.775-0.728,1.211-1.637-0.099-2.286c-1.085-0.538-0.769-0.906-0.038-1.482c0.812-0.637,1.543-1.377,2.276-2.104
		c0.699-0.69,1.553-1.685,0.669-2.456c-1.898-1.655-1.162-4.405-3.046-6.199c-0.954-0.909-1.009-3.322-0.687-4.896
		c0.765-3.741-0.505-7.073-3.912-8.859c-0.47-0.246-1.356-0.746-0.643-1.107c2.776-1.404,0.707-2.817,0.197-4.244
		c-0.622-1.739-2.478-2.631-3.007-4.479c-0.165-0.578-1.011-0.72-1.687-0.496c-0.699,0.232-1.031,0.816-0.989,1.475
		c0.043,0.696,0.326,1.374,0.462,2.066c0.165,0.841-0.527,1.506-0.984,0.988c-1.24-1.396-3.422-0.371-4.558-2.137
		c-0.481-0.748-1.977-0.507-2.868,0.145c-0.867,0.632-0.234,1.223,0.241,1.78c0.361,0.423,0.312,0.929-0.024,1.312
		c-1.999,2.282,0.65,5.337-1.273,7.645c-0.102,0.125,0.118,0.602,0.28,0.855c1.263,1.97,1.151,2.216-1.144,2.427
		c-1.926,0.176-3.188,1.982-2.639,3.853c0.334,1.139,0.797,2.24,1.147,3.375c0.467,1.519-0.69,3.645-1.737,3.167
		c-1.643-0.752-2.899-0.254-4.278,0.444c-0.85,0.43-1.608,0.246-2.438-0.308c-1.262-0.842-1.942-2.053-2.653-3.301
		c-0.477-0.839-1.269-1.347-2.197-0.832c-1.046,0.58-0.622,1.51-0.204,2.292c0.336,0.627,0.805,1.182,1.194,1.78
		c1.227,1.886,0.484,5.18-1.459,6.316c-1.622,0.949-3.03,0.043-3.982-1.01c-1.636-1.805-3.344-0.696-4.828-0.249
		c-1.513,0.455,0.025,1.542,0.079,2.359c0.099,1.52-0.283,2.838-1.555,3.79c-0.514,0.384-1.269,0.931-1.664,0.326
		c-0.56-0.858,0.491-0.898,0.992-1.119c0.863-0.381,1.253-1.006,0.951-1.901c-0.239-0.706-1.039-1.106-1.526-0.712
		c-1.352,1.094-3.3,0.553-4.532,1.822c-0.42,0.435-1.009,0.79-1.444,0.258c-0.979-1.195-1.918-0.238-3.075,0.212
		c0.391-1.479,1.105-2.079,2.248-2.245c1.955-0.284,1.953-0.291,0.793-1.94c3.347,0.509,5.007-2.144,6.563-3.977
		c3.543-4.171,3.28-4.635-0.072-7.574c-0.061-0.052,0.039-0.281,0.066-0.429c0.139-0.078,0.312-0.252,0.4-0.216
		c1.424,0.592,2.324,0.438,2.706-1.339c0.267-1.233,2.21-1.411,2.286-2.884c0.051-1.006-0.619-1.598-1.561-1.835
		c-0.778-0.197-1.345,0.374-2.006,0.61c-0.613,0.219-1.305,0.366-1.687-0.348c-0.345-0.645,0.229-0.971,0.632-1.36
		c2.648-2.561,2.766-5.381,0.379-8.08c-0.607-0.687-1.837-1.523-1.039-2.363c1.478-1.556,1.078-3.509,0.837-4.945
		c-0.362-2.162,1.238-5.328-2.423-6.409c-0.837-0.248-1.573-1.424-2.47-0.532c-0.982,0.978-0.281,1.942,0.619,2.59
		c1.329,0.955,0.753,1.541-0.338,1.965c-1.915,0.747-3.465-0.01-4.768-1.392c-0.766-0.815-1.625-1.077-2.541-0.46
		c-0.804,0.542-0.746,1.436-0.228,2.121c0.832,1.101,0.51,1.658-0.664,2.086c-0.548,0.2-0.869,0.739-0.991,1.283
		c-0.51,2.287-2.105,3.97-3.175,6.193c-0.281-0.483-0.464-0.73-0.578-1.007c-0.399-0.976-0.323-2.437-1.909-2.3
		c-1.56,0.134-1.395,1.586-1.883,2.639c-0.925,1.995-0.068,4.113-0.768,6.079c-0.249,0.701-0.451,1.388-1.263,1.583
		c-0.908,0.218-1.304-0.397-1.575-1.103c-0.388-1.021-1.045-1.448-2.014-0.803c-0.788,0.525-1.647,1.141-0.906,2.315
		c0.236,0.375,0.774,0.698,0.277,1.203c-0.129,0.131-0.453,0.157-0.661,0.11c-0.611-0.14-0.919-0.58-0.996-1.192
		c-0.129-1.04,0.573-1.782,0.927-2.655c0.392-0.969,0.81-2.199-0.425-2.718c-1.298-0.544-1.756,0.661-2.122,1.655
		c-0.44,1.196-0.836,2.407-1.711,3.386c-0.685,0.766-1.457,0.506-2.177,0.147c-0.602-0.3-0.457-0.855-0.035-1.158
		c1.858-1.331,2.176-3.639,3.467-5.339c1.515-1.996,1.482-4.481,1.688-6.855c0.042-0.499-0.123-1.011-0.726-1.041
		c-0.654-0.033-0.734,0.459-0.684,0.983c0.053,0.532,0.349,1.131-0.264,1.513c-0.324,0.202-0.602-0.04-0.789-0.32
		c-0.397-0.59-0.406-1.197-0.009-1.785c0.58-0.856,1.252-1.658,1.745-2.559c0.589-1.072,0.342-2.186-1.025-1.736
		c-1.465,0.481-2.26,0.029-3.338-0.786c-1.034-0.783-2.051-1.181-2.697,0.902c-0.843,2.724-1.488,5.473-2.097,8.242
		c-0.143,0.653-0.385,1.232-0.978,1.56c-0.805,0.445-1.065-0.335-1.54-0.707c-0.822-0.649-1.271-1.723-1.998-2.267
		c-1.779-1.336-1.913-2.254,0.019-3.458c0.84-0.524,1.077-1.541,0.565-2.332c-1.204-1.86-0.352-3.724,0.362-5.178
		c1.034-2.109,0.275-2.952-1.436-3.652c-1.462-0.599-1.892-1.595-1.356-3.042c0.232-0.627,0.455-1.519-0.133-1.752
		c-2.259-0.898-1.71-2.342-1.097-3.988c0.235-0.633,0.112-1.421,0.063-2.132c-0.057-0.833-0.326-1.657-1.298-1.737
		c-1.01-0.083-1.377,0.722-1.469,1.55c-0.31,2.766-2.893,4.238-3.768,6.688c-0.139,0.388-0.614,0.979-1.613,0.513
		c0.873-1.982,0.234-4.47,1.171-6.217c0.899-1.678,2.071-3.023,1.456-5.016c0.348-0.077,0.525-0.179,0.634-0.13
		c0.68,0.31,1.417,1.13,2.036,0.076c0.976-1.664-1.124-2.815-0.895-4.446c0.065-0.459-0.665-0.887-1.291-0.745
		c-0.274,0.062-0.638,0.304-0.72,0.546c-1.121,3.283-3.257,3.976-6.281,2.553c-0.202-0.096-0.471-0.054-0.708-0.068
		c-2.075-0.127-3.651-1.678-3.63-3.719c0.01-1.054,0.29-2.289-1.047-2.548c-1.229-0.24-1.807,0.845-2.094,1.875
		c-0.419,1.507-1.265,1.583-2.534,1.048c-0.891-0.375-1.756-0.571-1.95-1.771c-0.133-0.822-0.763-1.414-1.688-1.416
		c-0.97-0.002-1.34,0.722-1.633,1.496c-0.142,0.373-0.264,0.751-0.421,1.116c-0.238,0.547-0.6,0.994-1.265,0.839
		c-0.731-0.168-0.668-0.772-0.611-1.345c0.031-0.316,0.069-0.637,0.049-0.951c-0.064-0.941-0.385-1.819-1.434-1.906
		c-1.018-0.083-2.21-0.021-2.809,0.925c-0.533,0.847,0.455,1.42,0.908,2.001c0.629,0.808,1.537,1.43,1.31,2.652
		c-0.073,0.403-0.163,0.854-0.642,0.831c-0.221-0.012-0.586-0.375-0.609-0.605c-0.167-1.688-1.611-2.708-2.14-4.199
		c-0.222-0.623-0.597-1.188-1.364-1.114c-0.869,0.084-1.437,0.898-1.223,1.491c0.772,2.151-0.625,4.396,0.43,6.497
		c0.228,0.453,0.471,1.426-0.352,1.183c-1.549-0.457-2.276-2.123-3.541-3.093c-0.729-0.56,0.019-1.282,0.406-1.866
		c0.364-0.546,0.719-1.149,0.117-1.711c-0.496-0.463-1.066-0.18-1.528,0.144c-0.905,0.638-1.889,0.778-1.735-0.603
		c0.342-3.076-1.402-5.886-0.918-8.938c0.097-0.611-0.119-1.373-0.693-1.312c-2.225,0.232-4.442,0.239-6.67,0.255
		c-0.459,0.002-0.949,0.784-1.359,1.263c-0.396,0.46-0.439,1.019-0.102,1.552c0.359,0.569,0.837,0.673,1.425,0.327
		c0.458-0.268,1.21-0.789,1.277,0.088c0.082,1.059-0.067,2.331-0.62,3.184c-0.499,0.771-0.969-0.319-1.387-0.691
		c-1.855-1.643-3.03-1.305-3.605,1.113c-0.548,2.309-0.66,4.621,0.587,6.769c0.429,0.742,0.288,1.326-0.101,1.992
		c-1.08,1.851-2.63,1.815-4.329,1.088c-1.34-0.575-2.242-0.564-1.946,1.276c0.24,1.496-1.361,2.466-1.055,4.06
		c0.13,0.679-0.785,0.514-1.327,0.416c-0.742-0.134-1.624-0.812-2.183,0.071c-0.619,0.974,0.161,1.851,0.703,2.589
		c1.853,2.521,3.472,5.052,2.35,8.419c-0.234,0.706,0.298,1.364,0.74,1.941c0.476,0.621,1.162,1.152,1.042,2.052
		c-0.048,0.367-0.387,0.506-0.729,0.378c-0.881-0.334-1.395-1.017-1.673-1.894c-0.073-0.227-0.108-0.465-0.179-0.694
		c-0.204-0.665-0.59-1.232-1.347-1.058c-0.939,0.217-0.782,0.976-0.704,1.731c0.342,3.359,1.719,6.17,4.22,8.45
		c0.936,0.851,0.952,1.982,0.635,3.103c-0.227,0.799-0.9,1.226-1.662,0.963c-1.055-0.363-0.263-1.026-0.057-1.529
		c0.341-0.829,0.815-1.711-0.22-2.306c-0.926-0.529-1.856-0.211-2.639,0.466c-0.712,0.613-1.003,1.411-0.977,2.339
		c0.022,0.874,0.039,1.748,0.06,2.623c0.008,0.395,0.083,0.879-0.437,0.954c-0.26,0.038-0.723-0.141-0.815-0.347
		c-0.944-2.104-2.118-4.167-2.631-6.381c-0.322-1.393-0.507-2.427-2.003-2.771c-1.23-0.282-1.428-1.041-1.101-2.159
		c0.669-2.284-1.349-7.267-3.08-8.957c-1.507-1.472-4.865-2.134-3.09-5.568c0.284-0.548-0.259-1.205-0.806-1.604
		c-0.44-0.322-1.039-0.52-1.069-1.182c-0.033-0.746-0.014-1.545-1.071-1.456c-0.906,0.077-1.727,0.483-2.139,1.33
		c-0.44,0.901,0.088,1.503,0.848,1.948c0.611,0.356,1.173,0.933,0.479,1.485c-1.745,1.389-1.038,3.184-0.572,4.599
		c0.702,2.13-0.321,3.213-1.834,4.746c-0.06-2.629-1.468-4.633-0.721-7.092c0.35-1.148-0.931-1.532-1.977-1.197
		c-0.481,0.154-0.854,0.666-1.26,1.034c-0.362,0.327-0.743,0.7-1.252,0.465c-0.493-0.229-0.128-0.671-0.133-1.034
		c-0.024-1.888-1.481-2.847-2.716-3.879c-0.459-0.383-1.246-0.288-1.771,0.205c-0.501,0.473-0.212,1.016-0.064,1.553
		c0.188,0.686,0.362,1.383,0.458,2.085c0.062,0.457,0.082,1.033-0.543,1.15c-0.529,0.1-0.902-0.246-1.119-0.708
		c-0.296-0.633-0.313-1.682-1.087-1.728c-3.245-0.192-2.966-2.598-2.836-4.628c0.12-1.896,0.161-4.37,1.31-5.492
		c1.731-1.694,1.739-2.729,0.195-4.251c0.58-0.338,1.115-0.544,1.512-0.905c0.64-0.583,0.917-1.366,0.375-2.138
		c-0.48-0.683-1.315-0.702-1.956-0.387c-1.488,0.73-2.882,2.219-2.641,3.586c0.387,2.195-0.81,2.673-2.197,3.269
		c-1.442,0.62-1.644,1.47-0.916,2.829c1.108,2.066,0.132,4.659-2.044,5.751c-2.897,1.454-3.277,4.182-1.042,6.669
		c0.829,0.921,2.037,1.765,1.759,3.815c-1.493-1.481-2.845-2.536-4.336-3.408c-0.918-0.538-1.25-1.413-0.552-2.441
		c0.462-0.681,0.675-1.348,0.229-2.212c-1.158-2.243-3.889,0.117-5.186-1.852c-0.285-0.431-1.202-0.194-1.745,0.262
		c-0.66,0.554-1.752,1.588-2.169,0.866c-0.739-1.281-2.648-1.939-2.282-3.811c0.211-1.072,0.307-2.041-1.193-1.875
		c-1.191,0.132-2.717,0.431-2.331,2.03c0.414,1.719,0.676,3.521,1.935,5.044c1.234,1.495,2.165,3.288,2.994,5.06
		c0.819,1.75-0.724,2.637-1.899,2.963c-1.525,0.424-0.789-1.09-0.92-1.763c-0.206-1.057-1.166-1.478-1.684-2.258
		c-0.518-0.779-1.223-1.401-2.188-0.998c-1.129,0.473-0.996,1.595-0.767,2.494c0.271,1.064,0.75,2.092,1.25,3.08
		c0.695,1.371-0.192,2.22-1.064,2.807c-1.212,0.814-1.393-0.297-1.633-1.177c-0.206-0.757-0.748-0.663-1.327-0.414
		c-1.47,0.632-1.876,2.101-1.013,3.513c1.364,2.229,2.693,4.48,4.033,6.724c0.338,0.564,0.716,1.303-0.013,1.662
		c-0.851,0.418-0.937-0.542-1.228-1.058c-0.506-0.898-1.007-1.801-1.548-2.678c-0.437-0.704-1.025-1.286-1.935-1.141
		c-0.919,0.147-1.187,0.983-1.499,1.708c-0.448,1.035,0.031,1.738,0.746,2.524c0.926,1.015,2.347,1.875,2.008,3.759
		c-0.784-0.14-0.959-0.741-1.35-1.09c-1.697-1.516-3.372-3.067-5.168-4.46c-0.802-0.623-1.882-0.984-2.875-0.189
		c-0.69,0.553-0.956,1.291-0.548,2.124c0.505,1.036,1.319,1.55,2.522,1.335c0.377-0.068,0.814-0.118,1.022,0.539
		c-0.79,0.831-1.71,1.743,0.106,2.638c1.343,0.662,1.386,1.783,0.73,3.035c-0.654,1.243-1.433,1.713-2.894,1.11
		c-1.161-0.48-2.391-0.672-3.386-1.597c-0.78-0.725-1.664-0.359-2.266,0.435c-0.501,0.662-0.492,1.572,0.238,1.87
		c1.656,0.678,2.063,2.521,3.841,3.333c-2.086,1.027-3.075,2.95-1.589,4.077c2.1,1.592,3.203,3.87,5.052,5.548
		c0.478,0.435,1.615,0.648,0.927,1.539c-0.712,0.923-1.365,0.192-1.899-0.468c-0.503-0.624-1.176-0.898-1.891-0.438
		c-0.823,0.529-0.469,1.24-0.113,1.887c0.647,1.178,1.159,2.379,0.757,3.847c-0.486-1.539-2.198-1.807-2.902-3.247
		c-1.044-2.13-2.536-4.023-5.257-4.319c-1.116-0.122-1.939-0.753-1.974-2.009c-0.019-0.658,0.037-1.323-0.797-1.504
		c-0.411-0.089-0.802,0.061-1.059,0.403c-0.539,0.72-0.19,1.318,0.266,1.933c0.824,1.109,0.93,2.316,0.535,3.723
		c-0.865-0.589-0.785-1.402-1.075-2.033c-0.614-1.333-1.707-2.077-2.994-2.577c-0.696-0.271-1.453-0.253-1.958,0.41
		c-0.484,0.637,0.038,1.131,0.293,1.718c0.74,1.692,1.682,3.116,3.268,4.204c2.229,1.528,2.185,2.157,0.139,3.918
		c0.881,0.925,2.472,1.11,2.831,3.133c-1.896-2.057-3.705-1.426-5.641-0.59c-0.712,0.308-1.167-0.602-1.321-1.364
		c-0.151-0.754-0.094-1.794-1.203-1.734c-1.256,0.069-1.929,1.005-2.286,2.142c-0.26,0.828-0.682,2.231,0.185,2.334
		c1.961,0.233,3.304,2.595,5.626,1.435c2.011-1.004,3.415,0.688,4.986,1.462c0.714,0.352,0.465,1.057-0.061,1.334
		c-1.262,0.667-1.616,1.349-0.545,2.526c0.372,0.41-0.101,0.846-0.463,1.19c-2.051,1.944-2.007,2.025,0.513,3.367
		c1.04,0.555,1.906,0.606,2.846-0.164c0.647-0.531,1.859-0.385,1.409,0.396c-1.084,1.877-0.209,3.894-0.917,5.683
		c-0.453,1.143-1.023,2.959-1.788,3.096c-1.25,0.223-0.944-1.667-1.501-2.548c-0.084-0.133-0.125-0.293-0.206-0.429
		c-0.454-0.761-1.138-1.155-2.001-0.969c-0.969,0.211-1.184,1.014-1.068,1.861c0.114,0.843-0.214,1.777,0.469,2.518
		c0.346,0.377,0.55,0.79,0.19,1.275c-1.772,2.393-0.227,3.583,1.681,4.638c0.474,0.262,1.083,0.394,0.975,1.62
		c-3.377-2.061-7.456-2.767-8.494-7.35c-0.279-1.236-1.285-1.853-2.259-0.722c-0.896,1.038-1.537,2.919-0.213,3.622
		c3.2,1.699,3.396,5.78,6.562,7.286c-0.458,0.644-0.942,0.484-1.411,0.461c-2.901-0.14-3.469,0.602-2.345,3.244
		c0.273,0.645,0.314,1.02-0.262,1.391c-0.879,0.565-0.899,1.458-0.841,2.338c0.079,1.213-0.249,2.012-1.424,2.701
		c-1.452,0.851-1.202,2.611,0.396,3.015c1.629,0.412,2.909,1.55,4.624,1.816c1.107,0.172,2.361,0.791,3.097,1.614
		c0.836,0.935-0.731,1.757-0.773,2.77c-0.017,0.395-0.091,0.802-0.02,1.181c0.32,1.751-0.267,1.715-1.641,1.05
		c-4.1-1.986-7.747-4.907-12.498-5.998c1.161,2.264-0.958,4.626,0.463,6.898c0.196,0.313-0.14,0.945-0.592,1.205
		c-0.623,0.356-1.057-0.082-1.457-0.464c-1.097-1.047-2.209-2.087-2.559-3.658c-0.303-1.362-1.387-1.875-2.547-2.247
		c-0.34-0.108-0.86-0.119-1.114,0.071c-0.537,0.402-0.088,0.849,0.169,1.225c2.062,3.021,3.326,6.649,6.706,8.676
		c0.539,0.323,1.211,0.824,1.042,2.009c-1.218-0.199-2.45-0.312-3.636-0.61c-3.417-0.862-2.916-5.266-5.868-6.602
		c-0.183-0.083-0.239-0.566-0.258-0.869c-0.019-0.311,0.118-0.627,0.12-0.942c0.011-1.73-0.285-3.443,0.018-5.2
		c0.178-1.036-0.431-2.039-1.713-1.473c-1.361,0.601-2.606,0.513-3.929,0.055c-0.46-0.16-1-0.213-1.259,0.323
		c-0.924,1.917-2.315,3.38-4.114,4.495c-0.421,0.261-0.702,0.771-0.472,1.244c0.763,1.565-1.416,3.456,0.559,4.879
		c0.048,0.036-0.077,0.504-0.225,0.592c-1.14,0.674-0.946,1.67-0.812,2.733c0.091,0.727,0.422,1.906-0.618,1.997
		c-1.162,0.102-1.367-1.18-1.091-1.948c0.917-2.56-0.539-3.776-2.408-4.902c-0.634-0.38-1.217-0.901-1.908-0.265
		c-0.593,0.545-0.333,1.197,0.081,1.716c1.254,1.573,0.724,3.526,1.126,5.279c0.205,0.894-0.28,1.74-1.517,1.566
		c-1.056-0.148-1.807,1.02-1.355,1.277c2.166,1.24,1.484,3.201,1.723,4.965c0.053,0.38,0.544,0.816,0.939,1.018
		c3.214,1.65,4.764,4.418,5.734,7.777c0.312,1.081,1.508,1.88,0.974,3.292c-0.124,0.325,0.325,0.925,0.667,0.842
		c2.233-0.536,3.325,1.896,5.404,1.959c1.397,0.043,1.235,0.907,0.159,1.61c-1.148,0.75-2.248,2.04-1.256,3.124
		c1.392,1.523,1.439,3.421,2.291,5.017c1.033,1.939,2.121,4.059,5.002,4.103c2.334,0.036,7.3,4.443,7.406,6.658
		c0.127,2.701,1.542,1.647,2.673,1.134c1.346-0.612,1.413-1.909,0.9-3.545c0.378,0.387,5.316,2.421,5.409,2.446
		c1.187,0.314,2.274,0.857,2.87,1.958c0.581,1.072-0.431,1.567-1.061,2.106c-0.507,0.437-0.381,1.452-1.434,1.48
		c-0.408-1.103,1.295-2.561-0.124-3.221c-1.154-0.537-2.303,0.779-3.505,1.131c-0.145,0.042-0.269,0.167-0.4,0.255
		c-2.479,1.687-7.757,0.167-8.952-2.602c-0.104-0.244-0.063-0.646,0.073-0.881c0.36-0.624,0.932-1.234,0.167-1.885
		c-0.718-0.611-1.535-0.38-2.206,0.111c-1.302,0.955-2.112,0.415-2.979-0.69c-1.813-2.311-2.765-5.901-6.946-4.927
		c-0.221,0.052-0.617-0.218-0.785-0.445c-0.84-1.137-2.045-1.053-3.245-1.087c-3.31-0.094-5.055-2.604-3.995-5.741
		c0.161-0.476,0.313-0.932-0.072-1.332c-0.519-0.536-1.025-0.167-1.507,0.104c-1.62,0.916-2.001,2.357-1.738,4.082
		c0.079,0.514,0.414,1.232-0.404,1.36c-0.614,0.095-0.978-0.529-1.135-1.057c-0.151-0.514-0.223-1.103-0.132-1.625
		c0.323-1.843-0.12-3.448-1.287-4.878c-1.648,0.11-2.075,1.154-2.069,2.615c0.027,6.717,0.209,13.442-0.043,20.15
		c-0.107,2.858,1.52,5.651,0.126,8.542c-0.359,0.747,0.231,1.534,1.069,1.89c2.086,0.888,2.734,3.498,2.477,4.647
		c-0.752,3.376,0.659,3.281,3.019,2.836c0.497-0.093,1.085,0.184,1.603,0.369c0.46,0.164,0.607,0.534,0.212,0.906
		c-2.137,2.006-0.244,2.428,1.189,2.903c1.046,0.346,1.709,1.117,2.498,1.777c1.031,0.866,2.141,1.88,2.629-0.464
		c0.1-0.473,0.408-0.69,0.862-0.564c1.145,0.316,2.36,0.518,3.399,1.053c1.154,0.593,1.124,1.365-0.103,2.082
		c-1.431,0.836-2.7,1.736-2.94,3.714c-0.191,1.575-3.768,3.387-4.725,2.508c-1.399-1.286-2.445-2.922-4.761-1.916
		c-0.43,0.187-0.643-0.58-0.896-0.973c-0.472-0.73-0.926-1.486-1.493-2.139c-0.43-0.494-1.071-0.724-1.735-0.41
		c-0.609,0.288-0.515,0.864-0.581,1.431c-0.251,2.166,0.644,3.745,2.259,5.089c0.729,0.606,2.212,0.834,1.81,2.174
		c-0.406,1.348-1.86,1.25-2.979,1.61c-0.92,0.295-1.682-0.16-2.654-0.302c0.014,1.263-0.561,3.544,0.465,3.351
		c2.432-0.458,3.107,0.938,4.188,2.313c0.277,0.356,1.06,0.557,1.544,0.469c2.553-0.465,4.358,2.007,6.939,1.446
		c-0.459,0.628-0.993,0.883-1.309,1.301c-1.145,1.516-2.277,2.203-3.745,0.353c-0.289-0.363-1.03-0.539-1.295-0.15
		c-1.074,1.579-0.39,4.156-2.845,5.001c-0.14,0.049-0.178,0.592-0.145,0.893c0.032,0.301,0.146,0.641,0.338,0.871
		c1.321,1.594,0.583,2.456-1.061,2.9c-1.18,0.318-1.912,0.903-1.548,2.186c0.341,1.197,1.342,1.105,2.347,1.044
		c2.799-0.181,5.693,0.043,7.816-2.533c0.519,1.208-0.341,2.443,0.885,2.92c1.132,0.438,1.688-0.599,2.394-1.188
		c0.427-0.358,0.917-0.898,1.444-0.429c0.953,0.845,2.003,0.778,3.134,0.698c0.552-0.039,1.274,0.205,1.297,0.812
		c0.035,0.982-0.872,0.624-1.425,0.713c-0.311,0.051-0.635,0.019-0.953,0.022c-1.321,0.021-2.557,0.248-3.331,1.476
		c-0.906,1.436,1.146,1.521,1.384,2.779c-2.196-0.744-3.463,0.616-4.835,1.613c-0.747,0.543-0.84,1.352-0.185,2.081
		c0.557,0.619,1.282,0.757,1.894,0.146c1.806-1.803,4.279-1.017,6.389-1.638c0.871-0.259,1.7,0.084,2.233-1.104
		c0.606-1.352,1.651-1.256,2.158,0.129c0.375,1.019,0.867,1.63,1.938,1.813c0.77,0.133,1.431,0.7,1.533,1.37
		c0.432,2.858,1.776,2.747,3.661,1.283c0.315-0.245,0.688-0.511,1.055-0.168c0.361,0.337,0.182,0.761-0.089,1.06
		c-0.879,0.972-1.232,2.219-1.813,3.345c-0.549,1.064-0.539,2.03,0.759,2.535c1.963,0.768,1.663,1.473-0.032,2.147
		c-1.331,0.53-1.998,1.475-0.648,2.407c1.934,1.335,1.238,2.211-0.014,3.451c-0.956,0.949-1.263,2.6,0.373,2.761
		c1.929,0.19,3.628,1.314,5.305,1.327c1.882,0.018,3.329,0.324,4.994,1.158c2.976,1.489,3.155,1.534,1.371,4.283
		c-0.332,0.512-0.578,0.999-0.174,1.519c0.46,0.59,1.097,0.542,1.737,0.29c0.853-0.339,1.519-1.157,3.261-0.959
		c-2.14,1.1-1.641,4.434-4.938,3.567c-0.86-0.226-0.711,0.748-0.523,1.4c0.181,0.623,1.235,0.893,0.462,2.338
		c-0.655-1.872-4.066-0.654-3.097-4.006c0.286-0.98-0.928-1.226-1.711-0.85c-1.369,0.66-2.283,1.837-2.196,3.385
		c0.081,1.435,0.751,2.541,2.484,2.67c2.203,0.163,3.889,1.324,5.064,3.162c0.678,1.059,1.581,1.499,2.803,1.425
		c0.742-0.047,1.876-0.444,1.88,0.697c0.004,1.039-1.209,0.765-1.937,0.86c-1.872,0.249-3.698-0.059-5.447,1.466
		c-1.471,1.28-5.675-0.045-6.602-1.521c-0.158-0.251-0.332-0.581-0.293-0.845c0.053-0.37,0.459-0.439,0.757-0.315
		c2.927,1.212,2.642-0.03,1.53-1.964c-0.149-0.262-0.185-0.611-0.2-0.923c-0.034-0.804,0.505-1.978-0.939-1.946
		c-1.078,0.023-2.311,0.175-2.537,1.652c-0.253,1.663-0.81,2.139-2.262,0.835c-1.034-0.925-2.473-1.212-3.368,0.077
		c-0.893,1.283,1.245,2.578,0.382,4.044c1.902-0.587,1.076,0.706,0.946,1.423c-0.645,3.579,0.835,5.098,4.446,4.52
		c0.235-0.038,0.464-0.116,0.7-0.151c0.877-0.128,2.124-0.314,2.297,0.619c0.22,1.186-1.159,1.272-2.021,1.484
		c-1.171,0.29-2.361,0.114-3.55-0.092c-1.417-0.246-3.781,1.349-3.69,2.578c0.152,2.044,1.662,1.948,3.188,1.756
		c2.7-0.341,5.368-0.175,7.983,0.651c0.443,0.141,1.043,0.058,1.084,0.674c0.037,0.526-0.422,0.839-0.857,1.047
		c-1.5,0.718-3.019,0.794-4.633,0.298c-1.436-0.442-2.926-0.732-4.407-0.995c-0.859-0.153-1.623,0.149-1.83,1.107
		c-0.194,0.899,0.213,1.69,1.069,1.878c2.234,0.491,4.285,1.835,6.676,1.556c1.124-0.131,1.858,0.09,2.094,1.317
		c0.183,0.949,1.054,1.595,1.723,1.06c1.816-1.447,3.394-0.44,5.083,0.067c1.03,0.311,2.023,0.079,3.013-0.354
		c1.804-0.789,3.41-0.078,4.926,0.857c0.627,0.388,0.86,1.555,1.861,1.152c1.086-0.437,0.149-1.586,0.601-2.354
		c0.789,0.507,1.509,1.847,2.397,1.129c1.865-1.509,3.583-0.541,5.495-0.452c2.121,0.101,2.93,1.577,4.33,2.419
		c0.531,0.32,1.744-0.132,1.531,0.946c-0.166,0.839-1.171,0.982-2.002,0.87c-2.332-0.314-4.435-1.438-6.771-1.853
		c-1.543-0.271-4.447,0.199-4.214,1.316c0.275,1.317,1.374,2.311,1.833,3.673c0.278,0.824,1.713-0.045,2.592-0.286
		c2.573-0.707,5.988,0.261,7.589,2.229c-0.683,0.405-1.215-0.144-1.795-0.292c-1.771-0.455-3.338,0.361-4.296,1.486
		c-1.84,2.16,1.259,2.914,1.715,4.497c0.403,1.396,1.54,0.719,2.411,0.582c4.602-0.715,9.207-1.392,13.74-2.507
		c1.404-0.346,2.917-0.248,4.378-0.353c-3.97,1.717-8.456,1.59-12.791,4.073c1.841,0.692,3.094,0.76,4.306,1.028
		c6.476,1.436,12.804,3.465,17.974,7.728c3.67,3.024,7.278,3.527,11.452,1.682c0.8-0.354,1.602-0.707,2.426-0.998
		c4.101-1.444,4.353-1.425,4.562-5.515c0.086-1.684,1.859-3.805-0.613-5.379c-0.493-0.312,0.087-1.005,0.778-1.015
		c1.41-0.021,2.39,1.332,1.826,2.67c-0.429,1.018-0.491,2-0.222,3.021c0.35,1.334-0.667,3.335,0.876,3.923
		c1.52,0.578,2.88-0.901,4.064-1.938c0.545-0.476,1.075-0.804,1.634-0.172c0.694,0.781-0.066,1.006-0.576,1.402
		c-0.753,0.588-2.25,1.367-1.251,2.294c1.147,1.063,2.264,2.288,4.016,2.823c4.051,1.241,8.412,0.889,12.348,2.906
		c1.983,1.02,4.475,0.533,6.751-0.275c2.112-0.75,4.131-2.045,6.633-1.192c3.758,1.283,3.961,1.185,3.744-2.908
		c-0.181-3.459,1.245-7.19-1.465-10.32c-0.259-0.3,0.014-0.813,0.396-0.993c0.243-0.113,0.647-0.117,0.876,0.011
		c0.749,0.423,1.046,1.154,1.146,1.984c1.044,8.598,2.182,17.186,1.922,25.889c-0.141,4.732-0.266,9.487-0.24,14.2
		c0.035,6.746,0.18,13.491,0.129,20.247c-0.023,3.392-0.429,6.757-0.443,10.15c-0.024,5.267,1.174,10.627-0.729,15.845
		c-1.173,3.216-4.667,6.779-7.118,6.489c-2.501-0.296-4.941-0.942-7.437-0.011c-0.329,0.122-0.789-0.044-1.172-0.141
		c-3.072-0.785-6.276-0.26-9.203,0.135c-3.406,0.46-6.783,0.34-10.138,0.467c-5.486,0.207-10.958,0.67-16.496,0.484
		c-6.554-0.223-13.158,0.479-19.751,0.613c-2.44,0.051-4.9,0.104-7.349,0.214c-6.191,0.273-12.332,1.341-18.548,1.142
		c-5.414-0.173-10.794,0.438-16.187,0.727c-1.184,0.062-3.164,0.48-3.067,1.688c0.13,1.621,2.052,0.948,3.192,0.927
		c8.515-0.17,17.057,0.036,25.497,0.805c7.825,0.714,15.645,0.785,23.453,1.01c13.896,0.4,27.812-0.237,41.713-0.196
		c12.037,0.035,24.082,0.706,36.13,0.508c12.457-0.205,24.902-0.899,37.372-0.741c6.571,0.081,13.167-0.033,19.716-0.531
		c3.289-0.249,6.511,0.479,9.736,0.087c7.957-0.965,15.97-0.455,23.943-1.019c0.25-0.291,0.506-0.575,0.774-0.85
		c-0.784-1.223-1.429-2.549-1.895-3.959c-0.221,0.511-0.738,0.635-1.177,0.492c-4.319-1.405-8.795-0.498-13.181-0.774
		c-5.655-0.357-11.389-0.119-17.054-0.306c-8.9-0.295-17.803,0.064-26.694-0.424c-2.68-0.147-5.365-0.22-8.046-0.345
		c-1.984-0.092-3.858-0.533-6.05-1.97c2.677-0.291,2.63-1.576,2.479-3.392c-0.557-6.63-0.895-13.264-0.658-19.944
		c0.457-12.874-1.175-25.692-1.431-38.557c-0.084-4.188,0.657-8.187,2.566-11.72c3.152-5.833,9.05-8.056,16.083-4.091
		c1.055,0.597,1.932,1.568,3.461,1.265c-0.859-0.623-1.729-1.239-2.579-1.874c-0.403-0.3-0.719-0.696-0.377-1.202
		c0.272-0.406,0.747-0.353,1.059-0.09c2.324,1.963,4.966,2.475,8.446,1.256c-1.271,1.893-3.598,1.886-3.26,3.338
		c0.328,1.414,2.354,1.315,3.698,1.657c3.844,0.979,5.662-0.037,6.965-3.733c0.502-1.425,1.054-2.83,1.554-4.257
		c1.515-4.312,4.05-7.342,9.195-7.285c-2.027-0.808-4.08-1.299-5.992-2.751c2.629-1.354,5.372,2.676,7.432-0.879
		c0.555,0.884-0.923,2.616,1.303,2.007c0.528-0.145,0.438,0.636,0.177,1.13c1.973-0.828,4.083-1.28,6.082-1.102
		c2.981,0.264,5.817,0.787,8.519,1.591c4.64-2.947,9.199-6.029,13.58-9.353c0.339-0.289,2.201-1.764,2.333-1.874
		c1.169-0.972,2.341-1.942,3.481-2.948c1.884-1.661,3.755-3.341,5.552-5.099c2.136-2.088,4.238-4.213,6.229-6.442
		c0.989-1.107,1.979-2.217,2.928-3.36c0.169-0.202,1.877-2.38,1.869-2.318c2.985-4.056,5.783-8.257,8.19-12.685
		c0.72-1.324,1.447-2.648,2.106-4.005c0.097-0.199,1.66-3.825,1.22-2.61c1.019-2.65,1.964-5.327,2.776-8.049
		c1.646-5.506,3.009-11.083,4.401-16.657c2.303-9.21,4.894-18.545,9.041-27.129c-0.104,0.002-0.204,0.02-0.294,0.067
		c-3.226,1.768-3.553-0.12-4.07-2.634c-0.207-1.005-0.562-1.388,0.346-2.271c3.038-2.95,3.385-6.019,1.227-8.341
		c-0.812-0.872-1.745-1.44-2.955-1.113c-0.922,0.249-1.428,1.005-1.632,1.9c-0.306,1.345,0.646,1.801,1.651,2.22
		c0.929,0.387,1.114,1.144,0.674,1.957c-0.467,0.861-1.072,0.533-1.795,0.147c-1.592-0.847-2.791-0.165-2.971,1.565
		c-0.203,1.95-2.298,3.553-4.102,2.991c-0.901-0.281-1.717-0.06-2.574-0.07c-1.049-0.015-1.424,1.59-2.64,1.104
		c-0.154-1.284,1.974-1.938,1.012-2.961c-0.825-0.88-1.391-2.531-3.077-2.278c-1.379,0.207-1.614,1.342-1.771,2.5
		c-0.137,0.999-0.603,1.779-1.736,1.271c-1.131-0.506-2.171-1.664-3.258-0.019c-0.666,1.011-1.852,1.29-2.591,2.507
		c-1.31,2.16-2.325,4.638-4.258,6.432c-0.564-0.457-0.434-0.991-0.231-1.366c1.588-2.948,2.272-5.933,1.619-9.368
		c-0.379-2.007,2.17-3.381,4.116-2.53c0.818,0.358,1.41,0.146,1.834-0.538c0.315-0.508,0.358-1.271-0.217-1.474
		c-1.685-0.591-2.399-3.247-4.86-2.248c-0.346,0.14-0.964-0.384-1.734-0.724c3.478-1.144,6.37-3.119,9.939-2.796
		c0.494,0.045,1.092-0.276,1.111-0.738c0.111-2.434,2.428-2.642,3.771-3.807c0.614-0.535,1.45-0.894,1.062-1.855
		c-0.438-1.083-1.447-1.121-2.435-0.972c-0.751,0.114-1.304,0.625-1.745,1.181c-1.413,1.779-2.581,2.287-4.578,0.372
		c-1.376-1.32-1.012-1.678,0.213-2.274c1.298-0.632,2.502-1.59,2.58-2.922c0.115-1.983,2.451-4.243-0.464-6.027
		c-0.465-0.285-0.07-0.681,0.132-1.02c0.423-0.706,0.812-1.432,1.263-2.236c1.163,3.151,1.17,3.169,4.336,1.947
		c1.262-0.487,2.412-1.185,3.529-1.971c3.859-2.713,7.839-5.065,12.735-5.579c3.195-0.335,5.893-1.797,7.112-5.171
		c0.931-2.568,1.633-5.314,4.436-6.719c0.44-0.222,0.657-1.072,0.8-1.675c1.359-5.686,4.734-9.985,9.227-13.525
		c1.754-1.382,2.482-3.324,2.659-5.414C421.077,180.042,418.479,178.137,415.91,178.938z M134.163,164.99
		c-0.568,0.188-1.202,0.185-1.515-0.344c-0.769-1.3-1.707-2.023-3.313-1.586c-0.45,0.123-4.296-5.834-3.971-6.092
		c2.28-1.801,0.007-2.794-0.669-4.056c-0.252-0.466-0.905-0.926-0.379-1.437c0.54-0.525,0.957,0.201,1.419,0.437
		c2.705,1.374,3.684,4.168,4.934,6.552c0.952,1.814,2.159,3.253,3.509,4.671c0.317,0.333,0.834,0.502,0.804,1.086
		C134.903,164.685,134.545,164.863,134.163,164.99z M267.327,449.405c-3.395-0.477-6.688-6.029-7.437-9.398
		c-1.701-7.646-1.455-15.449-2.463-23.145c-0.605-4.617-0.258-9.363-0.289-14.052c-0.051-7.863,0.381-15.736-0.414-23.584
		c-0.646-6.396-0.78-12.819-0.968-19.235c-0.112-3.948,0.634-4.362,4.474-2.896c-3.403,0.332-3.165,0.334-3.188,3.749
		c-0.026,3.979,1.268,7.716,1.824,11.571c0.395,2.756,2.178,5.36,2.676,8.293c2.062,12.118,2.127,24.296,1.499,36.53
		c-0.219,4.252,0.254,8.535,0.313,12.807c0.041,2.854,0.103,5.706-0.375,8.559c-0.603,3.611,0.342,6.767,3.325,9.145
		C266.768,448.116,267.453,448.401,267.327,449.405z M358.961,296.124c-0.432,0.165-0.776-0.005-1.017-0.376
		c-0.888-1.378-1.968-0.779-3.272-0.829c-2.035-0.078-4.492,1.59-6.379-0.724c-0.617-0.755-1.853-0.675-2.733-0.452
		c-1.833,0.462-2.955-0.487-4.106-1.601c-0.373-0.361-0.729-0.706-0.359-1.188c0.323-0.42,0.687-0.039,1.047,0.105
		c4.284,1.742,8.702,2.067,13.204,1.086c2.298-0.5,3.941,0.654,4.081,3.011C359.521,295.6,359.401,295.956,358.961,296.124z
		 M360.563,229.972c-1.804,0.876-3.282,3.154-5.898,1.829c-0.579-0.294-1.534,0.188-2.321,0.254c-0.371,0.03-0.894,0.06-0.919-0.485
		c-0.02-0.455,0.434-0.773,0.798-0.716c3.385,0.521,2.422-2.279,2.854-3.868c0.154-0.57,0.021-1.177,0.552-1.661
		c0.619-0.564,1.19-1.354,0.226-1.953c-0.908-0.563-1.163,0.397-1.452,1.035c-0.099,0.214-0.204,0.425-0.307,0.638
		c-0.198-0.129-0.397-0.259-0.596-0.387c0.071-2.086,1.371-3.26,3.272-3.906c0.671-0.227,1.574-0.319,1.955,0.386
		c0.582,1.082-1.029,0.67-1.124,1.38c2.529,0.433,3.248-0.297,2.632-2.728c-0.14-0.548-0.442-1.198,0.199-1.463
		c0.8-0.331,0.792,0.546,1.016,0.985c0.645,1.267,1.277,2.54,1.869,3.833C363.99,224.613,362.474,229.043,360.563,229.972z"/>
	<path d="M257.341,25.828c-1.247-0.184-2.326-0.239-2.901-1.284c-0.557-1.008-1.077-1.839-2.311-0.714
		c-0.361,0.329-0.754,0.085-0.84-0.408c-0.133-0.777,2.051-3.206,2.867-3.111c2.485,0.291,4.52,1.582,6.309,3.208
		c0.676,0.615,0.201,1.377-0.582,1.657C258.996,25.492,258.055,25.65,257.341,25.828z"/>
	<path d="M90.047,186.256c-1.776-1.525-2.338-3.48-2.052-5.744c0.089-0.705,0.04-1.562,0.972-1.668
		c1.057-0.12,1.313,0.757,1.41,1.556c0.133,1.132,0.512,2.118,1.123,3.086c1.237,1.968,0.984,2.378-1.483,2.747
		C90.016,186.233,90.047,186.256,90.047,186.256z"/>
	<path fill="none" d="M342.956,450.656c-0.039-0.021-0.068-0.054-0.113-0.068c-0.481-0.174-0.899-0.419-1.277-0.707
		c-2.499-0.268-4.947-0.763-7.217-1.704c-6.935-2.88-12.16-7.898-12.16-15.974c0-1.886,0.361-3.737,0.989-5.485
		c-1.144-0.386-2.119-0.918-2.18-2.441c-0.618-0.538-1.241-1.07-1.874-1.592c-0.229-0.189-2.532-1.996-2.318-1.867
		c-0.745-0.557-1.492-1.114-2.247-1.659c-7.134-5.152-11.075-14.46-5.941-22.663c0.298-0.478,2.24-4.634,1.022-1.263
		c0.354-0.914,0.666-1.844,0.933-2.787c0.192-0.733,0.843-5.619,0.759-3.702c0.141-2.241,0.2-4.485,0.067-6.731
		c-0.042-0.699-0.671-6.958-0.134-2.979c-0.82-6.083-0.344-11.513,4.26-16.117c1.496-1.496,3.481-2.848,5.631-3.749
		c0.262-0.494,0.352-1.274-0.177-1.13c-2.226,0.608-0.748-1.123-1.303-2.007c-2.06,3.555-4.803-0.476-7.432,0.879
		c1.912,1.453,3.965,1.943,5.992,2.751c-5.146-0.058-7.681,2.973-9.195,7.285c-0.5,1.425-1.052,2.832-1.554,4.257
		c-1.302,3.696-3.121,4.712-6.965,3.733c-1.343-0.341-3.371-0.243-3.699-1.658c-0.337-1.451,1.988-1.444,3.261-3.337
		c-3.48,1.221-6.122,0.707-8.446-1.256c-0.311-0.263-0.784-0.316-1.06,0.09c-0.341,0.507-0.025,0.901,0.378,1.202
		c0.851,0.635,1.719,1.251,2.58,1.874c-1.531,0.303-2.408-0.668-3.462-1.265c-7.033-3.965-12.93-1.742-16.082,4.091
		c-1.91,3.533-2.65,7.531-2.567,11.72c0.257,12.863,1.887,25.683,1.431,38.557c-0.235,6.681,0.101,13.314,0.657,19.944
		c0.153,1.816,0.2,3.101-2.477,3.392c2.191,1.437,4.063,1.878,6.049,1.97c2.681,0.125,5.366,0.197,8.046,0.345
		c8.893,0.489,17.794,0.129,26.694,0.424c5.666,0.187,11.399-0.052,17.054,0.306c4.386,0.276,8.861-0.631,13.181,0.774
		c0.438,0.143,0.955,0.02,1.177-0.492C343.132,451.297,343.042,450.979,342.956,450.656z"/>
	<path fill="none" d="M267.327,449.405c-3.395-0.477-6.688-6.029-7.437-9.398c-1.701-7.646-1.455-15.449-2.463-23.145
		c-0.605-4.617-0.258-9.363-0.289-14.052c-0.051-7.863,0.381-15.736-0.414-23.584c-0.646-6.396-0.78-12.819-0.968-19.235
		c-0.112-3.948,0.634-4.362,4.474-2.896c-3.403,0.332-3.165,0.334-3.188,3.749c-0.026,3.979,1.268,7.716,1.824,11.571
		c0.395,2.756,2.178,5.36,2.676,8.293c2.062,12.118,2.127,24.296,1.499,36.53c-0.219,4.252,0.254,8.535,0.313,12.807
		c0.041,2.854,0.103,5.706-0.375,8.559c-0.603,3.611,0.342,6.767,3.325,9.145C266.768,448.116,267.453,448.401,267.327,449.405z"/>
	<path fill="none" d="M353.499,224.656c0.071-2.086,1.371-3.26,3.272-3.906c0.671-0.227,1.574-0.319,1.955,0.386
		c0.582,1.082-1.029,0.67-1.125,1.379c2.53,0.434,3.249-0.296,2.633-2.727c-0.14-0.548-0.442-1.198,0.199-1.463
		c0.8-0.331,0.792,0.546,1.016,0.985c0.645,1.267,1.277,2.541,1.869,3.833c0.672,1.468-0.845,5.899-2.755,6.827
		c-1.804,0.876-3.282,3.154-5.898,1.829c-0.579-0.294-1.534,0.188-2.321,0.254c-0.371,0.03-0.894,0.06-0.919-0.486
		c-0.02-0.453,0.433-0.771,0.797-0.715c3.385,0.521,2.421-2.279,2.854-3.868c0.154-0.57,0.021-1.177,0.552-1.661
		c0.619-0.564,1.19-1.354,0.226-1.953c-0.907-0.563-1.163,0.397-1.453,1.035c-0.098,0.214-0.203,0.425-0.306,0.638
		C353.896,224.914,353.697,224.784,353.499,224.656z"/>
	<path fill="none" d="M134.981,164.221c-0.078,0.463-0.436,0.642-0.818,0.769c-0.568,0.188-1.202,0.185-1.515-0.344
		c-0.769-1.3-1.707-2.023-3.313-1.586c-0.45,0.123-4.296-5.834-3.971-6.092c2.28-1.801,0.007-2.794-0.669-4.056
		c-0.252-0.466-0.905-0.926-0.379-1.437c0.54-0.525,0.957,0.201,1.419,0.437c2.705,1.374,3.684,4.168,4.934,6.552
		c0.952,1.814,2.159,3.253,3.509,4.671C134.495,163.468,135.012,163.637,134.981,164.221z"/>
	<path fill="none" d="M359.426,295.155c0.095,0.444-0.024,0.799-0.465,0.967c-0.432,0.166-0.776-0.003-1.017-0.376
		c-0.888-1.377-1.968-0.778-3.272-0.829c-2.035-0.078-4.492,1.59-6.379-0.724c-0.617-0.755-1.853-0.673-2.733-0.451
		c-1.833,0.463-2.955-0.487-4.106-1.601c-0.373-0.361-0.729-0.705-0.358-1.187c0.323-0.421,0.687-0.039,1.047,0.104
		c4.284,1.741,8.702,2.067,13.204,1.086C357.642,291.646,359.286,292.801,359.426,295.155z"/>
</g>
<path fill="#FFFFFF" d="M343.269,477.072v6.6h8.329C348.14,482.314,345.263,479.982,343.269,477.072z"/>
<path fill="#FFFFFF" d="M382.725,474.379c-1.458,2.807-3.663,5.27-6.513,7.025c-1.487,0.917-3.078,1.666-4.729,2.268l49.141-0.001
	v-9.292H382.725z"/>
</svg>
