<?xml version="1.0" encoding="utf-8"?>
<!-- Generator: Adobe Illustrator 16.0.0, SVG Export Plug-In . SVG Version: 6.00 Build 0)  -->
<!DOCTYPE svg PUBLIC "-//W3C//DTD SVG 1.1//EN" "http://www.w3.org/Graphics/SVG/1.1/DTD/svg11.dtd">
<svg version="1.1" id="Layer_1" xmlns="http://www.w3.org/2000/svg" xmlns:xlink="http://www.w3.org/1999/xlink" x="0px" y="0px"
	 width="500px" height="500px" viewBox="0 0 500 500" enable-background="new 0 0 500 500" xml:space="preserve">
<circle fill="#FFFFFF" cx="249.316" cy="249.316" r="249.316"/>
<g>
	<path fill="#FFFFFF" d="M337.525,95.553l-0.026-0.026c-1.073,0.709-2.018,0.509-2.857-0.41c-0.508-0.556-1.107-1.277-1.854-0.652
		c-0.936,0.781-0.01,1.431,0.423,2.086c0.303,0.458,0.758,0.922,0.177,1.631c-0.269-0.137-0.568-0.245-0.816-0.425
		c-2.193-1.589-2.185-1.591-2.938,1.046c-0.249,0.868-0.693,1.442-1.757,1.323c-1.047-0.118-1.986,0.01-1.127,1.438
		c0.309,0.514,0.105,0.77-0.39,0.843c-1.641,0.24-1.346,1.435-1.492,2.604c-0.571,4.53-3.171,7.663-7.14,9.802
		c0.773-1.526,1.206-3.094,1.594-4.723c0.571-2.418-0.056-3.651-2.56-3.469c-1.675,0.122-1.554-0.595-1.427-1.684
		c0.125-1.072,0.747-1.915,1.554-2.43c1.474-0.938,0.433-3.093,2.062-3.922c0.168-0.085-0.313-0.664-0.649-0.918
		c-0.406-0.307-1.18-0.313-0.996-1.163c0.699-0.325,1.994,0.17,2.071-0.886c0.135-1.851,0.514-3.797-0.368-5.566
		c-0.477-0.955-1.604-1.06-1.881-0.086c-0.442,1.565-1.561,2.568-2.584,3.477c-2.875,2.556-2.57,5.188-1.132,8.344
		c0.972,2.132,1.01,4.522-1.179,6.261c-0.997,0.792-1.07,1.636-0.129,2.473c0.855,0.761,1.329,1.685,0.448,2.543
		c-1.206,1.175-0.552,2.141,0.396,3.319c-1.339-0.341-2.455-0.342-3.195-0.87c-1.852-1.319-2.384-0.583-3.377,1.16
		c-1.273,2.232,0.76,2.482,1.492,3.48c0.457,0.623,1.924,1.251,1.483,1.695c-1.5,1.509-0.64,3.849-1.808,5.051
		c-1.191,1.228-1.386,2.092-0.776,3.494c0.181,0.413,0.076,1.018-0.457,1.277c-0.179,0.087-0.633,0.031-0.659-0.055
		c-0.541-1.692-1.994-4.042-1.363-4.984c1.979-2.95-0.061-3.003-1.85-3.398c-1.779-0.393-2.238-1.97-1.57-2.938
		c0.945-1.373,0.453-3.258,1.973-4.352c0.659-0.475,0.229-1.366-0.186-2.026c-1.359-2.162-0.576-4.256,0.802-5.833
		c1.854-2.122,2.09-4.886,3.479-7.148c0.246-0.4-0.147-0.713-0.406-1.051c-2.312-3.031-3.032-6.322-1.571-9.965
		c0.409-1.022,0.841-1.721,2.175-1.239c1.16,0.419,2.077-0.129,1.979-1.401c-0.185-2.355,1.099-3.593,3.003-4.435
		c0.889-0.393,2.039-1.117,1.452-1.888c-1.668-2.191-0.401-5.71-3.404-7.203c-0.464-0.231-0.769-0.648-0.561-1.219
		c0.171-0.464,0.578-0.511,1.013-0.515c0.322-0.002,0.897,0.015,0.933-0.101c0.522-1.803,1.22-3.617,1.292-5.452
		c0.021-0.527-1.752-1.356-2.811-1.63c-1.084-0.281-1.012,1.02-1.446,1.647c-0.894,1.283-1.718,2.451-1.522,4.234
		c0.115,1.055-0.689,2.061-1.954,2.562c-1.515,0.601-2.941,1.44-4.349,2.274c-0.92,0.545-1.476,1.535-1.125,2.535
		c1.041,2.978-0.345,5.409-1.604,7.847c-1.518,2.94-1.176,3.621,2.088,3.669c0.775,0.011,1.673-0.38,2.127,0.698
		c0.599,1.413-0.811,4.088-2.078,4.925c-2.092,1.378-4.885,1.982-5.584,5.083c-0.428,1.884-2.487,2.146-3.73,0.687
		c-0.338,0.183-0.404,0.487-0.361,0.831c0.065,0.534,0.658,1.183-0.017,1.569c-0.812,0.464-0.754-0.607-1.174-0.869
		c-1.265-0.785-1.729,0.252-2.304,1.044c-0.413,0.572,0.389,1.537-0.606,1.933c-1.235-1.884-1.011-3.346,0.909-4.071
		c1.697-0.641,2.797-1.959,4.162-2.969c0.76-0.562,1.345-1.486,0.546-2.322c-0.752-0.788-1.851-1.104-2.916-0.418
		c-0.406,0.261-0.694,0.7-1.067,1.022c-0.386,0.333-1.125,0.658-1.133-0.027c-0.023-2.835-1.943-3.642-4.262-4.02
		c0.477-1.013,2.396-2.35,0.695-2.504c-2.84-0.257-2.231-1.64-2.139-3.286c0.034-0.588,0.061-1.365-0.91-1.685
		c-1.008,1.295-0.428,2.803-0.526,4.199c-0.052,0.703,0.368,1.499-0.439,2.034c-0.634,0.42-1.965,0.316-1.719,1.39
		c0.258,1.122,1.472,0.064,2.151,0.476c0.193,0.116,0.344,0.304,0.937,0.846c-3.323-0.116-2.065,1.541-1.19,3.193
		c-2.447-1.105-3.258,0.168-3.906,1.751c-0.438,1.068-1.285,1.415-2.391,1.322c-1.063-0.088-1.33-0.776-1.41-1.687
		c-0.125-1.435-1.143-2.143-2.33-2.614c-0.836-0.332-1.734-0.499-2.596-0.771c-0.421-0.133-0.74-0.432-0.623-0.912
		c0.041-0.161,0.355-0.38,0.524-0.362c0.709,0.073,1.653,0.511,1.694-0.673c0.046-1.265-0.353-2.597-1.621-3.095
		c-1.211-0.476-1.86-1.201-2.239-2.381c-0.258-0.807-0.931-1.363-1.644-1.79c-1.069-0.643-2.282-0.898-3.127,0.198
		c-0.809,1.05-1.422,2.299,0.129,3.412c1.291,0.925,0.843,1.924,0.028,2.949c-1.665,2.098-1.608,4.609-1.284,7.026
		c0.192,1.445,1.143,2.678,2.612,0.848c0.707-0.88,1.161-0.537,1.411,0.155c0.658,1.814-3.178,1.358-1.919,3.624
		c0.075,0.136-0.521,0.307-0.836,0.167c-0.374-0.166-0.751-0.352-1.081-0.591c-2.115-1.527-3.479-3.79-5.045-5.762
		c-0.944-1.188-1.729-1.601-2.934-1.52c-1.259,0.085-1.804,1.011-1.849,2.232c-0.048,1.305,0.055,2.655,1.654,2.854
		c1.43,0.177,1.51,0.525,0.69,1.606c-1.375,1.816,0.893,3.43,0.433,5.272c-0.08,0.321,0.784,0.267,1.288,0.21
		c2.188-0.246,2.886,0.656,2.4,2.753c-0.418,1.807-2.072,3.417-0.634,5.557c-1.293,0.033-2.237-0.266-2.633-1.113
		c-1.007-2.159-3.171-3.031-4.771-4.515c-0.611-0.567-1.219-1.003-1.494-1.845c-0.998-3.048-3.897-3.163-6.32-3.982
		c-0.452-0.153-0.946,0.252-0.861,0.635c0.609,2.749-1.491,2.072-2.974,2.346c1.264-2.104,0.937-4.665,2.33-6.694
		c0.88-1.281,0.603-5.676-0.462-6.23c-1.514-0.788-1.492-1.717-0.887-3.02c0.31-0.666,0.604-1.399,0.647-2.118
		c0.133-2.196-0.144-4.287-2.169-5.688c-1.871-1.293-2.922,0.286-4.337,1.056c-1.796,0.978-3.79,0.907-5.445-0.528
		c-1.253-1.086-3.054-2.152-0.868-4.046c0.203-0.176,0.356-0.718,0.238-0.911c-1.605-2.643-2.172-5.78-3.971-8.315
		c-0.261-0.369-0.784-0.629-1.239-0.771c-2.964-0.924-5.404-2.737-7.732-4.671c-1.245-1.034-2.048-0.608-2.951,0.305
		c-0.964,0.975-0.886,1.687,0.237,2.615c1.994,1.648,1.97,4.107,0.101,5.807c-0.62,0.563-1.379,1.055-1.229,1.997
		c0.467,2.955,0.138,6.18,2.797,8.425c0.357,0.302,0.842,0.895,0.756,1.214c-0.842,3.12,0.792,5.204,2.467,7.59
		c0.945,1.347,1.188,3.038,3.389,2.967c-0.867,1.5-1.776,1.419-2.825,0.706c-1.672-1.138-2.815-0.519-3.917,0.995
		c-1.506,2.069-0.658,4.283-0.17,6.192c0.602,2.346,0.314,5.726,4.176,6.037c0.699,0.056,0.733,0.581,0.302,1.275
		c-1.257,2.024-1.657,2.051-2.917-0.003c-0.383-0.625-0.855-1.194-1.305-1.775c-0.346-0.447-0.803-0.638-1.258-0.213
		c-0.48,0.448-0.224,0.927,0.164,1.276c1.508,1.36,1.529,3.898,4.292,4.469c-1.331,0.615-2.44-0.085-2.996,0.972
		c-0.512,0.975-1.222,1.382-2.184,0.666c-0.932-0.693-0.479-1.397,0.099-2.096c0.452-0.546,0.654-1.228,0.092-1.787
		c-0.643-0.639-1.206-0.06-1.732,0.309c-0.498,0.35-1.157,0.72-1.573,0.248c-1.964-2.23-3.01-1.462-3.718,0.976
		c-0.064,0.221-0.539,0.334-0.832,0.477c-1.863,0.91-2.809,2.5-3.13,4.456c-0.167,1.02-0.628,1.862-1.136,2.707
		c-0.249,0.415-0.628,1.051-1.115,0.623c-1.292-1.135-3.749-1.237-3.43-3.869c0.184-1.519-0.979-3.23,0.758-4.526
		c0.329-0.246,0.228-0.805-0.082-1.124c-1.199-1.232-0.364-2.143,0.539-2.891c1.887-1.563,0.435-2.961-0.108-4.408
		c-0.632-1.682-1.86-0.966-3.102-0.611c1.251-1.378,0.294-3.538,2.146-4.562c2.808-1.554,2.749-3.051-0.165-4.747
		c-1.042-0.606-1.066-1.12-0.215-1.852c0.604-0.518,1.542-0.968,0.89-1.965c-0.399-0.611-1.156-0.546-1.82-0.381
		c-1.011,0.25-1.727,0.908-1.437,1.944c0.537,1.933-0.272,2.726-2.047,3.108c-1.078,0.232-1.818,0.967-1.334,2.178
		c0.467,1.171,1.379,0.894,2.279,0.492c0.18-0.081,0.446,0.03,0.818,0.068c-0.547,1.87,0.012,3.974-2.074,5.249
		c-0.568,0.348-0.982,1.333,0.219,1.965c1.55,0.815,0.268,2.016-0.077,2.678c-0.558,1.07-1.174-0.157-1.726-0.457
		c-1.153-0.626-2.326-1.242-3.389-2.004c-1.25-0.896-1.579-0.435-1.572,0.848c0.003,0.45,0.309,1.024-0.404,1.224
		c-0.933-0.146-0.697-1.557-1.816-1.565c-0.3,0.979-0.961,2.016-0.842,2.953c0.474,3.736-2.029,6.068-3.843,8.718
		c-0.479,0.699-1.491,0.981-2.239,0.67c-0.83-0.345-0.164-1.151-0.053-1.734c0.137-0.721-0.025-1.27-0.552-1.781
		c-0.865-0.84-0.514-1.481,0.452-1.86c1.098-0.431,2.175-0.942,1.184-2.269c-0.761-1.019-1.859-1.07-2.689,0.055
		c-0.539,0.73-0.976,0.826-1.495,0.051c-0.521-0.775-0.185-1.18,0.598-1.46c0.616-0.22,1.239-0.471,1.784-0.825
		c0.99-0.644,1.034-1.622,0.69-2.634c-0.226-0.665-0.702-1.186-1.431-1.189c-1.26-0.006-0.937,1.055-1.147,1.798
		c-0.315,1.115-1.271,1.8-2.227,2.175c-1.216,0.478-2.089,0.944-1.759,2.441c0.09,0.408,0.077,0.874-0.446,0.982
		c-0.495,0.104-0.776-0.262-0.874-0.685c-0.458-1.992-1.971-3.651-1.804-5.847c0.049-0.634,0.104-1.365-0.633-1.736
		c-0.409-0.207-0.813-0.075-1.146,0.194c-0.692,0.558-0.648,1.256-0.366,2.013c0.432,1.158,1.039,2.277,1.078,3.62
		c-1.493-0.07-1.672-1.166-2.131-1.998c-0.203-0.367-0.477-0.708-0.943-0.691c-0.373,0.015-0.724,0.409-0.59,0.635
		c0.994,1.679-0.646,4.25,1.914,5.418c1.061,0.484,0.633,1.26-0.139,1.646c-1.721,0.861-1.217,1.599-0.02,2.46
		c0.425,0.306,1.002,0.633,0.793,1.356c-2.822,0.381-3.64,1.386-3.471,4.393c0.056,0.984-0.033,1.85-1.063,2.242
		c-0.598,0.227-1.485,0.597-1.815-0.066c-0.531-1.07-1.438-2.277-1.064-3.434c0.908-2.812,0.391-5.57,0.15-8.355
		c-0.062-0.733-0.325-1.467,0.248-2.12c0.621-0.707,0.971-1.513-0.107-2.008c-1.107-0.509-2.132-0.21-2.619,1.025
		c-0.225,0.568,0.039,1.404-0.956,1.451c-1.103,0.052-1.41,0.715-1.237,1.683c0.198,1.102-0.899,1.747-0.927,2.752
		c-0.021,0.767-1.931,0.782-0.735,2.084c0.824,0.896,1.64,0.729,2.796,0.05c-1.022,2.522-3.374,1.026-4.778,2.917
		c0.231-2.428-0.689-4.126,0.127-5.967c0.548-1.233-0.402-1.995-1.474-2.424c-0.516-0.207-1.229-0.064-1.638-0.369
		c-1.641-1.227-2.454-1.318-1.86,1.111c0.228,0.933-0.424,1.456-1.107,1.684c-1.035,0.347-0.866-0.679-1.088-1.212
		c-0.534-1.288-1.55-1.652-2.812-1.407c-0.886,0.172-1.753,0.456-2.618,0.721c-2.401,0.733-3.412,2.942-2.418,5.234
		c0.3,0.69,1.115,1.283,0.426,2.239c-1.308-0.534-1.757-1.938-2.844-2.661c-1.329-0.885-2.571,0.639-3.856,0.255
		c-0.04-0.583,0.23-0.777,0.547-0.877c0.912-0.287,1.785-0.639,1.622-1.816c-0.15-1.087-0.901-1.731-1.906-2.056
		c-0.546-0.176-1.137-0.211-1.684-0.386c-1.045-0.333-1.179-1.278-1.352-2.173c-0.102-0.528-0.013-0.973,0.572-1.19
		c0.559-0.208,1.877,0.259,1.334-0.99c-0.365-0.839-1.516-1.055-2.389-0.486c-0.806,0.524-1.386,0.857-2.426,0.309
		c-1.884-0.991-3.54,0.13-3.247,2.252c0.284,2.057,1.43,4.06-0.249,6.032c-0.122,0.144,0.043,0.675,0.225,0.909
		c1.663,2.136,0.615,5.021,2.039,7.245c0.449,0.701-0.156,1.395-0.691,1.95c-1.148,1.192-0.982,2.335,0.138,3.45
		c0.932,0.929,1.827,1.893,2.767,2.813c1.215,1.192,0.976,2.621,0.434,3.909c-0.5,1.187-1.999,1.924-2.935,1.895
		c-0.99-0.032-1.803-1.685-3.254-0.962c-0.171-1.2,2.07-2.408,0.09-2.949c-1.071-0.293-2.497-0.602-3.824-0.262
		c-1.813,0.464-3.003,1.121-2.517,3.39c0.264,1.236-0.031,2.598-0.131,3.898c-0.022,0.283-0.225,0.652-0.458,0.796
		c-0.411,0.253-0.83-0.006-1.046-0.364c-0.337-0.557-0.505-1.224-0.877-1.75c-0.676-0.955-1.714-1.241-2.828-1.16
		c-0.645,0.047-1.234,0.562-1.054,1.136c0.659,2.097-0.712,3.631-1.331,5.358c-0.621,1.732-0.939,3.376-0.553,5.279
		c0.272,1.339,0.99,2.853-0.051,4.292c-1.329,1.836-0.672,3.407,0.819,4.796c0.658,0.613,1.415,1.174,1.29,2.646
		c-0.537-0.508-0.745-0.641-0.864-0.831c-0.349-0.557-0.69-1.381-1.445-0.695c-0.562,0.511,0.122,1.057,0.49,1.437
		c0.388,0.401,0.918,0.659,1.361,1.011c0.407,0.323,1.442,0.277,1.105,1.036c-0.589,1.324,0.247,1.567,1.108,1.933
		c0.378,0.161,0.842,0.401,0.698,0.868c-0.216,0.699-0.748,0.392-1.21,0.225c-1.713-0.619-2.9-0.212-3.33,1.703
		c-0.09,0.399-0.259,0.874-0.783,0.703c-0.224-0.073-0.47-0.488-0.477-0.754c-0.065-2.76-1.773-4.474-3.722-6.083
		c-1.057-0.872-2.079-1.701-3.538-1.038c-1.422,0.646-2.104,1.832-2.139,3.347c-0.05,2.22-0.152,4.439,0.277,6.651
		c0.231,1.197-0.213,3.155,0.404,3.533c2.255,1.377,0.875,2.932,0.733,4.538c-0.851-1.991-2.582-2.152-4.131-1.769
		c-1.853,0.459-1.915,2.626-2.841,4.161c-0.533-0.492-0.885-1.02-1.373-1.231c-1.875-0.811-3.654-2.433-5.902-1.057
		c-2.021,1.237-3.646,0.815-4.713-1.419c-0.384-0.802-0.616-1.717-0.719-2.604c-0.219-1.906-1.031-2.679-3.344-1.325
		c0.968-1.392,1.625-2.234,1.475-3.404c-0.14-1.078,0.554-2.417-0.859-3.08c-1.335-0.626-2.569-0.326-3.615,0.72
		c-0.116,0.117-0.239,0.229-0.373,0.324c-0.758,0.537-1.289,0.607-1.593-0.517c-0.507-1.878-1.895-1.62-3.135-0.969
		c-1.102,0.579-1.791,1.004-1.765-0.796c0.013-0.855-0.594-1.472-1.47-1.233c-2.622,0.715-4.97,2.677-3.077,5.772
		c0.902,1.475,0.906,2.818,0.061,4.098c-1.098,1.66-0.649,2.875,0.594,4.152c0.666,0.684,1.814,1.161,1.646,2.448
		c-0.98,0.215-1.022-0.553-1.392-0.928c-1.479-1.501-2.99-3.121-5.039-3.643c-0.956-0.243-1.381-0.246-1.475-1.3
		c-0.107-1.212-0.824-1.976-2.168-1.798c-2.521,0.333-3.949,2.735-3.118,5.173c0.157,0.46,0.404,1.001,0.293,1.421
		c-0.533,2.016,0.613,3.14,2.099,4c1.39,0.805,2.081,1.795,1.625,3.437c-0.212,0.763-0.057,1.506,0.655,1.971
		c0.931,0.607,1.514-0.093,2.137-0.635c1.259-1.095,2.35-2.168,3.492,0.33c0.383,0.837,2.159,0.971,0.91,2.539
		c-0.323,0.405,0.475,0.692,0.845,0.995c1.712,1.402,2.69-0.73,4.421-1.018c-0.956,1.855-0.41,3.109,0.77,4.321
		c0.652,0.669,1.234,1.536,1.036,2.664c-0.126,0.712,0.247,1.338,0.897,1.619c1.441,0.622,1.988,3.087,4.288,2.029
		c0.397-0.183,0.505,0.507,0.447,0.933c-0.054,0.396-0.272,0.976,0.172,1.114c2.987,0.923,4.361,4.417,7.799,4.723
		c1.501,0.134,2.325,1.446,2.493,3.003c0.16,1.502,0.725,2.576,2.503,2.209c0.669-0.138,1.056,0.07,0.834,0.71
		c-0.576,1.667,0.31,3.052,0.72,4.535c0.129,0.471,0.328,1.012-0.178,1.352c-0.457,0.308-0.942,0.087-1.39-0.164
		c-0.952-0.535-1.57-1.336-1.312-2.423c0.65-2.743-0.345-3.875-3.151-3.687c-0.559,0.038-2.035,0.104-1.436-1.213
		c0.452-0.995,0.072-1.404-0.585-1.787c-0.817-0.477-1.593-0.182-2.269,0.394c-0.569,0.485-0.799,1.057-0.311,1.727
		c1.595,2.188,1.762,4.319-0.107,6.475c-0.477,0.55-0.8,1.332-0.327,2.066c0.662,1.029,1.465-0.134,2.327,0.07
		c-0.161,0.812-0.965,1.708,0.1,2.417c0.49,0.326,1.517,0.37,0.881,1.323c-0.413,0.62-1.012,0.12-1.553-0.034
		c-1.609-0.457-3.03-0.794-2.207,1.88c0.219,0.71-0.434,2.346-0.99,2.508c-1.463,0.426-1.361-1.984-2.949-2.113
		c-0.634-0.051-0.112-0.953,0.199-1.417c0.449-0.669,1.248-1.423,0.267-2.109c-1.164-0.813-1.62-2.042-2.32-3.141
		c-0.309-0.485-0.844-1.294-1.243-1.001c-2.053,1.504-4.629-0.062-6.725,1.333c-0.938,0.625-2.339,0.709-2.205,2.216
		c0.135,1.519,1.302,1.708,2.564,1.608c0.43-0.034,0.864,0.043,1.002,0.516c0.151,0.522-0.268,0.643-0.646,0.855
		c-0.578,0.325-1.533,4.697-1.211,5.261c0.039,0.068,0.123,0.11,0.179,0.17c0.987,1.056,0.064,3.387,2.377,3.56
		c-0.499,0.968,0.484,2.09-0.392,3.063c-1.009,1.122-1.803,0.182-2.612-0.193c-1-0.464-2.074-0.692-2.635,0.334
		c-0.646,1.182-1.896,2.296-1.513,3.767c0.273,1.05,1.182,0.571,1.779,0.081c0.889-0.729,1.787-1,2.853-0.45
		c-0.175,1.005-1.124,1.096-1.492,1.73c-0.352,0.607-0.616,1.305-0.088,1.826c0.688,0.677,0.881-0.217,1.269-0.559
		c0.932-0.824,1.499,0.021,2.04,0.576c0.652,0.67,0.27,1.156-0.405,1.559c-0.424,0.254-1.344,0.197-0.909,1.104
		c0.221,0.46,0.809,0.825,1.233,0.66c2.795-1.084,2.582,1.305,3.358,2.583c-0.578,0.591-1.198-0.011-1.509,0.228
		c-1.421,1.084-2.424-0.57-3.645-0.467c-3.008,0.258-1.303-1.953-1.572-3.05c-0.35-1.425-1.515-1.228-2.358-1.245
		c-1.338-0.027-0.664,0.961-0.501,1.587c0.416,1.591,0.031,2.888-1.203,4.005c-0.548,0.495-0.995,0.574-1.465,0.057
		c-0.521-0.572-0.236-1.055,0.311-1.432c0.271-0.188,0.57-0.332,0.842-0.518c0.557-0.385,1.188-0.816,0.64-1.573
		c-0.46-0.636-1.183-0.577-1.776-0.179c-0.819,0.546-1.535,1.25-2.369,1.77c-1.277,0.795-1.375,1.571-0.104,2.41
		c0.892,0.59,1.122,1.219,0.669,2.283c-0.456,1.07,0.346,1.956,1.13,2.495c0.844,0.58,1.186-0.285,1.659-0.892
		c1.041-1.334,1.955,0.312,1.865,0.572c-0.757,2.189,0.367,3.57,1.674,5.047c0.497,0.562,0.549,1.516,0.801,2.293
		c0.18,0.553,0.382,0.877,1.099,1.084c1.992,0.58,4.01,1.248,4.67,3.666c0.255,0.935,1.128,1.231,2.003,0.854
		c0.771-0.334,1.378-0.064,2.108,0.083c2.149,0.437,4.306,1.293,6.54,0.389c0.635-0.257,1.455-0.097,1.392,0.48
		c-0.261,2.364,1.362,2.739,3.008,3.346c0.81,0.298,1.404,1.054,1.846,1.91c1.047,2.034,4.337,1.899,4.677,4.715
		c0.008,0.065,0.767,0.032,1.174,0.06c0.443,0.028,0.936,0.229,0.904,0.666c-0.152,2.158,1.697,2.862,2.923,3.906
		c0.737,0.629,0.813,0.994,0.513,1.807c-1.042,2.812-0.023,4.92,1.73,7.316c2.213,3.021,5.629,3.235,8.405,4.857
		c1.796,1.049,3.421,1.04,4.421-1.206c0.246-0.554,0.847-0.78,1.478-0.661c0.78,0.146,0.672,0.761,0.717,1.35
		c0.156,2.027,1.075,2.148,2.578,1.041c0.849-0.625,1.938-0.921,2.466-1.968c0.229-0.45,0.705-0.967,1.162-0.657
		c1.482,1,3.438,0.313,4.861,1.504c0.854,0.711,1.819,1.268,2.666-0.138c0.299-0.495,0.881-0.42,1.35-0.245
		c0.794,0.295,0.241,0.741,0.116,1.182c-0.339,1.192,0.202,1.646,1.262,1.115c0.689-0.345,1.157-0.363,1.798,0.034
		c1.132,0.701,1.581,0.019,1.938-1.003c0.349-0.999-0.203-1.906-0.166-3.285c1.726,1.07,3.406-1.078,4.988,0.32
		c1.379,1.221,2.494,1.919,4.304,0.568c0.706-0.526,1.9,0.463,2.392,1.326c1.067,1.875,0.199,3.75-0.428,5.512
		c-0.189,0.533-0.992,0.992-0.582,1.65c0.695,1.11,2.002,0.283,2.972,0.729c0.524,0.24,1.358,0.051,1.212-0.725
		c-0.292-1.541,0.385-0.925,1.143-0.703c1.797,0.521,2.781-0.92,3.639-1.981c0.749-0.929,0.033-2.216-0.816-2.825
		c-2.012-1.443-0.509-3.048,0.121-3.945c0.785-1.117,2.081-0.08,2.888,0.787c1.025,1.102,1.849,1.203,2.704-0.207
		c0.275-0.455,0.882-0.713,1.342-1.057c2.718-2.031,6.106-2.695,9.176-3.589c2.482-0.722,5.282,1.258,7.479,3.13
		c1.195,1.02,1.618,1.792-0.396,2.046c-3.289,0.414-5.581,1.968-6.542,5.267c-0.088,0.301-0.593,0.653-0.926,0.678
		c-0.856,0.062-2.007-0.953-2.358,0.703c-0.377,1.775,1.585,0.652,1.953,1.531c0.061,0.146,0.129,0.287,0.201,0.447
		c-0.578,0.727-1.311,0.574-2.014,0.307c-1.585-0.602-2.975-1.072-2.519,1.615c0.121,0.711-0.431,1.394-1.1,1.825
		c-0.721,0.466-2.036,0.865-1.187,1.935c0.957,1.207,1.188,3.263,3.3,3.334c0.726,0.025,1.392-0.234,1.469-1.018
		c0.172-1.721,1.425-1.732,2.696-2.25c2.225-0.902,4.063-0.533,5.991,0.52c0.567,0.311,1.116,0.078,1.617-0.267
		c1.897-1.308,4.362-1.456,6.146-3.024c0.489-0.43,1.143-0.723,1.828-0.327c1.131,0.651,1.828,0.143,2.445-0.812
		c1.095-1.695,2.184-1.238,2.98,0.211c0.923,1.676,2.279,3.019,3.316,4.574c5.706,8.561,10.873,17.434,15.498,26.637
		c3.884,7.728,8.448,15.066,13.886,21.824c2.11,2.622,3.536,5.414,3.733,8.92c0.287,5.096,1.385,10.084,2.525,15.07
		c0.994,4.35,3.04,8.348,3.743,12.779c2.208,13.914,5.192,27.663,9.213,41.17c0.398,1.339,0.246,2.283-0.313,3.457
		c-0.436,0.912-1.427,1.922-0.846,2.951c0.752,1.33,1.898-0.499,3.009,0.11c-0.565,3.185-1.166,6.312-3.644,8.787
		c-0.699,0.699-0.991,1.889-1.27,2.909c-0.688,2.519,0.222,3.538,2.738,2.913c2.438-0.604,4.892-0.82,7.355-0.645
		c11.589,0.83,23.215-0.003,34.805,0.805c1.465,0.103,3.342-0.414,2.557-2.265c-1.403-3.303-2.321-7.089-6.018-8.91
		c-1.139-0.561-0.986-1.594-0.818-2.589c0.437-2.597,0.793-5.211,1.352-7.78c1.044-4.825,0.963-9.82,2.396-14.591
		c1.442-4.809,2.924-9.627,3.97-14.529c2.424-11.364,3.354-22.938,4.521-34.481c0.461-4.57,1.092-9.219,3.037-13.441
		c2.99-6.496,4.74-13.312,5.986-20.305c0.417-2.338,0.738-4.688,1.701-6.932c2.027-4.721,5.906-7.682,9.857-10.482
		c4.43-3.139,8.307-6.699,10.979-11.468c0.229-0.411,0.701-1.192,0.96-0.743c0.652,1.133,2.861,1.192,1.859,3.598
		c-1.475,3.537-0.113,7.039,2.449,8.414c1.529,0.82,3.167,1.17,4.308-0.168c1.315-1.545,0.396-3.871,1.313-5.668
		c-3.454-0.61-1.961-2.647-1.344-4.492c0.104-0.309-0.234-0.768-0.377-1.152c-0.521-1.402-1.047-2.807-1.57-4.21
		c1.527,1.54,2.841,3.228,3.735,5.11c0.649,1.371,1.404,1.531,2.111,0.503c1.603-2.333,3.997-1.835,5.935-1.438
		c2.011,0.412,3.121-0.435,3.462-1.789c0.679-2.693,3.815-3.408,4.45-6.25c0.201-0.897,1.75-1.919,2.336-3.348
		c0.452-1.1,1.944-1.799,3.036-2.593c0.354-0.259,0.752,0.112,1.068,0.397c2.297,2.051,2.675,5.465,0.895,8.196
		c-1.167,1.791-0.646,3.592,1.387,3.976c1.2,0.226,2.571,0.289,3.724-0.711c1.147-0.994,2.602-2.664,3.682-2.496
		c2.435,0.377,5.292,0.246,7.232,1.812c1.896,1.531,3.976,0.21,4.357-0.327c1.016-1.425,3.656,0.147,3.78-2.33
		c0.007-0.147,0.677,0.499,1.021,0.8c0.713,0.623,1.458,1.078,2.452,0.602c1.788-0.858,2.465-2.676,1.749-4.567
		c-0.843-2.229-2.345-1.29-3.77-0.698c0.174-2.761-1.589-6.065-3.335-5.89c-1.918,0.194-3.738-0.669-5.639-0.164
		c-1.343,0.357-2.137-0.382-2.732-1.542c-0.589-1.142-0.397-2.057,0.514-2.873c0.834-0.746,1.351-1.638,1.445-2.771
		c0.04-0.485,0.088-1.252,0.576-1.26c2.867-0.043,0.893-1.597,0.853-2.547c-0.034-0.813-0.978-1.338-0.629-2.679
		c1.436,0.979,2.781,2.513,4.604,1.204c0.013-0.008,0.35,0.322,0.423,0.535c0.396,1.127,1.484,1.049,2.303,1.504
		c1.966,1.095,5.132,0.79,5.344,4.188c0.038,0.625,0.607,0.955,1.27,0.926c0.636-0.024,1.166-0.332,1.334-0.926
		c1.029-3.627,3.976-4.705,7.118-5.893c1.715-0.648,3.414,0.797,4.255,0.157c2.042-1.556,4.292-0.724,6.302-1.345
		c3.139-0.97,6.843-0.485,9.291-3.371c0.368-0.437,0.649-0.203,0.979,0.142c1.395,1.457,1.805,0.158,1.69-0.832
		c-0.2-1.735,0.792-2.192,2.038-2.872c3.461-1.891,3.909-3.547,2.088-6.47c-0.763-1.224-1.748-1.898-3.055-1.005
		c-2.086,1.432-4.689,2.158-6.31,4.451c0.204-1.742-0.662-3.332,0.966-5.213c1.084-1.254,1.614-3.01,3.405-3.688
		c1.354-0.515,1.929-1.491,2.294-2.92c0.506-1.978,1.523-4.044,3.056-5.203c1.443-1.093,1.709-2.242,1.892-3.698
		c0.068-0.551,0.387-1.21-0.312-1.542c-0.692-0.33-0.826,0.692-1.475,0.731c-0.082-0.797-0.197-1.57-0.636-2.291
		c-0.313-0.514-0.204-1.483,0.392-1.411c1.569,0.19,2.862-2.722,4.562-0.384c0.096,0.131,0.474,0.109,0.705,0.074
		c1.875-0.287,3.631-1.36,5.674-0.604c0.548,0.203,0.698-0.626,0.374-1.061c-1.067-1.43,0.104-1.379,0.979-1.608
		c1.391-0.364,2.584-0.274,3.996,0.389c2.115,0.994,0.541-2.648,2.462-2.343c0.153,0.024,0.323-0.05,0.483-0.089
		c0.948-0.234,1.417-0.868,1.292-1.812c-0.196-1.491,0.603-2.292,1.79-2.914c1.004-0.526,1.901-1.241,1.44-2.519
		c-0.796-2.204-0.335-2.883,2.099-2.339c1.523,0.341,4.258,0.617,4.598-0.04c1.271-2.445,3.965-3.712,4.827-6.382
		c0.409-1.267,1.033-2.351,2.671-2.538c0.975-0.111,0.914-1.11,0.557-1.798c-0.639-1.234-1.39-2.445,0.479-3.212
		c1.455-0.597,1.053-2.94,2.603-3.049c2.312-0.162,2.569-1.28,1.829-3.095c1.058-0.047,1.872-0.02,2.667-0.134
		c1.017-0.146,1.204-1.754,1.955-1.702c2.879,0.198,2.318-1.188,1.549-2.842c-0.092-0.199-0.01-0.486,0.015-0.731
		c0.079-0.865,0.53-1.994-0.966-1.983c-1.229,0.008-2.024,0.67-1.896,2.042c0.043,0.455,0.463,1.053-0.201,1.263
		c-0.793,0.25-1.463-0.301-1.946-0.83c-0.511-0.557-1.648-0.613-1.499-1.717c0.319-2.351,1.475-3.334,3.919-3.201
		c-0.771-1.692-2.42-1.275-3.619-1.718c-0.617-0.228-1.348-0.265-1.857,0.279c-0.652,0.695,0.028,1.172,0.37,1.703
		c0.315,0.492,0.584,1.01,0.043,1.741c-2.046-1.507-3.027-0.973-2.398,2.152c-1.474-1.46-2.444-2.556-3.68-3.368
		c-0.94-0.619-1.706-0.351-2.505,0.17c-0.521,0.339-0.839,0.812-0.744,1.451c0.163,1.116,1.171,0.598,1.754,0.899
		c1.176,0.607,2.281,1.348,3.859,2.301c-4.174-0.025-6.83,1.359-7.467,3.564c-0.732,2.535-0.85,2.643-2.729,0.626
		c-1.242-1.331-2.482-0.955-3.835-0.652c-0.515,0.115-0.888,0.468-0.925,1.024c-0.036,0.557,0.289,0.962,0.784,1.134
		c0.858,0.299,1.734,0.558,2.396,1.219c0.361,0.362,1.316,0.414,0.93,1.185c-0.34,0.678-1.169,0.751-1.729,0.322
		c-1.251-0.958-2.062-0.553-2.833,0.603c-0.206,0.309-0.661,0.641-1,0.64c-1.966-0.006-2.934,1.015-3.515,2.813
		c-0.275,0.85-1.414,2.067-2.099,0.934c-0.544-0.9-1.746-0.435-1.946-1.51c1.528-1.058,3.048-2.107,2.687-4.313
		c-0.042-0.255,0.312-0.823,0.364-0.809c3.18,0.866,1.838-0.743,1.253-2.136c-0.354-0.842,0.567-1.002,1.112-1.335
		c0.991-0.608,0.606-1.508,0.197-2.164c-0.592-0.947-1.131-0.152-1.526,0.307c-1.479,1.713-3.68,2.704-4.788,4.778
		c-0.482,0.903-1.192,1.151-2.041,0.623c-0.819-0.511-2.311-0.364-2.105-1.968c0.092-0.715,0.976-1.647-0.448-1.946
		c-1.248-0.263-2.001,0.23-2.275,1.587c-0.175,0.867-3.777,2.357-4.605,2.063c-0.35-0.125-0.687-0.464-0.468-0.705
		c1.009-1.112,0.339-1.724-0.432-2.597c-0.61-0.692-0.477-1.803,0.271-2.483c1.472-1.34,1.676-2.429-0.389-3.295
		c-0.409-0.172-0.667-0.38-0.699-0.881c-0.093-1.399-1.199-1.155-2.04-1.094c-0.998,0.073-1.486,0.733-1.165,1.729
		c0.285,0.888-0.138,1.218-0.874,1.402c-0.699,0.174-1.309,0.075-1.723-0.594c-0.393-0.632-0.058-1.069,0.366-1.517
		c1.34-1.423,2.011-3.364,3.678-4.573c0.545-0.396,1.42-1.382,0.578-2.08c-0.886-0.735-1.412,0.354-1.884,0.978
		c-0.597,0.787-1.111,1.634-1.704,2.423c-0.278,0.371-0.704,0.446-1.069,0.104c-0.314-0.293-0.561-0.752-0.097-1.033
		c2.303-1.39,0.479-2.044-0.53-2.64c-0.765-0.451-1.674-0.766-1.032-1.765c0.697-1.087,1.215,0.085,1.759,0.393
		c0.743,0.42,1.488,0.761,2.331,0.369c0.74-0.344,0.675-1.011,0.646-1.7c-0.029-0.721-0.695-2.006,0.561-1.941
		c1.029,0.054,2.794-1.114,3.205,1.091c0.205,1.098,1.189,1.535,1.986,2.09c0.921,0.642,1.673,0.299,1.815-0.733
		c0.243-1.742-0.204-3.809,2.527-3.974c0.145-0.009,0.297-0.696,0.357-1.082c0.378-2.376,1.399-2.939,3.433-1.585
		c1.298,0.865,1.877,0.525,2.462-0.685c0.449-0.93,0.63-2.239,1.937-2.341c2.861-0.224,2.071-2.583,1.925-3.896
		c-0.204-1.825-1.934-1.248-3.204-0.912c-0.92,0.244-2.082,0.974-2.346-0.605c-0.289-1.737-1.248-4.224,0.773-4.977
		c2.098-0.781,3.243-2.042,4.259-3.719c0.865-1.426,1.452-2.915,1.09-4.682c-0.362-1.762-2.109-1.029-3.188-1.737
		c0.973-0.665,2.016-0.91,2.396-1.945c0.365-0.994,0.581-2.2-0.626-2.492c-1.374-0.332-3.062-0.551-4,1.029
		c-1.067,1.796-2.721,2.781-4.482,3.706c-1.177,0.617-2.065,1.245-0.873,2.837c1.176,1.571,0.268,3.888-1.639,4.953
		c-0.188-0.75,1.105-1.457,0.384-1.964c-0.959-0.674-1.809,0.822-2.941,0.604c-0.513-0.099-1.021,0.596-0.711,1.01
		c1.231,1.632,0.11,2.048-1.075,2.805c-1.145,0.73-2.171,1.775-2.976,2.88c-1.383,1.899-1.797,1.923-3.096-0.1
		c-0.454-0.707-0.317-1.403-0.387-2.126c-0.07-0.764-0.593-1.226-1.358-1.089c-0.749,0.133-0.831,0.731-0.539,1.341
		c0.362,0.755,0.222,1.271-0.602,1.527c-0.997,0.311-1.241,1.26-1.716,2.007c-1.12,1.768-1.47,4.35-4.466,4.115
		c-0.219-0.017-0.578,0.363-0.695,0.635c-1.292,2.988-3.223,5.432-5.912,7.298c-0.584,0.405-1.276,1.445-1.727,0.584
		c-0.483-0.924-2.271-1.834-1-3.122c1.15-1.165,1.34-3.903,4.115-2.873c0.26,0.097,0.831-0.442,1.164-0.778
		c1.807-1.827,1.199-5.548-1.255-7.74c1.062-1.265,1.946,1.166,2.956,0.203c0.299-0.826-0.821-1.065-0.64-1.798
		c3.5-0.747,4.997-2.936,4.595-6.658c-0.103-0.954-0.475-2.063,1.297-1.882c1.059,0.108,0.957-0.911,1.032-1.621
		c0.156-1.439-0.688-2.753-0.678-4.108c0.013-1.794-0.746-2.298-2.611-1.913c0.63-1.092,0.397-2.16,1.168-2.861
		c0.918,0.399,1.135,1.648,2.513,1.416c-1.048-1.922,1.28-3.434,0.353-5.31c0.753-0.28,1.359,0.684,1.908-0.021
		c0.373-1.007-1.712-0.986-0.892-1.625c1.899-1.477,0.905-4.058,2.637-5.667c1.123-1.045,1.104-3.088-0.263-4.245
		c-1.286-1.089-2.837-0.34-4.139,0.373c-0.628,0.343-1.065,1.017-1.637,1.483c-0.814,0.666-1.723,0.754-2.404-0.112
		c-1.489-1.893-2.678-1.154-3.523,0.47c-0.421,0.809-0.825,0.864-1.229,0.351c-0.825-1.047-1.293-2.575-0.867-3.622
		c0.586-1.436,1.688-0.556,2.521,0.239c0.601,0.574,1.355,0.68,1.998,0.064c0.698-0.671,0.148-1.211-0.357-1.641
		c-0.873-0.741-0.979-1.678-0.781-2.696c0.263-1.34-0.184-2.271-1.506-2.692c-1.53-0.489-1.353-1.699-1.14-2.825
		c0.182-0.961,0.555-1.891,0.886-2.819c0.665-1.858,0.674-3.853-0.936-4.971c-1.607-1.116-3.384-0.155-4.979,0.854
		c-1.865,1.179-3.753,2.377-6.21,1.642c-1.082-0.323-2.09,0.088-2.678,1.238c-1.337,2.617-1.351,2.604-3.217,0.217
		c-0.502-0.643-1.152-1.188-1.562-1.88c-1.514-2.554-2.914-2.878-5.311-1c-0.938,0.734-1.816,1.453-3.082,1.258
		c-1.217-0.187-2.254-0.051-3.076,1.033c-0.636,0.839-1.322,0.657-1.603-0.324c-0.336-1.181,1.617-3.742,2.822-3.657
		c1.356,0.096,1.777-0.802,1.403-1.651c-0.519-1.177-0.354-3.147-1.13-3.441c-1.515-0.572-1.422,1.616-2.334,2.34
		c-0.319,0.253-0.535,0.647-0.871,0.867c-1.354,0.888-2.748,0.284-3.082-1.332c-0.107-0.518,0.213-1.312-0.698-1.267
		c-0.72,0.035-0.679,0.805-0.916,1.308c-0.473,1.004-0.141,3.007-2.378,1.913c-1.102-0.539-2.764,0.831-3.637-0.849
		c0.562-0.837,1.828,0.175,1.963-0.829c0.215-1.597,1.138-1.988,2.521-2.083c0.684-0.046,0.826-0.636,0.845-1.29
		c0.029-1.132,0.068-2.248-0.653-3.186c0.873-0.625,2.728-0.553,2.393-1.129c-1.293-2.232-0.104-4.111,0.271-6.122
		c0.021-0.124-0.109-0.348-0.231-0.417c-1.724-0.979-1.247-2.56-0.923-3.937c0.342-1.452,0.752-3.147,2.998-2.455
		c0.146,0.044,0.515-0.21,0.574-0.394c0.607-1.821,2.467-2.599,3.401-4.138c1.41-2.321,1.182-4.875,0.999-7.404
		c-0.039-0.55-0.4-1.12-1.091-1.179c-0.625-0.054-0.885,0.405-0.953,0.918c-0.226,1.647-2.225,1.133-2.859,2.372
		c-0.165,0.32-0.885-0.181-1.192-0.579c-0.401-0.522-0.419-1.06,0.078-1.549c0.597-0.587,1.267-0.684,2.038-0.35
		c0.41,0.177,0.828,0.084,1.048-0.351c0.216-0.427,0.068-0.857-0.29-1.096c-1.525-1.018-1.282-1.484,0.432-1.743
		c0.645-0.097,0.588-0.778,0.312-1.206c-0.562-0.873-1.068-2.262-2.255-1.947c-1.296,0.343-2.191,1.729-1.968,3.046
		c0.434,2.547-1.961,4.125-1.667,6.554c-0.758-1.55-0.811-3.513-3.285-2.952c-0.49,0.111-0.441-0.282-0.312-0.649
		c0.535-1.528-0.856-2.158-1.532-3.085c-0.399-0.547-1.476-0.665-1.211-1.629c0.249-0.914,1.158-0.701,1.856-0.868
		c2.685-0.641,3.818-2.493,2.378-4.279c-0.95-1.178-1.444-2.523-2.257-3.714c-0.756-1.108-1.115-2.938-3.266-2.053
		c-0.705,0.29-0.951-0.49-0.932-1.1c0.026-0.737,0.155-1.47,0.233-2.206c0.148-1.379,0.026-2.764-1.346-3.421
		c-1.364-0.654-2.281,0.374-3.174,1.28c-1.88,1.91-3.831,3.75-5.693,5.676c-3.169,3.278-6.088,6.604-5.575,11.756
		c0.179,1.796,0.63,2.167,2.166,1.765c0.558-0.146,1.101-0.37,1.665-0.454c0.771-0.116,1.189,0.214,0.688,0.966
		C334.566,95.104,335.882,95.417,337.525,95.553z"/>
	<path fill="#59595B" d="M337.525,82.553c-1.645-0.137-2.959-0.449-1.576-2.516c0.503-0.752,0.084-1.082-0.688-0.966
		c-0.563,0.084-1.106,0.309-1.665,0.454c-1.536,0.402-1.986,0.031-2.166-1.765c-0.513-5.152,2.406-8.478,5.575-11.756
		c1.863-1.926,3.814-3.766,5.694-5.676c0.892-0.907,1.809-1.934,3.173-1.28c1.372,0.658,1.495,2.042,1.346,3.421
		c-0.078,0.735-0.207,1.469-0.232,2.206c-0.021,0.61,0.226,1.39,0.931,1.1c2.15-0.885,2.51,0.945,3.266,2.053
		c0.812,1.191,1.308,2.537,2.258,3.714c1.439,1.786,0.306,3.639-2.379,4.279c-0.697,0.167-1.607-0.045-1.856,0.868
		c-0.264,0.964,0.812,1.082,1.211,1.629c0.676,0.927,2.068,1.557,1.533,3.085c-0.129,0.367-0.179,0.761,0.312,0.649
		c2.477-0.561,2.527,1.402,3.285,2.952c-0.294-2.429,2.102-4.007,1.667-6.554c-0.224-1.317,0.672-2.703,1.968-3.046
		c1.188-0.314,1.691,1.074,2.255,1.947c0.276,0.427,0.333,1.109-0.312,1.206c-1.713,0.258-1.957,0.725-0.431,1.743
		c0.357,0.239,0.506,0.668,0.29,1.096c-0.221,0.436-0.639,0.528-1.049,0.351c-0.771-0.334-1.44-0.237-2.037,0.35
		c-0.497,0.489-0.48,1.027-0.078,1.549c0.308,0.398,1.026,0.899,1.191,0.579c0.637-1.239,2.635-0.725,2.859-2.372
		c0.069-0.513,0.329-0.972,0.954-0.918c0.688,0.06,1.051,0.629,1.09,1.179c0.183,2.529,0.412,5.083-0.999,7.404
		c-0.935,1.539-2.794,2.317-3.401,4.138c-0.061,0.184-0.43,0.438-0.573,0.394c-2.246-0.692-2.656,1.003-2.998,2.455
		c-0.324,1.376-0.802,2.958,0.923,3.937c0.122,0.069,0.253,0.293,0.23,0.417c-0.376,2.011-1.563,3.89-0.271,6.122
		c0.335,0.577-1.521,0.504-2.394,1.129c0.724,0.938,0.685,2.054,0.653,3.186c-0.018,0.654-0.161,1.244-0.844,1.29
		c-1.383,0.095-2.307,0.486-2.521,2.083c-0.135,1.004-1.4-0.009-1.963,0.829c0.873,1.68,2.535,0.31,3.637,0.849
		c2.237,1.094,1.905-0.909,2.379-1.913c0.236-0.503,0.195-1.273,0.916-1.308c0.91-0.045,0.591,0.749,0.697,1.267
		c0.334,1.616,1.729,2.22,3.082,1.332c0.336-0.22,0.552-0.614,0.871-0.867c0.912-0.724,0.82-2.912,2.334-2.34
		c0.775,0.294,0.612,2.264,1.13,3.441c0.374,0.849-0.047,1.748-1.402,1.651c-1.205-0.085-3.158,2.476-2.822,3.657
		c0.279,0.981,0.966,1.163,1.602,0.324c0.822-1.084,1.859-1.22,3.076-1.033c1.267,0.194,2.146-0.524,3.082-1.258
		c2.396-1.878,3.797-1.555,5.312,1c0.409,0.692,1.061,1.237,1.562,1.88c1.867,2.387,1.88,2.4,3.217-0.217
		c0.588-1.149,1.597-1.561,2.679-1.238c2.457,0.735,4.345-0.463,6.21-1.642c1.596-1.009,3.372-1.969,4.979-0.854
		c1.609,1.118,1.602,3.112,0.937,4.971c-0.331,0.929-0.704,1.858-0.887,2.819c-0.213,1.126-0.392,2.336,1.141,2.825
		c1.321,0.422,1.768,1.352,1.506,2.692c-0.198,1.019-0.092,1.956,0.781,2.696c0.507,0.429,1.056,0.97,0.356,1.641
		c-0.642,0.616-1.396,0.51-1.998-0.064c-0.833-0.795-1.934-1.675-2.52-0.239c-0.426,1.046,0.042,2.575,0.867,3.622
		c0.403,0.513,0.809,0.458,1.229-0.351c0.847-1.625,2.035-2.363,3.524-0.47c0.682,0.866,1.59,0.778,2.403,0.112
		c0.57-0.466,1.01-1.14,1.638-1.483c1.302-0.713,2.852-1.462,4.138-0.373c1.366,1.157,1.386,3.2,0.263,4.245
		c-1.729,1.61-0.735,4.191-2.637,5.667c-0.82,0.638,1.265,0.617,0.892,1.625c-0.549,0.705-1.154-0.259-1.907,0.021
		c0.929,1.876-1.4,3.388-0.354,5.31c-1.378,0.233-1.594-1.017-2.512-1.416c-0.771,0.702-0.539,1.77-1.168,2.861
		c1.865-0.385,2.624,0.119,2.61,1.913c-0.01,1.355,0.834,2.669,0.679,4.108c-0.076,0.709,0.024,1.729-1.033,1.621
		c-1.771-0.182-1.398,0.928-1.296,1.882c0.401,3.723-1.095,5.912-4.595,6.658c-0.184,0.733,0.938,0.973,0.639,1.798
		c-1.009,0.963-1.894-1.468-2.956-0.203c2.454,2.192,3.062,5.913,1.255,7.74c-0.333,0.336-0.904,0.875-1.164,0.778
		c-2.774-1.031-2.965,1.708-4.115,2.873c-1.271,1.288,0.518,2.198,1,3.122c0.449,0.861,1.144-0.179,1.728-0.584
		c2.688-1.866,4.62-4.31,5.912-7.298c0.117-0.272,0.477-0.652,0.694-0.635c2.996,0.235,3.347-2.347,4.467-4.115
		c0.474-0.748,0.719-1.696,1.716-2.007c0.821-0.256,0.963-0.772,0.601-1.527c-0.292-0.609-0.21-1.208,0.539-1.341
		c0.768-0.136,1.288,0.326,1.359,1.089c0.067,0.723-0.068,1.419,0.386,2.126c1.299,2.023,1.713,2,3.096,0.1
		c0.806-1.105,1.831-2.15,2.977-2.88c1.186-0.757,2.307-1.173,1.075-2.805c-0.312-0.415,0.197-1.109,0.711-1.01
		c1.134,0.218,1.981-1.278,2.94-0.604c0.724,0.508-0.571,1.215-0.384,1.964c1.906-1.065,2.814-3.381,1.639-4.953
		c-1.191-1.592-0.304-2.22,0.873-2.837c1.764-0.925,3.415-1.91,4.482-3.706c0.938-1.58,2.626-1.361,4-1.029
		c1.208,0.292,0.992,1.498,0.626,2.492c-0.381,1.035-1.424,1.28-2.396,1.945c1.077,0.708,2.824-0.025,3.188,1.737
		c0.363,1.767-0.224,3.255-1.089,4.682c-1.017,1.677-2.162,2.938-4.259,3.719c-2.022,0.753-1.063,3.24-0.774,4.977
		c0.264,1.579,1.426,0.849,2.346,0.605c1.271-0.336,3-0.913,3.204,0.912c0.147,1.314,0.938,3.672-1.925,3.896
		c-1.306,0.103-1.486,1.412-1.936,2.341c-0.585,1.21-1.164,1.55-2.463,0.685c-2.031-1.354-3.055-0.791-3.433,1.585
		c-0.061,0.385-0.214,1.073-0.356,1.082c-2.732,0.165-2.284,2.231-2.527,3.974c-0.145,1.032-0.896,1.375-1.816,0.733
		c-0.797-0.555-1.781-0.992-1.985-2.09c-0.411-2.205-2.177-1.038-3.205-1.091c-1.256-0.064-0.59,1.221-0.562,1.941
		c0.027,0.688,0.094,1.355-0.646,1.7c-0.843,0.392-1.588,0.051-2.331-0.369c-0.544-0.308-1.062-1.479-1.759-0.393
		c-0.643,0.999,0.268,1.314,1.031,1.765c1.012,0.595,2.833,1.25,0.53,2.64c-0.464,0.281-0.218,0.74,0.097,1.033
		c0.365,0.342,0.791,0.267,1.069-0.104c0.593-0.789,1.108-1.637,1.704-2.423c0.472-0.625,0.998-1.713,1.884-0.978
		c0.842,0.698-0.033,1.684-0.578,2.08c-1.667,1.209-2.338,3.15-3.678,4.573c-0.423,0.448-0.758,0.885-0.366,1.517
		c0.414,0.669,1.023,0.768,1.724,0.594c0.735-0.184,1.158-0.514,0.874-1.402c-0.321-0.996,0.167-1.656,1.165-1.729
		c0.841-0.062,1.946-0.306,2.039,1.094c0.032,0.5,0.29,0.709,0.699,0.881c2.064,0.866,1.859,1.955,0.39,3.295
		c-0.746,0.68-0.882,1.791-0.271,2.483c0.771,0.873,1.44,1.484,0.432,2.597c-0.219,0.241,0.118,0.58,0.469,0.705
		c0.828,0.294,4.431-1.197,4.604-2.063c0.275-1.356,1.027-1.85,2.276-1.587c1.423,0.299,0.54,1.231,0.448,1.946
		c-0.204,1.604,1.285,1.457,2.104,1.968c0.849,0.529,1.56,0.28,2.041-0.623c1.109-2.075,3.311-3.065,4.788-4.778
		c0.396-0.459,0.936-1.253,1.527-0.307c0.408,0.656,0.794,1.556-0.198,2.164c-0.544,0.333-1.466,0.493-1.112,1.335
		c0.585,1.393,1.927,3.002-1.253,2.136c-0.052-0.014-0.406,0.554-0.364,0.809c0.361,2.207-1.156,3.255-2.687,4.313
		c0.201,1.075,1.403,0.61,1.947,1.51c0.684,1.133,1.821-0.084,2.098-0.934c0.581-1.798,1.549-2.819,3.515-2.813
		c0.339,0.001,0.794-0.332,1-0.64c0.771-1.155,1.582-1.56,2.833-0.603c0.561,0.429,1.39,0.356,1.729-0.322
		c0.387-0.771-0.568-0.823-0.93-1.185c-0.662-0.662-1.538-0.92-2.397-1.219c-0.495-0.172-0.82-0.577-0.784-1.134
		c0.037-0.557,0.41-0.909,0.925-1.024c1.354-0.303,2.594-0.679,3.835,0.652c1.881,2.016,1.996,1.908,2.729-0.626
		c0.637-2.205,3.293-3.589,7.467-3.564c-1.578-0.953-2.684-1.694-3.858-2.301c-0.584-0.301-1.592,0.216-1.755-0.899
		c-0.095-0.639,0.225-1.112,0.744-1.451c0.799-0.521,1.564-0.789,2.505-0.17c1.234,0.812,2.206,1.908,3.681,3.368
		c-0.629-3.125,0.353-3.659,2.397-2.152c0.541-0.73,0.273-1.249-0.043-1.741c-0.342-0.531-1.021-1.008-0.37-1.703
		c0.512-0.544,1.24-0.507,1.857-0.279c1.2,0.443,2.849,0.026,3.62,1.718c-2.445-0.133-3.601,0.85-3.919,3.201
		c-0.15,1.104,0.987,1.16,1.499,1.717c0.482,0.528,1.152,1.08,1.945,0.83c0.664-0.21,0.244-0.808,0.201-1.263
		c-0.129-1.373,0.668-2.034,1.896-2.042c1.496-0.01,1.045,1.118,0.965,1.983c-0.023,0.245-0.105,0.532-0.014,0.731
		c0.77,1.654,1.329,3.041-1.55,2.842c-0.751-0.052-0.938,1.556-1.955,1.702c-0.795,0.114-1.608,0.087-2.667,0.134
		c0.74,1.815,0.482,2.933-1.828,3.095c-1.551,0.109-1.147,2.452-2.604,3.049c-1.869,0.767-1.118,1.978-0.479,3.212
		c0.356,0.688,0.418,1.687-0.558,1.798c-1.638,0.187-2.262,1.271-2.671,2.538c-0.862,2.67-3.556,3.937-4.827,6.382
		c-0.34,0.656-3.073,0.38-4.598,0.04c-2.433-0.544-2.895,0.135-2.098,2.339c0.461,1.278-0.438,1.993-1.441,2.519
		c-1.188,0.622-1.986,1.422-1.79,2.914c0.125,0.944-0.343,1.578-1.292,1.812c-0.16,0.039-0.33,0.113-0.483,0.089
		c-1.921-0.305-0.347,3.336-2.462,2.343c-1.412-0.663-2.604-0.753-3.996-0.389c-0.875,0.229-2.046,0.18-0.979,1.608
		c0.325,0.435,0.174,1.263-0.374,1.061c-2.043-0.757-3.798,0.316-5.673,0.604c-0.232,0.035-0.61,0.056-0.705-0.074
		c-1.7-2.339-2.993,0.574-4.562,0.383c-0.596-0.072-0.705,0.897-0.392,1.411c0.438,0.721,0.554,1.494,0.636,2.291
		c0.648-0.039,0.781-1.061,1.476-0.731c0.696,0.333,0.38,0.991,0.311,1.542c-0.182,1.457-0.447,2.606-1.891,3.698
		c-1.532,1.159-2.55,3.226-3.057,5.202c-0.364,1.43-0.939,2.406-2.294,2.92c-1.791,0.681-2.32,2.437-3.404,3.688
		c-1.628,1.882-0.763,3.472-0.967,5.214c1.619-2.293,4.225-3.021,6.311-4.451c1.306-0.895,2.292-0.22,3.054,1.004
		c1.822,2.924,1.373,4.58-2.088,6.471c-1.246,0.68-2.238,1.136-2.038,2.872c0.114,0.989-0.297,2.289-1.689,0.832
		c-0.33-0.345-0.611-0.577-0.98-0.142c-2.448,2.885-6.152,2.401-9.291,3.371c-2.009,0.62-4.259-0.212-6.301,1.344
		c-0.841,0.641-2.54-0.806-4.255-0.156c-3.145,1.188-6.089,2.266-7.118,5.892c-0.168,0.595-0.699,0.901-1.334,0.927
		c-0.662,0.028-1.231-0.302-1.271-0.926c-0.212-3.398-3.378-3.094-5.344-4.188c-0.817-0.455-1.905-0.377-2.302-1.504
		c-0.074-0.213-0.411-0.543-0.423-0.535c-1.822,1.308-3.168-0.227-4.604-1.204c-0.348,1.341,0.595,1.864,0.629,2.678
		c0.04,0.951,2.017,2.505-0.852,2.548c-0.489,0.008-0.537,0.773-0.577,1.26c-0.095,1.135-0.611,2.024-1.445,2.771
		c-0.911,0.816-1.102,1.73-0.514,2.873c0.597,1.16,1.391,1.898,2.733,1.542c1.898-0.505,3.721,0.358,5.638,0.164
		c1.747-0.177,3.509,3.129,3.335,5.89c1.425-0.593,2.927-1.531,3.77,0.698c0.717,1.892,0.039,3.709-1.749,4.567
		c-0.993,0.478-1.738,0.021-2.451-0.602c-0.347-0.301-1.017-0.947-1.022-0.8c-0.124,2.479-2.765,0.905-3.78,2.33
		c-0.383,0.537-2.461,1.858-4.356,0.327c-1.941-1.567-4.799-1.436-7.233-1.812c-1.08-0.168-2.533,1.502-3.681,2.496
		c-1.152,1-2.523,0.936-3.725,0.71c-2.031-0.383-2.554-2.184-1.387-3.975c1.78-2.731,1.403-6.146-0.894-8.197
		c-0.317-0.284-0.714-0.655-1.069-0.397c-1.091,0.795-2.584,1.494-3.036,2.594c-0.586,1.429-2.135,2.449-2.336,3.348
		c-0.634,2.842-3.771,3.557-4.45,6.25c-0.341,1.354-1.451,2.201-3.462,1.789c-1.937-0.396-4.332-0.896-5.934,1.438
		c-0.707,1.029-1.462,0.869-2.112-0.502c-0.895-1.885-2.208-3.57-3.735-5.11c0.523,1.403,1.05,2.807,1.57,4.21
		c0.144,0.386,0.48,0.845,0.377,1.152c-0.617,1.845-2.109,3.881,1.344,4.492c-0.918,1.797,0.002,4.123-1.313,5.668
		c-1.14,1.338-2.777,0.987-4.307,0.168c-2.563-1.375-3.925-4.877-2.449-8.414c1.002-2.404-1.207-2.465-1.86-3.599
		c-0.259-0.448-0.729,0.333-0.96,0.744c-2.674,4.769-6.551,8.329-10.979,11.468c-3.95,2.803-7.83,5.762-9.856,10.482
		c-0.963,2.244-1.285,4.594-1.702,6.932c-1.246,6.992-2.996,13.809-5.986,20.305c-1.944,4.224-2.576,8.871-3.037,13.441
		c-1.164,11.543-2.096,23.117-4.521,34.48c-1.046,4.903-2.526,9.723-3.97,14.53c-1.434,4.771-1.352,9.766-2.396,14.59
		c-0.558,2.57-0.914,5.186-1.352,7.781c-0.167,0.995-0.318,2.028,0.818,2.589c3.695,1.821,4.613,5.607,6.018,8.91
		c0.785,1.851-1.092,2.366-2.557,2.264c-11.59-0.807-23.215,0.026-34.804-0.804c-2.464-0.177-4.918,0.039-7.355,0.645
		c-2.517,0.625-3.426-0.396-2.738-2.913c0.278-1.021,0.57-2.21,1.27-2.909c2.478-2.477,3.078-5.604,3.644-8.787
		c-1.11-0.61-2.257,1.219-3.009-0.111c-0.581-1.028,0.41-2.038,0.846-2.95c0.56-1.175,0.712-2.118,0.313-3.457
		c-4.021-13.508-7.005-27.256-9.213-41.17c-0.703-4.433-2.749-8.432-3.743-12.779c-1.141-4.987-2.238-9.975-2.525-15.07
		c-0.197-3.506-1.623-6.298-3.733-8.92c-5.438-6.758-10.002-14.098-13.886-21.824c-4.625-9.203-9.792-18.076-15.498-26.637
		c-1.037-1.557-2.394-2.898-3.316-4.575c-0.797-1.448-1.886-1.905-2.98-0.211c-0.617,0.954-1.314,1.464-2.445,0.812
		c-0.686-0.395-1.339-0.103-1.828,0.328c-1.783,1.567-4.248,1.717-6.146,3.024c-0.501,0.345-1.05,0.576-1.617,0.267
		c-1.928-1.054-3.767-1.422-5.991-0.52c-1.271,0.518-2.524,0.529-2.696,2.25c-0.077,0.782-0.743,1.043-1.469,1.018
		c-2.112-0.072-2.343-2.127-3.3-3.334c-0.85-1.068,0.466-1.469,1.187-1.935c0.669-0.433,1.221-1.114,1.1-1.825
		c-0.456-2.688,0.934-2.217,2.519-1.615c0.703,0.269,1.436,0.42,2.014-0.307c-0.072-0.16-0.141-0.303-0.201-0.447
		c-0.368-0.879-2.33,0.243-1.953-1.531c0.352-1.656,1.502-0.643,2.358-0.703c0.333-0.023,0.838-0.377,0.926-0.678
		c0.961-3.3,3.253-4.853,6.542-5.267c2.014-0.254,1.591-1.026,0.396-2.046c-2.197-1.872-4.997-3.852-7.479-3.13
		c-3.069,0.893-6.458,1.558-9.176,3.589c-0.46,0.344-1.066,0.602-1.342,1.057c-0.855,1.41-1.679,1.309-2.704,0.206
		c-0.807-0.866-2.103-1.903-2.888-0.786c-0.63,0.897-2.133,2.502-0.121,3.945c0.85,0.609,1.565,1.896,0.816,2.825
		c-0.857,1.062-1.842,2.502-3.639,1.981c-0.758-0.222-1.435-0.838-1.143,0.702c0.146,0.775-0.688,0.966-1.212,0.726
		c-0.97-0.445-2.276,0.382-2.972-0.729c-0.41-0.657,0.393-1.116,0.582-1.649c0.627-1.762,1.495-3.637,0.428-5.512
		c-0.491-0.863-1.686-1.854-2.392-1.326c-1.81,1.351-2.925,0.651-4.304-0.568c-1.582-1.398-3.263,0.75-4.988-0.321
		c-0.037,1.38,0.515,2.287,0.166,3.286c-0.356,1.021-0.806,1.704-1.938,1.003c-0.641-0.397-1.108-0.379-1.798-0.034
		c-1.06,0.53-1.601,0.077-1.262-1.115c0.125-0.439,0.678-0.887-0.116-1.182c-0.469-0.175-1.051-0.25-1.35,0.245
		c-0.847,1.403-1.812,0.849-2.666,0.138c-1.424-1.189-3.379-0.504-4.861-1.505c-0.457-0.309-0.934,0.207-1.162,0.658
		c-0.528,1.047-1.617,1.342-2.466,1.968c-1.503,1.107-2.422,0.986-2.578-1.042c-0.045-0.588,0.063-1.2-0.717-1.349
		c-0.631-0.119-1.231,0.107-1.478,0.66c-1,2.246-2.625,2.256-4.421,1.207c-2.776-1.623-6.192-1.836-8.405-4.857
		c-1.754-2.396-2.772-4.505-1.73-7.316c0.301-0.812,0.225-1.179-0.513-1.807c-1.226-1.044-3.075-1.748-2.923-3.906
		c0.031-0.437-0.461-0.638-0.904-0.666c-0.407-0.027-1.166,0.006-1.174-0.06c-0.34-2.813-3.63-2.681-4.677-4.715
		c-0.441-0.857-1.036-1.612-1.846-1.91c-1.646-0.604-3.269-0.981-3.008-3.347c0.063-0.576-0.757-0.736-1.392-0.479
		c-2.234,0.904-4.391,0.047-6.54-0.389c-0.73-0.148-1.338-0.417-2.108-0.083c-0.875,0.379-1.748,0.08-2.003-0.854
		c-0.66-2.417-2.678-3.085-4.67-3.665c-0.717-0.207-0.919-0.531-1.099-1.084c-0.252-0.777-0.304-1.731-0.801-2.293
		c-1.307-1.477-2.431-2.857-1.674-5.047c0.09-0.26-0.824-1.906-1.865-0.573c-0.474,0.606-0.815,1.471-1.659,0.892
		c-0.784-0.539-1.586-1.424-1.13-2.495c0.453-1.064,0.223-1.694-0.669-2.283c-1.271-0.839-1.173-1.615,0.104-2.41
		c0.834-0.519,1.55-1.223,2.369-1.77c0.594-0.397,1.316-0.457,1.776,0.179c0.548,0.756-0.083,1.189-0.64,1.573
		c-0.271,0.187-0.571,0.331-0.842,0.517c-0.547,0.377-0.831,0.86-0.311,1.433c0.47,0.518,0.917,0.438,1.465-0.058
		c1.234-1.116,1.619-2.414,1.203-4.004c-0.163-0.626-0.837-1.615,0.501-1.587c0.844,0.018,2.009-0.18,2.358,1.245
		c0.27,1.096-1.436,3.308,1.572,3.05c1.221-0.104,2.224,1.55,3.645,0.466c0.311-0.237,0.931,0.364,1.509-0.227
		c-0.776-1.278-0.563-3.667-3.358-2.583c-0.425,0.165-1.013-0.2-1.233-0.66c-0.435-0.907,0.485-0.849,0.909-1.103
		c0.675-0.403,1.058-0.89,0.405-1.559c-0.541-0.554-1.108-1.4-2.04-0.577c-0.388,0.343-0.581,1.236-1.269,0.559
		c-0.528-0.521-0.264-1.219,0.088-1.826c0.368-0.635,1.317-0.726,1.492-1.73c-1.065-0.55-1.964-0.28-2.853,0.45
		c-0.598,0.49-1.506,0.969-1.779-0.081c-0.383-1.471,0.867-2.585,1.513-3.767c0.561-1.026,1.635-0.798,2.635-0.334
		c0.81,0.375,1.604,1.315,2.612,0.193c0.876-0.974-0.107-2.095,0.392-3.063c-2.312-0.172-1.39-2.503-2.377-3.56
		c-0.056-0.06-0.14-0.102-0.179-0.17c-0.322-0.563,0.633-4.936,1.211-5.261c0.379-0.213,0.798-0.333,0.646-0.855
		c-0.138-0.473-0.572-0.55-1.002-0.516c-1.263,0.1-2.43-0.089-2.564-1.608c-0.134-1.507,1.267-1.59,2.205-2.216
		c2.096-1.396,4.672,0.171,6.725-1.333c0.399-0.293,0.935,0.516,1.243,1.001c0.7,1.099,1.156,2.327,2.32,3.141
		c0.981,0.687,0.183,1.44-0.267,2.109c-0.312,0.464-0.833,1.366-0.199,1.417c1.588,0.128,1.486,2.539,2.949,2.113
		c0.557-0.163,1.209-1.798,0.99-2.508c-0.823-2.674,0.598-2.336,2.207-1.88c0.541,0.154,1.14,0.654,1.553,0.034
		c0.636-0.954-0.391-0.997-0.881-1.323c-1.064-0.709-0.261-1.605-0.1-2.417c-0.862-0.204-1.665,0.959-2.327-0.07
		c-0.473-0.734-0.149-1.516,0.327-2.066c1.869-2.156,1.702-4.287,0.107-6.475c-0.488-0.669-0.259-1.241,0.311-1.727
		c0.676-0.576,1.451-0.871,2.269-0.394c0.657,0.383,1.037,0.792,0.585,1.787c-0.6,1.317,0.877,1.25,1.436,1.213
		c2.807-0.188,3.802,0.944,3.151,3.687c-0.258,1.087,0.36,1.889,1.312,2.423c0.447,0.251,0.933,0.472,1.39,0.164
		c0.506-0.34,0.307-0.881,0.178-1.352c-0.41-1.483-1.296-2.869-0.72-4.535c0.222-0.641-0.165-0.849-0.834-0.71
		c-1.778,0.367-2.343-0.707-2.503-2.209c-0.168-1.558-0.992-2.87-2.493-3.003c-3.438-0.305-4.812-3.799-7.799-4.723
		c-0.444-0.138-0.226-0.717-0.172-1.114c0.058-0.426-0.05-1.116-0.447-0.933c-2.3,1.058-2.847-1.407-4.288-2.029
		c-0.65-0.281-1.023-0.907-0.897-1.619c0.198-1.127-0.384-1.994-1.036-2.664c-1.18-1.212-1.726-2.466-0.77-4.321
		c-1.73,0.288-2.709,2.42-4.421,1.018c-0.37-0.303-1.168-0.59-0.845-0.995c1.249-1.568-0.527-1.702-0.91-2.539
		c-1.143-2.499-2.233-1.425-3.492-0.33c-0.623,0.542-1.206,1.243-2.137,0.635c-0.712-0.465-0.867-1.208-0.655-1.971
		c0.456-1.642-0.235-2.631-1.625-3.437c-1.485-0.861-2.632-1.984-2.099-4c0.111-0.419-0.136-0.961-0.293-1.421
		c-0.831-2.438,0.597-4.839,3.118-5.173c1.344-0.177,2.061,0.586,2.168,1.798c0.094,1.054,0.519,1.058,1.475,1.3
		c2.049,0.521,3.56,2.141,5.039,3.643c0.369,0.375,0.411,1.143,1.392,0.928c0.168-1.288-0.98-1.764-1.646-2.448
		c-1.243-1.276-1.691-2.492-0.594-4.152c0.846-1.279,0.842-2.623-0.061-4.098c-1.893-3.095,0.455-5.057,3.077-5.772
		c0.876-0.239,1.482,0.378,1.47,1.233c-0.026,1.8,0.663,1.375,1.765,0.796c1.24-0.651,2.628-0.909,3.135,0.969
		c0.304,1.125,0.835,1.054,1.593,0.517c0.134-0.095,0.257-0.208,0.373-0.324c1.046-1.045,2.28-1.346,3.615-0.72
		c1.413,0.663,0.72,2.002,0.859,3.08c0.15,1.17-0.507,2.012-1.475,3.404c2.312-1.354,3.125-0.581,3.344,1.325
		c0.103,0.887,0.335,1.803,0.719,2.604c1.067,2.234,2.692,2.656,4.713,1.419c2.248-1.376,4.027,0.246,5.902,1.057
		c0.488,0.211,0.84,0.739,1.373,1.231c0.926-1.535,0.988-3.701,2.841-4.161c1.549-0.384,3.28-0.222,4.131,1.769
		c0.142-1.605,1.521-3.161-0.733-4.538c-0.617-0.377-0.173-2.336-0.404-3.533c-0.43-2.212-0.327-4.431-0.277-6.651
		c0.035-1.515,0.717-2.702,2.139-3.347c1.459-0.663,2.481,0.166,3.538,1.038c1.948,1.609,3.656,3.323,3.722,6.083
		c0.007,0.266,0.253,0.681,0.477,0.754c0.524,0.171,0.693-0.304,0.783-0.703c0.43-1.915,1.617-2.322,3.33-1.703
		c0.462,0.167,0.994,0.474,1.21-0.225c0.144-0.467-0.32-0.708-0.698-0.868c-0.861-0.366-1.697-0.609-1.108-1.933
		c0.337-0.759-0.698-0.713-1.105-1.036c-0.443-0.352-0.974-0.61-1.361-1.011c-0.368-0.38-1.052-0.926-0.49-1.437
		c0.755-0.686,1.097,0.138,1.445,0.695c0.119,0.189,0.327,0.323,0.864,0.831c0.125-1.472-0.632-2.034-1.29-2.646
		c-1.491-1.389-2.148-2.959-0.819-4.796c1.041-1.439,0.323-2.953,0.051-4.292c-0.387-1.902-0.068-3.547,0.553-5.279
		c0.619-1.727,1.99-3.261,1.331-5.358c-0.181-0.574,0.409-1.088,1.054-1.136c1.114-0.082,2.152,0.205,2.828,1.16
		c0.372,0.525,0.54,1.193,0.877,1.75c0.216,0.357,0.635,0.617,1.046,0.364c0.233-0.144,0.436-0.513,0.458-0.796
		c0.1-1.301,0.395-2.663,0.131-3.898c-0.486-2.269,0.703-2.926,2.517-3.39c1.327-0.34,2.753-0.031,3.824,0.262
		c1.98,0.541-0.261,1.749-0.09,2.949c1.451-0.723,2.264,0.93,3.254,0.962c0.936,0.03,2.435-0.708,2.935-1.895
		c0.542-1.288,0.781-2.716-0.434-3.909c-0.939-0.92-1.835-1.885-2.767-2.813c-1.12-1.115-1.286-2.257-0.138-3.45
		c0.535-0.556,1.141-1.249,0.691-1.95c-1.424-2.225-0.376-5.109-2.039-7.245c-0.182-0.234-0.347-0.766-0.225-0.909
		c1.679-1.973,0.533-3.976,0.249-6.032c-0.293-2.122,1.363-3.244,3.247-2.252c1.04,0.548,1.62,0.215,2.426-0.309
		c0.873-0.569,2.023-0.353,2.389,0.486c0.543,1.25-0.775,0.782-1.334,0.99c-0.585,0.217-0.674,0.662-0.572,1.19
		c0.173,0.895,0.307,1.839,1.352,2.173c0.547,0.174,1.138,0.21,1.684,0.386c1.005,0.324,1.756,0.969,1.906,2.056
		c0.163,1.177-0.71,1.529-1.622,1.816c-0.316,0.1-0.587,0.294-0.547,0.877c1.285,0.384,2.527-1.14,3.856-0.255
		c1.087,0.723,1.536,2.127,2.844,2.661c0.689-0.956-0.126-1.549-0.426-2.239c-0.994-2.292,0.017-4.5,2.418-5.234
		c0.865-0.265,1.732-0.549,2.618-0.721c1.263-0.245,2.278,0.119,2.812,1.407c0.222,0.534,0.053,1.559,1.088,1.212
		c0.684-0.228,1.335-0.751,1.107-1.684c-0.594-2.429,0.22-2.338,1.86-1.111c0.408,0.305,1.122,0.163,1.638,0.369
		c1.071,0.429,2.021,1.191,1.474,2.424c-0.816,1.841,0.104,3.539-0.127,5.967c1.404-1.891,3.756-0.394,4.778-2.917
		c-1.156,0.679-1.972,0.846-2.796-0.05c-1.195-1.302,0.714-1.317,0.735-2.084c0.027-1.005,1.125-1.65,0.927-2.752
		c-0.173-0.967,0.135-1.63,1.237-1.683c0.995-0.047,0.731-0.883,0.956-1.451c0.487-1.235,1.512-1.534,2.619-1.025
		c1.078,0.495,0.729,1.301,0.107,2.008c-0.573,0.653-0.311,1.387-0.248,2.12c0.24,2.785,0.758,5.543-0.15,8.355
		c-0.373,1.157,0.533,2.364,1.064,3.434c0.33,0.663,1.218,0.293,1.815,0.066c1.03-0.392,1.119-1.258,1.063-2.242
		c-0.169-3.007,0.648-4.012,3.471-4.393c0.209-0.724-0.368-1.05-0.793-1.356c-1.197-0.861-1.701-1.599,0.02-2.46
		c0.771-0.387,1.199-1.162,0.139-1.646c-2.56-1.168-0.92-3.739-1.914-5.418c-0.134-0.226,0.217-0.621,0.59-0.635
		c0.467-0.018,0.74,0.324,0.943,0.691c0.459,0.832,0.638,1.928,2.131,1.998c-0.039-1.342-0.646-2.462-1.078-3.62
		c-0.282-0.757-0.326-1.456,0.366-2.013c0.333-0.269,0.737-0.4,1.146-0.194c0.737,0.371,0.682,1.102,0.633,1.736
		c-0.167,2.196,1.346,3.855,1.804,5.847c0.098,0.422,0.379,0.788,0.874,0.685c0.523-0.109,0.536-0.574,0.446-0.982
		c-0.33-1.497,0.543-1.963,1.759-2.441c0.955-0.375,1.911-1.06,2.227-2.175c0.211-0.743-0.112-1.804,1.147-1.798
		c0.729,0.003,1.205,0.524,1.431,1.189c0.344,1.012,0.3,1.99-0.69,2.634c-0.545,0.354-1.168,0.605-1.784,0.825
		c-0.782,0.28-1.119,0.685-0.598,1.46c0.52,0.775,0.956,0.68,1.495-0.051c0.83-1.125,1.929-1.074,2.689-0.055
		c0.991,1.327-0.086,1.838-1.184,2.269c-0.966,0.379-1.317,1.021-0.452,1.86c0.526,0.511,0.688,1.061,0.552,1.781
		c-0.111,0.583-0.777,1.389,0.053,1.734c0.748,0.311,1.761,0.029,2.239-0.67c1.813-2.65,4.316-4.982,3.843-8.718
		c-0.119-0.938,0.542-1.974,0.842-2.953c1.119,0.008,0.884,1.42,1.816,1.565c0.713-0.2,0.407-0.774,0.404-1.224
		c-0.007-1.283,0.322-1.744,1.572-0.848c1.062,0.762,2.235,1.378,3.389,2.004c0.552,0.3,1.168,1.527,1.726,0.457
		c0.345-0.663,1.627-1.863,0.077-2.678c-1.201-0.632-0.787-1.617-0.219-1.965c2.086-1.275,1.527-3.379,2.074-5.249
		c-0.372-0.038-0.639-0.148-0.818-0.068c-0.9,0.402-1.812,0.68-2.279-0.492c-0.484-1.211,0.256-1.946,1.334-2.178
		c1.774-0.382,2.584-1.175,2.047-3.108c-0.29-1.037,0.426-1.694,1.437-1.944c0.664-0.165,1.421-0.23,1.82,0.381
		c0.652,0.998-0.286,1.448-0.89,1.965c-0.852,0.731-0.827,1.246,0.215,1.852c2.914,1.696,2.973,3.193,0.165,4.747
		c-1.853,1.025-0.896,3.184-2.146,4.562c1.241-0.355,2.47-1.071,3.102,0.611c0.543,1.447,1.995,2.845,0.108,4.408
		c-0.903,0.749-1.738,1.659-0.539,2.891c0.31,0.319,0.411,0.878,0.082,1.124c-1.737,1.296-0.574,3.007-0.758,4.526
		c-0.319,2.631,2.138,2.733,3.43,3.869c0.487,0.428,0.866-0.208,1.115-0.623c0.508-0.845,0.969-1.687,1.136-2.707
		c0.321-1.957,1.267-3.546,3.13-4.456c0.293-0.143,0.768-0.256,0.832-0.477c0.708-2.438,1.754-3.207,3.718-0.976
		c0.416,0.472,1.075,0.102,1.573-0.248c0.526-0.369,1.09-0.948,1.732-0.309c0.562,0.559,0.36,1.241-0.092,1.787
		c-0.578,0.699-1.03,1.403-0.099,2.096c0.962,0.717,1.672,0.309,2.184-0.666c0.556-1.057,1.665-0.356,2.996-0.972
		c-2.763-0.57-2.784-3.108-4.292-4.469c-0.388-0.35-0.645-0.828-0.164-1.276c0.455-0.425,0.912-0.233,1.258,0.213
		c0.449,0.581,0.922,1.151,1.305,1.775c1.26,2.054,1.66,2.027,2.917,0.003c0.432-0.694,0.397-1.219-0.302-1.275
		c-3.861-0.311-3.574-3.69-4.176-6.037c-0.488-1.909-1.336-4.123,0.17-6.192c1.102-1.514,2.245-2.133,3.917-0.995
		c1.049,0.713,1.958,0.795,2.825-0.706c-2.201,0.071-2.443-1.62-3.389-2.967c-1.675-2.386-3.309-4.47-2.467-7.59
		c0.086-0.319-0.398-0.912-0.756-1.214c-2.659-2.245-2.33-5.47-2.797-8.425c-0.149-0.942,0.609-1.434,1.229-1.997
		c1.869-1.7,1.894-4.158-0.101-5.807c-1.123-0.928-1.201-1.64-0.237-2.615c0.903-0.913,1.706-1.338,2.951-0.305
		c2.328,1.934,4.769,3.747,7.732,4.671c0.455,0.142,0.979,0.402,1.239,0.771c1.799,2.535,2.365,5.672,3.971,8.315
		c0.118,0.193-0.035,0.735-0.238,0.911c-2.186,1.895-0.385,2.96,0.868,4.046c1.655,1.436,3.649,1.506,5.445,0.528
		c1.415-0.77,2.466-2.349,4.337-1.056c2.025,1.401,2.302,3.492,2.169,5.688c-0.043,0.718-0.338,1.452-0.647,2.118
		c-0.605,1.303-0.627,2.232,0.887,3.02c1.064,0.554,1.342,4.949,0.462,6.23c-1.394,2.029-1.066,4.589-2.33,6.694
		c1.482-0.274,3.583,0.403,2.974-2.346c-0.085-0.382,0.409-0.788,0.861-0.635c2.423,0.819,5.322,0.934,6.32,3.982
		c0.275,0.842,0.883,1.278,1.494,1.845c1.6,1.484,3.765,2.356,4.771,4.515c0.396,0.848,1.341,1.146,2.634,1.113
		c-1.438-2.141,0.215-3.75,0.633-5.557c0.484-2.097-0.213-2.999-2.399-2.753c-0.504,0.057-1.369,0.111-1.289-0.21
		c0.46-1.843-1.807-3.457-0.433-5.272c0.818-1.081,0.738-1.429-0.69-1.606c-1.6-0.199-1.702-1.548-1.654-2.854
		c0.045-1.221,0.59-2.147,1.849-2.232c1.204-0.082,1.987,0.332,2.933,1.52c1.566,1.972,2.93,4.235,5.045,5.762
		c0.33,0.239,0.707,0.425,1.081,0.591c0.315,0.14,0.911-0.032,0.837-0.167c-1.26-2.265,2.576-1.809,1.918-3.624
		c-0.25-0.691-0.703-1.035-1.41-0.155c-1.472,1.831-2.42,0.598-2.613-0.848c-0.323-2.417-0.381-4.928,1.285-7.026
		c0.812-1.025,1.263-2.024-0.028-2.949c-1.552-1.112-0.938-2.361-0.129-3.412c0.844-1.096,2.057-0.841,3.127-0.198
		c0.712,0.427,1.385,0.983,1.644,1.79c0.379,1.181,1.027,1.906,2.238,2.381c1.27,0.498,1.667,1.83,1.622,3.095
		c-0.042,1.184-0.985,0.746-1.694,0.673c-0.17-0.018-0.484,0.201-0.524,0.362c-0.118,0.48,0.202,0.778,0.622,0.912
		c0.861,0.272,1.761,0.439,2.596,0.771c1.188,0.472,2.205,1.179,2.331,2.614c0.079,0.91,0.346,1.598,1.409,1.687
		c1.105,0.092,1.953-0.254,2.391-1.322c0.648-1.583,1.459-2.857,3.906-1.751c-0.875-1.652-2.133-3.309,1.191-3.193
		c-0.594-0.542-0.742-0.73-0.937-0.846c-0.683-0.411-1.896,0.646-2.151-0.476c-0.246-1.074,1.084-0.97,1.719-1.39
		c0.808-0.536,0.389-1.331,0.438-2.034c0.101-1.396-0.479-2.904,0.527-4.199c0.97,0.319,0.944,1.096,0.909,1.685
		c-0.094,1.646-0.7,3.029,2.14,3.286c1.701,0.154-0.222,1.491-0.696,2.504c2.317,0.377,4.237,1.185,4.262,4.02
		c0.008,0.685,0.748,0.36,1.133,0.027c0.373-0.322,0.662-0.761,1.068-1.022c1.064-0.686,2.163-0.37,2.916,0.418
		c0.799,0.836,0.213,1.761-0.547,2.322c-1.365,1.009-2.465,2.328-4.162,2.969c-1.92,0.726-2.145,2.188-0.908,4.071
		c0.994-0.396,0.192-1.361,0.606-1.933c0.574-0.792,1.038-1.83,2.304-1.044c0.42,0.261,0.362,1.333,1.174,0.869
		c0.674-0.386,0.082-1.035,0.016-1.569c-0.043-0.343,0.023-0.648,0.361-0.831c1.244,1.459,3.305,1.197,3.73-0.687
		c0.7-3.101,3.492-3.705,5.584-5.083c1.27-0.837,2.678-3.512,2.079-4.925c-0.455-1.078-1.353-0.687-2.128-0.698
		c-3.264-0.048-3.604-0.729-2.087-3.669c1.259-2.438,2.646-4.869,1.604-7.847c-0.351-1,0.205-1.99,1.125-2.535
		c1.405-0.833,2.834-1.673,4.348-2.274c1.265-0.502,2.069-1.508,1.955-2.562c-0.195-1.783,0.63-2.951,1.521-4.234
		c0.437-0.627,0.362-1.928,1.446-1.647c1.059,0.274,2.831,1.103,2.811,1.63c-0.071,1.834-0.77,3.648-1.292,5.452
		c-0.033,0.116-0.608,0.099-0.933,0.101c-0.434,0.003-0.841,0.05-1.012,0.515c-0.208,0.571,0.096,0.988,0.56,1.219
		c3.003,1.493,1.737,5.012,3.405,7.203c0.586,0.771-0.564,1.496-1.453,1.888c-1.904,0.842-3.188,2.08-3.003,4.435
		c0.1,1.272-0.817,1.82-1.979,1.401c-1.334-0.481-1.766,0.217-2.175,1.239c-1.461,3.643-0.739,6.935,1.571,9.965
		c0.259,0.338,0.653,0.651,0.407,1.051c-1.392,2.262-1.626,5.027-3.48,7.148c-1.378,1.577-2.161,3.671-0.802,5.833
		c0.415,0.66,0.845,1.551,0.186,2.026c-1.52,1.094-1.025,2.979-1.973,4.352c-0.668,0.968-0.209,2.546,1.57,2.938
		c1.789,0.395,3.829,0.448,1.85,3.398c-0.631,0.941,0.823,3.292,1.363,4.984c0.027,0.086,0.48,0.142,0.66,0.055
		c0.533-0.259,0.637-0.864,0.457-1.277c-0.609-1.402-0.415-2.267,0.775-3.494c1.168-1.202,0.309-3.542,1.809-5.051
		c0.438-0.444-1.027-1.072-1.484-1.695c-0.731-0.998-2.766-1.249-1.492-3.48c0.993-1.743,1.525-2.479,3.377-1.16
		c0.74,0.527,1.856,0.528,3.195,0.87c-0.946-1.178-1.601-2.144-0.395-3.319c0.881-0.858,0.406-1.782-0.448-2.543
		c-0.942-0.837-0.869-1.681,0.128-2.473c2.188-1.739,2.149-4.128,1.179-6.261c-1.438-3.156-1.743-5.789,1.132-8.344
		c1.023-0.909,2.143-1.912,2.584-3.477c0.275-0.974,1.404-0.868,1.881,0.086c0.883,1.769,0.504,3.715,0.368,5.566
		c-0.077,1.056-1.372,0.561-2.07,0.886c-0.185,0.849,0.59,0.856,0.996,1.163c0.336,0.255,0.816,0.833,0.648,0.918
		c-1.63,0.829-0.589,2.983-2.062,3.922c-0.808,0.515-1.43,1.358-1.555,2.43c-0.127,1.089-0.248,1.806,1.428,1.684
		c2.504-0.183,3.131,1.05,2.559,3.469c-0.387,1.629-0.819,3.197-1.593,4.723c3.968-2.139,6.566-5.272,7.139-9.802
		c0.147-1.17-0.146-2.365,1.492-2.605c0.495-0.073,0.698-0.329,0.39-0.843c-0.858-1.428,0.08-1.555,1.127-1.438
		c1.062,0.12,1.509-0.455,1.758-1.323c0.755-2.638,0.744-2.636,2.938-1.046c0.248,0.18,0.549,0.288,0.817,0.425
		c0.581-0.708,0.126-1.173-0.178-1.631c-0.433-0.656-1.356-1.305-0.423-2.086c0.747-0.625,1.349,0.097,1.855,0.652
		c0.84,0.919,1.784,1.119,2.857,0.41c2.561,0.853,2.921,1.759,1.397,3.825c-0.899,1.219-1.177,2.5-0.788,3.932
		c0.156,0.579,0.345,1.477-0.328,1.426c-2.678-0.201-2.922,4.139-5.958,3.083c-0.007-0.002-0.133,0.256-0.159,0.4
		c-0.411,2.277-1.341,4.62-1.071,6.817c0.27,2.209-0.319,2.759-2.212,2.933c-0.731,0.067-1.299,0.741-1.01,1.418
		c0.953,2.23,0.644,4.12-0.082,6.5c-0.604,1.985,1.562,4.652-0.423,6.945c1.696,3.055,0.868,6.398,1.138,9.62
		c0.14,1.669-0.469,2.55-2.099,2.625c-0.909,0.042-1.765-0.022-2.085,1.441c1.271-0.439,2.291-0.485,2.984,0.62
		c0.216,0.344,0.562,0.607,1.043,0.441c-0.754-1.776,2.606-1.73,1.604-3.628c-0.2-0.377-0.298-0.965,0.174-1.049
		c2.105-0.373,1.255-2.068,0.98-2.871c-0.957-2.795,0-5.209,0.742-7.805c0.385-1.342,1.442-2.581,0.598-4.427
		c-1.008-2.202,1.863-5.29,4.27-4.903c0.946,0.152,1.271-0.292,1.373-0.954c0.158-1.024-0.695-0.646-1.188-0.674
		c-0.762-0.044-1.541-0.041-1.734-1c-0.157-0.79,0.157-1.474,0.711-2.011c1.151-1.117,2.438-1.224,3.833-0.442
		c0.516,0.288,1.065,1.15,1.653,0.354c0.425-0.576-0.301-1.087-0.723-1.385c-2.117-1.497-2.241-3.635-2.148-5.936
		c0.058-1.372,1.178-2.764-0.095-4.173c-0.258-0.286,0.222-0.995,0.686-1.17c1.818-0.689,2.688-2.911,4.995-2.904
		c0.889,0.002,1.162-1.06,1.107-1.94c-0.029-0.463-0.358-0.793-0.841-0.625c-2.65,0.924-2.441-0.81-2.396-2.49
		c0.032-1.149,0.07-2.324-0.126-3.446c-0.257-1.476-1.287-2.168-2.71-1.561C337.31,80.071,337.556,81.415,337.525,82.553z
		 M256.102,395.176c0.25-0.402,0.375-0.527,0.407-0.672c3.288-14.441,7.718-28.577,11.453-42.896
		c0.542-2.078,1.478-4.224,1.071-6.51c-1.15-6.498-1.266-13.092-1.874-19.638c-0.294-3.172-0.317-6.588-2.134-9.491
		c-2.023-3.23-3.582-6.66-4.494-10.371c-0.943-3.832-1.885-7.664-2.86-11.486c-0.336-1.316,0.095-2.172,1.237-2.885
		c1.964-1.228,2.062-3.226,2.334-5.524c-1.414,0.938-1.637,0.688-3.905,0.823c-2.696,0.16-1.327-1.574-1.504-2.592
		c-0.087-0.5-0.097-1.138-0.704-1.109c-1.367,0.062-1.671-0.857-1.8-2.246c-1.706,3.335-1.481,6.646-1.886,9.771
		c-0.698,5.387-3.06,10.879-0.881,16.258c1.713,4.23,1.274,8.468,1.459,12.744c0.035,0.817,0.277,1.629,0.295,2.445
		c0.074,3.779,1.89,7.485,0.938,11.241c-0.729,2.879-0.783,5.698-0.542,8.558c0.449,5.353,0.208,10.66-0.155,16.014
		c-0.205,3.023-0.824,6.063-0.276,9.197C253.906,376.104,255.314,385.441,256.102,395.176z M225.785,313.889
		c-0.708,0.899-0.48,1.805-0.506,2.687c-0.229,7.623,1.42,15.022,2.729,22.457c0.322,1.827-0.613,4.024,1.455,5.419
		c0.148,0.1,0.007,0.611,0.021,0.933c0.074,1.622-0.042,3.136-0.596,4.765c-0.684,2.012,0.367,4.213,0.404,6.35
		c0.192,11.104,4.852,20.907,9.008,30.934c0.182-5.014,2.385-9.539,3.095-14.396c0.165-1.13,0.948-2.269,0.483-3.374
		c-2.234-5.324-0.976-10.896-1.272-16.354c-0.063-1.15-0.153-2.26-0.522-3.386C236.057,337.636,229.242,326.464,225.785,313.889z
		 M236.114,269.139c-1.987,0.772-2.819,3.498-5.381,3.762c-0.532,0.056-0.414,0.978-0.346,1.555
		c0.597,4.984,1.175,9.97,1.802,14.949c0.09,0.712-0.34,2.031,1.414,1.283c0.77-0.328,1.216,0.776,0.518,1.18
		c-2.084,1.199-1.288,2.988-1.165,4.613c0.179,2.377,0.535,4.74,0.753,7.115c0.664,7.227,1.157,14.479,3.483,21.434
		c0.48,1.438,0.937,2.887,1.403,4.33c0.676-4.164-0.238-8.127-0.436-12.133c-0.424-8.602,0.129-17.115,2.158-25.515
		c0.429-1.774,0.666-3.757-0.717-5.181c-1.273-1.312-1.591-1.987,0.195-3.131c1.15-0.735,1.102-1.996-0.493-2.56
		c-0.762-0.271-1.602-0.718-2.333-0.606c-2.68,0.408-1.508-1.088-0.87-1.871c0.713-0.875,1.179-2.039,0.706-2.691
		C235.25,273.518,237.641,271.341,236.114,269.139z M212.949,343.148c0.078-1.047-0.396-1.894-0.85-2.791
		c-1.849-3.662-4.13-7.125-5.24-11.133c-2.283-8.24-5.322-16.086-11.61-22.229c-0.594-0.581-0.933-1.955-1.989-1.38
		c-0.96,0.523-1.159,1.771-0.815,2.873c0.538,1.724,1.213,3.404,1.746,5.129c1.481,4.783,2.745,9.643,4.415,14.357
		c2.268,6.404,6.042,12.021,9.9,17.561c0.595,0.854,1.11,2.122,2.301,1.964c1.303-0.174,1.564-1.549,1.888-2.647
		C212.855,344.307,212.869,343.719,212.949,343.148z M255.768,436.04c7.027-26.562,10.719-53.769,15.59-80.746
		C264.458,381.881,255.721,408.111,255.768,436.04z M219.132,339.382c-0.263,0.054-0.526,0.106-0.789,0.159
		c0,1.884,0.053,3.77-0.014,5.648c-0.077,2.168-0.853,4.404,1.21,6.209c0.574,0.502,0.227,1.41-0.088,2.103
		c-0.31,0.679-0.694,1.369-0.496,2.125c1.762,6.706,1.162,13.78,3.295,20.44c2.687,8.39,4.472,17,5.961,25.675
		c0.469,2.726,1.033,5.435,1.555,8.151c-0.082-4.621-0.863-9.147-1.196-13.705c-0.538-7.351-2.956-14.547-1.803-22.035
		c0.086-0.555-0.006-1.158-0.122-1.717c-1.691-8.127-3.354-16.263-5.134-24.371C220.868,345.139,219.934,342.273,219.132,339.382z
		 M274.252,337.124c0.955-2.532,1.854-4.399,2.117-6.597c0.867-7.178,1.273-14.424,3.154-21.463
		c0.432-1.612,0.856-3.127,1.808-4.523c1.353-1.989,1.011-5.109-0.562-6.914c-0.519-0.593-1.09-0.757-1.746-0.412
		c-1.896,0.996-4.184,1.532-4.047,4.521c0.078,1.695-0.093,3.556-0.732,5.101c-2.918,7.026-1.885,14.267-1.314,21.454
		C273.145,331.027,272.93,333.878,274.252,337.124z M267.434,284.005c1.741,0.341,2.271,0.912,1.828,2.336
		c-0.441,1.421-1.297,1.495-2.433,1.388c-0.792-0.076-1.778-0.449-2.067,0.687c-0.975,3.815-3.255,7.405-1.674,11.653
		c0.914,2.455,1.424,5.066,2.585,7.437c0.552,1.125,0.726,3.065,2.142,2.968c1.59-0.107,1.521-2.093,1.883-3.369
		c2.055-7.258,1.307-14.654,0.994-22.026C270.578,282.424,270.521,282.393,267.434,284.005z M294.686,310.979
		c-4.123-1.696-5.598-1.652-6.525,0.467c-2.667,6.09-5.566,12.113-6.571,18.789c-0.942,6.263-1.851,12.529-3.603,18.639
		c-0.166,0.581-0.748,1.479,0.004,1.754c1.01,0.37,1.369-0.665,1.583-1.45c1.475-5.461,3.632-10.768,3.647-16.562
		c0.004-1.208,0.131-2.597,0.723-3.591c2.507-4.207,4.562-8.775,8.703-11.791c0.9-0.656,1.431-1.387,0.181-2.332
		c-0.853-0.646-1.71-1.596-1.32-2.688C291.916,311.064,293.287,311.295,294.686,310.979z M231.603,386.057
		c0.979,8.463,1.835,16.94,3.433,25.315c0.862,4.516,1.232,9.185,4.287,13.09C239.215,411.113,235.783,398.518,231.603,386.057z
		 M248.291,314.961c-1.57,2.559-1.057,5.24-1.99,7.536c-0.773,1.901-0.878,3.81,0.583,5.573c0.64,0.773,0.937,1.921,0.593,2.818
		c-1.188,3.102-0.411,6.408-1.116,9.5c-1.025,4.491,1.757,8.131,2.278,12.285c0.037-5.714,0.948-11.408-0.205-17.068
		c-0.232-1.137-0.822-2.285,0.107-3.263c1.049-1.104,1.01-2.392,0.908-3.694C249.105,324.232,248.707,319.82,248.291,314.961z
		 M361.47,139.674c0.712-0.059,1.943-0.296,3.158-0.234c1.97,0.1,2.058-1.605,2.301-2.647c0.279-1.193-1.168-0.656-1.834-0.93
		c-0.453-0.187-1.02-0.216-1.373-0.51c-1.738-1.446-3.282-0.08-4.713,0.517c-0.353,0.147-2.074,0.501-1.621,1.875
		c0.634,1.922-0.711,2.631-2.046,2.961c-1.856,0.459-2.199,2.303-3.429,3.33c-0.848,0.707,0.753,1.587,0.993,2.502
		c0.062,0.236,0.166,0.465,0.272,0.686c0.326,0.668-0.003,1.776,1.228,1.842c-0.062-1.218,1.789-1.612,1.48-2.575
		c-0.443-1.392,0.206-1.255,1.104-1.449c1.828-0.394,3.354-2.491,2.646-3.966C358.641,138.997,359.886,139.533,361.47,139.674z
		 M248.597,426.336c1.728-12.439,2.817-24.753,0.465-37.128c-0.101,0.489-0.257,0.96-0.287,1.438
		c-0.701,11.228-0.987,22.469-1.242,33.712C247.514,425.155,247.541,426.036,248.597,426.336z M226.088,273.682
		c-1.197,1.283,0.019,3.215-1.262,3.939c-2.494,1.415-1.807,3.383-1.432,5.332c0.314,1.639,0.143,3.264,0.184,4.895
		c0.024,0.985-0.104,2.146,0.568,2.832c1.004,1.021,0.838,1.894,0.467,3.09c-0.494,1.592,0.26,2.484,2.041,2.854
		c0.057-0.965-1.268-1.317-1.071-2.326c0.351-0.415,0.759-0.235,1.157-0.223c0.663,0.021,1.596,0.602,1.82-0.528
		c0.2-1.011-0.648-0.997-1.383-1.256c-1.46-0.516-0.513-1.137,0.089-1.707c0.77-0.729,1.517-1.408-0.435-1.447
		c-0.744-0.014-1.271-0.758-1.338-1.562c-0.059-0.69,0.427-1.021,1.059-1.131c0.793-0.135,1.148-0.619,1.048-1.389
		C227.107,281.262,226.595,277.473,226.088,273.682z M242.533,319.921c1.238-8.466,4.625-16.837,0.898-25.795
		C241.042,302.863,241.377,311.385,242.533,319.921z M223.414,335.902c0.205-1.516-0.434-2.852-0.898-4.215
		c-0.613-1.803-1.033-3.641-1.078-5.545c-0.069-2.953-0.074-5.908-0.146-8.861c-0.026-1.102-2.47-3.607-3.273-3.252
		c-1.603,0.712-2.346,1.992-1.646,3.808c0.266,0.688,0.435,1.42,0.74,2.089c1.605,3.52,3.013,7.105,4.269,10.77
		C221.979,332.438,222.026,334.4,223.414,335.902z M189.744,314.666c0.099-0.038,0.198-0.075,0.297-0.113
		c-0.59-1.832-1.181-3.664-1.77-5.496c-0.209-0.652-0.498-1.221-1.27-1.342c-1.105-0.175-1.129-0.859-1.025-1.814
		c0.295-2.711,0.243-2.709-2.162-3.78c-0.174-0.077-0.405-0.397-0.365-0.53c0.946-3.054-1.921-2.591-3.254-3.512
		c-0.377-0.26-0.959-0.512-1.352-0.051c-0.406,0.479,0.048,0.914,0.313,1.299C182.682,304.441,186.214,309.553,189.744,314.666z
		 M344.438,278.871c-2.168-0.639-5.008,0.043-5.039-3.456c-0.004-0.381-0.706-0.524-0.977-0.09
		c-1.259,2.034-3.799,3.351-3.463,6.308c0.08,0.7-0.328,1.469,0.451,1.989c0.817,0.548,1.43-0.05,2.199-0.257
		C340.355,282.631,341.14,279.01,344.438,278.871z M408.322,208.771c-1.248,2.934-2.31,2.081-3.442,0.381
		c-0.252-0.378-0.915-0.564-0.718-1.142c0.231-0.679,0.771-0.354,1.234-0.219c0.718,0.208,1.171-0.039,1.069-0.828
		c-0.078-0.609-0.477-1.251-1.12-1.034c-1.023,0.347-2.435,0.378-2.734,1.709c-0.232,1.033-0.595,1.67-1.692,1.749
		c-0.558,0.04-1.064,0.307-0.871,0.911c0.551,1.709-0.469,2.784-2.062,4.307c1.653-0.433,2.574,0.054,3.742,0.334
		c-0.505-1.196-1.15-2.324,0.799-2.249c1.151,0.044,0.817-0.713,0.688-1.357c-0.088-0.439-0.021-0.881,0.49-0.96
		c0.577-0.089,0.855,0.293,1.048,0.819c0.966,2.638,3.077,3.011,5.401,0.764C408.483,211.691,408.273,210.489,408.322,208.771z
		 M275.908,95.083c0.291,0.97-0.028,1.721-0.697,2.453c-0.622,0.68-0.623,1.521,0.007,2.227c0.57,0.638,1.369,0.651,2.021,0.229
		c0.732-0.474,1.506-1.04,1.289-2.142c-0.699-3.543-0.44-4.117,2.918-5.912c0.603-0.321,0.966-0.628,0.731-1.299
		c-0.526-1.509-1.993-1.312-3.108-1.476c-1.246-0.183-1.988,1.052-2.969,1.637C277.018,92.271,275.498,93.636,275.908,95.083z
		 M237.846,265.852c-1.764-0.805-3.036-1.265-1.652-2.685c0.922-0.944,1.197-1.935,0.241-3.038c-0.851-0.982-1.719-1.8-3.153-1.004
		c-0.802,0.443-1.554,0.434-2.131-0.456c-0.504-0.776-1.021-1.628-2.086-0.585c-0.637,0.624-1.561,1.122-1.132,2.216
		c0.572,1.462,1.258,0.763,1.926,0.031c0.064-0.071,0.366-0.045,0.449,0.04c1.009,1.041,1.672,2.346,2.876,3.277
		c0.859,0.666-0.627,1.324-0.545,2.434C234.115,264.652,235.554,266.18,237.846,265.852z M216.628,285.501
		c-0.224,1.544-0.54,2.462-1.647,2.371c-3.028-0.245-1.89,1.396-1.636,3.028c0.282,1.805,2.06,2.494,2.481,4.096
		c0.102,0.384,0.508,0.271,0.832,0.16c1.74-0.605,3.177-3.357,2.463-4.951C218.492,288.801,217.686,287.477,216.628,285.501z
		 M230.181,314.6c0.801-4.646-0.497-9.146-0.569-13.707c-0.037-2.382-2.131-1.444-3.17-1.514c-1.314-0.088-0.559,1.242-0.438,1.912
		C226.834,305.902,229.195,310.025,230.181,314.6z M215.421,109.777c-0.045-1.708-2.008-3.288-3.249-2.628
		c-2.145,1.139-4.076,2.47-4.252,5.271c-0.063,1.024,0.436,1.534,1.192,1.926c0.532,0.275,1.106,0.064,1.099-0.522
		c-0.025-1.762,1.166-1.164,2.043-1.13C214.363,112.775,215.143,111.499,215.421,109.777z M254.884,116.301
		c-0.216-0.874-1.231-0.168-1.387-0.856c-0.151-0.669,1.017-0.953,0.583-1.73c-0.111-0.199-0.35-0.463-0.532-0.466
		c-1.766-0.033-3.365-2.908-5.298-0.325c-0.113,0.152-0.547,0.265-0.679,0.174c-2.022-1.384-2.179,0.686-3.013,1.564
		c-0.493,0.521-1.015,1.032-0.326,1.637c0.795,0.697,1.707,1.38,2.875,1.082c0.714-0.183,1.013-0.68,0.853-1.508
		c-0.409-2.11,1.214-2.025,2.481-2.042c1.37-0.018,1.547,1.28,1.972,2.227c0.362,0.807,0.918,1.157,1.765,0.808
		C254.453,116.751,254.664,116.482,254.884,116.301z M348.248,119.038c0.04-0.831,0.109-1.703-0.553-1.93
		c-1.582-0.542-2.227-1.459-1.953-3.125c0.079-0.482-0.315-0.951-0.909-0.965c-0.65-0.015-0.771,0.52-0.873,1.003
		c-0.276,1.286-0.436,2.605-0.812,3.859c-0.85,2.827-0.893,2.811,1.8,2.486c0.233-0.029,0.546-0.04,0.713,0.085
		C347.861,122.1,347.761,120.014,348.248,119.038z M213.216,263.707c0.536-0.21,1.986,0.766,1.899-1.04
		c-0.059-1.22-0.197-2.44-0.398-3.646c-0.176-1.045-0.66-1.209-1.462-0.398c-1.694,1.709-3.016,4.004-5.956,3.822
		c-0.455-0.027-0.974,0.283-0.993,0.886c-0.006,0.203,0.147,0.508,0.318,0.601c0.466,0.254,0.72-0.16,1.015-0.428
		c0.934-0.847,1.984-0.585,3.002-0.247C211.411,263.514,212.125,263.967,213.216,263.707z"/>
	<path fill="#FFFFFF" d="M256.102,408.176c-0.787-9.732-2.194-19.07-3.82-28.369c-0.549-3.135,0.072-6.175,0.277-9.199
		c0.362-5.353,0.604-10.66,0.154-16.012c-0.24-2.859-0.188-5.68,0.542-8.559c0.951-3.756-0.862-7.462-0.938-11.241
		c-0.017-0.817-0.26-1.628-0.295-2.444c-0.184-4.277,0.256-8.515-1.459-12.746c-2.179-5.377,0.184-10.871,0.881-16.258
		c0.404-3.123,0.181-6.436,1.887-9.771c0.129,1.389,0.432,2.31,1.8,2.246c0.606-0.027,0.617,0.61,0.704,1.11
		c0.177,1.017-1.193,2.752,1.504,2.592c2.27-0.135,2.491,0.115,3.905-0.824c-0.271,2.3-0.37,4.298-2.334,5.523
		c-1.144,0.715-1.573,1.568-1.237,2.885c0.977,3.824,1.917,7.654,2.859,11.486c0.914,3.713,2.472,7.141,4.494,10.372
		c1.816,2.903,1.84,6.319,2.135,9.491c0.607,6.546,0.724,13.139,1.874,19.637c0.405,2.287-0.529,4.432-1.071,6.512
		c-3.736,14.318-8.165,28.455-11.453,42.896C256.477,407.648,256.352,407.772,256.102,408.176z"/>
	<path fill="#FFFFFF" d="M225.785,326.889c3.457,12.575,10.271,23.748,14.299,36.033c0.369,1.126,0.459,2.234,0.522,3.387
		c0.297,5.457-0.962,11.027,1.272,16.353c0.465,1.106-0.318,2.243-0.483,3.374c-0.71,4.855-2.913,9.382-3.095,14.395
		c-4.156-10.025-8.815-19.83-9.008-30.933c-0.037-2.138-1.088-4.338-0.404-6.351c0.554-1.627,0.67-3.142,0.596-4.764
		c-0.014-0.32,0.128-0.833-0.021-0.934c-2.068-1.394-1.133-3.592-1.455-5.418c-1.31-7.436-2.959-14.834-2.729-22.457
		C225.305,328.693,225.077,327.788,225.785,326.889z"/>
	<path fill="#FFFFFF" d="M236.114,282.139c1.526,2.202-0.864,4.379,0.692,6.533c0.473,0.652,0.007,1.816-0.706,2.691
		c-0.638,0.783-1.81,2.279,0.87,1.871c0.731-0.11,1.571,0.338,2.333,0.606c1.595,0.563,1.644,1.823,0.493,2.56
		c-1.786,1.144-1.469,1.819-0.195,3.131c1.383,1.424,1.146,3.404,0.717,5.181c-2.029,8.399-2.582,16.913-2.158,25.515
		c0.197,4.006,1.111,7.969,0.436,12.133c-0.467-1.443-0.923-2.892-1.403-4.33c-2.326-6.955-2.819-14.207-3.483-21.434
		c-0.218-2.375-0.574-4.738-0.753-7.115c-0.123-1.625-0.919-3.414,1.165-4.613c0.698-0.402,0.252-1.508-0.518-1.18
		c-1.754,0.748-1.324-0.571-1.414-1.283c-0.627-4.979-1.205-9.965-1.802-14.949c-0.068-0.577-0.187-1.499,0.346-1.555
		C233.295,285.636,234.127,282.911,236.114,282.139z"/>
	<path fill="#FFFFFF" d="M212.949,356.148c-0.08,0.569-0.094,1.158-0.255,1.703c-0.323,1.1-0.585,2.475-1.888,2.647
		c-1.19,0.158-1.706-1.11-2.301-1.964c-3.858-5.539-7.633-11.155-9.9-17.561c-1.67-4.716-2.934-9.574-4.415-14.357
		c-0.533-1.725-1.208-3.405-1.746-5.129c-0.344-1.104-0.145-2.35,0.815-2.873c1.057-0.575,1.396,0.799,1.989,1.38
		c6.288,6.144,9.327,13.987,11.61,22.229c1.11,4.008,3.392,7.471,5.24,11.133C212.553,354.256,213.027,355.102,212.949,356.148z"/>
	<path fill="#FFFFFF" d="M337.525,95.553c0.029-1.139-0.217-2.482,1.089-3.039c1.423-0.607,2.453,0.085,2.71,1.561
		c0.195,1.123,0.158,2.297,0.126,3.446c-0.047,1.681-0.256,3.415,2.395,2.49c0.482-0.168,0.812,0.162,0.841,0.625
		c0.056,0.88-0.22,1.942-1.106,1.94c-2.308-0.006-3.177,2.215-4.995,2.904c-0.464,0.176-0.943,0.885-0.686,1.17
		c1.271,1.409,0.15,2.801,0.095,4.173c-0.093,2.301,0.031,4.438,2.147,5.936c0.422,0.297,1.147,0.809,0.724,1.385
		c-0.588,0.796-1.14-0.066-1.653-0.354c-1.396-0.781-2.682-0.674-3.833,0.442c-0.554,0.537-0.869,1.221-0.711,2.011
		c0.193,0.959,0.973,0.956,1.734,1c0.49,0.029,1.346-0.35,1.188,0.674c-0.102,0.662-0.427,1.106-1.374,0.954
		c-2.405-0.387-5.275,2.701-4.269,4.903c0.846,1.846-0.213,3.085-0.599,4.427c-0.742,2.596-1.698,5.01-0.742,7.805
		c0.274,0.803,1.125,2.499-0.979,2.871c-0.472,0.083-0.374,0.671-0.174,1.049c1.004,1.897-2.357,1.852-1.604,3.628
		c-0.479,0.166-0.827-0.097-1.043-0.441c-0.692-1.105-1.713-1.059-2.983-0.62c0.319-1.463,1.176-1.4,2.085-1.441
		c1.63-0.075,2.236-0.955,2.099-2.625c-0.27-3.222,0.559-6.565-1.138-9.62c1.984-2.293-0.182-4.96,0.423-6.945
		c0.725-2.381,1.035-4.27,0.082-6.5c-0.289-0.677,0.276-1.351,1.01-1.418c1.892-0.173,2.48-0.724,2.211-2.933
		c-0.269-2.197,0.661-4.54,1.072-6.817c0.026-0.144,0.152-0.402,0.159-0.4c3.036,1.056,3.279-3.284,5.958-3.083
		c0.673,0.051,0.483-0.847,0.328-1.426c-0.39-1.432-0.111-2.713,0.787-3.932c1.523-2.066,1.162-2.972-1.396-3.825
		C337.499,95.527,337.525,95.553,337.525,95.553z"/>
	<path fill="#FFFFFF" d="M255.768,449.04c-0.047-27.929,8.69-54.159,15.59-80.746C266.484,395.271,262.795,422.478,255.768,449.04z"
		/>
	<path fill="#FFFFFF" d="M219.132,352.382c0.802,2.894,1.736,5.757,2.379,8.685c1.779,8.107,3.442,16.242,5.134,24.369
		c0.116,0.56,0.208,1.162,0.122,1.717c-1.153,7.488,1.265,14.687,1.803,22.035c0.333,4.559,1.114,9.084,1.196,13.706
		c-0.521-2.718-1.086-5.427-1.555-8.151c-1.489-8.675-3.274-17.285-5.961-25.676c-2.133-6.659-1.533-13.733-3.295-20.439
		c-0.198-0.756,0.187-1.445,0.496-2.125c0.314-0.691,0.662-1.6,0.088-2.104c-2.062-1.803-1.287-4.039-1.21-6.207
		c0.066-1.881,0.014-3.767,0.014-5.649C218.605,352.488,218.869,352.436,219.132,352.382z"/>
	<path fill="#FFFFFF" d="M274.252,350.124c-1.322-3.246-1.107-6.097-1.324-8.833c-0.568-7.188-1.603-14.428,1.315-21.454
		c0.641-1.545,0.812-3.405,0.733-5.101c-0.138-2.989,2.148-3.525,4.047-4.521c0.656-0.345,1.228-0.181,1.744,0.412
		c1.573,1.805,1.916,4.925,0.562,6.914c-0.95,1.396-1.376,2.911-1.809,4.523c-1.881,7.039-2.287,14.285-3.153,21.463
		C276.104,345.725,275.207,347.592,274.252,350.124z"/>
	<path fill="#FFFFFF" d="M267.434,297.005c3.088-1.612,3.146-1.581,3.258,1.07c0.312,7.372,1.061,14.769-0.994,22.026
		c-0.361,1.276-0.292,3.262-1.883,3.369c-1.416,0.098-1.59-1.843-2.142-2.968c-1.161-2.369-1.671-4.981-2.585-7.437
		c-1.581-4.248,0.699-7.838,1.674-11.653c0.289-1.136,1.275-0.763,2.067-0.687c1.136,0.107,1.989,0.032,2.433-1.388
		C269.703,297.917,269.175,297.346,267.434,297.005z"/>
	<path fill="#FFFFFF" d="M294.686,323.979c-1.397,0.315-2.77,0.086-3.18,1.232c-0.39,1.092,0.469,2.043,1.32,2.688
		c1.25,0.947,0.721,1.677-0.18,2.332c-4.144,3.017-6.197,7.586-8.703,11.793c-0.592,0.994-0.721,2.381-0.723,3.59
		c-0.018,5.796-2.175,11.103-3.648,16.562c-0.213,0.785-0.573,1.82-1.583,1.45c-0.753-0.274-0.171-1.173-0.003-1.754
		c1.75-6.108,2.658-12.376,3.602-18.64c1.005-6.674,3.904-12.698,6.571-18.787C289.088,322.326,290.562,322.282,294.686,323.979z"/>
	<path fill="#FFFFFF" d="M231.603,399.057c4.181,12.461,7.612,25.058,7.72,38.405c-3.055-3.905-3.425-8.574-4.287-13.09
		C233.438,415.997,232.582,407.52,231.603,399.057z"/>
	<path fill="#FFFFFF" d="M248.291,327.961c0.416,4.859,0.814,9.271,1.158,13.688c0.102,1.305,0.141,2.593-0.908,3.695
		c-0.93,0.979-0.34,2.127-0.107,3.262c1.153,5.66,0.242,11.355,0.205,17.069c-0.521-4.153-3.304-7.794-2.278-12.286
		c0.705-3.091-0.072-6.397,1.116-9.498c0.344-0.898,0.047-2.046-0.593-2.818c-1.461-1.766-1.356-3.674-0.583-5.574
		C247.234,333.201,246.721,330.52,248.291,327.961z"/>
	<path fill="#FFFFFF" d="M361.47,152.674c-1.584-0.141-2.829-0.677-1.83,1.403c0.708,1.475-0.818,3.572-2.646,3.966
		c-0.898,0.194-1.549,0.058-1.104,1.449c0.309,0.962-1.542,1.357-1.48,2.575c-1.229-0.066-0.9-1.174-1.228-1.842
		c-0.106-0.221-0.212-0.45-0.272-0.686c-0.24-0.915-1.841-1.795-0.993-2.502c1.229-1.027,1.571-2.871,3.429-3.33
		c1.335-0.33,2.681-1.039,2.046-2.961c-0.453-1.374,1.27-1.728,1.621-1.875c1.431-0.597,2.975-1.963,4.713-0.517
		c0.354,0.294,0.92,0.323,1.373,0.51c0.666,0.274,2.113-0.263,1.834,0.93c-0.243,1.042-0.331,2.748-2.301,2.647
		C363.413,152.378,362.182,152.615,361.47,152.674z"/>
	<path fill="#FFFFFF" d="M248.597,439.336c-1.056-0.3-1.083-1.181-1.064-1.978c0.255-11.243,0.541-22.484,1.242-33.712
		c0.03-0.479,0.187-0.949,0.287-1.438C251.414,414.583,250.324,426.896,248.597,439.336z"/>
	<path fill="#FFFFFF" d="M226.088,286.682c0.507,3.791,1.02,7.58,1.513,11.373c0.101,0.77-0.255,1.254-1.048,1.389
		c-0.632,0.109-1.117,0.439-1.059,1.131c0.067,0.806,0.594,1.55,1.338,1.562c1.951,0.039,1.204,0.719,0.435,1.447
		c-0.602,0.57-1.549,1.191-0.089,1.707c0.734,0.259,1.583,0.245,1.383,1.256c-0.225,1.13-1.157,0.551-1.82,0.528
		c-0.398-0.013-0.807-0.192-1.157,0.223c-0.196,1.009,1.128,1.361,1.071,2.327c-1.781-0.371-2.535-1.266-2.041-2.855
		c0.371-1.196,0.537-2.069-0.467-3.09c-0.673-0.686-0.544-1.847-0.568-2.832c-0.041-1.631,0.131-3.256-0.184-4.895
		c-0.375-1.949-1.062-3.917,1.432-5.332C226.106,289.896,224.891,287.965,226.088,286.682z"/>
	<path fill="#FFFFFF" d="M242.533,332.921c-1.156-8.536-1.491-17.058,0.898-25.795C247.158,316.084,243.771,324.455,242.533,332.921
		z"/>
	<path fill="#FFFFFF" d="M223.414,348.902c-1.388-1.502-1.436-3.465-2.033-5.209c-1.256-3.662-2.663-7.25-4.269-10.769
		c-0.306-0.669-0.475-1.399-0.74-2.089c-0.699-1.814,0.044-3.096,1.646-3.807c0.804-0.356,3.247,2.15,3.273,3.25
		c0.071,2.955,0.076,5.91,0.146,8.863c0.045,1.903,0.465,3.741,1.078,5.545C222.98,346.052,223.619,347.387,223.414,348.902z"/>
	<path fill="#FFFFFF" d="M189.744,327.666c-3.53-5.113-7.062-10.225-10.587-15.341c-0.266-0.386-0.72-0.818-0.313-1.298
		c0.393-0.461,0.975-0.211,1.352,0.05c1.333,0.921,4.2,0.458,3.254,3.512c-0.04,0.132,0.191,0.453,0.365,0.53
		c2.405,1.07,2.457,1.07,2.162,3.781c-0.104,0.953-0.08,1.64,1.025,1.813c0.771,0.121,1.061,0.688,1.27,1.341
		c0.589,1.834,1.18,3.665,1.77,5.497C189.942,327.591,189.843,327.628,189.744,327.666z"/>
	<path fill="#FFFFFF" d="M344.438,291.871c-3.298,0.139-4.081,3.76-6.827,4.494c-0.771,0.207-1.382,0.805-2.199,0.257
		c-0.779-0.521-0.371-1.289-0.451-1.989c-0.336-2.957,2.204-4.271,3.463-6.308c0.271-0.435,0.974-0.291,0.977,0.09
		C339.43,291.914,342.27,291.232,344.438,291.871z"/>
	<path fill="#FFFFFF" d="M408.322,221.771c-0.049,1.718,0.161,2.92,1.834,3.185c-2.324,2.247-4.437,1.874-5.401-0.764
		c-0.191-0.526-0.471-0.908-1.048-0.819c-0.513,0.079-0.578,0.521-0.49,0.96c0.129,0.644,0.463,1.401-0.688,1.357
		c-1.949-0.075-1.304,1.053-0.8,2.249c-1.168-0.28-2.088-0.768-3.741-0.334c1.593-1.523,2.611-2.598,2.062-4.307
		c-0.193-0.604,0.313-0.871,0.871-0.911c1.099-0.078,1.46-0.716,1.692-1.749c0.301-1.331,1.711-1.362,2.734-1.709
		c0.645-0.218,1.042,0.424,1.12,1.034c0.102,0.789-0.353,1.036-1.07,0.828c-0.462-0.134-1.002-0.459-1.233,0.219
		c-0.197,0.578,0.466,0.764,0.718,1.142C406.014,223.852,407.074,224.705,408.322,221.771z"/>
	<path fill="#FFFFFF" d="M275.908,108.083c-0.41-1.447,1.109-2.811,0.191-4.282c0.979-0.585,1.721-1.82,2.969-1.637
		c1.115,0.164,2.582-0.033,3.107,1.476c0.233,0.671-0.13,0.978-0.73,1.299c-3.359,1.795-3.618,2.369-2.92,5.912
		c0.218,1.102-0.555,1.668-1.287,2.142c-0.651,0.422-1.45,0.409-2.021-0.229c-0.63-0.705-0.629-1.547-0.007-2.227
		C275.88,109.803,276.199,109.052,275.908,108.083z"/>
	<path fill="#FFFFFF" d="M237.846,278.852c-2.292,0.328-3.73-1.199-5.207,0.23c-0.082-1.107,1.404-1.768,0.545-2.434
		c-1.204-0.933-1.867-2.236-2.876-3.277c-0.083-0.085-0.385-0.111-0.449-0.04c-0.668,0.729-1.354,1.431-1.926-0.031
		c-0.429-1.094,0.495-1.592,1.132-2.216c1.064-1.043,1.582-0.191,2.086,0.585c0.577,0.89,1.329,0.899,2.131,0.456
		c1.435-0.796,2.303,0.021,3.153,1.004c0.956,1.104,0.681,2.093-0.241,3.038C234.81,277.587,236.082,278.047,237.846,278.852z"/>
	<path fill="#FFFFFF" d="M216.628,298.501c1.058,1.976,1.864,3.3,2.493,4.704c0.714,1.594-0.723,4.346-2.463,4.951
		c-0.324,0.111-0.73,0.224-0.832-0.16c-0.422-1.602-2.199-2.291-2.481-4.096c-0.254-1.633-1.393-3.273,1.636-3.028
		C216.088,300.963,216.404,300.045,216.628,298.501z"/>
	<path fill="#FFFFFF" d="M230.181,327.6c-0.985-4.574-3.347-8.695-4.177-13.309c-0.121-0.67-0.877-2,0.438-1.912
		c1.039,0.068,3.133-0.868,3.17,1.514C229.684,318.454,230.981,322.952,230.181,327.6z"/>
	<path fill="#FFFFFF" d="M215.421,122.777c-0.278,1.721-1.058,2.998-3.167,2.916c-0.877-0.034-2.068-0.632-2.043,1.13
		c0.008,0.586-0.566,0.798-1.099,0.521c-0.757-0.392-1.256-0.901-1.192-1.926c0.176-2.801,2.107-4.132,4.252-5.271
		C213.413,119.49,215.376,121.07,215.421,122.777z"/>
	<path fill="#FFFFFF" d="M254.884,129.301c-0.22,0.181-0.431,0.451-0.706,0.564c-0.847,0.349-1.402-0.001-1.765-0.808
		c-0.425-0.947-0.603-2.245-1.972-2.227c-1.268,0.017-2.891-0.068-2.481,2.042c0.16,0.829-0.139,1.326-0.853,1.508
		c-1.168,0.298-2.08-0.385-2.875-1.082c-0.688-0.604-0.167-1.116,0.326-1.637c0.834-0.878,0.99-2.948,3.013-1.564
		c0.132,0.09,0.565-0.022,0.679-0.174c1.933-2.583,3.532,0.292,5.298,0.325c0.185,0.003,0.421,0.267,0.532,0.466
		c0.434,0.777-0.734,1.061-0.583,1.73C253.652,129.133,254.668,128.427,254.884,129.301z"/>
	<path fill="#FFFFFF" d="M348.248,132.038c-0.487,0.976-0.387,3.062-2.587,1.413c-0.167-0.125-0.479-0.114-0.713-0.085
		c-2.691,0.325-2.648,0.341-1.8-2.486c0.376-1.254,0.534-2.574,0.812-3.859c0.104-0.483,0.223-1.018,0.873-1.003
		c0.594,0.014,0.988,0.483,0.909,0.965c-0.272,1.666,0.371,2.583,1.953,3.125C348.357,130.335,348.288,131.208,348.248,132.038z"/>
	<path fill="#FFFFFF" d="M213.216,276.707c-1.091,0.26-1.805-0.193-2.575-0.45c-1.018-0.338-2.068-0.6-3.002,0.247
		c-0.295,0.268-0.549,0.682-1.015,0.428c-0.171-0.093-0.324-0.396-0.318-0.601c0.02-0.603,0.538-0.913,0.993-0.886
		c2.94,0.182,4.262-2.113,5.956-3.822c0.802-0.811,1.286-0.646,1.462,0.398c0.201,1.203,0.34,2.426,0.398,3.646
		C215.202,277.473,213.752,276.497,213.216,276.707z"/>
</g>
</svg>
