<?xml version="1.0" encoding="utf-8"?>
<!-- Generator: Adobe Illustrator 16.0.0, SVG Export Plug-In . SVG Version: 6.00 Build 0)  -->
<!DOCTYPE svg PUBLIC "-//W3C//DTD SVG 1.1//EN" "http://www.w3.org/Graphics/SVG/1.1/DTD/svg11.dtd">
<svg version="1.1" id="Layer_1" xmlns="http://www.w3.org/2000/svg" xmlns:xlink="http://www.w3.org/1999/xlink" x="0px" y="0px"
	 width="500px" height="500px" viewBox="0 0 500 500" enable-background="new 0 0 500 500" xml:space="preserve">
<circle fill="#FFFFFF" cx="249.316" cy="249.316" r="249.316"/>
<g>
	<path fill="#1E293F" d="M299.266,461.091c0.014-0.505,0.03-1.009,0.043-1.514c0.004-0.158,0.009-0.316,0.013-0.475
		c-7.684-0.548-15.343-1.396-23.067-1.45c-4.23-0.03-8.458-0.599-12.686-0.938c-1.437-0.116-2.354-0.568-1.272-2.183
		c0.859-1.284,0.711-2.726,0.49-4.121c-2.172-13.768-2.603-27.653-2.849-41.548c-0.116-6.585-0.084-13.171-0.006-19.755
		c0.131-10.947-0.406-21.903,0.442-32.842c0.069-0.894-0.034-1.859-0.31-2.709c-0.58-1.785-0.623-3.592-0.662-5.431
		c-0.062-2.924,0.273-5.815,0.479-8.72c0.324-4.582,4.18-9.133,8.379-11.088c3.131-1.457,7.514-1.536,8.69-5.998
		c0.062-0.23,0.508-0.389,0.801-0.524c1.886-0.88,3.54-0.958,5.146,0.792c1.612,1.758,4.861,1.018,5.547-1.185
		c0.396-1.275,0.77-1.431,1.873-0.666c3.022,2.091,3.281,2,4.781-1.48c0.59-1.366,1.116-2.639,2.994-2.338
		c0.621,0.099,1.467-0.271,1.592,0.697c0.094,0.729-0.578,0.935-1.162,1.062c-1.344,0.287-2.297,0.949-2.475,2.424
		c-0.175,1.465,0.872,2.021,1.895,2.631c0.496,0.295,0.932,0.699,1.385,1.064c0.697,0.562,1.387,1.042,2.096,0.023
		c0.715-1.028,1.107-0.531,1.608,0.251c0.834,1.301,1.394,2.614,1.443,4.182c2.146-0.829,4.3-1.551,6.429-2.148
		c2.136-0.6,4.297-1.038,6.472-1.359c-0.034-0.01-0.067-0.021-0.102-0.03c-3.955-1.05-4.461-1.519-4.559-5.523
		c-0.01-0.42-0.115-0.858,0.301-1.116c0.447-0.277,1.022,0.021,1.042,0.334c0.112,1.838,3.514,1.71,2.49,4.2
		c-0.024,0.058,0.459,0.449,0.732,0.486c1.585,0.209,3.108,0.621,4.578,1.162c3.535-0.23,7.094-0.139,10.643,0.24
		c2.283,0.244,4.567,0.54,6.855,0.786c0.36-1.723,1.554-2.062,2.739-0.683c0.65,0.756,1.074,0.785,1.867,0.453
		c4.013-1.686,8.005-1.726,11.975-0.619c0.171-0.055,0.346-0.095,0.516-0.152c0.67-0.286,2.234-0.929,2.491-1.06
		c2.261-1.156,4.472-2.396,6.68-3.646c0.525-0.85,1.038-1.705,1.562-2.547c2.678-4.294,2.15-6.459-1.673-9.95
		c-2.348-2.144-2.665-6.733-0.379-8.958c2.311-2.246,4.728-4.448,7.774-5.717c7.346-3.057,10.988-8.586,11.031-16.497
		c0.016-2.947-0.756-4.003-3.641-4.368c-3.29-0.417-6.621-0.512-9.936-0.695c-0.646-0.035-1.589,0.383-1.834-0.3
		c-0.85-2.366-2.479-4.585-1.984-7.264c0.283-1.533,0.037-2.712-0.992-3.888c-1.353-1.547-0.355-3.963,1.688-4.213
		c1.731-0.211,3.473-0.352,5.213-0.498c0.754-0.063,1.836-0.011,1.991-0.734c0.559-2.602,2.797-4.309,3.157-7.153
		c0.453-3.555-0.049-6.989-0.273-10.442c-0.3-4.6-3.218-6.199-7.545-4.531c-2.241,0.863-4.245,2.319-6.739,2.557
		c-1.493,0.143-0.535,2.915-2.062,2.426c-0.854-0.273-1.296-2.003-2.649-2.327c-0.088-0.021-0.123-0.261-0.183-0.401
		c3.317-0.992,4.051-2.25,2.533-4.312c-0.471-0.642-1.11-0.977-1.854-1.181c-0.596-0.164-1.106-0.477-1.133-1.163
		c-0.027-0.711,0.494-1.002,1.087-1.177c1.894-0.557,1.54-1.623,0.64-2.811c-0.402-0.53-0.887-1.012-1.208-1.586
		c-1.099-1.956-0.649-2.953,1.538-3.218c1.449-0.175,2.703-0.82,4.01-1.335c0.751-0.295,1.13-0.982,1.021-1.827
		c-0.07-0.542-0.435-1.089-0.955-0.958c-2.368,0.596-3.678-0.734-4.994-2.378c-0.604-0.756-1.699-0.486-2.615-0.357
		c-1.758,0.249-2.324-0.897-3.248-2.368c2.806,0.35,5.12-0.502,7.296,0.608c0.229,0.118,0.685-0.03,0.953-0.19
		c2.282-1.361,4.799-1.204,7.299-1.196c3.337,0.01,5.887-1.235,7.609-4.27c1.721-3.033,3.218-6.219,5.537-8.895
		c0.408-0.473,0.574-1.195,0.738-1.832c1.044-4.056,1.207-8.241,1.462-12.379c0.222-3.616-2.303-5.933-5.061-7.786
		c-1.975-1.327-3.906-0.968-5.795,1.249c1.639-6.134-3.188-6.662-6.668-8.148c0.435-1.028,1.106-0.835,1.645-0.892
		c1.164-0.122,1.916-0.644,1.836-1.896c-0.091-1.446-1.16-1.721-2.32-1.654c-0.645,0.037-1.287,0.292-1.91,0.509
		c-0.88,0.306-1.498-0.011-1.833-0.798c-0.491-1.151-0.367-2.35,0.313-3.352c0.681-1.006,1.313-0.123,1.835,0.316
		c1.109,0.936,2.289,0.818,3.529,0.387c4.285-1.491,5.675-8.982,2.341-12.201c-3.574-3.45-7.512-6.607-9.644-11.304
		c-0.374-0.825-1.031-1.072-1.815-0.436c-0.721,0.583-1.427,1.966-2.392,0.82c-0.8-0.948,0.579-1.468,1.164-2.093
		c1.214-1.296,1.283-2.763,0.109-4.009c-0.6-0.635-1.674-0.823-2.994-1.423c1.726-0.626,3.725-0.462,3.676-2.501
		c-0.065-2.723,0.959-5.229,1.331-7.862c0.514-3.652-1.31-5.944-5.009-6.617c-3.306-0.601-6.666-0.13-9.949-0.809
		c-0.868-0.179-1.962,0.019-2.016,0.969c-0.108,1.888-2.308,3.451-0.43,5.659c-2.893-0.818-3.023-1.075-1.917-3.041
		c1.043-1.853,0.489-5.777-1.017-7.321c-0.552-0.566-1.608-1.612-0.593-1.921c1.562-0.476,3.137-2.479,5.122-0.438
		c1.251,1.287,2.667,0.919,3.854-0.518c2.034-2.464,1.662-4.064-1.328-5.199c-0.698-0.265-1.381-0.582-2.095-0.795
		c-0.694-0.208-1.667,0.009-1.943-0.845c-0.318-0.987,0.62-1.423,1.225-1.966c1.764-1.587,1.755-2.486-0.062-3.987
		c-0.577-0.477-1.171-0.943-1.799-1.349c-2.516-1.623-3.561-1.228-4.385,1.65c-0.165,0.576-0.339,1.139-0.859,1.472
		c-0.441,0.283-0.945,0.467-1.176-0.264c-0.359-1.146,2.049-4.804,3.257-5.013c2.667-0.462,4.276,1.391,6.112,2.754
		c0.63,0.468,1.16,1.595,2.042,0.968c0.954-0.677,0.339-1.843-0.156-2.469c-1.949-2.463-3.379-5.435-5.966-7.272
		c-1.843-1.308-3.555-3.42-6.419-2.451c-0.746,0.252-4.961-4.795-4.82-5.576c0.089-0.491,0.494-0.605,0.903-0.726
		c2.35-0.693,1.492-2.208,0.832-3.559c-0.818-1.672-2.026-1.832-3.417-0.617c-0.604,0.528-1.279,0.77-2.075,0.573
		c-3.178-0.787-4.522-2.851-4.189-6.181c0.105-1.061,0.643-1.849,1.068-2.745c0.744-1.565-0.227-2.982-1.913-2.768
		c-2.525,0.322-5.049,1.174-7.058-1.418c-0.458-0.592-1.666,0.304-2.568-0.391c-2.357-1.815-3.633-1.586-5.535,0.76
		c-0.631,0.78-1.013,2.291-2.398,1.077c-1.156-1.014-3.384-1.73-2.281-3.843c0.905-1.733,1.506-3.126-0.219-4.607
		c-0.257-0.219-0.32-0.614-0.035-0.892c0.272-0.268,0.674-0.231,0.899,0.012c1.076,1.171,2.683,0.764,3.94,1.375
		c1.399,0.68,2.441,0.576,2.655-1.256c0.169-1.445,0.878-3.232-1.677-3.177c-1.97,0.043-1.779-1.152-0.967-2.011
		c1.648-1.739,1.354-2.972,0.628-5.287c-0.908-2.896-2.556-2.918-4.508-3.015c-2.123-0.106-4.216,0.714-6.277,1.091
		c-1.916,0.352-3.855,1.454-5.928,1.939c-1.338,0.313-2.22,0.097-3.127-0.814c-3.267-3.28-6.881-3.773-11.23-1.59
		c-0.689,0.347-1.59,0.653-2.1,0.06c-0.658-0.763,0.209-1.368,0.732-1.817c0.717-0.614,1.596-1.052,0.719-2.177
		c-1.292-1.656-5.65-1.218-6.508,0.749c-0.543,1.246-1.562,1.294-2.15,0.608c-1.932-2.256-4.433-1.388-6.758-1.578
		c-0.746-0.061-1.947,0.59-2.119-0.565c-0.166-1.104,0.094-2.708,1.323-2.975c2.54-0.551,4.638-2.293,7.271-2.475
		c0.736-0.051,1.592,0.047,1.871-0.881c0.259-0.853-0.344-1.422-0.883-1.936c-1.232-1.176-2.191-2.473-2.49-4.221
		c-0.213-1.245-1.178-1.569-2.28-1.341c-1.402,0.29-2.212-0.249-2.718-1.533c-0.315-0.804-0.908-1.697-1.851-1.058
		c-1.296,0.879-1.438,0.05-1.879-0.83c-1.147-2.285-2.307-4.315-5.661-3.425c-1.405,0.373-3.101-0.194-4.55,0.695
		c-0.35,0.215-0.918,0.342-1.155-0.044c-1.734-2.814-2.974-1.699-4.188,0.437c-0.232,0.411-0.678,0.838-1.115,0.973
		c-3.005,0.931-2.708,3.059-2.072,5.375c0.264,0.961,0.514,1.948,0.58,2.936c0.048,0.73,1.249,1.602,0.062,2.166
		c-1.058,0.503-1.655-0.448-2.086-1.286c-0.923-1.794-1.825-1.547-2.956-0.138c-0.827,1.029-1.707,2.302-2.843,2.733
		c-1.845,0.7-3.044,1.04-1.552,3.311c0.621,0.946-0.513,1.978-1.324,2.696c-0.355,0.315-0.812,0.184-1.04-0.261
		c-1.208-2.352-3.198-4.451-1.911-7.525c0.386-0.92,0.119-2.144,0.035-3.22c-0.083-1.066-0.647-2.348-1.74-1.962
		c-1.963,0.693-4.178-1.131-5.887,0.76c-0.139,0.154-0.123,0.478-0.121,0.723c0.018,1.429-0.66,1.35-1.536,0.687
		c-0.657-0.498-1.386-0.977-1.54-1.889c-0.189-1.131-0.689-1.819-1.987-1.727c-1.365,0.096-1.375-0.703-0.816-1.581
		c1.591-2.501-0.102-4.063-1.608-5.618c-0.68-0.703-1.703-1.058-2.179-2.006c-0.667,0-1.334,0-2.01,0.01
		c0.652,1.783,0.211,3.447-0.47,5.122c-0.261,0.643,0.11,1.696-0.87,1.832c-0.842,0.118-0.837-0.89-1.168-1.418
		c-1.473-2.346-2.357-2.362-3.709-0.04c-1.129,1.939-3.138,2.55-5.108,1.353c-1.921-1.169-3.3-0.917-4.204,1.174
		c-0.314,0.726-0.862,1.215-1.412,1.719c-1.051,0.962-1.333,2.13-0.748,3.4c0.739,1.603,0.745,3.666,2.803,4.48
		c0.798,0.316,0.567,1.029,0.151,1.442c-2.245,2.225-2.701,5.507-4.734,7.862c-1.326,1.536-0.779,2.803,1.273,3.07
		c0.985,0.128,2.023-0.053,2.982,0.158c1.002,0.221,2.33,0.392,2.348,1.804c0.015,1.194-0.756,1.884-1.735,2.723
		c-2.124,1.818-5.457,0.885-7.121,3.45c-0.117,0.181-0.644,0.243-0.906,0.15c-0.486-0.172-0.529-0.718-0.286-1.041
		c0.978-1.3,0.279-3.069,1.454-4.41c0.793-0.905-0.513-2.721-1.566-2.262c-2.256,0.985-4.459-0.213-6.721,0.127
		c-1.525,0.229-3.18-0.354-4.58-1.564c-1.357-1.175-3.337-0.887-5.045-0.947c-1.336-0.048-1.344,1.51-1.913,2.369
		c-0.987,1.492-5.156,2.386-6.504,1.364c-4.16-3.156-10.514-0.848-11.584,4.226c-0.078,0.369-0.003,0.831,0.16,1.175
		c0.161,0.339,0.549,0.272,0.877,0.107c0.876-0.442,1.838-2.063,2.661-0.775c0.691,1.08-1.434,1.234-1.856,2.204
		c-0.095,0.22-0.299,0.4-0.475,0.577c-1.678,1.682-3.328,1.49-4.538-0.604c-0.423-0.731-0.848-1.246-1.745-1.012
		c-0.91,0.238-1.093,0.891-0.965,1.744c0.222,1.479-0.412,2.243-1.94,2.139c-0.973-0.066-1.664,0.26-1.79,1.288
		c-0.384,3.137,1.269,5.707,2.434,8.399c0.245,0.564,0.963,0.541,1.558,0.604c2.203,0.234,2.825,1.405,1.682,3.276
		c-0.91,1.491-2.327,2.352-4.007,2.771c-1.921,0.478-2.552,2.117-2.962,3.684c-0.418,1.595,1.224,1.632,2.172,2.205
		c1.461,0.883,2.333,2.392,3.148,3.793c0.573,0.983-0.758,1.707-1.243,2.532c-0.512,0.87-0.744,1.66-0.106,2.542
		c0.584,0.81,1.328,1.246,2.355,1.058c1.208-0.222,2.414-0.448,3.621-0.672c-1.041,1.473-1.505,2.734-0.129,4.129
		c0.396,0.4,0.199,0.963-0.125,1.379c-1.062,1.364-1.828,2.983-3.541,3.777c-1.666,0.772-1.608,1.633-0.096,2.68
		c1.467,1.017,2.281,2.244,0.4,3.765c-0.885,0.717-1.152,2.007-0.235,2.618c2.425,1.616,3.201-2.114,5.41-1.934
		c0.765,0.062,1.174-1.068,0.682-2.003c-0.038-0.074-0.083-0.147-0.141-0.206c-0.991-1.023-0.401-1.8,0.585-2.044
		c1.179-0.291,2.064-2.376,3.611-0.704c1.751,1.894,5.089,1.591,6.748-0.459c1.353-1.672,3.118-2.774,5.406-2.572
		c1.117,0.099,1.727,0.941,2.206,1.837c0.212,0.399,0.028,0.839-0.35,1.093c-0.997,0.668-1.718,0.064-2.421-0.573
		c-0.738-0.67-1.613-1.182-2.38-0.232c-1.377,1.706-3.694,3.067-2.021,5.974c0.578,1.005,0.316,2.449-0.324,3.619
		c-0.343,0.628-0.482,1.295,0.188,1.792c0.606,0.45,1.352,0.416,1.847-0.089c1.113-1.135,2.163-0.681,3.406-0.237
		c1.542,0.551,3.16,0.719,4.013-1.257c0.303-0.703,0.748-1.604,1.603-1.166c1.814,0.928,0.264,2.556,0.56,3.84
		c0.149,0.645-0.266,1.348-0.949,1.084c-3.026-1.171-3.485,0.311-3.309,2.862c0.043,0.623-0.631,1.307-1.008,1.945
		c-0.428,0.727-0.986,1.495-0.347,2.289c0.673,0.838,1.571,0.443,2.257-0.021c1.299-0.879,2.186-0.708,3.124,0.604
		c1.114,1.56,2.397,3.042,4.626,2.979c0.457-0.013,0.775,0.294,0.863,0.752c0.111,0.571-0.157,0.987-0.671,1.193
		c-2.08,0.831-4.161,1.661-6.259,2.442c-0.596,0.222-1.39,0.023-1.5-0.547c-0.476-2.445-2.315-2.218-4.063-2.263
		c-0.951-0.024-1.633-0.469-2.389-1.106c-2.352-1.985-4.976-3.535-8.115-4.001c-0.743-0.11-1.287-0.112-1.537,0.77
		c-0.497,1.757-1.554,1.089-2.105,0.217c-1.838-2.909-4.527-2.905-7.458-2.598c-2.6,0.272-5.427,1.437-7.359-1.673
		c-0.502-0.808-1.516-0.569-2.195,0.104c-0.666,0.659-0.767,1.423-0.27,2.271c0.268,0.457,1.352,0.922,0.76,1.308
		c-1.553,1.014-2.054,3.736-4.736,2.986c-0.894-0.25-2.153-0.315-2.123,0.938c0.033,1.355,0.31,3.183,1.419,3.83
		c3.172,1.851,4.228,4.159,2.806,7.598c-0.323,0.78,0.146,2.053-1.142,2.172c-1.136,0.106-1.723-0.866-2.228-1.744
		c-1.651-2.868-4.96-3.059-6.728-0.278c-0.938,1.476-1.894,1.635-3.544,1.172c-2.231-0.626-4.609,0.127-6.259,1.492
		c-1.281,1.059-1.759,1.691-3.029,0.192c-0.795-0.938-2.016-0.884-2.863,0.082c-0.867,0.989-1.762,2.017-1.768,3.487
		c-0.003,0.821,0.092,1.808-0.857,2.175c-1.397,0.54-1.315,1.33-0.898,2.556c0.415,1.22,0.855,2.738-1.407,2.834
		c-0.62,0.027-0.736,0.663-0.459,1.16c0.728,1.308,1.416,2.928,3.108,2.96c2.429,0.046,3.264,1.374,3.854,3.43
		c0.583,2.034,1.642,3.553,4.324,3.055c1.353-0.251,3.806,0.189,4.095,0.606c1.322,1.904,2.758,1.254,4.518,1.464
		c2.601,0.31,3.268-0.611,3.794-2.595c0.186-0.705,1.193-1.373,1.319-0.716c0.317,1.664,3.465,2.484,1.454,4.808
		c-0.272,0.315-0.319,0.973-0.229,1.425c0.242,1.212-0.164,1.919-1.347,2.25c-0.701,0.196-0.957,0.841-1.341,1.393
		c-0.992,1.427-2.508,1.836-3.917,0.994c-2.09-1.249-3.07-0.585-3.616,1.504c-0.148,0.571-0.296,1.264-1.07,1.084
		c-0.692-0.161-0.755-0.853-0.653-1.443c0.176-1.018,0.28-1.975-0.584-2.779c-0.98-0.912-1.735-1.943-2.245-3.24
		c-0.526-1.335-1.842-1.374-2.599-0.365c-0.936,1.249-2.032,1.83-3.486,2.087c-1.174,0.207-1.979,0.941-2.005,2.209
		c-0.026,1.238,0.926,1.408,1.88,1.54c1.646,0.229,1.143,1.328,0.853,2.266c-0.285,0.922-0.471,2.235-1.94,1.323
		c-1.304-0.809-2.078-0.169-2.659,0.84c-0.642,1.114,0.184,1.654,1.057,2.106c0.451,0.234,0.899,0.519,0.781,1.128
		c-0.1,0.518-0.554,0.565-0.978,0.574c-1.098,0.022-1.809,0.491-1.655,1.667c0.181,1.384,1.197,1.416,2.27,1.187
		c1.222-0.262,2.748,0.19,2.495,1.26c-0.726,3.065,1.374,3.689,3.28,4.665c0.585,0.299,1.324,0.662,0.802,1.503
		c-0.52,0.838-1.241,0.664-1.924,0.136c-0.329-0.254-0.624-0.565-0.981-0.769c-0.929-0.529-1.974-0.812-2.716,0.147
		c-0.677,0.873-0.519,1.934,0.246,2.747c0.564,0.6,1.252,1.5,1.912,1.524c2.512,0.093,4.093,1.824,6.087,2.867
		c1.748,0.915,3.358,1.617,4.248,3.539c0.551,1.19,1.78,1.783,2.872,0.731c1.366-1.316,1.998-0.787,2.879,0.5
		c1.16,1.693,4.433,2.143,5.756,0.733c1.735-1.849,4.239-2.354,6.116-3.836c2.883-2.277,4.022,1.077,6.079,1.374
		c-0.93,0.769-1.723,0.313-2.378-0.103c-1.636-1.041-2.671-0.323-3.506,1.041c-0.987,1.615,0.013,3.203,0.937,4.042
		c1.368,1.244,1.2-0.754,1.71-1.361c0.766-0.913,1.143-0.246,1.375,0.433c0.561,1.638-0.338,2.887-1.207,4.128
		c-0.594,0.848-0.76,2.424-2,2.233c-0.854-0.131-0.978-1.598-1.367-2.492c-1.027-2.356-1.894-2.599-4.212-1.37
		c-1.536,0.815-3.038,1.646-4.486,2.623c-1.904,1.285-2.551,0.948-2.863-1.315c-0.17-1.232-0.632-2.425-1.93-1.982
		c-3.064,1.047-6.443-1.047-9.353,1.091c-0.347,0.254-1.027,0.28-1.258-0.354c-0.168-0.461,0.192-0.776,0.527-1.025
		c0.803-0.596,1.654-1.137,2.075-2.109c0.347-0.797,0.644-1.651-0.188-2.272c-0.803-0.598-1.585-0.213-2.246,0.394
		c-0.903,0.83-1.461,1.92-2.011,3.061c-1.116-0.832-1.753-2.425-3.25-1.614c-1.346,0.728-0.887,1.949-0.4,3.077
		c0.32,0.741-0.262,1.008-0.772,1.326c-1.07,0.667-2.173,1.217-3.424,1.469c-1.049,0.211-1.844,0.691-1.919,1.947
		c-0.08,1.34,0.761,1.631,1.808,1.932c1.465,0.422,2.303,0.979,1.141,2.803c-1.357,2.129-2.704,4.511-0.41,7.019
		c0.491,0.536,0.134,1.123-0.363,1.733c-2.971,3.65-1.692,7.501,2.781,8.599c0.794,0.195,1.441-0.072,1.485-0.865
		c0.132-2.371,2.29-2.282,3.626-3.26c-0.778,1.129-1.664,2.06-1.355,3.604c0.291,1.46,2.032,1.526,2.61,2.835
		c-1.02,0.163-1.978-0.762-2.675,0.319c-0.658,1.02,0.005,1.701,0.573,2.437c0.473,0.613,0.292,1.261-0.035,1.88
		c-0.917,1.74-0.201,2.981,1.392,3.627c1.533,0.622,1.721,1.658,1.409,2.997c-0.209,0.895-0.999,1.83-1.722,1.296
		c-1.417-1.047-4.065,1.013-4.562-1.837c-0.303-1.732-0.72-2.984-2.872-2.08c-0.581,0.244-0.9-0.202-1.1-0.717
		c-0.2-0.515-0.275-1.298-1.11-0.967c-0.661,0.261-0.501,0.979-0.527,1.543c-0.027,0.582,0.075,1.183-0.029,1.747
		c-0.414,2.226,1.344,3.668,2.065,5.451c0.552,1.365,2.242,0.39,3.436,0.376c0.86-0.011,1.76,0.322,1.114,1.279
		c-2.277,3.376-0.537,5.777,1.71,8.143c0.484,0.51,1.326,1.047,0.528,1.861c-0.963,0.983-0.541,1.809,0.136,2.633
		c0.714,0.871,1.627,0.988,2.709,0.758c2.341-0.5,4.701-0.922,7.058-1.338c0.854-0.151,1.653-0.256,1.658,1.107
		c0.015,3.646,0.056,3.641,3.697,3.119c0.574-0.082,1.162-0.102,1.743-0.098c1.052,0.009,1.606,0.425,1.157,1.561
		c-0.377,0.95-0.346,1.821,0.586,2.428c0.96,0.625,1.897,0.493,2.761-0.233c1.021-0.858,2.054-0.488,3.01,0.062
		c0.568,0.326,0.599,0.975,0.384,1.57c-0.397,1.098-1.139,2.059-2.333,1.941c-4.082-0.403-5.142,2.711-6.347,5.453
		c-0.663,1.51-1.632,2.131-2.827,1.367c-1.053-0.673-3.419-1.236-1.621-3.466c0.577-0.716,0.598-1.562,0.146-2.347
		c-0.544-0.946-1.483-1-2.422-0.844c-0.905,0.149-1.776,0.371-2.695-0.012c-1.831-0.763-3.151-0.574-3.796,1.691
		c-0.404,1.425-1.719,2.003-3.199,1.613c-1.282-0.336-2.675-0.66-2.216-2.608c0.199-0.841-0.022-1.709-0.984-2.06
		c-0.969-0.352-1.796-0.028-2.473,0.719c-1.834,2.025-3.064,4.211-3.005,7.136c0.127,6.162-0.053,12.33,0.014,18.494
		c0.029,2.653-0.399,5.369,0.396,7.948c0.346,1.119,0.403,1.957-0.079,3.055c-0.568,1.292-0.936,2.771,1.175,3.331
		c1.207,0.319,0.996,1.354,0.815,2.282c-0.22,1.131,0.037,2.242,1.301,2.22c2.476-0.046,4.519,0.923,6.531,2.146
		c1.257,0.762,2.234,0.096,3.138-0.709c0.866-0.771,1.034-1.76,0.43-2.709c-1.484-2.334,1.397-1.783,1.927-2.854
		c0.576-1.163,1.461-0.195,2.134,0.495c1.518,1.559,2.368,1.412,3.394-0.438c0.359-0.649,0.921-1.204,1.183-1.883
		c0.792-2.058,2.25-0.405,3.349-0.584c1.572-0.256,0.381,0.996,0.519,1.533c0.316,1.231,1.106,1.136,1.913,0.722
		c1.057-0.541,2.077-0.504,3.139-0.122c0.314,0.114,0.689,0.232,0.621,0.644c-0.034,0.203-0.33,0.543-0.455,0.521
		c-1.827-0.322-3.516,1.148-5.298,0.503c-1.305-0.474-2.524-1.003-3.75-0.005c-1.378,1.122-0.235,2.387,0.206,4.135
		c-2.946-1.628-4.405,0.213-6.161,1.621c-0.936,0.751-2.059,1.15-1.798,2.618c0.246,1.377,1.208,1.972,2.491,2.008
		c1.558,0.044,2.01,0.899,1.936,2.276c-0.093,1.725-0.027,3.34,1.953,4.148c0.549,0.224,1.239,1.088,0.088,1.317
		c-1.086,0.216-2.296,0.265-1.785,1.603c0.545,1.428,0.374,3.73,2.527,3.883c2.274,0.162,4.819,0.904,6.611-1.566
		c0.433-0.597,1.408-0.861,2.183-1.132c1.031-0.36,1.835-0.955,2.005-2.024c0.343-2.166,2.106-2.66,3.724-3.222
		c1.67-0.579,4.492,1.095,4.264,2.427c-0.165,0.963-0.826,2.055,0.521,2.565c1.161,0.44,2.114-0.249,2.807-1.151
		c0.874-1.136,1.879-2.091,3.061-2.91c1.598-1.109,2.959-1.498,4.683-0.008c1.763,1.524,2.873,0.993,3.394-1.31
		c0.173-0.767,0.31-1.495,1.194-1.712c0.52-0.127,1.171-0.03,1.291,0.473c0.363,1.527,0.758,3.111,0.202,4.657
		c-0.478,1.331-1.676,0.719-2.61,0.741c-4.204,0.102-6.009,1.306-7.211,4.838c-0.843,2.477,0.611,4.846,3.194,5.07
		c1.576,0.135,3.135,0.056,4.677-0.521c2.19-0.82,4.491-1.387,6.829-1.387c2.866,0.002,5.604-0.444,8.367-1.202
		c3.741-1.027,7.485-1.413,11.14,0.709c4.438,2.577,9.128,3.079,13.829,0.679c3.53-1.802,7.369-2.588,11.086-3.795
		c4.996-1.621,10.119-2.709,15.153-4.146c3.981-1.137,5.947-7.213,3.519-10.424c-0.357-0.473-1.243-0.99-0.324-1.59
		c0.64-0.418,1.3,0.105,1.696,0.67c0.905,1.293,1.048,2.801,0.972,4.313c-0.392,7.733,0.393,15.454,0.392,23.19
		c-0.001,6.946-0.799,13.94,0.07,20.909c0.565,4.535-0.624,9.109,0.065,13.677c0.297,1.967,0.562,3.944,0.5,5.965
		c-0.221,7.049-0.31,14.102-0.534,21.149c-0.051,1.577,0.45,3.081,0.165,4.71c-0.543,3.103-0.985,6.248-1.109,9.391
		c-0.429,10.899-0.787,21.778-4.579,32.212c-1.141,3.141-2.796,4.77-6.071,4.286c-3.515-0.52-7.011-0.08-10.438,0.113
		c-10.309,0.581-20.615,1.022-30.938,1.259c-6.064,0.14-12.104,0.94-18.114,1.824c-0.744,0.109-2.007-0.136-1.978,1.001
		c0.031,1.254,1.306,0.969,2.168,1.086c6.13,0.839,12.319,0.205,18.45,0.669c11.706,0.884,23.44,0.743,35.153,1.315
		c4.494,0.22,9.002-0.44,13.473-0.33c7.563,0.188,15.124,0.286,22.686,0.356c6.406,0.06,12.763-0.889,19.195-0.591
		c5.213,0.241,10.466-0.006,15.681-0.339C285.512,462.361,292.386,461.687,299.266,461.091z M339.932,155.109
		c0.854-0.123,1.726-0.261,1.774-1.358c0.043-0.982-0.361-1.76-1.303-2.217c-0.646-0.314-1.521-0.455-1.529-1.415
		c-0.004-0.625,0.529-0.791,1.041-0.853c0.982-0.118,1.572,0.39,1.883,1.272c0.299,0.851,0.865,1.389,1.744,1.616
		c1.528,0.395,1.13,1.666,1.104,2.668c-0.035,1.317-1.069,0.964-1.864,0.913c-1.451-0.093-2.813,0.884-4.515,0.482
		C338.75,155.194,339.365,155.189,339.932,155.109z M334.148,253.254c-0.304-0.953,0.164-1.32,1.233-1.09
		c3.025,0.65,5.748,0.527,7.441-2.746c0.521-1.008,1.474-0.143,2.141,0.287c0.837,0.539,0.964,1.312,0.538,2.173
		c-0.373,0.755-0.892,1.269-1.755,0.636c-0.502-0.365-1.157-0.775-1.553-0.252c-1.913,2.543-5.644,1.463-7.584,3.887
		c-0.06,0.072-0.309-0.006-0.597-0.021C333.838,255.176,334.464,254.255,334.148,253.254z M266.544,41.332
		c2.181-0.587,2.752-2.407,3.64-4.042c0.287-0.529,0.295-1.604,1.195-1.249c0.818,0.324,1.25,1.255,1.615,2.022
		c-0.026,0.161-0.016,0.296-0.057,0.316c-2.543,1.112-2.689,3.716-3.711,5.8c-0.332,0.677-1.229,1.199-2.162,0.76
		c-0.723-0.342-1.721-0.438-1.887-1.438C265,42.43,265.784,41.537,266.544,41.332z M129.684,239.308
		c-0.943,0.289-1.326-0.598-1.592-1.249c-1.283-3.13-4.161-2.619-6.604-2.794c-1.472-0.105-2.459,3.016-1.692,4.967
		c0.171,0.438,0.725,0.723,0.385,1.713c-1.228-0.711-2.527-1.928-2.357-2.736c0.684-3.251-2.389-3.372-3.669-4.93
		c-0.408-0.496-1.081-0.465-1.542,0.068c-1.463,1.693-2.62,0.354-3.5-0.555c-1.092-1.127-0.12-1.859,0.925-2.463
		c0.828-0.479,0.462-1.319,0.398-2.044c-0.113-1.275,0.062-2.455,1.644-2.531c1.472-0.071,2.243,0.999,2.041,2.258
		c-0.537,3.345,2.592,3.719,4.201,5.127c1.103,0.965,2.449-0.472,3.201-1.589c0.664-0.988,1.024-0.581,2.029-0.369
		c2.485,0.526,3.179,3.793,6.059,3.473c0.842-0.094,1.114,0.897,0.907,1.716C130.343,238.058,130.56,239.039,129.684,239.308z
		 M133.084,271.639c-0.762,2.053-2.152,1.282-3.398,0.448c-0.955-0.639-0.844-1.657-0.001-2.007
		c1.773-0.734,0.868-4.824,4.165-3.334c0.832,0.375,1.419,1.369,1.772,2.431C135.3,270.475,133.565,270.341,133.084,271.639z
		 M146.688,272.42c-0.192,1.273-2.134,1.908-3.136,0.85c-1.56-1.645-3.157-1.998-5.103-0.836c-0.588,0.352-1.279,0.666-1.752-0.086
		c-0.473-0.75-0.16-1.473,0.505-1.963c1.026-0.757,2.142-1.293,3.153-1.005c1.184,0.274,1.95-0.075,2.759-0.26
		C144.572,268.787,146.901,270.996,146.688,272.42z M165.714,203.653c-0.709,0.596-1.434,0.192-2.021-0.301
		c-1.028-0.864-2.027-1.465-3.303-0.414c-0.531,0.437-0.854-0.028-1.223-0.395c-0.338-0.335-0.839-0.823-1.198-0.77
		c-3.206,0.478-4.666-2.91-7.474-3.318c-0.526-0.076-1.447-0.594-1.005-1.388c0.375-0.675,1.23-0.404,1.794-0.05
		c1.765,1.106,3.539,1.991,5.696,2.271c2.087,0.27,3.455,0.187,3.485-2.354c0.009-0.758,0.533-1.251,1.347-1.062
		c0.708,0.164,0.852,0.708,0.613,1.362c-0.684,1.454-0.135,2.245,1.378,2.4c1.223,0.123,1.664,0.946,1.965,1.944
		C165.977,202.276,166.437,203.045,165.714,203.653z M252.271,455.749c-0.316,0.356-0.742,0.324-1.149,0.149
		c-0.828-0.354-1.222-1.119-1.636-1.831c-4.872-8.392-8.338-17.232-8.578-27.088c-0.336-13.81-1.782-27.589-1.394-41.411
		c0.128-4.557,0.154-9.118,0.33-13.676c0.144-3.729-0.439-7.485-0.322-11.218c0.233-7.479,0.235-14.93-0.465-22.396
		c-0.26-2.78,0.187-5.651,0.525-8.456c0.3-2.503,0.436-4.958-0.061-7.45c-0.347-1.74-0.343-3.369,2.227-2.703
		c1.282-0.402,2.096-0.021,2.601,1.227c0.44,1.082,1.417,1.311,2.507,1.166c0.646-0.086,1.411-0.349,1.693,0.533
		c0.22,0.687-0.03,1.428-0.616,1.779c-1.834,1.102-1.099,2.087,0.033,3.096c1.913,1.7,2.589,3.909,3.033,6.375
		c1.136,6.279,0.681,12.564,0.47,18.863c-0.111,3.323,0.07,6.657-0.064,9.977c-0.639,15.983-0.196,31.981-0.575,47.962
		c-0.252,10.624-0.476,21.269-1.414,31.872c-0.021,0.248,0.005,0.517-0.081,0.742c-1.689,4.437,0.651,7.913,2.739,11.435
		C252.295,455.07,252.631,455.342,252.271,455.749z"/>
	<path fill="none" d="M241.748,319.67c1.282-0.402,2.096-0.021,2.601,1.227c0.439,1.082,1.417,1.311,2.507,1.166
		c0.646-0.086,1.411-0.349,1.693,0.533c0.22,0.688-0.03,1.428-0.616,1.779c-1.834,1.102-1.099,2.087,0.033,3.096
		c1.913,1.7,2.589,3.909,3.033,6.375c1.136,6.279,0.681,12.564,0.47,18.863c-0.111,3.322,0.069,6.656-0.064,9.977
		c-0.641,15.983-0.196,31.98-0.575,47.962c-0.252,10.624-0.476,21.27-1.414,31.871c-0.021,0.249,0.005,0.519-0.081,0.743
		c-1.688,4.437,0.651,7.912,2.739,11.435c0.223,0.374,0.559,0.646,0.198,1.053c-0.316,0.356-0.742,0.324-1.149,0.149
		c-0.828-0.354-1.222-1.119-1.636-1.831c-4.872-8.392-8.338-17.231-8.578-27.089c-0.336-13.81-1.781-27.588-1.394-41.41
		c0.128-4.557,0.154-9.118,0.33-13.676c0.144-3.729-0.439-7.484-0.322-11.218c0.233-7.479,0.235-14.93-0.465-22.396
		c-0.26-2.78,0.188-5.651,0.525-8.456c0.301-2.503,0.437-4.958-0.061-7.45C239.174,320.633,239.178,319.004,241.748,319.67z"/>
	<path fill="none" d="M120.181,241.945c-1.228-0.711-2.526-1.928-2.356-2.738c0.684-3.251-2.389-3.372-3.669-4.93
		c-0.408-0.497-1.081-0.465-1.542,0.068c-1.463,1.693-2.62,0.354-3.5-0.555c-1.092-1.127-0.12-1.86,0.925-2.463
		c0.828-0.479,0.463-1.319,0.398-2.044c-0.113-1.275,0.062-2.455,1.644-2.531c1.472-0.07,2.243,1,2.041,2.258
		c-0.537,3.345,2.592,3.719,4.201,5.127c1.104,0.964,2.449-0.472,3.201-1.589c0.664-0.988,1.024-0.581,2.029-0.369
		c2.484,0.526,3.179,3.793,6.059,3.473c0.842-0.094,1.114,0.897,0.907,1.716c-0.175,0.689,0.042,1.67-0.834,1.938
		c-0.942,0.289-1.326-0.598-1.592-1.249c-1.283-3.131-4.161-2.62-6.604-2.794c-1.473-0.105-2.459,3.016-1.692,4.967
		C119.967,240.669,120.521,240.955,120.181,241.945z"/>
	<path fill="none" d="M162.428,197.233c-0.687,1.456-0.138,2.247,1.373,2.398c1.223,0.123,1.664,0.946,1.965,1.944
		c0.209,0.698,0.669,1.467-0.054,2.075c-0.709,0.596-1.434,0.192-2.021-0.301c-1.027-0.863-2.026-1.465-3.303-0.414
		c-0.53,0.437-0.854-0.028-1.223-0.395c-0.338-0.335-0.839-0.823-1.198-0.77c-3.206,0.478-4.666-2.91-7.474-3.318
		c-0.525-0.076-1.447-0.594-1.005-1.388c0.375-0.675,1.229-0.403,1.794-0.05c1.766,1.106,3.539,1.992,5.696,2.271
		c2.087,0.271,3.455,0.187,3.485-2.354c0.009-0.758,0.532-1.251,1.347-1.062C162.52,196.037,162.664,196.58,162.428,197.233z"/>
	<path fill="none" d="M140.355,269.38c1.184,0.274,1.949-0.075,2.758-0.26c1.458-0.333,3.787,1.876,3.574,3.3
		c-0.191,1.271-2.134,1.907-3.136,0.85c-1.56-1.645-3.156-1.998-5.103-0.836c-0.588,0.352-1.279,0.666-1.752-0.086
		c-0.473-0.75-0.16-1.473,0.505-1.963C138.229,269.628,139.345,269.092,140.355,269.38z"/>
	<path fill="none" d="M334.014,256.127c-0.176-0.951,0.45-1.872,0.134-2.873c-0.304-0.953,0.163-1.32,1.233-1.09
		c3.025,0.65,5.748,0.529,7.441-2.746c0.521-1.008,1.474-0.143,2.141,0.287c0.837,0.539,0.964,1.312,0.538,2.173
		c-0.373,0.755-0.892,1.269-1.755,0.636c-0.502-0.367-1.157-0.777-1.553-0.252c-1.913,2.543-5.644,1.463-7.584,3.887
		C334.551,256.221,334.302,256.143,334.014,256.127z"/>
	<path fill="none" d="M272.994,38.063c-0.026,0.161-0.016,0.296-0.057,0.314c-2.543,1.112-2.689,3.716-3.711,5.8
		c-0.332,0.677-1.23,1.2-2.162,0.76c-0.724-0.341-1.722-0.438-1.888-1.438c-0.178-1.071,0.606-1.965,1.366-2.169
		c2.18-0.587,2.752-2.407,3.641-4.042c0.287-0.528,0.295-1.604,1.194-1.249C272.197,36.365,272.629,37.296,272.994,38.063z"/>
	<path fill="none" d="M135.622,269.177c-0.322,1.298-2.057,1.164-2.538,2.462c-0.763,2.055-2.152,1.282-3.398,0.448
		c-0.955-0.639-0.844-1.657-0.001-2.007c1.773-0.734,0.868-4.824,4.165-3.334C134.682,267.121,135.27,268.115,135.622,269.177z"/>
	<path fill="none" d="M338.268,156.217c0.482-1.022,1.099-1.027,1.663-1.109c0.854-0.123,1.727-0.262,1.774-1.358
		c0.043-0.982-0.36-1.76-1.303-2.217c-0.646-0.314-1.521-0.455-1.529-1.415c-0.004-0.625,0.529-0.791,1.041-0.853
		c0.98-0.118,1.572,0.39,1.883,1.272c0.299,0.851,0.865,1.389,1.744,1.616c1.528,0.395,1.131,1.666,1.104,2.668
		c-0.034,1.317-1.068,0.964-1.863,0.913C341.331,155.642,339.969,156.619,338.268,156.217z"/>
</g>
</svg>
