<?xml version="1.0" encoding="utf-8"?>
<!-- Generator: Adobe Illustrator 16.0.0, SVG Export Plug-In . SVG Version: 6.00 Build 0)  -->
<!DOCTYPE svg PUBLIC "-//W3C//DTD SVG 1.1//EN" "http://www.w3.org/Graphics/SVG/1.1/DTD/svg11.dtd">
<svg version="1.1" id="Layer_1" xmlns="http://www.w3.org/2000/svg" xmlns:xlink="http://www.w3.org/1999/xlink" x="0px" y="0px"
	 width="500px" height="500px" viewBox="0 0 500 500" enable-background="new 0 0 500 500" xml:space="preserve">
<circle fill="#FFFFFF" cx="249.316" cy="249.316" r="249.316"/>
<path fill="#FFFFFF" d="M368.582,459.153c-0.039-0.068-0.081-0.144-0.128-0.229c-0.574-1.044-1.155-2.086-1.824-3.074
	c-0.376-0.555-1.976-2.596-1.391-1.912c-0.436-0.521-0.878-1.037-1.332-1.542c-1.285-1.431-2.611-2.819-3.949-4.197
	c-0.151-0.151-0.303-0.303-0.448-0.46c-2.533-2.595-5.117-5.14-7.648-7.74c-8.863-9.104-18.191-20.111-18.623-33.499
	c-0.222-6.888,2.5-12.69,6.664-17.492c-2.28-2.881-3.664-6.495-3.664-10.508c0-10.321,7.933-16.056,17.262-17.262
	c2.062-0.267,4.125-0.526,6.188-0.785c1.064-0.292,2.123-0.602,3.16-0.98c0.38-0.139,1.262-0.528,1.826-0.777
	c2.153-1.056,4.265-2.202,6.271-3.52c0.694-0.457,4.435-3.309,2.461-1.658c0.728-0.6,1.45-1.205,2.139-1.849
	c1.228-1.145,2.447-2.304,3.561-3.562c0.383-0.432,1.493-1.906,1.605-2.017c0.51-0.759,0.998-1.531,1.435-2.334
	c0.296-0.546,0.891-1.961,1.023-2.209c0.212-0.663,0.396-1.335,0.539-2.016v-0.038c0.008-0.617,0.027-1.049,0.054-1.337
	c-0.258-1.041-0.552-2.051-0.905-3.068c-2.798-8.062,1.998-16.37,9.09-19.983c0.537-0.374,1.093-0.719,1.666-1.028
	c0.921-6.506,5.183-12.532,12.3-14.222c1.965-0.466,3.947-0.736,5.92-0.853c0.008-0.031,0.017-0.061,0.024-0.092
	c1.128-4.668,4.338-8.333,8.383-10.488v-10.771c-0.383-2.376-0.729-4.757-1-7.151c-0.734-6.479,3.686-12.248,9.327-15.193
	c0.577-7.092,4.728-13.355,12.346-15.451c8.471-2.33,19.526,2.795,21.233,12.056c3.298,17.892,3.915,36.034-0.165,53.86
	c3.083,13.117,5.759,26.316,7.201,39.734c0.693,6.459,1.046,13.378,0.618,20.248c18.399-34.756,28.834-74.374,28.834-116.438
	C498.633,111.623,387.01,0,249.316,0S0,111.623,0,249.316c0,137.692,111.623,249.315,249.316,249.315
	c44.673,0,86.595-11.761,122.857-32.338c-1.463-1.79-2.611-3.881-3.318-6.205C368.738,459.704,368.65,459.4,368.582,459.153z"/>
<g>
	<path fill="#FFFFFF" d="M327.674,445.647c-12.348-1.424-24.781-0.692-37.154-1.71c-6.521-0.537-13.137-0.6-19.713-0.762
		c-2.637-0.064-5.257-0.833-7.879-1.308c-0.729-0.132-1.539-0.201-1.273-1.366c1.154-5.073-0.155-10.094-0.396-15.135
		c-0.418-8.762-2.733-17.399-0.756-26.316c1.438-6.484,1.646-13.24,6.233-18.682c1.828-2.168,1.521-4.547-0.104-6.907
		c-1.216-1.767-2.32-3.653-2.527-5.911c-0.172-1.865-2.174-3.682-3.961-3.727c-1.461-0.036-5.58,2.507-5.715,3.594
		c-0.046,0.367,0.11,0.833,0.329,1.146c2.576,3.681,2.036,7.791,1.533,11.832c-0.469,3.765-2.832,6.271-6.15,7.846
		c-1.57,0.745-1.739,1.636-0.809,2.925c1.023,1.418,2.252,2.718,3.09,4.233c2.36,4.275,4.937,8.486,4.187,13.766
		c-0.69,4.859-1.398,9.734-1.69,14.627c-0.333,5.588-1.771,11.177-0.339,16.801c0.16,0.632-0.096,0.864-0.607,1.138
		c-2.385,1.268-3.375,0.817-4.318-1.725c-1.236-3.328-1.773-6.713-1.583-10.267c0.556-10.353-1.634-20.579-1.44-30.922
		c0.124-6.653-0.539-13.338,0.867-19.936c0.372-1.746-0.891-3.541-0.141-5.186c2.499-5.479,6.47-9.426,12.369-11.197
		c0.885-0.266,1.613-0.042,2.33,0.5c0.658,0.498,1.367,0.938,2.088,1.339c0.416,0.23,0.931,0.64,1.377,0.272
		c0.646-0.53-0.006-1.033-0.199-1.542c-0.399-1.048-1.815-2.166,0.087-3.108c1.44-0.713,2.991-1.955,4.104,0.502
		c0.319,0.707,0.883,1.301,1.782,0.905c0.737-0.323,0.826-1.039,0.654-1.715c-0.585-2.3,1.313-3.003,2.522-2.585
		c2.002,0.691,4.211,0.539,6.061,1.646c0.354,0.213,0.689,0.471,0.992,0.752c0.361,0.338,0.81,0.754,0.431,1.269
		c-0.394,0.53-0.906,0.239-1.31-0.084c-0.771-0.62-1.524-1.181-2.871-0.101c2.727,0.932,4.064,2.78,4.724,5.115
		c0.646,2.288,2.053,3.1,4.416,3.122c7.801,0.079,14.389-3.192,20.618-7.339c1.697-1.131,3.784-2.325,3.88-4.9
		c0.043-1.129,0.336-2.621,1.509-2.488c1.499,0.17,0.471,1.752,0.653,2.689c0.211,1.084-0.254,2.618,1.435,2.715
		c1.392,0.078,2.361-0.877,2.561-2.273c0.305-2.163,1.207-1.577,2.505-0.797c2.899,1.742,5.223,4.354,8.609,5.392
		c2.776,0.853,6.729,0.688,7.744-0.844c1.142-1.72,2.349-3.388,2.854-5.505c0.48-2.022,1.436-3.945,3.151-5.275
		c0.924-0.714,1.071-1.402,0.424-2.325c-0.479-0.679-1.224-1.437,0.123-1.931c1.211-0.444,1.131,0.566,1.223,1.279
		c0.104,0.832,0.437,1.438,1.358,1.506c0.811,0.059,1.574-0.165,1.861-0.963c0.74-2.059,1.318-4.312,3.942-1.571
		c0.047,0.049,0.158,0.041,0.242,0.047c2.266,0.175,2.345,1.509,1.584,3.149c-0.879,1.89-0.647,3.562,0.757,5.066
		c2.186,2.344,4.588,4.337,7.452,5.535c0.485-0.15,0.969-0.308,1.447-0.482c0.38-0.139,1.262-0.528,1.826-0.777
		c2.153-1.056,4.265-2.202,6.271-3.52c0.694-0.457,4.435-3.309,2.461-1.658c0.728-0.6,1.45-1.205,2.139-1.849
		c1.228-1.145,2.447-2.304,3.561-3.562c0.383-0.432,1.493-1.906,1.605-2.017c0.51-0.759,0.998-1.531,1.435-2.334
		c0.296-0.546,0.891-1.961,1.023-2.209c0.212-0.663,0.396-1.335,0.539-2.016v-0.038c0.008-0.617,0.027-1.049,0.054-1.337
		c-0.258-1.041-0.552-2.051-0.905-3.068c-2.798-8.062,1.998-16.37,9.09-19.983c0.537-0.374,1.093-0.719,1.666-1.028
		c0.861-6.085,4.646-11.749,10.955-13.839c1.999-2.561,2.475-5.462,1.557-8.77c-1.839-6.617-1.162-13.016,1.991-19.123
		c0.8-1.551,1.849-2.978,2.576-4.557c2.15-4.652,2.941-9.73,3.83-14.682c1.011-5.62-1.843-8.222-7.462-7.788
		c-1.056,0.082-1.902-0.502-1.488-1.374c0.892-1.876-0.232-2.74-1.32-3.804c-0.439-0.432-1.111-1-0.687-1.709
		c0.349-0.582,1.078-0.12,1.628-0.203c0.899-0.134,1.899-0.107,2.662-0.514c1.001-0.534,2.188-1.439,1.833-2.683
		c-0.387-1.348-1.854-0.967-2.821-0.689c-2.183,0.626-3.875-0.23-5.606-1.346c-1.269-0.817-1.604-1.194,0.062-2.073
		c3.201-1.691,5.562-4.229,6.258-7.948c0.162-0.866,0.328-2.017-0.801-2.363c-1.144-0.351-1.857,0.537-2.347,1.443
		c-0.268,0.499-0.313,1.113-0.48,1.669c-0.601,1.994-4.41,4.835-6.815,4.972c0.389-0.549,0.744-1,1.045-1.485
		c0.466-0.751,1.355-1.591,0.418-2.414c-0.902-0.793-1.887-0.132-2.709,0.457c-0.471,0.337-0.854,0.795-1.304,1.165
		c-1.395,1.144-2.959,1.251-4.614,0.885c1.491-0.688,2.936-1.334,4.21-2.267c0.694-0.509,1.173-1.308,0.714-2.184
		c-0.483-0.928-1.414-0.786-2.211-0.5c-0.857,0.308-1.715,0.687-2.476,1.183c-1.048,0.684-1.714,1.236-2.174-0.643
		c-0.424-1.728-1.684-1.406-2.51-0.217c-0.551,0.792-0.735,1.836-1.09,2.766c-0.376,0.991-0.447,2.187-1.895,2.972
		c0.099-0.713,0.092-1.039,0.192-1.328c0.366-1.06,1.487-2.241,0.399-3.203c-1.224-1.082-1.96,0.46-2.892,1.033
		c-1.593,0.979-2.408-0.979-3.73-1.175c-0.338-0.049-0.521-0.508-0.228-0.794c0.9-0.882,1.848-0.333,2.784-0.017
		c0.124,0.042,0.302-0.068,0.807-0.2c-1.482-1.097-1.081-2.138-0.072-3.138c0.363-0.36,0.711-0.801,0.299-1.295
		c-0.423-0.507-0.922-0.203-1.338,0.076c-1.262,0.85-2.611,1.134-4.303,0.868c0.752-1.425,2.178-0.698,2.934-1.354
		c1.03-0.895-0.575-2.047,0.167-3.027c0.102-0.132,0.188-0.29,0.321-0.379c1.944-1.323,2.348-3.575,3.255-5.503
		c0.34-0.722,1.441-1.704,0.34-2.388c-0.967-0.601-1.832,0.401-2.547,1.095c-0.417,0.404-0.737,0.907-1.153,1.313
		c-1.647,1.613-3.317,3.207-5.098,4.919c-0.262-1.014,0.101-1.511,0.562-1.847c1.827-1.333,1.399-2.774,0.334-4.322
		c-0.583-0.845-1.252-1.54-2.22-1.945c-0.439-0.185-1.063-0.45-0.756-1.061c0.344-0.685,1.044-0.5,1.507-0.138
		c0.85,0.665,1.589,1.466,2.415,2.162c0.463,0.389,0.879,1.289,1.609,0.7c0.578-0.465-0.084-1.044-0.303-1.55
		c-1.781-4.133-1.041-7.34,2.424-9.923c1.396-1.042,2.896-1.974,4.435-2.795c3.235-1.728,6.319-3.547,8.736-6.458
		c2.764-3.327,3.173-6.225,0.386-9.624c-3.081-3.757-5.983-7.698-9.955-10.663c-2.104-1.572-1.918-2.312,0.481-3.434
		c0.679-0.317,1.354-0.646,1.999-1.027c0.498-0.297,1.037-0.667,0.916-1.356c-0.149-0.858-0.906-0.839-1.562-0.938
		c-1.445-0.218-2.501,0.785-3.753,1.162c-0.604,0.182-2.216,1.054-1.306-1.007c0.592-1.341-0.335-1.867-1.329-2.166
		c-0.842-0.253-1.758-0.26-2.645-0.375c-0.129-1.086,0.773-1.482,1.213-2.138c0.637-0.953,1.797-2.005,0.631-3.039
		c-1.248-1.107-2.256,0.208-3.198,0.971c-1.064,0.862-1.239,2.488-2.511,3.227c-0.694-0.759,0.383-2.045-0.801-2.276
		c-1.457-0.284-1.164-1.146-0.933-2.039c0.271-1.042,0.638-2.059,0.924-3.098c0.211-0.765,0.943-1.697,0.109-2.296
		c-0.908-0.653-1.715,0.221-2.396,0.797c-1.462,1.237-2.87,2.535-4.309,3.8c-2.195,1.933-2.919,1.91-5.226-0.18
		c3.189-2.259,3.783-6.131,5.706-9.184c0.275-0.44,0.194-1.01-0.275-1.347c-0.617-0.442-1.329-0.386-1.844,0.102
		c-0.531,0.504-0.85,1.229-1.359,1.764c-0.863,0.901-2.074,0.7-2-0.418c0.217-3.227-1.304-2.676-3.172-1.589
		c-0.434-0.924,0.796-1.887-0.227-2.432c-0.974-0.52-1.734,0.288-2.459,0.809c-0.604,0.436-1.069,1.07-1.688,1.475
		c-0.957,0.626-1.65,2.786-2.691,1.816c-1.095-1.02,0.814-1.96,1.556-2.866c0.67-0.822,1.289-1.963,0.082-2.534
		c-1.204-0.569-1.761-3.263-3.535-1.699c-2.05,1.805-2.053,0.914-2.259-1.032c-0.512-4.826-1.464-5.328-5.999-3.521
		c-0.232,0.093-0.469,0.178-0.708,0.246c-0.553,0.155-1.295,0.512-1.574-0.14c-0.396-0.919,0.53-1.112,1.132-1.231
		c2.104-0.42,3.523-1.734,4.07-3.66c1.266-4.463,1.746-8.993,0.192-13.531c-0.991-2.906-4.356-6.537-6.289-6.105
		c-2.073,0.462-2.905-0.748-4.227-1.726c1.436-1.205,3.205-2.198,0.758-3.88c-0.459-0.315,0.002-0.727,0.33-0.988
		c0.55-0.438,1.057-0.922,0.562-1.669c-0.431-0.646-1.162-0.607-1.818-0.553c-0.828,0.067-1.646,0.258-2.472,0.353
		c-0.645,0.074-1.432,0.341-1.813-0.383c-0.4-0.76,0.309-1.208,0.787-1.64c0.812-0.73,1.783-1.421,1.57-2.665
		c-0.399-2.339,1.599-3.852,1.944-5.94c0.086-0.519,1.146-0.851,0.608-1.645c-0.426-0.631-1.174-0.531-1.835-0.542
		c-1.014-0.016-1.982,0.135-2.877,0.679c-1.844,1.121-3.705,2.215-5.562,3.316c-0.493,0.292-1.001,0.794-1.589,0.434
		c-0.606-0.374-0.356-1.05-0.24-1.601c0.33-1.548,0.746-3.08,1.035-4.635c0.158-0.854,0.013-1.718-0.965-2.064
		c-0.918-0.325-1.658,0.048-2.122,0.852c-0.538,0.934-1.028,1.899-1.47,2.883c-0.234,0.526,0.129,1.578-0.991,1.247
		c-0.776-0.229-1.2-0.872-0.866-1.78c0.243-0.658,0.924-1.445-0.075-1.936c-0.726-0.356-1.464,0.134-2.058,0.604
		c-0.851,0.675-1.581,1.451-2.117,2.432c-0.351,0.641-0.487,2.002-1.572,1.438c-0.933-0.484,0.084-1.28,0.337-1.912
		c0.351-0.878,0.801-2.146-0.516-2.139c-1.471,0.007-3.384,0.141-4.284,1.475c-1.287,1.906-3.246,3.112-4.545,4.958
		c-0.367,0.52-0.899,1.339-1.562,0.733c-0.805-0.736,0.107-1.299,0.6-1.817c0.859-0.904,1.76-1.772,2.586-2.705
		c0.387-0.436,0.733-1.042,0.096-1.523c-0.479-0.362-0.952-0.003-1.334,0.332c-1.248,1.1-2.465,2.238-3.739,3.308
		c-0.416,0.349-1.032,0.843-1.494,0.135c-0.369-0.568-0.042-1.201,0.524-1.477c1.709-0.833,2.966-2.103,3.943-3.709
		c0.336-0.55,0.984-0.604,1.571-0.598c2.653,0.028,4.423-1.721,6.349-3.144c0.566-0.418,0.961-1.022,0.524-1.727
		c-0.382-0.617-1.052-0.429-1.593-0.254c-2.449,0.788-4.898,1.581-7.318,2.45c-0.766,0.275-1.452,0.445-2.092-0.13
		c-0.217-0.196-0.465-0.627-0.389-0.839c0.344-0.949,1.145-0.26,1.731-0.385c1.165-0.247,1.942-0.916,2.306-2.04
		c0.162-0.503,0.114-1.052-0.338-1.365c-1.015-0.701-1.65,0.437-2.498,0.58c-0.097,0.016-0.224-0.152-0.367-0.26
		c0.654-1.11,1.647-1.855,2.73-2.479c1.165-0.671,3.344-1.06,2.58-2.691c-0.996-2.13-2.764-0.466-4.018,0.247
		c-1.471,0.836-2.59,0.692-3.166-0.849c-0.565-1.515-0.36-3.692-3.067-2.171c-0.354,0.199-0.627-0.654-0.883-1.07
		c-0.923-1.493-1.839-1.563-2.771,0.012c-0.242,0.41-0.51,0.924-1.207,0.505c-0.197-0.506,0.073-0.909,0.351-1.331
		c0.444-0.681,1.243-1.518-0.33-1.753c-1.89-0.282-4.025-0.994-5.642,0.056c-2.24,1.455-4.774,0.211-6.965,1.342
		c-0.682,0.352-1.275-0.228-1.434-0.984c-0.16-0.763,0.361-1.038,0.99-1.148c3.672-0.646,7.236-2.102,11.084-1.445
		c0.604,0.104,1.42,0.516,1.744-0.364c0.277-0.752-0.402-1.179-0.904-1.617c-2.48-2.169-5.16-1.835-7.975-0.752
		c-0.67,0.258-1.849,0.954-2.209-0.003c-0.377-1.001,0.946-1.066,1.633-1.444c1.748-0.962,3.5-1.923,5.188-2.983
		c0.824-0.517,1.351-1.408,0.79-2.356c-0.55-0.931-1.449-0.572-2.215-0.178c-0.889,0.457-1.757,0.948-2.623,1.443
		c-0.605,0.346-1.628,0.696-1.729,0.017c-0.301-1.997-2.369-3.53-1.519-5.772c0.679-1.781-0.16-2.106-1.674-1.835
		c-3.242,0.582-6.599,0.681-9.437,2.778c-1.279,0.947-2.699,0.683-3.803-0.572c-1.02-1.158-0.35-2.189,0.316-3.162
		c0.895-1.305,1.854-2.565,2.794-3.839c0.461-0.625,0.948-1.311,0.3-2.01c-0.695-0.753-1.555-0.441-2.277,0.035
		c-0.934,0.616-1.812,1.316-2.82,2.058c-0.237-1.034,0.18-2.263-1.051-2.223c-1.879,0.062-1.787-0.889-1.483-2.197
		c0.188-0.807,0.271-1.646,0.313-2.475c0.066-1.325-0.801-1.847-1.693-1.065c-1.188,1.039-1.861,0.932-3.389,0.423
		c-1.645-0.547-1.99-0.662-1.438-2.296c0.465-1.373-0.073-2.469-1.776-1.774c-1.098,0.448-1.896,0.286-2.756-0.39
		c-0.4-0.317-0.97-0.539-1.305,0.014c-0.317,0.527,0.102,0.926,0.551,1.21c0.51,0.322,1.643,0.522,0.938,1.316
		c-1.292,1.458-2.139,3.536-4.514,4.002c0.017-1.2,1.104-2.284-0.066-3.18c-1.133-0.868-2.006-0.056-2.88,0.611
		c-0.5,0.38-1.104,0.357-1.684,0.239c-1.424-0.291-1.934,0.481-2.193,1.721c-0.322,1.543-0.752,3.063-1.139,4.593
		c-0.164,0.646-0.305,1.261-1.061,1.56c-2.639,1.043-3.657,2.896-3.266,5.865c0.094,0.72,0.577,1.593-0.341,1.995
		c-0.972,0.425-1.241-0.561-1.599-1.169c-0.586-0.999-1.335-1.883-2.561-1.561c-1.401,0.369-1.221,1.688-1.041,2.721
		c0.346,1.992-0.682,2.35-2.098,1.658c-2.273-1.109-3.741-0.348-5.088,1.498c-0.516,0.707-1.718,1.185-1.02,2.216
		c0.692,1.024,1.641,0.31,2.414-0.162c0.75-0.458,1.379-0.718,1.637,0.479c0.365,1.698-1.242,3.277-2.93,2.93
		c-1.712-0.352-3.348-0.624-4.91-1.681c-1.987-1.344-3.45,0.206-4.549,1.748c-0.803,1.128-0.566,2.22,0.752,2.913
		c0.803,0.422,1.835,0.681,1.006,1.973c-0.689,1.073-1.202,2.306-2.858,1.288c-0.846-0.52-1.853-0.486-2.577,0.192
		c-1.266,1.182-3.006,1.861-3.794,3.551c-0.763,1.636-1.506,1.142-2.296-0.003c-0.56-0.812-0.48-1.517,0.096-2.28
		c0.521-0.694,0.512-1.44-0.243-1.965c-0.757-0.527-1.427-0.098-2.038,0.38c-2.488,1.945-2.547,4.69,0.47,6.85
		c2.168,1.553,2.09,3.529,2.383,5.581c0.079,0.556,0.011,1.314-0.78,1.292c-0.652-0.018-0.543-0.72-0.604-1.192
		c-0.117-0.911-0.107-2.002-1.359-2.021c-1.119-0.016-1.453,0.969-1.719,1.867c-0.448,1.508-0.976,2.606-2.984,1.849
		c-1.322-0.5-1.445,0.776-1.457,1.685c-0.024,1.716-0.445,2.664-2.346,1.602c-0.345-0.193-0.805-0.252-1.051,0.39
		c0.366,0.766,1.051,1.129,1.895,1.35c0.549,0.144,1.164,0.307,1.57,0.665c0.53,0.468,1.289,1.113,0.816,1.887
		c-0.423,0.695-1.258,0.304-1.812-0.009c-1.644-0.924-3.066,0.107-4.574,0.4c-1.199,0.233-1.289,0.818-1.041,1.98
		c0.506,2.363,0.83,4.708,4.264,4.812c-1.092,1.008-1.88,0.7-2.594,0.785c-0.703,0.083-1.632,0.31-1.342,1.072
		c0.738,1.942-0.701,2.393-1.791,3.216c-1.394,1.054-2.748,2.168-4.043,3.342c-0.869,0.789-1.464,2.361-0.355,2.747
		c2.743,0.956,3.068,3.567,4.324,5.458c1.498,2.257,2.473,4.862,4.602,6.769c-2.279,0.144-3.183-1.737-4.697-2.604
		c-0.752-0.431-1.652-1.322-2.438-0.406c-0.764,0.888,0.149,1.646,0.724,2.357c0.938,1.159,2.541,1.64,3.242,3.162
		c-2.385-1.692-4.473-0.95-6.531,0.481c-1.097,0.762-2.229,1.485-3.673,1.357c-0.601-0.053-1.206-0.105-1.425-0.778
		c-0.168-0.521,0.07-0.972,0.44-1.352c0.614-0.631,1.741-1.278,0.888-2.225c-0.836-0.928-1.641,0.216-2.377,0.616
		c-2.248,1.217-2.564,1.076-2.906-1.676c-0.135-1.094-0.629-1.487-1.668-1.18c-2.164,0.64-3.711,2.931-3.472,5.165
		c0.056,0.519,0.094,1.018-0.315,1.391c-0.292,0.268-0.675,0.162-0.881-0.113c-0.907-1.208-2.354-1.094-3.57-1.562
		c-1.433-0.551-2.439-1.356-0.686-2.82c0.558-0.464,0.969-1.129,1.358-1.757c0.218-0.353,0.234-0.867-0.194-1.111
		c-0.239-0.137-0.642-0.123-0.922-0.031c-1.115,0.367-3.797,4.296-3.783,5.556c0.008,0.65,0.336,1.39-0.527,1.713
		c-0.793,0.296-1.494,0.048-1.971-0.651c-0.475-0.698-1.12-1.285-1.812-0.558c-1.308,1.375-2.486,2.884-3.621,4.409
		c-0.338,0.454-0.258,1.146,0.231,1.611c0.423,0.402,1.095,0.426,1.368,0.067c1.574-2.064,3.868-0.941,5.792-1.405
		c0.855-0.207,1.783-0.221,2.069,0.812c0.338,1.225-0.671,1.301-1.504,1.438c-0.926,0.151-1.888,0.745-1.52,1.583
		c0.971,2.203-0.71,2.694-1.936,3.503c-0.91,0.6-1.857,1.144-2.414,2.12c-0.35,0.61-0.477,1.734,0.127,1.727
		c1.73-0.02,2.108,1.313,3.07,2.168c0.686,0.611,1.453,1.609,2.688,1.604c2.565-0.011,2.691,0.24,1.463,2.582
		c-0.311,0.59-0.666,1.16-0.934,1.769c-0.803,1.823-1.734,2.269-3.312,0.65c-1.734-1.781-3.578-1.646-5.461,0.015
		c-0.67,0.591-1.002,1.697-2.162,1.774c-0.299-1.115,0.436-1.899,0.442-2.802c0.01-1.317-0.903-2.567-1.87-1.613
		c-1.547,1.527-3.395,1.424-5.121,2.006c-0.58,0.196-1.104,1.054-1.734,0.313c-0.57-0.67,0.126-1.209,0.48-1.744
		c0.139-0.208,0.304-0.403,0.412-0.625c0.253-0.52,0.66-1.183,0.018-1.56c-0.693-0.406-0.969,0.321-1.256,0.824
		c-1.057,1.85-2.122,3.694-3.291,5.726c-1.08-2.332-2.303-2.437-3.641-0.477c-0.525,0.769-1.377,0.833-2.15,1.129
		c-2.556,0.975-3.696,2.656-3.119,4.583c0.219,0.73,0.622,1.415-0.055,2.073c-0.762,0.741-1.531,0.346-2.293-0.044
		c-0.571-0.292-1.192-0.883-1.787-0.196c-0.637,0.733-0.396,1.567,0.102,2.305c0.326,0.482,0.719,0.919,1.068,1.386
		c2.181,2.911,2.029,5.348-0.481,7.936c-0.231,0.238-0.475,0.479-0.641,0.761c-0.399,0.681-0.622,1.426,0.003,2.072
		c0.586,0.604,1.254,0.29,1.819-0.086c0.829-0.552,1.602-1.19,2.427-1.749c1.742-1.179,3.202-0.653,3.896,1.665
		c-1.609-1.218-3.042-1.942-3.291,0.807c-0.041,0.455-0.512,0.607-0.965,0.61c-1.422,0.007-2.099,0.429-0.828,1.695
		c0.734,0.732,0.303,1.082-0.26,1.576c-1.475,1.294-2.563,0.373-3.727-0.519c-0.504-0.387-1.065-0.913-1.802-0.529
		c-0.507,0.264-0.773,0.95-0.493,1.271c1.68,1.918-0.377,3.506-0.383,5.263c-0.006,1.407-1.195,1.562-1.912,0.933
		c-2.114-1.855-4.033-0.619-6.023,0.058c-1.017,0.346-1.987,0.896-1.479,2.137c0.469,1.14,1.504,0.712,2.391,0.432
		c0.475-0.15,0.956-0.295,1.445-0.379c0.413-0.071,0.918-0.05,1.096,0.376c0.285,0.688-0.344,0.866-0.791,0.992
		c-3.297,0.931-4.916,3.843-7.152,6.02c-0.982,0.957-0.811,1.955-0.297,3.182c0.51,1.222,2.033,2.216,1.671,3.494
		c-0.749,2.643,0.916,2.28,2.404,2.328c0.583,0.019,1.17-0.003,1.749,0.055c1.17,0.118,2.146,0.717,2.504,1.795
		c0.348,1.053-0.862,1.289-1.445,1.778c-2.053,1.72-5.49,0.886-6.787,4.295c-0.549-1.472,0.182-1.905,0.658-2.422
		c0.631-0.684,0.84-1.449,0.468-2.296c-0.692-1.574-3.976-2.453-5.182-1.213c-1.218,1.251-1.952,0.164-2.881-0.454
		c-0.286,1.967,1.075,3.665,0.214,5.513c-1.133-0.619-1.057-1.654-1.307-2.477c-0.658-2.166-1.199-4.36-3.308-5.68
		c-0.562-0.352-1.097-0.967-1.771-0.453c-0.733,0.56-0.581,1.395-0.114,2.025c1.133,1.529,1.471,3.338,1.969,5.096
		c0.229,0.806,0.534,1.647-0.379,2.25c-0.695,0.459-1.417,0.439-2.114-0.013c-0.919-0.597-0.591-1.398-0.422-2.234
		c0.181-0.894,1.405-1.999,0.218-2.664c-1.214-0.679-2.076,0.636-2.892,1.421c-0.349,0.335-0.655,0.79-0.8,1.247
		c-0.5,1.589-1.494,2.089-3.07,1.625c-0.827-0.244-1.762-0.375-2.139,0.64c-0.359,0.967,0.377,1.472,1.109,1.974
		c1.898,1.301,1.664,3.844-0.273,5.175c-2.324,1.597-5.004,2.685-6.99,4.755c-0.62,0.646-1.305,1.417-0.911,2.434
		c0.333,0.859,1.265,0.618,1.946,0.849c1.607,0.543,2.912,0.168,4.066-1.059c0.707-0.752,1.734-1.49,2.609-0.654
		c1.023,0.978-0.184,1.894-0.771,2.503c-1.818,1.886-2.863,4.295-4.501,6.293c-0.677,0.825-1.08,1.89-0.171,2.692
		c0.984,0.87,1.609-0.341,2.316-0.791c0.555-0.354,0.965-1.058,1.549-1.223c1.28-0.363,2.979-1.214,3.727,0.512
		c1.35,3.113,0.787,3.831-2.594,4.141c-0.332,0.03-0.666,0.056-0.991,0.119c-0.612,0.118-1.165,0.399-1.192,1.083
		c-0.033,0.824,0.581,1.298,1.286,1.214c2.946-0.354,2.166,1.203,1.569,2.816c-0.561,1.515,1.232,5.188,2.564,4.942
		c2.855-0.526,3.756,0.712,4.004,3.215c0.045,0.455,0.705,0.876,1.131,1.257c0.369,0.332,0.925,0.594,0.795,1.157
		c-0.164,0.721-0.865,0.676-1.436,0.704c-1.679,0.083-3.273-0.037-4.801-0.979c-1.135-0.699-2.574-0.766-3.164,0.754
		c-0.58,1.498,0.602,2.036,1.826,2.367c0.803,0.217,1.861,0.334,2.139,1.139c1.431,4.152,4.481,5.854,8.645,6.023
		c0.076,0.002,0.148,0.071,0.225,0.106c0.526,0.242,1.078,0.606,1.588,0.029c0.443-0.499,0.311-1.074,0.083-1.644
		c-1.091-2.736-1.019-2.832,2.056-2.794c0.75,0.009,1.5,0.038,2.25,0.019c1.383-0.036,1.589,0.404,1.264,1.818
		c-0.369,1.604-2.014,3.701,0.858,4.854c0.376,0.15,0.249,0.633-0.002,0.859c-1.41,1.273-0.983,3.109-1.479,4.659
		c-0.213,0.666,0.033,1.769-0.941,1.82c-1.127,0.06-1.113-1.011-1.206-1.837c-0.077-0.689-0.224-1.352-1.017-1.546
		c-0.928-0.229-1.66,0.145-2.135,0.921c-0.79,1.296-2.199,2.123-2.579,4.253c-1.159-2.636-3.013-2.565-4.663-2.03
		c-1.711,0.555-1.499,2.375-1.671,3.84c-0.218,1.858,0.849,3.256,1.894,5.012c-2.928-2.059-3.832-0.258-4.795,1.873
		c-0.579,1.281-0.611,2.578-0.763,3.888c-0.146,1.258,0.382,1.896,1.563,1.078c1.268-0.876,1.445-0.339,1.699,0.845
		c0.37,1.718,1.002,3.531,2.384,4.571c1.867,1.405,1.441,2.385-0.106,3.688c-0.413-0.548-0.762-1.098-1.197-1.566
		c-0.65-0.706-1.254-1.832-2.434-1.113c-0.945,0.574-0.698,1.585-0.363,2.482c0.088,0.234,0.238,0.453,0.283,0.692
		c0.178,0.947,0.059,1.933-0.664,2.537c-0.766,0.64-1.325-0.222-1.922-0.629c-0.693-0.476-1.791-1.118-2.2-0.279
		c-0.962,1.974-2.534,1.847-4.216,1.8c-0.68-0.02-1.414,0.082-1.688,0.811c-0.304,0.809,0.071,1.585,0.755,1.941
		c2.605,1.356,4.833,3.592,8.153,3.324c2.097-0.17,3.935,0.908,4.655,2.739c0.684,1.733,1.555,2.772,3.314,2.931
		c0.044,0.816-0.489,1.014-0.865,1.297c-1.691,1.279-1.818,2.857-0.955,4.654c0.923,1.922,2.324,2.667,4.477,2.092
		c2.809-0.754,2.82-0.692,2.043,2.142c-0.354,1.291-0.807,2.562,0.627,3.604c0.768,0.557,0.812,1.385,0.283,2.228
		c-0.459,0.729-1.457,1.634-0.318,2.321c0.979,0.59,1.543-0.613,2.156-1.242c0.998-1.023,2.037-3.75,2.89,0.093
		c0.049,0.22,0.235,0.485,0.431,0.585c2.174,1.104,3.949,2.872,6.549,3.299c2.502,0.41,3.283,0.204,3.932-2.234
		c0.224-0.846,0.489-1.717,1.477-1.766c1.109-0.054,1.213,0.924,1.381,1.747c0.361,1.792,0.744,3.58,1.088,5.376
		c0.132,0.695,0.334,1.338,1.086,1.523c1.354,0.338,0.977,1.01,0.447,1.81c-0.433,0.651-0.682,1.405-0.1,2.082
		c0.619,0.718,1.365,0.396,2.057,0.06c2.695-1.322,2.188,3.867,4.938,2.424c0.146,0.285,0.343,0.556,0.422,0.857
		c0.06,0.225-0.009,0.496-0.065,0.736c-0.412,1.753,0.001,2.602,2.015,2.056c0.489-0.132,1.108,0.271,1.678,0.374
		c2.142,0.393,4.284,0.881,5.58-1.699c0.225-0.447,0.741-1.13,1.554-0.922c0.384,1.086-1.568,2.902,0.798,3.194
		c1.563,0.192,1.435,0.851,1.336,1.95c-0.183,2.066,1.51,2.684,2.942,3.211c1.418,0.523,1.688-0.9,2.238-1.799
		c0.475-0.774,0.989-1.573,1.656-2.174c2.259-2.031,3.566-1.55,4.321,1.512c-0.647,0.273-1.067-0.318-1.612-0.436
		c-1.01-0.214-1.934,0.004-2.318,0.975c-0.511,1.287,0.732,1.17,1.414,1.5c0.52,0.252,1.088,0.5,1.48,0.9
		c3.421,3.488,7.98,4.295,12.443,5.223c5.51,1.146,9.132-0.717,11.264-5.722c0.352-0.825-0.041-1.993,1.438-1.918
		c0.54,0.028,1.048,0.197,1.165,0.749c0.198,0.938-0.46,1.553-1.015,2.169c-1.162,1.294-2.519,2.388-3.32,4.024
		c-0.659,1.346-2.504,2.627,0.525,3.352c0.47,0.112,0.291,0.701,0.25,1.104c-0.23,2.331,1.247,2.487,3.022,2.532
		c1.562,0.039,2.646-1.297,4.333-1.377c-0.379,1.424-1.854,3.168,1.046,3.219c0.527,0.009,0.592,0.445,0.534,0.916
		c-0.084,0.671-1.178,1.336-0.245,1.972c0.781,0.532,1.628-0.026,2.298-0.517c1.557-1.143,1.951-0.539,1.949,1.115
		c-0.001,1.072-0.453,2.743,1.238,2.764c1.604,0.019,1.589-1.639,1.773-2.855c0.049-0.324-0.021-0.668,0.012-0.998
		c0.061-0.604-0.343-1.531,0.621-1.613c0.706-0.062,0.756,0.746,0.83,1.326c0.283,2.252,1.24,2.025,2.547,0.719
		c0.519-0.52,1.23-1.338,1.907-0.728c2.126,1.92,4.64,1.942,7.233,1.865c0.301-0.011,0.641,0.213,0.56,0.688
		c-0.491,0.721-1.978,0.25-2.007,1.514c-0.028,1.26,1.105,1.535,1.951,2.016c0.725,0.412,1.504,0.734,2.199,1.189
		c5.587,3.646,11.33,3.783,17.308,0.979c1.512-0.709,1.61-1.411,0.723-2.642c-1.071-1.482-2.351-2.898-2.851-4.67
		c-0.688-2.435-2.465-3.726-4.504-4.715c-1.692-0.832-3.535-1.367-5.766-2.198c3.451-0.812,9.131,2.271,10.865,5.546
		c3.26,6.154,8.094,10.838,13.75,14.771c4.04,2.812,7.184,6.078,5.391,11.627c-0.148,0.463-0.142,0.986-0.156,1.483
		c-0.236,8.56-0.807,17.099-1.449,25.636c-0.275,3.645-0.991,7.432-0.316,10.924c0.78,4.045-0.32,7.551-1.186,11.233
		c-0.287,1.221-1.12,1.748-2.37,1.795c-7.894,0.296-15.786,0.773-23.683,0.889c-8.559,0.121-17.111,0.204-25.671,0.433
		c-13.901,0.367-27.763,1.507-41.668,1.719c-4.485,0.068-8.966,0.562-13.444,0.902c-0.857,0.063-2.094-0.103-2.106,1.201
		c-0.012,1.23,1.106,1.646,2.118,1.712c3.574,0.229,7.066,1.039,10.668,1.178c4.645,0.18,9.359,0.45,13.872,1.453
		c3.484,0.772,6.886,1.012,10.377,0.935c1.161-0.024,2.324-0.24,3.479-0.197c7.887,0.296,15.736,1.126,23.623,1.516
		c7.894,0.391,15.765,0.469,23.658,0.558c12.234,0.139,24.467,0.277,36.701,0.214c21.57-0.113,43.159,0.501,64.697-1.104
		c5.532-0.412,11.169-0.038,16.57-1.822c2.865-0.945,5.933-1.314,8.816-0.688c4.229,0.922,6.147-2.514,9.771-3.862
		c-3.136-1.153-5.619-1.623-8.251-1.559C334.837,445.863,331.215,446.055,327.674,445.647z"/>
	<path fill="#59595B" d="M327.684,445.639c-12.348-1.423-24.781-0.691-37.155-1.71c-6.522-0.536-13.136-0.599-19.713-0.761
		c-2.636-0.065-5.257-0.833-7.878-1.308c-0.729-0.132-1.539-0.201-1.273-1.366c1.155-5.073-0.156-10.094-0.396-15.135
		c-0.418-8.762-2.734-17.399-0.756-26.317c1.438-6.483,1.646-13.239,6.234-18.681c1.829-2.168,1.52-4.547-0.104-6.907
		c-1.217-1.767-2.32-3.653-2.528-5.912c-0.172-1.866-2.173-3.681-3.96-3.726c-1.461-0.036-5.581,2.507-5.717,3.594
		c-0.045,0.367,0.111,0.833,0.33,1.146c2.576,3.681,2.037,7.791,1.533,11.832c-0.468,3.765-2.832,6.271-6.149,7.846
		c-1.571,0.744-1.74,1.636-0.809,2.925c1.024,1.418,2.251,2.716,3.089,4.233c2.361,4.275,4.937,8.487,4.187,13.766
		c-0.69,4.859-1.397,9.734-1.69,14.627c-0.332,5.588-1.771,11.177-0.338,16.801c0.16,0.631-0.096,0.865-0.608,1.137
		c-2.384,1.268-3.374,0.818-4.317-1.724c-1.236-3.329-1.773-6.713-1.583-10.267c0.556-10.353-1.633-20.579-1.44-30.922
		c0.124-6.654-0.539-13.338,0.867-19.936c0.372-1.747-0.891-3.542-0.141-5.186c2.499-5.479,6.471-9.426,12.369-11.197
		c0.885-0.266,1.613-0.042,2.33,0.5c0.658,0.498,1.367,0.939,2.088,1.339c0.416,0.229,0.93,0.64,1.377,0.272
		c0.646-0.53-0.006-1.033-0.2-1.543c-0.399-1.045-1.815-2.166,0.087-3.107c1.441-0.713,2.992-1.955,4.104,0.502
		c0.319,0.707,0.883,1.301,1.782,0.905c0.737-0.323,0.826-1.039,0.654-1.716c-0.585-2.299,1.314-3.002,2.523-2.584
		c2.002,0.69,4.211,0.539,6.06,1.646c0.354,0.212,0.69,0.471,0.993,0.752c0.362,0.338,0.809,0.754,0.43,1.268
		c-0.393,0.531-0.906,0.24-1.309-0.084c-0.77-0.621-1.525-1.18-2.871-0.101c2.727,0.931,4.064,2.781,4.723,5.116
		c0.646,2.288,2.053,3.1,4.416,3.122c7.801,0.079,14.389-3.192,20.618-7.339c1.698-1.131,3.784-2.325,3.88-4.9
		c0.043-1.129,0.336-2.622,1.51-2.488c1.499,0.17,0.47,1.752,0.652,2.689c0.211,1.084-0.253,2.618,1.436,2.715
		c1.391,0.079,2.361-0.877,2.56-2.273c0.305-2.164,1.207-1.577,2.505-0.797c2.9,1.744,5.223,4.354,8.61,5.392
		c2.776,0.851,6.727,0.687,7.744-0.845c1.141-1.719,2.348-3.387,2.853-5.504c0.481-2.022,1.436-3.945,3.152-5.275
		c0.923-0.714,1.071-1.403,0.423-2.325c-0.48-0.679-1.223-1.437,0.124-1.931c1.21-0.445,1.13,0.566,1.222,1.279
		c0.105,0.832,0.437,1.438,1.359,1.506c0.809,0.059,1.574-0.166,1.861-0.963c0.739-2.058,1.317-4.311,3.941-1.571
		c0.047,0.049,0.159,0.041,0.242,0.047c2.266,0.174,2.345,1.508,1.584,3.149c-0.878,1.889-0.647,3.561,0.757,5.066
		c2.187,2.346,4.592,4.34,7.459,5.537c0.48-0.148,0.959-0.304,1.432-0.477c0.38-0.139,1.262-0.528,1.826-0.777
		c2.153-1.056,4.265-2.202,6.271-3.52c0.694-0.457,4.435-3.309,2.461-1.658c0.728-0.6,1.45-1.205,2.139-1.849
		c1.228-1.145,2.447-2.304,3.561-3.562c0.383-0.432,1.493-1.906,1.605-2.017c0.51-0.759,0.998-1.531,1.435-2.334
		c0.296-0.546,0.891-1.961,1.023-2.209c0.212-0.663,0.396-1.335,0.539-2.016v-0.038c0.008-0.617,0.027-1.049,0.054-1.337
		c-0.258-1.041-0.552-2.051-0.905-3.068c-0.735-2.118-0.935-4.251-0.717-6.313c-0.384-0.085-0.808-0.39-1.295-1.004
		c-0.585-0.736-1.562-1.39-2.472-1.6c-3.835-0.888-5.462-3.822-6.711-7.049c-0.769-1.986-3.062-3.383-2.273-6.021
		c0.154-0.515-0.692-0.498-1.191-0.375c-0.694,0.17-1.613,0.685-1.808-0.463c-0.188-1.119,0.789-1.89,1.667-1.738
		c2.581,0.442,5.159-0.793,7.664,0c4.878,1.545,9.854,1.179,14.841,1.111c2.324-0.031,3.623-0.76,3.74-3.224
		c0.055-1.142,0.383-2.271,0.707-4.079c0.479,1.075,0.773,2.079,0.913,3.028c1.879-3.23,4.789-5.847,8.648-7.125
		c2.004-2.563,2.481-5.468,1.562-8.776c-1.839-6.617-1.162-13.016,1.991-19.124c0.8-1.55,1.848-2.977,2.577-4.556
		c2.15-4.653,2.94-9.73,3.83-14.682c1.01-5.621-1.843-8.223-7.462-7.789c-1.056,0.081-1.903-0.502-1.489-1.374
		c0.892-1.876-0.232-2.74-1.32-3.804c-0.439-0.431-1.111-0.999-0.686-1.709c0.348-0.582,1.078-0.12,1.628-0.203
		c0.898-0.135,1.898-0.107,2.662-0.514c1.001-0.534,2.188-1.439,1.833-2.683c-0.386-1.348-1.855-0.967-2.822-0.689
		c-2.181,0.627-3.875-0.23-5.605-1.346c-1.269-0.818-1.605-1.194,0.062-2.073c3.202-1.691,5.563-4.229,6.258-7.948
		c0.162-0.866,0.328-2.017-0.801-2.363c-1.143-0.351-1.858,0.536-2.346,1.443c-0.268,0.499-0.314,1.113-0.481,1.669
		c-0.599,1.994-4.41,4.835-6.814,4.972c0.389-0.549,0.743-1.001,1.045-1.485c0.466-0.751,1.355-1.591,0.418-2.414
		c-0.903-0.793-1.888-0.132-2.709,0.457c-0.472,0.337-0.854,0.795-1.305,1.165c-1.393,1.144-2.959,1.251-4.613,0.885
		c1.49-0.687,2.935-1.334,4.21-2.267c0.693-0.51,1.173-1.309,0.714-2.184c-0.484-0.927-1.414-0.785-2.211-0.5
		c-0.859,0.308-1.715,0.687-2.477,1.183c-1.048,0.684-1.714,1.236-2.174-0.643c-0.423-1.728-1.683-1.406-2.509-0.217
		c-0.551,0.791-0.736,1.836-1.09,2.766c-0.376,0.992-0.449,2.187-1.896,2.972c0.099-0.713,0.091-1.038,0.193-1.328
		c0.366-1.06,1.487-2.241,0.398-3.203c-1.224-1.082-1.96,0.46-2.892,1.033c-1.591,0.978-2.408-0.98-3.729-1.175
		c-0.339-0.049-0.521-0.508-0.229-0.794c0.901-0.882,1.847-0.333,2.785-0.017c0.124,0.042,0.301-0.068,0.806-0.2
		c-1.481-1.097-1.081-2.138-0.071-3.138c0.362-0.359,0.711-0.801,0.299-1.295c-0.423-0.507-0.922-0.203-1.338,0.076
		c-1.263,0.849-2.612,1.134-4.304,0.868c0.752-1.424,2.179-0.697,2.935-1.354c1.029-0.894-0.575-2.047,0.167-3.027
		c0.1-0.132,0.188-0.289,0.32-0.379c1.944-1.323,2.349-3.575,3.256-5.503c0.34-0.722,1.441-1.704,0.34-2.388
		c-0.967-0.601-1.832,0.402-2.547,1.095c-0.417,0.404-0.737,0.907-1.153,1.313c-1.649,1.613-3.319,3.206-5.098,4.919
		c-0.262-1.014,0.1-1.511,0.561-1.847c1.828-1.332,1.4-2.774,0.334-4.322c-0.583-0.844-1.252-1.539-2.219-1.945
		c-0.441-0.185-1.065-0.45-0.756-1.061c0.344-0.685,1.044-0.501,1.507-0.138c0.849,0.664,1.589,1.466,2.415,2.162
		c0.463,0.389,0.879,1.289,1.608,0.7c0.578-0.465-0.084-1.044-0.303-1.55c-1.781-4.132-1.041-7.34,2.424-9.923
		c1.397-1.043,2.897-1.974,4.436-2.795c3.234-1.728,6.318-3.548,8.735-6.458c2.765-3.327,3.174-6.225,0.387-9.624
		c-3.081-3.758-5.984-7.698-9.955-10.663c-2.106-1.572-1.918-2.311,0.48-3.434c0.68-0.317,1.355-0.645,1.999-1.027
		c0.498-0.296,1.037-0.667,0.916-1.356c-0.149-0.858-0.907-0.839-1.562-0.938c-1.446-0.218-2.501,0.785-3.753,1.162
		c-0.606,0.182-2.217,1.055-1.307-1.007c0.592-1.341-0.335-1.867-1.329-2.166c-0.842-0.252-1.758-0.259-2.644-0.375
		c-0.129-1.087,0.774-1.482,1.212-2.138c0.637-0.953,1.797-2.005,0.631-3.039c-1.248-1.108-2.256,0.207-3.198,0.971
		c-1.064,0.863-1.239,2.488-2.511,3.227c-0.694-0.759,0.383-2.046-0.801-2.276c-1.457-0.284-1.164-1.147-0.932-2.039
		c0.271-1.042,0.638-2.059,0.924-3.098c0.211-0.764,0.942-1.696,0.108-2.296c-0.908-0.654-1.715,0.221-2.395,0.797
		c-1.462,1.237-2.871,2.534-4.309,3.8c-2.196,1.933-2.92,1.91-5.227-0.18c3.19-2.259,3.784-6.131,5.706-9.184
		c0.277-0.44,0.196-1.011-0.275-1.347c-0.616-0.441-1.328-0.385-1.844,0.102c-0.531,0.505-0.848,1.231-1.358,1.764
		c-0.863,0.901-2.074,0.7-2-0.418c0.217-3.227-1.305-2.676-3.173-1.589c-0.434-0.924,0.796-1.887-0.227-2.432
		c-0.973-0.52-1.734,0.288-2.459,0.809c-0.604,0.435-1.07,1.07-1.688,1.475c-0.957,0.626-1.649,2.785-2.69,1.816
		c-1.094-1.019,0.814-1.96,1.555-2.866c0.67-0.822,1.289-1.963,0.082-2.534c-1.204-0.569-1.76-3.262-3.535-1.699
		c-2.05,1.805-2.053,0.914-2.259-1.032c-0.511-4.826-1.463-5.328-5.999-3.521c-0.231,0.093-0.468,0.179-0.708,0.246
		c-0.552,0.154-1.295,0.511-1.574-0.14c-0.395-0.919,0.53-1.111,1.133-1.231c2.103-0.42,3.522-1.735,4.069-3.66
		c1.266-4.463,1.746-8.992,0.193-13.531c-0.992-2.905-4.357-6.537-6.289-6.105c-2.075,0.462-2.907-0.748-4.228-1.726
		c1.437-1.205,3.205-2.198,0.759-3.88c-0.459-0.315,0.002-0.726,0.33-0.988c0.55-0.438,1.057-0.922,0.561-1.669
		c-0.429-0.646-1.162-0.607-1.818-0.553c-0.827,0.068-1.646,0.258-2.472,0.353c-0.643,0.074-1.43,0.341-1.812-0.383
		c-0.401-0.76,0.308-1.208,0.786-1.64c0.812-0.731,1.783-1.421,1.57-2.665c-0.399-2.339,1.599-3.852,1.945-5.94
		c0.086-0.519,1.144-0.851,0.607-1.645c-0.426-0.632-1.174-0.532-1.835-0.542c-1.014-0.016-1.981,0.135-2.877,0.679
		c-1.844,1.121-3.706,2.215-5.562,3.316c-0.493,0.292-1.001,0.795-1.589,0.434c-0.607-0.374-0.357-1.05-0.24-1.601
		c0.33-1.548,0.746-3.079,1.035-4.635c0.158-0.854,0.012-1.718-0.965-2.064c-0.918-0.325-1.658,0.048-2.122,0.852
		c-0.538,0.933-1.03,1.899-1.471,2.883c-0.233,0.526,0.13,1.578-0.99,1.247c-0.777-0.229-1.2-0.872-0.866-1.78
		c0.243-0.658,0.923-1.445-0.076-1.936c-0.725-0.356-1.463,0.134-2.057,0.604c-0.851,0.675-1.581,1.451-2.117,2.432
		c-0.351,0.641-0.488,2.002-1.573,1.438c-0.932-0.485,0.084-1.281,0.337-1.912c0.351-0.878,0.8-2.145-0.515-2.139
		c-1.472,0.007-3.384,0.141-4.285,1.475c-1.287,1.906-3.246,3.113-4.545,4.958c-0.367,0.52-0.9,1.339-1.562,0.733
		c-0.805-0.736,0.107-1.299,0.599-1.817c0.86-0.904,1.761-1.772,2.587-2.705c0.386-0.436,0.734-1.041,0.096-1.523
		c-0.479-0.362-0.953-0.003-1.334,0.332c-1.249,1.1-2.466,2.238-3.74,3.308c-0.416,0.349-1.031,0.843-1.494,0.135
		c-0.369-0.569-0.041-1.201,0.524-1.477c1.71-0.834,2.965-2.103,3.944-3.709c0.336-0.551,0.984-0.604,1.57-0.598
		c2.654,0.028,4.424-1.721,6.35-3.145c0.565-0.418,0.961-1.022,0.523-1.727c-0.382-0.617-1.051-0.428-1.593-0.254
		c-2.448,0.788-4.897,1.581-7.317,2.45c-0.767,0.275-1.453,0.445-2.092-0.13c-0.218-0.196-0.466-0.627-0.39-0.839
		c0.343-0.949,1.144-0.26,1.731-0.385c1.166-0.248,1.943-0.916,2.306-2.04c0.163-0.504,0.114-1.053-0.337-1.365
		c-1.016-0.7-1.651,0.437-2.499,0.58c-0.097,0.016-0.222-0.153-0.367-0.26c0.655-1.109,1.647-1.855,2.731-2.479
		c1.164-0.671,3.343-1.06,2.58-2.691c-0.996-2.13-2.764-0.466-4.018,0.247c-1.471,0.836-2.591,0.692-3.166-0.849
		c-0.566-1.514-0.361-3.692-3.068-2.171c-0.355,0.199-0.627-0.654-0.883-1.07c-0.923-1.493-1.839-1.563-2.77,0.012
		c-0.242,0.41-0.51,0.924-1.207,0.505c-0.197-0.506,0.074-0.909,0.35-1.331c0.445-0.681,1.244-1.518-0.33-1.753
		c-1.889-0.281-4.025-0.994-5.642,0.056c-2.239,1.455-4.774,0.211-6.964,1.342c-0.682,0.352-1.276-0.228-1.434-0.984
		c-0.16-0.763,0.36-1.038,0.989-1.148c3.672-0.646,7.236-2.102,11.084-1.445c0.604,0.104,1.42,0.516,1.744-0.364
		c0.278-0.752-0.401-1.179-0.903-1.617c-2.482-2.169-5.162-1.835-7.976-0.752c-0.67,0.258-1.849,0.955-2.209-0.003
		c-0.377-1.001,0.946-1.066,1.633-1.444c1.748-0.962,3.5-1.923,5.188-2.983c0.824-0.517,1.351-1.408,0.791-2.356
		c-0.551-0.931-1.449-0.572-2.215-0.178c-0.889,0.457-1.758,0.948-2.623,1.443c-0.606,0.347-1.627,0.696-1.729,0.017
		c-0.302-1.997-2.37-3.53-1.519-5.772c0.68-1.781-0.16-2.106-1.674-1.835c-3.242,0.581-6.598,0.68-9.436,2.778
		c-1.28,0.947-2.699,0.682-3.803-0.572c-1.02-1.158-0.351-2.189,0.315-3.162c0.896-1.305,1.854-2.565,2.794-3.839
		c0.461-0.625,0.948-1.311,0.301-2.01c-0.695-0.753-1.555-0.442-2.277,0.035c-0.934,0.616-1.812,1.316-2.821,2.058
		c-0.237-1.034,0.179-2.264-1.05-2.223c-1.881,0.062-1.787-0.888-1.484-2.197c0.188-0.807,0.271-1.646,0.312-2.475
		c0.068-1.325-0.799-1.847-1.692-1.065c-1.188,1.038-1.862,0.932-3.388,0.423c-1.644-0.547-1.99-0.662-1.438-2.296
		c0.465-1.373-0.073-2.469-1.776-1.774c-1.098,0.448-1.897,0.286-2.756-0.39c-0.401-0.317-0.97-0.539-1.305,0.014
		c-0.317,0.527,0.102,0.926,0.551,1.21c0.509,0.321,1.642,0.522,0.938,1.316c-1.292,1.458-2.139,3.536-4.514,4.002
		c0.017-1.2,1.105-2.284-0.066-3.18c-1.133-0.868-2.006-0.056-2.88,0.611c-0.5,0.381-1.104,0.357-1.684,0.239
		c-1.423-0.291-1.933,0.481-2.193,1.721c-0.323,1.543-0.752,3.064-1.139,4.593c-0.165,0.646-0.305,1.261-1.061,1.56
		c-2.639,1.043-3.658,2.896-3.266,5.865c0.094,0.721,0.577,1.594-0.341,1.995c-0.972,0.425-1.242-0.561-1.599-1.169
		c-0.586-0.999-1.335-1.884-2.561-1.561c-1.401,0.369-1.221,1.689-1.041,2.721c0.345,1.991-0.682,2.349-2.098,1.658
		c-2.274-1.109-3.741-0.348-5.088,1.498c-0.516,0.707-1.718,1.185-1.02,2.216c0.692,1.024,1.641,0.31,2.414-0.162
		c0.75-0.458,1.379-0.718,1.637,0.479c0.365,1.698-1.242,3.277-2.93,2.93c-1.712-0.351-3.348-0.624-4.91-1.681
		c-1.987-1.344-3.45,0.206-4.549,1.748c-0.803,1.128-0.566,2.22,0.752,2.913c0.803,0.422,1.835,0.681,1.006,1.973
		c-0.689,1.073-1.202,2.306-2.858,1.288c-0.846-0.519-1.852-0.486-2.577,0.192c-1.266,1.182-3.006,1.861-3.794,3.551
		c-0.763,1.636-1.506,1.142-2.296-0.003c-0.559-0.811-0.48-1.516,0.096-2.28c0.522-0.694,0.512-1.44-0.243-1.965
		c-0.757-0.527-1.427-0.098-2.038,0.38c-2.488,1.945-2.547,4.691,0.47,6.85c2.168,1.553,2.09,3.529,2.383,5.581
		c0.079,0.556,0.011,1.314-0.78,1.292c-0.653-0.018-0.543-0.72-0.604-1.192c-0.117-0.912-0.107-2.003-1.359-2.021
		c-1.119-0.015-1.453,0.969-1.719,1.867c-0.448,1.508-0.975,2.606-2.984,1.849c-1.322-0.499-1.445,0.777-1.457,1.685
		c-0.025,1.717-0.446,2.664-2.346,1.602c-0.345-0.193-0.805-0.252-1.051,0.39c0.367,0.766,1.051,1.13,1.895,1.35
		c0.549,0.144,1.164,0.307,1.57,0.665c0.53,0.468,1.289,1.113,0.816,1.887c-0.422,0.695-1.257,0.303-1.812-0.009
		c-1.643-0.925-3.066,0.107-4.574,0.4c-1.199,0.232-1.289,0.818-1.041,1.98c0.506,2.363,0.83,4.707,4.264,4.812
		c-1.092,1.008-1.88,0.7-2.594,0.785c-0.703,0.084-1.632,0.31-1.342,1.072c0.738,1.942-0.701,2.392-1.791,3.216
		c-1.394,1.054-2.748,2.168-4.043,3.342c-0.869,0.789-1.463,2.361-0.355,2.747c2.743,0.956,3.068,3.567,4.324,5.458
		c1.498,2.257,2.473,4.862,4.602,6.769c-2.279,0.144-3.182-1.737-4.697-2.604c-0.751-0.43-1.652-1.322-2.438-0.406
		c-0.763,0.888,0.15,1.646,0.724,2.357c0.937,1.16,2.541,1.64,3.242,3.162c-2.385-1.692-4.472-0.95-6.531,0.481
		c-1.097,0.762-2.23,1.485-3.673,1.357c-0.601-0.053-1.206-0.106-1.425-0.778c-0.168-0.521,0.07-0.972,0.44-1.352
		c0.615-0.631,1.742-1.278,0.888-2.225c-0.836-0.928-1.641,0.217-2.377,0.616c-2.248,1.218-2.564,1.076-2.906-1.676
		c-0.135-1.094-0.629-1.487-1.668-1.18c-2.164,0.64-3.711,2.931-3.472,5.165c0.056,0.519,0.094,1.018-0.315,1.391
		c-0.292,0.268-0.675,0.162-0.881-0.113c-0.907-1.208-2.354-1.094-3.57-1.562c-1.433-0.55-2.44-1.356-0.686-2.82
		c0.557-0.464,0.968-1.129,1.358-1.757c0.218-0.353,0.235-0.867-0.194-1.111c-0.239-0.137-0.642-0.123-0.922-0.031
		c-1.115,0.368-3.797,4.297-3.783,5.556c0.008,0.65,0.336,1.39-0.527,1.713c-0.793,0.296-1.494,0.049-1.971-0.651
		c-0.474-0.698-1.12-1.285-1.812-0.558c-1.308,1.375-2.486,2.884-3.621,4.409c-0.338,0.454-0.258,1.147,0.231,1.611
		c0.423,0.401,1.095,0.425,1.368,0.067c1.574-2.064,3.868-0.941,5.792-1.405c0.855-0.207,1.783-0.221,2.069,0.812
		c0.338,1.226-0.671,1.302-1.504,1.438c-0.926,0.151-1.888,0.745-1.52,1.583c0.97,2.203-0.71,2.694-1.936,3.503
		c-0.91,0.6-1.857,1.144-2.414,2.12c-0.35,0.61-0.477,1.734,0.127,1.727c1.73-0.02,2.108,1.313,3.07,2.168
		c0.686,0.61,1.454,1.609,2.688,1.604c2.566-0.01,2.692,0.24,1.463,2.582c-0.311,0.591-0.666,1.161-0.934,1.769
		c-0.802,1.823-1.734,2.269-3.312,0.65c-1.734-1.781-3.578-1.647-5.461,0.015c-0.67,0.591-1.002,1.697-2.162,1.774
		c-0.299-1.115,0.435-1.899,0.442-2.802c0.01-1.317-0.903-2.567-1.87-1.613c-1.547,1.527-3.394,1.424-5.121,2.006
		c-0.58,0.196-1.103,1.054-1.734,0.313c-0.571-0.671,0.126-1.209,0.48-1.744c0.139-0.208,0.304-0.402,0.412-0.625
		c0.253-0.52,0.661-1.183,0.018-1.56c-0.694-0.406-0.969,0.321-1.256,0.824c-1.057,1.851-2.122,3.695-3.291,5.726
		c-1.08-2.332-2.303-2.437-3.641-0.477c-0.525,0.769-1.377,0.834-2.15,1.129c-2.556,0.976-3.696,2.657-3.119,4.583
		c0.218,0.731,0.622,1.415-0.055,2.073c-0.762,0.741-1.531,0.346-2.293-0.044c-0.571-0.292-1.192-0.883-1.787-0.196
		c-0.636,0.733-0.396,1.567,0.102,2.305c0.326,0.482,0.718,0.919,1.068,1.386c2.181,2.911,2.03,5.348-0.481,7.936
		c-0.232,0.238-0.475,0.479-0.641,0.761c-0.399,0.681-0.622,1.426,0.003,2.072c0.586,0.604,1.254,0.29,1.819-0.086
		c0.829-0.552,1.602-1.19,2.427-1.749c1.742-1.179,3.202-0.653,3.896,1.665c-1.609-1.218-3.042-1.943-3.291,0.807
		c-0.041,0.455-0.512,0.608-0.965,0.61c-1.422,0.007-2.099,0.429-0.828,1.695c0.734,0.732,0.302,1.081-0.26,1.576
		c-1.475,1.294-2.564,0.373-3.727-0.519c-0.504-0.386-1.066-0.912-1.802-0.529c-0.507,0.264-0.773,0.951-0.493,1.271
		c1.679,1.919-0.377,3.506-0.383,5.263c-0.006,1.407-1.195,1.562-1.912,0.933c-2.114-1.855-4.033-0.618-6.023,0.058
		c-1.017,0.346-1.988,0.897-1.479,2.137c0.469,1.14,1.504,0.712,2.391,0.432c0.474-0.15,0.956-0.295,1.445-0.379
		c0.413-0.071,0.918-0.051,1.096,0.376c0.285,0.688-0.344,0.866-0.791,0.992c-3.297,0.931-4.916,3.843-7.152,6.02
		c-0.983,0.957-0.811,1.954-0.297,3.182c0.51,1.222,2.033,2.216,1.671,3.494c-0.749,2.643,0.916,2.281,2.404,2.328
		c0.583,0.018,1.17-0.003,1.749,0.055c1.17,0.117,2.147,0.717,2.504,1.795c0.348,1.053-0.862,1.289-1.445,1.778
		c-2.053,1.72-5.49,0.885-6.787,4.295c-0.549-1.472,0.181-1.905,0.658-2.422c0.631-0.684,0.84-1.449,0.468-2.296
		c-0.693-1.574-3.976-2.453-5.182-1.213c-1.218,1.251-1.952,0.163-2.881-0.454c-0.286,1.967,1.075,3.665,0.214,5.513
		c-1.133-0.619-1.057-1.655-1.307-2.477c-0.659-2.166-1.2-4.361-3.308-5.68c-0.561-0.351-1.096-0.967-1.771-0.453
		c-0.733,0.56-0.581,1.395-0.114,2.025c1.133,1.529,1.471,3.338,1.969,5.096c0.228,0.805,0.534,1.647-0.379,2.25
		c-0.695,0.459-1.417,0.44-2.114-0.013c-0.919-0.597-0.591-1.399-0.422-2.234c0.181-0.894,1.406-1.999,0.218-2.664
		c-1.214-0.679-2.077,0.636-2.892,1.421c-0.349,0.336-0.655,0.79-0.8,1.247c-0.5,1.589-1.494,2.089-3.07,1.625
		c-0.827-0.244-1.762-0.375-2.139,0.64c-0.36,0.967,0.377,1.472,1.109,1.974c1.899,1.301,1.665,3.844-0.273,5.175
		c-2.324,1.596-5.004,2.685-6.99,4.755c-0.62,0.646-1.305,1.417-0.911,2.434c0.333,0.859,1.264,0.618,1.946,0.849
		c1.607,0.544,2.912,0.168,4.066-1.059c0.707-0.752,1.734-1.49,2.609-0.654c1.024,0.978-0.183,1.894-0.771,2.503
		c-1.818,1.886-2.863,4.295-4.501,6.293c-0.677,0.825-1.08,1.889-0.171,2.692c0.984,0.87,1.609-0.341,2.316-0.791
		c0.555-0.354,0.965-1.057,1.549-1.223c1.281-0.363,2.979-1.214,3.727,0.512c1.349,3.113,0.787,3.831-2.594,4.141
		c-0.332,0.03-0.666,0.056-0.991,0.119c-0.612,0.119-1.165,0.4-1.192,1.083c-0.033,0.824,0.581,1.298,1.286,1.214
		c2.946-0.354,2.166,1.202,1.569,2.816c-0.561,1.515,1.232,5.188,2.564,4.942c2.856-0.526,3.756,0.713,4.004,3.215
		c0.045,0.455,0.705,0.876,1.131,1.257c0.369,0.332,0.925,0.594,0.795,1.157c-0.165,0.721-0.866,0.676-1.436,0.704
		c-1.679,0.083-3.274-0.037-4.801-0.979c-1.135-0.699-2.574-0.766-3.164,0.754c-0.58,1.497,0.601,2.036,1.826,2.367
		c0.803,0.217,1.862,0.334,2.139,1.139c1.431,4.152,4.482,5.854,8.645,6.023c0.077,0.002,0.149,0.071,0.225,0.106
		c0.526,0.241,1.078,0.606,1.588,0.028c0.443-0.498,0.311-1.074,0.083-1.643c-1.09-2.736-1.018-2.831,2.056-2.794
		c0.75,0.009,1.5,0.039,2.25,0.019c1.383-0.037,1.589,0.404,1.264,1.817c-0.37,1.603-2.014,3.702,0.858,4.854
		c0.376,0.15,0.249,0.633-0.002,0.859c-1.41,1.273-0.983,3.109-1.479,4.659c-0.212,0.666,0.034,1.769-0.941,1.82
		c-1.127,0.059-1.113-1.011-1.206-1.837c-0.078-0.691-0.224-1.352-1.017-1.547c-0.928-0.229-1.66,0.146-2.135,0.922
		c-0.79,1.296-2.199,2.123-2.579,4.253c-1.159-2.634-3.013-2.565-4.663-2.03c-1.711,0.555-1.499,2.375-1.671,3.84
		c-0.217,1.859,0.849,3.256,1.894,5.012c-2.928-2.059-3.832-0.258-4.795,1.873c-0.579,1.281-0.612,2.578-0.763,3.888
		c-0.147,1.258,0.381,1.895,1.563,1.077c1.267-0.875,1.445-0.338,1.699,0.846c0.37,1.717,1.002,3.531,2.384,4.57
		c1.868,1.406,1.442,2.385-0.106,3.689c-0.413-0.547-0.761-1.097-1.197-1.566c-0.651-0.707-1.254-1.832-2.434-1.113
		c-0.945,0.574-0.698,1.585-0.363,2.482c0.088,0.234,0.238,0.453,0.283,0.692c0.178,0.947,0.059,1.933-0.664,2.537
		c-0.766,0.64-1.325-0.222-1.922-0.629c-0.693-0.474-1.791-1.118-2.2-0.279c-0.962,1.974-2.534,1.847-4.216,1.8
		c-0.679-0.019-1.414,0.082-1.688,0.811c-0.304,0.807,0.071,1.585,0.755,1.941c2.605,1.356,4.833,3.592,8.153,3.323
		c2.096-0.169,3.934,0.909,4.655,2.74c0.683,1.733,1.554,2.772,3.314,2.931c0.044,0.817-0.489,1.014-0.865,1.297
		c-1.691,1.279-1.818,2.857-0.955,4.654c0.923,1.922,2.325,2.667,4.477,2.092c2.809-0.755,2.82-0.693,2.043,2.141
		c-0.353,1.293-0.807,2.563,0.627,3.604c0.767,0.558,0.812,1.386,0.283,2.228c-0.459,0.73-1.457,1.634-0.318,2.322
		c0.978,0.59,1.543-0.613,2.156-1.242c0.998-1.023,2.037-3.75,2.89,0.093c0.049,0.22,0.236,0.485,0.431,0.585
		c2.174,1.104,3.949,2.872,6.549,3.299c2.502,0.411,3.284,0.204,3.932-2.234c0.224-0.846,0.49-1.718,1.477-1.766
		c1.11-0.054,1.213,0.924,1.381,1.747c0.361,1.792,0.744,3.58,1.088,5.376c0.132,0.695,0.334,1.337,1.086,1.523
		c1.353,0.338,0.976,1.01,0.447,1.81c-0.433,0.651-0.682,1.405-0.1,2.082c0.619,0.718,1.366,0.397,2.057,0.06
		c2.695-1.322,2.187,3.867,4.938,2.424c0.146,0.285,0.343,0.555,0.422,0.857c0.06,0.225-0.008,0.496-0.065,0.736
		c-0.412,1.753,0.001,2.601,2.015,2.056c0.49-0.132,1.109,0.271,1.678,0.374c2.142,0.393,4.284,0.881,5.58-1.7
		c0.225-0.446,0.742-1.129,1.554-0.921c0.384,1.086-1.568,2.902,0.798,3.194c1.564,0.192,1.435,0.85,1.336,1.95
		c-0.183,2.066,1.509,2.684,2.942,3.211c1.418,0.522,1.687-0.901,2.238-1.799c0.474-0.775,0.989-1.573,1.656-2.174
		c2.259-2.031,3.566-1.55,4.322,1.51c-0.648,0.275-1.068-0.317-1.613-0.434c-1.009-0.213-1.933,0.003-2.318,0.975
		c-0.511,1.287,0.732,1.17,1.414,1.5c0.519,0.252,1.087,0.5,1.48,0.9c3.421,3.489,7.98,4.295,12.443,5.223
		c5.51,1.145,9.132-0.717,11.264-5.722c0.352-0.825-0.041-1.993,1.438-1.918c0.54,0.028,1.048,0.197,1.165,0.749
		c0.198,0.938-0.46,1.553-1.015,2.169c-1.162,1.293-2.518,2.386-3.32,4.024c-0.66,1.346-2.504,2.627,0.525,3.352
		c0.47,0.113,0.291,0.702,0.25,1.104c-0.231,2.332,1.247,2.488,3.022,2.533c1.562,0.039,2.645-1.297,4.333-1.377
		c-0.379,1.424-1.853,3.168,1.046,3.219c0.527,0.009,0.592,0.445,0.534,0.916c-0.084,0.67-1.178,1.336-0.245,1.972
		c0.781,0.532,1.628-0.027,2.298-0.517c1.556-1.143,1.951-0.539,1.949,1.115c-0.001,1.073-0.453,2.743,1.238,2.764
		c1.603,0.019,1.588-1.637,1.773-2.855c0.049-0.324-0.021-0.668,0.012-0.998c0.06-0.604-0.343-1.531,0.621-1.613
		c0.706-0.062,0.756,0.746,0.83,1.326c0.283,2.251,1.24,2.026,2.547,0.719c0.518-0.52,1.23-1.338,1.907-0.728
		c2.126,1.92,4.639,1.942,7.233,1.865c0.301-0.011,0.641,0.212,0.56,0.688c-0.491,0.721-1.978,0.25-2.007,1.514
		c-0.028,1.26,1.105,1.535,1.951,2.016c0.724,0.412,1.504,0.734,2.199,1.189c5.587,3.646,11.33,3.783,17.308,0.979
		c1.512-0.709,1.611-1.412,0.723-2.642c-1.072-1.482-2.351-2.899-2.851-4.67c-0.688-2.435-2.465-3.726-4.504-4.715
		c-1.702-0.824-3.545-1.359-5.775-2.19c3.451-0.812,9.131,2.272,10.875,5.538c3.26,6.154,8.094,10.837,13.75,14.771
		c4.04,2.812,7.184,6.078,5.391,11.627c-0.148,0.463-0.141,0.986-0.156,1.483c-0.236,8.56-0.806,17.099-1.449,25.636
		c-0.275,3.645-0.991,7.432-0.316,10.923c0.78,4.045-0.321,7.551-1.186,11.234c-0.287,1.221-1.12,1.748-2.37,1.795
		c-7.894,0.296-15.787,0.774-23.683,0.888c-8.559,0.122-17.111,0.205-25.671,0.434c-13.901,0.367-27.763,1.507-41.668,1.719
		c-4.485,0.068-8.965,0.561-13.444,0.902c-0.857,0.063-2.093-0.103-2.106,1.201c-0.012,1.231,1.106,1.647,2.118,1.712
		c3.574,0.23,7.066,1.039,10.668,1.178c4.644,0.18,9.359,0.45,13.872,1.453c3.484,0.773,6.886,1.012,10.377,0.935
		c1.161-0.024,2.324-0.241,3.479-0.198c7.887,0.297,15.736,1.126,23.623,1.517c7.893,0.391,15.764,0.469,23.658,0.558
		c12.234,0.139,24.467,0.277,36.701,0.213c21.569-0.113,43.158,0.501,64.697-1.103c5.531-0.412,11.169-0.038,16.569-1.822
		c2.865-0.947,5.933-1.315,8.816-0.688c4.228,0.922,6.148-2.513,9.771-3.862c-3.136-1.154-5.618-1.623-8.251-1.559
		C334.847,445.855,331.225,446.047,327.684,445.639z M402.123,245.122c1.125,0.609,3.113,1.164,1.324,3.213
		c-0.451,0.516,0.065,1.253,0.449,1.824c0.396,0.591,0.996,1.18,0.02,2.34c-1.954-3.781-4.093-7.28-8.315-8.797
		C397.939,243.876,400.172,244.066,402.123,245.122z M112.09,258.668c-1.241,0.655-1.807,1.527-2.06,3.051
		c-0.226,1.369-1.973,1.889-3.361,2.207c-0.758,0.174-1.207-0.408-1.438-1.103c-0.538-1.613,0.34-2.902,1.005-4.228
		c0.078-0.154,0.408-0.179,0.632-0.268c1.862,1.395,3.111,0.054,4.464-0.9c0.395-0.279,0.949-0.615,1.336-0.105
		C113.164,257.977,112.637,258.379,112.09,258.668z M187.768,106.211c-0.682,1.196-1.987,0.758-2.592,0.162
		c-1.341-1.32-2.831-2.218-4.584-2.805c-0.43-0.144-1.101-0.602-0.764-1.067c0.57-0.787,1.627-0.644,2.487-0.794
		c1.908,0.087,3.521,1.042,5.133,1.814C188.437,103.996,188.268,105.332,187.768,106.211z M235.488,364.918
		c-0.905,1.695-1.121,3.456-0.653,5.326c0.198,0.792,0.62,1.82-0.118,2.355c-0.98,0.713-1.31-0.627-1.956-1.011
		c-1.557-0.925-2.9-2.062-4.103-3.962c3.483,1.455,4.75,0.672,4.901-2.756c0.123-2.829,0.044-5.666,0.037-8.499
		c-0.002-0.412,0.055-1.001-0.18-1.207c-2.582-2.269-0.012-2.487,1.481-3.622c-0.617,4.061,0.085,7.624,0.808,11.184
		C235.859,363.486,235.857,364.229,235.488,364.918z"/>
	<path fill="#FFFFFF" d="M368.197,312.727c0.499-0.123,1.345-0.14,1.191,0.375c-0.789,2.637,1.504,4.035,2.273,6.021
		c1.249,3.227,2.876,6.161,6.711,7.049c0.91,0.21,1.887,0.864,2.472,1.6c0.486,0.614,0.91,0.918,1.294,1.004
		c0.609-5.788,4.578-11.006,9.807-13.67c0.537-0.374,1.093-0.719,1.666-1.028c0.335-2.364,1.116-4.662,2.31-6.715
		c-0.14-0.949-0.435-1.954-0.913-3.028c-0.324,1.809-0.654,2.938-0.706,4.079c-0.117,2.464-1.416,3.194-3.739,3.224
		c-4.988,0.068-9.964,0.434-14.842-1.111c-2.505-0.793-5.083,0.442-7.664,0c-0.878-0.152-1.855,0.619-1.667,1.738
		C366.585,313.412,367.504,312.896,368.197,312.727z"/>
	<path fill="#FFFFFF" d="M228.658,367.627c3.482,1.455,4.75,0.672,4.9-2.757c0.123-2.829,0.044-5.666,0.037-8.499
		c-0.002-0.412,0.056-1.001-0.18-1.207c-2.582-2.27-0.012-2.486,1.481-3.622c-0.617,4.062,0.085,7.624,0.808,11.183
		c0.154,0.762,0.152,1.502-0.217,2.192c-0.905,1.694-1.121,3.456-0.653,5.326c0.198,0.792,0.62,1.821-0.118,2.356
		c-0.98,0.711-1.31-0.627-1.956-1.012C231.204,370.664,229.861,369.527,228.658,367.627z"/>
	<path fill="#FFFFFF" d="M106.868,258.328c1.862,1.395,3.11,0.054,4.464-0.901c0.395-0.278,0.949-0.616,1.336-0.106
		c0.496,0.654-0.031,1.059-0.578,1.347c-1.24,0.653-1.807,1.526-2.06,3.051c-0.227,1.369-1.974,1.888-3.361,2.207
		c-0.758,0.175-1.206-0.407-1.438-1.103c-0.538-1.613,0.34-2.902,1.005-4.228C106.314,258.441,106.645,258.417,106.868,258.328z"/>
	<path fill="#FFFFFF" d="M182.315,101.707c1.907,0.088,3.521,1.042,5.132,1.815c0.989,0.475,0.82,1.811,0.32,2.69
		c-0.682,1.196-1.986,0.758-2.592,0.162c-1.341-1.32-2.831-2.218-4.584-2.805c-0.43-0.145-1.101-0.602-0.764-1.067
		C180.398,101.713,181.455,101.856,182.315,101.707z"/>
	<path fill="#FFFFFF" d="M403.916,252.499c-1.954-3.78-4.093-7.279-8.315-8.798c2.34,0.175,4.571,0.365,6.522,1.42
		c1.125,0.609,3.113,1.165,1.324,3.213c-0.451,0.516,0.065,1.253,0.449,1.824C404.293,250.75,404.893,251.339,403.916,252.499z"/>
</g>
</svg>
